<?xml version="1.0" encoding="UTF-8" standalone="no"?>
<!-- Created with Inkscape (http://www.inkscape.org/) -->

<svg
   width="991.10779mm"
   height="391.50696mm"
   viewBox="0 0 991.10779 391.50696"
   version="1.1"
   id="svg1972"
   inkscape:version="1.1 (c68e22c387, 2021-05-23)"
   sodipodi:docname="client_hallensteins.svg"
   xmlns:inkscape="http://www.inkscape.org/namespaces/inkscape"
   xmlns:sodipodi="http://sodipodi.sourceforge.net/DTD/sodipodi-0.dtd"
   xmlns="http://www.w3.org/2000/svg"
   xmlns:svg="http://www.w3.org/2000/svg">
  <sodipodi:namedview
     id="namedview1974"
     pagecolor="#ffffff"
     bordercolor="#999999"
     borderopacity="1"
     inkscape:pageshadow="0"
     inkscape:pageopacity="0"
     inkscape:pagecheckerboard="0"
     inkscape:document-units="mm"
     showgrid="false"
     fit-margin-top="0"
     fit-margin-left="0"
     fit-margin-right="0"
     fit-margin-bottom="0"
     inkscape:zoom="0.16213524"
     inkscape:cx="1853.391"
     inkscape:cy="774.04517"
     inkscape:window-width="1920"
     inkscape:window-height="1001"
     inkscape:window-x="-9"
     inkscape:window-y="-9"
     inkscape:window-maximized="1"
     inkscape:current-layer="layer1" />
  <defs
     id="defs1969" />
  <g
     inkscape:label="Layer 1"
     inkscape:groupmode="layer"
     id="layer1"
     transform="translate(386.21877,57.45266)">
    <path
       style="fill:#111827;fill-opacity:1;stroke-width:0.928121"
       d="m 523.92439,333.55336 c -12.73058,-1.84216 -27.36154,-9.3463 -35.67252,-18.29638 -10.7474,-11.5738 -14.38754,-27.04439 -11.18418,-47.53335 l 0.51882,-3.31888 14.06118,3.81738 c 12.44457,3.37854 14.0263,4.02685 13.75825,5.63917 -0.16663,1.00203 -0.36309,5.58072 -0.43659,10.17495 -0.11948,7.46043 0.14023,8.87862 2.42943,13.27052 4.37267,8.38893 14.41815,13.00049 22.60365,10.37667 8.71061,-2.79204 13.55143,-9.88346 13.41398,-19.65032 -0.10396,-7.38722 -3.0693,-13.74589 -14.08364,-30.19978 -13.64091,-20.3777 -17.59119,-29.52511 -17.59119,-40.73493 0,-11.09136 4.70288,-21.49514 13.85249,-30.64478 11.32986,-11.32983 26.75544,-13.87832 44.21783,-7.30557 25.53679,9.61202 38.47669,30.38197 34.30643,55.06553 -0.62124,3.67726 -0.74078,3.78572 -3.58394,3.25549 -1.61771,-0.30165 -7.53549,-1.45111 -13.15066,-2.55421 l -10.20937,-2.00578 -0.52039,-9.47322 c -0.46984,-8.55369 -0.78594,-9.85134 -3.25689,-13.36696 -5.2688,-7.49655 -16.67544,-10.7166 -23.57289,-6.65456 -4.42621,2.60683 -8.38263,9.1386 -8.38263,13.8394 0,6.27742 2.24271,11.03217 12.55937,26.62666 13.87721,20.9767 18.1579,30.10942 19.49249,41.58673 1.67907,14.43974 -7.31957,33.12094 -20.04851,41.62108 -8.83261,5.89817 -18.62217,8.04211 -29.52052,6.46514 z m -877.69836,-72.32885 c -17.84466,-38.83559 -32.4448,-71.0089 -32.4448,-71.49629 0,-0.87021 27.17504,-13.79339 41.76562,-19.86193 21.22794,-8.82898 37.82772,-7.47336 49.57596,4.04882 6.07861,5.96164 10.70168,14.64894 12.24851,23.01621 1.24936,6.75841 -0.10049,14.40076 -3.89932,22.07741 -1.49966,3.03038 -2.40784,5.77329 -2.01814,6.09534 0.38976,0.32197 3.42331,1.09731 6.74138,1.72289 13.29949,2.50748 21.57322,8.76064 28.10965,21.24464 5.07089,9.68488 6.50782,15.78834 6.04051,25.65738 -0.33832,7.14365 -0.8419,9.31252 -3.25559,14.01974 -6.76418,13.19213 -16.20025,20.01835 -47.33417,34.24278 -11.84928,5.41374 -21.89083,9.84318 -22.31443,9.84318 -0.4237,0 -15.37049,-31.77455 -33.21518,-70.61017 z m 58.533,32.84363 c 15.9516,-7.81579 20.95741,-16.79525 16.56927,-29.72205 -5.22433,-15.39028 -17.09195,-20.01959 -34.27712,-13.37064 -12.38887,4.79309 -12.26952,2.19797 -1.2125,26.36904 5.28957,11.56348 9.71124,21.03638 9.82578,21.05104 0.11453,0.0145 4.20711,-1.93273 9.09457,-4.32739 z m -31.49907,-63.36731 c 3.33904,-1.51395 7.68231,-4.029 9.65184,-5.58888 10.00644,-7.92525 9.84227,-22.79443 -0.34274,-31.03073 -3.22688,-2.60948 -4.10943,-2.85361 -10.17317,-2.81342 -5.70072,0.038 -7.72261,0.54833 -14.29671,3.60966 -4.21137,1.96104 -7.65704,3.92671 -7.65704,4.36811 0,1.60094 15.23068,34.20788 15.9785,34.20788 0.42265,0 3.50044,-1.23865 6.83932,-2.75262 z m 762.83946,62.88045 c -7.65698,-2.58196 -14.00815,-4.75843 -14.11359,-4.83648 -0.10543,-0.0779 -1.26616,-15.76483 -2.57929,-34.85922 -1.31318,-19.09459 -2.47991,-34.78462 -2.5927,-34.86695 -0.68921,-0.50316 -12.36956,-4.12764 -13.30169,-4.12764 -0.66508,0 -5.25283,12.3887 -11.08432,29.93203 -5.4723,16.46258 -10.07108,30.07584 -10.21967,30.25171 -0.53392,0.63214 -27.3196,-8.64409 -27.3196,-9.46113 0,-0.5997 45.40673,-138.4791 48.70326,-147.88935 0.53551,-1.52871 47.56925,14.24273 56.34026,18.89207 21.80527,11.55866 29.28224,31.73089 20.80094,56.119 -5.81689,16.7264 -16.84004,27.27872 -30.47968,29.17764 -3.21811,0.44804 -4.40661,1.02391 -4.40124,2.13256 0,0.83543 1.2537,16.76332 2.77701,35.39543 3.00733,36.78359 3.12724,39.01731 2.08828,38.90791 -0.38283,-0.0399 -6.96092,-2.18575 -14.61797,-4.76758 z m 4.32472,-96.4787 c 7.60503,-2.27856 14.70184,-14.43045 14.70184,-25.1741 0,-5.17988 -3.07493,-11.10263 -7.27567,-14.01368 -4.02008,-2.78593 -22.48146,-9.26936 -23.42131,-8.22539 -0.6272,0.69672 -13.85298,40.05633 -13.85298,41.22637 0,0.56123 14.5474,5.63697 19.02653,6.63858 3.5051,0.78369 7.21461,0.62888 10.82159,-0.45178 z m -655.27197,85.37302 c -1.35942,-4.26323 -42.97246,-146.74916 -43.14787,-147.74142 -0.15296,-0.86485 39.38915,-12.7853 49.80548,-15.01444 9.07243,-1.94157 20.52595,-1.74313 27.72465,0.48035 16.55567,5.11355 27.35684,19.94688 30.46077,41.83245 1.75808,12.39594 -1.31731,22.49455 -9.40604,30.88658 l -4.42061,4.58621 23.97024,29.34361 c 13.1835,16.13898 23.85145,29.47702 23.70659,29.64003 -0.39703,0.4467 -27.66608,8.48156 -28.85612,8.50254 -0.56785,0.0103 -10.72028,-12.13299 -22.56115,-26.98448 -24.086,-30.21018 -20.57808,-27.4905 -31.43591,-24.37236 -3.80913,1.09376 -4.81005,1.75731 -4.46159,2.95746 0.24706,0.85101 4.26519,14.64935 8.92921,30.66294 4.6641,16.01345 8.13361,29.41875 7.71004,29.78925 -0.42352,0.3706 -6.12844,2.22562 -12.67775,4.12247 -6.54921,1.89677 -12.45894,3.66022 -13.13278,3.91882 -0.77124,0.29586 -1.58888,-0.67095 -2.20716,-2.61001 z m 13.36591,-93.18804 c 14.54727,-4.20032 19.53675,-7.8654 21.71364,-15.94991 2.19466,-8.15014 -2.3395,-21.82958 -8.89223,-26.82761 -5.06777,-3.86538 -13.6014,-4.02995 -25.39116,-0.48958 -5.95339,1.78773 -8.78498,3.07747 -8.71791,3.97086 0.18147,2.41832 11.90347,41.69654 12.44375,41.69654 0.2921,0 4.27178,-1.08014 8.84391,-2.4003 z m 492.79394,63.86496 c -21.95013,-4.36038 -39.97098,-7.96623 -40.04625,-8.01277 -0.32086,-0.19852 30.12591,-153.823617 30.57506,-154.272827 0.54526,-0.5452 78.70278,14.530517 79.70115,15.373557 0.50557,0.42672 -3.6268,23.9649 -4.37906,24.94381 -0.12205,0.15867 -10.8118,-1.79705 -23.75509,-4.34613 -12.94331,-2.5491 -24.54283,-4.7672 -25.77679,-4.92918 -2.20501,-0.28951 -2.30386,0.0145 -5.76958,17.7578 -1.93929,9.92881 -3.43559,18.13544 -3.32518,18.23701 0.11038,0.1016 8.72522,1.89476 19.14403,3.98471 10.41876,2.09005 19.12999,3.98677 19.35808,4.21486 0.79598,0.79587 -3.96928,23.95734 -5.01242,24.36292 -0.57841,0.22479 -9.54072,-1.27022 -19.91622,-3.3224 -10.37564,-2.05219 -18.89858,-3.6444 -18.94009,-3.5382 -1.10937,2.84022 -7.78619,41.02113 -7.25763,41.50209 0.41764,0.37997 12.03611,2.85184 25.81876,5.4932 13.78262,2.64137 25.51125,4.95017 26.06365,5.13075 0.67868,0.22183 0.24485,4.41947 -1.338,12.94691 -1.84647,9.94809 -2.64829,12.59567 -3.78857,12.51037 -0.79557,-0.0595 -19.4057,-3.67593 -41.35585,-8.03648 z M -74.833026,249.1539 c -6.506422,-1.14422 -15.307919,-5.2506 -19.93093,-9.29878 -5.247134,-4.59486 -10.380314,-13.08161 -13.090734,-21.64297 -1.37898,-4.35613 -4.71988,-22.27543 -7.97333,-42.76646 -4.91069,-30.92947 -5.53921,-36.35351 -5.10839,-44.08593 1.20563,-21.64069 11.85421,-34.771328 33.11258,-40.831133 8.71474,-2.48412 23.655232,-3.414845 30.828879,-1.920372 15.353665,3.198389 25.960123,13.468005 31.6924,30.685925 2.277586,6.84099 12.110138,65.68236 13.271553,79.42022 0.63029,7.45712 -0.713872,16.66766 -3.531526,24.19852 -2.608871,6.97302 -10.979362,15.80997 -18.620316,19.65836 -11.167481,5.62433 -29.35314,8.56927 -40.650186,6.58262 z m 21.5501,-26.87876 c 4.42431,-1.22875 8.982313,-5.07222 10.596377,-8.93524 2.150666,-5.14728 1.451161,-13.78146 -3.870721,-47.77605 -5.588953,-35.7006 -6.886575,-41.52185 -10.243979,-45.95476 -4.740566,-6.25938 -16.88248,-7.57518 -26.374698,-2.85816 -7.693316,3.82301 -10.127853,10.51702 -8.360357,22.9876 2.454619,17.31786 10.381826,66.66148 11.17891,69.58373 1.46603,5.37474 4.866693,10.37714 8.294264,12.20102 3.665696,1.95053 13.103516,2.32838 18.780204,0.75186 z m 259.273696,17.53653 c -5.0682,-0.4464 -9.27798,-0.91111 -9.35513,-1.03264 -0.077,-0.12147 0.99697,-15.46534 2.38677,-34.09741 1.38976,-18.63211 2.46714,-33.93019 2.39419,-33.99575 -0.50842,-0.45667 -42.71528,-3.0856 -43.11539,-2.68547 -0.2785,0.27842 -1.64303,15.64137 -3.03236,34.13982 -1.3893,18.49848 -2.56775,33.63439 -2.61871,33.63539 -3.76955,0.077 -27.98546,-2.06097 -28.43408,-2.50999 -0.68162,-0.68199 10.36507,-155.70446 11.1512,-156.490696 0.44998,-0.449844 28.36246,1.371044 28.7935,1.878462 0.12491,0.147082 -0.80254,14.185609 -2.06111,31.196734 -1.25838,17.01117 -2.11053,31.10693 -1.89351,31.32391 0.55546,0.55563 42.37053,3.58833 42.85091,3.10795 0.21672,-0.21674 1.41967,-14.29742 2.67329,-31.29041 1.25363,-16.993053 2.4366,-31.011445 2.6289,-31.152045 0.73435,-0.536919 27.62385,1.770962 28.28007,2.427235 0.59373,0.593698 -8.93257,139.94685 -10.40466,152.20312 l -0.52959,4.40857 -5.24957,-0.12761 c -2.88727,-0.0706 -9.39644,-0.49284 -14.46472,-0.93917 z M 42.098597,234.2473 c -0.03527,-6.43228 -5.548259,-129.17601 -5.813636,-129.44125 -0.1728,-0.17288 -8.016849,0.0446 -17.430962,0.48365 -9.414245,0.4389 -17.2063299,0.72152 -17.3158674,0.62797 -0.1093787,-0.0936 -0.4841875,-5.85304 -0.83280245,-12.798852 L 0.07151979,80.489939 6.0090872,79.952649 C 9.2746805,79.65703 28.444007,78.78208 48.607506,78.0082 68.771031,77.234452 88.647801,76.360348 92.778158,76.065788 l 7.509722,-0.535543 0.61174,12.75498 c 0.33645,7.015374 0.46731,12.899495 0.29089,13.075915 -0.17645,0.1764 -7.932424,0.69313 -17.235571,1.14808 -9.303067,0.45496 -17.128648,1.04117 -17.390057,1.30263 -0.261567,0.26143 0.792137,29.83595 2.341351,65.72096 1.549321,35.88507 2.732141,65.31655 2.628636,65.40333 -0.103585,0.0863 -6.766375,0.45906 -14.806269,0.82744 l -14.617938,0.66971 z M 160.44651,6.8560539 c -4.77549,-1.7664906 -8.75363,-5.3699832 -11.15105,-10.1010507 -1.26873,-2.5036991 -2.30677,-4.9491105 -2.30677,-5.4342505 0,-0.7238471 7.54872,-2.8921077 10.06859,-2.8921077 0.38285,0 1.20292,1.401921 1.82253,3.115416 1.7074,4.7215689 4.34713,6.6298762 9.17109,6.6298762 4.96065,0 7.70964,-2.6395892 7.70964,-7.4026183 0,-4.3981949 -2.80485,-7.3166019 -12.53747,-13.0445139 -4.76459,-2.80416 -9.72402,-6.359419 -11.02082,-7.900564 -2.69489,-3.202702 -4.43709,-8.590915 -3.79502,-11.737181 0.24077,-1.179618 0.65259,-3.181297 0.91514,-4.448122 0.71763,-3.461703 5.66991,-8.574828 9.54317,-9.853163 10.97077,-3.62069 22.59322,0.935091 26.55102,10.407544 l 1.39152,3.330311 -5.22885,1.254363 c -4.12708,0.990124 -5.30961,1.011819 -5.61245,0.103161 -0.21108,-0.633148 -1.42515,-2.388791 -2.6978,-3.901255 -1.9124,-2.272691 -3.01564,-2.750132 -6.35547,-2.750132 -4.6877,0 -6.93111,2.267506 -6.93111,7.005664 0,3.532796 2.02251,5.475208 10.6665,10.244111 12.19202,6.72629 16.24912,11.92231 16.24912,20.8104842 0,10.05824114 -6.79281,16.6056202 -17.9033,17.2563629 -3.17013,0.1857111 -7.01683,-0.1258887 -8.54821,-0.6923352 z M -125.87986,-25.029148 v -32.020324 h 5.56874 5.56874 v 12.993767 12.993713 h 9.28121 9.28127 v -12.993713 -12.993767 h 5.568738 5.568791 V -25.029148 6.9911237 H -90.611162 -96.1799 V -6.9307484 -20.852594 h -9.28127 -9.28121 V -6.9307484 6.9911237 h -5.56874 -5.56874 z m 49.217399,30.9064288 c 0.01455,-0.6635221 3.485276,-14.9891219 7.712419,-31.8345608 l 7.685643,-30.628113 7.601611,-0.269531 c 4.180946,-0.148325 7.601585,0.04082 7.601585,0.421164 0,0.379994 3.341264,14.563301 7.425028,31.518462 4.083738,16.9551617 7.424976,31.0911611 7.424976,31.4133178 0,0.3221302 -2.397231,0.4605337 -5.327121,0.3073929 l -5.3272,-0.2783681 -1.476349,-6.49687017 -1.476375,-6.49687013 -8.867034,-0.2643187 -8.867087,-0.2643188 -1.811231,6.76118888 -1.811232,6.76118892 -5.257165,0.2783681 c -3.847544,0.2037027 -5.250153,-0.045482 -5.230468,-0.9281319 z M -47.91744,-17.98594 c 0,-1.586785 -3.925597,-19.312492 -5.223775,-23.587445 -0.282972,-0.93173 -0.733928,-1.474549 -1.002268,-1.206261 -0.819229,0.819255 -6.52182,25.576053 -6.009322,26.088471 0.263498,0.263578 3.124279,0.479187 6.357302,0.479187 5.168424,0 5.878063,-0.214127 5.878063,-1.773952 z m 25.059348,-7.043208 v -32.020324 h 5.568791 5.568686 v 26.915612 26.9156126 h 9.7453446 9.7453184 v 5.1046591 5.104712 H -7.5440351 -22.858092 Z m 38.981247,0 v -32.020324 h 6.032791 6.032818 v 26.915612 26.9156126 h 9.745318 9.745292 v 5.1046591 5.104712 H 31.901265 16.123155 Z m 39.909327,0 v -32.020324 h 16.706241 16.706268 v 5.104685 5.104686 H 78.307514 67.170011 v 7.889055 7.889054 h 8.353107 8.353081 v 5.104712 5.104686 h -8.353081 -8.353107 v 8.81716 8.8171866 H 78.77154 90.373122 v 5.1046591 5.104712 h -17.17032 -17.17032 z m 41.765616,-0.04085 v -32.060938 l 6.597202,0.272653 6.59722,0.272706 8.31096,18.562505 c 4.57102,10.209371 8.70244,18.959221 9.18091,19.444202 0.54155,0.548852 0.86995,-6.546162 0.86995,-18.794544 v -19.676242 h 5.10466 5.10471 v 32.064589 32.0645361 l -5.65126,-0.2763044 -5.65137,-0.2762779 -9.43064,-20.8828218 -9.43076,-20.882795 -0.2495,21.114835 -0.24948,21.114808 h -5.5513 -5.551302 z M 207.31681,-19.9247 v -26.91556 h -7.42503 -7.42497 v -5.104712 -5.104685 h 20.41871 20.41875 v 5.104685 5.104712 h -7.42501 -7.42497 V -19.9247 6.990912 h -5.56877 -5.56871 z m 34.34059,-5.104659 v -32.020298 h 16.24213 16.24222 v 5.104685 5.104712 H 263.4683 252.79488 v 7.889028 7.889055 h 8.3531 8.35314 v 5.104686 5.104685 h -8.35314 -8.3531 v 8.817187 8.8171599 h 11.13747 11.13753 V 1.8862529 6.990912 H 258.36364 241.6574 Z m 40.83746,0 v -32.020298 h 6.03281 6.03282 v 32.020298 32.020271 h -6.03282 -6.03281 z m 20.41874,-0.04273 v -32.062684 l 6.21826,0.274452 6.21813,0.274426 8.39978,18.729034 c 4.61984,10.300838 8.71297,19.03685 9.09585,19.413193 0.38283,0.37637 0.69607,-8.156072 0.69607,-18.960914 v -19.645339 h 5.10468 5.10471 V -25.02965 6.9906475 h -5.44634 -5.44634 l -9.09235,-20.1867025 c -5.00084,-11.102684 -9.44134,-20.583498 -9.86772,-21.068427 -0.42648,-0.484928 -0.77539,8.599064 -0.77539,20.186703 V 6.9906475 h -5.10468 -5.10466 z"
       id="path25130" />
  </g>
</svg>
