<?xml version="1.0" encoding="UTF-8" standalone="no"?>
<!-- Created with Inkscape (http://www.inkscape.org/) -->

<svg
   width="1284.6296mm"
   height="182.96405mm"
   viewBox="0 0 1284.6296 182.96405"
   version="1.1"
   id="svg2063"
   inkscape:version="1.1 (c68e22c387, 2021-05-23)"
   sodipodi:docname="client_animates.svg"
   xmlns:inkscape="http://www.inkscape.org/namespaces/inkscape"
   xmlns:sodipodi="http://sodipodi.sourceforge.net/DTD/sodipodi-0.dtd"
   xmlns="http://www.w3.org/2000/svg"
   xmlns:svg="http://www.w3.org/2000/svg">
  <sodipodi:namedview
     id="namedview2065"
     pagecolor="#ffffff"
     bordercolor="#999999"
     borderopacity="1"
     inkscape:pageshadow="0"
     inkscape:pageopacity="0"
     inkscape:pagecheckerboard="0"
     inkscape:document-units="mm"
     showgrid="false"
     fit-margin-top="0"
     fit-margin-left="0"
     fit-margin-right="0"
     fit-margin-bottom="0"
     inkscape:zoom="0.64854097"
     inkscape:cx="2598.9106"
     inkscape:cy="235.1432"
     inkscape:window-width="1920"
     inkscape:window-height="1001"
     inkscape:window-x="-9"
     inkscape:window-y="-9"
     inkscape:window-maximized="1"
     inkscape:current-layer="layer1" />
  <defs
     id="defs2060" />
  <g
     inkscape:label="Layer 1"
     inkscape:groupmode="layer"
     id="layer1"
     transform="translate(582.75167,44.565855)">
    <path
       style="fill:#111827;fill-opacity:1;stroke-width:2.12334"
       d="m 612.97683,136.85867 c -4.5339,-1.12898 -13.85014,-5.04081 -20.70259,-8.69315 l -12.45923,-6.64078 V 95.661352 69.797776 l 9.30143,8.661982 c 15.61359,14.540018 43.77134,21.786952 59.35451,15.27593 6.94478,-2.901738 7.98063,-4.198699 7.39907,-9.260972 -0.63394,-5.51725 -2.30611,-6.427311 -26.64116,-14.498161 -14.57193,-4.83272 -29.94475,-11.486435 -35.03533,-15.163852 -13.11751,-9.476661 -19.55641,-23.070741 -19.30294,-40.752448 0.25506,-17.7982559 5.70785,-30.584801 17.63924,-41.36419 15.18153,-13.715524 25.4381,-17.26192 49.9237,-17.26192 22.11705,0 35.41183,3.138065 49.36781,11.652488 l 6.90086,4.210156 V -0.01391117 28.675441 L 688.63629,18.263638 C 677.11659,6.3714106 667.05369,2.6285884 646.24554,2.4967465 631.59953,2.4033221 623.70992,6.9052339 624.8426,14.708537 c 0.66754,4.60039 8.18171,8.131307 34.23867,16.088545 18.97935,5.796068 30.08233,13.374264 37.11046,25.329144 4.92892,8.384011 5.71129,12.0591 5.68563,26.708471 -0.0339,18.943403 -2.74849,25.993513 -14.5632,37.808003 -12.04595,12.04614 -25.1878,16.98887 -46.98391,17.67046 -10.51057,0.32888 -22.81952,-0.32572 -27.35342,-1.45449 z M -582.69132,132.2024 c 0.52339,-1.45984 10.05488,-35.971347 21.18076,-76.692362 11.12568,-40.721041 21.73007,-79.202384 23.56488,-85.513993 l 3.33595,-11.475826 36.46053,0.580311 36.46056,0.58031 8.00373,29.726758 c 26.75982,99.392183 37.65232,140.746402 37.65232,142.950642 0,1.77427 -7.25688,2.49833 -25.03969,2.49833 h -25.03971 l -2.66121,-10.08587 c -1.46362,-5.54725 -3.60966,-13.66903 -4.76898,-18.04844 l -2.10765,-7.962531 h -24.25477 -24.2547 l -2.09233,7.962531 c -1.15083,4.37941 -3.21198,12.50119 -4.58067,18.04844 l -2.48815,10.08587 h -25.16139 c -19.22132,0 -24.93672,-0.62661 -24.20948,-2.65417 z m 94.46516,-80.786365 c 0,-3.465301 -8.18465,-41.7935832 -9.84086,-46.0833256 -1.19375,-3.0922383 -13.35434,37.6661356 -13.46218,45.1209826 -0.0446,3.095017 1.8974,3.715888 11.6246,3.715888 8.15194,0 11.67844,-0.831533 11.67844,-2.753545 z m 95.55038,-4.678178 v -88.11871 h 33.77536 33.77536 l 6.37426,15.394225 c 3.50607,8.466825 12.35617,30.2045684 19.66709,48.306037 7.31086,18.101521 14.08665,33.819544 15.05701,34.929021 0.9706,1.109398 1.76475,-20.628292 1.76475,-48.3060632 V -41.380853 h 22.29506 22.29508 v 88.11871 88.118713 h -29.4654 -29.46519 l -4.78814,-11.14756 C -311.60507,99.9276 -344.422,29.647309 -346.20537,27.733922 c -1.095,-1.174618 -1.88021,20.773548 -1.88021,52.552758 v 54.56989 h -22.29509 -22.29511 z m 188.97748,0 v -88.11871 h 25.48009 25.48011 v 88.11871 88.118713 h -25.48011 -25.48009 z m 84.93368,0 v -88.11871 h 37.921409 37.921405 l 10.164234,51.491064 c 5.590381,28.320047 10.812197,52.744872 11.60436,54.277074 0.792427,1.532414 5.044281,-15.188882 9.4488,-37.158479 4.4047831,-21.9693862 9.4263101,-46.394211 11.1595955,-54.277101 L 2.606371,-41.380853 h 36.98822 36.988221 v 88.11871 88.118713 H 53.226189 29.869302 L 29.724839,80.180502 C 29.637791,47.346849 28.845894,27.200998 27.740729,29.751131 26.728169,32.08682 20.861033,56.691032 14.702062,84.427197 L 3.5041022,134.85657 H -20.329035 c -20.845198,0 -23.977071,-0.46588 -24.981958,-3.71589 -1.73699,-5.61917 -22.494081,-98.64873 -22.494081,-100.815218 0,-1.037669 -0.95541,-1.296087 -2.123281,-0.574331 -1.321859,0.816848 -2.123281,20.901554 -2.123281,53.208819 v 51.89662 H -95.408524 -118.76515 Z M 99.939699,133.50912 c 0,-0.81518 7.751761,-29.74953 17.226491,-64.298454 9.47473,-34.549106 20.11124,-73.5657282 23.63629,-86.703904 l 6.40953,-23.887615 h 36.64638 36.64638 l 4.65693,17.517586 c 7.89755,29.7085008 40.55903,151.069677 41.71579,155.003947 0.99748,3.39357 -1.12315,3.71589 -24.44856,3.71589 h -25.54102 l -3.20225,-10.78341 c -1.76133,-5.9309 -3.81582,-14.05269 -4.56512,-18.04842 l -1.36313,-7.265011 h -24.8375 -24.8375 l -4.18041,17.517561 -4.18042,17.51761 -24.89094,0.59812 c -13.69007,0.32914 -24.890941,-0.0679 -24.890941,-0.8839 z M 194.93596,51.515386 C 194.3814,50.055574 191.75435,38.534531 189.09793,25.913165 186.44151,13.291614 183.58137,3.7365575 182.74237,4.6797706 181.461,6.1196067 170.00983,49.615624 170.00983,53.043328 c 0,0.61939 5.83539,1.126252 12.96749,1.126252 9.4959,0 12.69736,-0.710486 11.95864,-2.654194 z m 117.22047,79.625294 c -0.0638,-2.04367 -0.0212,-27.72063 0.10822,-57.059696 0.12541,-29.339276 -0.40429,-55.85452 -1.17422,-58.922735 -1.39356,-5.5525718 -1.4994,-5.5788449 -22.4036,-5.5788449 H 267.68368 V -15.900738 -41.380853 h 69.00862 69.00863 V -15.900738 9.5794041 H 383.40581 361.1107 V 72.217946 134.85657 h -24.4184 c -21.79531,0 -24.43109,-0.39918 -24.53587,-3.71589 z M 429.05755,46.737857 v -88.11871 h 59.45373 59.45346 v 23.356755 23.3568074 h -37.38563 c -33.21843,0 -37.24195,0.374306 -36.09684,3.3586737 0.70909,1.8473209 1.28905,6.1471179 1.28905,9.5550299 v 6.196357 h 36.09658 36.09684 V 46.737857 69.032945 H 511.8679 c -39.70311,0 -36.56859,-1.092015 -36.56859,12.740032 0,2.335715 0.10636,5.202211 0.23601,6.370055 0.14657,1.323049 13.84088,2.12336 36.33258,2.12336 h 36.09684 v 22.295058 22.29512 h -59.45346 -59.45373 z"
       id="path23473" />
  </g>
</svg>
