<?xml version="1.0" encoding="UTF-8" standalone="no"?>
<!-- Created with Inkscape (http://www.inkscape.org/) -->

<svg
   width="1277.1605mm"
   height="184.48683mm"
   viewBox="0 0 1277.1605 184.48683"
   version="1.1"
   id="svg1881"
   inkscape:version="1.1 (c68e22c387, 2021-05-23)"
   sodipodi:docname="client_glassons.svg"
   xmlns:inkscape="http://www.inkscape.org/namespaces/inkscape"
   xmlns:sodipodi="http://sodipodi.sourceforge.net/DTD/sodipodi-0.dtd"
   xmlns="http://www.w3.org/2000/svg"
   xmlns:svg="http://www.w3.org/2000/svg">
  <sodipodi:namedview
     id="namedview1883"
     pagecolor="#ffffff"
     bordercolor="#999999"
     borderopacity="1"
     inkscape:pageshadow="0"
     inkscape:pageopacity="0"
     inkscape:pagecheckerboard="0"
     inkscape:document-units="mm"
     showgrid="false"
     fit-margin-top="0"
     fit-margin-left="0"
     fit-margin-right="0"
     fit-margin-bottom="0"
     inkscape:zoom="0.64854097"
     inkscape:cx="2383.0414"
     inkscape:cy="504.97967"
     inkscape:window-width="1920"
     inkscape:window-height="1001"
     inkscape:window-x="-9"
     inkscape:window-y="-9"
     inkscape:window-maximized="1"
     inkscape:current-layer="layer1" />
  <defs
     id="defs1878" />
  <g
     inkscape:label="Layer 1"
     inkscape:groupmode="layer"
     id="layer1"
     transform="translate(525.57339,-14.6439)">
    <path
       style="fill:#111827;fill-opacity:1;stroke-width:2.39512"
       d="m -457.92385,195.6795 c -15.4165,-4.4542 -29.85899,-13.368 -41.73773,-25.7607 -44.03796,-45.9433 -30.11483,-119.1344 27.90378,-146.6847 14.22459,-6.7546 17.63514,-7.3861 39.51931,-7.3181 21.18454,0.066 25.47288,0.8295 37.12432,6.6113 7.24522,3.5953 15.17805,8.0788 17.62855,9.9632 4.57313,3.5166 4.00884,5.1094 -7.13458,20.1377 -0.35072,0.4731 -3.6857,-1.3102 -7.41089,-3.9627 -27.54,-19.6102 -71.92125,-14.6032 -94.06008,10.6113 -12.55646,14.3011 -17.74035,28.29 -17.63174,47.5791 0.11333,20.1122 5.61221,34.0313 19.07386,48.2807 19.37783,20.5118 49.48487,27.6012 75.46737,17.7705 21.17146,-8.0103 23.64796,-11.1318 23.64796,-29.8067 v -15.8861 h -14.44226 -14.44213 l 5.46055,-9.5619 5.46053,-9.562 20.9572,-0.019 20.95725,-0.019 v 29.0171 29.0171 l -8.98173,8.2416 c -15.5583,14.2768 -35.7412,22.6302 -57.24133,23.691 -11.52949,0.5691 -23.18039,-0.3366 -30.11821,-2.3409 z m 456.80619,0.8437 c -5.26935,-1.296 -15.12011,-5.1422 -21.8906,-8.547 l -12.31006,-6.19 2.38716,-8.7237 c 3.4636,-12.6575 3.31014,-12.6009 16.36738,-6.0424 6.58642,3.3082 18.19234,7.171 25.79062,8.584 12.22159,2.2729 15.11651,1.9935 25.09733,-2.4214 11.8601,-5.2463 16.05308,-11.6153 16.05308,-24.3845 0,-11.2314 -10.82251,-21.168 -36.9931,-33.9647 -30.87193,-15.0959 -38.27944,-20.2807 -44.31323,-31.0162 -5.75131,-10.233 -6.46991,-27.291 -1.6368,-38.858 4.8417,-11.5877 21.39089,-24.6458 35.53566,-28.039 16.01454,-3.8418 37.75016,-1.6177 51.66775,5.2868 11.70359,5.8063 12.40627,7.6426 7.67981,20.0735 l -2.08098,5.4735 -13.91125,-5.7202 c -22.41166,-9.2156 -40.5982,-7.3841 -52.32489,5.2694 -7.00096,7.5542 -7.89832,20.899 -1.9741,29.3569 2.19676,3.1362 16.68376,11.6885 32.93291,19.4415 15.95589,7.6132 32.09433,16.8046 35.86301,20.4256 22.87381,21.9762 15.97327,60.5551 -13.53818,75.6877 -10.70312,5.4882 -34.86206,7.6386 -48.40152,4.3082 z m 135.1651,-1.8247 c -14.70027,-4.8742 -28.58262,-12.3465 -28.58262,-15.3849 0,-1.0757 1.56034,-5.6902 3.46761,-10.2547 l 3.4675,-8.299 7.90923,4.5976 c 13.25455,7.705 34.4585,12.7434 45.66329,10.8503 13.81346,-2.3338 25.71654,-14.2831 25.71654,-25.8166 0,-13.5107 -9.36428,-22.1286 -39.39855,-36.2585 -15.06828,-7.0891 -30.27485,-16.1601 -35.3083,-21.0624 -22.15125,-21.5735 -14.58034,-57.2304 15.44862,-72.7591 16.43926,-8.501 51.16115,-6.487 68.34748,3.9646 7.37294,4.4838 7.44062,4.696 4.34815,13.6285 -3.55901,10.28 -3.91093,10.3715 -17.03012,4.4341 -19.95712,-9.032 -38.30109,-7.9106 -51.55131,3.151 -6.89164,5.7535 -8.21768,8.4343 -8.21768,16.6138 0,6.8571 1.62211,11.4801 5.46238,15.5679 5.72613,6.0951 8.06099,7.39 41.40538,22.9629 32.56514,15.2089 44.24482,32.8443 38.43144,58.0288 -3.5837,15.5256 -10.00618,24.4546 -23.11586,32.1375 -14.29018,8.3746 -38.02135,10.013 -56.46318,3.8982 z m 175.91865,2.0965 C 251.82075,182.9138 221.79429,111.4426 252.30747,59.5517 279.4812,13.34 345.0043,0.2518 387.34161,32.5789 c 24.76559,18.9099 35.24051,41.1066 35.05254,74.277 -0.1442,25.4428 -3.9377,37.3499 -17.71153,55.5931 -21.56081,28.5574 -60.22943,42.5791 -94.71653,34.346 z m 49.38095,-25.8738 c 42.47803,-19.8302 52.92252,-81.433 19.51698,-115.1128 -32.5616,-32.829 -86.91052,-23.6345 -107.35991,18.1625 -19.31126,39.4707 2.71329,90.7841 43.5333,101.425 11.69328,3.0482 32.75012,0.9218 44.30963,-4.4747 z m 313.76009,24.7271 c -9.8756,-2.7407 -20.2124,-7.4544 -28.3393,-12.9228 -2.6131,-1.7583 -2.6493,-3.9545 -0.1999,-12.1299 1.645,-5.4905 3.6197,-9.6317 4.3883,-9.2026 18.1909,10.1571 31.6277,14.6049 44.5743,14.754 17.0284,0.1961 25.7092,-4.3423 31.4892,-16.463 8.1714,-17.1358 -1.1649,-29.1364 -34.937,-44.9064 -31.4455,-14.6836 -40.2267,-21.2984 -46.1997,-34.8014 -13.8505,-31.3113 13.2347,-65.3323 52.0132,-65.3323 15.5184,0 35.2949,4.7919 42.9855,10.4152 4.1767,3.0541 4.3344,4.3143 1.6585,13.2459 -1.6265,5.4287 -3.2505,9.8705 -3.6089,9.8705 -0.3584,0 -5.4345,-2.3267 -11.2805,-5.1706 -27.9755,-13.6086 -57.5879,-5.0891 -61.2746,17.6288 -2.0154,12.4195 8.6293,23.3889 32.165,33.1462 35.8208,14.8501 48.3848,25.0975 53.3416,43.5052 10.6977,39.7285 -30.654,71.1631 -76.7757,58.3632 z m -1000.14769,-1.1712 c -0.55565,-0.5489 -1.01039,-40.697 -1.01039,-89.218 V 17.039 h 11.97557 11.97557 v 79.0388 79.0387 h 38.36751 38.36749 l -1.5665,6.5867 c -3.31541,13.9413 -1.58038,13.479 -51.15727,13.6312 -25.26789,0.078 -46.39631,-0.3084 -46.95198,-0.8573 z m 117.6161,-0.1995 c -0.37727,-0.6587 6.20484,-20.0591 14.62685,-43.1121 8.42213,-23.0529 20.67459,-57.0037 27.22782,-75.4462 6.55324,-18.4422 13.9693,-38.9205 16.48027,-45.5071 l 4.56515,-11.9756 13.01654,-0.7061 13.01629,-0.7061 8.98477,24.6573 c 4.94146,13.5614 14.26786,39.2076 20.72518,56.9912 6.45741,17.7837 16.99708,46.6447 23.4215,64.1354 6.42449,17.4908 11.02359,32.1558 10.22019,32.5886 -0.80329,0.4332 -6.21213,0.6728 -12.01972,0.5329 l -10.559,-0.2547 -8.92987,-25.1487 -8.92994,-25.1487 -35.92253,-0.6597 -35.92258,-0.6597 -1.51888,6.0518 c -0.83539,3.3283 -4.76269,15.0165 -8.72746,25.9738 l -7.20863,19.922 -10.92998,-0.1654 c -6.01144,-0.092 -11.23854,-0.7044 -11.61597,-1.363 z m 95.3525,-94.0083 c -4.68005,-13.5024 -10.97881,-32.6335 -13.9974,-42.5132 -3.08548,-10.0994 -6.0777,-16.3907 -6.83479,-14.3708 -0.7408,1.976 -7.25659,21.1071 -14.47951,42.5133 l -13.13253,38.9206 h 28.47667 28.47679 z m 571.61869,6.3884 V 17.039 h 11.7948 c 13.5805,0 4.3122,-11.2837 69.6391,84.7842 l 37.1243,54.5941 0.6352,-69.8189 0.635,-69.8189 11.3405,0.7286 11.3404,0.7285 0.5586,87.1168 c 0.3071,47.9142 0.1409,87.7929 -0.3696,88.6193 -0.5103,0.8262 -6.5085,1.1231 -13.3294,0.6593 -12.2749,-0.8346 -12.5037,-0.9967 -22.3842,-15.8515 -5.4904,-8.2543 -20.7605,-30.2938 -33.9337,-48.9765 -13.1731,-18.6825 -29.5927,-42.1045 -36.4878,-52.0487 l -12.5367,-18.0803 -0.6363,67.7534 -0.6366,67.7534 -11.3769,0.5472 -11.3767,0.5471 z"
       id="path20953" />
  </g>
</svg>
