<?xml version="1.0" encoding="utf-8"?>
<!-- Generator: Adobe Illustrator 24.0.1, SVG Export Plug-In . SVG Version: 6.00 Build 0)  -->
<svg version="1.1" id="Layer_1" xmlns="http://www.w3.org/2000/svg" xmlns:xlink="http://www.w3.org/1999/xlink" x="0px" y="0px"
	 viewBox="0 0 1117.6 840.1" style="enable-background:new 0 0 1117.6 840.1;" xml:space="preserve">
<style type="text/css">
	.st0{fill:url(#SVGID_1_);}
	.st1{fill:#8E8E8E;}
	.st2{fill:#687882;}
	.st3{fill:#00344B;}
	.st4{fill:#A4ABB1;}
	.st5{fill:url(#SVGID_2_);}
	.st6{opacity:0.44;fill:url(#SVGID_3_);enable-background:new    ;}
	.st7{opacity:0.15;fill:#00344B;enable-background:new    ;}
	.st8{opacity:0.1;fill:#00344B;enable-background:new    ;}
	.st9{fill:#BEC6CC;}
	.st10{opacity:0.3;fill:#FFFFFF;enable-background:new    ;}
	.st11{opacity:0.3;fill:#727272;enable-background:new    ;}
	.st12{clip-path:url(#SVGID_5_);fill:#303E58;}
	.st13{fill:none;stroke:#001A28;stroke-linecap:round;stroke-linejoin:round;stroke-miterlimit:10;}
	.st14{display:none;fill:none;stroke:#001A28;stroke-miterlimit:10;}
	.st15{fill:#FFFFFF;}
	.st16{fill:#001E3A;}
	.st17{fill:#E2E2E2;}
	.st18{fill:#AFAFAF;}
	.st19{fill:#CECECE;}
	.st20{fill:#3A4C68;}
	.st21{fill:#506A89;}
	.st22{fill:#303E58;}
	.st23{display:none;fill:none;stroke:#001A28;stroke-width:3;stroke-linecap:round;stroke-linejoin:round;stroke-miterlimit:10;}
	.st24{fill:#445977;}
	.st25{fill:#283549;}
	.st26{fill:url(#SVGID_6_);}
	.st27{fill:url(#SVGID_7_);}
	.st28{opacity:0.15;fill:#FFFFFF;enable-background:new    ;}
	.st29{opacity:0.38;}
	.st30{fill:#001A28;}
	.st31{fill:none;stroke:#001A28;stroke-width:5;stroke-linecap:round;stroke-miterlimit:10;}
	.st32{fill:#F3FDFF;}
	.st33{opacity:0.3;fill:url(#SVGID_8_);enable-background:new    ;}
	.st34{opacity:0.2;fill:url(#SVGID_9_);enable-background:new    ;}
	.st35{opacity:0.2;fill:url(#SVGID_10_);enable-background:new    ;}
	.st36{clip-path:url(#SVGID_12_);fill:#303E58;}
	.st37{fill:#A0A0A8;}
	.st38{fill:#B4B4BE;}
	.st39{opacity:0.29;fill:#FFFFFF;enable-background:new    ;}
	.st40{fill:#57646E;}
	.st41{fill:#DCE6ED;}
	.st42{fill:url(#SVGID_13_);}
	.st43{opacity:0.29;clip-path:url(#SVGID_15_);fill:#FFFFFF;enable-background:new    ;}
	.st44{display:none;fill:none;stroke:#001A28;stroke-width:3;stroke-miterlimit:10;}
	.st45{display:none;fill:url(#SVGID_16_);}
	.st46{display:none;fill:url(#SVGID_17_);}
	.st47{display:none;fill:url(#SVGID_18_);}
	.st48{display:none;fill:url(#SVGID_19_);}
	.st49{display:none;fill:url(#SVGID_20_);}
	.st50{fill:url(#SVGID_21_);}
	.st51{fill:url(#SVGID_22_);}
	.st52{fill:url(#SVGID_23_);}
	.st53{fill:url(#SVGID_24_);}
	.st54{display:none;fill:url(#SVGID_25_);}
	.st55{display:none;fill:url(#SVGID_26_);stroke:#001A28;stroke-width:3;stroke-miterlimit:10;}
	.st56{display:none;fill:none;stroke:#001A28;stroke-linecap:round;stroke-miterlimit:10;}
	.st57{display:none;fill:none;stroke:#001A28;stroke-width:2;stroke-linecap:round;stroke-linejoin:round;stroke-miterlimit:10;}
	.st58{enable-background:new    ;}
	.st59{clip-path:url(#SVGID_28_);}
	.st60{fill:#444444;}
	.st61{display:none;}
	.st62{display:inline;}
	.st63{display:none;fill:url(#SVGID_29_);}
	.st64{fill:none;stroke:#FFFFFF;stroke-width:1.5;stroke-miterlimit:10;}
</style>
<g id="Layer_21">
	
		<linearGradient id="SVGID_1_" gradientUnits="userSpaceOnUse" x1="558.8" y1="2.4" x2="558.8" y2="1042.1132" gradientTransform="matrix(1 0 0 -1 0 842)">
		<stop  offset="0" style="stop-color:#FFFFFF"/>
		<stop  offset="0.9888" style="stop-color:#C6CBFF"/>
	</linearGradient>
	<rect class="st0" width="1117.6" height="839.6"/>
</g>
<g id="Layer_16">
	<path class="st1" d="M513.5,321.5c4.9-9.3,72.1-15.3,89.7-10c5.4,1.6,15.2,3.5,16.1,9.3c2.6,16.7,30.6,36.4,23.7,52.3
		c-9.9,22.9-46.4,105.6-46.4,105.6l-54.1,8.7c0,0-17-13.8-24.3-52.1S513.5,321.5,513.5,321.5z"/>
	<path class="st2" d="M619.2,333.5c-1.6-6.1-8.1-29.1-8.5-36.4s-66.9-3.4-79.9-2.8c-13.1,0.6-10.3,4.9-10.3,4.9s-2,25.8-4.2,35.2
		c-2.2,9.4,28.5,91.7,52.7,92.4c24.2,0.8,40.9-61.6,44.3-72.2C617.7,340.8,619.2,333.5,619.2,333.5z"/>
	<path class="st3" d="M519.7,306.6c19.2-0.2,92.7,0,92.7,0l0.7,3.5l-93.6-0.8L519.7,306.6z"/>
	<path class="st4" d="M520.8,313.2l55,0.3c0,0,6,4.9,3.3,17.3c-2.4,11.2-3.3,12.8-6.1,18.6c-1.8,3.9-7.2,11.1-21.5,5.1
		c-10.3-4.4-26.3-18.8-32.2-29.2C519.9,322.1,520.8,313.2,520.8,313.2z"/>
	<g id="Layer_14_copy">
	</g>
	
		<linearGradient id="SVGID_2_" gradientUnits="userSpaceOnUse" x1="17" y1="136.45" x2="1100.7" y2="136.45" gradientTransform="matrix(1 0 0 -1 0 842)">
		<stop  offset="0" style="stop-color:#FFFFFF"/>
		<stop  offset="1" style="stop-color:#D69E93"/>
	</linearGradient>
	<polygon class="st5" points="1100.7,840.1 17,840.1 267.9,571 849.1,571 	"/>
	
		<linearGradient id="SVGID_3_" gradientUnits="userSpaceOnUse" x1="278.2451" y1="136.4" x2="1104.3" y2="136.4" gradientTransform="matrix(1 0 0 -1 0 842)">
		<stop  offset="0" style="stop-color:#D69E93;stop-opacity:0.4"/>
		<stop  offset="1" style="stop-color:#FFFFFF"/>
	</linearGradient>
	<path class="st6" d="M402.8,571c-56.1,15-90.2,18.6-117.9,34.4c-21.5,12.2,8,63.9,104.5,114.5c36.5,19.1,122.7,51.3,178.1,54
		c187.7,9,286.9,66.3,286.9,66.3h249.9L894.8,639.6l-250.1-67.9L402.8,571z"/>
	<path class="st7" d="M290.4,611.4c-9.2,1.2-10,13.8,22.3,39.7c37.2,29.8,64.3,49.6,70.8,47.1c8.4-3.2,13.4-2.9,36.8,6
		c23.7,9.1,52.4,4.3,52.1-6.4s-33.9-26.2-52.1-33.4S290.4,611.4,290.4,611.4z"/>
	<path class="st7" d="M860.3,606.3c9.3,0.3,6.5,5.5-20,34.6c-32.1,35.2-49.9,51-56.6,49.1c-8.7-2.4-13.6-1.7-36,9.5
		c-22.7,11.3-51.7,9.3-52.5-1.4s31.2-29.4,48.7-38.2c12-6.1,59.1-34.9,89.5-48.8C847.4,604.8,860.3,606.3,860.3,606.3z"/>
	<path class="st8" d="M426.1,571c10.1,15.2,26.7,63.4,119.3,67.6c92.6,4.2,200.5,0.2,215.4-15.8c21.3-22.9-48.5-51.9-48.5-51.9
		L426.1,571z"/>
	<g id="Layer_22_copy">
		<path class="st9" d="M755.8,635c-11.7-10.1-29.1-7.7-46.3,2.9c-18.3,11.2-29,22.1-31,33.5c-1.5,9,1.4,23.4,14.9,28.8
			c13.5,5.4,26.7,0.3,46.1-10.8c19.4-11.1,23.2-16.4,31-21.2C768.7,658.8,768.8,646.2,755.8,635z"/>
		<path class="st10" d="M684.5,685.2c2-17.2,17.9-34.4,36.4-41.5s18.9-12.4,18.9-12.4s-3.6-0.5-10.8,1.2
			c-6.8,1.7-16.7,5.2-29.4,15.4c-26.4,21.2-20.3,26.5-18.6,31C682.5,683.5,684.5,685.2,684.5,685.2z"/>
		<path class="st11" d="M727.9,677.4c14.8-15.5,26.8-17.9,24-30.7s-7.3-17-7.3-17s2.4-2.7,7.4,5.8c2,3.4,4.4,7,5.9,10.6
			c2.3,5.5,2.7,11.1,3.3,14.1C750.5,657.6,727.9,677.4,727.9,677.4z"/>
		<g>
			<g>
				<defs>
					<path id="SVGID_4_" d="M755.8,635c-11.7-10.1-29.1-7.7-46.3,2.9c-18.3,11.2-29,22.1-31,33.5c-1.5,9,1.4,23.4,14.9,28.8
						c13.5,5.4,26.7,0.3,46.1-10.8c19.4-11.1,23.2-16.4,31-21.2C768.7,658.8,768.8,646.2,755.8,635z"/>
				</defs>
				<clipPath id="SVGID_5_">
					<use xlink:href="#SVGID_4_"  style="overflow:visible;"/>
				</clipPath>
				<path class="st12" d="M770.6,668.2c-7.7-11.5-15.7-10.8-31,0.3s-30.9,26.6-43.1,23c-11.5-3.3-17.3-10.5-17.6-21.5
					c0,0-9.2,11.5-2,25c7.3,13.5,34.4,21.9,61,5.4C764.5,684,770.6,668.2,770.6,668.2z"/>
			</g>
		</g>
		<path class="st13" d="M727.1,646.3c-9.4,4.8-29.8,20.9-41.6,39.5"/>
		<path class="st14" d="M755.8,635c-11.7-10.1-29.1-7.7-46.3,2.9c-18.3,11.2-29,22.1-31,33.5c-1.5,9,1.4,23.4,14.9,28.8
			c13.5,5.4,26.7,0.3,46.1-10.8c19.4-11.1,23.2-16.4,31-21.2C768.7,658.8,768.8,646.2,755.8,635z"/>
		<path class="st15" d="M753,608.9l-21,13.7c0,0,20.8,3.5,27.8,31.9c4.7,19.1,1,20.8,1,20.8l20.4-10.4c0,0,10.6-19,2-41.4
			c-4.3-11.1-12.8-16.9-21.6-17.3C753.1,605.9,753,608.9,753,608.9z"/>
		<path class="st16" d="M741.1,611.9c2.7-1.4,13.5-5.7,25.1,3.7c9.5,7.7,12.6,19.7,12.8,30.5c0.3,16.1-5.7,24.2-5.7,24.2
			s2.7,0.9,6.7-0.8c1.6-1.6,9.7-22.1,5.9-38.5c-5.7-24.3-22.4-26.9-33.3-25.1c-4.1,0.7-7.1,1.6-9.6,3
			C740.5,610.2,741.1,611.9,741.1,611.9z"/>
	</g>
	<path class="st17" d="M549.2,364.3c2.9,12.3,24.3,37.1,23.1,58.1s0.1,29-2.7,33.7c-7.3,12.3,0.3,23.8-17.4,24.2
		c-17.7,0.4-28.6-12-29.7-48.1c-1.1-36.1-21.1-87.2-10.3-77.9C523,363.6,549.2,364.3,549.2,364.3z"/>
	<path class="st18" d="M545.7,383.6c-1.3,7.2-5.5,26.6-0.9,41.4c5.4,17.2-1.1,28.2-1.1,28.2l-11,0.9c0,0-11.4-50.7-12.9-66.3
		s29.3-23.6,29.3-23.6s0.3,1.4,1.1,3.3C548.3,372,546.4,379.9,545.7,383.6z"/>
	<g>
		<path class="st15" d="M549.2,364.3c-4.4,8-10.3,29.7-11.4,34.6c-6.9-4.5-19.1-25.3-24.2-38.5c-0.3-0.9-1.4-10.2-1.7-11.1
			c-1.9-6-3-9.4-3-9.5c-2.4-8.9,3.4-14.6,3.5-16c0.1-0.6,1-1,0.7-1.3C534.1,351.5,549.2,364.3,549.2,364.3z"/>
		<path class="st18" d="M513,322.2c-0.2,0.2-0.4,0.3-0.6,0.6c-0.1,0.5-0.2,2.5-0.1,2.8c0.1,2.6-5.3,7.5-3.5,14.1l0,0
			c0,0.1,0.3,0.8,0.7,2.2c0.5,1.6,1.3,4.1,2.4,7.4c0.3,0.9,0.6,1.7,1,2.6c0.6,1.6,1.6,3.3,2.8,5.1l0,0l0,0c0.8,1.1,1.7,2.3,2.6,3.4
			c-2.6-5.4-1.2-15.9-1.5-23.2c-0.2-4.5,1.3-5.8,2.9-5.8c0.2,0,0.1-0.2,0.2,0c-1.8-2.4-6.2-7.2-6.2-10.2L513,322.2z"/>
	</g>
	<path class="st19" d="M585.4,364.5c-2.9,12.3-15.8,36.3-14.6,57.3s-1.1,30.3-3,35.4s-3.2,22.9,14.5,23.3s28.6-12,29.7-48.1
		c1.1-36.1,21.1-87.2,10.3-77.9C611.6,363.8,585.4,364.5,585.4,364.5z"/>
	<path class="st18" d="M585.4,364.5c-4.9,14.4-7,26.7-0.9,33c3.8,3.9,8.4,14.4,6.5,30c-3.9,30.9,3.1,61.1,12.7,26.7
		c13.8-49.6,16.8-96.1,4.8-94.4C596.6,361.4,585.4,364.5,585.4,364.5z"/>
	<g>
		<path class="st17" d="M585.4,364.5c4.4,8,10.3,29.7,11.4,34.6c6.9-4.5,19.1-25.3,24.2-38.5c0.3-0.9,1.4-10.2,1.7-11.1
			c1.9-6,3-9.4,3-9.5c2.4-8.9-5.2-15-5.3-16.4c-0.1-0.6-1-1-0.7-1.3C598.7,351.4,585.4,364.5,585.4,364.5z"/>
		<path class="st18" d="M620.1,321.8c0.2,0.2,0.2,0.6,0.3,0.9c0.1,0.5,2.6,3.5,2.5,3.7c-0.1,2.6,4.7,7,2.9,13.6l0,0
			c0,0.1-0.3,0.8-0.7,2.2c-0.5,1.6-1.3,4.1-2.4,7.4c-0.3,0.9-0.6,1.7-1,2.6c-0.6,1.6-1.6,3.3-2.8,5.1l0,0l0,0
			c-0.8,1.1-3.6,9.9-4.6,11.1c2.6-5.4,5.5-18.1,4.8-25.4c-0.9-8.3-4-11.7-5.6-11.7c-0.2,0-0.3-0.1-0.5,0.1c1.8-2.4,6-7.9,6.1-10.9
			L620.1,321.8z"/>
	</g>
	<path class="st20" d="M490.7,336.4c-16.9,5.8-42.7,14.8-59.2,20c-12.7,4-29,8.9-41.8,13.1c-5.2,1.7-10.5,15.5-13.3,20.4
		c-12.4,21.3-58.3,92.2-76,133.1c-17.8,40.9-33.8,74.2-3.1,99.1c30.7,24.9,61.8,48,72.9,52.4c-8-6.2-16.4-35-5.3-52.6
		c13.1-20.9,26.8-13.6,33.9-12.7c-9.3-8-36.1-25.8-49.4-32c4.4-8.9,67.8-97.6,67.8-97.6s13.5,41.6,15.7,59.4s1.3,32,1.3,32
		s92.1-4.3,103.7-2.5c-3.1-16-1.7-72.2-8.8-108.7"/>
	<path class="st21" d="M488.6,337.9c-16.1,6.7-54.9,20.4-74.9,27c-18.9,6.2-23.9,4.9-28.3,14.1c0.2-0.4,6.1-2.2,30.8-10
		c25.6-8.1,55.1-18.5,55.3-18.5c1.2,0.2,4.7,16.5,0.5,23.8c3.1-4.4,5.6-12.8,8.4-18.6C483.5,348.8,486.7,341.4,488.6,337.9"/>
	<path class="st21" d="M370.8,611.4c-9.3-4.9,0.4-11.2-5.6-15.4c-20.6-14.2-34.5-24.9-40.5-31.9c44.6,21.8,65.3,37.5,74.1,45.1
		C384.4,608.7,370.8,611.4,370.8,611.4z"/>
	<path class="st22" d="M417.1,479.6c13.6,2,22.4,13.6,27.5,41.2c3.5,19.1,25.1,34.9,30.4,50.2c-11.7,0.1-41,0-41,0l-6.2-42.4
		L417.1,479.6z"/>
	<path class="st22" d="M359.2,643.1c-22.4-9.7-72.9-34.7-77.5-47.1c1.8,5.3,1.5,12,8.6,19.3c15.4,16,43.4,36.2,62.2,48.9
		c8.3,5.6,14.8,9.2,17.7,11.1c-1.9-2.6-8.1-17-8.1-17L359.2,643.1z"/>
	<path class="st21" d="M380.7,390.5c2.9-10.1,7.5-17.2,10.4-18.4c2.9-1.1,6.8-0.4,6.8-0.4c-3,19.8,3.5,42.5,6.6,54.4
		c0.6,2.2,0.9,4.6,0.9,4.6s-11-18.7-15.3-36.3L380.7,390.5z"/>
	<path class="st23" d="M483.1,337.6c-16.9,5.8-35.1,13.5-51.6,18.7c-16.4,5.3-43.4,13.7-55.8,35s-57.5,90.7-75.3,131.6
		s-33.8,74.2-3.1,99.1c30.7,24.9,61.8,48,72.9,52.4c-8-6.2-19.6-32.7-10.2-52.9c8.7-18.7,29-16,37-13.4c0.3,0.1,4.2,8.2,4.5,8.3
		c-0.2-0.2,0.4-5.6-4.2-8.6c-2-1.3-13.2-9.5-27.1-18.2c-18-11.4-39.9-24.1-47.3-27.5c0.2-0.5,27,14.7,27.5,13.9
		c8.6-16.4,59.8-92.1,59.8-92.1s10.2,42.3,12.4,60s3.1,26.3,3.1,26.3"/>
	<path class="st22" d="M498.6,408.9l-5.2,17.2l49.2,160.7c0,0-4.3-132.1-7.6-160.7s-20.9-64.5-25.4-78.5c-3.5-9.6,1.4-16.8,1.2-20.5
		c-3.9,2.5-18.7,8-21.3,8.9c-2.6,1-3.1,2.3-3.6,4.1l-0.1,0.5l-0.1,0.1c-1.5,3.7-13.9,34.5-24.5,53.1c4.7,1.6,20.6,7.1,36.5,14.7
		L498.6,408.9"/>
	<path class="st24" d="M501.8,407.4l-5.2,17.2l49.2,160.7c0,0-4.3-132.1-7.6-160.7s-18-62.2-22.5-78.6c-2.7-9.9-4.3-21.8-2-24.8
		c-3.3,4.4-18.5,12.4-21,13.4c-2.6,1-3.1,2.3-3.6,4.1l-0.1,0.5l-0.1,0.1c-1.5,3.7-13.9,34.5-24.5,53.1c4.7,1.6,20.6,7.1,36.5,14.7
		L501.8,407.4"/>
	<path class="st21" d="M506.6,332.2c-2.7,1.6-5.2,3-6.4,3.4c-2.6,1-9.1,2.3-9.6,4.1l-0.1,0.5l0,0l0,0l0,0h-0.1
		c-1.5,3.7-11.9,32-22.5,50.6c1.9,0.6,13.6,4.9,18.4,6.6c-1.2-3-11.6-10.3-5-25.4C489.6,352.8,498,340.3,506.6,332.2"/>
	<path class="st22" d="M644.6,340.7c16.9,5.8,44.1,15.4,60.5,20.6c9.8,3.1,19.7,7.1,29.8,9.4c9.4,2.1,15.2,16.6,20.2,25.2
		c12.4,21.3,63.4,91,81.1,131.9s33.8,74.2,3.1,99.1c-30.7,24.9-68.5,51-70.4,51.3s-5.9-1.5-8.1-2.9c1-1.3,12.8-6,13.8-7.7
		c3.7-6.2,6-12.1,6.5-20.4c0.4-6.6-1.5-14.6-4.9-21.2c-12.3-23.3-31.4-18.5-34.3-16.5c9.3-8,32-21.3,45.4-27.5
		c-4.4-8.9-65-100-65-100s-13.7,37.8-15.9,55.6c-1.1,9.1-2.1,26.6-2.7,33.3c-5-0.2-16.3,0.2-38.1,0c-29.7-0.2-63.8-1.9-70.5-0.8
		c3.1-16,5.5-69,12.7-105.5"/>
	<path class="st24" d="M646.4,341.6c16,7,48.6,18.1,68,24.8c8.5,2.9,18.2,5.8,21.8,8c-1,1.3,0.1,8.1,0,8.7
		c-4.4-3.3-10.4-6.6-18.2-9.2c-25.4-8.5-54.8-19.5-55-19.5c-1.2,0.2-3.6,16.3,0.5,23.6c-3-4.5-6.5-13.2-9-18.7
		c-3.1-6.8-6.5-13.9-8.3-17.8"/>
	<path class="st24" d="M767.8,613.3c9.3-4.9,1.2-12.5,7.3-16.6c20.6-14.2,32.8-22.8,38.8-29.7c-44.6,21.8-64,35.6-70,41.1
		C755.8,604.6,767.8,613.3,767.8,613.3z"/>
	<path class="st16" d="M722.3,482.2c-16.4,2.5-23.9,49.3-27.5,88.9c5.3,0.1,10.4,0,10.4,0l3.6-37.6L722.3,482.2z"/>
	<path class="st16" d="M781,647.4c22.4-9.7,69.4-34.1,74-46.5c-1.8,5.3-1.5,12-8.6,19.3c-22.2,23-67.9,51.6-77.3,58
		c1.9-2.6,7.5-15.6,7.5-15.6L781,647.4z"/>
	<path class="st16" d="M779.4,433.1c11.5,23.8,68.4,132.9,69.2,153.9s-7.5,38.5-7.5,38.5s21.2-19,15.6-43.4
		c-2.5-10.6-12-37.8-24.9-64c-16.8-34.1-39-64.8-39-64.8L779.4,433.1z"/>
	<path class="st25" d="M636.7,412.7l5.2,17.2l-55.2,160.7c0,0,10.3-132.1,13.6-160.7s20.9-64.5,25.4-78.5c3.5-9.6-3.2-17.2-3-20.9
		c3.9,2.5,20.5,9.4,23,10.4c2.6,1,3.2,1.3,3.6,3l0.1,0.5l0.1,0.1c1.5,3.7,13.9,34.5,24.5,53.1c-4.7,1.6-20.6,7.1-36.5,14.7
		L636.7,412.7"/>
	<path class="st20" d="M633,410l5.2,17.2L583,587.9c0,0,10.3-132.1,13.6-160.7s20.9-64.5,25.4-78.5c3.5-9.6-0.9-25.3-2.8-28.3
		c3,4.9,20.3,15.8,22.9,16.8c2.6,1,3.1,2.3,3.6,4.1l0.2,0.5c1.5,3.7,13.9,34.5,24.5,53.1c-4.7,1.6-20.6,7.1-36.5,14.7L633,410"/>
	<path class="st24" d="M609.4,385.2c-3.9,43.1-15.4,108.8-17.7,143.7c-1.1,20.3-5.8,40.2-5.8,40.2s8.9-121.2,12.8-146.2
		C601.7,403.5,609.4,385.2,609.4,385.2z"/>
	<path class="st24" d="M623.4,325.9c2.8,2.8,16.1,11.5,17.3,11.9c2.6,1,3.1,2.3,3.6,4.1l0.2,0.5c1.5,3.7,8.9,24.2,15.7,37.3
		c-0.9-1.8-8-10.7-14.6-25.9c-8.4-19.2-10.5-11.8-19-19.9L623.4,325.9z"/>
	<path class="st22" d="M398.8,609.2c1.2,0.8,1.9,6.7,1.9,6.7l-16.5-7.9c0,0,4.7-1.2,9-0.5C397.3,608.2,397.9,608.7,398.8,609.2z"/>
	<path class="st22" d="M409.2,620.3c2-0.3,5,4.8,4,8.2s-17.1,2-17.1,2S401.1,621.6,409.2,620.3z"/>
	<path class="st3" d="M370.8,675.5c-2,0-4.3-5.4-2.9-8.6c1.5-3.2,17.3,0.4,17.3,0.4S379.1,675.3,370.8,675.5z"/>
	<path class="st16" d="M741.8,609.8c-1.4,1.1-1.7,7.6-1.7,7.6l14.1-8.1c0,0-1.7-1.5-6.5-1.4C743.5,608,742.6,609.1,741.8,609.8z"/>
	<path class="st16" d="M733.4,622.2c-2-0.3-4.7,3.3-3.9,7.2c9.8-2.5,17.8,1.7,17.8,1.7S741.6,623.5,733.4,622.2z"/>
	<path class="st23" d="M656.7,342.6c16.9,5.8,33.5,12.7,49.9,17.9c16.4,5.3,42.7,14,55.2,35.4c12.4,21.3,57.5,90.8,75.2,131.7
		c17.8,40.9,34.5,73.7,3.8,98.6c-30,24.4-60.4,47-72.1,52.1c-0.3,0.1-6.5-2.6-6.7-2.5c0.2-0.2,6.4,2.5,6.6,2.3
		c8-7.1,18.7-32.7,9.5-52.4c-8.7-18.7-29-16-37-13.4c-0.3,0.1-5.1,7.5-5.4,7.6c0.2-0.2,0-5.5,4.6-8.5c2-1.3,13.7-9.4,27.5-18.1
		c18-11.4,40-23.6,47.4-27c-0.2-0.5-27,14.7-27.5,13.9c-8.6-16.4-59.8-92.1-59.8-92.1s-10.2,42.3-12.4,60s-2.6,21.8-2.6,21.8"/>
</g>
<g id="Layer_19">
	<g>
		
			<linearGradient id="SVGID_6_" gradientUnits="userSpaceOnUse" x1="485.4586" y1="318.7093" x2="653.0114" y2="267.194" gradientTransform="matrix(1 0 0 -1 0 842)">
			<stop  offset="1.117318e-02" style="stop-color:#7CD6FB"/>
			<stop  offset="1" style="stop-color:#098DC9"/>
		</linearGradient>
		<circle class="st26" cx="565.5" cy="547.9" r="103.8"/>
		
			<radialGradient id="SVGID_7_" cx="565.5" cy="294.1" r="96" fx="533.5225" fy="263.5495" gradientTransform="matrix(1 0 0 -1 0 842)" gradientUnits="userSpaceOnUse">
			<stop  offset="1.117318e-02" style="stop-color:#A0F4EC"/>
			<stop  offset="1" style="stop-color:#22BBFF"/>
		</radialGradient>
		<circle class="st27" cx="565.5" cy="547.9" r="96"/>
		<circle class="st28" cx="548.1" cy="526.1" r="68"/>
	</g>
	<g class="st29">
		<circle class="st30" cx="632.2" cy="519" r="7.3"/>
		<polyline class="st31" points="499.9,586.3 541.9,543.7 559.4,561.5 595.6,525.9 609.7,539.4 630.9,520.4 		"/>
	</g>
</g>
<g id="Layer_25">
	<path class="st7" d="M677,635.7c7,1.6,16.1,8.5,15.3,14.6c-4.3,3.8-7.7,7.7-10,11.4c-3,4.9-4.2,9.5-4.1,13.4
		c-1.3,0.7-2.6,1.5-4.1,2.2c-27.7,13.2-64,23.2-97.4,25.3c-35.8,2.2-62-3.4-83.3-11.4c-26.8-10-37.7-23.7-33.9-34.4
		c3.7-10.7,28.2-2.2,66.3,1.9C563.9,662.8,677,635.7,677,635.7z"/>
	<path class="st32" d="M480.2,607c-10.2-3.6-14.6,13.3-15.6,17c-5.4,2-21.8,11.6-14.4,31s57.1,35.4,81.7,37.7
		c24.6,2.2,32.4,1,52.3-1.4s64.2-8.7,87.9-34.6c23.6-25.8-0.1-38.3-11.6-41c0-4.4-0.9-9.3-9-9.6c-3.3,5.4-29.1,32.4-61.2,29
		c-38.1-4.1-60.6,3-74.6-2.2C492.8,624.5,480.2,607,480.2,607z"/>
	
		<radialGradient id="SVGID_8_" cx="680.3972" cy="209.2525" r="79.904" gradientTransform="matrix(1 0 0 -1 0 842)" gradientUnits="userSpaceOnUse">
		<stop  offset="0" style="stop-color:#58595B"/>
		<stop  offset="0.7654" style="stop-color:#F1F2F2"/>
	</radialGradient>
	<path class="st33" d="M584.1,691.2c19.8-2.4,64.2-8.7,87.9-34.6c23.6-25.8-0.1-38.3-11.6-41c0-4.4-0.9-9.3-9-9.6
		c-3.3,5.4-29.1,32.4-61.2,29c-3.7-0.4-7.3-0.7-10.8-0.9c9.7,7.6,1.4,17.5,9.4,26.7C593.9,669.4,595.1,689.8,584.1,691.2z"/>
	
		<radialGradient id="SVGID_9_" cx="524.6808" cy="197.1438" r="45.9218" fx="538.2701" fy="216.6592" gradientTransform="matrix(1 0 0 -1 0 842)" gradientUnits="userSpaceOnUse">
		<stop  offset="0.2301" style="stop-color:#6D6E71"/>
		<stop  offset="1" style="stop-color:#F1F2F2"/>
	</radialGradient>
	<path class="st34" d="M464.6,623.9c6.9,11.7,35.6,44.8,71.1,45.5c20.1,0.4,36-0.2,43.8-2.9c9.2-3.1,7.6-12.8-15-10.3
		c-22.6,2.6-38.4,4-56.6-2.9c-21-8-38.6-25.6-42.3-33.1C464.6,623.9,464.6,623.9,464.6,623.9z"/>
	
		<radialGradient id="SVGID_10_" cx="514.9535" cy="-267.1654" r="45.9541" fx="528.5523" fy="-247.6363" gradientTransform="matrix(0.3931 -0.4256 -0.4398 -0.4062 312.7711 749.2537)" gradientUnits="userSpaceOnUse">
		<stop  offset="0.2301" style="stop-color:#6D6E71"/>
		<stop  offset="1" style="stop-color:#F1F2F2"/>
	</radialGradient>
	<path class="st35" d="M599.9,655.7c7.8,1.8,33.7,3,47.9-11.8c8.1-8.4,14-15.4,16-19.8c2.2-5.2-2.7-8.5-10.4,2.2
		c-7.8,10.7-13.4,18-23.5,22.9c-11.8,5.7-26.4,6.1-31.2,4.6C599.9,655.7,599.9,655.7,599.9,655.7z"/>
	<path class="st15" d="M467.7,614.9c1-3.7,5.6-10.6,12.4-8c0,0,12.6,17.6,35.5,26c11,4.1,27.1,0.6,51.9,0.9
		c6.9,0.1,14.4,0.4,22.7,1.3c32.1,3.4,57.9-23.5,61.2-29c8.1,0.2-1.2,12.6-11,17.3s-23,11.8-38.5,12.9c-14.3,1-23.6-2.9-36.4-2.6
		c-12.8,0.3-37.2,11.8-56.1,4.6C490.6,631.2,467.7,614.9,467.7,614.9z"/>
</g>
<g id="Layer_22">
	<path class="st9" d="M388,636c9.9-11.8,27.5-12.3,46.1-4.6c19.9,8.1,32.2,17.1,36,28.1c3,8.6,2.4,23.3-10.1,30.8
		c-12.4,7.5-26.3,4.6-47.2-3.2c-20.9-7.8-25.5-12.4-34.1-16C379.1,661.6,377,649.2,388,636z"/>
	<path class="st10" d="M467.6,671.7c-4.7-16.6-23.8-31.5-43.2-35.6c-19.4-4.1-20.7-9.2-20.7-9.2s3.4-1.1,10.9-0.5
		c6.9,0.5,17.1,3,31.5,10.5c24.7,12.8,24.7,24.2,23.9,28.9C469.2,670.6,467.6,671.7,467.6,671.7z"/>
	<path class="st11" d="M422.3,673.4C405.2,660.5,393,660,393.6,647c0.7-13.1,4.6-18.4,4.6-18.4s-3.6-0.3-7.2,8.9
		c-3.5,9.2-4.8,19.4-4.9,24.5C395.7,656.9,422.3,673.4,422.3,673.4z"/>
	<g>
		<g>
			<defs>
				<path id="SVGID_11_" d="M388,636c9.9-11.8,27.5-12.3,46.1-4.6c19.9,8.1,32.2,17.1,36,28.1c3,8.6,2.4,23.3-10.1,30.8
					c-12.4,7.5-26.3,4.6-47.2-3.2c-20.9-7.8-25.5-12.4-34.1-16C379.1,661.6,377,649.2,388,636z"/>
			</defs>
			<clipPath id="SVGID_12_">
				<use xlink:href="#SVGID_11_"  style="overflow:visible;"/>
			</clipPath>
			<path class="st36" d="M378.8,671.1c5.7-12.5,13.8-13.2,30.7-4.7s34.8,21.2,46.2,15.8c10.8-5.1,15.4-13.1,13.9-24.1
				c0,0,11,9.9,6,24.4s-30.4,27.1-59.3,15.2C387.3,685.8,378.8,671.1,378.8,671.1z"/>
		</g>
	</g>
	<path class="st13" d="M418.1,642.6c10.1,3.2,32.8,15.9,47.4,32.3"/>
	<path class="st14" d="M388,636c9.9-11.8,27.5-12.3,46.1-4.6c19.9,8.1,32.2,17.1,36,28.1c3,8.6,2.4,23.3-10.1,30.8
		c-12.4,7.5-26.3,4.6-47.2-3.2c-20.9-7.8-25.5-12.4-34.1-16C379.1,661.6,377,649.2,388,636z"/>
	<path class="st15" d="M387.8,609.5l21.8,10.7c0,0-20,6.5-22.4,35.6c-1.6,19.6,2.1,21.3,2.1,21.3l-21.5-7.6c0,0-11.2-16.2-6.4-39.7
		c2.4-11.7,8.7-18.7,17.3-20.5C386.9,607.7,387.8,609.5,387.8,609.5z"/>
	<path class="st22" d="M398.7,610.9c-1.1-0.4-3.9,1.9-6.7,0.7c-5.1-2.2-11.4,0.1-17.5,7c-8.2,9.2-9.3,21.5-7.7,32.1
		c2.3,16,9.5,23,9.5,23s-2.5,1.3-6.7,0.3c-1.9-1.3-12.2-19.6-11-36.4c1.7-24.9,16.8-30.8,27.9-30.8c4.2,0,7.2,0.4,10,1.4
		C399.1,609.1,398.7,610.9,398.7,610.9z"/>
	<path class="st30" d="M430.6,647.2c-2.3-1-4.5,0.3-2.4,1.3c2.1,1.1,8.7,5.1,11.8,6.9c2.4,1.4,4.2,0.6,3-0.5
		C440.9,653.2,430.6,647.2,430.6,647.2z"/>
	<path class="st22" d="M428.9,647.2c4-2.3,13,3.7,13.1,7.4c-0.8,0.5-4.7-1.9-7.3-3.4c-4.2-2.4-5.3-3-5.8-3.7
		C428.8,647.4,428.8,647.2,428.9,647.2z"/>
	<path class="st30" d="M709.7,657.5c2-1.4,4.5-0.7,2.7,0.8s-7.4,6.9-10,9.3c-2,1.9-4,1.5-3,0.1C700.9,665.5,709.7,657.5,709.7,657.5
		z"/>
	<path class="st22" d="M711.3,657.1c-4.4-1.4-12,6.4-11.3,10.1c0.9,0.3,4.2-2.8,6.4-4.9c3.6-3.3,4.5-4.1,4.9-4.8
		C711.5,657.3,711.5,657.1,711.3,657.1z"/>
</g>
<g id="Layer_20">
	<polyline class="st37" points="499.7,63.9 514.1,44.8 604.1,44.8 616.4,62 	"/>
	<path class="st38" d="M671,74.9l19.1,33.6H429.4l25.9-33.6l0.4-0.1c23.7-9.5,64.5-16.3,109-16.3c44.2,0,81.9,6.6,105.7,16L671,74.9
		z"/>
	<path class="st39" d="M555.3,105.7l-125.9,2.8l25.9-33.6l0.4-0.1c12.2-4.9,26.4-8.4,44.4-11.3c5.8-7.6,11.8-16,14.1-18.7
		c9.7,0,37.1,0.1,39.8,0c1.6,0-2.3,9.6-2.6,14c3.2-0.1,6.9-0.2,7.9-0.2C559.2,77.9,555.3,105.7,555.3,105.7z"/>
	<path class="st40" d="M691.3,113.1l-14.9,187c-0.3,3.7-3.4,6.6-7.1,6.6H453.8c-3.7,0-6.7-2.8-7.1-6.4l-18.6-187
		c-0.4-4.1,2.8-7.6,6.9-7.6h249.5C688.5,105.7,691.6,109.1,691.3,113.1z"/>
	<path class="st41" d="M539.4,107.6"/>
	<path class="st41" d="M501.1,115.9"/>
	
		<radialGradient id="SVGID_13_" cx="559.45" cy="641.6" r="104.4508" gradientTransform="matrix(1 0 0 -1 0 842)" gradientUnits="userSpaceOnUse">
		<stop  offset="1.117318e-02" style="stop-color:#A0F4EC"/>
		<stop  offset="1" style="stop-color:#22BBFF"/>
	</radialGradient>
	<path class="st42" d="M653.9,285.2H466.6c-8.2,0-14.9-6.7-14.9-14.9l-13.2-139.8c0-8.2,6.7-14.9,14.9-14.9h212.1
		c8.2,0,14.9,6.7,14.9,14.9l-11.6,139.8C668.8,278.5,662.1,285.2,653.9,285.2z"/>
	<g>
		<g>
			<defs>
				<path id="SVGID_14_" d="M654.1,285.2H466.8c-8.2,0-14.9-6.7-14.9-14.9l-13.2-139.8c0-8.2,6.7-14.9,14.9-14.9h212.1
					c8.2,0,14.9,6.7,14.9,14.9L669,270.3C669,278.5,662.3,285.2,654.1,285.2z"/>
			</defs>
			<clipPath id="SVGID_15_">
				<use xlink:href="#SVGID_14_"  style="overflow:visible;"/>
			</clipPath>
			<path class="st43" d="M539,110.6c-12.4,37.3-24,154-27.7,179.9s-61,0-61,0L431.7,126l8-15.4l60.3,1.3L539,110.6z"/>
		</g>
	</g>
	<path class="st44" d="M661.9,285.6H458.6c-8.2,0-14.9-6.7-14.9-14.9l-5.2-139.8c0-8.2,6.7-14.9,14.9-14.9h212.1
		c8.2,0,14.9,6.7,14.9,14.9l-3.6,139.8C676.8,278.9,670.1,285.6,661.9,285.6z"/>
	<g>
		
			<linearGradient id="SVGID_16_" gradientUnits="userSpaceOnUse" x1="471.1992" y1="700.3112" x2="629.7699" y2="563.1324" gradientTransform="matrix(1 0 0 -1 0 842)">
			<stop  offset="0" style="stop-color:#2F87C3"/>
			<stop  offset="1" style="stop-color:#0E445D"/>
		</linearGradient>
		<path class="st45" d="M493.3,168.5c-3,0-4.7-1.4-4.8-3.7h-2c0.1,3.5,2.8,5.6,6.8,5.6c4.1,0,6.8-2.2,6.8-5.7c0-4-3.3-4.5-6.3-5
			c-2.5-0.4-4.9-0.8-4.9-3.2c0-2.2,1.7-3.6,4.4-3.6c2.7,0,4.3,1.4,4.4,3.5h2c-0.1-3.3-2.6-5.4-6.4-5.4c-3.9,0-6.4,2.3-6.4,5.6
			c0,4,3.3,4.5,6.3,5c2.5,0.4,4.9,0.8,4.9,3.3C498.1,167,496.2,168.5,493.3,168.5z"/>
		
			<linearGradient id="SVGID_17_" gradientUnits="userSpaceOnUse" x1="485.9166" y1="717.3236" x2="644.4871" y2="580.1448" gradientTransform="matrix(1 0 0 -1 0 842)">
			<stop  offset="0" style="stop-color:#2F87C3"/>
			<stop  offset="1" style="stop-color:#0E445D"/>
		</linearGradient>
		<polygon class="st46" points="523.3,170 525.4,170 525.4,153.2 531.7,153.2 531.7,151.3 516.9,151.3 516.9,153.2 523.3,153.2 		
			"/>
		
			<linearGradient id="SVGID_18_" gradientUnits="userSpaceOnUse" x1="498.8188" y1="732.2379" x2="657.3895" y2="595.0591" gradientTransform="matrix(1 0 0 -1 0 842)">
			<stop  offset="0" style="stop-color:#2F87C3"/>
			<stop  offset="1" style="stop-color:#0E445D"/>
		</linearGradient>
		<path class="st47" d="M557.7,170.4c5.8,0,10-4.1,10-9.7c0-5.6-4.1-9.7-10-9.7c-5.8,0-10,4.1-10,9.7
			C547.7,166.3,551.8,170.4,557.7,170.4z M557.7,152.8c4.7,0,7.9,3.3,7.9,7.8s-3.2,7.8-7.9,7.8s-7.9-3.3-7.9-7.8
			S553,152.8,557.7,152.8z"/>
		
			<linearGradient id="SVGID_19_" gradientUnits="userSpaceOnUse" x1="514.869" y1="750.7908" x2="673.4395" y2="613.612" gradientTransform="matrix(1 0 0 -1 0 842)">
			<stop  offset="0" style="stop-color:#2F87C3"/>
			<stop  offset="1" style="stop-color:#0E445D"/>
		</linearGradient>
		<path class="st48" d="M595.2,170.4c4.7,0,8.3-2.7,9.5-6.6h-2.2c-1.1,2.9-3.8,4.7-7.3,4.7c-4.7,0-7.9-3.3-7.9-7.8s3.2-7.8,7.9-7.8
			c3.5,0,6.2,1.9,7.3,4.7h2.2c-1.2-4-4.8-6.6-9.5-6.6c-5.8,0-10,4.1-10,9.7C585.2,166.3,589.3,170.4,595.2,170.4z"/>
		
			<linearGradient id="SVGID_20_" gradientUnits="userSpaceOnUse" x1="529.8341" y1="768.0897" x2="688.4047" y2="630.9108" gradientTransform="matrix(1 0 0 -1 0 842)">
			<stop  offset="0" style="stop-color:#2F87C3"/>
			<stop  offset="1" style="stop-color:#0E445D"/>
		</linearGradient>
		<polygon class="st49" points="625.3,161 634.4,170 637.1,170 627.4,160.5 636.9,151.3 634.2,151.3 625.3,160 625.3,151.3 
			623.3,151.3 623.3,170 625.3,170 		"/>
		
			<linearGradient id="SVGID_21_" gradientUnits="userSpaceOnUse" x1="419.3055" y1="711.5272" x2="574.9775" y2="576.8558" gradientTransform="matrix(1 0 0 -1 0 842)">
			<stop  offset="0" style="stop-color:#2F87C3"/>
			<stop  offset="1" style="stop-color:#0E445D"/>
		</linearGradient>
		<path class="st50" d="M501.8,199.9c-6.6-1-13.1-1.8-13.1-8.9c0-6.7,5-10.4,12.3-10.4c7.2,0,12.1,3.6,12.3,10h1.8
			c-0.2-7-5.7-11.6-14.1-11.6c-8.5,0-14.1,4.8-14.1,12c0,8.4,7.3,9.5,14.3,10.5c6.6,1,13.1,1.8,13.1,8.9c0,6.7-5.3,10.7-13.3,10.7
			c-7.9,0-13.1-3.9-13.3-10.7h-1.8c0.2,7.7,6.1,12.4,15.1,12.4c9.1,0,15.1-4.8,15.1-12.4C516.1,201.9,508.8,200.9,501.8,199.9z"/>
		
			<linearGradient id="SVGID_22_" gradientUnits="userSpaceOnUse" x1="490.3163" y1="746.3212" x2="648.8869" y2="609.1424" gradientTransform="matrix(1 0 0 -1 0 842)">
			<stop  offset="0" style="stop-color:#2F87C3"/>
			<stop  offset="1" style="stop-color:#0E445D"/>
		</linearGradient>
		<path class="st51" d="M631.8,192.1c0-7.1-4.1-12.4-13.4-12.4H599v42.1h1.8v-17.3h16.5l13.6,17.3h2.3l-13.7-17.3
			C628,204.1,631.8,198.9,631.8,192.1z M600.8,202.9v-21.6h17.6c8.4,0,11.6,4.6,11.6,10.7s-3.2,10.8-11.6,10.8h-17.6V202.9z"/>
		
			<linearGradient id="SVGID_23_" gradientUnits="userSpaceOnUse" x1="462.2168" y1="713.84" x2="620.7874" y2="576.6612" gradientTransform="matrix(1 0 0 -1 0 842)">
			<stop  offset="0" style="stop-color:#2F87C3"/>
			<stop  offset="1" style="stop-color:#0E445D"/>
		</linearGradient>
		<path class="st52" d="M532.1,196.7l10-10c1.2,0.9,2.7,1.5,4.3,1.5c3.8,0,6.9-3.1,6.9-6.9c0-3.8-3.1-6.9-6.9-6.9s-6.9,3.1-6.9,6.9
			c0,1.6,0.5,3.1,1.5,4.3l-10,10c-1.2-0.9-2.7-1.5-4.3-1.5c-3.8,0-6.9,3.1-6.9,6.9c0,3.8,3.1,6.9,6.9,6.9c1.6,0,3.1-0.5,4.3-1.5
			l9.8,9.8c-0.9,1.2-1.5,2.7-1.5,4.3c0,3.8,3.1,6.9,6.9,6.9s6.9-3.1,6.9-6.9c0-3.8-3.1-6.9-6.9-6.9c-1.6,0-3.1,0.5-4.3,1.5l-9.8-9.8
			c0.8-1,1.3-2.1,1.4-3.4h8.5c0.4,2.1,2.2,3.6,4.4,3.6c2.5,0,4.5-2,4.5-4.5s-2-4.5-4.5-4.5c-2.2,0-4,1.6-4.4,3.6h-8.5
			C533.4,198.8,532.9,197.6,532.1,196.7z"/>
		
			<linearGradient id="SVGID_24_" gradientUnits="userSpaceOnUse" x1="478.2257" y1="732.3454" x2="636.7963" y2="595.1666" gradientTransform="matrix(1 0 0 -1 0 842)">
			<stop  offset="0" style="stop-color:#2F87C3"/>
			<stop  offset="1" style="stop-color:#0E445D"/>
		</linearGradient>
		<path class="st53" d="M569.5,196.7l10-10c1.2,0.9,2.7,1.5,4.3,1.5c3.8,0,6.9-3.1,6.9-6.9c0-3.8-3.1-6.9-6.9-6.9s-6.9,3.1-6.9,6.9
			c0,1.6,0.5,3.1,1.5,4.3l-10,10c-1.2-0.9-2.7-1.5-4.3-1.5c-3.8,0-6.9,3.1-6.9,6.9c0,3.8,3.1,6.9,6.9,6.9c1.6,0,3.1-0.5,4.3-1.5
			l9.8,9.8c-0.9,1.2-1.5,2.7-1.5,4.3c0,3.8,3.1,6.9,6.9,6.9s6.9-3.1,6.9-6.9c0-3.8-3.1-6.9-6.9-6.9c-1.6,0-3.1,0.6-4.3,1.5l-9.8-9.8
			c0.8-1,1.3-2.1,1.4-3.4h8.5c0.4,2.1,2.2,3.6,4.4,3.6c2.5,0,4.5-2,4.5-4.5s-2-4.5-4.5-4.5c-2.2,0-4,1.6-4.4,3.6h-8.5
			C570.8,198.8,570.3,197.6,569.5,196.7z"/>
		
			<linearGradient id="SVGID_25_" gradientUnits="userSpaceOnUse" x1="488.7402" y1="720.5875" x2="647.3108" y2="583.4087" gradientTransform="matrix(1 0 0 -1 0 842)">
			<stop  offset="0" style="stop-color:#2F87C3"/>
			<stop  offset="1" style="stop-color:#0E445D"/>
		</linearGradient>
		<rect x="485.7" y="183.7" class="st54" width="151.7" height="1.4"/>
	</g>
	
		<radialGradient id="SVGID_26_" cx="665.4097" cy="546.2874" r="3.3256" gradientTransform="matrix(1 0 0 -1 0 842)" gradientUnits="userSpaceOnUse">
		<stop  offset="1.117318e-02" style="stop-color:#A0F4EC"/>
		<stop  offset="1" style="stop-color:#22BBFF"/>
	</radialGradient>
	<circle class="st55" cx="665.4" cy="295.7" r="3.3"/>
	<line class="st56" x1="655.9" y1="294.1" x2="581.7" y2="294.1"/>
	<line class="st56" x1="598.9" y1="52.2" x2="520.1" y2="52.2"/>
	<line class="st56" x1="600.4" y1="54.7" x2="518.5" y2="54.7"/>
	<line class="st56" x1="601.8" y1="57.2" x2="517" y2="57.2"/>
	<line class="st56" x1="655.9" y1="297.6" x2="602.1" y2="297.6"/>
	<path class="st23" d="M671,78.9l18.9,26.4l-260.5,0.2l26-26.6l0.4-0.1c23.7-9.5,64.5-16.3,109-16.3c44.2,0,81.9,6.6,105.7,16
		L671,78.9z"/>
	<polyline class="st57" points="499.7,67.5 514.1,48.4 604.1,48.4 616.4,65.6 	"/>
</g>
<g id="Layer_24">
	<g>
		<g>
			<g class="st58">
				<g>
					<defs>
						<polygon id="SVGID_27_" points="406.4,800.6 442.5,720.6 694.4,720.6 730.4,800.6 						"/>
					</defs>
					<clipPath id="SVGID_28_">
						<use xlink:href="#SVGID_27_"  style="overflow:visible;"/>
					</clipPath>
					<g class="st59">
						<g>
							<g>
								<g>
									<path class="st60" d="M448.4,754.8h-8l-11.6,28.4h8.7L448.4,754.8 M461.9,754.8h-8l-10.4,28.4h8.7L461.9,754.8
										 M475.5,754.8h-8l-9.1,28.4h8.7L475.5,754.8 M439,754.6h-3l-12.1,28.5h3.2L439,754.6 M452.5,754.6h-2.6l-10.8,28.5h2.8
										L452.5,754.6 M466.1,754.6h-2.6l-9.6,28.5h2.8L466.1,754.6 M480,754.6h-2.9l-8.3,28.5h3.2L480,754.6 M482.5,745.4h-43.2
										l-6.3,7.3h50.6L482.5,745.4 M429.3,754.6l9.5-10.9h45.5l1.7,10.9h-4.2l-8.5,30.7h-52.5l13.2-30.7H429.3 M490.1,720.6h-38.6
										c-1.3,0-2.5,0.2-3.8,0.6c-1.3,0.4-2.5,0.9-3.6,1.6c-1.1,0.7-2.2,1.5-3.1,2.5c-0.9,0.9-1.6,2-2.1,3.1l-27.1,60
										c-0.7,1.6-1.1,3.2-1.2,4.6c-0.1,1.4,0.2,2.8,0.7,3.9c0.6,1.1,1.4,2,2.5,2.7c1.1,0.6,2.5,1,4.1,1h49.6c1.6,0,3.2-0.4,4.8-1
										c1.6-0.6,3-1.5,4.4-2.7c1.3-1.1,2.5-2.4,3.4-3.9c0.9-1.4,1.6-3,2-4.6l14.9-60c0.3-1.1,0.3-2.1,0-3.1
										c-0.2-0.9-0.7-1.8-1.3-2.5c-0.6-0.7-1.5-1.3-2.5-1.6C492.5,720.8,491.4,720.6,490.1,720.6"/>
									<path class="st60" d="M567.6,739.1c-1.4,0-2.8,0.3-4,0.7c-1.2,0.5-2.4,1.2-3.4,2c-1,0.9-1.8,1.9-2.3,3
										c-0.6,1.1-0.9,2.4-1,3.8v0.2v0.9h-5.8c-0.5,0-0.9,0.1-1.3,0.2c-0.4,0.2-0.8,0.4-1.1,0.7s-0.6,0.6-0.8,1s-0.3,0.8-0.4,1.2
										l-1.7,25.8c0,0.5,0,1,0.2,1.5s0.4,0.9,0.7,1.2s0.7,0.6,1.1,0.8c0.4,0.2,0.9,0.3,1.4,0.3h36.6c0.5,0,1-0.1,1.4-0.3
										s0.8-0.5,1.1-0.8s0.6-0.8,0.7-1.2c0.2-0.5,0.2-0.9,0.2-1.5l-1.6-25.8c0-0.4-0.1-0.9-0.3-1.2c-0.2-0.4-0.5-0.7-0.8-1
										s-0.7-0.5-1.1-0.7c-0.4-0.2-0.9-0.2-1.3-0.2h-5.9v-1.1c0-1.4-0.4-2.6-1-3.8c-0.6-1.1-1.4-2.2-2.3-3c-1-0.8-2.1-1.5-3.3-2
										C570.4,739.4,569,739.1,567.6,739.1 M549.1,784.7c-0.8,0-1.6-0.2-2.3-0.5s-1.3-0.8-1.8-1.3s-0.9-1.2-1.1-1.9
										c-0.2-0.7-0.4-1.5-0.3-2.3l1.9-25.8c0.1-0.7,0.3-1.4,0.6-1.9c0.3-0.6,0.7-1.1,1.3-1.6c0.5-0.4,1.1-0.8,1.8-1.1
										c0.7-0.2,1.4-0.4,2.1-0.4h3.9c0.2-1.5,0.6-2.9,1.4-4.2c0.7-1.3,1.7-2.4,2.8-3.3c1.1-0.9,2.4-1.7,3.9-2.2
										c1.4-0.5,3-0.8,4.6-0.8s3.2,0.3,4.6,0.8c1.4,0.5,2.7,1.3,3.8,2.2s2.1,2.1,2.8,3.3c0.7,1.3,1.2,2.7,1.3,4.2h3.9
										c0.7,0,1.4,0.1,2.1,0.4c0.7,0.2,1.3,0.6,1.8,1.1c0.5,0.4,0.9,1,1.3,1.6c0.3,0.6,0.5,1.3,0.6,1.9l1.8,25.8
										c0.1,0.8-0.1,1.6-0.3,2.3c-0.3,0.7-0.6,1.4-1.1,1.9s-1.1,1-1.8,1.3s-1.5,0.5-2.3,0.5H549.1 M587,720.6h-38.6
										c-1.3,0-2.5,0.2-3.6,0.6c-1.1,0.4-2.2,0.9-3,1.6c-0.9,0.7-1.6,1.5-2.2,2.5c-0.6,0.9-0.9,2-1,3.1l-6.3,60
										c-0.2,1.6,0,3.2,0.4,4.6c0.4,1.4,1.1,2.8,2.1,3.9c0.9,1.1,2.1,2,3.4,2.7c1.3,0.6,2.8,1,4.5,1h49.6c1.6,0,3.1-0.4,4.5-1
										c1.3-0.6,2.5-1.5,3.5-2.7c0.9-1.1,1.7-2.4,2.1-3.9c0.4-1.4,0.6-3,0.4-4.6l-5.9-60c-0.1-1.1-0.5-2.1-1-3.1
										c-0.6-0.9-1.3-1.8-2.2-2.5s-1.9-1.3-3-1.6C589.4,720.8,588.2,720.6,587,720.6"/>
									<path class="st60" d="M672.3,735.6h-1.8l1.3,3.6l-0.7,0.1c-1.4,0.1-2.6,0.4-3.7,0.9c-1,0.5-1.8,1.1-2.4,2
										c-0.6,0.8-0.9,1.8-1.1,2.9c-0.1,1.1,0,2.3,0.4,3.6c0.6,1.8,1.4,3.3,2.3,4.5c1,1.2,2.1,2,3.2,2.7c1.2,0.6,2.5,1.1,3.8,1.4
										c1.3,0.3,2.6,0.5,3.9,0.7c0.9,0.2,1.8,0.3,2.7,0.5s1.7,0.4,2.4,0.7s1.4,0.7,1.9,1.2s1,1.1,1.2,1.9c0.3,0.7,0.4,1.4,0.4,1.9
										s-0.2,1-0.5,1.4s-0.8,0.6-1.4,0.8c-0.6,0.2-1.3,0.3-2.2,0.3c-0.8,0-1.5-0.1-2.2-0.2c-0.7-0.1-1.3-0.4-1.8-0.7
										s-1-0.7-1.4-1.1c-0.4-0.4-0.7-1-1-1.5h-7.3c0.6,1.4,1.3,2.6,2.2,3.8c0.9,1.1,2,2.2,3.2,3c1.2,0.9,2.6,1.6,4.1,2.1
										s3.1,0.9,4.8,1l0.8,0.1l1.6,4.6h2l-1.6-4.6l0.8-0.1c1.6-0.2,3-0.6,4.1-1.2c1.1-0.6,2-1.4,2.5-2.3c0.6-1,0.9-2.1,0.9-3.3
										s-0.3-2.6-0.8-4.1c-0.8-2-1.7-3.5-2.8-4.7c-1-1.2-2.2-2.1-3.4-2.7c-1.2-0.6-2.5-1.1-3.8-1.4c-1.3-0.3-2.6-0.5-3.9-0.7
										c-0.9-0.2-1.8-0.3-2.6-0.5s-1.6-0.4-2.3-0.7s-1.3-0.7-1.8-1.1c-0.5-0.5-0.9-1-1.1-1.8c-0.2-0.6-0.3-1.2-0.2-1.6
										c0-0.5,0.2-0.9,0.5-1.2s0.7-0.6,1.2-0.8s1.1-0.3,1.9-0.3c0.6,0,1.2,0.1,1.8,0.2c0.6,0.1,1.1,0.3,1.6,0.6
										c0.5,0.2,0.9,0.6,1.3,0.9c0.4,0.4,0.7,0.8,1,1.2h6.6c-0.6-1.1-1.3-2.2-2.2-3.1c-0.9-0.9-1.8-1.8-2.9-2.5
										c-1.1-0.7-2.2-1.3-3.5-1.7c-1.2-0.4-2.5-0.7-3.9-0.9l-0.7-0.1L672.3,735.6 M681.5,765c0.7,0,1.3-0.1,1.7-0.2
										c0.4-0.1,0.7-0.3,0.9-0.5s0.2-0.5,0.2-0.8s-0.1-0.7-0.3-1.1c-0.2-0.4-0.4-0.8-0.7-1.1s-0.8-0.5-1.3-0.7s-1.1-0.4-1.8-0.5
										c-0.7-0.2-1.5-0.3-2.4-0.5c-1.2-0.2-2.7-0.4-4.1-0.8c-1.4-0.4-2.9-0.9-4.4-1.7c-1.4-0.8-2.8-1.8-3.9-3.2
										c-1.1-1.4-2.1-3.1-2.8-5.2c-0.4-1.5-0.6-2.8-0.5-4s0.5-2.3,1.1-3.2s1.5-1.7,2.5-2.3c1.1-0.6,2.3-1,3.8-1.2l-1.3-3.7h4.9
										l1.3,3.8c1.5,0.2,3,0.6,4.4,1.2c1.4,0.6,2.7,1.3,3.9,2.2s2.3,1.9,3.3,3s1.8,2.4,2.4,3.8l0.3,0.8h-9.9l-0.3-0.7
										c-0.1-0.4-0.3-0.7-0.6-1c-0.2-0.3-0.5-0.5-0.8-0.7s-0.7-0.3-1.1-0.4c-0.4-0.1-0.9-0.1-1.4-0.1s-0.9,0.1-1.3,0.2
										c-0.3,0.1-0.6,0.3-0.8,0.5s-0.3,0.5-0.3,0.8s0,0.7,0.2,1.1c0.1,0.4,0.4,0.7,0.7,1s0.7,0.5,1.2,0.7s1.1,0.3,1.8,0.5
										c0.7,0.1,1.5,0.3,2.3,0.4c1.2,0.2,2.6,0.4,4,0.8c1.4,0.4,2.9,0.8,4.4,1.6c1.5,0.7,2.9,1.8,4.1,3.1c1.3,1.4,2.4,3.2,3.4,5.5
										c0.6,1.6,1,3.2,1,4.6c0,1.4-0.3,2.7-0.8,3.8c-0.6,1.1-1.5,2-2.6,2.7c-1.2,0.7-2.6,1.2-4.4,1.5l1.7,4.9h-5.6l-1.6-4.8
										c-1.9-0.2-3.7-0.7-5.4-1.4s-3.2-1.6-4.6-2.7c-1.4-1.1-2.6-2.3-3.6-3.7s-1.8-2.9-2.3-4.5l-0.3-0.8h10.6l0.3,0.8
										c0.1,0.4,0.3,0.8,0.5,1.1s0.5,0.6,0.8,0.8s0.8,0.4,1.3,0.5C680.1,764.9,680.8,765,681.5,765 M685.3,720.6h-38.6
										c-1.3,0-2.4,0.2-3.4,0.6c-1,0.4-1.8,0.9-2.5,1.6c-0.6,0.7-1.1,1.5-1.3,2.5c-0.2,0.9-0.2,2,0,3.1l14.9,60
										c0.4,1.6,1.1,3.2,2,4.6c0.9,1.4,2.1,2.8,3.4,3.9c1.3,1.1,2.8,2,4.4,2.7c1.6,0.6,3.2,1,4.8,1h49.6c1.6,0,3-0.4,4.1-1
										s2-1.5,2.5-2.7c0.6-1.1,0.8-2.4,0.7-3.9c-0.1-1.4-0.5-3-1.2-4.6l-27.1-60c-0.5-1.1-1.2-2.1-2.1-3.1
										c-0.9-0.9-1.9-1.8-3.1-2.5c-1.1-0.7-2.4-1.3-3.6-1.6C687.8,720.8,686.5,720.6,685.3,720.6"/>
									<path class="st15" d="M682.1,766.6c0.9,0,1.6-0.1,2.2-0.3c0.6-0.2,1.1-0.5,1.4-0.8c0.3-0.4,0.5-0.8,0.5-1.4
										c0-0.5-0.1-1.2-0.4-1.9c-0.3-0.8-0.7-1.4-1.2-1.9s-1.2-0.9-1.9-1.2s-1.5-0.5-2.4-0.7s-1.8-0.4-2.7-0.5
										c-1.3-0.2-2.6-0.4-3.9-0.7c-1.3-0.3-2.6-0.8-3.8-1.4c-1.2-0.6-2.3-1.5-3.2-2.7s-1.7-2.6-2.3-4.5c-0.4-1.3-0.6-2.5-0.4-3.6
										c0.1-1.1,0.5-2,1.1-2.9c0.6-0.8,1.4-1.5,2.4-2s2.2-0.8,3.7-0.9l0.7-0.1l-1.3-3.6h1.8l1.3,3.6l0.7,0.1
										c1.3,0.1,2.6,0.4,3.9,0.9c1.2,0.4,2.4,1,3.5,1.7s2.1,1.5,2.9,2.5c0.9,0.9,1.6,2,2.2,3.1h-6.6c-0.3-0.5-0.6-0.9-1-1.2
										c-0.4-0.4-0.8-0.7-1.3-0.9s-1-0.4-1.6-0.6c-0.6-0.1-1.2-0.2-1.8-0.2c-0.7,0-1.3,0.1-1.9,0.3c-0.5,0.2-0.9,0.4-1.2,0.8
										c-0.3,0.3-0.5,0.7-0.5,1.2s0,1,0.2,1.6c0.2,0.7,0.6,1.3,1.1,1.8s1.1,0.8,1.8,1.1s1.5,0.5,2.3,0.7s1.7,0.3,2.6,0.5
										c1.3,0.2,2.6,0.4,3.9,0.7c1.3,0.3,2.6,0.7,3.8,1.4c1.2,0.6,2.4,1.5,3.4,2.7c1.1,1.2,2,2.7,2.8,4.7c0.6,1.5,0.8,2.8,0.8,4.1
										c0,1.2-0.3,2.4-0.9,3.3c-0.6,1-1.4,1.7-2.5,2.3s-2.5,1-4.1,1.2l-0.8,0.1l1.6,4.6h-2l-1.6-4.6l-0.8-0.1
										c-1.7-0.1-3.3-0.5-4.8-1s-2.8-1.2-4.1-2.1c-1.2-0.9-2.3-1.9-3.2-3s-1.7-2.4-2.2-3.8h7.3c0.3,0.6,0.6,1.1,1,1.5
										s0.9,0.8,1.4,1.1s1.1,0.5,1.8,0.7C680.5,766.6,681.3,766.6,682.1,766.6 M673.3,734.2h-4.9l1.3,3.7
										c-1.5,0.2-2.8,0.6-3.8,1.2c-1.1,0.6-1.9,1.4-2.5,2.3c-0.6,0.9-1,2-1.1,3.2s0,2.6,0.5,4c0.7,2.2,1.6,3.9,2.8,5.2
										c1.2,1.4,2.5,2.4,3.9,3.2s2.9,1.3,4.4,1.7s2.9,0.6,4.1,0.8c0.9,0.2,1.7,0.3,2.4,0.5s1.3,0.3,1.8,0.5s0.9,0.4,1.3,0.7
										c0.3,0.3,0.6,0.6,0.7,1.1c0.1,0.4,0.2,0.8,0.3,1.1c0,0.3,0,0.6-0.2,0.8s-0.5,0.4-0.9,0.5s-1,0.2-1.7,0.2s-1.4-0.1-1.9-0.2
										c-0.5-0.1-0.9-0.3-1.3-0.5c-0.3-0.2-0.6-0.5-0.8-0.8s-0.4-0.7-0.5-1.1l-0.3-0.8h-10.6l0.3,0.8c0.5,1.6,1.3,3.2,2.3,4.5
										c1,1.4,2.2,2.6,3.6,3.7c1.4,1.1,2.9,2,4.6,2.7c1.7,0.7,3.5,1.2,5.4,1.4l1.6,4.8h5.6l-1.7-4.9c1.7-0.3,3.2-0.8,4.4-1.5
										s2.1-1.6,2.6-2.7c0.6-1.1,0.9-2.4,0.8-3.8c0-1.4-0.4-2.9-1-4.6c-0.9-2.3-2.1-4.1-3.4-5.5c-1.3-1.4-2.7-2.4-4.1-3.1
										c-1.4-0.7-2.9-1.2-4.4-1.6c-1.4-0.4-2.8-0.6-4-0.8c-0.9-0.2-1.6-0.3-2.3-0.4c-0.7-0.1-1.3-0.3-1.8-0.5s-0.9-0.4-1.2-0.7
										s-0.5-0.6-0.7-1c-0.1-0.4-0.2-0.8-0.2-1.1s0.1-0.6,0.3-0.8s0.4-0.4,0.8-0.5c0.3-0.1,0.8-0.2,1.3-0.2s1,0,1.4,0.1
										s0.8,0.2,1.1,0.4s0.6,0.4,0.8,0.7s0.4,0.6,0.6,1l0.3,0.7h9.9l-0.3-0.8c-0.6-1.4-1.4-2.6-2.4-3.8c-0.9-1.1-2-2.2-3.3-3
										c-1.2-0.9-2.5-1.6-3.9-2.2c-1.4-0.6-2.9-1-4.4-1.2L673.3,734.2"/>
									<path class="st15" d="M549.2,782.5c-0.5,0-1-0.1-1.4-0.3s-0.8-0.5-1.1-0.8s-0.6-0.8-0.7-1.2c-0.2-0.5-0.2-0.9-0.2-1.5
										l1.7-25.8c0-0.4,0.2-0.9,0.4-1.2c0.2-0.4,0.5-0.7,0.8-1s0.7-0.5,1.1-0.7c0.4-0.2,0.9-0.2,1.3-0.2h5.8v-0.9v-0.2
										c0.1-1.3,0.4-2.6,1-3.8c0.6-1.1,1.4-2.2,2.3-3c1-0.8,2.1-1.5,3.4-2c1.2-0.5,2.6-0.7,4-0.7s2.8,0.3,4,0.7
										c1.2,0.5,2.4,1.2,3.3,2c1,0.9,1.8,1.9,2.3,3c0.6,1.2,0.9,2.4,1,3.8v1.1h5.9c0.5,0,0.9,0.1,1.3,0.2c0.4,0.2,0.8,0.4,1.1,0.7
										s0.6,0.6,0.8,1s0.3,0.8,0.3,1.2l1.6,25.8c0,0.5,0,1-0.2,1.5s-0.4,0.9-0.7,1.2s-0.7,0.6-1.1,0.8c-0.4,0.2-0.9,0.3-1.4,0.3
										L549.2,782.5 M567.6,737.5c-1.6,0-3.2,0.3-4.6,0.8c-1.4,0.5-2.7,1.3-3.9,2.2c-1.1,0.9-2.1,2.1-2.8,3.3
										c-0.7,1.3-1.2,2.7-1.4,4.2H551c-0.7,0-1.4,0.1-2.1,0.4c-0.7,0.2-1.3,0.6-1.8,1.1c-0.5,0.4-0.9,1-1.3,1.6
										c-0.3,0.6-0.5,1.3-0.6,1.9l-1.9,25.8c-0.1,0.8,0,1.6,0.3,2.3c0.2,0.7,0.6,1.4,1.1,1.9s1.1,1,1.8,1.3s1.5,0.5,2.3,0.5h36.8
										c0.8,0,1.6-0.2,2.3-0.5s1.3-0.8,1.8-1.3s0.9-1.2,1.1-1.9c0.3-0.7,0.4-1.5,0.3-2.3l-1.8-25.8c0-0.7-0.2-1.4-0.6-1.9
										c-0.3-0.6-0.7-1.1-1.3-1.6c-0.5-0.4-1.1-0.8-1.8-1.1c-0.7-0.2-1.4-0.4-2.1-0.4h-3.9c-0.2-1.5-0.6-2.9-1.3-4.2
										s-1.7-2.4-2.8-3.3c-1.1-0.9-2.4-1.7-3.8-2.2C570.8,737.7,569.2,737.5,567.6,737.5"/>
									<path class="st15" d="M437.5,783.1h-8.7l-0.1,0.2h8.7L437.5,783.1 M452.3,783.1h-8.7l-0.1,0.2h8.7L452.3,783.1
										 M467.1,783.1h-8.7l-0.1,0.2h8.7L467.1,783.1 M481.9,754.6H480l-8.1,28.5h-3.2l-0.6,1.9H456l0.6-1.9h-2.8l-0.6,1.9h-12
										l0.7-1.9h-2.8l-0.7,1.9h-12l0.8-1.9H424l12.1-28.5h-1.9L421,785.3h52.5L481.9,754.6"/>
									<path class="st15" d="M433,752.7l6.3-7.3h43.2l1.1,7.3H433 M484.3,743.7h-45.5l-9.5,10.9h4.8h1.9h2.9l0.5-1.2h10.9
										l-0.5,1.2h2.6l0.5-1.2h10.9l-0.4,1.2h2.6l0.4-1.2h10.9l-0.4,1.2h2.9h1.9h4.2L484.3,743.7"/>
									<path class="st15" d="M428.8,783.1l11.6-28.4h8l-10.9,28.4l-0.1,0.2h-8.7L428.8,783.1 M450.4,753.4h-10.9l-0.5,1.2
										l-11.8,28.5l-0.8,1.9h12l0.7-1.9l10.8-28.5L450.4,753.4"/>
									<path class="st15" d="M443.6,783.1l10.4-28.4h8l-9.6,28.4l-0.1,0.2h-8.7L443.6,783.1 M463.9,753.4H453l-0.5,1.2l-10.6,28.5
										l-0.7,1.9h12l0.6-1.9l9.6-28.5L463.9,753.4"/>
									<path class="st15" d="M458.4,783.1l9.1-28.4h8l-8.4,28.4l-0.1,0.2h-8.7L458.4,783.1 M477.4,753.4h-10.9l-0.4,1.2l-9.3,28.5
										l-0.6,1.9h12.1l0.6-1.9l8.3-28.5L477.4,753.4"/>
								</g>
							</g>
						</g>
					</g>
				</g>
			</g>
		</g>
	</g>
	<g class="st61">
		<path class="st62" d="M-171.7,229.4c0-12.4,8.7-20.6,20.7-20.6c12.3,0,20.9,8.6,20.9,20.5s-8.7,20.2-20,20.2
			c-7.4,0-13.4-3.4-16.3-9.3V265h-5.2L-171.7,229.4L-171.7,229.4z M-135.5,229.1c0-8.9-6.3-15.5-15.5-15.5
			c-9.3,0-15.5,6.6-15.5,15.5s6.2,15.5,15.5,15.5S-135.5,238.1-135.5,229.1z"/>
		<path class="st62" d="M-124,225.3c0-11.1,6.7-16.5,16.3-16.5s16.2,5.4,16.2,16.6v0.5h-5.2v-0.5c0-8.1-4.5-11.7-11-11.7
			c-6.7,0-11,3.6-11,11.7v23.2h-5.2v-23.3H-124z"/>
		<path class="st62" d="M-87.9,229.1c0-11.7,8.6-20.4,20.8-20.4s20.7,8.6,20.7,20.4v1.7h-36.1c0.7,8.1,6.7,13.8,15.4,13.8
			c6.1,0,10.8-2.5,13.3-7h5.7c-3,7.1-10,11.8-19,11.8C-79.3,249.5-87.9,240.9-87.9,229.1z M-51.9,226.2c-1.3-7.8-7.4-12.5-15.2-12.5
			c-8.1,0-14.1,4.9-15.3,12.5H-51.9z"/>
		<path class="st62" d="M-41.9,229c0-11.9,8.7-20.2,20-20.2c7.4,0,13.4,3.4,16.3,9.3v-25.2h5.2v36c0,12.4-8.7,20.6-20.7,20.6
			C-33.3,249.5-41.9,240.9-41.9,229z M-5.6,229.1c0-8.9-6.2-15.5-15.5-15.5c-9.2,0-15.5,6.6-15.5,15.5s6.3,15.5,15.5,15.5
			C-11.8,244.6-5.6,238.1-5.6,229.1z"/>
		<path class="st62" d="M7.4,198.3c0-2.3,1.7-4,4-4s4,1.7,4,4s-1.7,4-4,4S7.4,200.6,7.4,198.3z M8.8,209.8H14v38.7H8.8V209.8z"/>
		<path class="st62" d="M21.6,229.1c0-11.7,8.6-20.4,20.8-20.4c10,0,17.6,5.8,19.9,14.4H57c-2.1-5.8-7.5-9.6-14.6-9.6
			c-9.2,0-15.5,6.6-15.5,15.5s6.3,15.5,15.5,15.5c7,0,12.4-3.8,14.6-9.6h5.3c-2.3,8.6-9.9,14.4-19.9,14.4
			C30.2,249.5,21.6,240.9,21.6,229.1z"/>
		<path class="st62" d="M68.6,234.2v-38.1h5.2v13.7h22.8v4.8H73.8v19.7c0,7,3.9,10.4,9.9,10.4s9.9-3.3,9.9-10.4v-0.9h5.1v0.9
			c0,10.2-6.1,15.3-15,15.3C74.8,249.5,68.6,244.4,68.6,234.2z"/>
		<path class="st62" d="M-171.7,312.6c0-12.4,8.7-20.6,20.7-20.6c12.3,0,20.9,8.6,20.9,20.5s-8.7,20.2-20,20.2
			c-7.4,0-13.4-3.4-16.3-9.3v24.8h-5.2L-171.7,312.6L-171.7,312.6z M-135.5,312.4c0-8.9-6.3-15.5-15.5-15.5
			c-9.3,0-15.5,6.6-15.5,15.5s6.2,15.5,15.5,15.5S-135.5,321.3-135.5,312.4z"/>
		<path class="st62" d="M-124,308.5c0-11.1,6.7-16.5,16.3-16.5s16.2,5.4,16.2,16.6v0.5h-5.2v-0.5c0-8.1-4.5-11.7-11-11.7
			c-6.7,0-11,3.6-11,11.7v23.2h-5.2v-23.3H-124z"/>
		<path class="st62" d="M-87.9,312.4c0-11.7,8.6-20.4,20.8-20.4s20.7,8.6,20.7,20.4v1.7h-36.1c0.7,8.1,6.7,13.8,15.4,13.8
			c6.1,0,10.8-2.5,13.3-7h5.7c-3,7.1-10,11.8-19,11.8C-79.3,332.7-87.9,324.1-87.9,312.4z M-51.9,309.4c-1.3-7.8-7.4-12.5-15.2-12.5
			c-8.1,0-14.1,4.9-15.3,12.5H-51.9z"/>
		<path class="st62" d="M-40.3,312.6c0-12.4,8.7-20.6,20.7-20.6c12.3,0,20.9,8.6,20.9,20.5s-8.7,20.2-20,20.2
			c-7.4,0-13.4-3.4-16.3-9.3v24.8h-5.2L-40.3,312.6L-40.3,312.6z M-4.1,312.4c0-8.9-6.3-15.5-15.5-15.5c-9.3,0-15.5,6.6-15.5,15.5
			s6.2,15.5,15.5,15.5S-4.1,321.3-4.1,312.4z"/>
		<path class="st62" d="M5.8,312.6c0-12.1,8.6-20.6,20.8-20.6s20.7,8.4,20.7,20.6v19.1h-4.9v-9.6c-2.7,6.9-9.2,10.6-16.7,10.6
			C14.9,332.7,5.8,325,5.8,312.6z M42.1,312.4c0-8.9-6.3-15.5-15.5-15.5s-15.5,6.6-15.5,15.5s6.3,15.5,15.5,15.5
			S42.1,321.3,42.1,312.4z"/>
		<path class="st62" d="M55,308.5c0-11.1,6.7-16.5,16.3-16.5s16.2,5.4,16.2,16.6v0.5h-5.2v-0.5c0-8.1-4.5-11.7-11-11.7
			c-6.7,0-11,3.6-11,11.7v23.2H55V308.5z"/>
		<path class="st62" d="M91.1,312.4c0-11.7,8.6-20.4,20.8-20.4s20.7,8.6,20.7,20.4v1.7H96.5c0.7,8.1,6.7,13.8,15.4,13.8
			c6.1,0,10.8-2.5,13.3-7h5.7c-3,7.1-10,11.8-19,11.8C99.7,332.7,91.1,324.1,91.1,312.4z M127.1,309.4c-1.3-7.8-7.4-12.5-15.2-12.5
			c-8.1,0-14.1,4.9-15.3,12.5H127.1z"/>
		<path class="st62" d="M-171.7,395.8c0-12.4,8.7-20.6,20.7-20.6c12.3,0,20.9,8.6,20.9,20.5s-8.7,20.2-20,20.2
			c-7.4,0-13.4-3.4-16.3-9.3v24.8h-5.2L-171.7,395.8L-171.7,395.8z M-135.5,395.6c0-8.9-6.3-15.5-15.5-15.5
			c-9.3,0-15.5,6.6-15.5,15.5s6.2,15.5,15.5,15.5S-135.5,404.5-135.5,395.6z"/>
		<path class="st62" d="M-124,391.8c0-11.1,6.7-16.5,16.3-16.5s16.2,5.4,16.2,16.6v0.5h-5.2v-0.5c0-8.1-4.5-11.7-11-11.7
			c-6.7,0-11,3.6-11,11.7v23.2h-5.2v-23.3H-124z"/>
		<path class="st62" d="M-87.9,395.6c0-11.7,8.6-20.4,20.8-20.4s20.8,8.6,20.8,20.4c0,11.7-8.6,20.4-20.8,20.4
			S-87.9,407.4-87.9,395.6z M-51.6,395.6c0-8.9-6.3-15.5-15.5-15.5s-15.5,6.6-15.5,15.5s6.3,15.5,15.5,15.5S-51.6,404.5-51.6,395.6z
			"/>
		<path class="st62" d="M-41.5,404.1h5.3c0.2,4.1,4,7.1,10.5,7.1c6.7,0,10.5-3.1,10.5-7.3c0-4.7-4.9-5.2-10.5-5.9
			c-7-0.9-14.9-2-14.9-10.5c0-7.3,5.7-12.2,14.8-12.2s14.6,5,14.8,11.6h-5.2c-0.2-3.8-3.8-6.8-9.7-6.8c-6,0-9.5,3-9.5,7
			c0,4.8,5,5.3,10.5,6c6,0.8,15,1.7,15,10.5c0,7.4-6.2,12.4-15.8,12.4C-35.2,416-41.3,410.9-41.5,404.1z"/>
		<path class="st62" d="M-3.5,395.8c0-12.4,8.7-20.6,20.7-20.6c12.3,0,20.9,8.6,20.9,20.5s-8.7,20.2-20,20.2
			c-7.4,0-13.4-3.4-16.3-9.3v24.8h-5.2L-3.5,395.8L-3.5,395.8z M32.7,395.6c0-8.9-6.3-15.5-15.5-15.5c-9.3,0-15.5,6.6-15.5,15.5
			s6.2,15.5,15.5,15.5S32.7,404.5,32.7,395.6z"/>
		<path class="st62" d="M42.6,395.6c0-11.7,8.6-20.4,20.8-20.4s20.7,8.6,20.7,20.4v1.7H48c0.7,8.1,6.7,13.8,15.4,13.8
			c6.1,0,10.8-2.5,13.3-7h5.7c-3,7.1-10,11.8-19,11.8C51.2,416,42.6,407.4,42.6,395.6z M78.6,392.6c-1.3-7.8-7.4-12.5-15.2-12.5
			c-8.1,0-14.1,4.9-15.3,12.5H78.6z"/>
		<path class="st62" d="M90.2,391.8c0-11.1,6.7-16.5,16.3-16.5s16.2,5.4,16.2,16.6v0.5h-5.2v-0.5c0-8.1-4.5-11.7-11-11.7
			c-6.7,0-11,3.6-11,11.7v23.2h-5.2v-23.3H90.2z"/>
	</g>
	
		<linearGradient id="SVGID_29_" gradientUnits="userSpaceOnUse" x1="-201.9081" y1="456.6447" x2="204.1637" y2="691.0904" gradientTransform="matrix(1 0 0 -1 0 842)">
		<stop  offset="4.242399e-02" style="stop-color:#10141D"/>
		<stop  offset="0.2566" style="stop-color:#161B27"/>
		<stop  offset="0.6177" style="stop-color:#242E41"/>
		<stop  offset="0.9479" style="stop-color:#35435F"/>
	</linearGradient>
	<path class="st63" d="M-164.2,169.9c0-14.7,10.3-24.3,24.4-24.3c14.5,0,24.7,10.2,24.7,24.2c0,14.1-10.3,23.9-23.7,23.9
		c-8.7,0-15.8-4.1-19.2-11V212h-6.2V169.9z M-121.4,169.7c0-10.5-7.4-18.3-18.3-18.3c-11,0-18.3,7.8-18.3,18.3s7.3,18.3,18.3,18.3
		C-128.8,188-121.4,180.2-121.4,169.7z M-107.9,165.1c0-13.1,7.9-19.5,19.2-19.5c11.4,0,19.2,6.4,19.2,19.6v0.6h-6.1v-0.6
		c0-9.5-5.3-13.8-13-13.8c-7.9,0-13,4.3-13,13.8v27.4h-6.2v-27.5H-107.9z M-65.2,169.7c0-13.9,10.2-24.1,24.6-24.1
		s24.4,10.2,24.4,24.1v2h-42.7c0.8,9.5,8,16.3,18.2,16.3c7.2,0,12.8-3,15.7-8.2h6.8c-3.5,8.4-11.8,14-22.5,14
		C-55,193.7-65.2,183.6-65.2,169.7z M-22.7,166.2c-1.5-9.3-8.7-14.8-18-14.8c-9.5,0-16.7,5.8-18,14.8H-22.7z M-10.8,169.5
		c0-14.1,10.3-23.9,23.7-23.9c8.7,0,15.8,4.1,19.2,11v-29.8h6.2v42.6c0,14.7-10.3,24.3-24.4,24.3C-0.6,193.7-10.8,183.6-10.8,169.5z
		 M32.1,169.7c0-10.5-7.3-18.3-18.3-18.3c-10.9,0-18.3,7.8-18.3,18.3S2.9,188,13.8,188C24.8,188,32.1,180.2,32.1,169.7z M47.5,133.2
		c0-2.7,2-4.7,4.7-4.7s4.7,2,4.7,4.7s-2,4.7-4.7,4.7S47.5,135.9,47.5,133.2z M49.1,146.8h6.2v45.7h-6.2V146.8z M64.2,169.7
		c0-13.9,10.2-24.1,24.6-24.1c11.8,0,20.8,6.8,23.5,17H106c-2.5-6.8-8.9-11.3-17.2-11.3c-10.9,0-18.3,7.8-18.3,18.3
		s7.4,18.3,18.3,18.3c8.3,0,14.7-4.4,17.2-11.3h6.3c-2.7,10.2-11.7,17-23.5,17C74.4,193.7,64.2,183.6,64.2,169.7z M119.7,175.7
		v-45.1h6.2v16.2h26.9v5.6h-26.9v23.2c0,8.3,4.6,12.3,11.8,12.3c7,0,11.8-3.9,11.8-12.3v-1h6v1c0,12-7.2,18-17.8,18
		C127,193.7,119.7,187.7,119.7,175.7z M-164.2,268.3c0-14.7,10.3-24.3,24.4-24.3c14.5,0,24.7,10.2,24.7,24.2
		c0,14.1-10.3,23.9-23.7,23.9c-8.7,0-15.8-4.1-19.2-11v29.3h-6.2V268.3z M-121.4,268c0-10.5-7.4-18.3-18.3-18.3
		c-11,0-18.3,7.8-18.3,18.3s7.3,18.3,18.3,18.3C-128.8,286.4-121.4,278.6-121.4,268z M-107.9,263.5c0-13.1,7.9-19.5,19.2-19.5
		c11.4,0,19.2,6.4,19.2,19.6v0.6h-6.1v-0.6c0-9.5-5.3-13.8-13-13.8c-7.9,0-13,4.3-13,13.8V291h-6.2v-27.5H-107.9z M-65.2,268
		c0-13.9,10.2-24.1,24.6-24.1s24.4,10.2,24.4,24.1v2h-42.7c0.8,9.5,8,16.3,18.2,16.3c7.2,0,12.8-3,15.7-8.2h6.8
		c-3.5,8.4-11.8,14-22.5,14C-55,292.1-65.2,281.9-65.2,268z M-22.7,264.5c-1.5-9.3-8.7-14.8-18-14.8c-9.5,0-16.7,5.8-18,14.8H-22.7z
		 M-9,268.3C-9,253.6,1.3,244,15.5,244c14.5,0,24.7,10.2,24.7,24.2c0,14.1-10.3,23.9-23.7,23.9c-8.7,0-15.8-4.1-19.2-11v29.3H-9
		V268.3z M33.9,268c0-10.5-7.4-18.3-18.3-18.3c-11,0-18.3,7.8-18.3,18.3s7.3,18.3,18.3,18.3C26.5,286.4,33.9,278.6,33.9,268z
		 M45.5,268.3c0-14.2,10.2-24.3,24.6-24.3s24.5,9.9,24.5,24.3v22.6h-5.7v-11.3c-3.2,8.1-10.8,12.5-19.7,12.5
		C56.4,292.1,45.5,282.9,45.5,268.3z M88.5,268c0-10.5-7.4-18.3-18.3-18.3s-18.3,7.8-18.3,18.3s7.4,18.3,18.3,18.3
		S88.5,278.6,88.5,268z M103.7,263.5c0-13.1,7.9-19.5,19.2-19.5c11.4,0,19.2,6.4,19.2,19.6v0.6H136v-0.6c0-9.5-5.3-13.8-13-13.8
		c-7.9,0-13,4.3-13,13.8V291h-6.2v-27.5H103.7z M146.4,268c0-13.9,10.2-24.1,24.6-24.1c14.4,0,24.4,10.2,24.4,24.1v2h-42.7
		c0.8,9.5,8,16.3,18.2,16.3c7.2,0,12.8-3,15.7-8.2h6.8c-3.5,8.4-11.8,14-22.5,14C156.6,292.1,146.4,281.9,146.4,268z M188.9,264.5
		c-1.5-9.3-8.7-14.8-18-14.8c-9.5,0-16.7,5.8-18,14.8H188.9z M-164.2,366.7c0-14.7,10.3-24.3,24.4-24.3c14.5,0,24.7,10.2,24.7,24.2
		c0,14.1-10.3,23.9-23.7,23.9c-8.7,0-15.8-4.1-19.2-11v29.3h-6.2V366.7z M-121.4,366.4c0-10.5-7.4-18.3-18.3-18.3
		c-11,0-18.3,7.8-18.3,18.3s7.3,18.3,18.3,18.3C-128.8,384.7-121.4,377-121.4,366.4z M-107.9,361.9c0-13.1,7.9-19.5,19.2-19.5
		c11.4,0,19.2,6.4,19.2,19.6v0.6h-6.1V362c0-9.5-5.3-13.8-13-13.8c-7.9,0-13,4.3-13,13.8v27.4h-6.2v-27.5H-107.9z M-65.2,366.4
		c0-13.9,10.2-24.1,24.6-24.1S-16,352.5-16,366.4s-10.2,24.1-24.6,24.1S-65.2,380.3-65.2,366.4z M-22.3,366.4
		c0-10.5-7.4-18.3-18.3-18.3s-18.3,7.8-18.3,18.3s7.4,18.3,18.3,18.3S-22.3,377-22.3,366.4z M-10.4,376.4h6.3
		c0.3,4.9,4.7,8.4,12.4,8.4c8,0,12.4-3.7,12.4-8.6c0-5.6-5.8-6.2-12.4-7c-8.2-1-17.6-2.3-17.6-12.4c0-8.6,6.8-14.4,17.5-14.4
		s17.3,5.9,17.5,13.7h-6.1c-0.3-4.5-4.4-8-11.5-8c-7,0-11.2,3.5-11.2,8.2c0,5.6,5.9,6.3,12.4,7.1c7.1,0.9,17.7,2,17.7,12.4
		c0,8.7-7.3,14.7-18.7,14.7C-3,390.5-10.1,384.4-10.4,376.4z M34.5,366.7c0-14.7,10.3-24.3,24.4-24.3c14.5,0,24.7,10.2,24.7,24.2
		c0,14.1-10.3,23.9-23.7,23.9c-8.7,0-15.8-4.1-19.2-11v29.3h-6.2C34.5,408.8,34.5,366.7,34.5,366.7z M77.4,366.4
		c0-10.5-7.4-18.3-18.3-18.3c-11,0-18.3,7.8-18.3,18.3s7.3,18.3,18.3,18.3C70,384.7,77.4,377,77.4,366.4z M89,366.4
		c0-13.9,10.2-24.1,24.6-24.1s24.4,10.2,24.4,24.1v2H95.4c0.8,9.5,8,16.3,18.2,16.3c7.2,0,12.8-3,15.7-8.2h6.8
		c-3.5,8.4-11.8,14-22.5,14C99.2,390.5,89,380.3,89,366.4z M131.6,362.9c-1.5-9.3-8.7-14.8-18-14.8c-9.5,0-16.7,5.8-18,14.8H131.6z
		 M145.3,361.9c0-13.1,7.9-19.5,19.2-19.5c11.4,0,19.2,6.4,19.2,19.6v0.6h-6.1V362c0-9.5-5.3-13.8-13-13.8c-7.9,0-13,4.3-13,13.8
		v27.4h-6.2L145.3,361.9L145.3,361.9z"/>
	<line class="st64" x1="555.9" y1="749" x2="579.5" y2="749"/>
</g>
</svg>
