<?xml version="1.0" encoding="utf-8"?>
<!-- Generator: Adobe Illustrator 24.0.1, SVG Export Plug-In . SVG Version: 6.00 Build 0)  -->
<svg version="1.1"
	 id="svg2063" xmlns:inkscape="http://www.inkscape.org/namespaces/inkscape" xmlns:sodipodi="http://sodipodi.sourceforge.net/DTD/sodipodi-0.dtd" xmlns:svg="http://www.w3.org/2000/svg"
	 xmlns="http://www.w3.org/2000/svg" xmlns:xlink="http://www.w3.org/1999/xlink" x="0px" y="0px" viewBox="0 0 3641.5 518.6"
	 style="enable-background:new 0 0 3641.5 518.6;" xml:space="preserve">
<style type="text/css">
	.st0{fill:#FFFFFF;}
</style>
<sodipodi:namedview  bordercolor="#999999" borderopacity="1" fit-margin-bottom="0" fit-margin-left="0" fit-margin-right="0" fit-margin-top="0" id="namedview2065" inkscape:current-layer="layer1" inkscape:cx="2598.9106" inkscape:cy="235.1432" inkscape:document-units="mm" inkscape:pagecheckerboard="0" inkscape:pageopacity="0" inkscape:pageshadow="0" inkscape:window-height="1001" inkscape:window-maximized="1" inkscape:window-width="1920" inkscape:window-x="-9" inkscape:window-y="-9" inkscape:zoom="0.64854097" pagecolor="#ffffff" showgrid="false">
	</sodipodi:namedview>
<g id="layer1" transform="translate(582.75167,44.565855)" inkscape:groupmode="layer" inkscape:label="Layer 1">
	<path id="path23473" class="st0" d="M2806.7,469.7c-12.9-3.2-39.3-14.3-58.7-24.6l-35.3-18.8v-73.3v-73.3l26.4,24.6
		c44.3,41.2,124.1,61.8,168.2,43.3c19.7-8.2,22.6-11.9,21-26.3c-1.8-15.6-6.5-18.2-75.5-41.1c-41.3-13.7-84.9-32.6-99.3-43
		c-37.2-26.9-55.4-65.4-54.7-115.5c0.7-50.5,16.2-86.7,50-117.3c43-38.9,72.1-48.9,141.5-48.9c62.7,0,100.4,8.9,139.9,33l19.6,11.9
		v81.3V163l-28.6-29.5c-32.7-33.7-61.2-44.3-120.2-44.7c-41.5-0.3-63.9,12.5-60.7,34.6c1.9,13,23.2,23,97.1,45.6
		c53.8,16.4,85.3,37.9,105.2,71.8c14,23.8,16.2,34.2,16.1,75.7c-0.1,53.7-7.8,73.7-41.3,107.2c-34.1,34.1-71.4,48.2-133.2,50.1
		C2854.5,474.8,2819.6,472.9,2806.7,469.7L2806.7,469.7z M-582.6,456.5c1.5-4.1,28.5-102,60-217.4C-491,123.7-460.9,14.6-455.7-3.3
		l9.5-32.5l103.4,1.6l103.4,1.6l22.7,84.3c75.9,281.7,106.7,399,106.7,405.2c0,5-20.6,7.1-71,7.1h-71l-7.5-28.6
		c-4.1-15.7-10.2-38.7-13.5-51.2l-6-22.6h-68.8h-68.8l-5.9,22.6c-3.3,12.4-9.1,35.4-13,51.2l-7.1,28.6H-514
		C-568.4,464-584.6,462.3-582.6,456.5z M-314.8,227.5c0-9.8-23.2-118.5-27.9-130.6c-3.4-8.8-37.9,106.8-38.2,127.9
		c-0.1,8.8,5.4,10.5,33,10.5C-324.8,235.3-314.8,233-314.8,227.5L-314.8,227.5z M-44,214.2V-35.5h95.7h95.7l18.1,43.6
		c9.9,24,35,85.6,55.7,136.9c20.7,51.3,39.9,95.9,42.7,99c2.8,3.1,5-58.5,5-136.9V-35.5h63.2h63.2v249.8V464h-83.5h-83.5l-13.6-31.6
		c-29-67.4-122-266.6-127-272.1c-3.1-3.3-5.3,58.9-5.3,149V464H19.2H-44L-44,214.2z M491.7,214.2V-35.5H564h72.2v249.8V464H564
		h-72.2L491.7,214.2z M732.5,214.2V-35.5H840h107.5l28.8,146c15.8,80.3,30.6,149.5,32.9,153.9c2.2,4.3,14.3-43.1,26.8-105.3
		c12.5-62.3,26.7-131.5,31.6-153.9l8.9-40.6h104.8h104.8v249.8V464H1220h-66.2l-0.4-155c-0.2-93.1-2.5-150.2-5.6-142.9
		c-2.9,6.6-19.5,76.4-37,155L1079.1,464h-67.6c-59.1,0-68-1.3-70.8-10.5c-4.9-15.9-63.8-279.6-63.8-285.8c0-2.9-2.7-3.7-6-1.6
		c-3.7,2.3-6,59.2-6,150.8V464h-66.2h-66.2L732.5,214.2z M1352.4,460.2c0-2.3,22-84.3,48.8-182.3c26.9-97.9,57-208.5,67-245.8
		l18.2-67.7h103.9h103.9l13.2,49.7c22.4,84.2,115,428.2,118.2,439.4c2.8,9.6-3.2,10.5-69.3,10.5h-72.4l-9.1-30.6
		c-5-16.8-10.8-39.8-12.9-51.2l-3.9-20.6h-70.4h-70.4l-11.8,49.7l-11.8,49.7l-70.6,1.7C1384.2,463.7,1352.4,462.5,1352.4,460.2
		L1352.4,460.2z M1621.7,227.8c-1.6-4.1-9-36.8-16.5-72.6c-7.5-35.8-15.6-62.9-18-60.2c-3.6,4.1-36.1,127.4-36.1,137.1
		c0,1.8,16.5,3.2,36.8,3.2C1614.7,235.3,1623.8,233.3,1621.7,227.8L1621.7,227.8z M1954,453.5c-0.2-5.8-0.1-78.6,0.3-161.7
		c0.4-83.2-1.1-158.3-3.3-167c-4-15.7-4.3-15.8-63.5-15.8h-59.5V36.7v-72.2h195.6h195.6v72.2v72.2H2156h-63.2v177.6V464h-69.2
		C1961.8,464,1954.3,462.9,1954,453.5L1954,453.5z M2285.4,214.2V-35.5h168.5h168.5v66.2v66.2h-106c-94.2,0-105.6,1.1-102.3,9.5
		c2,5.2,3.7,17.4,3.7,27.1V151h102.3h102.3v63.2v63.2h-102.3c-112.5,0-103.7-3.1-103.7,36.1c0,6.6,0.3,14.7,0.7,18.1
		c0.4,3.8,39.2,6,103,6h102.3v63.2V464h-168.5h-168.5V214.2z"/>
</g>
</svg>
