<?xml version="1.0" encoding="utf-8"?>
<!-- Generator: Adobe Illustrator 24.0.1, SVG Export Plug-In . SVG Version: 6.00 Build 0)  -->
<svg version="1.1"
	 id="svg1" inkscape:version="1.3 (0e150ed6c4, 2023-07-21)" sodipodi:docname="I1.svg" xmlns:inkscape="http://www.inkscape.org/namespaces/inkscape" xmlns:sodipodi="http://sodipodi.sourceforge.net/DTD/sodipodi-0.dtd" xmlns:svg="http://www.w3.org/2000/svg"
	 xmlns="http://www.w3.org/2000/svg" xmlns:xlink="http://www.w3.org/1999/xlink" x="0px" y="0px" viewBox="0 0 8598.2 9970.8"
	 style="enable-background:new 0 0 8598.2 9970.8;" xml:space="preserve">
<style type="text/css">
	.st0{fill:#FFFFFF;}
</style>
<sodipodi:namedview  bordercolor="#eeeeee" borderopacity="1" id="namedview1" inkscape:current-layer="layer1" inkscape:cx="5927.2972" inkscape:cy="7064.7539" inkscape:deskcolor="#505050" inkscape:document-units="mm" inkscape:pagecheckerboard="0" inkscape:pageopacity="0" inkscape:showpageshadow="0" inkscape:window-height="1494" inkscape:window-maximized="1" inkscape:window-width="2560" inkscape:window-x="-11" inkscape:window-y="-11" inkscape:zoom="0.047913912" pagecolor="#505050">
	</sodipodi:namedview>
<g id="layer1" transform="translate(1458.3834,1715.2942)" inkscape:groupmode="layer" inkscape:label="Layer 1">
	<g id="g29098-0-9" transform="matrix(5.543516,0,0,5.543516,-1804.8735,-1333.0861)">
		<path id="path29022-3-1" class="st0" d="M1479.6,922.9V777.3l-214.3-52.4V532.4L883.8,380.5L491.4,539.2v185.7l-207,52.4v146.2
			H141.6v288.9l142.9,52.5l206.4,71l393,124l381-125.2l214.3-71l134.5-49.1V931.9L1479.6,922.9z M203.6,1129.3L159,1122v-47.6
			l44.6,0L203.6,1129.3z M203.6,1041.9H159v-55.4h44.6L203.6,1041.9z M270.7,1142.7l-46.4-7.1l0-60.2l46.4,5.6L270.7,1142.7z
			 M270.7,1041.9h-46.3v-55.4h46.4L270.7,1041.9z M476,1129.3l-154.1-25.6v-61l154.3,9.2L476,1129.3z M476,1002.3l-154.1-4v-60
			l154.3-6.3L476,1002.3z M476,881.5l-154.3,15.9l0-63.5L476,805.7L476,881.5z M634.7,1149.3l-87.1-12.7V993.7h87.1V1149.3z
			 M634.7,944l-87,0V795.7l87.2-18.4L634.7,944z M634.7,724.3l-87,21.3V594.8l87.1-25.4L634.7,724.3z M831.1,1182.6l-119.9-14.5
			V993.5h119.9V1182.6z M831.1,931.9l-119.9,0V768.6l119.9-23V931.9z M831.1,679.5l-119.9,25.4V537.8L831.1,498V679.5z M1218,1137.2
			l-283.4,38.3V993.7H1218V1137.2z M1218,944.6l-283.4-12.7V745.6l283.4,50.8V944.6z M1218,744.9l-283.4-65.4V497.9L1218,602.7
			V744.9z M1340.7,1121.8l-59.1,4.8V993.7h59.1V1121.8z M1340.7,944.6h-59.1V809.1l59.1,5.6V944.6z M1439.5,1108.1l-57.1,4.6V993.7
			l57.1-5.4V1108.1z M1439.5,949.4h-57.1l0-122.7l57.1,8.1L1439.5,949.4z M1492.3,988.5h95.2v52.7l-95.2,9.5V988.5z M1590.4,1126.6
			l-98.1,22.7v-64.6l98.1-13.7V1126.6z"/>
	</g>
	<g id="g31860-5-6" transform="matrix(0.68568625,0,0,0.68568625,-1918.4035,-80.83358)">
		<path id="path31794-0-4" class="st0" d="M2684.7,9774.9l-854.1,281.2c-10.4-17.4-20.8-31.2-34.7-45.1l708.3-232.6l-156.2-475.7
			l-809,270.8l121.5,371.5c-17.4-3.5-38.2-3.5-55.6,0l-347.2-1048.6c-7-20.8-27.8-34.7-48.6-34.7l-486.1-7
			c-27.8,0-52.1,24.3-52.1,52.1c0,27.8,24.3,52.1,52.1,52.1l447.9,7l333.3,1013.8c-93.8,55.6-138.9,170.1-104.2,277.8
			c41.7,125,177.1,191,298.6,152.8c107.6-34.7,173.6-138.9,163.2-250l857.6-284.7c27.8-10.4,41.7-38.2,34.7-66
			C2743.7,9781.9,2712.5,9768,2684.7,9774.9L2684.7,9774.9z M1653.5,10250.6c-38.2,13.9-83.3-7-97.2-48.6
			c-13.9-41.7,7-83.3,48.6-97.2c38.2-13.9,83.3,7,97.2,48.6C1712.5,10195.1,1691.7,10240.2,1653.5,10250.6L1653.5,10250.6z
			 M2334,9254.2l-812.5,267.4l-156.2-475.7l812.5-267.4L2334,9254.2z"/>
	</g>
	<path id="path54460-3-0" class="st0" d="M4329,6176.7h2625.9c90.8,0,164.1,73.3,164.1,164.1v930h-415.8v-426.7
		c0-30.6-24.1-54.7-54.7-54.7h-186v-426.7c0-30.6-24.1-54.7-54.7-54.7h-481.4c-30.6,0-54.7,24.1-54.7,54.7v426.7h-186
		c-30.6,0-54.7,24.1-54.7,54.7v426.7h-272.4v-426.7c0-30.6-24.1-54.7-54.7-54.7h-186v-426.7c0-30.6-24.1-54.7-54.7-54.7h-481.4
		c-30.6,0-54.7,24.1-54.7,54.7v426.7h-186c-30.6,0-54.7,24.1-54.7,54.7v426.7h-120.3l-0.2-492.4v-437.7
		C4164.8,6250,4238.2,6176.7,4329,6176.7L4329,6176.7z"/>
	<path id="path54462-9-9" class="st0" d="M4821.3,7380.2H7119v382.9c0,90.8-73.3,164.1-164.1,164.1h-169.6
		c-27.4-184.9-184.9-328.2-377.5-328.2c-192.6,0-350.1,143.3-377.5,328.2H4164.8v-547.1L4821.3,7380.2z"/>
	<path id="path54464-3-2" class="st0" d="M6134.3,7982c0,151,122.5,273.5,273.5,273.5c151,0,273.5-122.5,273.5-273.5
		c0-151.1-122.5-273.5-273.5-273.5C6256.7,7708.5,6134.3,7831,6134.3,7982"/>
	<path id="path54466-7-0" class="st0" d="M6112.4,7270.8h-372v-372h372V7270.8z"/>
	<path id="path54468-9-7" class="st0" d="M6353.1,6789.4h-372v-373.1h372V6789.4z"/>
	<path id="path54470-0-1" class="st0" d="M4766.6,7270.8h-372v-372h372V7270.8z"/>
	<path id="path54472-7-5" class="st0" d="M5007.3,6789.4h-372v-373.1h372V6789.4z"/>
	<path id="path54474-2-8" class="st0" d="M3289.6,7982c0,151,122.5,273.5,273.5,273.5c151.1,0,273.5-122.5,273.5-273.5
		c0-151.1-122.5-273.5-273.5-273.5C3412,7708.5,3289.6,7831,3289.6,7982"/>
	<path id="path54476-0-3" class="st0" d="M5248,6898.8v372h-372v-372H5248z"/>
	<path id="path54478-2-7" class="st0" d="M3563,6833.2h492.4v1094.2h-114.9c-27.4-184.9-184.9-328.2-377.5-328.2
		c-192.6,0-350.1,143.3-377.5,328.2h-333.7v-578.8l515.3-515.3L3563,6833.2z"/>
	<path id="path54480-2-1" class="st0" d="M6593.8,6898.8v372h-372v-372H6593.8z"/>
	<g id="g54900-91-8" transform="matrix(1.0001914,0,0,1.0001914,4287.1511,-2304.5288)">
		<path id="path54824-05-9" class="st0" d="M-4829,3526.7c7.2-345.1,127.6-574.5,240.3-574.5s233.1,229.4,240.3,574.5H-4829z
			 M-4819,3592.1l230.4,476.1l230.4-476.1H-4819z M-4649.3,4318.1l40.3-32.2l0,0c11.9-9.6,28.9-9.6,40.9,0l40.3,32.2V4176h-121.4
			L-4649.3,4318.1z M-3982.3,3526.7c-7.2-129-55.2-252.4-137.1-352.3c-82-99.9-193.6-171.1-318.7-203.3
			c89.5,109,150.2,313.6,155.2,555.6L-3982.3,3526.7z M-4462.5,4386.2c0,12.6-7.2,24-18.5,29.5c-11.3,5.4-24.8,3.9-34.6-3.9
			l-73-58.4l-73,58.4l0,0c-9.8,7.9-23.3,9.4-34.6,3.9c-11.3-5.5-18.5-16.9-18.5-29.5V4176h-205.5v663.3h663.3V4176h-205.5
			L-4462.5,4386.2z M-4485.3,4004.9l452.7-412.7h-253L-4485.3,4004.9z M-4739.1,2971.2L-4739.1,2971.2
			c-125.1,32.2-236.8,103.4-318.7,203.3c-82,99.9-130,223.3-137.2,352.3h300.6C-4889.3,3284.8-4828.7,3080.1-4739.1,2971.2
			L-4739.1,2971.2z M-4891.6,3592.1h-253l452.7,412.7L-4891.6,3592.1z"/>
	</g>
	<g id="g54900-9-8-9" transform="matrix(1.0001914,0,0,1.0001914,6605.4364,-2658.0838)">
		<path id="path54824-0-7-1" class="st0" d="M-576.5,2878.2c7.2-345.1,127.6-574.5,240.3-574.5s233.1,229.4,240.3,574.5H-576.5z
			 M-566.6,2943.6l230.4,476.1l230.4-476.1H-566.6z M-396.9,3669.6l40.3-32.2l0,0c11.9-9.6,28.9-9.6,40.9,0l40.3,32.2v-142.2h-121.4
			L-396.9,3669.6z M270.2,2878.2c-7.2-129-55.2-252.4-137.1-352.3c-82-99.9-193.6-171.1-318.7-203.3
			c89.5,109,150.2,313.6,155.2,555.6L270.2,2878.2z M-210.1,3737.7c0,12.6-7.2,24-18.5,29.5c-11.3,5.4-24.8,3.9-34.6-3.9l-73-58.4
			l-73,58.4l0,0c-9.8,7.9-23.3,9.4-34.6,3.9c-11.3-5.5-18.5-16.9-18.5-29.5v-210.2h-205.5v663.3H-4.5v-663.3H-210L-210.1,3737.7z
			 M-232.9,3356.3l452.7-412.7h-253L-232.9,3356.3z M-486.7,2322.6L-486.7,2322.6c-125.1,32.2-236.8,103.4-318.7,203.3
			c-82,99.9-130,223.3-137.2,352.3h300.6C-636.9,2636.3-576.2,2431.6-486.7,2322.6L-486.7,2322.6z M-639.2,2943.6h-253l452.7,412.7
			L-639.2,2943.6z"/>
	</g>
	<g id="g54900-9-8-9-7" transform="matrix(1.0001914,0,0,1.0001914,5473.2549,-3138.3207)">
		<path id="path54824-0-7-1-7" class="st0" d="M-2653.3,1997.3c7.2-345.1,127.6-574.5,240.3-574.5c112.7,0,233.1,229.4,240.3,574.5
			H-2653.3z M-2643.3,2062.7l230.4,476.1l230.4-476.1H-2643.3z M-2473.7,2788.7l40.3-32.2l0,0c11.9-9.6,28.9-9.6,40.9,0l40.3,32.2
			v-142.2h-121.4L-2473.7,2788.7z M-1806.6,1997.3c-7.2-129-55.2-252.4-137.1-352.3c-82-99.9-193.6-171.1-318.7-203.3
			c89.5,109,150.2,313.6,155.2,555.6L-1806.6,1997.3z M-2286.8,2856.8c0,12.6-7.2,24-18.5,29.5c-11.3,5.4-24.8,3.9-34.6-3.9
			l-73-58.4l-73,58.4l0,0c-9.8,7.9-23.3,9.4-34.6,3.9c-11.3-5.5-18.5-16.9-18.5-29.5v-210.2h-205.5v663.3h663.3v-663.3h-205.5
			L-2286.8,2856.8z M-2309.6,2475.4l452.7-412.7h-253L-2309.6,2475.4z M-2563.5,1441.7L-2563.5,1441.7
			c-125.1,32.2-236.8,103.4-318.7,203.3c-82,99.9-130,223.3-137.2,352.3h300.6C-2713.6,1755.4-2653,1550.7-2563.5,1441.7
			L-2563.5,1441.7z M-2716,2062.7h-253l452.7,412.7L-2716,2062.7z"/>
	</g>
	<g id="g55787-3-9" transform="matrix(0.7417776,0,0,0.7417776,17.13636,1240.5894)">
		<path id="path55711-1-5" class="st0" d="M953.3,7154.1H647.8l79.6-88.4H1003L953.3,7154.1z M1625.7,7154.1l-79.6-88.4h-275.6
			l49.7,88.4H1625.7z M1178.2,7065.7h-82.8l-49.7,88.4h182.2L1178.2,7065.7z M1614.1,8365.5l107.9-56.1c11.6-6,25.5-6,37.1,0
			l107.9,56.1v-167.9h-252.9L1614.1,8365.5z M2253.9,8117.1l-86-95.6H1877l53.8,95.6H2253.9z M1784.7,8021.5h-28.3v95.6h82.1
			L1784.7,8021.5z M1136.8,7334.3L1136.8,7334.3c6.4,0,12.8,1.6,18.5,4.6l101.1,52.6v-156.9h-239.4v156.8l101.1-52.6v0
			C1123.9,7335.9,1130.3,7334.4,1136.8,7334.3L1136.8,7334.3z M1675.8,7234.6h-338.9v223.1c0,14.1-7.3,27.1-19.4,34.4
			c-12,7.3-27,7.8-39.4,1.3l-141.4-73.5l-141.4,73.5c-12.5,6.5-27.4,6-39.4-1.3c-12-7.3-19.4-20.3-19.4-34.4v-223.1H597.7v875.3
			h1078.1L1675.8,7234.6z M740,8431.8c0,14.1-7.4,27.1-19.4,34.4c-12,7.3-27,7.8-39.4,1.3l-148.1-77l-148.1,77h0
			c-12.5,6.5-27.4,6-39.4-1.3c-12-7.3-19.4-20.3-19.4-34.4v-234.2H-30.5v915.7h1127v-915.7H740L740,8431.8z M1947.5,8197.6v234.2
			c0,14.1-7.3,27.1-19.4,34.4c-12,7.3-27,7.8-39.5,1.3l-148.1-77l-148.1,77c-12.5,6.5-27.4,6-39.4-1.3c-12-7.3-19.4-20.3-19.4-34.4
			v-234.2H1177v915.7h1127v-915.7L1947.5,8197.6z M396.5,8021.5H105.6l-86,95.6h323.2L396.5,8021.5z M517.2,8021.5h-28.3l-53.8,95.6
			h82.1L517.2,8021.5z M533,8304.9c6.5,0,12.8,1.5,18.6,4.5l107.9,56.1v-167.9H406.5v167.9l107.9-56.1
			C520.1,8306.5,526.5,8304.9,533,8304.9L533,8304.9z"/>
	</g>
</g>
</svg>
