<?xml version="1.0" encoding="utf-8"?>
<!-- Generator: Adobe Illustrator 24.0.1, SVG Export Plug-In . SVG Version: 6.00 Build 0)  -->
<svg version="1.1"
	 id="svg1" inkscape:version="1.3 (0e150ed6c4, 2023-07-21)" sodipodi:docname="I2.svg" xmlns:inkscape="http://www.inkscape.org/namespaces/inkscape" xmlns:sodipodi="http://sodipodi.sourceforge.net/DTD/sodipodi-0.dtd" xmlns:svg="http://www.w3.org/2000/svg"
	 xmlns="http://www.w3.org/2000/svg" xmlns:xlink="http://www.w3.org/1999/xlink" x="0px" y="0px" viewBox="0 0 6653.2 5734.5"
	 style="enable-background:new 0 0 6653.2 5734.5;" xml:space="preserve">
<style type="text/css">
	.st0{fill:#FFFFFF;}
</style>
<sodipodi:namedview  bordercolor="#eeeeee" borderopacity="1" id="namedview1" inkscape:current-layer="layer1" inkscape:cx="4435.0376" inkscape:cy="3960.2277" inkscape:deskcolor="#505050" inkscape:document-units="mm" inkscape:pagecheckerboard="0" inkscape:pageopacity="0" inkscape:showpageshadow="0" inkscape:window-height="1494" inkscape:window-maximized="1" inkscape:window-width="2560" inkscape:window-x="-11" inkscape:window-y="-11" inkscape:zoom="0.095827824" pagecolor="#505050">
	</sodipodi:namedview>
<g id="layer1" transform="translate(1068.1232,899.05433)" inkscape:groupmode="layer" inkscape:label="Layer 1">
	<path id="path14139-6-8-7-6" class="st0" d="M-459.6,1140.4l2.6-1.7c5.3-1.8,54.8-17.3,140.5-17.3c50.6,0,116.3,5.7,194,24.4
		c-25.7-65.4-35.9-133.6-31.9-200.3l-3.7-3.8c-109.5-23.3-244.6,5.2-404.2,159C-802,1332-917,1285.1-975.1,1216.1
		c-58.1-69-35.4,209.1,267.7,215.3c6.6,0.1,13.3-0.1,19.9-0.4l140.2-220.3C-526.2,1177.5-495.3,1153.3-459.6,1140.4L-459.6,1140.4z"
		/>
	<path id="path14141-4-1-1-5" class="st0" d="M-778.2,3577.7l-51.6,1027.4c-5.5,109.6,78.8,202.8,188.4,208.3
		c3.4,0.2,6.8,0.3,10.1,0.3c105.1,0,192.9-82.5,198.2-188.7l53.1-1058.8c1-20.8-1.2-41.7-6.6-61.8l-25.4-93.9l-402.1,34.9
		L-778.2,3577.7z"/>
	<path id="path14143-9-5-8-7" class="st0" d="M505,4576.9l-105.9-999.7c-2.6-24.6-9.8-48.5-21.1-70.4L296.2,3349l-428.1,37.2
		L8,3656.2l102,962.5c10.8,102,97,177.7,197.3,177.7c7,0,14.1-0.4,21.2-1.1C437.5,4783.8,516.5,4686,505,4576.9L505,4576.9z"/>
	<path id="path14145-8-4-8-9" class="st0" d="M514.3,3261.9L86.8,2568.6l-59.6-96.7l-39.2-63.6c7-52.2,19.5-107.1,46.8-169.1
		c60.7-137.9,236.8-339.5,368.6-479.3l64.8-1.8l273.7-7.5c1.3,0,2.6-0.2,3.9-0.3c2.3-0.1,4.7-0.3,7-0.6c2-0.2,3.9-0.5,5.8-0.8
		c2.2-0.4,4.3-0.7,6.5-1.2c2-0.4,4-0.9,5.9-1.4c2.1-0.5,4.1-1.1,6.1-1.8c2-0.6,3.9-1.3,5.8-2c2-0.7,4-1.5,5.9-2.3
		c1.9-0.8,3.7-1.6,5.5-2.5c1.9-0.9,3.8-1.9,5.7-2.9c1.8-1,3.5-2,5.3-3c1.8-1.1,3.6-2.2,5.3-3.4c1.8-1.2,3.5-2.4,5.2-3.7
		c1.6-1.2,3.1-2.4,4.7-3.7c1.8-1.5,3.5-3,5.2-4.5c0.7-0.7,1.5-1.2,2.2-2c0.7-0.7,1.2-1.4,1.9-2c1.7-1.7,3.3-3.4,4.8-5.1
		c1.4-1.5,2.7-3,3.9-4.6c1.3-1.6,2.6-3.3,3.8-5c1.3-1.8,2.6-3.5,3.8-5.3c1.1-1.7,2.1-3.3,3.1-5c1.1-1.9,2.3-3.8,3.3-5.8
		c0.9-1.8,1.8-3.6,2.6-5.4c0.9-2,1.8-3.9,2.6-5.9c0.8-2,1.5-3.9,2.2-5.9c0.7-1.9,1.4-3.8,2-5.8c0.6-2.1,1.2-4.2,1.7-6.3
		c0.5-2,0.9-3.9,1.3-5.8c0.4-2.1,0.7-4.3,1-6.4c0.3-2.1,0.6-4.2,0.8-6.3c0.2-2,0.3-4.1,0.4-6.1c0.1-2.3,0.2-4.6,0.2-6.9
		c0-0.9,0.1-1.9,0.1-2.9c0-1-0.2-2-0.2-3c-0.1-2.2-0.3-4.5-0.5-6.7c-0.2-2.1-0.5-4.1-0.7-6.1c-0.3-2.1-0.7-4.1-1.1-6.2
		c-0.4-2.1-0.9-4.2-1.4-6.3c-0.5-1.9-1-3.8-1.6-5.7c-0.6-2.1-1.3-4.3-2.1-6.3c-0.7-1.8-1.4-3.6-2.1-5.4c-0.8-2.1-1.8-4.1-2.7-6.1
		c-0.8-1.7-1.7-3.5-2.6-5.2c-1.1-2-2.2-4-3.4-5.9c-1-1.6-2-3.2-3-4.8c-1.3-2-2.7-3.9-4.1-5.8c-1.1-1.4-2.2-2.9-3.3-4.3
		c-1.6-2-3.3-3.9-5-5.7c-0.7-0.8-1.4-1.7-2.2-2.4l-137.8-143.3l-827.7-860.3c-49.5-51.4-131.1-53-182.5-3.5
		c-51.4,49.4-53,131.1-3.6,182.5l804.3,836.1l-37.1,27.4l-120.6-125.4c-171.3,3-337.6-87.5-424-246c-192.4-54.4-317.6-25.1-341-18.6
		c-0.2,0.2-0.5,0.5-0.7,0.7c-27.7,8.9-52.6,27.1-69.5,53.6l-400.2,628.7c-28.8,45.3-26.6,103.6,5.5,146.6l553.3,740.2
		c25.3,33.9,64.2,51.8,103.5,51.8c26.9,0,54-8.4,77.2-25.7c57.1-42.7,68.8-123.6,26.1-180.7l-499.9-668.8l228.7-359.3l40.6,21.3
		l-213.8,335.9l481,643.5c28,37.4,39.7,83.4,33,129.7c-6.7,46.2-30.9,87.1-68.3,115c-30.5,22.8-66.6,34.8-104.5,34.8
		c-54.9,0-107.3-26.2-140.1-70.2l-479-640.9c-33.5,28.7-66.5,61.6-98,105c-18.2,18.9-39.7,50.1-65.7,97.8
		c-26.4,48.4-37.9,91.7-38.6,130.5h-0.1l0.1,0.3c-0.3,21.2,2.8,40.9,8.5,59.5c1.1,8.4,2.6,16.7,4.9,25.1l26.8,99l1.9,8.7l67.4,307.8
		l89,406.6L514.3,3261.9z"/>
	<path id="path14147-3-8-8-6" class="st0" d="M701.2,785.8c-103.4-212-359-300-571-196.7c-32.2,15.7-61.1,35.2-87.3,57.3
		l590.3,613.7C747.2,1134.6,780.1,947.6,701.2,785.8L701.2,785.8z"/>
	<path id="path14149-6-1-9-7" class="st0" d="M280.8,1398.1l-390-405.5c2.6,56.5,16.3,113.5,42.7,167.6
		C1.7,1300,136.3,1385.5,280.8,1398.1L280.8,1398.1z"/>
	<path id="path14163-6-6-2-4" class="st0" d="M793.2,407.4c222.2-110.7,410.1-67.6,342-196C1062.9,74.8,810.8,230,793.2,407.4z"/>
	<path id="path14165-2-3-7-1" class="st0" d="M629.7,451.4c57.5-188,184.8-272.5,73.9-303.4C585.7,115.1,537.4,344.6,629.7,451.4z"
		/>
	<path id="path14167-6-6-8-1" class="st0" d="M1056.3,560.7c-31.8-102.2-223.2-28.9-258,89.6C963.8,603.4,1086.2,656.9,1056.3,560.7
		z"/>
	<g id="g16017-0-6-1" transform="matrix(2.5625666,0,0,2.5625666,74.771647,-434.00169)">
		<path id="path15937-8-3-1" class="st0" d="M2052.3,1244.1c-5.4,0-10.7-0.6-15.9-1.9c-17.3-4.2-31.9-15-41.1-30.2
			c-9.2-15.2-12-33.1-7.7-50.4c23-93.6,34.6-176.9,34.6-247.5c-0.1-64.4-9.7-118.1-28.4-160.4l14.8-5.5
			c17.3,39.4,29.1,92.6,29.3,165.8c0,66.8-10.1,149.6-35.1,251.3c-6.7,27.3,10,54.9,37.4,61.7c4.1,1,8.2,1.5,12.2,1.5
			c22.9,0,43.8-15.6,49.5-38.9c26.5-107.8,38-198.6,38-275.6c0.1-81.2-13.1-147.7-35.6-201.3c-14.5-34.5-32.7-63.7-53.8-87.9v0
			c-0.1-0.1-0.2-0.2-0.3-0.3c-20.9-24-44-42.6-67.6-57.1c-26.6,69.2-93.7,118.5-172.1,118.5s-145.5-49.3-172.1-118.5
			c-23.7,14.5-47,33.2-67.9,57.4c-0.1,0.1-0.2,0.3-0.3,0.4c-20.9,24.1-39.1,53.2-53.5,87.5c-22.5,53.6-35.7,120.1-35.6,201.3
			c0,77,11.5,167.7,38,275.6c5.7,23.3,26.6,38.9,49.5,38.9c4,0,8.1-0.5,12.2-1.5c27.3-6.7,44.1-34.3,37.4-61.7
			c-25-101.6-35.1-184.5-35.1-251.3c0.2-73.3,11.9-126.5,29.3-165.8l14.8,5.5c-18.7,42.3-28.3,96-28.4,160.4
			c0,70.6,11.6,153.8,34.6,247.5c4.2,17.3,1.5,35.2-7.7,50.4c-9.2,15.2-23.8,26-41.1,30.2c-5.2,1.3-10.5,1.9-15.9,1.9
			c-26.5,0-50-15.6-60.6-39.1l-37.4,193.4h170v443.5c0,43.3,35.1,78.5,78.5,78.5c43.3,0,78.5-35.1,78.5-78.5v-443.5h26.1v443.5
			c0,43.3,35.1,78.5,78.5,78.5c43.3,0,78.5-35.1,78.5-78.5v-443.5h170l-37.4-193.4C2102.3,1228.5,2078.9,1244.1,2052.3,1244.1
			L2052.3,1244.1z"/>
		<path id="path15939-7-7-0" class="st0" d="M1979,501.6c0,93.1-75.5,168.7-168.7,168.7c-93.1,0-168.7-75.5-168.7-168.7
			c0-93.2,75.5-168.7,168.7-168.7C1903.5,333,1979,408.5,1979,501.6"/>
	</g>
	<g id="g17815-1-5-0" transform="matrix(3.929777,0,0,3.929777,-953.93582,-966.68248)">
		<path id="path17713-0-8-6" class="st0" d="M1074,54.8l19.8,142.7c0.3,2.7-2.1,4.9-4.8,4.1l-35.6-9.8c-2.4-0.6-4.6,1-4.8,3.3
			l-7.1,108.9l-32.7-162.4c-0.6-2.9,2.1-5.2,4.8-4.4l37.1,11c2.2,0.6,4.6-0.8,4.8-3.2l11-90C1067,50.5,1073.4,50.5,1074,54.8
			L1074,54.8z"/>
		<path id="path17715-0-7-1" class="st0" d="M1270.5,121.9L1222,248.1c-1,2.4-4,3-5.9,1.3l-24.8-24.3c-1.6-1.6-4.3-1.3-5.6,0.6
			l-55.2,86.2l46.8-148.4c0.8-2.5,4-3.3,5.9-1.4l25.6,25.9c1.6,1.6,4.1,1.4,5.4-0.5l49.9-69C1266.7,115.1,1272,118,1270.5,121.9
			L1270.5,121.9z"/>
		<path id="path17717-9-5-9" class="st0" d="M858.6,107.6l87,100.6c1.6,1.9,0.8,4.9-1.6,5.6L911.5,224c-2.1,0.6-3,3.2-2.1,5.1
			l49.1,87.9l-107-109.5c-1.9-1.9-1-5.1,1.6-5.9l34.3-10.2c2.1-0.6,3.2-3,2.2-4.9l-36.7-75.2C851,107.8,855.9,104.6,858.6,107.6
			L858.6,107.6z"/>
		<path id="path17719-6-0-2" class="st0" d="M1168.6,504.3c0,68.1-55.2,123.3-123.3,123.3s-123.3-55.2-123.3-123.3
			S977.2,381,1045.3,381C1113.4,381,1168.6,436.2,1168.6,504.3"/>
		<path id="path17721-2-8-8" class="st0" d="M1439.4,476.9l-152.7-149.5c-9.2-8.9-20.8-13.3-31.7-13.3c-24.4,0-44.4,19.8-44.4,44.3
			c0,10.6,3.8,20.2,10,27.8c0.2,0.3,64.4,70.2,109.5,119.5l-154.8,74.9c-25.7,45.2-74.3,75.7-130,75.7c-56.2,0-105.1-31-130.6-76.8
			l-152.4-73.8c45.2-49.2,109.4-119.2,109.5-119.5c6.2-7.6,10-17.1,10-27.8c0-24.4-20-44.3-44.4-44.3c-11-0.2-22.5,4.3-31.7,13.3
			L652.9,476.9c-34.9,36.5-15.9,70.3,4.6,83.3l229.1,148.6V1413c0,34.9,28.6,63.5,63.5,63.5s63.5-28.6,63.5-63.5v-381.3h63.5
			l0,381.3c0,34.9,28.6,63.5,63.5,63.5s63.5-28.6,63.5-63.5l0-703.1l230.6-149.7C1455.3,547.3,1471,506.9,1439.4,476.9L1439.4,476.9
			z"/>
	</g>
	<path id="path18737-5-1-2" class="st0" d="M2251.8,2647c-57.9-4.4-110.5-31.1-148.4-75.2c-37.8-44.1-56.1-100.2-51.7-158
		c15.2-198.2,22.9-382.9,22.9-549c0.3-254.4-18.1-443-42.3-581l45.7-11.6c25.7,145,43.8,338.3,43.5,592.6
		c0,159.3-6.9,342.4-23.1,552.5c-7.2,93.8,63.1,175.7,156.9,182.9c4.4,0.4,8.9,0.5,13.3,0.5c88.2,0,162.8-68,169.7-157.4
		c16.7-217.7,24.1-409.4,24.1-578.6c-0.1-283.3-20.5-503.1-53.2-676.6c-17.1-90.8-37.6-169.1-60.3-236.7
		c-65.9-195.7-155.4-306.2-238.2-363.9c-15.8-11.1-31.1-19.8-45.4-27c-1.6-1.1-3.2-2.1-4.9-3.1C1991,767.3,1793.4,919,1560.7,919
		c-232.6,0-430.3-151.7-499.6-361.3c-1.6,1-3.2,2-4.8,3c-14.4,7.2-29.7,15.9-45.6,27C928,645.3,838.6,755.8,772.6,951.6
		c-22.8,67.5-43.2,145.9-60.3,236.7c-32.7,173.5-53.1,393.3-53.2,676.6c0,169.1,7.3,360.9,24.1,578.6
		c6.9,89.4,81.5,157.4,169.7,157.4c4.4,0,8.8-0.2,13.3-0.5c93.8-7.2,164.1-89.1,156.9-182.9c-16.1-210.1-23.1-393.2-23.1-552.5
		c-0.3-254.3,17.8-447.6,43.5-592.6l45.7,11.6c-24.2,138-42.6,326.6-42.3,581c0,166.1,7.7,350.8,22.9,549
		c4.5,57.8-13.9,113.9-51.7,158c-37.8,44.1-90.5,70.8-148.4,75.2c-5.6,0.4-11.3,0.6-16.9,0.6c-27.1,0-53.1-5.2-77.2-14.5
		c-76.8,350.1-144.7,798.7-162,1333.4c-4.7,144.1,108.3,264.6,252.4,269.3c2.9,0.1,5.8,0.1,8.6,0.1c140.2,0,256.1-111.4,260.6-252.5
		c20.6-638.3,118.3-1142.2,209.7-1483.8c17.8-66.8,35.4-127.1,52.1-181.2h327.4c102.3,331.2,237.3,902.2,261.8,1665
		c4.5,141.2,120.4,252.6,260.7,252.6c2.9,0,5.7,0,8.6-0.1c144-4.7,257.1-125.2,252.4-269.3c-17.3-534.6-85.2-983.3-162-1333.4
		c-24.1,9.3-50.1,14.5-77.2,14.5C2263,2647.7,2257.4,2647.5,2251.8,2647L2251.8,2647z M1560.7,2080.4l-202.4-255.6l116.6-859
		c27.7,10.4,56.7,15.8,85.8,15.8l0,0h0.1c29,0,58.1-5.4,85.6-15.8l116.6,859.1L1560.7,2080.4z"/>
	<path id="path18739-5-3-3" sodipodi:nodetypes="sssss" class="st0" d="M1560.7,872.2c264.8,0,479.3-214.6,479.3-479.3
		c0-264.7-214.6-479.3-479.3-479.3c-264.7,0-479.3,214.6-479.3,479.3C1081.4,657.6,1296,872.2,1560.7,872.2L1560.7,872.2z"/>
	<path id="path18741-0-0-2" class="st0" d="M1394.2-848.3c20.6-19.8,0.8-65.8-20.1-45.8c-52,49.9-91.2,121.1-99.8,206.7
		c-9.2,92.3,59,151.5,66.7,238.2c5.2,58.3-22.1,122.2-53.3,161.1c-18.8,23.3,9.4,60.7,28.1,37.4c52.3-65,75.1-159.2,57.9-251.5
		c-17.2-91.9-82.7-136.2-47.3-240.9C1340.2-783.9,1367-822.2,1394.2-848.3L1394.2-848.3z"/>
	<path id="path18743-7-1-1" class="st0" d="M1627-848.3c20.6-19.8,0.8-65.8-20.1-45.8c-52,49.9-91.2,121.1-99.8,206.7
		c-9.1,92.3,59,151.5,66.7,238.2c5.2,58.3-22.1,122.2-53.3,161.1c-18.8,23.3,9.3,60.7,28.1,37.4c52.3-65,75.1-159.2,57.9-251.5
		c-17.2-91.9-82.7-136.2-47.3-240.9C1573.1-783.9,1599.9-822.2,1627-848.3L1627-848.3z"/>
	<path id="path18745-2-5-7" class="st0" d="M1860-848.3c20.6-19.8,0.8-65.8-20-45.8c-52,49.9-91.2,121.1-99.8,206.7
		c-9.2,92.3,59,151.5,66.7,238.2c5.2,58.3-22.1,122.2-53.3,161.1c-18.8,23.3,9.4,60.7,28.1,37.4c52.3-65,75.1-159.2,57.9-251.5
		c-17.2-91.9-82.7-136.2-47.3-240.9C1806-783.9,1832.8-822.2,1860-848.3L1860-848.3z"/>
</g>
</svg>
