<?xml version="1.0" encoding="utf-8"?>
<!-- Generator: Adobe Illustrator 24.0.1, SVG Export Plug-In . SVG Version: 6.00 Build 0)  -->
<svg version="1.1"
	 id="svg1" inkscape:version="1.3 (0e150ed6c4, 2023-07-21)" sodipodi:docname="I3.svg" xmlns:inkscape="http://www.inkscape.org/namespaces/inkscape" xmlns:sodipodi="http://sodipodi.sourceforge.net/DTD/sodipodi-0.dtd" xmlns:svg="http://www.w3.org/2000/svg"
	 xmlns="http://www.w3.org/2000/svg" xmlns:xlink="http://www.w3.org/1999/xlink" x="0px" y="0px" viewBox="0 0 6442 4665.9"
	 style="enable-background:new 0 0 6442 4665.9;" xml:space="preserve">
<style type="text/css">
	.st0{fill:#FFFFFF;}
</style>
<sodipodi:namedview  bordercolor="#eeeeee" borderopacity="1" id="namedview1" inkscape:current-layer="layer1" inkscape:cx="4487.2145" inkscape:cy="3469.7647" inkscape:deskcolor="#505050" inkscape:document-units="mm" inkscape:pagecheckerboard="0" inkscape:pageopacity="0" inkscape:showpageshadow="0" inkscape:window-height="1494" inkscape:window-maximized="1" inkscape:window-width="2560" inkscape:window-x="-11" inkscape:window-y="-11" inkscape:zoom="0.095827824" pagecolor="#505050">
	</sodipodi:namedview>
<g id="layer1" transform="translate(1081.3523,770.73125)" inkscape:groupmode="layer" inkscape:label="Layer 1">
	<path id="path30520-3" class="st0" d="M2811.8,3364.1v511.7h464.9v-511.7l-232.4,170.5L2811.8,3364.1z"/>
	<path id="path30522-1" class="st0" d="M1247.9,3364.1v511.7h464.9v-511.7l-232.5,170.5L1247.9,3364.1z"/>
	<path id="path30524-2" class="st0" d="M3792.2,3875.8V2380.1H2296.5v1495.7h447.1v-646.4l300.7,220.6l300.7-220.6v646.4
		L3792.2,3875.8z"/>
	<path id="path30526-3" class="st0" d="M2029.8,1800.1v511.7h464.9v-511.7l-232.5,170.5L2029.8,1800.1z"/>
	<path id="path30528-4" class="st0" d="M2228.2,3875.8V2380.1H732.5v1495.7h447.2v-646.4l300.7,220.6l300.7-220.6v646.4
		L2228.2,3875.8z"/>
	<path id="path30530-6" class="st0" d="M1961.6,1665.4l300.7,220.6l300.7-220.6v646.3h447.2V816H1514.4v1495.7h447.2V1665.4z"/>
	<path id="path30526-6-5" class="st0" d="M4380.4,3356.6v511.7h464.9v-511.7l-232.5,170.5L4380.4,3356.6z"/>
	<path id="path30530-4-4" class="st0" d="M4312.1,3221.9l300.7,220.6l300.7-220.6v646.3h447.2V2372.5H3864.9v1495.7h447.2V3221.9z"
		/>
	<path id="path30526-6-4-8" class="st0" d="M2826.8,213.4V725h464.9V213.4l-232.5,170.5L2826.8,213.4z"/>
	<path id="path30530-4-63-6" class="st0" d="M2758.5,78.6l300.7,220.6L3360,78.6V725h447.2V-770.7H2311.4V725h447.2V78.6z"/>
	<path id="path30526-6-6-8" class="st0" d="M3585.5,1803.1v511.7h464.9v-511.7L3818,1973.5L3585.5,1803.1z"/>
	<path id="path30530-4-1-6" class="st0" d="M3517.3,1668.3l300.7,220.6l300.7-220.6v646.3h447.2V819H3070.1v1495.7h447.2V1668.3z"/>
	<path id="path137077-2" class="st0" d="M817.3,2082.3l-396.6-779.1c-93-182.8-96.9-241.2-221.2-269.4l-160.1,0.1
		c63.2-52.2,103.4-131.2,103.4-219.5c0-157.2-127.5-284.8-284.8-284.8c-157.2,0-284.8,127.5-284.8,284.8
		c0,88.4,40.3,167.3,103.4,219.5l-123.1-0.1c-124.3,28.2-128.1,86.6-221.2,269.4l-396.5,779.1c-62.2,122.1,55.9,212,144.4,162.7
		c3.1-1,6-2.5,8.4-5c0.1-0.1,0.3-0.3,0.4-0.5c5.2-3.5,10.2-7.7,15.1-12.2l417.3,202.7l-0.2,1305.5c0,88.1,71.6,159.6,159.6,159.6
		c2.8,0,5.7-0.1,8.5-0.2c84.7-3.9,152.1-73.9,152.1-159.4l-0.4-1339.2h70.8l-0.4,1339.2c0,88.1,71.5,159.6,159.6,159.6
		c2.8,0,5.7-0.1,8.5-0.2c84.6-3.9,152.1-73.9,152.1-159.4l-0.2-1305.8L647,2225.5C735.3,2312.3,885.8,2216.9,817.3,2082.3
		L817.3,2082.3z M-885.7,2217c8-9.3,15.3-20.1,21.7-32.8l386-758.3l-0.2,0.8v28.7c0,0.5,0,1,0,1.5v45.9l-0.1,709.1L-885.7,2217z
		 M231.5,1502.8v-45.9c0-0.5,0-1,0-1.5v-28.8l-0.2-0.8l386,758.3c5.9,11.5,12.4,21.5,19.5,30.2l-405.1-5.2L231.5,1502.8z"/>
</g>
</svg>
