<?xml version="1.0" encoding="utf-8"?>
<!-- Generator: Adobe Illustrator 24.0.1, SVG Export Plug-In . SVG Version: 6.00 Build 0)  -->
<svg version="1.1" id="Layer_1" xmlns="http://www.w3.org/2000/svg" xmlns:xlink="http://www.w3.org/1999/xlink" x="0px" y="0px"
	 viewBox="0 0 671.6 671.6" style="enable-background:new 0 0 671.6 671.6;" xml:space="preserve">
<style type="text/css">
	.st0{fill:url(#SVGID_1_);}
	.st1{fill:url(#SVGID_2_);}
	.st2{fill:url(#SVGID_3_);}
	.st3{fill:#FFFFFF;}
	.st4{fill:url(#SVGID_4_);}
	.st5{fill:url(#SVGID_5_);}
</style>
<linearGradient id="SVGID_1_" gradientUnits="userSpaceOnUse" x1="548.3288" y1="745.1035" x2="195.7913" y2="143.4124" gradientTransform="matrix(1 0 0 -1 0 718.2254)">
	<stop  offset="1.000000e-02" style="stop-color:#35435F"/>
	<stop  offset="1" style="stop-color:#000000"/>
</linearGradient>
<rect class="st0" width="671.6" height="671.6"/>
<g>
	
		<linearGradient id="SVGID_2_" gradientUnits="userSpaceOnUse" x1="80.3216" y1="224.3933" x2="698.7616" y2="743.3232" gradientTransform="matrix(1 0 0 -1 0 718.2254)">
		<stop  offset="4.000000e-02" style="stop-color:#44CCF9"/>
		<stop  offset="0.12" style="stop-color:#48C4EF"/>
		<stop  offset="0.25" style="stop-color:#53AED4"/>
		<stop  offset="0.42" style="stop-color:#648BA9"/>
		<stop  offset="0.63" style="stop-color:#7C596D"/>
		<stop  offset="0.85" style="stop-color:#9B1B21"/>
		<stop  offset="0.95" style="stop-color:#A80000"/>
	</linearGradient>
	<path class="st1" d="M143.9,279.7c0-7.8,4.8-11.6,11-11.6c4.5,0,8,2.1,9.6,6.1c1.7-4,5.2-6.1,9.7-6.1c6.2,0,11,3.9,11,11.6v21.7
		h-3.6v-21.7c0-5.5-3.3-8.4-7.6-8.4c-4.4,0-7.6,3-7.6,8.4v21.7h-3.7v-21.7c0-5.4-3.2-8.4-7.6-8.4c-4.4,0-7.6,2.8-7.6,8.4v21.7h-3.6
		L143.9,279.7z M191,268.7h24v3.3h-20.4v11.1h17.5v3.3h-17.5v11.6H215v3.3h-24L191,268.7z M229.8,272h-11.1v-3.3h25.8v3.3h-11.1
		v29.4h-3.6L229.8,272z M249.2,268.7h3.6v14.5H274v-14.5h3.6v32.7H274v-15h-21.2v15h-3.6V268.7z M282.6,285c0-9.8,7.2-17,17.4-17
		c10.2,0,17.4,7.2,17.4,17s-7.2,17-17.4,17C289.8,302,282.6,294.8,282.6,285z M313.8,285c0-7.9-5.6-13.7-13.8-13.7
		c-8.1,0-13.8,5.8-13.8,13.7s5.6,13.7,13.8,13.7C308.2,298.7,313.8,292.9,313.8,285z M322.5,268.7h11.7c11.3,0,17.4,6.5,17.4,16.4
		s-6,16.4-17.4,16.4h-11.7L322.5,268.7z M334.2,298.1c9.3,0,13.8-5.2,13.8-13s-4.5-13-13.8-13h-8.1v26.1L334.2,298.1z M354.9,285.1
		c0-9.8,7.2-17,17.4-17s17.4,7.2,17.4,17s-7.2,17-17.4,17S354.9,294.8,354.9,285.1L354.9,285.1z M386.1,285.1
		c0-7.9-5.6-13.7-13.8-13.7s-13.8,5.8-13.8,13.7s5.6,13.7,13.8,13.7S386.1,292.9,386.1,285.1L386.1,285.1z M394.8,268.7h3.6v29.4
		h19.8v3.3h-23.4V268.7z M419.1,285.1c0-9.8,7.2-17,17.4-17s17.4,7.2,17.4,17s-7.2,17-17.4,17S419.1,294.8,419.1,285.1L419.1,285.1z
		 M450.3,285.1c0-7.9-5.6-13.7-13.8-13.7s-13.8,5.8-13.8,13.7s5.6,13.7,13.8,13.7S450.3,292.9,450.3,285.1L450.3,285.1z
		 M457.3,285.1c0-9.8,7.2-17,17.4-17c7.9,0,14.1,4.4,16.4,10.9h-4c-2.1-4.6-6.6-7.6-12.5-7.6c-8.1,0-13.8,5.8-13.8,13.7
		s5.6,13.7,13.8,13.7c7.1,0,12.3-4,13.5-10.5h-15.6V285H492v1.6c-0.8,9-7.7,15.4-17.4,15.4C464.5,302,457.3,294.8,457.3,285.1
		L457.3,285.1z M504.9,287.1l-13.5-18.4h4.4l11,15.4l10.9-15.4h4.3L508.5,287v14.4h-3.6L504.9,287.1z"/>
	
		<linearGradient id="SVGID_3_" gradientUnits="userSpaceOnUse" x1="-52.054" y1="579.3068" x2="868.996" y2="503.4667" gradientTransform="matrix(1 0 0 -1 0 718.2254)">
		<stop  offset="4.000000e-02" style="stop-color:#44CCF9"/>
		<stop  offset="0.12" style="stop-color:#48C4EF"/>
		<stop  offset="0.25" style="stop-color:#53AED4"/>
		<stop  offset="0.42" style="stop-color:#648BA9"/>
		<stop  offset="0.63" style="stop-color:#7C596D"/>
		<stop  offset="0.85" style="stop-color:#9B1B21"/>
		<stop  offset="0.95" style="stop-color:#A80000"/>
	</linearGradient>
	<path class="st2" d="M186.2,150.7c-16.4-2.4-32.3-4.4-32.3-21.9c0-16.5,12.2-25.7,30.3-25.7c17.8,0,29.9,8.9,30.3,24.8h4.4
		c-0.5-17.3-14.1-28.8-34.8-28.8c-21,0-34.8,11.9-34.8,29.7c0,20.8,18,23.4,35.3,25.9c16.4,2.4,32.3,4.4,32.3,21.9
		c0,16.5-13,26.5-32.9,26.5c-19.6,0-32.4-9.7-32.9-26.5h-4.5c0.5,19.1,15.1,30.5,37.3,30.5c22.6,0,37.3-11.8,37.3-30.5
		C221.4,155.8,203.5,153.3,186.2,150.7z M477,162.3l33.8,42.7h-5.7l-33.7-42.7h-40.8v42.7h-4.5V101.2h47.8c23,0,33,13,33,30.5
		C507,148.4,497.7,161.2,477,162.3L477,162.3z M474,158.3c20.8,0,28.6-11.6,28.6-26.7s-8-26.5-28.6-26.5h-43.4v53.2H474z M261,142.9
		l24.8-24.8c7.4,5.8,18.1,4.4,23.9-3c5.8-7.4,4.4-18.1-3-23.9c-7.4-5.8-18.1-4.4-23.9,3c-4.8,6.2-4.8,14.8,0,20.9L258.1,140
		c-7.4-5.8-18.1-4.5-24,2.9c-5.8,7.4-4.5,18.1,2.9,24c6.2,4.8,14.9,4.8,21.1,0l24.2,24.2c-5.8,7.4-4.6,18.2,2.9,24.1
		c7.4,5.8,18.2,4.6,24.1-2.9c5.8-7.4,4.6-18.2-2.9-24.1c-6.2-4.9-14.9-4.9-21.1,0L261,163.9c1.9-2.4,3.1-5.4,3.5-8.4h21
		c1.1,6,6.9,9.9,12.9,8.7s9.9-6.9,8.7-12.9s-6.9-9.9-12.9-8.7c-4.4,0.8-7.9,4.3-8.7,8.7h-21C264.2,148.2,262.9,145.3,261,142.9z
		 M353.3,142.9l24.8-24.8c7.4,5.8,18.1,4.5,24-2.9s4.5-18.1-2.9-24c-7.4-5.8-18.1-4.5-24,2.9c-4.8,6.2-4.8,14.9,0,21L350.4,140
		c-7.4-5.8-18.1-4.5-24,2.9c-5.8,7.4-4.5,18.1,2.9,24c6.2,4.8,14.9,4.8,21.1,0l24.2,24.2c-5.8,7.4-4.5,18.1,2.9,24s18.1,4.5,24-2.9
		c5.8-7.4,4.5-18.1-2.9-24c-6.2-4.8-14.9-4.8-21,0l-24.2-24.2c1.9-2.4,3.1-5.4,3.5-8.4h21c1.1,6,6.9,9.9,12.9,8.7s9.9-6.9,8.7-12.9
		s-6.9-9.9-12.9-8.7c-4.4,0.8-7.9,4.3-8.7,8.7h-21C356.5,148.2,355.3,145.3,353.3,142.9z M141.5,239.1v3.4h374.6v-3.4H141.5z"/>
	<path class="st3" d="M150.1,365.6c0-3.4,2-5.6,5.6-5.6s5.7,2.2,5.7,5.6v7.7h-1.4V369h-8.5v4.4h-1.4V365.6z M159.9,367.6v-2
		c0-2.6-1.4-4.3-4.2-4.3c-2.8,0-4.2,1.6-4.2,4.3v2H159.9z"/>
	<path class="st3" d="M163.4,369.7V360h1.4v3.5h5.8v1.2h-5.8v5c0,1.4,1.1,2.5,2.5,2.5s2.5-1.1,2.5-2.5v-0.2h1.3v0.2
		c0,2.1-1.7,3.9-3.9,3.9S163.4,371.8,163.4,369.7L163.4,369.7z"/>
	<path class="st3" d="M177.8,369.6h1.4c0.1,1.7,1.3,2.6,3.4,2.6s3.4-1,3.4-2.6s-1.7-2-3.4-2.3c-2.1-0.3-4.4-0.7-4.4-3.5
		c0-2.3,1.8-3.9,4.5-3.9s4.4,1.5,4.5,3.8h-1.3c-0.1-1.5-1.2-2.5-3.1-2.5c-1.9,0-3.1,1-3.1,2.5s1.6,2,3.4,2.2
		c2.1,0.3,4.4,0.7,4.4,3.5c0,2.4-1.9,4-4.8,4S177.9,372.1,177.8,369.6z"/>
	<path class="st3" d="M188.7,368.4c0-2.9,2.4-5.3,5.3-5.3c2.9,0,5.3,2.4,5.3,5.3v0.4H190c0.1,2.1,1.9,3.6,3.9,3.5
		c1.4,0.1,2.7-0.6,3.4-1.8h1.5c-1.3,2.7-4.5,3.8-7.2,2.5C189.9,372.2,188.7,370.4,188.7,368.4z M197.9,367.6c-0.5-2.1-2.7-3.5-4.8-3
		c-1.5,0.4-2.6,1.5-3,3H197.9z"/>
	<path class="st3" d="M200.4,368.4c0-2.9,2.4-5.3,5.3-5.3s5.3,2.4,5.3,5.3v0.4h-9.2c0.1,2.1,1.9,3.6,3.9,3.5
		c1.4,0.1,2.7-0.6,3.4-1.8h1.5c-1.3,2.7-4.5,3.8-7.2,2.5C201.6,372.2,200.5,370.4,200.4,368.4z M209.6,367.6c-0.5-2.1-2.7-3.5-4.8-3
		c-1.5,0.4-2.6,1.5-3,3H209.6z"/>
	<path class="st3" d="M212.6,367.4c0-2.8,1.7-4.2,4.2-4.2s4.1,1.4,4.1,4.2v0.1h-1.3v-0.1c0-2.1-1.1-3-2.8-3s-2.8,0.9-2.8,3v5.9h-1.3
		L212.6,367.4z"/>
	<path class="st3" d="M227.5,369.2v-5.8h1.3v5.8c0,2.1,1.2,3.1,2.8,3.1s2.8-1.1,2.8-3.1v-5.8h1.3v5.8c0,2.1,1.2,3.1,2.8,3.1
		s2.8-1,2.8-3.1v-5.8h1.3v5.8c0,2.9-1.7,4.4-4,4.4c-1.5,0.1-3-0.8-3.6-2.2c-0.6,1.4-2,2.3-3.6,2.2
		C229.2,373.6,227.5,372.2,227.5,369.2z"/>
	<path class="st3" d="M244.2,368.4c0-2.9,2.4-5.3,5.3-5.3s5.3,2.4,5.3,5.3v0.4h-9.2c0.1,2.1,1.9,3.6,3.9,3.5
		c1.4,0.1,2.7-0.6,3.4-1.8h1.5c-1.3,2.7-4.5,3.8-7.2,2.5C245.4,372.2,244.3,370.4,244.2,368.4z M253.4,367.6c-0.5-2.1-2.7-3.5-4.8-3
		c-1.5,0.4-2.6,1.5-3,3H253.4z"/>
	<path class="st3" d="M261.7,368.6v-5.2h1.3v5.2c0,2.4,1.4,3.7,3.5,3.7c2.1,0,3.5-1.3,3.5-3.7v-5.2h1.3v5.2c0,3.3-2,5-4.9,5
		S261.7,371.9,261.7,368.6z"/>
	<path class="st3" d="M273.4,368.2c0-3.3,2-5,4.9-5s4.9,1.7,4.9,5v5.2h-1.3v-5.2c0-2.4-1.4-3.7-3.5-3.7c-2.1,0-3.5,1.3-3.5,3.7v5.2
		h-1.3L273.4,368.2z"/>
	<path class="st3" d="M284.7,368.4c-0.1-2.8,2.1-5.1,4.8-5.2c0.1,0,0.2,0,0.3,0c1.7-0.1,3.4,0.8,4.2,2.4v-6.4h1.3v9.2
		c0.1,2.8-2,5.1-4.7,5.3c-0.2,0-0.4,0-0.6,0c-2.8,0.1-5.2-2-5.3-4.8C284.7,368.6,284.7,368.5,284.7,368.4z M294,368.4
		c0-2.2-1.8-4-4-4s-4,1.8-4,4s1.8,4,4,4c2.1,0.1,3.9-1.5,4-3.6C294,368.6,294,368.5,294,368.4L294,368.4z"/>
	<path class="st3" d="M296.9,368.4c0-2.9,2.4-5.3,5.3-5.3c2.9,0,5.3,2.4,5.3,5.3v0.4h-9.2c0.1,2.1,1.9,3.6,3.9,3.5
		c1.4,0.1,2.7-0.6,3.4-1.8h1.5c-1.3,2.7-4.5,3.8-7.2,2.5C298.1,372.2,297,370.4,296.9,368.4L296.9,368.4z M306.1,367.6
		c-0.5-2.1-2.7-3.5-4.8-3c-1.5,0.4-2.6,1.5-3,3H306.1z"/>
	<path class="st3" d="M309,367.4c0-2.8,1.7-4.2,4.2-4.2s4.1,1.4,4.1,4.2v0.1H316v-0.1c0-2.1-1.1-3-2.8-3c-1.7,0-2.8,0.9-2.8,3v5.9
		H309L309,367.4z"/>
	<path class="st3" d="M318.2,370.6h1.4c0.1,1.1,1,1.8,2.7,1.8s2.7-0.8,2.7-1.9s-1.3-1.3-2.7-1.5c-1.8-0.2-3.8-0.5-3.8-2.7
		c0-1.9,1.5-3.1,3.8-3.1c2.3,0,3.7,1.3,3.8,3h-1.3c-0.1-1-1-1.7-2.5-1.7c-1.5,0-2.4,0.8-2.4,1.8c0,1.2,1.3,1.4,2.7,1.5
		c1.4,0.2,3.8,0.4,3.8,2.7c0,1.9-1.6,3.2-4,3.2C319.9,373.6,318.3,372.3,318.2,370.6z"/>
	<path class="st3" d="M327.9,369.7V360h1.3v3.5h5.8v1.2h-5.8v5c-0.1,1.4,1,2.6,2.4,2.7c1.4,0.1,2.6-1,2.7-2.4c0-0.1,0-0.2,0-0.3
		v-0.2h1.4v0.2c0.1,2.1-1.5,4-3.7,4.1c-2.1,0.1-4-1.5-4.1-3.7C328,369.9,328,369.8,327.9,369.7L327.9,369.7z"/>
	<path class="st3" d="M336.9,368.5c0.1-2.9,2.6-5.2,5.5-5.1c2.8,0.1,5,2.3,5.1,5.1v4.9h-1.2v-2.4c-0.7,1.7-2.4,2.8-4.3,2.7
		c-2.8,0.1-5.1-2.1-5.1-4.9C336.9,368.6,336.9,368.5,336.9,368.5z M346.2,368.4c0-2.2-1.8-4-4-4s-4,1.8-4,4s1.8,4,4,4
		c2.1,0.1,3.9-1.5,4-3.6C346.2,368.7,346.2,368.5,346.2,368.4z"/>
	<path class="st3" d="M349.5,368.2c0-3.3,2-5,4.9-5s4.9,1.7,4.9,5v5.2H358v-5.2c0-2.4-1.4-3.7-3.5-3.7s-3.5,1.3-3.5,3.7v5.2h-1.3
		V368.2z"/>
	<path class="st3" d="M360.8,368.4c-0.1-2.8,2.1-5.1,4.8-5.2c0.1,0,0.2,0,0.3,0c1.7-0.1,3.4,0.8,4.2,2.4v-6.4h1.3v9.2
		c0.1,2.8-2,5.1-4.7,5.3c-0.2,0-0.4,0-0.6,0c-2.8,0.1-5.2-2-5.3-4.8C360.8,368.6,360.8,368.5,360.8,368.4z M370.1,368.4
		c0-2.2-1.8-4-4-4s-4,1.8-4,4s1.8,4,4,4c2.1,0.1,3.9-1.5,4-3.6C370.1,368.7,370.1,368.5,370.1,368.4L370.1,368.4z"/>
	<path class="st3" d="M378.3,368.4c0.1-2.9,2.6-5.2,5.5-5.1c2.8,0.1,5,2.3,5.1,5.1v0.4h-9.2c0.1,2.1,1.9,3.6,3.9,3.5
		c1.4,0.1,2.7-0.6,3.4-1.8h1.5c-1.3,2.7-4.5,3.8-7.2,2.5C379.6,372.2,378.4,370.4,378.3,368.4z M387.6,367.6c-0.5-2.2-2.7-3.5-4.8-3
		c-1.5,0.3-2.6,1.5-3,3H387.6z"/>
	<path class="st3" d="M390.1,368.5c0.1-2.9,2.6-5.2,5.5-5.1c2.8,0.1,5,2.3,5.1,5.1v4.9h-1.2v-2.4c-0.7,1.7-2.4,2.8-4.3,2.7
		c-2.8,0.1-5.1-2.1-5.1-4.9C390.1,368.6,390.1,368.5,390.1,368.5z M399.4,368.4c0-2.2-1.8-4-4-4s-4,1.8-4,4s1.8,4,4,4
		c2.1,0.1,3.9-1.5,4-3.6C399.4,368.7,399.4,368.5,399.4,368.4z"/>
	<path class="st3" d="M402.3,368.4c-0.1-2.8,2.1-5.1,4.9-5.2c0.1,0,0.3,0,0.4,0c2.4-0.1,4.5,1.4,5.1,3.7h-1.4c-0.8-2-3.2-3-5.2-2.2
		s-3,3.2-2.2,5.2s3.2,3,5.2,2.2c1-0.4,1.8-1.2,2.2-2.2h1.4c-0.6,2.3-2.7,3.8-5.1,3.7c-2.8,0.2-5.2-2-5.3-4.8
		C402.3,368.6,402.3,368.5,402.3,368.4z"/>
	<path class="st3" d="M414.6,359.1h1.3v6.2c0.7-1.4,2.2-2.3,3.7-2.2c2.6,0,4.7,1.6,4.7,5v5.2H423v-5.2c0-2.4-1.4-3.7-3.5-3.7
		s-3.5,1.3-3.5,3.7v5.2h-1.3V359.1z"/>
	<path class="st3" d="M431.2,368.4c-0.1-2.8,2.1-5.1,4.9-5.2c0.1,0,0.3,0,0.4,0c2.3-0.1,4.5,1.4,5.1,3.7h-1.4c-0.8-2-3.2-3-5.2-2.2
		s-3,3.2-2.2,5.2s3.2,3,5.2,2.2c1-0.4,1.8-1.2,2.2-2.2h1.4c-0.6,2.3-2.7,3.8-5.1,3.7c-2.8,0.1-5.2-2-5.3-4.8
		C431.2,368.6,431.2,368.5,431.2,368.4z"/>
	<path class="st3" d="M443.2,368.6v-5.2h1.3v5.2c0,2.4,1.4,3.7,3.5,3.7s3.5-1.3,3.5-3.7v-5.2h1.3v5.2c0,3.3-2,5-4.9,5
		S443.2,371.9,443.2,368.6z"/>
	<path class="st3" d="M454.6,370.6h1.4c0.1,1.1,1,1.8,2.7,1.8s2.7-0.8,2.7-1.9s-1.3-1.3-2.7-1.5c-1.8-0.2-3.8-0.5-3.8-2.7
		c0-1.9,1.5-3.1,3.8-3.1s3.7,1.3,3.8,3h-1.3c-0.1-1-1-1.7-2.5-1.7s-2.4,0.8-2.4,1.8c0,1.2,1.3,1.4,2.7,1.5s3.8,0.4,3.8,2.7
		c0,1.9-1.6,3.2-4,3.2S454.7,372.3,454.6,370.6z"/>
	<path class="st3" d="M464.3,369.7V360h1.3v3.5h5.8v1.2h-5.8v5c0,1.4,1.1,2.5,2.5,2.5s2.5-1.1,2.5-2.5c0,0,0,0,0,0v-0.2h1.3v0.2
		c0,2.1-1.7,3.9-3.9,3.9C466.1,373.5,464.3,371.8,464.3,369.7L464.3,369.7z"/>
	<path class="st3" d="M473.3,368.4c-0.1-2.9,2.3-5.4,5.2-5.4c2.9-0.1,5.4,2.3,5.4,5.2c0.1,2.9-2.3,5.4-5.2,5.4c0,0-0.1,0-0.1,0
		c-2.8,0.1-5.2-2-5.3-4.8C473.3,368.6,473.3,368.5,473.3,368.4z M482.6,368.4c0-2.2-1.8-4-4-4s-4,1.8-4,4s1.8,4,4,4
		c2.1,0.1,3.9-1.5,4-3.6C482.6,368.7,482.6,368.5,482.6,368.4z"/>
	<path class="st3" d="M485.5,367.6c0-2.9,1.7-4.4,4-4.4c1.5-0.1,3,0.8,3.6,2.2c0.6-1.4,2-2.3,3.6-2.2c2.3,0,4,1.4,4,4.4v5.8h-1.4
		v-5.8c0-2.1-1.2-3.1-2.8-3.1s-2.8,1.1-2.8,3.1v5.8h-1.3v-5.8c0-2.1-1.2-3.1-2.8-3.1s-2.8,1-2.8,3.1v5.8h-1.3V367.6z"/>
	<path class="st3" d="M502.2,368.4c0-2.9,2.4-5.3,5.3-5.3c2.9,0,5.3,2.4,5.3,5.3v0.4h-9.2c0.1,2.1,1.9,3.6,3.9,3.5
		c1.4,0.1,2.7-0.6,3.4-1.8h1.5c-1.3,2.7-4.5,3.8-7.2,2.5C503.4,372.2,502.3,370.4,502.2,368.4z M511.4,367.6c-0.5-2.1-2.7-3.5-4.8-3
		c-1.5,0.4-2.6,1.5-3,3H511.4z"/>
	<path class="st3" d="M514.4,367.4c0-2.8,1.7-4.2,4.2-4.2c2.5,0,4.1,1.4,4.1,4.2v0.1h-1.3v-0.1c0-2.1-1.1-3-2.8-3s-2.8,0.9-2.8,3
		v5.9h-1.3V367.4z"/>
	<path class="st3" d="M170.9,384.5c0-0.6,0.4-1,1-1c0.6,0,1,0.4,1,1s-0.4,1-1,1C171.4,385.5,170.9,385.1,170.9,384.5z M171.3,387.5
		h1.3v9.9h-1.3V387.5z"/>
	<path class="st3" d="M174.6,394.6h1.4c0.1,1.1,1,1.8,2.7,1.8c1.7,0,2.7-0.8,2.7-1.9s-1.3-1.3-2.7-1.5c-1.8-0.2-3.8-0.5-3.8-2.7
		c0-1.9,1.5-3.1,3.8-3.1c2.3,0,3.7,1.3,3.8,3h-1.3c-0.1-1-1-1.7-2.5-1.7c-1.5,0-2.4,0.8-2.4,1.8c0,1.2,1.3,1.4,2.7,1.5
		c1.4,0.2,3.8,0.4,3.8,2.7c0,1.9-1.6,3.2-4,3.2S174.6,396.3,174.6,394.6z"/>
	<path class="st3" d="M189.6,392.6v-5.2h1.3v5.2c0,2.4,1.4,3.7,3.5,3.7s3.5-1.3,3.5-3.7v-5.2h1.3v5.2c0,3.3-2,5-4.9,5
		C191.6,397.6,189.6,395.9,189.6,392.6z"/>
	<path class="st3" d="M201.3,392.2c0-3.3,2-5,4.9-5c2.9,0,4.9,1.7,4.9,5v5.2h-1.4v-5.2c0-2.4-1.4-3.7-3.5-3.7
		c-2.1,0-3.5,1.3-3.5,3.7v5.2h-1.3V392.2z"/>
	<path class="st3" d="M213.1,384.5c0-0.6,0.4-1,1-1s1,0.4,1,1s-0.4,1-1,1S213.1,385.1,213.1,384.5z M213.4,387.5h1.3v9.9h-1.3V387.5
		z"/>
	<path class="st3" d="M226,401.6v-6.3c-0.8,1.5-2.4,2.5-4.2,2.4c-2.8,0-5-2.2-5.1-4.9c0-0.1,0-0.2,0-0.2c-0.1-2.8,2.1-5.2,4.9-5.2
		c0.1,0,0.3,0,0.4,0c2.8-0.2,5.1,1.9,5.3,4.7c0,0.2,0,0.4,0,0.6v9.1H226z M226,392.4c0-2.2-1.8-4-4-4s-4,1.8-4,4s1.8,4,4,4
		c2.1,0.1,3.9-1.5,4-3.6C226,392.7,226,392.5,226,392.4z"/>
	<path class="st3" d="M229.3,392.6v-5.2h1.3v5.2c0,2.4,1.4,3.7,3.5,3.7s3.6-1.3,3.6-3.7v-5.2h1.3v5.2c0,3.3-2,5-4.9,5
		S229.3,395.9,229.3,392.6z"/>
	<path class="st3" d="M240.6,392.4c0-2.9,2.4-5.3,5.3-5.3s5.3,2.4,5.3,5.3v0.4H242c0.1,2.1,1.9,3.6,3.9,3.5c1.4,0.1,2.7-0.6,3.4-1.8
		h1.4c-1.3,2.7-4.5,3.8-7.2,2.5C241.8,396.2,240.6,394.4,240.6,392.4L240.6,392.4z M249.8,391.6c-0.5-2.1-2.7-3.5-4.8-3
		c-1.5,0.4-2.6,1.5-3,3H249.8z"/>
	<path class="st3" d="M257.7,392.5c0-2.9,2.4-5.3,5.3-5.3c2.9,0,5.3,2.4,5.3,5.3v4.9H267v-2.4c-0.7,1.7-2.4,2.8-4.3,2.7
		c-2.8,0.1-5.1-2.1-5.1-4.9C257.7,392.6,257.7,392.5,257.7,392.5z M266.9,392.4c0-2.2-1.8-4-4-4s-4,1.8-4,4s1.8,4,4,4
		c2.1,0.1,3.9-1.5,4-3.6C267,392.7,267,392.5,266.9,392.4z"/>
	<path class="st3" d="M270.2,392.2c0-3.3,2-5,4.9-5s4.9,1.7,4.9,5v5.2h-1.3v-5.2c0-2.4-1.4-3.7-3.5-3.7c-2.1,0-3.5,1.3-3.5,3.7v5.2
		h-1.3L270.2,392.2z"/>
	<path class="st3" d="M281.6,392.4c-0.1-2.8,2.1-5.1,4.8-5.2c0.1,0,0.2,0,0.3,0c1.7-0.1,3.4,0.8,4.2,2.4v-6.4h1.3v9.2
		c0.1,2.8-2,5.1-4.7,5.3c-0.2,0-0.4,0-0.6,0c-2.8,0.1-5.2-2-5.3-4.8C281.6,392.6,281.6,392.5,281.6,392.4z M290.8,392.4
		c0-2.2-1.8-4-4-4s-4,1.8-4,4s1.8,4,4,4c2.1,0.1,3.9-1.5,4-3.6C290.9,392.7,290.9,392.5,290.8,392.4L290.8,392.4z"/>
	<path class="st3" d="M299.1,392.5c0-2.9,2.4-5.3,5.3-5.3c2.9,0,5.3,2.4,5.3,5.3v4.9h-1.2v-2.4c-0.7,1.7-2.4,2.8-4.3,2.7
		c-2.8,0.1-5.1-2.1-5.1-4.9C299.1,392.6,299.1,392.5,299.1,392.5z M308.3,392.4c0-2.2-1.8-4-4-4s-4,1.8-4,4s1.8,4,4,4
		c2.1,0.1,3.9-1.5,4-3.6C308.4,392.7,308.4,392.5,308.3,392.4z"/>
	<path class="st3" d="M311.2,392.4c-0.1-2.8,2.1-5.1,4.8-5.2c0.1,0,0.2,0,0.3,0c1.7-0.1,3.4,0.8,4.2,2.4v-6.4h1.3v9.2
		c0.1,2.8-2,5.1-4.7,5.3c-0.2,0-0.4,0-0.6,0c-2.8,0.1-5.2-2-5.3-4.8C311.2,392.6,311.2,392.5,311.2,392.4z M320.5,392.4
		c0-2.2-1.8-4-4-4s-4,1.8-4,4s1.8,4,4,4c2.1,0.1,3.9-1.5,4-3.6C320.5,392.7,320.5,392.5,320.5,392.4L320.5,392.4z"/>
	<path class="st3" d="M323.4,392.5c0.1-2.9,2.6-5.2,5.5-5.1c2.8,0.1,5,2.3,5.1,5.1v4.9h-1.2v-2.4c-0.7,1.7-2.4,2.8-4.3,2.7
		c-2.8,0.1-5.1-2.1-5.1-4.9C323.4,392.6,323.4,392.5,323.4,392.5z M332.7,392.4c0-2.2-1.8-4-4-4s-4,1.8-4,4s1.8,4,4,4
		c2.1,0.1,3.9-1.5,4-3.6C332.7,392.7,332.7,392.5,332.7,392.4L332.7,392.4z"/>
	<path class="st3" d="M336,392.5c-0.1-2.8,2-5.1,4.7-5.3c0.2,0,0.4,0,0.6,0c2.8-0.1,5.2,2,5.3,4.8c0,0.1,0,0.3,0,0.4
		c0.1,2.8-2.1,5.1-4.8,5.2c-0.1,0-0.2,0-0.3,0c-1.7,0.1-3.4-0.8-4.2-2.4v6.3H336V392.5z M345.3,392.4c0-2.2-1.8-4-4-4s-4,1.8-4,4
		s1.8,4,4,4c2.1,0.1,3.9-1.5,4-3.6C345.3,392.7,345.3,392.5,345.3,392.4L345.3,392.4z"/>
	<path class="st3" d="M348.2,393.7V384h1.3v3.5h5.8v1.2h-5.8v5c-0.1,1.4,1,2.6,2.4,2.7c1.4,0.1,2.6-1,2.7-2.4c0-0.1,0-0.2,0-0.3
		v-0.2h1.3v0.2c0.1,2.1-1.5,4-3.7,4.1s-4-1.5-4.1-3.7C348.2,393.9,348.2,393.8,348.2,393.7L348.2,393.7z"/>
	<path class="st3" d="M362.5,392.4c-0.1-2.9,2.3-5.4,5.2-5.5s5.4,2.3,5.5,5.2s-2.3,5.4-5.2,5.5c0,0-0.1,0-0.1,0
		c-2.8,0.1-5.2-2-5.3-4.8C362.5,392.6,362.5,392.5,362.5,392.4z M371.8,392.4c0-2.2-1.8-4-4-4s-4,1.8-4,4s1.8,4,4,4
		c2.1,0.1,3.9-1.5,4-3.6C371.8,392.7,371.8,392.5,371.8,392.4z"/>
	<path class="st3" d="M374.7,392.6v-5.2h1.3v5.2c0,2.4,1.4,3.7,3.5,3.7s3.5-1.3,3.5-3.7v-5.2h1.3v5.2c0,3.3-2,5-4.9,5
		S374.7,395.9,374.7,392.6z"/>
	<path class="st3" d="M386.4,391.4c0-2.8,1.7-4.2,4.2-4.2s4.1,1.4,4.1,4.2v0.1h-1.3v-0.1c0-2.1-1.1-3-2.8-3s-2.8,0.9-2.8,3v5.9h-1.3
		V391.4z"/>
	<path class="st3" d="M401,392.5c0.1-2.9,2.6-5.2,5.5-5.1c2.8,0.1,5,2.3,5.1,5.1v4.9h-1.2v-2.4c-0.7,1.7-2.4,2.8-4.3,2.7
		c-2.8,0.1-5.1-2.1-5.1-4.9C401,392.6,401,392.5,401,392.5z M410.2,392.4c0-2.2-1.8-4-4-4s-4,1.8-4,4s1.8,4,4,4
		c2.1,0.1,3.9-1.5,4-3.6C410.3,392.7,410.3,392.5,410.2,392.4L410.2,392.4z"/>
	<path class="st3" d="M413.9,383.1h1.3v14.2h-1.3V383.1z"/>
	<path class="st3" d="M417.6,398.6h1.4c0.5,1.4,1.9,2,3.6,2c2.3,0,3.9-1.1,3.9-4.1v-1.4c-0.8,1.5-2.4,2.5-4.2,2.4
		c-2.7,0.1-5-2-5.1-4.7c0-0.1,0-0.3,0-0.4c0.1-2.9,2.6-5.2,5.6-5.1c2.8,0.1,5,2.4,5.1,5.1v4.1c0,3.8-2.3,5.3-5.3,5.3
		C420.2,401.8,418.3,400.8,417.6,398.6z M426.5,392.4c-0.3-2.2-2.3-3.7-4.5-3.4c-1.8,0.2-3.2,1.6-3.4,3.4c0.3,2.2,2.3,3.7,4.5,3.4
		C424.8,395.6,426.2,394.2,426.5,392.4z"/>
	<path class="st3" d="M429.4,392.4c0-2.9,2.3-5.4,5.2-5.4c2.9,0,5.4,2.3,5.4,5.2c0,2.9-2.3,5.4-5.2,5.4c0,0,0,0,0,0
		c-2.8,0.2-5.2-2-5.3-4.8C429.4,392.7,429.4,392.5,429.4,392.4z M438.7,392.4c0-2.2-1.8-4-4-4s-4,1.8-4,4s1.8,4,4,4
		c2.1,0.1,3.9-1.5,4-3.6C438.7,392.7,438.7,392.5,438.7,392.4z"/>
	<path class="st3" d="M441.6,391.4c0-2.8,1.7-4.2,4.2-4.2s4.1,1.4,4.1,4.2v0.1h-1.3v-0.1c0-2.1-1.1-3-2.8-3s-2.8,0.9-2.8,3v5.9h-1.3
		V391.4z"/>
	<path class="st3" d="M451.2,384.5c0-0.6,0.4-1,1-1s1,0.4,1,1s-0.4,1-1,1S451.2,385.1,451.2,384.5z M451.6,387.5h1.3v9.9h-1.3V387.5
		z"/>
	<path class="st3" d="M455.2,393.7V384h1.3v3.5h5.8v1.2h-5.8v5c0,1.4,1.1,2.5,2.5,2.5s2.5-1.1,2.5-2.5c0,0,0,0,0,0v-0.2h1.3v0.2
		c0,2.1-1.7,3.9-3.9,3.9C457,397.5,455.2,395.8,455.2,393.7L455.2,393.7z"/>
	<path class="st3" d="M465,383.1h1.3v6.2c0.7-1.4,2.2-2.3,3.7-2.2c2.6,0,4.7,1.6,4.7,5v5.2h-1.3v-5.2c0-2.4-1.4-3.7-3.5-3.7
		s-3.5,1.3-3.5,3.7v5.2H465L465,383.1z"/>
	<path class="st3" d="M476.7,391.6c0-2.9,1.7-4.4,4-4.4c1.5-0.1,3,0.8,3.6,2.2c0.6-1.4,2-2.3,3.6-2.2c2.3,0,4,1.4,4,4.4v5.8h-1.4
		v-5.8c0-2.1-1.2-3.1-2.8-3.1s-2.8,1.1-2.8,3.1v5.8h-1.3v-5.8c0-2.1-1.2-3.1-2.8-3.1s-2.8,1-2.8,3.1v5.8h-1.3V391.6z"/>
	<path class="st3" d="M493.4,394.6h1.4c0.1,1.1,1,1.8,2.7,1.8s2.7-0.8,2.7-1.9s-1.3-1.3-2.7-1.5c-1.8-0.2-3.8-0.5-3.8-2.7
		c0-1.9,1.5-3.1,3.8-3.1s3.7,1.3,3.8,3h-1.3c-0.1-1-1-1.7-2.5-1.7s-2.4,0.8-2.4,1.8c0,1.2,1.3,1.4,2.7,1.5s3.8,0.4,3.8,2.7
		c0,1.9-1.6,3.2-4,3.2S493.5,396.3,493.4,394.6z"/>
	<path class="st3" d="M166.5,416.5c0-2.9,2.4-5.3,5.3-5.3s5.3,2.4,5.3,5.3l0,0v4.9h-1.2v-2.4c-0.7,1.7-2.4,2.8-4.3,2.7
		c-2.8,0.1-5.1-2.1-5.1-4.9C166.5,416.6,166.5,416.5,166.5,416.5z M175.8,416.4c0-2.2-1.8-4-4-4s-4,1.8-4,4s1.8,4,4,4
		c2.1,0.1,3.9-1.5,4-3.6C175.8,416.7,175.8,416.5,175.8,416.4z"/>
	<path class="st3" d="M179.1,416.2c0-3.3,2-5,4.9-5c2.9,0,4.9,1.7,4.9,5v5.2h-1.3v-5.2c0-2.4-1.4-3.7-3.5-3.7s-3.5,1.3-3.5,3.7v5.2
		h-1.3L179.1,416.2z"/>
	<path class="st3" d="M190.4,416.4c-0.1-2.8,2.1-5.1,4.8-5.2c0.1,0,0.2,0,0.3,0c1.7-0.1,3.4,0.8,4.2,2.4v-6.4h1.3v9.2
		c0.2,2.8-1.9,5.1-4.7,5.3c-0.2,0-0.4,0-0.6,0c-2.8,0.1-5.2-2.1-5.3-4.9C190.4,416.6,190.4,416.5,190.4,416.4z M199.7,416.4
		c0-2.2-1.8-4-4-4s-4,1.8-4,4s1.8,4,4,4c2.1,0.1,3.9-1.5,4-3.5C199.7,416.7,199.7,416.5,199.7,416.4L199.7,416.4z"/>
	<path class="st3" d="M208.3,408.5c0-0.6,0.4-1,1-1s1,0.4,1,1s-0.4,1-1,1S208.3,409.1,208.3,408.5z M208.7,411.5h1.3v9.9h-1.3
		L208.7,411.5z"/>
	<path class="st3" d="M212.4,416.2c0-3.3,2-5,4.9-5s4.9,1.7,4.9,5v5.2h-1.3v-5.2c0-2.4-1.4-3.7-3.5-3.7s-3.5,1.3-3.5,3.7v5.2h-1.3
		L212.4,416.2z"/>
	<path class="st3" d="M224.1,417.7V408h1.3v3.5h5.8v1.2h-5.8v5c0,1.4,1.1,2.5,2.5,2.5c1.4,0,2.5-1.1,2.5-2.5v-0.2h1.3v0.2
		c0,2.1-1.7,3.9-3.9,3.9S224.1,419.8,224.1,417.7L224.1,417.7z"/>
	<path class="st3" d="M233.1,416.4c0-2.9,2.4-5.3,5.3-5.3s5.3,2.4,5.3,5.3v0.4h-9.2c0.1,2.1,1.9,3.6,3.9,3.5
		c1.4,0.1,2.7-0.6,3.4-1.8h1.5c-1.3,2.7-4.5,3.8-7.2,2.5C234.3,420.2,233.1,418.4,233.1,416.4L233.1,416.4z M242.3,415.6
		c-0.5-2.1-2.7-3.5-4.8-3c-1.5,0.4-2.6,1.5-3,3H242.3z"/>
	<path class="st3" d="M245.2,415.4c0-2.8,1.7-4.2,4.2-4.2s4.1,1.4,4.1,4.2v0.1h-1.3v-0.1c0-2.1-1.1-3-2.8-3s-2.8,0.9-2.8,3v5.9h-1.3
		L245.2,415.4z"/>
	<path class="st3" d="M255.2,411.1c-0.2-2.1,1.3-4,3.4-4.2c0.2,0,0.5,0,0.7,0c2.5,0,4.1,1.4,4.1,4.2h-1.3c0-2.1-1.1-3-2.8-3
		c-1.4-0.1-2.7,0.9-2.8,2.3c0,0.2,0,0.4,0,0.6v1.8h5.8v1.2h-5.8v7.3h-1.3L255.2,411.1z"/>
	<path class="st3" d="M263.9,416.5c0-2.9,2.4-5.3,5.3-5.3c2.9,0,5.3,2.4,5.3,5.3v4.9h-1.2v-2.4c-0.7,1.7-2.4,2.8-4.3,2.7
		c-2.8,0.1-5.1-2.1-5.1-4.9C263.9,416.6,263.9,416.5,263.9,416.5z M273.1,416.4c0-2.2-1.8-4-4-4s-4,1.8-4,4s1.8,4,4,4
		c2.1,0.1,3.9-1.5,4-3.6C273.2,416.7,273.2,416.5,273.1,416.4z"/>
	<path class="st3" d="M276,416.4c-0.1-2.8,2.1-5.1,4.9-5.2c0.1,0,0.3,0,0.4,0c2.3-0.1,4.5,1.4,5.1,3.7h-1.4c-0.8-2-3.2-3-5.2-2.2
		c-2,0.8-3,3.2-2.2,5.2s3.2,3,5.2,2.2c1-0.4,1.8-1.2,2.2-2.2h1.4c-0.6,2.3-2.7,3.8-5.1,3.7c-2.8,0.1-5.2-2-5.3-4.8
		C276,416.6,276,416.5,276,416.4z"/>
	<path class="st3" d="M287.6,416.4c0-2.9,2.4-5.3,5.3-5.3c2.9,0,5.3,2.4,5.3,5.3v0.4H289c0.1,2.1,1.9,3.6,3.9,3.5
		c1.4,0.1,2.7-0.6,3.4-1.8h1.5c-1.3,2.7-4.5,3.8-7.2,2.5C288.9,420.2,287.7,418.4,287.6,416.4L287.6,416.4z M296.8,415.6
		c-0.5-2.1-2.7-3.5-4.8-3c-1.5,0.4-2.6,1.5-3,3H296.8z"/>
	<path class="st3" d="M299.5,418.6h1.4c0.1,1.1,1,1.8,2.7,1.8s2.7-0.8,2.7-1.9s-1.3-1.3-2.7-1.5c-1.8-0.2-3.8-0.5-3.8-2.7
		c0-1.9,1.5-3.1,3.8-3.1c2.3,0,3.7,1.3,3.8,3h-1.3c-0.1-1-1-1.7-2.5-1.7c-1.5,0-2.4,0.8-2.4,1.8c0,1.2,1.3,1.4,2.7,1.5
		s3.8,0.4,3.8,2.7c0,1.9-1.6,3.2-4,3.2C301.1,421.6,299.5,420.3,299.5,418.6z"/>
	<path class="st3" d="M314.5,417.7V408h1.3v3.5h5.8v1.2h-5.8v5c0,1.4,1.1,2.5,2.5,2.5c1.4,0,2.5-1.1,2.5-2.5v-0.2h1.3v0.2
		c0,2.1-1.7,3.9-3.9,3.9C316.2,421.5,314.5,419.8,314.5,417.7L314.5,417.7z"/>
	<path class="st3" d="M323.5,416.4c-0.1-2.9,2.3-5.4,5.2-5.4c2.9-0.1,5.4,2.3,5.4,5.2c0.1,2.9-2.3,5.4-5.2,5.4c0,0-0.1,0-0.1,0
		c-2.8,0.1-5.2-2-5.3-4.8C323.5,416.6,323.5,416.5,323.5,416.4z M332.8,416.4c0-2.2-1.8-4-4-4s-4,1.8-4,4s1.8,4,4,4
		c2.1,0.1,3.9-1.5,4-3.6C332.7,416.6,332.7,416.5,332.8,416.4L332.8,416.4z"/>
	<path class="st3" d="M341,415.6c0-2.9,1.7-4.4,4-4.4c1.5-0.1,3,0.8,3.6,2.2c0.6-1.4,2-2.3,3.6-2.2c2.3,0,4,1.4,4,4.4v5.8h-1.3v-5.8
		c0-2.1-1.2-3.1-2.8-3.1s-2.8,1.1-2.8,3.1v5.8h-1.3v-5.8c0-2.1-1.2-3.1-2.8-3.1s-2.8,1-2.8,3.1v5.8H341L341,415.6z"/>
	<path class="st3" d="M357.7,416.4c0.1-2.9,2.6-5.2,5.5-5.1c2.8,0.1,5,2.3,5.1,5.1v0.4h-9.2c0.1,2.1,1.9,3.6,4,3.5
		c1.4,0.1,2.7-0.6,3.4-1.8h1.5c-1.3,2.7-4.5,3.8-7.2,2.5C358.9,420.2,357.8,418.4,357.7,416.4z M366.9,415.6c-0.5-2.2-2.7-3.5-4.8-3
		c-1.5,0.3-2.6,1.5-3,3H366.9z"/>
	<path class="st3" d="M369.4,416.4c0.1-2.9,2.6-5.2,5.5-5.1c2.8,0.1,5,2.3,5.1,5.1v0.4h-9.2c0.1,2.1,1.9,3.6,4,3.5c0,0,0,0,0,0
		c1.4,0.1,2.7-0.6,3.4-1.8h1.5c-1.3,2.7-4.5,3.8-7.2,2.5C370.7,420.2,369.6,418.4,369.4,416.4L369.4,416.4z M378.6,415.6
		c-0.5-2.2-2.7-3.5-4.8-3c-1.5,0.3-2.6,1.5-3,3H378.6z"/>
	<path class="st3" d="M381.6,417.7V408h1.3v3.5h5.8v1.2h-5.8v5c-0.1,1.4,1,2.6,2.4,2.7c1.4,0.1,2.6-1,2.7-2.4c0-0.1,0-0.2,0-0.3
		v-0.2h1.3v0.2c0.1,2.1-1.5,4-3.7,4.1s-4-1.5-4.1-3.7C381.5,417.9,381.5,417.8,381.6,417.7L381.6,417.7z"/>
	<path class="st3" d="M396.4,422.6h1.3c0.6,1.3,1.9,2.1,3.4,2c2.1,0,3.6-1,3.6-3.6v-1.7c-0.7,1.4-2.2,2.3-3.8,2.2
		c-2.6,0-4.7-1.6-4.7-5v-5.1h1.3v5.1c0,2.4,1.4,3.7,3.5,3.7s3.5-1.3,3.5-3.7v-5.1h1.3v9.5c0,3.4-2.2,4.8-5,4.8
		C398.9,425.8,397,424.8,396.4,422.6z"/>
	<path class="st3" d="M408,416.4c-0.1-2.9,2.3-5.4,5.2-5.5s5.4,2.3,5.5,5.2s-2.3,5.4-5.2,5.5c0,0-0.1,0-0.1,0
		c-2.8,0.1-5.2-2-5.3-4.8C408,416.6,408,416.5,408,416.4z M417.2,416.4c0-2.2-1.8-4-4-4s-4,1.8-4,4s1.8,4,4,4c2.1,0.1,3.9-1.5,4-3.6
		C417.3,416.7,417.3,416.5,417.2,416.4L417.2,416.4z"/>
	<path class="st3" d="M420.2,416.6v-5.2h1.3v5.2c0,2.4,1.4,3.7,3.5,3.7s3.5-1.3,3.5-3.7v-5.2h1.4v5.2c0,3.3-2,5-4.9,5
		S420.2,419.9,420.2,416.6z"/>
	<path class="st3" d="M431.9,415.4c0-2.8,1.7-4.2,4.2-4.2s4.1,1.4,4.1,4.2v0.1h-1.3v-0.1c0-2.1-1.1-3-2.8-3s-2.8,0.9-2.8,3v5.9h-1.3
		V415.4z"/>
	<path class="st3" d="M446.4,416.4c0.1-2.9,2.6-5.2,5.5-5.1c2.8,0.1,5,2.3,5.1,5.1v0.4h-9.2c0.1,2.1,1.9,3.6,3.9,3.5
		c1.4,0.1,2.7-0.6,3.4-1.8h1.5c-1.3,2.7-4.5,3.8-7.2,2.5C447.6,420.2,446.5,418.4,446.4,416.4L446.4,416.4z M455.6,415.6
		c-0.5-2.1-2.7-3.5-4.8-3c-1.5,0.4-2.6,1.5-3,3H455.6z"/>
	<path class="st3" d="M461.6,416.3l-4-4.9h1.7l3.4,4.1l3.4-4.1h1.6l-4.1,4.9l4.2,5h-1.7l-3.5-4.3l-3.5,4.3h-1.6L461.6,416.3z"/>
	<path class="st3" d="M468.2,416.5c0-2.9,2.4-5.3,5.3-5.3c2.9,0,5.3,2.4,5.3,5.3v4.9h-1.2v-2.4c-0.7,1.7-2.4,2.8-4.3,2.7
		c-2.8,0.1-5.1-2.1-5.1-4.9C468.2,416.6,468.2,416.5,468.2,416.5z M477.5,416.4c0-2.2-1.8-4-4-4s-4,1.8-4,4s1.8,4,4,4
		c2.1,0.1,3.9-1.5,4-3.6C477.5,416.7,477.5,416.5,477.5,416.4z"/>
	<path class="st3" d="M480.4,416.4c-0.1-2.8,2.1-5.1,4.9-5.2c0.1,0,0.3,0,0.4,0c2.3-0.1,4.5,1.4,5.1,3.7h-1.4c-0.8-2-3.2-3-5.2-2.2
		s-3,3.2-2.2,5.2s3.2,3,5.2,2.2c1-0.4,1.8-1.2,2.2-2.2h1.3c-0.6,2.3-2.7,3.8-5,3.8c-2.8,0.2-5.2-2-5.4-4.8
		C480.4,416.7,480.3,416.6,480.4,416.4z"/>
	<path class="st3" d="M492.4,417.7V408h1.4v3.5h5.8v1.2h-5.8v5c0,1.4,1.1,2.5,2.5,2.5s2.5-1.1,2.5-2.5c0,0,0,0,0,0v-0.2h1.3v0.2
		c0,2.1-1.7,3.9-3.9,3.9C494.1,421.5,492.4,419.8,492.4,417.7L492.4,417.7z"/>
	<path class="st3" d="M135.8,439.4c0-2.8,1.7-4.2,4.2-4.2c2.5,0,4.1,1.4,4.1,4.2v0.1h-1.3v-0.1c0-2.1-1.1-3-2.8-3
		c-1.7,0-2.8,0.9-2.8,3v5.9h-1.3V439.4z"/>
	<path class="st3" d="M145,440.4c0-2.9,2.4-5.3,5.3-5.3c2.9,0,5.3,2.4,5.3,5.3v0.4h-9.2c0.1,2.1,1.9,3.6,3.9,3.5
		c1.4,0.1,2.7-0.6,3.4-1.8h1.5c-1.3,2.7-4.5,3.8-7.2,2.5C146.2,444.2,145.1,442.4,145,440.4z M154.2,439.6c-0.5-2.1-2.7-3.5-4.8-3
		c-1.5,0.4-2.6,1.5-3,3H154.2z"/>
	<path class="st3" d="M166,449.6v-6.3c-0.8,1.6-2.4,2.5-4.2,2.4c-2.8,0.1-5.1-2.1-5.2-4.8c0-0.1,0-0.2,0-0.4
		c-0.1-2.8,2.1-5.2,4.9-5.2c0.1,0,0.3,0,0.4,0c2.8-0.2,5.1,1.9,5.3,4.7c0,0.2,0,0.4,0,0.6v9.1H166z M166,440.4c0-2.2-1.8-4-4-4
		s-4,1.8-4,4s1.8,4,4,4c2.1,0.1,3.9-1.5,4-3.6C166,440.7,166,440.5,166,440.4z"/>
	<path class="st3" d="M169.3,440.6v-5.2h1.4v5.2c0,2.4,1.4,3.7,3.5,3.7s3.5-1.3,3.5-3.7v-5.2h1.3v5.2c0,3.3-2,5-4.9,5
		C171.3,445.6,169.3,443.9,169.3,440.6z"/>
	<path class="st3" d="M181.1,432.5c0-0.6,0.4-1,1-1c0.6,0,1,0.4,1,1s-0.4,1-1,1C181.5,433.5,181.1,433.1,181.1,432.5z M181.4,435.5
		h1.3v9.9h-1.3V435.5z"/>
	<path class="st3" d="M185.1,439.4c0-2.8,1.7-4.2,4.2-4.2c2.5,0,4.1,1.4,4.1,4.2v0.1h-1.3v-0.1c0-2.1-1.1-3-2.8-3
		c-1.7,0-2.8,0.9-2.8,3v5.9h-1.3V439.4z"/>
	<path class="st3" d="M194.3,440.4c0-2.9,2.4-5.3,5.3-5.3c2.9,0,5.3,2.4,5.3,5.3v0.4h-9.2c0.1,2.1,1.9,3.6,3.9,3.5
		c1.4,0.1,2.7-0.6,3.4-1.8h1.5c-1.3,2.7-4.5,3.8-7.2,2.5C195.6,444.2,194.4,442.4,194.3,440.4L194.3,440.4z M203.5,439.6
		c-0.5-2.1-2.7-3.5-4.8-3c-1.5,0.4-2.6,1.5-3,3H203.5z"/>
	<path class="st3" d="M206.5,439.6c0-2.9,1.7-4.4,4-4.4c1.5-0.1,3,0.8,3.6,2.2c0.6-1.4,2-2.3,3.6-2.2c2.3,0,4,1.4,4,4.4v5.8h-1.3
		v-5.8c0-2.1-1.2-3.1-2.8-3.1s-2.8,1.1-2.8,3.1v5.8h-1.3v-5.8c0-2.1-1.2-3.1-2.8-3.1s-2.8,1-2.8,3.1v5.8h-1.3L206.5,439.6z"/>
	<path class="st3" d="M223.2,440.4c0-2.9,2.4-5.3,5.3-5.3s5.3,2.4,5.3,5.3v0.4h-9.2c0.1,2.1,1.9,3.6,3.9,3.5
		c1.4,0.1,2.7-0.6,3.4-1.8h1.5c-1.3,2.7-4.5,3.8-7.2,2.5C224.4,444.2,223.2,442.4,223.2,440.4z M232.4,439.6c-0.5-2.1-2.7-3.5-4.8-3
		c-1.5,0.4-2.6,1.5-3,3H232.4z"/>
	<path class="st3" d="M235.3,440.2c0-3.3,2-5,4.9-5s4.9,1.7,4.9,5v5.2h-1.4v-5.2c0-2.4-1.4-3.7-3.5-3.7s-3.5,1.3-3.5,3.7v5.2h-1.3
		L235.3,440.2z"/>
	<path class="st3" d="M247,441.7V432h1.3v3.5h5.8v1.2h-5.8v5c0,1.4,1.1,2.5,2.5,2.5c1.4,0,2.5-1.1,2.5-2.5v-0.2h1.3v0.2
		c0,2.1-1.7,3.9-3.9,3.9C248.7,445.5,247,443.8,247,441.7L247,441.7L247,441.7z"/>
	<path class="st3" d="M256.1,442.6h1.4c0.1,1.1,1,1.8,2.7,1.8s2.7-0.8,2.7-1.9s-1.3-1.3-2.7-1.5c-1.8-0.2-3.8-0.5-3.8-2.7
		c0-1.9,1.5-3.1,3.8-3.1c2.3,0,3.7,1.3,3.8,3h-1.3c-0.1-1-1-1.7-2.5-1.7c-1.5,0-2.4,0.8-2.4,1.8c0,1.2,1.3,1.4,2.7,1.5
		s3.8,0.4,3.8,2.7c0,1.9-1.6,3.2-4,3.2C257.8,445.6,256.2,444.3,256.1,442.6z"/>
	<path class="st3" d="M265.9,444.6c0-0.6,0.4-1,1-1c0.6,0,1,0.4,1,1s-0.4,1-1,1C266.4,445.6,265.9,445.1,265.9,444.6z"/>
	<path class="st3" d="M275.3,438.8c-0.1-3.9,2.9-7.1,6.8-7.2c3.9-0.1,7.1,2.9,7.2,6.8c0.1,3.9-2.9,7.1-6.8,7.2c-0.1,0-0.1,0-0.2,0
		c-3.7,0.2-6.8-2.6-7-6.3C275.3,439.1,275.3,439,275.3,438.8z M287.8,438.8c0-3-2.4-5.5-5.5-5.6s-5.5,2.4-5.6,5.5
		c0,3,2.4,5.5,5.5,5.6c0,0,0,0,0,0c2.9,0.1,5.4-2.1,5.5-5.1C287.8,439.1,287.8,438.9,287.8,438.8L287.8,438.8z"/>
	<path class="st3" d="M290.9,440.6v-5.2h1.3v5.2c0,2.4,1.4,3.7,3.6,3.7c2.1,0,3.5-1.3,3.5-3.7v-5.2h1.4v5.2c0,3.3-2,5-4.9,5
		S290.9,443.9,290.9,440.6z"/>
	<path class="st3" d="M302.6,439.4c0-2.8,1.7-4.2,4.2-4.2s4.1,1.4,4.1,4.2v0.1h-1.3v-0.1c0-2.1-1.1-3-2.8-3c-1.7,0-2.8,0.9-2.8,3
		v5.9h-1.3V439.4z"/>
	<path class="st3" d="M317.6,439.6c0-2.9,1.7-4.4,4-4.4c1.5-0.1,3,0.8,3.6,2.2c0.6-1.4,2-2.3,3.6-2.2c2.3,0,4,1.4,4,4.4v5.8h-1.3
		v-5.8c0-2.1-1.2-3.1-2.8-3.1c-1.6,0-2.8,1.1-2.8,3.1v5.8h-1.3v-5.8c0-2.1-1.2-3.1-2.8-3.1s-2.8,1-2.8,3.1v5.8h-1.4L317.6,439.6z"/>
	<path class="st3" d="M334.2,440.4c0.1-2.9,2.6-5.2,5.5-5.1c2.8,0.1,5,2.3,5.1,5.1v0.4h-9.2c0.1,2.1,1.9,3.6,4,3.5c0,0,0,0,0,0
		c1.4,0.1,2.7-0.6,3.4-1.8h1.5c-1.3,2.7-4.5,3.8-7.2,2.5C335.5,444.2,334.4,442.4,334.2,440.4L334.2,440.4z M343.5,439.6
		c-0.5-2.2-2.7-3.5-4.8-3c-1.5,0.3-2.6,1.5-3,3H343.5z"/>
	<path class="st3" d="M346.4,441.7V432h1.3v3.5h5.8v1.2h-5.8v5c0,1.4,1.1,2.5,2.5,2.5s2.5-1.1,2.5-2.5c0,0,0,0,0,0v-0.2h1.3v0.2
		c0.1,2.1-1.5,4-3.7,4.1s-4-1.5-4.1-3.7C346.4,441.9,346.4,441.8,346.4,441.7L346.4,441.7z"/>
	<path class="st3" d="M356.1,431.1h1.3v6.2c0.7-1.4,2.2-2.3,3.7-2.2c2.6,0,4.7,1.6,4.7,5v5.2h-1.3v-5.2c0-2.4-1.4-3.7-3.5-3.7
		s-3.5,1.3-3.5,3.7v5.2h-1.3V431.1z"/>
	<path class="st3" d="M367.4,440.4c-0.1-2.9,2.3-5.4,5.2-5.5s5.4,2.3,5.5,5.2s-2.3,5.4-5.2,5.5c0,0-0.1,0-0.1,0
		c-2.8,0.1-5.2-2-5.3-4.8C367.4,440.6,367.4,440.5,367.4,440.4z M376.7,440.4c0-2.2-1.8-4-4-4s-4,1.8-4,4s1.8,4,4,4
		c2.1,0.1,3.9-1.5,4-3.6C376.7,440.7,376.7,440.5,376.7,440.4L376.7,440.4z"/>
	<path class="st3" d="M379.2,440.4c-0.1-2.8,2.1-5.1,4.8-5.2c0.1,0,0.2,0,0.3,0c1.7-0.1,3.4,0.8,4.2,2.4v-6.4h1.3v9.2
		c0.1,2.8-2,5.1-4.7,5.3c-0.2,0-0.4,0-0.6,0c-2.8,0.1-5.2-2-5.3-4.8C379.2,440.6,379.2,440.5,379.2,440.4z M388.5,440.4
		c0-2.2-1.8-4-4-4s-4,1.8-4,4s1.8,4,4,4c2.1,0.1,3.9-1.5,4-3.6C388.5,440.7,388.5,440.5,388.5,440.4L388.5,440.4z"/>
	<path class="st3" d="M391.4,440.4c0-2.9,2.3-5.4,5.2-5.4c2.9,0,5.4,2.3,5.4,5.2c0,2.9-2.3,5.4-5.2,5.4c0,0-0.1,0-0.1,0
		c-2.8,0.1-5.2-2-5.3-4.8C391.4,440.7,391.4,440.5,391.4,440.4z M400.7,440.4c0-2.2-1.8-4-4-4s-4,1.8-4,4s1.8,4,4,4
		c2.1,0.1,3.9-1.5,4-3.6C400.7,440.7,400.7,440.5,400.7,440.4L400.7,440.4z"/>
	<path class="st3" d="M404,431.1h1.3v14.2H404V431.1z"/>
	<path class="st3" d="M407.3,440.4c-0.1-2.9,2.3-5.4,5.2-5.4c2.9-0.1,5.4,2.3,5.4,5.2c0.1,2.9-2.3,5.4-5.2,5.4c0,0-0.1,0-0.1,0
		c-2.8,0.1-5.2-2-5.3-4.8C407.3,440.6,407.3,440.5,407.3,440.4z M416.6,440.4c0-2.2-1.8-4-4-4s-4,1.8-4,4s1.8,4,4,4
		c2.1,0.1,3.9-1.5,4-3.6C416.6,440.7,416.6,440.5,416.6,440.4z"/>
	<path class="st3" d="M419.5,446.6h1.4c0.5,1.4,1.9,2,3.6,2c2.3,0,3.9-1.1,3.9-4.1v-1.4c-0.8,1.6-2.4,2.5-4.2,2.4
		c-2.7,0.1-5-2-5.1-4.7c0-0.1,0-0.3,0-0.4c0-2.9,2.4-5.3,5.3-5.3s5.3,2.4,5.3,5.3v4.1c0,3.8-2.3,5.3-5.2,5.3
		C422.1,449.8,420.2,448.8,419.5,446.6z M428.4,440.4c0.3-2.2-1.2-4.2-3.4-4.5s-4.2,1.2-4.5,3.4c-0.1,0.4-0.1,0.8,0,1.1
		c0.3,2.2,2.3,3.7,4.5,3.4C426.7,443.5,428.1,442.2,428.4,440.4z"/>
	<path class="st3" d="M431.7,446.6h1.3c0.6,1.3,1.9,2.1,3.4,2c2.1,0,3.6-1,3.6-3.6v-1.7c-0.7,1.4-2.2,2.3-3.7,2.2
		c-2.6,0-4.7-1.6-4.7-5v-5.1h1.3v5.1c0,2.4,1.4,3.7,3.5,3.7s3.5-1.3,3.5-3.7v-5.1h1.3v9.5c0,3.4-2.2,4.8-4.9,4.8
		C434.2,449.8,432.4,448.8,431.7,446.6z"/>
	<path class="st3" d="M449,432.5c0-0.6,0.4-1,1-1s1,0.4,1,1s-0.4,1-1,1S449,433.1,449,432.5z M449.4,435.5h1.3v9.9h-1.3L449.4,435.5
		z"/>
	<path class="st3" d="M452.7,442.6h1.4c0.1,1.1,1,1.8,2.7,1.8s2.7-0.8,2.7-1.9s-1.3-1.3-2.7-1.5c-1.8-0.2-3.8-0.5-3.8-2.7
		c0-1.9,1.5-3.1,3.8-3.1s3.7,1.3,3.8,3h-1.3c-0.1-1-1-1.7-2.5-1.7s-2.4,0.8-2.4,1.8c0,1.2,1.3,1.4,2.7,1.5s3.8,0.4,3.8,2.7
		c0,1.9-1.6,3.2-4,3.2S452.8,444.3,452.7,442.6z"/>
	<path class="st3" d="M467.7,440.2c0-3.3,2-5,4.9-5s4.9,1.7,4.9,5v5.2h-1.3v-5.2c0-2.4-1.4-3.7-3.5-3.7s-3.5,1.3-3.5,3.7v5.2h-1.3
		V440.2z"/>
	<path class="st3" d="M479.5,432.5c0-0.6,0.4-1,1-1s1,0.4,1,1s-0.4,1-1,1S479.5,433.1,479.5,432.5z M479.8,435.5h1.3v9.9h-1.3V435.5
		z"/>
	<path class="st3" d="M483.5,439.6c0-2.9,1.7-4.4,4-4.4c1.5-0.1,3,0.8,3.6,2.2c0.6-1.4,2-2.3,3.6-2.2c2.3,0,4,1.4,4,4.4v5.8h-1.4
		v-5.8c0-2.1-1.2-3.1-2.8-3.1s-2.8,1.1-2.8,3.1v5.8h-1.3v-5.8c0-2.1-1.2-3.1-2.8-3.1s-2.8,1-2.8,3.1v5.8h-1.3L483.5,439.6z"/>
	<path class="st3" d="M500.6,440.3v-9.2h1.3v6.4c0.8-1.5,2.4-2.5,4.2-2.4c2.8-0.1,5.1,2.1,5.1,4.9c0,0.1,0,0.2,0,0.3
		c0.1,2.8-2.1,5.2-4.9,5.2c-0.1,0-0.3,0-0.4,0c-2.8,0.2-5.1-1.9-5.3-4.7C500.6,440.7,500.6,440.5,500.6,440.3z M509.8,440.4
		c0-2.2-1.8-4-4-4s-4,1.8-4,4s1.8,4,4,4c2.1,0.1,3.9-1.5,4-3.6C509.9,440.7,509.9,440.5,509.8,440.4z"/>
	<path class="st3" d="M513.1,431.1h1.3v14.2h-1.3V431.1z"/>
	<path class="st3" d="M516.4,440.4c0-2.9,2.4-5.3,5.3-5.3c2.9,0,5.3,2.4,5.3,5.3v0.4h-9.2c0.1,2.1,1.9,3.6,3.9,3.5
		c1.4,0.1,2.7-0.6,3.4-1.8h1.5c-1.3,2.7-4.5,3.8-7.2,2.5C517.6,444.2,516.5,442.4,516.4,440.4z M525.6,439.6c-0.5-2.1-2.7-3.5-4.8-3
		c-1.5,0.4-2.6,1.5-3,3H525.6z"/>
	<path class="st3" d="M529.2,445.5c-0.4-0.1-0.7-0.5-0.7-1c0-0.6,0.4-1,1-1c0.6,0,1,0.4,1,1c0,0.2-0.1,0.4-0.1,0.6l-1.1,2.7h-0.8
		L529.2,445.5z"/>
	<path class="st3" d="M135,456.5c0-0.6,0.4-1,1-1c0.6,0,1,0.4,1,1s-0.4,1-1,1C135.4,457.5,135,457.1,135,456.5z M135.3,459.5h1.4
		v9.9h-1.4V459.5z"/>
	<path class="st3" d="M139,465.7V456h1.3v3.5h5.8v1.2h-5.8v5c0,1.4,1.1,2.5,2.5,2.5c1.4,0,2.5-1.1,2.5-2.5c0,0,0,0,0,0v-0.2h1.3v0.2
		c0.2,1.9-1.2,3.7-3.1,3.9c-0.2,0-0.5,0-0.7,0c-2,0.2-3.7-1.3-3.9-3.2C139,466.1,139,465.9,139,465.7z"/>
	<path class="st3" d="M153.3,464.4c0-2.9,2.4-5.3,5.3-5.3c2.9,0,5.3,2.4,5.3,5.3v0.4h-9.2c0.1,2.1,1.9,3.6,3.9,3.5
		c1.4,0.1,2.7-0.6,3.4-1.8h1.5c-1.3,2.7-4.5,3.8-7.2,2.5C154.6,468.2,153.4,466.4,153.3,464.4L153.3,464.4z M162.5,463.6
		c-0.5-2.2-2.6-3.5-4.8-3c-1.5,0.3-2.7,1.5-3,3H162.5z"/>
	<path class="st3" d="M165.9,455.1h1.3v14.2h-1.3V455.1z"/>
	<path class="st3" d="M169.6,456.5c0-0.6,0.4-1,1-1c0.6,0,1,0.4,1,1s-0.4,1-1,1C170,457.5,169.6,457.1,169.6,456.5z M169.9,459.5
		h1.3v9.9h-1.3V459.5z"/>
	<path class="st3" d="M173.6,463.6c0-2.9,1.7-4.4,4-4.4c1.5-0.1,3,0.8,3.6,2.2c0.6-1.4,2-2.3,3.6-2.2c2.3,0,4,1.4,4,4.4v5.8h-1.3
		v-5.8c0-2.1-1.2-3.1-2.8-3.1c-1.6,0-2.8,1.1-2.8,3.1v5.8h-1.3v-5.8c0-2.1-1.2-3.1-2.8-3.1s-2.8,1-2.8,3.1v5.8h-1.3V463.6z"/>
	<path class="st3" d="M190.7,456.5c0-0.6,0.4-1,1-1c0.6,0,1,0.4,1,1s-0.4,1-1,1C191.2,457.5,190.7,457.1,190.7,456.5z M191.1,459.5
		h1.3v9.9h-1.3V459.5z"/>
	<path class="st3" d="M194.7,464.2c0-3.3,2-5,4.9-5c2.9,0,4.9,1.7,4.9,5v5.2h-1.4v-5.2c0-2.4-1.4-3.7-3.5-3.7s-3.5,1.3-3.5,3.7v5.2
		h-1.3V464.2z"/>
	<path class="st3" d="M206,464.5c0-2.9,2.4-5.3,5.3-5.3c2.9,0,5.3,2.4,5.3,5.3v4.9h-1.2v-2.4c-0.7,1.7-2.4,2.8-4.3,2.7
		c-2.8,0.1-5.1-2.1-5.1-4.9C206,464.6,206,464.5,206,464.5z M215.3,464.4c0-2.2-1.8-4-4-4s-4,1.8-4,4c0,2.2,1.8,4,4,4
		c2.1,0.1,3.9-1.5,4-3.6C215.3,464.7,215.3,464.5,215.3,464.4z"/>
	<path class="st3" d="M218.6,465.7V456h1.3v3.5h5.8v1.2h-5.8v5c0,1.4,1.1,2.5,2.5,2.5c1.4,0,2.5-1.1,2.5-2.5v-0.2h1.3v0.2
		c0,2.1-1.7,3.9-3.9,3.9S218.6,467.8,218.6,465.7L218.6,465.7z"/>
	<path class="st3" d="M227.6,464.4c0-2.9,2.4-5.3,5.3-5.3s5.3,2.4,5.3,5.3v0.4H229c0.1,2.1,1.9,3.6,3.9,3.5c1.4,0.1,2.7-0.6,3.4-1.8
		h1.5c-1.3,2.7-4.5,3.8-7.2,2.5C228.8,468.2,227.7,466.4,227.6,464.4z M236.8,463.6c-0.5-2.1-2.7-3.5-4.8-3c-1.5,0.4-2.6,1.5-3,3
		H236.8z"/>
	<path class="st3" d="M239.4,466.6h1.4c0.1,1.1,1,1.8,2.7,1.8s2.7-0.8,2.7-1.9s-1.3-1.3-2.7-1.5c-1.8-0.2-3.8-0.5-3.8-2.7
		c0-1.9,1.5-3.1,3.8-3.1s3.7,1.3,3.8,3h-1.3c-0.1-1-1-1.7-2.5-1.7s-2.4,0.8-2.4,1.8c0,1.2,1.3,1.4,2.7,1.5s3.8,0.4,3.8,2.7
		c0,1.9-1.6,3.2-4,3.2S239.5,468.3,239.4,466.6z"/>
	<path class="st3" d="M254,464.4c-0.1-2.8,2.1-5.1,4.8-5.2c0.1,0,0.2,0,0.3,0c1.7-0.1,3.4,0.8,4.2,2.4v-6.4h1.3v9.2
		c0.1,2.8-2,5.1-4.7,5.3c-0.2,0-0.4,0-0.6,0c-2.8,0.1-5.2-2-5.3-4.8C254,464.6,254,464.5,254,464.4z M263.3,464.4c0-2.2-1.8-4-4-4
		s-4,1.8-4,4s1.8,4,4,4c0,0,0,0,0,0c2.1,0.1,3.9-1.5,4-3.6C263.3,464.7,263.3,464.5,263.3,464.4L263.3,464.4z"/>
	<path class="st3" d="M266.6,456.5c0-0.6,0.4-1,1-1c0.6,0,1,0.4,1,1s-0.4,1-1,1C267.1,457.5,266.6,457.1,266.6,456.5z M267,459.5
		h1.3v9.9H267V459.5z"/>
	<path class="st3" d="M270.3,466.6h1.4c0.1,1.1,1,1.8,2.7,1.8s2.7-0.8,2.7-1.9s-1.3-1.3-2.7-1.5c-1.8-0.2-3.8-0.5-3.8-2.7
		c0-1.9,1.5-3.1,3.8-3.1c2.3,0,3.7,1.3,3.8,3h-1.3c-0.1-1-1-1.7-2.5-1.7c-1.5,0-2.4,0.8-2.4,1.8c0,1.2,1.3,1.4,2.7,1.5
		s3.8,0.4,3.8,2.7c0,1.9-1.6,3.2-4,3.2C272,469.6,270.4,468.3,270.3,466.6z"/>
	<path class="st3" d="M280,463.4c0-2.8,1.7-4.2,4.2-4.2c2.5,0,4.1,1.4,4.1,4.2v0.1H287v-0.1c0-2.1-1.1-3-2.8-3c-1.7,0-2.8,0.9-2.8,3
		v5.9H280V463.4z"/>
	<path class="st3" d="M289.6,464.6v-5.2h1.3v5.2c0,2.4,1.4,3.7,3.5,3.7c2.1,0,3.5-1.3,3.5-3.7v-5.2h1.3v5.2c0,3.3-2,5-4.9,5
		S289.6,467.9,289.6,464.6z"/>
	<path class="st3" d="M301.4,464.5c-0.1-2.8,2-5.1,4.7-5.3c0.2,0,0.4,0,0.6,0c2.8-0.1,5.2,2,5.3,4.8c0,0.1,0,0.3,0,0.4
		c0.1,2.8-2.1,5.1-4.8,5.2c-0.1,0-0.2,0-0.3,0c-1.7,0.1-3.4-0.8-4.2-2.4v6.3h-1.3V464.5z M310.6,464.4c0-2.2-1.8-4-4-4s-4,1.8-4,4
		c0,2.2,1.8,4,4,4c2.1,0.1,3.9-1.5,4-3.6C310.6,464.7,310.6,464.5,310.6,464.4z"/>
	<path class="st3" d="M313.5,465.7V456h1.4v3.5h5.8v1.2h-5.8v5c0,1.4,1.1,2.5,2.5,2.5c1.4,0,2.5-1.1,2.5-2.5v-0.2h1.3v0.2
		c0.1,2.1-1.5,4-3.7,4.1s-4-1.5-4.1-3.7C313.5,465.9,313.5,465.8,313.5,465.7L313.5,465.7z"/>
	<path class="st3" d="M323,456.5c0-0.6,0.4-1,1-1c0.6,0,1,0.4,1,1s-0.4,1-1,1C323.4,457.5,323,457.1,323,456.5z M323.3,459.5h1.3
		v9.9h-1.3L323.3,459.5z"/>
	<path class="st3" d="M326.6,464.4c-0.1-2.9,2.3-5.4,5.2-5.5s5.4,2.3,5.5,5.2c0.1,2.9-2.3,5.4-5.2,5.5c0,0-0.1,0-0.1,0
		c-2.8,0.1-5.2-2-5.3-4.8C326.6,464.6,326.6,464.5,326.6,464.4z M335.9,464.4c0-2.2-1.8-4-4-4s-4,1.8-4,4c0,2.2,1.8,4,4,4
		c2.1,0.1,3.9-1.5,4-3.6C335.9,464.7,335.9,464.5,335.9,464.4z"/>
	<path class="st3" d="M338.8,464.2c0-3.3,2-5,4.9-5s4.9,1.7,4.9,5v5.2h-1.3v-5.2c0-2.4-1.4-3.7-3.5-3.7s-3.5,1.3-3.5,3.7v5.2h-1.3
		L338.8,464.2z"/>
	<path class="st3" d="M355.4,464.5c0.1-2.9,2.6-5.2,5.5-5.1c2.8,0.1,5,2.3,5.1,5.1v4.9h-1.2v-2.4c-0.7,1.7-2.4,2.8-4.3,2.7
		c-2.8,0.1-5.1-2.1-5.1-4.9C355.4,464.6,355.4,464.5,355.4,464.5z M364.7,464.4c0-2.2-1.8-4-4-4s-4,1.8-4,4c0,2.2,1.8,4,4,4
		c2.1,0.1,3.9-1.5,4-3.6C364.7,464.7,364.7,464.5,364.7,464.4L364.7,464.4z"/>
	<path class="st3" d="M368,464.2c0-3.3,2-5,4.9-5s4.9,1.7,4.9,5v5.2h-1.3v-5.2c0-2.4-1.4-3.7-3.5-3.7s-3.5,1.3-3.5,3.7v5.2H368
		L368,464.2z"/>
	<path class="st3" d="M379.3,464.4c-0.1-2.8,2.1-5.1,4.8-5.2c0.1,0,0.2,0,0.3,0c1.7-0.1,3.4,0.8,4.2,2.4v-6.4h1.3v9.2
		c0.1,2.8-2,5.1-4.7,5.3c-0.2,0-0.4,0-0.6,0c-2.8,0.1-5.2-2-5.3-4.8C379.3,464.6,379.3,464.5,379.3,464.4z M388.6,464.4
		c0-2.2-1.8-4-4-4s-4,1.8-4,4s1.8,4,4,4h0c2.1,0.1,3.9-1.5,4-3.6C388.6,464.7,388.6,464.5,388.6,464.4L388.6,464.4z"/>
	<path class="st3" d="M397.2,463.6c0-2.9,1.7-4.4,4-4.4c1.5-0.1,3,0.8,3.6,2.2c0.6-1.4,2-2.3,3.6-2.2c2.3,0,4,1.4,4,4.4v5.8H411
		v-5.8c0-2.1-1.2-3.1-2.8-3.1s-2.8,1.1-2.8,3.1v5.8h-1.3v-5.8c0-2.1-1.2-3.1-2.8-3.1s-2.8,1-2.8,3.1v5.8h-1.3L397.2,463.6z"/>
	<path class="st3" d="M414.3,456.5c0-0.6,0.4-1,1-1s1,0.4,1,1s-0.4,1-1,1S414.3,457.1,414.3,456.5z M414.7,459.5h1.3v9.9h-1.3
		L414.7,459.5z"/>
	<path class="st3" d="M418.3,464.2c0-3.3,2-5,4.9-5s4.9,1.7,4.9,5v5.2h-1.4v-5.2c0-2.4-1.4-3.7-3.5-3.7s-3.5,1.3-3.5,3.7v5.2h-1.3
		L418.3,464.2z"/>
	<path class="st3" d="M430.1,456.5c0-0.6,0.4-1,1-1s1,0.4,1,1s-0.4,1-1,1S430.1,457.1,430.1,456.5z M430.4,459.5h1.3v9.9h-1.3V459.5
		z"/>
	<path class="st3" d="M434.1,463.6c0-2.9,1.7-4.4,4-4.4c1.5-0.1,3,0.8,3.6,2.2c0.6-1.4,2-2.3,3.6-2.2c2.3,0,4,1.4,4,4.4v5.8h-1.3
		v-5.8c0-2.1-1.2-3.1-2.8-3.1s-2.8,1.1-2.8,3.1v5.8H441v-5.8c0-2.1-1.2-3.1-2.8-3.1s-2.8,1-2.8,3.1v5.8h-1.3L434.1,463.6z"/>
	<path class="st3" d="M451.2,456.5c0-0.6,0.4-1,1-1s1,0.4,1,1s-0.4,1-1,1S451.2,457.1,451.2,456.5z M451.6,459.5h1.3v9.9h-1.3V459.5
		z"/>
	<path class="st3" d="M455,468.3l7.1-7.6h-6.8v-1.2h8.6v1.1l-7.1,7.6h7.3v1.2H455L455,468.3z"/>
	<path class="st3" d="M465.3,464.4c0.1-2.9,2.6-5.2,5.5-5.1c2.8,0.1,5,2.3,5.1,5.1v0.4h-9.2c0.1,2.1,1.9,3.6,3.9,3.5
		c1.4,0.1,2.7-0.6,3.4-1.8h1.5c-1.3,2.7-4.5,3.8-7.2,2.5C466.5,468.2,465.3,466.4,465.3,464.4L465.3,464.4z M474.5,463.6
		c-0.5-2.2-2.7-3.5-4.8-3c-1.5,0.3-2.6,1.5-3,3H474.5z"/>
	<path class="st3" d="M477.1,466.6h1.4c0.1,1.1,1,1.8,2.7,1.8s2.7-0.8,2.7-1.9s-1.3-1.3-2.7-1.5c-1.8-0.2-3.8-0.5-3.8-2.7
		c0-1.9,1.5-3.1,3.8-3.1s3.8,1.3,3.8,3h-1.3c-0.1-1-1-1.7-2.5-1.7s-2.4,0.8-2.4,1.8c0,1.2,1.3,1.4,2.7,1.5s3.8,0.4,3.8,2.7
		c0,1.9-1.6,3.2-4,3.2S477.1,468.3,477.1,466.6z"/>
	<path class="st3" d="M491.7,464.4c-0.1-2.8,2.1-5.1,4.9-5.2c0.1,0,0.3,0,0.4,0c2.4-0.1,4.5,1.4,5.1,3.7h-1.4c-0.8-2-3.2-3-5.2-2.2
		s-3,3.2-2.2,5.2s3.2,3,5.2,2.2c1-0.4,1.8-1.2,2.2-2.2h1.4c-0.6,2.3-2.7,3.8-5.1,3.7c-2.8,0.1-5.2-2.1-5.3-4.9
		C491.7,464.6,491.7,464.5,491.7,464.4z"/>
	<path class="st3" d="M503.3,464.4c-0.1-2.9,2.3-5.4,5.2-5.5c2.9-0.1,5.4,2.3,5.5,5.2s-2.3,5.4-5.2,5.5c0,0-0.1,0-0.1,0
		c-2.8,0.1-5.2-2-5.3-4.8C503.3,464.6,503.3,464.5,503.3,464.4z M512.6,464.4c0-2.2-1.8-4-4-4s-4,1.8-4,4c0,2.2,1.8,4,4,4
		c2.1,0.1,3.9-1.5,4-3.6C512.6,464.7,512.6,464.5,512.6,464.4z"/>
	<path class="st3" d="M515.2,466.6h1.4c0.1,1.1,1,1.8,2.7,1.8s2.7-0.8,2.7-1.9s-1.3-1.3-2.7-1.5c-1.8-0.2-3.8-0.5-3.8-2.7
		c0-1.9,1.5-3.1,3.8-3.1s3.7,1.3,3.8,3h-1.3c-0.1-1-1-1.7-2.5-1.7c-1.5,0-2.4,0.8-2.4,1.8c0,1.2,1.3,1.4,2.7,1.5
		c1.4,0.2,3.8,0.4,3.8,2.7c0,1.9-1.6,3.2-4,3.2C516.8,469.6,515.2,468.3,515.2,466.6z"/>
	<path class="st3" d="M524.9,465.7V456h1.3v3.5h5.8v1.2h-5.8v5c0,1.4,1.1,2.5,2.5,2.5c1.4,0,2.5-1.1,2.5-2.5c0,0,0,0,0,0v-0.2h1.3
		v0.2c0,2.1-1.7,3.9-3.9,3.9S524.9,467.8,524.9,465.7L524.9,465.7z"/>
	<path class="st3" d="M534.7,468.6c0-0.6,0.4-1,1-1c0.6,0,1,0.4,1,1s-0.4,1-1,1C535.1,469.6,534.7,469.1,534.7,468.6z"/>
	
		<linearGradient id="SVGID_4_" gradientUnits="userSpaceOnUse" x1="166.725" y1="177.13" x2="754.9949" y2="177.13" gradientTransform="matrix(1 0 0 -1 0 718.2254)">
		<stop  offset="4.000000e-02" style="stop-color:#44CCF9"/>
		<stop  offset="0.12" style="stop-color:#48C4EF"/>
		<stop  offset="0.25" style="stop-color:#53AED4"/>
		<stop  offset="0.42" style="stop-color:#648BA9"/>
		<stop  offset="0.63" style="stop-color:#7C596D"/>
		<stop  offset="0.85" style="stop-color:#9B1B21"/>
		<stop  offset="0.95" style="stop-color:#A80000"/>
	</linearGradient>
	<path class="st4" d="M166.7,539c0-5.3,3.8-9.1,9.3-9.1c5.5,0,9.3,3.8,9.3,9.1s-3.9,9.1-9.3,9.1C170.6,548.1,166.7,544.2,166.7,539z
		 M183.4,539c0-4.1-3.3-7.4-7.3-7.4c-4.1,0-7.4,3.3-7.4,7.3c0,4.1,3.3,7.4,7.3,7.4c0,0,0,0,0,0c3.9,0.1,7.2-2.9,7.3-6.8
		C183.4,539.3,183.4,539.2,183.4,539L183.4,539z M187.6,541.4v-6.9h1.8v6.9c0,3.2,1.9,5,4.7,5s4.7-1.8,4.7-5v-6.9h1.8v6.9
		c0,4.4-2.6,6.7-6.5,6.7C190.2,548.1,187.5,545.8,187.6,541.4L187.6,541.4z M203.2,539.8c0-3.8,2.3-5.7,5.6-5.7s5.5,1.8,5.5,5.7v0.2
		h-1.8v-0.2c0-2.8-1.5-4-3.8-4s-3.8,1.2-3.8,4v7.9h-1.8L203.2,539.8z M223.2,541.2c-0.2-3.7,2.7-6.8,6.4-7c0.2,0,0.4,0,0.6,0
		c3.8-0.2,6.9,2.7,7.1,6.4c0,0.2,0,0.4,0,0.6c0.1,3.7-2.7,6.8-6.4,6.9c-0.1,0-0.3,0-0.4,0c-2.3,0.1-4.5-1.1-5.6-3.2v8.5h-1.8V541.2z
		 M235.6,541.1c0-2.9-2.4-5.3-5.3-5.3c-2.9,0-5.3,2.4-5.3,5.3c0,2.9,2.4,5.3,5.3,5.3c0,0,0,0,0,0c2.8,0.1,5.2-2.1,5.2-4.9
		C235.6,541.4,235.6,541.2,235.6,541.1L235.6,541.1z M239.5,539.8c0-3.8,2.3-5.7,5.6-5.7s5.5,1.8,5.5,5.7v0.2h-1.8v-0.2
		c0-2.8-1.5-4-3.8-4s-3.8,1.2-3.8,4v7.9h-1.8L239.5,539.8z M251.8,541.1c-0.1-3.9,3.1-7.2,7-7.2c3.9-0.1,7.2,3.1,7.2,7
		c0.1,3.9-3.1,7.2-7,7.2c0,0-0.1,0-0.1,0c-3.7,0.2-7-2.6-7.2-6.4C251.8,541.5,251.8,541.3,251.8,541.1L251.8,541.1z M264.3,541.1
		c0-2.9-2.4-5.3-5.3-5.3c-2.9,0-5.3,2.4-5.3,5.3c0,2.9,2.4,5.3,5.3,5.3c0,0,0,0,0,0c2.8,0.1,5.2-2.1,5.2-4.9
		C264.2,541.4,264.2,541.2,264.3,541.1L264.3,541.1z M267.6,541.1c-0.1-3.7,2.8-6.9,6.6-7c0.2,0,0.4,0,0.6,0c3.1-0.2,6,1.9,6.8,4.9
		h-1.8c-1.1-2.7-4.2-4-6.9-2.9c-2.7,1.1-4,4.2-2.9,6.9s4.2,4,6.9,2.9c1.3-0.5,2.3-1.6,2.9-2.9h1.8c-0.8,3-3.7,5.1-6.8,4.9
		c-3.7,0.2-6.9-2.6-7.2-6.4C267.6,541.5,267.6,541.3,267.6,541.1L267.6,541.1z M283.1,541.1c0-3.9,3.2-7.1,7.1-7.1
		c3.9,0,7.1,3.2,7.1,7.1l0,0v0.6h-12.4c0.2,2.8,2.5,4.9,5.3,4.7c1.8,0.1,3.6-0.8,4.5-2.4h2c-1.7,3.6-6,5.1-9.6,3.3
		C284.7,546.2,283.2,543.8,283.1,541.1L283.1,541.1z M295.4,540.1c-0.6-2.9-3.3-4.8-6.2-4.2c-2.1,0.4-3.8,2.1-4.2,4.2H295.4z
		 M298.9,544h1.8c0.1,1.4,1.4,2.4,3.6,2.4s3.6-1.1,3.6-2.5c0-1.6-1.7-1.8-3.6-2c-2.4-0.3-5.1-0.7-5.1-3.6c0-2.5,1.9-4.2,5-4.2
		s5,1.7,5.1,4h-1.8c-0.1-1.3-1.3-2.3-3.3-2.3s-3.2,1-3.2,2.4c0,1.6,1.7,1.8,3.6,2.1c2.1,0.3,5.1,0.6,5.1,3.6c0,2.5-2.1,4.3-5.4,4.3
		C301,548.2,299,546.3,298.9,544L298.9,544z M311.4,544h1.8c0.1,1.4,1.4,2.4,3.6,2.4s3.6-1.1,3.6-2.5c0-1.6-1.7-1.8-3.6-2
		c-2.4-0.3-5.1-0.7-5.1-3.6c0-2.5,2-4.2,5.1-4.2s5,1.7,5,4h-1.8c-0.1-1.3-1.3-2.3-3.3-2.3s-3.2,1-3.2,2.4c0,1.6,1.7,1.8,3.6,2.1
		c2.1,0.3,5.1,0.6,5.1,3.6c0,2.5-2.1,4.3-5.4,4.3C313.6,548.2,311.5,546.3,311.4,544L311.4,544z M331.5,530.6c0-0.8,0.6-1.4,1.4-1.4
		c0.8,0,1.4,0.6,1.4,1.4s-0.6,1.4-1.4,1.4c0,0,0,0,0,0C332.1,532,331.5,531.4,331.5,530.6C331.5,530.7,331.5,530.6,331.5,530.6z
		 M332,534.6h1.8v13.2H332V534.6z M336.9,540.9c0-4.4,2.6-6.7,6.5-6.7s6.5,2.3,6.5,6.7v6.9h-1.8v-6.9c0-3.3-1.9-5-4.7-5
		s-4.7,1.7-4.7,5v6.9h-1.8L336.9,540.9z M359.1,541.3c0-3.9,3.2-7.1,7.1-7.1s7.1,3.2,7.1,7.1v6.5h-1.7v-3.3
		c-0.9,2.3-3.2,3.7-5.7,3.6c-3.7,0.1-6.7-2.8-6.8-6.4C359.1,541.5,359.1,541.4,359.1,541.3L359.1,541.3z M371.5,541.2
		c0-2.9-2.4-5.3-5.3-5.3c-2.9,0-5.3,2.4-5.3,5.3c0,2.9,2.4,5.3,5.3,5.3c0,0,0,0,0,0c2.8,0.1,5.2-2.1,5.3-4.9
		C371.5,541.4,371.5,541.3,371.5,541.2L371.5,541.2z M383.1,540.9c0-4.4,2.6-6.7,6.5-6.7s6.5,2.3,6.5,6.7v6.9h-1.8v-6.9
		c0-3.3-1.9-5-4.7-5s-4.7,1.7-4.7,5v6.9h-1.8L383.1,540.9z M398.7,541.5v-6.9h1.8v6.9c0,3.2,1.9,5,4.7,5s4.7-1.8,4.7-5v-6.9h1.8v6.9
		c0,4.4-2.6,6.7-6.5,6.7S398.7,545.8,398.7,541.5L398.7,541.5z M414.4,542.9v-13h1.8v4.7h7.8v1.6h-7.8v6.7c0,2.4,1.3,3.5,3.4,3.5
		s3.4-1.1,3.4-3.5v-0.3h1.7v0.3c0,3.5-2.1,5.2-5.1,5.2S414.4,546.3,414.4,542.9L414.4,542.9z M426.5,544.1h1.8
		c0.1,1.4,1.4,2.4,3.6,2.4s3.6-1.1,3.6-2.5c0-1.6-1.7-1.8-3.6-2c-2.4-0.3-5.1-0.7-5.1-3.6c0-2.5,2-4.2,5-4.2s5,1.7,5.1,4h-1.8
		c-0.1-1.3-1.3-2.3-3.3-2.3s-3.2,1-3.2,2.4c0,1.6,1.7,1.8,3.6,2.1c2.1,0.3,5.1,0.6,5.1,3.6c0,2.5-2.1,4.3-5.4,4.3
		S426.6,546.3,426.5,544.1L426.5,544.1z M439.9,528.8h1.8v8.3c0.9-1.9,2.9-3,5-2.9c3.5,0,6.3,2.1,6.3,6.7v6.9h-1.8v-6.9
		c0-3.3-1.9-5-4.7-5s-4.7,1.8-4.7,5v6.9h-1.8L439.9,528.8z M455,541.2c0-3.9,3.2-7.1,7.1-7.1c3.9,0,7.1,3.2,7.1,7.1v0.6h-12.3
		c0.2,2.8,2.5,4.9,5.3,4.7c1.8,0.1,3.6-0.8,4.5-2.4h2c-1.7,3.6-6,5.1-9.6,3.3C456.7,546.2,455.2,543.8,455,541.2L455,541.2z
		 M467.4,540.2c-0.6-2.9-3.3-4.8-6.2-4.2c-2.1,0.4-3.8,2.1-4.2,4.2H467.4z M471.8,528.8h1.8v19h-1.8V528.8z M477.2,528.8h1.8v19
		h-1.8V528.8z M482.7,536.9c0-0.7,0.6-1.4,1.3-1.4c0,0,0,0,0.1,0c0.8,0,1.4,0.6,1.4,1.4s-0.6,1.4-1.4,1.4
		C483.3,538.3,482.7,537.7,482.7,536.9L482.7,536.9z M482.7,546.8c0-0.7,0.6-1.4,1.3-1.4c0,0,0,0,0.1,0c0.8,0,1.4,0.6,1.4,1.4
		s-0.6,1.4-1.4,1.4C483.3,548.2,482.7,547.5,482.7,546.8L482.7,546.8z"/>
	<g id="_07">
		<g>
			
				<linearGradient id="SVGID_5_" gradientUnits="userSpaceOnUse" x1="1509.4635" y1="31.8368" x2="1574.3113" y2="31.8368" gradientTransform="matrix(-1.745329e-04 1 1 1.745329e-04 482.5638 -1000.3564)">
				<stop  offset="0" style="stop-color:#FFFFFF"/>
				<stop  offset="1" style="stop-color:#FFFFFF"/>
			</linearGradient>
			<path class="st5" d="M511.2,571c0-1.8,1.7-3.3,3.6-2.8c1.1,0.2,1.9,1.1,2.2,2.2c0.4,1.9-1,3.6-2.8,3.6l0,0
				C512.5,574,511.2,572.7,511.2,571z M514.1,560.7c1.8,0,3.3-1.7,2.8-3.6c-0.2-1.1-1.1-1.9-2.2-2.2c-1.9-0.4-3.6,1-3.6,2.8v0
				C511.2,559.4,512.5,560.7,514.1,560.7L514.1,560.7L514.1,560.7z M514.1,551.6c1.8,0,3.3-1.7,2.8-3.6c-0.2-1.1-1.1-1.9-2.2-2.2
				c-1.9-0.4-3.6,1-3.6,2.8l0,0C511.2,550.3,512.5,551.6,514.1,551.6L514.1,551.6L514.1,551.6z M514.1,542.4c1.8,0,3.3-1.7,2.8-3.6
				c-0.2-1.1-1.1-1.9-2.2-2.2c-1.9-0.4-3.6,1-3.6,2.8l0,0C511.2,541.1,512.5,542.4,514.1,542.4L514.1,542.4L514.1,542.4z
				 M514.1,533.3c1.8,0,3.3-1.7,2.8-3.6c-0.2-1.1-1.1-1.9-2.2-2.2c-1.9-0.4-3.6,1-3.6,2.8l0,0C511.2,532,512.5,533.3,514.1,533.3
				L514.1,533.3L514.1,533.3z M514.1,524.1c1.8,0,3.3-1.7,2.8-3.6c-0.2-1.1-1.1-1.9-2.2-2.2c-1.9-0.4-3.6,1-3.6,2.8l0,0
				C511.2,522.8,512.5,524.1,514.1,524.1L514.1,524.1L514.1,524.1z M514.1,515c1.8,0,3.3-1.7,2.8-3.6c-0.2-1.1-1.1-1.9-2.2-2.2
				c-1.9-0.4-3.6,1-3.6,2.8l0,0C511.2,513.7,512.5,515,514.1,515L514.1,515L514.1,515z M508.3,568.1c1.8,0,3.3-1.7,2.8-3.6
				c-0.2-1.1-1.1-1.9-2.2-2.2c-1.9-0.4-3.6,1-3.6,2.8v0C505.3,566.8,506.7,568.1,508.3,568.1L508.3,568.1L508.3,568.1z M502.4,562.3
				c1.8,0,3.3-1.7,2.8-3.6c-0.2-1.1-1.1-1.9-2.2-2.2c-1.9-0.4-3.6,1-3.6,2.8l0,0C499.5,561,500.8,562.3,502.4,562.3L502.4,562.3
				L502.4,562.3z M522.9,565.2c0-1.8-1.7-3.3-3.6-2.8c-1.1,0.2-1.9,1.1-2.2,2.2c-0.4,1.9,1,3.6,2.8,3.6l0,0
				C521.6,568.1,522.9,566.9,522.9,565.2C522.9,565.2,522.9,565.2,522.9,565.2L522.9,565.2z M528.7,559.4c0-1.8-1.7-3.3-3.6-2.8
				c-1.1,0.2-1.9,1.1-2.2,2.2c-0.4,1.9,1,3.6,2.8,3.6l0,0C527.4,562.3,528.7,561,528.7,559.4C528.8,559.4,528.8,559.4,528.7,559.4
				L528.7,559.4z"/>
		</g>
	</g>
</g>
</svg>
