<?xml version="1.0" encoding="utf-8"?>
<!-- Generator: Adobe Illustrator 24.0.1, SVG Export Plug-In . SVG Version: 6.00 Build 0)  -->
<svg version="1.1" id="SeerCycle" xmlns="http://www.w3.org/2000/svg" xmlns:xlink="http://www.w3.org/1999/xlink" x="0px" y="0px"
	 viewBox="0 0 673 674.8" style="enable-background:new 0 0 673 674.8;" xml:space="preserve">
<style type="text/css">
	.st0{fill:url(#SVGID_1_);}
	.st1{fill:url(#SVGID_2_);}
	.st2{fill:url(#SVGID_3_);}
	.st3{fill:url(#SVGID_4_);}
	.st4{fill:url(#SVGID_5_);}
	.st5{fill:url(#SVGID_6_);}
	.st6{fill:url(#SVGID_7_);}
	.st7{fill:url(#SVGID_8_);}
	.st8{fill:url(#SVGID_9_);}
	.st9{fill:url(#SVGID_10_);}
	.st10{fill:url(#SVGID_11_);}
	.st11{fill:url(#SVGID_12_);}
	.st12{fill:url(#SVGID_13_);}
	.st13{fill:url(#SVGID_14_);}
	.st14{fill:url(#SVGID_15_);}
	.st15{fill:url(#SVGID_16_);}
	.st16{fill:url(#SVGID_17_);}
	.st17{fill:url(#SVGID_18_);}
	.st18{fill:url(#SVGID_19_);}
	.st19{fill:url(#SVGID_20_);}
	.st20{fill:url(#SVGID_21_);}
	.st21{fill:url(#SVGID_22_);}
	.st22{fill:url(#SVGID_23_);}
	.st23{fill:url(#SVGID_24_);}
	.st24{fill:url(#SVGID_25_);}
	.st25{fill:url(#SVGID_26_);}
	.st26{fill:url(#SVGID_27_);}
	.st27{fill:url(#SVGID_28_);}
	.st28{fill:url(#SVGID_29_);}
	.st29{fill:url(#SVGID_30_);}
	.st30{fill:url(#SVGID_31_);}
	.st31{fill:url(#SVGID_32_);}
	.st32{fill:url(#SVGID_33_);}
	.st33{fill:url(#SVGID_34_);}
	.st34{fill:url(#SVGID_35_);}
	.st35{fill:url(#SVGID_36_);}
	.st36{fill:url(#SVGID_37_);}
	.st37{fill:url(#SVGID_38_);}
	.st38{fill:url(#SVGID_39_);}
	.st39{fill:url(#SVGID_40_);}
	.st40{fill:url(#SVGID_41_);}
	.st41{fill:url(#SVGID_42_);}
	.st42{fill:url(#SVGID_43_);}
	.st43{fill:url(#SVGID_44_);}
	.st44{fill:url(#SVGID_45_);}
	.st45{fill:url(#SVGID_46_);}
	.st46{fill:url(#SVGID_47_);}
	.st47{fill:url(#SVGID_48_);}
	.st48{fill:url(#SVGID_49_);}
	.st49{fill:url(#SVGID_50_);}
	.st50{fill:url(#SVGID_51_);}
	.st51{fill:url(#SVGID_52_);}
	.st52{fill:url(#SVGID_53_);}
	.st53{fill:url(#SVGID_54_);}
	.st54{fill:url(#SVGID_55_);}
	.st55{fill:url(#SVGID_56_);}
	.st56{fill:url(#SVGID_57_);}
	.st57{fill:url(#SVGID_58_);}
	.st58{fill:url(#SVGID_59_);}
	.st59{fill:url(#SVGID_60_);}
	.st60{fill:url(#SVGID_61_);}
	.st61{fill:url(#SVGID_62_);}
	.st62{fill:url(#SVGID_63_);}
	.st63{fill:url(#SVGID_64_);}
	.st64{fill:url(#SVGID_65_);}
	.st65{fill:url(#SVGID_66_);}
	.st66{fill:url(#SVGID_67_);}
	.st67{fill:url(#SVGID_68_);}
	.st68{fill:url(#SVGID_69_);}
	.st69{fill:url(#SVGID_70_);}
	.st70{fill:url(#SVGID_71_);}
	.st71{fill:url(#SVGID_72_);}
	.st72{fill:url(#SVGID_73_);}
	.st73{fill:url(#SVGID_74_);}
	.st74{fill:url(#SVGID_75_);}
	.st75{fill:url(#SVGID_76_);}
	.st76{fill:url(#SVGID_77_);}
	.st77{fill:url(#SVGID_78_);}
	.st78{fill:url(#SVGID_79_);}
	.st79{fill:url(#SVGID_80_);}
	.st80{fill:url(#SVGID_81_);}
	.st81{fill:url(#SVGID_82_);}
	.st82{fill:url(#SVGID_83_);}
	.st83{fill:url(#SVGID_84_);}
	.st84{fill:url(#SVGID_85_);}
	.st85{fill:url(#SVGID_86_);}
	.st86{fill:url(#SVGID_87_);}
	.st87{fill:url(#SVGID_88_);}
	.st88{fill:url(#SVGID_89_);}
	.st89{fill:url(#SVGID_90_);}
	.st90{opacity:5.000000e-02;fill:#FFFFFF;enable-background:new    ;}
	.st91{fill:url(#SVGID_91_);}
	.st92{fill:#FFFFFF;}
	.st93{fill:url(#SVGID_92_);}
	.st94{fill:url(#SVGID_93_);}
	.st95{fill:url(#SVGID_94_);}
	.st96{fill:url(#SVGID_95_);}
	.st97{fill:url(#SVGID_96_);}
	.st98{fill:url(#SVGID_97_);}
	.st99{fill:url(#SVGID_98_);}
	.st100{fill:url(#SVGID_99_);}
	.st101{fill:url(#SVGID_100_);}
	.st102{fill:url(#SVGID_101_);}
	.st103{fill:url(#SVGID_102_);}
	.st104{fill:url(#SVGID_103_);}
	.st105{fill:url(#SVGID_104_);}
	.st106{fill:url(#SVGID_105_);}
	.st107{fill:url(#SVGID_106_);}
	.st108{fill:url(#SVGID_107_);}
	.st109{fill:url(#SVGID_108_);}
	.st110{fill:url(#SVGID_109_);}
	.st111{fill:url(#SVGID_110_);}
	.st112{fill:url(#SVGID_111_);}
	.st113{fill:url(#SVGID_112_);}
</style>
<linearGradient id="SVGID_1_" gradientUnits="userSpaceOnUse" x1="282.536" y1="730.6758" x2="287.566" y2="730.6758" gradientTransform="matrix(0.9585 -0.285 -0.285 -0.9585 183.6332 867.8624)">
	<stop  offset="1.000000e-02" style="stop-color:#35435F"/>
	<stop  offset="0.97" style="stop-color:#000000"/>
</linearGradient>
<circle class="st0" cx="248.6" cy="86.2" r="2.5"/>
<linearGradient id="SVGID_2_" gradientUnits="userSpaceOnUse" x1="293.4375" y1="731.3047" x2="298.4674" y2="731.3047" gradientTransform="matrix(0.9585 -0.285 -0.285 -0.9585 183.6332 867.8624)">
	<stop  offset="1.000000e-02" style="stop-color:#35435F"/>
	<stop  offset="0.97" style="stop-color:#000000"/>
</linearGradient>
<circle class="st1" cx="258.9" cy="82.5" r="2.5"/>
<linearGradient id="SVGID_3_" gradientUnits="userSpaceOnUse" x1="288.4683" y1="736.5396" x2="293.4897" y2="736.5396" gradientTransform="matrix(0.9585 -0.285 -0.285 -0.9585 183.6332 867.8624)">
	<stop  offset="1.000000e-02" style="stop-color:#35435F"/>
	<stop  offset="0.97" style="stop-color:#000000"/>
</linearGradient>
<circle class="st2" cx="252.6" cy="78.9" r="2.5"/>
<linearGradient id="SVGID_4_" gradientUnits="userSpaceOnUse" x1="288.4683" y1="725.8579" x2="293.4897" y2="725.8579" gradientTransform="matrix(0.9585 -0.285 -0.285 -0.9585 183.6332 867.8624)">
	<stop  offset="1.000000e-02" style="stop-color:#35435F"/>
	<stop  offset="0.97" style="stop-color:#000000"/>
</linearGradient>
<circle class="st3" cx="255.7" cy="89.2" r="2.5"/>
<linearGradient id="SVGID_5_" gradientUnits="userSpaceOnUse" x1="282.8184" y1="741.1168" x2="287.8483" y2="741.1168" gradientTransform="matrix(0.9585 -0.285 -0.285 -0.9585 183.6332 867.8624)">
	<stop  offset="1.000000e-02" style="stop-color:#35435F"/>
	<stop  offset="0.97" style="stop-color:#000000"/>
</linearGradient>
<circle class="st4" cx="245.9" cy="76.2" r="2.5"/>
<linearGradient id="SVGID_6_" gradientUnits="userSpaceOnUse" x1="282.8213" y1="721.2849" x2="287.8513" y2="721.2849" gradientTransform="matrix(0.9585 -0.285 -0.285 -0.9585 183.6332 867.8624)">
	<stop  offset="1.000000e-02" style="stop-color:#35435F"/>
	<stop  offset="0.97" style="stop-color:#000000"/>
</linearGradient>
<circle class="st5" cx="251.5" cy="95.2" r="2.5"/>
<linearGradient id="SVGID_7_" gradientUnits="userSpaceOnUse" x1="275.2312" y1="730.4588" x2="280.2612" y2="730.4588" gradientTransform="matrix(0.9585 -0.285 -0.285 -0.9585 183.6332 867.8624)">
	<stop  offset="1.000000e-02" style="stop-color:#35435F"/>
	<stop  offset="0.97" style="stop-color:#000000"/>
</linearGradient>
<circle class="st6" cx="241.7" cy="88.5" r="2.5"/>
<linearGradient id="SVGID_8_" gradientUnits="userSpaceOnUse" x1="267.7792" y1="729.7118" x2="272.8092" y2="729.7118" gradientTransform="matrix(0.9585 -0.285 -0.285 -0.9585 183.6332 867.8624)">
	<stop  offset="1.000000e-02" style="stop-color:#35435F"/>
	<stop  offset="0.97" style="stop-color:#000000"/>
</linearGradient>
<circle class="st7" cx="234.7" cy="91.4" r="2.5"/>
<linearGradient id="SVGID_9_" gradientUnits="userSpaceOnUse" x1="260.3184" y1="728.8756" x2="265.3397" y2="728.8756" gradientTransform="matrix(0.9585 -0.285 -0.285 -0.9585 183.6332 867.8624)">
	<stop  offset="1.000000e-02" style="stop-color:#35435F"/>
	<stop  offset="0.97" style="stop-color:#000000"/>
</linearGradient>
<circle class="st8" cx="227.8" cy="94.3" r="2.5"/>
<linearGradient id="SVGID_10_" gradientUnits="userSpaceOnUse" x1="252.8829" y1="728.1737" x2="257.9129" y2="728.1737" gradientTransform="matrix(0.9585 -0.285 -0.285 -0.9585 183.6332 867.8624)">
	<stop  offset="1.000000e-02" style="stop-color:#35435F"/>
	<stop  offset="0.97" style="stop-color:#000000"/>
</linearGradient>
<circle class="st9" cx="220.9" cy="97.1" r="2.5"/>
<linearGradient id="SVGID_11_" gradientUnits="userSpaceOnUse" x1="245.1884" y1="726.4376" x2="250.2097" y2="726.4376" gradientTransform="matrix(0.9585 -0.285 -0.285 -0.9585 183.6332 867.8624)">
	<stop  offset="1.000000e-02" style="stop-color:#35435F"/>
	<stop  offset="0.97" style="stop-color:#000000"/>
</linearGradient>
<circle class="st10" cx="214" cy="101" r="2.5"/>
<linearGradient id="SVGID_12_" gradientUnits="userSpaceOnUse" x1="335.7201" y1="865.7581" x2="340.74" y2="865.7581" gradientTransform="matrix(0.46 -0.89 -0.89 -0.46 712.7563 918.7979)">
	<stop  offset="1.000000e-02" style="stop-color:#35435F"/>
	<stop  offset="0.97" style="stop-color:#000000"/>
</linearGradient>
<circle class="st11" cx="96.6" cy="221.9" r="2.5"/>
<linearGradient id="SVGID_13_" gradientUnits="userSpaceOnUse" x1="346.62" y1="866.3414" x2="351.6501" y2="866.3414" gradientTransform="matrix(0.46 -0.89 -0.89 -0.46 712.7563 918.7979)">
	<stop  offset="1.000000e-02" style="stop-color:#35435F"/>
	<stop  offset="0.97" style="stop-color:#000000"/>
</linearGradient>
<circle class="st12" cx="101.1" cy="211.9" r="2.5"/>
<linearGradient id="SVGID_14_" gradientUnits="userSpaceOnUse" x1="341.64" y1="871.5831" x2="346.6701" y2="871.5831" gradientTransform="matrix(0.46 -0.89 -0.89 -0.46 712.7563 918.7979)">
	<stop  offset="1.000000e-02" style="stop-color:#35435F"/>
	<stop  offset="0.97" style="stop-color:#000000"/>
</linearGradient>
<circle class="st13" cx="94.2" cy="213.9" r="2.5"/>
<linearGradient id="SVGID_15_" gradientUnits="userSpaceOnUse" x1="341.64" y1="860.9173" x2="346.6701" y2="860.9173" gradientTransform="matrix(0.46 -0.89 -0.89 -0.46 712.7563 918.7979)">
	<stop  offset="1.000000e-02" style="stop-color:#35435F"/>
	<stop  offset="0.97" style="stop-color:#000000"/>
</linearGradient>
<circle class="st14" cx="103.6" cy="218.9" r="2.5"/>
<linearGradient id="SVGID_16_" gradientUnits="userSpaceOnUse" x1="336" y1="876.1777" x2="341.0301" y2="876.1777" gradientTransform="matrix(0.46 -0.89 -0.89 -0.46 712.7563 918.7979)">
	<stop  offset="1.000000e-02" style="stop-color:#35435F"/>
	<stop  offset="0.97" style="stop-color:#000000"/>
</linearGradient>
<circle class="st15" cx="87.5" cy="216.8" r="2.5"/>
<linearGradient id="SVGID_17_" gradientUnits="userSpaceOnUse" x1="336" y1="856.3773" x2="341.0301" y2="856.3773" gradientTransform="matrix(0.46 -0.89 -0.89 -0.46 712.7563 918.7979)">
	<stop  offset="1.000000e-02" style="stop-color:#35435F"/>
	<stop  offset="0.97" style="stop-color:#000000"/>
</linearGradient>
<circle class="st16" cx="105.1" cy="226" r="2.5"/>
<linearGradient id="SVGID_18_" gradientUnits="userSpaceOnUse" x1="328.4101" y1="865.5844" x2="333.44" y2="865.5844" gradientTransform="matrix(0.46 -0.89 -0.89 -0.46 712.7563 918.7979)">
	<stop  offset="1.000000e-02" style="stop-color:#35435F"/>
	<stop  offset="0.97" style="stop-color:#000000"/>
</linearGradient>
<circle class="st17" cx="93.4" cy="228.5" r="2.5"/>
<linearGradient id="SVGID_19_" gradientUnits="userSpaceOnUse" x1="320.9601" y1="864.8643" x2="325.99" y2="864.8643" gradientTransform="matrix(0.46 -0.89 -0.89 -0.46 712.7563 918.7979)">
	<stop  offset="1.000000e-02" style="stop-color:#35435F"/>
	<stop  offset="0.97" style="stop-color:#000000"/>
</linearGradient>
<circle class="st18" cx="90.6" cy="235.4" r="2.5"/>
<linearGradient id="SVGID_20_" gradientUnits="userSpaceOnUse" x1="313.49" y1="864.0635" x2="318.5201" y2="864.0635" gradientTransform="matrix(0.46 -0.89 -0.89 -0.46 712.7563 918.7979)">
	<stop  offset="1.000000e-02" style="stop-color:#35435F"/>
	<stop  offset="0.97" style="stop-color:#000000"/>
</linearGradient>
<circle class="st19" cx="87.9" cy="242.4" r="2.5"/>
<linearGradient id="SVGID_21_" gradientUnits="userSpaceOnUse" x1="306.06" y1="863.406" x2="311.0901" y2="863.406" gradientTransform="matrix(0.46 -0.89 -0.89 -0.46 712.7563 918.7979)">
	<stop  offset="1.000000e-02" style="stop-color:#35435F"/>
	<stop  offset="0.97" style="stop-color:#000000"/>
</linearGradient>
<circle class="st20" cx="85.1" cy="249.3" r="2.5"/>
<linearGradient id="SVGID_22_" gradientUnits="userSpaceOnUse" x1="298.3601" y1="861.7138" x2="303.39" y2="861.7138" gradientTransform="matrix(0.46 -0.89 -0.89 -0.46 712.7563 918.7979)">
	<stop  offset="1.000000e-02" style="stop-color:#35435F"/>
	<stop  offset="0.97" style="stop-color:#000000"/>
</linearGradient>
<circle class="st21" cx="83" cy="256.9" r="2.5"/>
<linearGradient id="SVGID_23_" gradientUnits="userSpaceOnUse" x1="569.6542" y1="-234.9987" x2="574.6842" y2="-234.9987" gradientTransform="matrix(0.2741 0.9617 0.9617 -0.2741 657.613 -364.6443)">
	<stop  offset="1.000000e-02" style="stop-color:#35435F"/>
	<stop  offset="0.97" style="stop-color:#000000"/>
</linearGradient>
<circle class="st22" cx="588.5" cy="250.1" r="2.5"/>
<linearGradient id="SVGID_24_" gradientUnits="userSpaceOnUse" x1="580.5642" y1="-234.3629" x2="585.5942" y2="-234.3629" gradientTransform="matrix(0.2741 0.9617 0.9617 -0.2741 657.613 -364.6443)">
	<stop  offset="1.000000e-02" style="stop-color:#35435F"/>
	<stop  offset="0.97" style="stop-color:#000000"/>
</linearGradient>
<circle class="st23" cx="592.1" cy="260.4" r="2.5"/>
<linearGradient id="SVGID_25_" gradientUnits="userSpaceOnUse" x1="575.5842" y1="-229.138" x2="580.6142" y2="-229.138" gradientTransform="matrix(0.2741 0.9617 0.9617 -0.2741 657.613 -364.6443)">
	<stop  offset="1.000000e-02" style="stop-color:#35435F"/>
	<stop  offset="0.97" style="stop-color:#000000"/>
</linearGradient>
<circle class="st24" cx="595.7" cy="254.1" r="2.5"/>
<linearGradient id="SVGID_26_" gradientUnits="userSpaceOnUse" x1="575.5842" y1="-239.8178" x2="580.6142" y2="-239.8178" gradientTransform="matrix(0.2741 0.9617 0.9617 -0.2741 657.613 -364.6443)">
	<stop  offset="1.000000e-02" style="stop-color:#35435F"/>
	<stop  offset="0.97" style="stop-color:#000000"/>
</linearGradient>
<circle class="st25" cx="585.5" cy="257.1" r="2.5"/>
<linearGradient id="SVGID_27_" gradientUnits="userSpaceOnUse" x1="569.9442" y1="-224.5564" x2="574.9742" y2="-224.5564" gradientTransform="matrix(0.2741 0.9617 0.9617 -0.2741 657.613 -364.6443)">
	<stop  offset="1.000000e-02" style="stop-color:#35435F"/>
	<stop  offset="0.97" style="stop-color:#000000"/>
</linearGradient>
<circle class="st26" cx="598.6" cy="247.5" r="2.5"/>
<linearGradient id="SVGID_28_" gradientUnits="userSpaceOnUse" x1="569.9442" y1="-244.3871" x2="574.9742" y2="-244.3871" gradientTransform="matrix(0.2741 0.9617 0.9617 -0.2741 657.613 -364.6443)">
	<stop  offset="1.000000e-02" style="stop-color:#35435F"/>
	<stop  offset="0.97" style="stop-color:#000000"/>
</linearGradient>
<circle class="st27" cx="579.5" cy="252.9" r="2.5"/>
<linearGradient id="SVGID_29_" gradientUnits="userSpaceOnUse" x1="562.3542" y1="-235.2134" x2="567.3755" y2="-235.2134" gradientTransform="matrix(0.2741 0.9617 0.9617 -0.2741 657.613 -364.6443)">
	<stop  offset="1.000000e-02" style="stop-color:#35435F"/>
	<stop  offset="0.97" style="stop-color:#000000"/>
</linearGradient>
<circle class="st28" cx="586.3" cy="243.1" r="2.5"/>
<linearGradient id="SVGID_30_" gradientUnits="userSpaceOnUse" x1="554.9042" y1="-235.9721" x2="559.9342" y2="-235.9721" gradientTransform="matrix(0.2741 0.9617 0.9617 -0.2741 657.613 -364.6443)">
	<stop  offset="1.000000e-02" style="stop-color:#35435F"/>
	<stop  offset="0.97" style="stop-color:#000000"/>
</linearGradient>
<circle class="st29" cx="583.5" cy="236.1" r="2.5"/>
<linearGradient id="SVGID_31_" gradientUnits="userSpaceOnUse" x1="547.4342" y1="-236.8077" x2="552.4642" y2="-236.8077" gradientTransform="matrix(0.2741 0.9617 0.9617 -0.2741 657.613 -364.6443)">
	<stop  offset="1.000000e-02" style="stop-color:#35435F"/>
	<stop  offset="0.97" style="stop-color:#000000"/>
</linearGradient>
<circle class="st30" cx="580.6" cy="229.2" r="2.5"/>
<linearGradient id="SVGID_32_" gradientUnits="userSpaceOnUse" x1="540.0042" y1="-237.4964" x2="545.0342" y2="-237.4964" gradientTransform="matrix(0.2741 0.9617 0.9617 -0.2741 657.613 -364.6443)">
	<stop  offset="1.000000e-02" style="stop-color:#35435F"/>
	<stop  offset="0.97" style="stop-color:#000000"/>
</linearGradient>
<circle class="st31" cx="577.9" cy="222.2" r="2.5"/>
<linearGradient id="SVGID_33_" gradientUnits="userSpaceOnUse" x1="532.3042" y1="-239.2415" x2="537.3342" y2="-239.2415" gradientTransform="matrix(0.2741 0.9617 0.9617 -0.2741 657.613 -364.6443)">
	<stop  offset="1.000000e-02" style="stop-color:#35435F"/>
	<stop  offset="0.97" style="stop-color:#000000"/>
</linearGradient>
<circle class="st32" cx="574.2" cy="215.3" r="2.5"/>
<linearGradient id="SVGID_34_" gradientUnits="userSpaceOnUse" x1="472.0542" y1="378.1629" x2="477.0841" y2="378.1629" gradientTransform="matrix(0.8803 0.4744 0.4744 -0.8803 -144.9078 205.4623)">
	<stop  offset="1.000000e-02" style="stop-color:#35435F"/>
	<stop  offset="0.97" style="stop-color:#000000"/>
</linearGradient>
<circle class="st33" cx="452.3" cy="97.7" r="2.5"/>
<linearGradient id="SVGID_35_" gradientUnits="userSpaceOnUse" x1="482.9541" y1="378.8012" x2="487.9841" y2="378.8012" gradientTransform="matrix(0.8803 0.4744 0.4744 -0.8803 -144.9078 205.4623)">
	<stop  offset="1.000000e-02" style="stop-color:#35435F"/>
	<stop  offset="0.97" style="stop-color:#000000"/>
</linearGradient>
<circle class="st34" cx="462.2" cy="102.3" r="2.5"/>
<linearGradient id="SVGID_36_" gradientUnits="userSpaceOnUse" x1="477.9741" y1="384.0269" x2="483.0042" y2="384.0269" gradientTransform="matrix(0.8803 0.4744 0.4744 -0.8803 -144.9078 205.4623)">
	<stop  offset="1.000000e-02" style="stop-color:#35435F"/>
	<stop  offset="0.97" style="stop-color:#000000"/>
</linearGradient>
<circle class="st35" cx="460.3" cy="95.3" r="2.5"/>
<linearGradient id="SVGID_37_" gradientUnits="userSpaceOnUse" x1="477.9741" y1="373.3514" x2="483.0042" y2="373.3514" gradientTransform="matrix(0.8803 0.4744 0.4744 -0.8803 -144.9078 205.4623)">
	<stop  offset="1.000000e-02" style="stop-color:#35435F"/>
	<stop  offset="0.97" style="stop-color:#000000"/>
</linearGradient>
<circle class="st36" cx="455.2" cy="104.7" r="2.5"/>
<linearGradient id="SVGID_38_" gradientUnits="userSpaceOnUse" x1="472.3341" y1="388.6102" x2="477.3641" y2="388.6102" gradientTransform="matrix(0.8803 0.4744 0.4744 -0.8803 -144.9078 205.4623)">
	<stop  offset="1.000000e-02" style="stop-color:#35435F"/>
	<stop  offset="0.97" style="stop-color:#000000"/>
</linearGradient>
<circle class="st37" cx="457.5" cy="88.6" r="2.5"/>
<linearGradient id="SVGID_39_" gradientUnits="userSpaceOnUse" x1="472.3341" y1="368.7758" x2="477.3641" y2="368.7758" gradientTransform="matrix(0.8803 0.4744 0.4744 -0.8803 -144.9078 205.4623)">
	<stop  offset="1.000000e-02" style="stop-color:#35435F"/>
	<stop  offset="0.97" style="stop-color:#000000"/>
</linearGradient>
<circle class="st38" cx="448.1" cy="106.1" r="2.5"/>
<linearGradient id="SVGID_40_" gradientUnits="userSpaceOnUse" x1="464.7441" y1="377.9525" x2="469.7742" y2="377.9525" gradientTransform="matrix(0.8803 0.4744 0.4744 -0.8803 -144.9078 205.4623)">
	<stop  offset="1.000000e-02" style="stop-color:#35435F"/>
	<stop  offset="0.97" style="stop-color:#000000"/>
</linearGradient>
<circle class="st39" cx="445.7" cy="94.4" r="2.5"/>
<linearGradient id="SVGID_41_" gradientUnits="userSpaceOnUse" x1="457.2942" y1="377.1962" x2="462.3242" y2="377.1962" gradientTransform="matrix(0.8803 0.4744 0.4744 -0.8803 -144.9078 205.4623)">
	<stop  offset="1.000000e-02" style="stop-color:#35435F"/>
	<stop  offset="0.97" style="stop-color:#000000"/>
</linearGradient>
<circle class="st40" cx="438.8" cy="91.5" r="2.5"/>
<linearGradient id="SVGID_42_" gradientUnits="userSpaceOnUse" x1="449.8242" y1="376.3634" x2="454.8541" y2="376.3634" gradientTransform="matrix(0.8803 0.4744 0.4744 -0.8803 -144.9078 205.4623)">
	<stop  offset="1.000000e-02" style="stop-color:#35435F"/>
	<stop  offset="0.97" style="stop-color:#000000"/>
</linearGradient>
<circle class="st41" cx="431.8" cy="88.7" r="2.5"/>
<linearGradient id="SVGID_43_" gradientUnits="userSpaceOnUse" x1="442.3942" y1="375.666" x2="447.4242" y2="375.666" gradientTransform="matrix(0.8803 0.4744 0.4744 -0.8803 -144.9078 205.4623)">
	<stop  offset="1.000000e-02" style="stop-color:#35435F"/>
	<stop  offset="0.97" style="stop-color:#000000"/>
</linearGradient>
<circle class="st42" cx="425" cy="85.8" r="2.5"/>
<linearGradient id="SVGID_44_" gradientUnits="userSpaceOnUse" x1="434.6942" y1="373.9268" x2="439.7241" y2="373.9268" gradientTransform="matrix(0.8803 0.4744 0.4744 -0.8803 -144.9078 205.4623)">
	<stop  offset="1.000000e-02" style="stop-color:#35435F"/>
	<stop  offset="0.97" style="stop-color:#000000"/>
</linearGradient>
<circle class="st43" cx="417.4" cy="83.7" r="2.5"/>
<linearGradient id="SVGID_45_" gradientUnits="userSpaceOnUse" x1="1407.7816" y1="973.342" x2="1412.8116" y2="973.342" gradientTransform="matrix(-0.9585 0.285 0.285 0.9585 1499.9268 -745.7224)">
	<stop  offset="1.000000e-02" style="stop-color:#35435F"/>
	<stop  offset="0.97" style="stop-color:#000000"/>
</linearGradient>
<circle class="st44" cx="425.5" cy="589.2" r="2.5"/>
<linearGradient id="SVGID_46_" gradientUnits="userSpaceOnUse" x1="1418.6816" y1="973.971" x2="1423.7117" y2="973.971" gradientTransform="matrix(-0.9585 0.285 0.285 0.9585 1499.9268 -745.7224)">
	<stop  offset="1.000000e-02" style="stop-color:#35435F"/>
	<stop  offset="0.97" style="stop-color:#000000"/>
</linearGradient>
<circle class="st45" cx="415.2" cy="592.9" r="2.5"/>
<linearGradient id="SVGID_47_" gradientUnits="userSpaceOnUse" x1="1413.7117" y1="979.2059" x2="1418.733" y2="979.2059" gradientTransform="matrix(-0.9585 0.285 0.285 0.9585 1499.9268 -745.7224)">
	<stop  offset="1.000000e-02" style="stop-color:#35435F"/>
	<stop  offset="0.97" style="stop-color:#000000"/>
</linearGradient>
<circle class="st46" cx="421.5" cy="596.5" r="2.5"/>
<linearGradient id="SVGID_48_" gradientUnits="userSpaceOnUse" x1="1413.7117" y1="968.5242" x2="1418.733" y2="968.5242" gradientTransform="matrix(-0.9585 0.285 0.285 0.9585 1499.9268 -745.7224)">
	<stop  offset="1.000000e-02" style="stop-color:#35435F"/>
	<stop  offset="0.97" style="stop-color:#000000"/>
</linearGradient>
<circle class="st47" cx="418.5" cy="586.3" r="2.5"/>
<linearGradient id="SVGID_49_" gradientUnits="userSpaceOnUse" x1="1408.0616" y1="983.7831" x2="1413.0917" y2="983.7831" gradientTransform="matrix(-0.9585 0.285 0.285 0.9585 1499.9268 -745.7224)">
	<stop  offset="1.000000e-02" style="stop-color:#35435F"/>
	<stop  offset="0.97" style="stop-color:#000000"/>
</linearGradient>
<circle class="st48" cx="428.2" cy="599.3" r="2.5"/>
<linearGradient id="SVGID_50_" gradientUnits="userSpaceOnUse" x1="1408.0616" y1="963.9512" x2="1413.0917" y2="963.9512" gradientTransform="matrix(-0.9585 0.285 0.285 0.9585 1499.9268 -745.7224)">
	<stop  offset="1.000000e-02" style="stop-color:#35435F"/>
	<stop  offset="0.97" style="stop-color:#000000"/>
</linearGradient>
<circle class="st49" cx="422.6" cy="580.3" r="2.5"/>
<linearGradient id="SVGID_51_" gradientUnits="userSpaceOnUse" x1="1400.4717" y1="973.1346" x2="1405.5017" y2="973.1346" gradientTransform="matrix(-0.9585 0.285 0.285 0.9585 1499.9268 -745.7224)">
	<stop  offset="1.000000e-02" style="stop-color:#35435F"/>
	<stop  offset="0.97" style="stop-color:#000000"/>
</linearGradient>
<circle class="st50" cx="432.4" cy="586.9" r="2.5"/>
<linearGradient id="SVGID_52_" gradientUnits="userSpaceOnUse" x1="1393.0216" y1="972.378" x2="1398.0516" y2="972.378" gradientTransform="matrix(-0.9585 0.285 0.285 0.9585 1499.9268 -745.7224)">
	<stop  offset="1.000000e-02" style="stop-color:#35435F"/>
	<stop  offset="0.97" style="stop-color:#000000"/>
</linearGradient>
<circle class="st51" cx="439.4" cy="584.1" r="2.5"/>
<linearGradient id="SVGID_53_" gradientUnits="userSpaceOnUse" x1="1385.5616" y1="971.5419" x2="1390.583" y2="971.5419" gradientTransform="matrix(-0.9585 0.285 0.285 0.9585 1499.9268 -745.7224)">
	<stop  offset="1.000000e-02" style="stop-color:#35435F"/>
	<stop  offset="0.97" style="stop-color:#000000"/>
</linearGradient>
<circle class="st52" cx="446.3" cy="581.2" r="2.5"/>
<linearGradient id="SVGID_54_" gradientUnits="userSpaceOnUse" x1="1378.1217" y1="970.8495" x2="1383.1516" y2="970.8495" gradientTransform="matrix(-0.9585 0.285 0.285 0.9585 1499.9268 -745.7224)">
	<stop  offset="1.000000e-02" style="stop-color:#35435F"/>
	<stop  offset="0.97" style="stop-color:#000000"/>
</linearGradient>
<circle class="st53" cx="453.2" cy="578.4" r="2.5"/>
<linearGradient id="SVGID_55_" gradientUnits="userSpaceOnUse" x1="1370.4316" y1="969.1038" x2="1375.453" y2="969.1038" gradientTransform="matrix(-0.9585 0.285 0.285 0.9585 1499.9268 -745.7224)">
	<stop  offset="1.000000e-02" style="stop-color:#35435F"/>
	<stop  offset="0.97" style="stop-color:#000000"/>
</linearGradient>
<circle class="st54" cx="460.1" cy="574.5" r="2.5"/>
<linearGradient id="SVGID_56_" gradientUnits="userSpaceOnUse" x1="1289.5299" y1="224.2529" x2="1294.5499" y2="224.2529" gradientTransform="matrix(-0.46 0.89 0.89 0.46 970.8037 -796.6578)">
	<stop  offset="1.000000e-02" style="stop-color:#35435F"/>
	<stop  offset="0.97" style="stop-color:#000000"/>
</linearGradient>
<circle class="st55" cx="577.5" cy="453.6" r="2.5"/>
<linearGradient id="SVGID_57_" gradientUnits="userSpaceOnUse" x1="1300.4299" y1="224.8362" x2="1305.46" y2="224.8362" gradientTransform="matrix(-0.46 0.89 0.89 0.46 970.8037 -796.6578)">
	<stop  offset="1.000000e-02" style="stop-color:#35435F"/>
	<stop  offset="0.97" style="stop-color:#000000"/>
</linearGradient>
<circle class="st56" cx="573" cy="463.6" r="2.5"/>
<linearGradient id="SVGID_58_" gradientUnits="userSpaceOnUse" x1="1295.45" y1="230.078" x2="1300.4799" y2="230.078" gradientTransform="matrix(-0.46 0.89 0.89 0.46 970.8037 -796.6578)">
	<stop  offset="1.000000e-02" style="stop-color:#35435F"/>
	<stop  offset="0.97" style="stop-color:#000000"/>
</linearGradient>
<circle class="st57" cx="580" cy="461.6" r="2.5"/>
<linearGradient id="SVGID_59_" gradientUnits="userSpaceOnUse" x1="1295.45" y1="219.4122" x2="1300.4799" y2="219.4122" gradientTransform="matrix(-0.46 0.89 0.89 0.46 970.8037 -796.6578)">
	<stop  offset="1.000000e-02" style="stop-color:#35435F"/>
	<stop  offset="0.97" style="stop-color:#000000"/>
</linearGradient>
<circle class="st58" cx="570.5" cy="456.6" r="2.5"/>
<linearGradient id="SVGID_60_" gradientUnits="userSpaceOnUse" x1="1289.8099" y1="234.6725" x2="1294.84" y2="234.6725" gradientTransform="matrix(-0.46 0.89 0.89 0.46 970.8037 -796.6578)">
	<stop  offset="1.000000e-02" style="stop-color:#35435F"/>
	<stop  offset="0.97" style="stop-color:#000000"/>
</linearGradient>
<circle class="st59" cx="586.6" cy="458.7" r="2.5"/>
<linearGradient id="SVGID_61_" gradientUnits="userSpaceOnUse" x1="1289.8099" y1="214.8722" x2="1294.84" y2="214.8722" gradientTransform="matrix(-0.46 0.89 0.89 0.46 970.8037 -796.6578)">
	<stop  offset="1.000000e-02" style="stop-color:#35435F"/>
	<stop  offset="0.97" style="stop-color:#000000"/>
</linearGradient>
<circle class="st60" cx="569.1" cy="449.5" r="2.5"/>
<linearGradient id="SVGID_62_" gradientUnits="userSpaceOnUse" x1="1282.22" y1="224.0793" x2="1287.2499" y2="224.0793" gradientTransform="matrix(-0.46 0.89 0.89 0.46 970.8037 -796.6578)">
	<stop  offset="1.000000e-02" style="stop-color:#35435F"/>
	<stop  offset="0.97" style="stop-color:#000000"/>
</linearGradient>
<circle class="st61" cx="580.7" cy="447" r="2.5"/>
<linearGradient id="SVGID_63_" gradientUnits="userSpaceOnUse" x1="1274.7699" y1="223.3592" x2="1279.7999" y2="223.3592" gradientTransform="matrix(-0.46 0.89 0.89 0.46 970.8037 -796.6578)">
	<stop  offset="1.000000e-02" style="stop-color:#35435F"/>
	<stop  offset="0.97" style="stop-color:#000000"/>
</linearGradient>
<circle class="st62" cx="583.5" cy="440.1" r="2.5"/>
<linearGradient id="SVGID_64_" gradientUnits="userSpaceOnUse" x1="1267.2999" y1="222.5583" x2="1272.33" y2="222.5583" gradientTransform="matrix(-0.46 0.89 0.89 0.46 970.8037 -796.6578)">
	<stop  offset="1.000000e-02" style="stop-color:#35435F"/>
	<stop  offset="0.97" style="stop-color:#000000"/>
</linearGradient>
<circle class="st63" cx="586.2" cy="433.1" r="2.5"/>
<linearGradient id="SVGID_65_" gradientUnits="userSpaceOnUse" x1="1259.8699" y1="221.9055" x2="1264.8999" y2="221.9055" gradientTransform="matrix(-0.46 0.89 0.89 0.46 970.8037 -796.6578)">
	<stop  offset="1.000000e-02" style="stop-color:#35435F"/>
	<stop  offset="0.97" style="stop-color:#000000"/>
</linearGradient>
<circle class="st64" cx="589" cy="426.2" r="2.5"/>
<linearGradient id="SVGID_66_" gradientUnits="userSpaceOnUse" x1="1252.1699" y1="220.1997" x2="1257.2" y2="220.1997" gradientTransform="matrix(-0.46 0.89 0.89 0.46 970.8037 -796.6578)">
	<stop  offset="1.000000e-02" style="stop-color:#35435F"/>
	<stop  offset="0.97" style="stop-color:#000000"/>
</linearGradient>
<circle class="st65" cx="591.1" cy="418.5" r="2.5"/>
<linearGradient id="SVGID_67_" gradientUnits="userSpaceOnUse" x1="314.2558" y1="887.4655" x2="319.2858" y2="887.4655" gradientTransform="matrix(-0.2741 -0.9617 -0.9617 0.2741 1025.947 486.7844)">
	<stop  offset="1.000000e-02" style="stop-color:#35435F"/>
	<stop  offset="0.97" style="stop-color:#000000"/>
</linearGradient>
<circle class="st66" cx="85.6" cy="425.4" r="2.5"/>
<linearGradient id="SVGID_68_" gradientUnits="userSpaceOnUse" x1="325.1558" y1="888.1014" x2="330.1858" y2="888.1014" gradientTransform="matrix(-0.2741 -0.9617 -0.9617 0.2741 1025.947 486.7844)">
	<stop  offset="1.000000e-02" style="stop-color:#35435F"/>
	<stop  offset="0.97" style="stop-color:#000000"/>
</linearGradient>
<circle class="st67" cx="82" cy="415.1" r="2.5"/>
<linearGradient id="SVGID_69_" gradientUnits="userSpaceOnUse" x1="320.1902" y1="893.3262" x2="325.2115" y2="893.3262" gradientTransform="matrix(-0.2741 -0.9617 -0.9617 0.2741 1025.947 486.7844)">
	<stop  offset="1.000000e-02" style="stop-color:#35435F"/>
	<stop  offset="0.97" style="stop-color:#000000"/>
</linearGradient>
<circle class="st68" cx="78.4" cy="421.3" r="2.5"/>
<linearGradient id="SVGID_70_" gradientUnits="userSpaceOnUse" x1="320.1858" y1="882.6464" x2="325.2071" y2="882.6464" gradientTransform="matrix(-0.2741 -0.9617 -0.9617 0.2741 1025.947 486.7844)">
	<stop  offset="1.000000e-02" style="stop-color:#35435F"/>
	<stop  offset="0.97" style="stop-color:#000000"/>
</linearGradient>
<circle class="st69" cx="88.7" cy="418.4" r="2.5"/>
<linearGradient id="SVGID_71_" gradientUnits="userSpaceOnUse" x1="314.5358" y1="897.9078" x2="319.5658" y2="897.9078" gradientTransform="matrix(-0.2741 -0.9617 -0.9617 0.2741 1025.947 486.7844)">
	<stop  offset="1.000000e-02" style="stop-color:#35435F"/>
	<stop  offset="0.97" style="stop-color:#000000"/>
</linearGradient>
<circle class="st70" cx="75.5" cy="428" r="2.5"/>
<linearGradient id="SVGID_72_" gradientUnits="userSpaceOnUse" x1="314.5358" y1="878.0771" x2="319.5658" y2="878.0771" gradientTransform="matrix(-0.2741 -0.9617 -0.9617 0.2741 1025.947 486.7844)">
	<stop  offset="1.000000e-02" style="stop-color:#35435F"/>
	<stop  offset="0.97" style="stop-color:#000000"/>
</linearGradient>
<circle class="st71" cx="94.6" cy="422.6" r="2.5"/>
<linearGradient id="SVGID_73_" gradientUnits="userSpaceOnUse" x1="306.9458" y1="887.2509" x2="311.9758" y2="887.2509" gradientTransform="matrix(-0.2741 -0.9617 -0.9617 0.2741 1025.947 486.7844)">
	<stop  offset="1.000000e-02" style="stop-color:#35435F"/>
	<stop  offset="0.97" style="stop-color:#000000"/>
</linearGradient>
<circle class="st72" cx="87.8" cy="432.4" r="2.5"/>
<linearGradient id="SVGID_74_" gradientUnits="userSpaceOnUse" x1="299.4958" y1="886.4921" x2="304.5258" y2="886.4921" gradientTransform="matrix(-0.2741 -0.9617 -0.9617 0.2741 1025.947 486.7844)">
	<stop  offset="1.000000e-02" style="stop-color:#35435F"/>
	<stop  offset="0.97" style="stop-color:#000000"/>
</linearGradient>
<circle class="st73" cx="90.6" cy="439.3" r="2.5"/>
<linearGradient id="SVGID_75_" gradientUnits="userSpaceOnUse" x1="292.0401" y1="885.6592" x2="297.0701" y2="885.6592" gradientTransform="matrix(-0.2741 -0.9617 -0.9617 0.2741 1025.947 486.7844)">
	<stop  offset="1.000000e-02" style="stop-color:#35435F"/>
	<stop  offset="0.97" style="stop-color:#000000"/>
</linearGradient>
<circle class="st74" cx="93.5" cy="446.3" r="2.5"/>
<linearGradient id="SVGID_76_" gradientUnits="userSpaceOnUse" x1="284.6058" y1="884.9678" x2="289.6271" y2="884.9678" gradientTransform="matrix(-0.2741 -0.9617 -0.9617 0.2741 1025.947 486.7844)">
	<stop  offset="1.000000e-02" style="stop-color:#35435F"/>
	<stop  offset="0.97" style="stop-color:#000000"/>
</linearGradient>
<circle class="st75" cx="96.2" cy="453.3" r="2.5"/>
<linearGradient id="SVGID_77_" gradientUnits="userSpaceOnUse" x1="276.9058" y1="883.2227" x2="281.9271" y2="883.2227" gradientTransform="matrix(-0.2741 -0.9617 -0.9617 0.2741 1025.947 486.7844)">
	<stop  offset="1.000000e-02" style="stop-color:#35435F"/>
	<stop  offset="0.97" style="stop-color:#000000"/>
</linearGradient>
<circle class="st76" cx="100" cy="460.2" r="2.5"/>
<linearGradient id="SVGID_78_" gradientUnits="userSpaceOnUse" x1="1098.2258" y1="1344.1534" x2="1103.2468" y2="1344.1534" gradientTransform="matrix(-0.8803 -0.4744 -0.4744 0.8803 1828.4679 -83.3223)">
	<stop  offset="1.000000e-02" style="stop-color:#35435F"/>
	<stop  offset="0.97" style="stop-color:#000000"/>
</linearGradient>
<circle class="st77" cx="221.8" cy="577.8" r="2.5"/>
<linearGradient id="SVGID_79_" gradientUnits="userSpaceOnUse" x1="1109.1259" y1="1344.783" x2="1114.1558" y2="1344.783" gradientTransform="matrix(-0.8803 -0.4744 -0.4744 0.8803 1828.4679 -83.3223)">
	<stop  offset="1.000000e-02" style="stop-color:#35435F"/>
	<stop  offset="0.97" style="stop-color:#000000"/>
</linearGradient>
<circle class="st78" cx="211.9" cy="573.2" r="2.5"/>
<linearGradient id="SVGID_80_" gradientUnits="userSpaceOnUse" x1="1104.1458" y1="1350.0173" x2="1109.1758" y2="1350.0173" gradientTransform="matrix(-0.8803 -0.4744 -0.4744 0.8803 1828.4679 -83.3223)">
	<stop  offset="1.000000e-02" style="stop-color:#35435F"/>
	<stop  offset="0.97" style="stop-color:#000000"/>
</linearGradient>
<circle class="st79" cx="213.8" cy="580.1" r="2.5"/>
<linearGradient id="SVGID_81_" gradientUnits="userSpaceOnUse" x1="1104.1458" y1="1339.3419" x2="1109.1758" y2="1339.3419" gradientTransform="matrix(-0.8803 -0.4744 -0.4744 0.8803 1828.4679 -83.3223)">
	<stop  offset="1.000000e-02" style="stop-color:#35435F"/>
	<stop  offset="0.97" style="stop-color:#000000"/>
</linearGradient>
<circle class="st80" cx="218.9" cy="570.7" r="2.5"/>
<linearGradient id="SVGID_82_" gradientUnits="userSpaceOnUse" x1="1098.5059" y1="1354.5918" x2="1103.5358" y2="1354.5918" gradientTransform="matrix(-0.8803 -0.4744 -0.4744 0.8803 1828.4679 -83.3223)">
	<stop  offset="1.000000e-02" style="stop-color:#35435F"/>
	<stop  offset="0.97" style="stop-color:#000000"/>
</linearGradient>
<circle class="st81" cx="216.6" cy="586.8" r="2.5"/>
<linearGradient id="SVGID_83_" gradientUnits="userSpaceOnUse" x1="1098.5059" y1="1334.7576" x2="1103.5358" y2="1334.7576" gradientTransform="matrix(-0.8803 -0.4744 -0.4744 0.8803 1828.4679 -83.3223)">
	<stop  offset="1.000000e-02" style="stop-color:#35435F"/>
	<stop  offset="0.97" style="stop-color:#000000"/>
</linearGradient>
<circle class="st82" cx="226" cy="569.4" r="2.5"/>
<linearGradient id="SVGID_84_" gradientUnits="userSpaceOnUse" x1="1090.9158" y1="1343.9431" x2="1095.9458" y2="1343.9431" gradientTransform="matrix(-0.8803 -0.4744 -0.4744 0.8803 1828.4679 -83.3223)">
	<stop  offset="1.000000e-02" style="stop-color:#35435F"/>
	<stop  offset="0.97" style="stop-color:#000000"/>
</linearGradient>
<circle class="st83" cx="228.4" cy="581.1" r="2.5"/>
<linearGradient id="SVGID_85_" gradientUnits="userSpaceOnUse" x1="1083.4658" y1="1343.178" x2="1088.4958" y2="1343.178" gradientTransform="matrix(-0.8803 -0.4744 -0.4744 0.8803 1828.4679 -83.3223)">
	<stop  offset="1.000000e-02" style="stop-color:#35435F"/>
	<stop  offset="0.97" style="stop-color:#000000"/>
</linearGradient>
<circle class="st84" cx="235.3" cy="583.9" r="2.5"/>
<linearGradient id="SVGID_86_" gradientUnits="userSpaceOnUse" x1="1075.9958" y1="1342.3499" x2="1081.0258" y2="1342.3499" gradientTransform="matrix(-0.8803 -0.4744 -0.4744 0.8803 1828.4679 -83.3223)">
	<stop  offset="1.000000e-02" style="stop-color:#35435F"/>
	<stop  offset="0.97" style="stop-color:#000000"/>
</linearGradient>
<circle class="st85" cx="242.3" cy="586.7" r="2.5"/>
<linearGradient id="SVGID_87_" gradientUnits="userSpaceOnUse" x1="1068.5658" y1="1341.6477" x2="1073.5958" y2="1341.6477" gradientTransform="matrix(-0.8803 -0.4744 -0.4744 0.8803 1828.4679 -83.3223)">
	<stop  offset="1.000000e-02" style="stop-color:#35435F"/>
	<stop  offset="0.97" style="stop-color:#000000"/>
</linearGradient>
<circle class="st86" cx="249.1" cy="589.6" r="2.5"/>
<linearGradient id="SVGID_88_" gradientUnits="userSpaceOnUse" x1="1060.8658" y1="1339.9086" x2="1065.8958" y2="1339.9086" gradientTransform="matrix(-0.8803 -0.4744 -0.4744 0.8803 1828.4679 -83.3223)">
	<stop  offset="1.000000e-02" style="stop-color:#35435F"/>
	<stop  offset="0.97" style="stop-color:#000000"/>
</linearGradient>
<circle class="st87" cx="256.7" cy="591.8" r="2.5"/>
<linearGradient id="SVGID_89_" gradientUnits="userSpaceOnUse" x1="-1509.111" y1="3312.5552" x2="-1397.991" y2="3278.3853" gradientTransform="matrix(-0.6881 0.7256 0.7256 0.6881 -3056.5557 -1142.7976)">
	<stop  offset="1.000000e-02" style="stop-color:#35435F"/>
	<stop  offset="1" style="stop-color:#000000"/>
</linearGradient>
<circle class="st88" cx="337.1" cy="68.9" r="68.9"/>
<linearGradient id="SVGID_90_" gradientUnits="userSpaceOnUse" x1="-81.4991" y1="1318.8618" x2="145.7309" y2="1318.8618" gradientTransform="matrix(0.77 0.64 0.64 -0.77 -470.7264 1114.5526)">
	<stop  offset="1.000000e-02" style="stop-color:#35435F"/>
	<stop  offset="0.97" style="stop-color:#000000"/>
</linearGradient>
<circle class="st89" cx="337.1" cy="68.9" r="63.7"/>
<ellipse transform="matrix(0.2723 -0.9622 0.9622 0.2723 191.8727 360.1585)" class="st90" cx="334.1" cy="53.2" rx="45.1" ry="45.1"/>
<g id="_062">
	<g id="_08">
		
			<linearGradient id="SVGID_91_" gradientUnits="userSpaceOnUse" x1="183.2451" y1="464.0966" x2="404.9052" y2="363.4966" gradientTransform="matrix(0.91 0.42 0.42 -0.91 -65.4362 367.0481)">
			<stop  offset="1.000000e-02" style="stop-color:#657A9B"/>
			<stop  offset="0.97" style="stop-color:#000000"/>
		</linearGradient>
		<path class="st91" d="M386.4,28.1c-11.2-12.9-22.4-17.5-22.4-17.5c-32.2-14.8-70.3-0.7-85.1,31.5c-14.8,32.2-0.7,70.3,31.5,85.1
			c32.2,14.8,70.3,0.7,85.1-31.5c7.1-15.5,7.8-33.1,1.9-49.1C394.9,39.8,391.2,33.6,386.4,28.1z M311.4,125
			c-31-14.3-44.6-51-30.3-82c14.3-31,51-44.6,82-30.3c31,14.3,44.6,51,30.3,82c-6.8,14.9-19.3,26.4-34.7,32.1
			C343.3,132.6,326.3,131.9,311.4,125L311.4,125z"/>
	</g>
</g>
<path class="st92" d="M334.5,32.9h-3.4v-2h5.7v15.7h-2.3L334.5,32.9z"/>
<path class="st92" d="M339.5,45.2c0-0.9,0.7-1.6,1.6-1.6s1.6,0.7,1.6,1.6c0,0.9-0.7,1.6-1.6,1.6c0,0,0,0,0,0
	C340.2,46.8,339.5,46.2,339.5,45.2C339.5,45.3,339.5,45.3,339.5,45.2z"/>
<path class="st92" d="M307.2,59.5h1.7v10.7h-1.7V59.5z"/>
<path class="st92" d="M310.4,66.1c-0.1-2.2,1.6-4.1,3.8-4.2c0.1,0,0.2,0,0.3,0c1.2,0,2.4,0.6,3,1.6v-4.9h1.6v7.5
	c0.1,2.3-1.6,4.2-3.9,4.3c-0.1,0-0.3,0-0.4,0c-2.3,0.1-4.2-1.6-4.4-3.9C310.4,66.4,310.4,66.2,310.4,66.1z M317.5,66.2
	c0-1.5-1.3-2.8-2.8-2.7c-1.5,0-2.8,1.3-2.7,2.8c0,1.5,1.3,2.7,2.8,2.7c1.5,0.1,2.7-1.1,2.8-2.6C317.6,66.3,317.6,66.2,317.5,66.2z"
	/>
<path class="st92" d="M320.4,66.2c0-2.4,1.9-4.3,4.3-4.3c2.4,0,4.3,1.9,4.3,4.3v0.6h-7c0.2,1.3,1.4,2.3,2.7,2.2
	c0.9,0.1,1.7-0.3,2.3-1h1.7c-0.7,1.6-2.3,2.6-4,2.5c-2.3,0.1-4.2-1.7-4.3-4C320.4,66.4,320.4,66.3,320.4,66.2z M327.4,65.3
	c-0.4-1.5-2-2.3-3.5-1.9c-0.9,0.3-1.6,1-1.9,1.9H327.4z"/>
<path class="st92" d="M330.3,66c0-2.7,1.6-4.1,4-4.1s4,1.4,4,4.1v4.2h-1.5V66c0-1.8-1-2.6-2.4-2.6c-1.3-0.1-2.4,0.9-2.5,2.2
	c0,0.2,0,0.3,0,0.5v4.2h-1.6V66z"/>
<path class="st92" d="M339.9,67.1v-7.9h1.5v2.9h4.4v1.4h-4.4v3.6c0,1.3,0.7,1.8,1.7,1.8s1.7-0.5,1.7-1.8V67h1.5v0.2
	c0.1,1.8-1.3,3.3-3.1,3.4s-3.3-1.3-3.4-3.1C339.9,67.4,339.9,67.3,339.9,67.1z"/>
<path class="st92" d="M347.6,59.8c0-0.6,0.5-1.1,1.1-1.1c0.6,0,1.1,0.5,1.1,1.1c0,0,0,0,0,0c0,0.6-0.5,1.1-1.1,1.1
	C348.1,60.8,347.6,60.4,347.6,59.8C347.6,59.8,347.6,59.8,347.6,59.8z M348,62.1h1.6v8.1H348V62.1z"/>
<path class="st92" d="M351.7,61.9c0-1.9,1.6-3.5,3.5-3.5c1.9,0,3.5,1.6,3.5,3.5h-1.5c0-1.5-0.8-2.1-1.9-2.1c-1-0.1-1.9,0.7-1.9,1.6
	c0,0.1,0,0.3,0,0.4v1.4h4.4v1.4h-4.4v5.5h-1.5V61.9z"/>
<path class="st92" d="M359.4,71.2h1.6c0.7,1.2,2.2,1.7,3.5,1.1c0.8-0.4,1.4-1.3,1.3-2.3v-1.2c-0.5,1-1.5,1.6-2.6,1.6
	c-2,0-3.7-1.3-3.7-4.1v-4.1h1.5v4.1c-0.2,1.3,0.7,2.4,2,2.6c0.2,0,0.3,0,0.5,0c1.3,0.1,2.4-0.9,2.5-2.2c0-0.1,0-0.3,0-0.4v-4.1h1.5
	v7.8c0,2.8-1.8,3.9-4,3.9C361.6,74.1,359.9,72.9,359.4,71.2z"/>
<path class="st92" d="M288.6,84.5c-0.1-3.1,2.4-5.8,5.5-5.8s5.8,2.4,5.8,5.5c0.1,3.1-2.4,5.8-5.5,5.8c0,0-0.1,0-0.1,0
	c-3,0.2-5.5-2.2-5.7-5.1C288.6,84.7,288.6,84.6,288.6,84.5z M298.3,84.5c0-2.2-1.8-4-4-4s-4,1.8-4,4s1.8,4,4,4
	c2.1,0.1,3.9-1.6,4-3.7C298.3,84.7,298.3,84.6,298.3,84.5z"/>
<path class="st92" d="M301.4,85.8c-0.1-2.3,1.6-4.2,3.9-4.3c0.1,0,0.3,0,0.4,0c2.3-0.1,4.2,1.6,4.4,3.9c0,0.1,0,0.3,0,0.4
	c0.1,2.2-1.6,4.1-3.8,4.2c-0.1,0-0.2,0-0.3,0c-1.2,0.1-2.4-0.6-3-1.6v4.9h-1.6V85.8z M308.5,85.8c0-1.5-1.3-2.8-2.8-2.7
	c-1.5,0-2.8,1.3-2.7,2.8c0,1.5,1.2,2.7,2.8,2.7c1.5,0.1,2.7-1.1,2.8-2.6C308.5,85.9,308.5,85.9,308.5,85.8L308.5,85.8z"/>
<path class="st92" d="M311.3,85.8c-0.1-2.3,1.6-4.2,3.9-4.3c0.1,0,0.3,0,0.4,0c2.3-0.1,4.2,1.6,4.4,3.9c0,0.1,0,0.3,0,0.4
	c0.1,2.2-1.6,4.1-3.8,4.2c-0.1,0-0.2,0-0.3,0c-1.2,0.1-2.4-0.6-3-1.6v4.9h-1.5L311.3,85.8z M318.4,85.8c0-1.5-1.3-2.8-2.8-2.7
	c-1.5,0-2.8,1.3-2.7,2.8c0,1.5,1.2,2.7,2.8,2.7c1.5,0.1,2.7-1.1,2.8-2.6C318.4,86,318.4,85.9,318.4,85.8L318.4,85.8z"/>
<path class="st92" d="M320.9,85.8c-0.1-2.4,1.8-4.4,4.2-4.5s4.4,1.8,4.5,4.2c0.1,2.4-1.8,4.4-4.2,4.5c0,0-0.1,0-0.1,0
	c-2.3,0.1-4.2-1.6-4.3-3.9C320.9,86,320.9,85.9,320.9,85.8z M328,85.8c0-1.5-1.3-2.8-2.8-2.7c-1.5,0-2.8,1.3-2.7,2.8
	c0,1.5,1.3,2.7,2.8,2.8c1.5,0.1,2.7-1.1,2.8-2.6C328.1,85.9,328.1,85.9,328,85.8z"/>
<path class="st92" d="M330.9,85.1c0-1.9,1.6-3.5,3.5-3.5s3.5,1.6,3.5,3.5v0.1h-1.5v-0.1c0-1.5-0.8-2.1-1.9-2.1s-1.9,0.6-1.9,2.1v4.8
	h-1.5L330.9,85.1z"/>
<path class="st92" d="M338.9,86.8v-7.9h1.5v2.9h4.5v1.4h-4.5v3.6c0,1.3,0.7,1.8,1.7,1.8s1.7-0.5,1.7-1.8v-0.2h1.5v0.2
	c0.1,1.8-1.3,3.3-3.1,3.4s-3.3-1.3-3.4-3.1C338.9,87,338.9,86.9,338.9,86.8L338.9,86.8z"/>
<path class="st92" d="M346.7,86v-4.2h1.6V86c-0.1,1.3,0.9,2.5,2.3,2.6c1.3,0.1,2.5-0.9,2.6-2.3c0-0.1,0-0.2,0-0.3v-4.2h1.5V86
	c0.2,2-1.2,3.8-3.3,4.1c-0.2,0-0.5,0-0.7,0C348.3,90,346.7,88.7,346.7,86z"/>
<path class="st92" d="M356.2,85.6c0-2.7,1.6-4.1,4-4.1s4,1.4,4,4.1v4.2h-1.6v-4.2c0-1.8-1-2.6-2.4-2.6c-1.3-0.1-2.4,0.9-2.5,2.2
	c0,0.2,0,0.3,0,0.5v4.2h-1.5L356.2,85.6z"/>
<path class="st92" d="M365.8,79.3c0-0.6,0.5-1.1,1.1-1.1s1.1,0.5,1.1,1.1c0,0.6-0.5,1.1-1.1,1.1C366.3,80.5,365.8,80,365.8,79.3
	C365.8,79.4,365.8,79.4,365.8,79.3z M366.1,81.7h1.6v8.1h-1.5L366.1,81.7z"/>
<path class="st92" d="M369.5,86.8v-7.9h1.6v2.9h4.4v1.4h-4.4v3.6c0,1.3,0.7,1.8,1.7,1.8c1,0,1.7-0.5,1.7-1.8v-0.2h1.5v0.2
	c0.1,1.8-1.3,3.3-3.1,3.4s-3.3-1.3-3.4-3.1C369.6,87,369.6,86.9,369.5,86.8L369.5,86.8z"/>
<path class="st92" d="M377.4,90.8h1.6c0.4,0.9,1.3,1.5,2.3,1.3c1.2,0.2,2.3-0.7,2.5-1.9c0-0.2,0-0.4,0-0.6v-1.2
	c-0.5,1-1.6,1.6-2.7,1.6c-2,0-3.7-1.3-3.7-4.1v-4.1h1.6v4.1c-0.1,1.3,0.9,2.5,2.3,2.6c1.3,0.1,2.5-0.9,2.6-2.3c0-0.1,0-0.2,0-0.3
	v-4.1h1.6v7.8c0,2.8-1.8,3.9-4,3.9C379.5,93.6,377.8,92.5,377.4,90.8z"/>
<linearGradient id="SVGID_92_" gradientUnits="userSpaceOnUse" x1="-1581.1698" y1="3503.9495" x2="-1470.0398" y2="3469.7793" gradientTransform="matrix(-0.6881 0.7256 0.7256 0.6881 -3056.5557 -1142.7976)">
	<stop  offset="1.000000e-02" style="stop-color:#35435F"/>
	<stop  offset="1" style="stop-color:#000000"/>
</linearGradient>
<circle class="st93" cx="525.5" cy="148.3" r="68.9"/>
<linearGradient id="SVGID_93_" gradientUnits="userSpaceOnUse" x1="114.321" y1="1378.1682" x2="341.5509" y2="1378.1682" gradientTransform="matrix(0.77 0.64 0.64 -0.77 -470.7264 1114.5526)">
	<stop  offset="1.000000e-02" style="stop-color:#35435F"/>
	<stop  offset="0.97" style="stop-color:#000000"/>
</linearGradient>
<circle class="st94" cx="525.5" cy="148.3" r="63.7"/>
<circle class="st90" cx="522.5" cy="132.6" r="45.1"/>
<g id="_062-2">
	<g id="_08-2">
		
			<linearGradient id="SVGID_94_" gradientUnits="userSpaceOnUse" x1="387.8095" y1="470.6771" x2="609.4696" y2="370.0871" gradientTransform="matrix(0.91 0.42 0.42 -0.91 -65.4362 367.0481)">
			<stop  offset="1.000000e-02" style="stop-color:#657A9B"/>
			<stop  offset="0.97" style="stop-color:#000000"/>
		</linearGradient>
		<path class="st95" d="M574.9,107.5C563.7,94.6,552.5,90,552.5,90c-32.2-14.8-70.3-0.7-85.1,31.5c-14.8,32.2-0.7,70.3,31.5,85.1
			c32.2,14.8,70.3,0.7,85.1-31.5c7.1-15.5,7.8-33.1,1.9-49.1C583.3,119.3,579.6,113,574.9,107.5z M499.9,204.4
			c-31-14.3-44.6-50.9-30.3-81.9s50.9-44.6,81.9-30.3c31,14.3,44.6,50.9,30.3,81.9c-6.8,14.9-19.3,26.4-34.7,32.1
			C531.7,212,514.7,211.3,499.9,204.4L499.9,204.4z"/>
	</g>
</g>
<path class="st92" d="M517.7,124l5.7-5.4c1.2-1.1,2-2.3,2-3.6c0-1.8-0.9-3-2.7-3s-2.8,1.3-2.8,3.1v0.3h-2.2v-0.2
	c0-3.2,1.9-5.3,5-5.3c2.6-0.1,4.9,1.9,5,4.6c0,0.2,0,0.4,0,0.5c0,2.1-1,3.4-2.7,4.9l-4.3,3.9h6.7v2h-9.8L517.7,124z"/>
<path class="st92" d="M529.9,124.7c0-0.9,0.7-1.6,1.6-1.6c0.9,0,1.6,0.7,1.6,1.6c0,0.9-0.7,1.6-1.6,1.6l0,0c-0.8,0-1.6-0.6-1.6-1.5
	C529.9,124.7,529.9,124.7,529.9,124.7z"/>
<path class="st92" d="M476.9,144.3c0.1-3.2,2.7-5.7,5.9-5.6c2.4,0.1,4.5,1.6,5.3,4h-1.8c-0.9-2-3.2-2.9-5.3-2.1
	c-2,0.9-2.9,3.2-2.1,5.3c0.9,2,3.2,2.9,5.3,2.1c0.9-0.4,1.7-1.1,2.1-2.1h1.8c-1,3-4.2,4.7-7.2,3.7
	C478.6,148.8,477,146.7,476.9,144.3L476.9,144.3z"/>
<path class="st92" d="M489.4,144.9c0-1.9,1.6-3.5,3.5-3.5s3.5,1.6,3.5,3.5v0.1h-1.5v-0.1c0-1.5-0.8-2.1-1.9-2.1s-1.9,0.6-1.9,2.1
	v4.8h-1.6L489.4,144.9z"/>
<path class="st92" d="M497.1,145.6c0-2.4,1.9-4.3,4.3-4.3c2.4,0,4.3,1.9,4.3,4.3v0.6h-7c0.2,1.3,1.4,2.3,2.7,2.2
	c0.9,0.1,1.7-0.3,2.3-1h1.7c-0.7,1.6-2.3,2.6-4,2.5c-2.3,0.1-4.2-1.6-4.3-3.9C497.1,145.8,497.1,145.7,497.1,145.6z M504.1,144.8
	c-0.4-1.5-2-2.3-3.4-1.9c-0.9,0.3-1.6,1-1.9,1.9H504.1z"/>
<path class="st92" d="M506.7,145.6c-0.1-2.3,1.7-4.2,4-4.3c0.1,0,0.3,0,0.4,0c2.3-0.1,4.2,1.6,4.3,3.9c0,0.1,0,0.3,0,0.4v4H514v-1.8
	c-0.5,1.3-1.8,2.1-3.1,2c-2.2,0.1-4.1-1.7-4.1-3.9C506.7,145.9,506.7,145.8,506.7,145.6z M513.8,145.6c0-1.5-1.2-2.8-2.8-2.8
	c-1.5,0-2.8,1.2-2.8,2.8s1.2,2.8,2.8,2.8c0,0,0,0,0.1,0c1.5,0,2.7-1.1,2.7-2.6C513.9,145.7,513.9,145.6,513.8,145.6z"/>
<path class="st92" d="M517,146.6v-7.9h1.6v2.9h4.4v1.4h-4.4v3.6c0,1.3,0.7,1.8,1.7,1.8s1.7-0.5,1.7-1.8v-0.2h1.5v0.2
	c0.1,1.8-1.3,3.3-3.1,3.4s-3.3-1.3-3.4-3.1C517,146.8,517,146.7,517,146.6L517,146.6z"/>
<path class="st92" d="M524.4,145.6c0-2.4,1.9-4.3,4.3-4.3c2.4,0,4.3,1.9,4.3,4.3v0.6h-7c0.2,1.3,1.4,2.3,2.7,2.2
	c0.9,0.1,1.7-0.3,2.3-1h1.7c-1.1,2.2-3.7,3.1-5.9,2C525.5,148.7,524.5,147.2,524.4,145.6L524.4,145.6z M531.4,144.8
	c-0.3-1.2-1.4-2.1-2.7-2c-1.3-0.1-2.4,0.8-2.7,2H531.4z"/>
<path class="st92" d="M538.8,150.6h1.6c0.4,0.9,1.3,1.5,2.3,1.3c1.2,0.1,2.3-0.7,2.5-1.9c0-0.2,0-0.4,0-0.6v-1.2
	c-0.5,1-1.6,1.6-2.7,1.6c-2,0-3.7-1.3-3.7-4.1v-4.1h1.6v4.1c-0.2,1.3,0.7,2.4,2,2.6c0.2,0,0.3,0,0.5,0c1.3,0.1,2.4-0.9,2.5-2.2
	c0-0.1,0-0.3,0-0.4v-4.1h1.6v7.8c0,2.8-1.8,3.9-4,3.9C540.9,153.4,539.2,152.3,538.8,150.6z"/>
<path class="st92" d="M548.2,145.6c-0.1-2.4,1.8-4.4,4.2-4.4c2.4-0.1,4.4,1.8,4.4,4.2c0.1,2.4-1.8,4.4-4.2,4.4c0,0-0.1,0-0.1,0
	c-2.3,0.1-4.2-1.7-4.3-3.9C548.2,145.8,548.2,145.7,548.2,145.6z M555.3,145.6c0-1.5-1.3-2.8-2.8-2.7c-1.5,0-2.8,1.3-2.7,2.8
	c0,1.5,1.3,2.7,2.8,2.8c1.5,0.1,2.7-1.1,2.8-2.6C555.4,145.8,555.4,145.7,555.3,145.6z"/>
<path class="st92" d="M558.2,145.8v-4.2h1.6v4.2c-0.1,1.3,0.9,2.5,2.3,2.6c1.3,0.1,2.5-0.9,2.6-2.3c0-0.1,0-0.2,0-0.3v-4.2h1.6v4.2
	c0.2,2-1.2,3.8-3.3,4.1c-0.2,0-0.5,0-0.7,0C559.8,149.8,558.2,148.5,558.2,145.8z"/>
<path class="st92" d="M567.8,144.9c-0.1-1.9,1.4-3.6,3.3-3.7s3.6,1.4,3.7,3.3c0,0.1,0,0.2,0,0.4v0.1h-1.5v-0.1
	c0-1.5-0.8-2.1-1.9-2.1s-1.9,0.6-1.9,2.1v4.8h-1.6L567.8,144.9z"/>
<path class="st92" d="M490.7,158.5h5.2c2,0,3,1.1,3,2.8c0,1-0.5,2-1.5,2.4l0,0c1.2,0.3,2,1.4,2,2.7c0.1,1.5-1.1,2.8-2.7,2.9
	c-0.1,0-0.3,0-0.4,0h-5.6L490.7,158.5z M495.7,163c0.8,0.1,1.5-0.5,1.6-1.3c0-0.1,0-0.1,0-0.2c0-0.9-0.5-1.5-1.6-1.5h-3.3v2.9H495.7
	z M496,167.7c0.8,0.1,1.5-0.4,1.6-1.2c0-0.1,0-0.2,0-0.3c0.1-0.8-0.6-1.5-1.4-1.6c-0.1,0-0.1,0-0.2,0h-3.7v3.1H496z"/>
<path class="st92" d="M500.9,157.6h1.6v11.6h-1.6V157.6z"/>
<path class="st92" d="M504.3,165.4v-4.2h1.6v4.2c-0.1,1.3,0.9,2.5,2.3,2.6c1.3,0.1,2.5-0.9,2.6-2.3c0-0.1,0-0.2,0-0.3v-4.2h1.6v4.2
	c0,2.2-1.8,4-4,4S504.3,167.6,504.3,165.4L504.3,165.4z"/>
<path class="st92" d="M513.6,165.2c0-2.4,1.9-4.3,4.3-4.3c2.4,0,4.3,1.9,4.3,4.3v0.6h-7c0.2,1.3,1.4,2.3,2.7,2.2
	c0.9,0.1,1.7-0.3,2.3-1h1.7c-1.1,2.2-3.7,3.1-5.9,2C514.6,168.3,513.7,166.9,513.6,165.2L513.6,165.2z M520.6,164.4
	c-0.3-1.2-1.4-2.1-2.7-2c-1.3-0.1-2.4,0.8-2.7,2H520.6z"/>
<path class="st92" d="M523.5,165.3c-0.1-2.3,1.6-4.2,3.9-4.3c0.1,0,0.3,0,0.4,0c2.3-0.1,4.2,1.6,4.4,3.9c0,0.1,0,0.3,0,0.4
	c0.1,2.2-1.6,4.1-3.8,4.2c-0.1,0-0.2,0-0.3,0c-1.2,0-2.4-0.6-3-1.6v4.9h-1.6L523.5,165.3z M530.6,165.2c0-1.5-1.3-2.8-2.8-2.7
	s-2.8,1.3-2.7,2.8c0,1.5,1.2,2.7,2.8,2.7c1.5,0.1,2.7-1.1,2.8-2.6C530.6,165.4,530.6,165.3,530.6,165.2z"/>
<path class="st92" d="M533.5,164.5c0-1.9,1.5-3.5,3.5-3.5s3.5,1.5,3.5,3.5c0,0,0,0,0,0v0.1h-1.5v-0.1c0-1.5-0.8-2.1-1.9-2.1
	s-1.9,0.6-1.9,2.1v4.8h-1.6L533.5,164.5z"/>
<path class="st92" d="M541.5,158.8c0-0.6,0.5-1.1,1.1-1.1s1.1,0.5,1.1,1.1c0,0.6-0.5,1.1-1.1,1.1C542,159.9,541.5,159.4,541.5,158.8
	C541.5,158.8,541.5,158.8,541.5,158.8z M541.8,161.2h1.6v8.1h-1.6V161.2z"/>
<path class="st92" d="M545.2,165c-0.2-2,1.3-3.9,3.3-4.1c0.2,0,0.5,0,0.7,0c2.4,0,4,1.4,4,4.1v4.2h-1.6V165c0.2-1.3-0.7-2.5-2-2.6
	c-0.2,0-0.3,0-0.5,0c-1.5,0-2.4,0.9-2.4,2.6v4.2h-1.6L545.2,165z"/>
<path class="st92" d="M554.8,166.2v-7.8h1.6v2.9h4.4v1.4h-4.4v3.6c0,1.3,0.7,1.8,1.7,1.8s1.7-0.5,1.7-1.8v-0.2h1.5v0.2
	c0.1,1.8-1.3,3.3-3.1,3.4s-3.3-1.3-3.4-3.1C554.8,166.5,554.8,166.4,554.8,166.2L554.8,166.2z"/>
<linearGradient id="SVGID_95_" gradientUnits="userSpaceOnUse" x1="-1497.8887" y1="3691.2329" x2="-1386.7587" y2="3657.063" gradientTransform="matrix(-0.6881 0.7256 0.7256 0.6881 -3056.5557 -1142.7976)">
	<stop  offset="1.000000e-02" style="stop-color:#35435F"/>
	<stop  offset="1" style="stop-color:#000000"/>
</linearGradient>
<circle class="st96" cx="604.1" cy="337.6" r="68.9"/>
<linearGradient id="SVGID_96_" gradientUnits="userSpaceOnUse" x1="295.5409" y1="1282.9429" x2="522.7809" y2="1282.9429" gradientTransform="matrix(0.77 0.64 0.64 -0.77 -470.7264 1114.5526)">
	<stop  offset="1.000000e-02" style="stop-color:#35435F"/>
	<stop  offset="0.97" style="stop-color:#000000"/>
</linearGradient>
<circle class="st97" cx="604.1" cy="337.6" r="63.7"/>
<circle class="st90" cx="601.1" cy="321.9" r="45.1"/>
<g id="_062-3">
	<g id="_08-3">
		
			<linearGradient id="SVGID_97_" gradientUnits="userSpaceOnUse" x1="538.3655" y1="331.9514" x2="760.0355" y2="231.3614" gradientTransform="matrix(0.91 0.42 0.42 -0.91 -65.4362 367.0481)">
			<stop  offset="1.000000e-02" style="stop-color:#657A9B"/>
			<stop  offset="0.97" style="stop-color:#000000"/>
		</linearGradient>
		<path class="st98" d="M653.4,296.8c-11.2-12.9-22.3-17.5-22.3-17.5c-32.2-14.8-70.3-0.7-85.1,31.5s-0.7,70.3,31.5,85.1
			c32.2,14.8,70.3,0.7,85.1-31.5c7.1-15.5,7.8-33.1,1.9-49.1C661.9,308.6,658.2,302.3,653.4,296.8z M578.4,393.7
			c-31-14.3-44.6-50.9-30.3-81.9c14.3-31,50.9-44.6,81.9-30.3c31,14.3,44.6,50.9,30.3,81.9c-6.8,14.9-19.3,26.4-34.7,32.1
			C610.3,401.3,593.3,400.6,578.4,393.7L578.4,393.7z"/>
	</g>
</g>
<path class="st92" d="M595.8,310.7h2.2c0,1.6,1.2,2.8,3.2,2.8s3.1-1.2,3.1-2.8s-1.1-2.7-3.2-2.7h-1.8v-2h1.8c1.8,0,2.7-0.8,2.7-2.3
	c0-1.3-1-2.3-2.3-2.3c-0.1,0-0.2,0-0.3,0c-1.3-0.1-2.5,0.8-2.6,2.1c0,0.1,0,0.1,0,0.2h-2.2c0.1-2.9,2-4.4,4.9-4.4s4.9,1.6,4.9,4.2
	c0.1,1.5-0.7,2.8-2.1,3.4l0,0c1.7,0.5,2.8,2.1,2.7,3.9c0,2.9-2.3,4.8-5.4,4.8S595.8,313.7,595.8,310.7z"/>
<path class="st92" d="M608.8,314c0-0.9,0.7-1.6,1.6-1.6c0.9,0,1.6,0.7,1.6,1.6s-0.7,1.6-1.6,1.6c0,0,0,0,0,0c-0.8,0-1.6-0.6-1.6-1.5
	C608.8,314,608.8,314,608.8,314z"/>
<path class="st92" d="M574.4,328.2h7.9v1.5h-6.2v2.9h5.3v1.5h-5.3v3.1h6.2v1.5h-7.9L574.4,328.2z"/>
<path class="st92" d="M586.5,334.8l-3.1-4h1.9l2.3,3.2l2.3-3.2h1.9l-3.1,4l3.2,4.1H590l-2.4-3.3l-2.4,3.3h-1.9L586.5,334.8z"/>
<path class="st92" d="M593,335.9V328h1.6v2.9h4.4v1.4h-4.4v3.6c0,1.3,0.7,1.8,1.7,1.8s1.7-0.5,1.7-1.8v-0.2h1.5v0.2
	c0.1,1.8-1.3,3.3-3.1,3.4s-3.3-1.3-3.4-3.1C593,336.1,593,336,593,335.9L593,335.9z"/>
<path class="st92" d="M600.8,334.2c-0.1-1.9,1.4-3.6,3.3-3.7c1.9-0.1,3.6,1.4,3.7,3.3c0,0.1,0,0.2,0,0.4v0.1h-1.5v-0.1
	c0-1.5-0.8-2.1-1.9-2.1s-1.9,0.6-1.9,2.1v4.8h-1.6L600.8,334.2z"/>
<path class="st92" d="M608.5,335c-0.1-2.3,1.7-4.2,4-4.3c0.1,0,0.3,0,0.4,0c2.3-0.1,4.2,1.6,4.3,3.9c0,0.1,0,0.3,0,0.4v4h-1.4v-1.8
	c-0.5,1.3-1.8,2.1-3.1,2c-2.2,0.1-4-1.7-4.1-3.9C608.5,335.2,608.5,335.1,608.5,335z M615.6,334.9c0-1.5-1.3-2.8-2.8-2.7
	s-2.8,1.3-2.7,2.8c0,1.5,1.3,2.7,2.8,2.8c1.5,0.1,2.7-1.1,2.8-2.6C615.6,335.1,615.6,335,615.6,334.9z"/>
<path class="st92" d="M618.4,334.9c-0.1-2.3,1.8-4.2,4-4.3c0.1,0,0.2,0,0.3,0c2-0.1,3.7,1.2,4.2,3.1h-1.6c-0.6-1.4-2.3-2.1-3.7-1.5
	c-1.4,0.6-2.1,2.3-1.5,3.7s2.3,2.1,3.7,1.5c0.7-0.3,1.2-0.8,1.5-1.5h1.6c-0.4,1.9-2.2,3.2-4.2,3.1c-2.3,0.1-4.2-1.7-4.3-3.9
	C618.4,335.1,618.4,335,618.4,334.9z"/>
<path class="st92" d="M628.2,335.9V328h1.6v2.9h4.4v1.4h-4.4v3.6c0,1.3,0.7,1.8,1.7,1.8s1.7-0.5,1.7-1.8v-0.2h1.5v0.2
	c0.1,1.8-1.3,3.3-3.1,3.4s-3.3-1.3-3.4-3.1C628.2,336.1,628.2,336,628.2,335.9L628.2,335.9z"/>
<path class="st92" d="M565,359.5h1.6c0.4,0.9,1.3,1.5,2.3,1.3c1.2,0.2,2.3-0.7,2.5-1.9c0-0.2,0-0.4,0-0.6v-1.2
	c-0.5,1-1.6,1.6-2.7,1.6c-2,0-3.7-1.3-3.7-4.1v-4.1h1.6v4.1c-0.2,1.3,0.7,2.4,2,2.6c0.2,0,0.3,0,0.5,0c1.3,0.1,2.4-0.9,2.5-2.2
	c0-0.1,0-0.3,0-0.4v-4.1h1.6v7.8c0,2.8-1.8,3.9-4,3.9C567.1,362.4,565.5,361.2,565,359.5z"/>
<path class="st92" d="M574.5,354.5c-0.1-2.4,1.8-4.4,4.2-4.4c2.4-0.1,4.4,1.8,4.4,4.2c0.1,2.4-1.8,4.4-4.2,4.4c0,0-0.1,0-0.1,0
	c-2.3,0.1-4.2-1.6-4.3-3.9C574.5,354.7,574.5,354.6,574.5,354.5z M581.6,354.5c0-1.5-1.3-2.8-2.8-2.7s-2.8,1.3-2.7,2.8
	c0,1.5,1.3,2.7,2.8,2.8c1.5,0.1,2.7-1.1,2.8-2.6C581.6,354.7,581.6,354.6,581.6,354.5z"/>
<path class="st92" d="M584.4,354.7v-4.2h1.6v4.2c-0.1,1.3,0.9,2.5,2.3,2.6c1.3,0.1,2.5-0.9,2.6-2.3c0-0.1,0-0.2,0-0.3v-4.2h1.6v4.2
	c0.2,2-1.2,3.8-3.3,4.1c-0.2,0-0.5,0-0.7,0C586,358.7,584.4,357.4,584.4,354.7z"/>
<path class="st92" d="M594,353.8c-0.1-1.9,1.4-3.6,3.3-3.7c1.9-0.1,3.6,1.4,3.7,3.3c0,0.1,0,0.2,0,0.4v0.1h-1.5v-0.1
	c0-1.5-0.8-2.1-1.9-2.1s-1.9,0.6-1.9,2.1v4.8H594L594,353.8z"/>
<path class="st92" d="M606.7,347.8h3.8c3.7,0,5.7,2.1,5.7,5.4s-2,5.3-5.7,5.3h-3.8V347.8z M610.5,357c2.7,0,4-1.5,4-3.8
	s-1.3-3.8-4-3.8h-2.1v7.6H610.5z"/>
<path class="st92" d="M617.2,354.6c-0.1-2.3,1.7-4.2,4-4.3c0.1,0,0.2,0,0.4,0c2.3-0.1,4.2,1.6,4.3,3.9c0,0.1,0,0.3,0,0.4v4h-1.4
	v-1.8c-0.5,1.3-1.8,2.1-3.1,2c-2.2,0.1-4-1.7-4.1-3.9C617.2,354.8,617.2,354.7,617.2,354.6z M624.3,354.5c0-1.5-1.3-2.8-2.8-2.7
	s-2.8,1.3-2.7,2.8c0,1.5,1.3,2.8,2.8,2.7c1.5,0.1,2.7-1.1,2.8-2.6C624.3,354.7,624.3,354.6,624.3,354.5L624.3,354.5z"/>
<path class="st92" d="M627.4,355.5v-7.9h1.6v2.9h4.4v1.4H629v3.6c0,1.3,0.7,1.8,1.7,1.8s1.7-0.5,1.7-1.8v-0.2h1.5v0.2
	c0,1.8-1.4,3.2-3.2,3.2C628.9,358.7,627.5,357.3,627.4,355.5C627.5,355.5,627.5,355.5,627.4,355.5L627.4,355.5z"/>
<path class="st92" d="M634.9,354.6c-0.1-2.3,1.7-4.2,4-4.3c0.1,0,0.2,0,0.4,0c2.3-0.1,4.2,1.6,4.3,3.9c0,0.1,0,0.3,0,0.4v4h-1.4
	v-1.8c-0.5,1.3-1.8,2.1-3.1,2c-2.2,0.1-4-1.7-4.1-3.9C634.9,354.8,634.9,354.7,634.9,354.6z M642,354.5c0-1.5-1.3-2.8-2.8-2.7
	s-2.8,1.3-2.7,2.8c0,1.5,1.3,2.7,2.8,2.8c1.5,0.1,2.7-1.1,2.8-2.6C642,354.7,642,354.6,642,354.5L642,354.5z"/>
<linearGradient id="SVGID_98_" gradientUnits="userSpaceOnUse" x1="-1307.4415" y1="3764.2239" x2="-1196.3115" y2="3730.054" gradientTransform="matrix(-0.6881 0.7256 0.7256 0.6881 -3056.5557 -1142.7976)">
	<stop  offset="1.000000e-02" style="stop-color:#35435F"/>
	<stop  offset="1" style="stop-color:#000000"/>
</linearGradient>
<circle class="st99" cx="526" cy="526" r="68.9"/>
<linearGradient id="SVGID_99_" gradientUnits="userSpaceOnUse" x1="355.521" y1="1088.3683" x2="582.7509" y2="1088.3683" gradientTransform="matrix(0.77 0.64 0.64 -0.77 -470.7264 1114.5526)">
	<stop  offset="1.000000e-02" style="stop-color:#35435F"/>
	<stop  offset="0.97" style="stop-color:#000000"/>
</linearGradient>
<circle class="st100" cx="526" cy="526" r="63.7"/>
<circle class="st90" cx="523" cy="510.4" r="45.1"/>
<g id="_062-4">
	<g id="_08-4">
		
			<linearGradient id="SVGID_100_" gradientUnits="userSpaceOnUse" x1="546.0944" y1="128.7359" x2="767.7544" y2="28.1459" gradientTransform="matrix(0.91 0.42 0.42 -0.91 -65.4362 367.0481)">
			<stop  offset="1.000000e-02" style="stop-color:#657A9B"/>
			<stop  offset="0.97" style="stop-color:#000000"/>
		</linearGradient>
		<path class="st101" d="M575.4,485.3c-11.2-12.9-22.4-17.5-22.4-17.5c-32.2-14.8-70.3-0.7-85.1,31.5s-0.7,70.3,31.5,85.1
			c32.2,14.8,70.3,0.7,85.1-31.5c7.1-15.5,7.8-33.1,1.9-49.1C583.8,497,580.1,490.7,575.4,485.3z M500.4,582.2
			c-31-14.3-44.5-50.9-30.3-81.9S521,455.7,552,470s44.5,50.9,30.3,81.9c-6.8,14.9-19.3,26.4-34.7,32.1
			C532.2,589.7,515.2,589.1,500.4,582.2L500.4,582.2z"/>
	</g>
</g>
<path class="st92" d="M525,500.2h-7.6v-2l7.6-10.3h2.3v10.2h1.7v2h-1.7v3.4H525V500.2z M525,498.2v-7.1l-5.1,7.1H525z"/>
<path class="st92" d="M531.1,502.4c0-0.9,0.7-1.6,1.6-1.6c0.9,0,1.6,0.7,1.6,1.6c0,0.9-0.7,1.6-1.6,1.6c-0.8,0-1.6-0.6-1.6-1.5
	C531,502.4,531,502.4,531.1,502.4z"/>
<path class="st92" d="M493.4,516.7h7.9v1.5h-6.2v2.9h5.3v1.5h-5.3v3.1h6.2v1.5h-7.9V516.7z"/>
<path class="st92" d="M502.8,523.1c-0.2-2,1.3-3.9,3.3-4.1c0.2,0,0.5,0,0.7,0c2.4,0,4,1.4,4,4.1v4.2h-1.6v-4.2c0-1.8-1-2.7-2.4-2.7
	c-1.3-0.1-2.4,0.9-2.5,2.2c0,0.2,0,0.3,0,0.5v4.2h-1.6L502.8,523.1z"/>
<path class="st92" d="M512.7,515.7h1.6v4.8c0.5-1,1.6-1.6,2.7-1.5c2,0,3.7,1.3,3.7,4.1v4.2h-1.5v-4.2c0-1.8-1-2.7-2.4-2.7
	c-1.3-0.1-2.4,0.9-2.5,2.2c0,0.1,0,0.3,0,0.4v4.2h-1.6L512.7,515.7z"/>
<path class="st92" d="M521.9,523.3c-0.1-2.3,1.7-4.2,4-4.3c0.1,0,0.2,0,0.4,0c2.3-0.1,4.2,1.6,4.3,3.9c0,0.1,0,0.3,0,0.4v4h-1.4
	v-1.8c-0.5,1.3-1.8,2.1-3.1,2c-2.2,0.1-4-1.7-4.1-3.9C521.9,523.6,521.9,523.5,521.9,523.3z M529,523.3c0-1.5-1.3-2.8-2.8-2.7
	c-1.5,0-2.8,1.3-2.7,2.8c0,1.5,1.3,2.7,2.8,2.8c1.5,0.1,2.7-1.1,2.8-2.6C529,523.5,529,523.4,529,523.3L529,523.3z"/>
<path class="st92" d="M532.2,523.1c0-2.7,1.6-4.1,4-4.1s4,1.4,4,4.1v4.2h-1.6v-4.2c0.2-1.3-0.7-2.4-2-2.6c-0.2,0-0.3,0-0.5,0
	c-1.5,0-2.4,0.9-2.4,2.7v4.2h-1.6L532.2,523.1z"/>
<path class="st92" d="M541.4,523.3c-0.1-2.3,1.7-4.2,4-4.3c0.1,0,0.2,0,0.3,0c2-0.1,3.7,1.2,4.2,3.1h-1.6c-0.4-1.1-1.4-1.8-2.6-1.7
	c-1.6,0-2.8,1.3-2.8,2.8s1.3,2.8,2.8,2.8c1.1,0,2.2-0.7,2.6-1.7h1.6c-0.4,1.9-2.2,3.2-4.2,3.1c-2.3,0.1-4.2-1.7-4.3-3.9
	C541.4,523.6,541.4,523.5,541.4,523.3z"/>
<path class="st92" d="M550.9,523.3c0-2.4,1.9-4.3,4.3-4.3c2.4,0,4.3,1.9,4.3,4.3v0.6h-7c0.2,1.3,1.4,2.3,2.7,2.2
	c0.9,0.1,1.7-0.3,2.3-1h1.7c-1.1,2.2-3.7,3.1-5.9,2C551.9,526.5,551,525,550.9,523.3L550.9,523.3z M557.9,522.5
	c-0.3-1.2-1.4-2.1-2.7-2c-1.3-0.1-2.4,0.8-2.7,2H557.9z"/>
<path class="st92" d="M486.9,547.9h1.6c0.4,0.9,1.3,1.5,2.3,1.3c1.2,0.2,2.3-0.7,2.5-1.9c0-0.2,0-0.4,0-0.6v-1.2
	c-0.5,1-1.6,1.6-2.7,1.5c-2,0-3.7-1.3-3.7-4.1v-4.1h1.6v4.1c-0.2,1.3,0.7,2.4,2,2.6c0.2,0,0.3,0,0.5,0c1.3,0.1,2.4-0.9,2.5-2.2
	c0-0.1,0-0.3,0-0.4v-4.1h1.6v7.8c0,2.8-1.8,3.9-4,3.9C489.1,550.8,487.4,549.7,486.9,547.9z"/>
<path class="st92" d="M496.4,542.9c-0.1-2.4,1.8-4.4,4.2-4.4c2.4-0.1,4.4,1.8,4.4,4.2c0.1,2.4-1.8,4.4-4.2,4.4c0,0-0.1,0-0.1,0
	c-2.3,0.1-4.2-1.7-4.3-3.9C496.4,543.1,496.4,543,496.4,542.9z M503.5,542.9c0-1.5-1.3-2.8-2.8-2.7c-1.5,0-2.8,1.3-2.7,2.8
	c0,1.5,1.3,2.8,2.8,2.7c1.5,0.1,2.7-1.1,2.8-2.5C503.5,543.1,503.5,543,503.5,542.9z"/>
<path class="st92" d="M506.3,543.1v-4.2h1.6v4.2c-0.1,1.3,0.9,2.5,2.3,2.6c1.3,0.1,2.5-0.9,2.6-2.3c0-0.1,0-0.2,0-0.3v-4.2h1.6v4.2
	c0.2,2-1.2,3.8-3.3,4.1c-0.2,0-0.5,0-0.7,0C507.9,547.2,506.3,545.8,506.3,543.1z"/>
<path class="st92" d="M515.9,542.2c0-1.9,1.5-3.5,3.5-3.5s3.5,1.5,3.5,3.5c0,0,0,0,0,0v0.2h-1.5v-0.1c0-1.5-0.8-2.1-1.9-2.1
	s-1.9,0.6-1.9,2.1v4.8h-1.6L515.9,542.2z"/>
<path class="st92" d="M528.6,536.3h3.8c3.7,0,5.7,2.1,5.7,5.3s-2,5.3-5.7,5.3h-3.8V536.3z M532.4,545.4c2.7,0,4-1.5,4-3.8
	s-1.3-3.8-4-3.8h-2.1v7.6H532.4z"/>
<path class="st92" d="M539.1,543c-0.1-2.3,1.7-4.2,4-4.3c0.1,0,0.3,0,0.4,0c2.3-0.1,4.2,1.6,4.3,3.9c0,0.1,0,0.3,0,0.4v4h-1.4v-1.8
	c-0.5,1.3-1.8,2.1-3.1,2c-2.2,0.1-4.1-1.7-4.1-3.9C539.1,543.2,539.1,543.1,539.1,543z M546.3,542.9c0-1.5-1.3-2.8-2.8-2.7
	c-1.5,0-2.8,1.3-2.7,2.8c0,1.5,1.3,2.7,2.8,2.8c1.5,0.1,2.7-1.1,2.8-2.6C546.2,543.1,546.2,543,546.3,542.9L546.3,542.9z"/>
<path class="st92" d="M549.4,543.9V536h1.6v2.9h4.4v1.5h-4.4v3.6c0,1.3,0.7,1.8,1.7,1.8s1.7-0.5,1.7-1.8v-0.2h1.5v0.2
	c0.1,1.8-1.3,3.3-3.1,3.4c-1.8,0.1-3.3-1.3-3.4-3.1C549.4,544.2,549.4,544.1,549.4,543.9L549.4,543.9z"/>
<path class="st92" d="M556.8,543c-0.1-2.3,1.7-4.2,4-4.3c0.1,0,0.3,0,0.4,0c2.3-0.1,4.2,1.6,4.3,3.9c0,0.1,0,0.3,0,0.4v4H564v-1.8
	c-0.5,1.3-1.8,2.1-3.1,2c-2.2,0.1-4-1.7-4.1-3.9C556.8,543.2,556.8,543.1,556.8,543z M563.9,542.9c0-1.5-1.3-2.8-2.8-2.7
	c-1.5,0-2.8,1.3-2.7,2.8c0,1.5,1.3,2.7,2.8,2.8c1.5,0.1,2.7-1.1,2.8-2.5C563.9,543.1,563.9,543,563.9,542.9L563.9,542.9z"/>
<linearGradient id="SVGID_101_" gradientUnits="userSpaceOnUse" x1="-1119.4105" y1="3682.0466" x2="-1008.2806" y2="3647.8767" gradientTransform="matrix(-0.6881 0.7256 0.7256 0.6881 -3056.5557 -1142.7976)">
	<stop  offset="1.000000e-02" style="stop-color:#35435F"/>
	<stop  offset="1" style="stop-color:#000000"/>
</linearGradient>
<circle class="st102" cx="337" cy="605.9" r="68.9"/>
<linearGradient id="SVGID_102_" gradientUnits="userSpaceOnUse" x1="260.831" y1="906.3416" x2="488.0609" y2="906.3416" gradientTransform="matrix(0.77 0.64 0.64 -0.77 -470.7264 1114.5526)">
	<stop  offset="1.000000e-02" style="stop-color:#35435F"/>
	<stop  offset="0.97" style="stop-color:#000000"/>
</linearGradient>
<circle class="st103" cx="337" cy="605.9" r="63.7"/>
<circle class="st90" cx="334" cy="590.3" r="45.1"/>
<g id="_062-5">
	<g id="_08-5">
		
			<linearGradient id="SVGID_103_" gradientUnits="userSpaceOnUse" x1="407.5939" y1="-22.3648" x2="629.254" y2="-122.9548" gradientTransform="matrix(0.91 0.42 0.42 -0.91 -65.4362 367.0481)">
			<stop  offset="1.000000e-02" style="stop-color:#657A9B"/>
			<stop  offset="0.97" style="stop-color:#000000"/>
		</linearGradient>
		<path class="st104" d="M386.3,565.1c-11.2-12.9-22.4-17.5-22.4-17.5c-32.2-14.8-70.3-0.7-85.1,31.5c-14.8,32.2-0.7,70.3,31.5,85.1
			c32.2,14.8,70.3,0.7,85.1-31.5c7.1-15.5,7.8-33.1,1.9-49.1C394.8,576.9,391.1,570.6,386.3,565.1z M311.3,662
			c-31-14.3-44.6-50.9-30.3-81.9c14.3-31,50.9-44.6,81.9-30.3c31,14.3,44.6,50.9,30.3,81.9c-6.8,14.9-19.3,26.4-34.7,32.1
			C343.2,669.6,326.2,668.9,311.3,662L311.3,662z"/>
	</g>
</g>
<path class="st92" d="M331,574.8h2.3c0.3,1.5,1.6,2.7,3.2,2.6c1.8,0.1,3.2-1.3,3.3-3.1c0-0.1,0-0.3,0-0.4c0-1.8-1.4-3.3-3.3-3.3
	c-1.2,0-2.4,0.7-2.9,1.8l-2-0.6l1-8.2h8.2v2h-6.5l-0.6,4.6c0.8-1,2-1.6,3.2-1.5c2.8,0,5,2.2,5.1,4.9c0,0.1,0,0.2,0,0.4
	c0.2,2.9-2.1,5.5-5,5.6c-0.2,0-0.3,0-0.5,0C333.7,579.6,331.3,577.6,331,574.8z"/>
<path class="st92" d="M344.2,577.9c0-0.9,0.7-1.6,1.6-1.6c0.9,0,1.6,0.7,1.6,1.6c0,0.9-0.7,1.6-1.6,1.6c-0.8,0-1.6-0.6-1.6-1.5
	C344.2,578,344.2,577.9,344.2,577.9z"/>
<path class="st92" d="M299.6,592.2h1.7v10.7h-1.7V592.2z"/>
<path class="st92" d="M303.2,598.2c0-2.5,1.4-3.6,3.3-3.6c1.2-0.1,2.3,0.6,2.8,1.6c0.6-1,1.7-1.7,2.8-1.6c1.9,0,3.3,1.2,3.3,3.6v4.7
	H314v-4.7c0-1.5-0.8-2.2-1.9-2.2s-1.9,0.7-1.9,2.2v4.7h-1.6v-4.7c0.1-1-0.6-2-1.6-2.2c-0.1,0-0.2,0-0.3,0c-1.1,0-1.9,0.7-1.9,2.2
	v4.7h-1.5V598.2z"/>
<path class="st92" d="M317.2,598.9c-0.1-2.3,1.6-4.2,3.8-4.3c0.1,0,0.3,0,0.4,0c2.3-0.1,4.2,1.6,4.4,3.9c0,0.1,0,0.3,0,0.4
	c0.1,2.2-1.6,4.1-3.8,4.2c-0.1,0-0.2,0-0.3,0c-1.2,0-2.4-0.6-3-1.6v4.9h-1.5V598.9z M324.3,598.8c0-1.5-1.3-2.8-2.8-2.7
	c-1.5,0-2.8,1.3-2.7,2.8c0,1.5,1.2,2.7,2.8,2.7c1.5,0.1,2.7-1.1,2.8-2.6C324.3,599,324.3,598.9,324.3,598.8z"/>
<path class="st92" d="M327.4,591.3h1.5v11.6h-1.5V591.3z"/>
<path class="st92" d="M330.5,598.8c0-2.4,1.9-4.3,4.3-4.3c2.4,0,4.3,1.9,4.3,4.3v0.6h-7c0.2,1.3,1.4,2.3,2.7,2.2
	c0.9,0.1,1.7-0.3,2.3-1h1.7c-0.7,1.6-2.3,2.6-4,2.5c-2.3,0.1-4.2-1.7-4.3-3.9C330.5,599.1,330.5,598.9,330.5,598.8z M337.5,598
	c-0.4-1.5-2-2.3-3.5-1.9c-0.9,0.3-1.6,1-1.9,1.9H337.5z"/>
<path class="st92" d="M340.5,598.2c0-2.5,1.4-3.6,3.3-3.6c1,1.6,3,2.1,4.6,1.1c0.5-0.3,0.8-0.7,1.1-1.1c1.9,0,3.3,1.2,3.3,3.6v4.7
	h-1.5v-4.7c0-1.5-0.8-2.2-1.9-2.2s-1.9,0.7-1.9,2.2v4.7h-1.5v-4.7c0.1-1-0.6-2-1.6-2.2c-0.1,0-0.2,0-0.3,0c-1.1,0-1.9,0.7-1.9,2.2
	v4.7h-1.5L340.5,598.2z"/>
<path class="st92" d="M354.1,598.8c0-2.4,1.9-4.3,4.3-4.3c2.4,0,4.3,1.9,4.3,4.3v0.6h-7c0.2,1.3,1.4,2.3,2.7,2.2
	c0.9,0.1,1.7-0.3,2.3-1h1.7c-1.1,2.2-3.7,3.1-5.9,2C355.1,602,354.2,600.5,354.1,598.8L354.1,598.8z M361.1,598
	c-0.4-1.5-2-2.3-3.5-1.9c-0.9,0.3-1.6,1-1.9,1.9H361.1z"/>
<path class="st92" d="M364,598.7c0-2.7,1.6-4.1,4-4.1s4,1.4,4,4.1v4.2h-1.5v-4.2c0.2-1.3-0.7-2.5-2-2.6c-0.2,0-0.3,0-0.5,0
	c-1.5,0-2.4,0.9-2.4,2.7v4.2H364L364,598.7z"/>
<path class="st92" d="M373.6,599.8v-7.9h1.5v2.8h4.4v1.4h-4.4v3.6c0,1.3,0.7,1.8,1.7,1.8s1.7-0.5,1.7-1.8v-0.2h1.6v0.2
	c0.1,1.8-1.3,3.3-3.1,3.4c-1.8,0.1-3.3-1.3-3.4-3.1C373.6,600.1,373.6,599.9,373.6,599.8L373.6,599.8z"/>
<path class="st92" d="M321.9,623.4h1.5c0.4,0.9,1.3,1.5,2.3,1.3c1.2,0.1,2.3-0.7,2.5-1.9c0-0.2,0-0.4,0-0.6v-1.2
	c-0.5,1-1.6,1.6-2.7,1.5c-2,0-3.7-1.3-3.7-4.1v-4.1h1.5v4.1c-0.1,1.3,0.9,2.5,2.3,2.6c1.3,0.1,2.5-0.9,2.6-2.3c0-0.1,0-0.2,0-0.3
	v-4.1h1.5v7.8c0,2.8-1.8,3.9-4,3.9C324,626.3,322.3,625.2,321.9,623.4z"/>
<path class="st92" d="M331.3,618.4c-0.1-2.4,1.8-4.4,4.2-4.5s4.4,1.8,4.5,4.2c0.1,2.4-1.8,4.4-4.2,4.5c0,0-0.1,0-0.1,0
	c-2.3,0.1-4.2-1.6-4.3-3.9C331.3,618.7,331.3,618.6,331.3,618.4z M338.4,618.4c0-1.5-1.3-2.8-2.8-2.7c-1.5,0-2.8,1.3-2.7,2.8
	c0,1.5,1.3,2.7,2.8,2.8c1.5,0.1,2.7-1.1,2.8-2.6C338.4,618.6,338.4,618.5,338.4,618.4z"/>
<path class="st92" d="M341.3,618.6v-4.2h1.6v4.2c-0.1,1.3,0.9,2.5,2.3,2.6c1.3,0.1,2.5-0.9,2.6-2.3c0-0.1,0-0.2,0-0.3v-4.2h1.5v4.2
	c0,2.2-1.8,4-4,4S341.3,620.8,341.3,618.6L341.3,618.6z"/>
<path class="st92" d="M350.8,617.7c-0.1-1.9,1.4-3.6,3.3-3.7s3.6,1.4,3.7,3.3c0,0.1,0,0.2,0,0.4v0.1h-1.5v-0.1
	c0-1.5-0.8-2.1-1.9-2.1s-1.9,0.6-1.9,2.1v4.8h-1.5L350.8,617.7z"/>
<path class="st92" d="M301.6,635.8c0-2.8,1.6-4.6,4.6-4.6s4.7,1.8,4.7,4.6v6.3h-1.7v-3.4h-6v3.4h-1.6L301.6,635.8z M309.2,637.2
	v-1.4c0-1.7-1.3-3-3-3s-3,1.3-3,3v1.4H309.2z"/>
<path class="st92" d="M312.8,630.5h1.5v11.6h-1.5V630.5z"/>
<path class="st92" d="M316.2,643.1h1.6c0.5,0.9,1.5,1.5,2.5,1.3c1.7,0,2.8-0.8,2.8-2.9v-0.9c-0.6,1.1-1.8,1.7-3,1.7
	c-2.2,0.1-4-1.7-4.1-3.9c0-0.1,0-0.2,0-0.3c-0.1-2.3,1.8-4.2,4-4.3c0.1,0,0.2,0,0.3,0c2.3-0.1,4.2,1.6,4.3,3.9c0,0.1,0,0.3,0,0.4
	v3.3c0,3.1-1.9,4.3-4.3,4.3C318.3,645.8,316.8,644.9,316.2,643.1z M323,638.1c0-1.5-1.2-2.8-2.8-2.8c-1.5,0-2.8,1.2-2.8,2.8
	c0,0,0,0,0,0c0,1.5,1.2,2.8,2.8,2.8C321.8,640.8,323,639.6,323,638.1z"/>
<path class="st92" d="M325.9,638.1c-0.1-2.4,1.8-4.4,4.2-4.4s4.4,1.8,4.4,4.2s-1.8,4.4-4.2,4.4c0,0-0.1,0-0.1,0
	c-2.3,0.1-4.2-1.7-4.3-3.9C325.9,638.3,325.9,638.2,325.9,638.1z M333,638.1c0-1.5-1.3-2.8-2.8-2.7c-1.5,0-2.8,1.3-2.7,2.8
	c0,1.5,1.3,2.7,2.8,2.8c1.5,0.1,2.7-1.1,2.8-2.5C333,638.2,333,638.2,333,638.1z"/>
<path class="st92" d="M335.8,637.3c-0.1-1.9,1.4-3.6,3.3-3.7s3.6,1.4,3.7,3.3c0,0.1,0,0.2,0,0.4v0.1h-1.5v-0.1
	c0-1.5-0.8-2.1-1.9-2.1s-1.9,0.6-1.9,2.1v4.8h-1.5L335.8,637.3z"/>
<path class="st92" d="M343.8,631.6c0-0.6,0.5-1.1,1.1-1.1c0.6,0,1.1,0.5,1.1,1.1c0,0.6-0.5,1.1-1.1,1.1
	C344.3,632.7,343.8,632.3,343.8,631.6C343.8,631.7,343.8,631.7,343.8,631.6z M344.1,634h1.6v8.1h-1.6L344.1,634z"/>
<path class="st92" d="M347.6,639v-7.9h1.5v2.9h4.4v1.4h-4.4v3.6c0,1.3,0.7,1.8,1.7,1.8s1.7-0.5,1.7-1.8v-0.2h1.5v0.2
	c0.1,1.8-1.3,3.3-3.1,3.4c-1.8,0.1-3.3-1.3-3.4-3.1C347.6,639.3,347.6,639.2,347.6,639L347.6,639z"/>
<path class="st92" d="M355.6,630.5h1.5v4.9c0.5-1,1.6-1.6,2.7-1.5c2,0,3.7,1.3,3.7,4.1v4.2H362v-4.2c0-1.8-1-2.7-2.4-2.7
	c-1.3-0.1-2.4,0.9-2.5,2.2c0,0.1,0,0.3,0,0.4v4.2h-1.5L355.6,630.5z"/>
<path class="st92" d="M365.2,637.4c0-2.5,1.4-3.6,3.3-3.6c1.2-0.1,2.3,0.6,2.8,1.6c0.6-1,1.7-1.7,2.8-1.6c1.9,0,3.3,1.1,3.3,3.6v4.7
	H376v-4.7c0-1.5-0.8-2.2-1.9-2.2s-1.9,0.7-1.9,2.2v4.7h-1.5v-4.7c0-1.5-0.8-2.2-1.9-2.2s-1.9,0.7-1.9,2.2v4.7h-1.5L365.2,637.4z"/>
<linearGradient id="SVGID_104_" gradientUnits="userSpaceOnUse" x1="-1130.0032" y1="3302.4678" x2="-1018.8732" y2="3268.2979" gradientTransform="matrix(-0.6881 0.7256 0.7256 0.6881 -3056.5557 -1142.7976)">
	<stop  offset="1.000000e-02" style="stop-color:#35435F"/>
	<stop  offset="1" style="stop-color:#000000"/>
</linearGradient>
<circle class="st105" cx="68.9" cy="337" r="68.9"/>
<linearGradient id="SVGID_105_" gradientUnits="userSpaceOnUse" x1="-117.1591" y1="941.6876" x2="110.071" y2="941.6876" gradientTransform="matrix(0.77 0.64 0.64 -0.77 -470.7264 1114.5526)">
	<stop  offset="1.000000e-02" style="stop-color:#35435F"/>
	<stop  offset="0.97" style="stop-color:#000000"/>
</linearGradient>
<circle class="st106" cx="68.9" cy="337" r="63.7"/>
<circle class="st90" cx="65.9" cy="321.4" r="45.1"/>
<g id="_062-6">
	<g id="_08-6">
		
			<linearGradient id="SVGID_106_" gradientUnits="userSpaceOnUse" x1="51.4189" y1="109.4825" x2="273.0789" y2="8.8925" gradientTransform="matrix(0.91 0.42 0.42 -0.91 -65.4362 367.0481)">
			<stop  offset="1.000000e-02" style="stop-color:#657A9B"/>
			<stop  offset="0.97" style="stop-color:#000000"/>
		</linearGradient>
		<path class="st107" d="M118.2,296.3c-11.2-12.9-22.4-17.5-22.4-17.5c-32.2-14.8-70.3-0.7-85.1,31.5c-14.8,32.2-0.7,70.3,31.5,85.1
			c32.2,14.8,70.3,0.7,85.1-31.5c7.1-15.5,7.8-33.1,1.9-49.1C126.7,308,123,301.7,118.2,296.3z M43.2,393.2
			c-31-14.3-44.6-50.9-30.3-81.9s50.9-44.6,81.9-30.3s44.6,50.9,30.3,81.9c-6.8,14.9-19.3,26.4-34.7,32.1
			C75.1,400.7,58.1,400.1,43.2,393.2L43.2,393.2z"/>
	</g>
</g>
<path class="st92" d="M69.7,316.1H62v-2h10.2v1.9l-7.1,13.7h-2.5L69.7,316.1z"/>
<path class="st92" d="M74.3,328.4c-0.1-0.9,0.6-1.6,1.5-1.7s1.6,0.6,1.7,1.5c0,0.1,0,0.2,0,0.3c-0.1,0.9-0.8,1.5-1.7,1.5
	C75,329.8,74.4,329.2,74.3,328.4z"/>
<path class="st92" d="M41.8,348c0.1-3.2,2.7-5.7,5.9-5.6c2.3,0.1,4.3,1.5,5.1,3.6H51c-0.7-1.3-2-2.1-3.5-2c-2.2,0-4,1.8-4,4
	s1.8,4,4,4c1.8,0.1,3.4-1,3.9-2.8h-4.5v-1.5h6.3v0.8c-0.4,3.1-3.2,5.4-6.3,5C44,353.2,41.8,350.9,41.8,348L41.8,348z"/>
<path class="st92" d="M54.1,349.4c-0.1-2.4,1.8-4.4,4.2-4.4s4.4,1.8,4.4,4.2c0.1,2.4-1.8,4.4-4.2,4.4c0,0-0.1,0-0.1,0
	c-2.3,0.1-4.2-1.7-4.3-3.9C54.1,349.6,54.1,349.5,54.1,349.4z M61.3,349.4c0-1.5-1.3-2.8-2.8-2.7c-1.5,0-2.8,1.3-2.7,2.8
	c0,1.5,1.3,2.7,2.8,2.8c1.5,0.1,2.7-1.1,2.8-2.6C61.2,349.5,61.2,349.4,61.3,349.4L61.3,349.4z"/>
<path class="st92" d="M68.7,342.7h1.7v9.1h6v1.5h-7.7V342.7z"/>
<path class="st92" d="M77.6,342.9c0-0.6,0.5-1.1,1.1-1.1c0.6,0,1.1,0.5,1.1,1.1c0,0.6-0.5,1.1-1.1,1.1
	C78.1,344,77.6,343.5,77.6,342.9C77.6,342.9,77.6,342.9,77.6,342.9z M77.9,345.3h1.5v8h-1.5V345.3z"/>
<path class="st92" d="M80.8,345.4h1.7l2.6,6.7l2.6-6.7h1.7l-3.3,8h-1.9L80.8,345.4z"/>
<path class="st92" d="M89.8,349.4c0.1-2.4,2.1-4.2,4.5-4.1c2.2,0.1,4,1.9,4.1,4.1v0.6h-7c0.2,1.3,1.4,2.3,2.7,2.2
	c0.9,0.1,1.7-0.3,2.3-1h1.7c-1.1,2.2-3.7,3.1-5.9,2C90.9,352.5,89.9,351,89.8,349.4L89.8,349.4z M96.8,348.5c-0.4-1.5-2-2.3-3.5-1.9
	c-0.9,0.3-1.6,1-1.9,1.9H96.8z"/>
<linearGradient id="SVGID_107_" gradientUnits="userSpaceOnUse" x1="-1046.8944" y1="3489.7944" x2="-935.7643" y2="3455.6245" gradientTransform="matrix(-0.6881 0.7256 0.7256 0.6881 -3056.5557 -1142.7976)">
	<stop  offset="1.000000e-02" style="stop-color:#35435F"/>
	<stop  offset="1" style="stop-color:#000000"/>
</linearGradient>
<circle class="st108" cx="147.6" cy="526.2" r="68.9"/>
<linearGradient id="SVGID_108_" gradientUnits="userSpaceOnUse" x1="64.1209" y1="846.6208" x2="291.3609" y2="846.6208" gradientTransform="matrix(0.77 0.64 0.64 -0.77 -470.7264 1114.5526)">
	<stop  offset="1.000000e-02" style="stop-color:#35435F"/>
	<stop  offset="0.97" style="stop-color:#000000"/>
</linearGradient>
<circle class="st109" cx="147.6" cy="526.2" r="63.7"/>
<circle class="st90" cx="144.6" cy="510.6" r="45.1"/>
<g id="_062-7">
	<g id="_08-7">
		
			<linearGradient id="SVGID_109_" gradientUnits="userSpaceOnUse" x1="202.0795" y1="-29.0929" x2="423.7495" y2="-129.683" gradientTransform="matrix(0.91 0.42 0.42 -0.91 -65.4362 367.0481)">
			<stop  offset="1.000000e-02" style="stop-color:#657A9B"/>
			<stop  offset="0.97" style="stop-color:#000000"/>
		</linearGradient>
		<path class="st110" d="M197,485.5c-11.2-12.9-22.4-17.5-22.4-17.5c-32.2-14.8-70.3-0.7-85.1,31.5c-14.8,32.2-0.7,70.3,31.5,85.1
			c32.2,14.8,70.3,0.7,85.1-31.5c7.1-15.5,7.8-33.1,1.9-49.1C205.4,497.2,201.7,490.9,197,485.5z M122,582.4
			c-31-14.3-44.6-51-30.3-82c14.3-31,51-44.6,82-30.3s44.6,51,30.3,82c-6.8,14.9-19.3,26.4-34.7,32.1
			C153.8,589.9,136.8,589.3,122,582.4L122,582.4z"/>
	</g>
</g>
<path class="st92" d="M139.3,498.6c0-1.6,0.5-3.1,1.5-4.4l3.9-6h2.5l-3.6,5.5c0.6-0.3,1.3-0.5,2-0.5c2.9,0,4.9,2.3,4.9,5.5
	c0,3.1-2.5,5.6-5.6,5.6C141.9,504.2,139.4,501.7,139.3,498.6C139.4,498.6,139.4,498.6,139.3,498.6L139.3,498.6z M148.2,498.6
	c0.2-1.7-1.1-3.3-2.8-3.4c-0.1,0-0.3,0-0.4,0c-1.9,0-3.5,1.6-3.5,3.5s1.6,3.5,3.5,3.5C146.9,502.1,148.2,500.7,148.2,498.6
	L148.2,498.6z"/>
<path class="st92" d="M152.6,502.6c0-0.9,0.7-1.6,1.6-1.6c0.9,0,1.6,0.7,1.6,1.6c0,0.9-0.7,1.6-1.6,1.6c-0.8,0-1.6-0.6-1.6-1.5
	C152.6,502.7,152.6,502.6,152.6,502.6z"/>
<path class="st92" d="M113.9,516.9h7.9v1.5h-6.2v2.9h5.3v1.5h-5.3v3.1h6.2v1.5h-7.9V516.9z"/>
<path class="st92" d="M123.1,525.2h1.6c0,0.7,0.7,1.2,1.8,1.2s1.8-0.5,1.8-1.2s-0.8-0.9-1.9-1c-1.4-0.2-3.1-0.5-3.1-2.3
	c0-1.6,1.2-2.7,3.2-2.7s3.1,1.1,3.2,2.5H128c0-0.6-0.6-1.1-1.6-1.1s-1.6,0.5-1.6,1.1s0.8,0.8,1.8,1c1.4,0.2,3.1,0.4,3.1,2.3
	c0,1.6-1.3,2.7-3.4,2.7S123.1,526.7,123.1,525.2z"/>
<path class="st92" d="M131.1,524.5v-7.9h1.6v2.9h4.4v1.4h-4.4v3.6c0,1.3,0.7,1.8,1.7,1.8s1.7-0.5,1.7-1.8v-0.2h1.5v0.2
	c0,1.8-1.4,3.2-3.2,3.2C132.5,527.8,131.1,526.3,131.1,524.5C131.1,524.5,131.1,524.5,131.1,524.5L131.1,524.5z"/>
<path class="st92" d="M138.5,523.6c-0.1-2.3,1.7-4.2,4-4.3c0.1,0,0.2,0,0.4,0c2.3-0.1,4.2,1.6,4.3,3.9c0,0.1,0,0.3,0,0.4v4h-1.4
	v-1.8c-0.5,1.3-1.8,2.1-3.1,2c-2.2,0.1-4-1.7-4.1-3.9C138.5,523.8,138.5,523.7,138.5,523.6z M145.6,523.5c0-1.5-1.3-2.8-2.8-2.7
	c-1.5,0-2.8,1.3-2.7,2.8c0,1.5,1.3,2.7,2.8,2.8c1.5,0.1,2.7-1.1,2.8-2.6C145.6,523.7,145.6,523.6,145.6,523.5z"/>
<path class="st92" d="M148.8,523.5V516h1.6v5c0.6-1.1,1.8-1.7,3-1.6c2.2-0.1,4,1.7,4.1,3.9c0,0.1,0,0.2,0,0.3c0.1,2.3-1.7,4.2-4,4.3
	c-0.1,0-0.3,0-0.4,0c-2.3,0.1-4.2-1.6-4.3-3.9C148.8,523.8,148.8,523.6,148.8,523.5z M155.9,523.5c0-1.5-1.3-2.7-2.8-2.7
	c-1.5,0-2.7,1.3-2.7,2.8c0,1.5,1.3,2.7,2.8,2.7c1.5,0,2.7-1.1,2.7-2.6C155.9,523.7,155.9,523.6,155.9,523.5z"/>
<path class="st92" d="M159,516h1.5v11.6H159V516z"/>
<path class="st92" d="M162.4,517.1c0-0.6,0.5-1.1,1.1-1.1c0.6,0,1.1,0.5,1.1,1.1c0,0.6-0.5,1.1-1.1,1.1
	C162.9,518.2,162.4,517.8,162.4,517.1C162.4,517.2,162.4,517.1,162.4,517.1z M162.7,519.5h1.5v8.1h-1.5V519.5z"/>
<path class="st92" d="M165.9,525.2h1.6c0,0.7,0.7,1.2,1.8,1.2s1.8-0.5,1.8-1.2s-0.8-0.9-1.9-1c-1.4-0.2-3.1-0.5-3.1-2.3
	c0-1.6,1.2-2.7,3.2-2.7s3.1,1.1,3.2,2.5h-1.5c0-0.6-0.6-1.1-1.6-1.1s-1.6,0.5-1.6,1.1s0.8,0.8,1.8,1c1.4,0.2,3.1,0.4,3.1,2.3
	c0,1.6-1.3,2.7-3.3,2.7S165.9,526.7,165.9,525.2z"/>
<path class="st92" d="M174.1,516h1.5v4.8c0.5-1,1.6-1.6,2.7-1.5c2,0,3.7,1.3,3.7,4.1v4.2h-1.5v-4.2c0-1.8-1-2.7-2.4-2.7
	c-1.3-0.1-2.4,0.9-2.5,2.2c0,0.1,0,0.3,0,0.4v4.2h-1.5V516z"/>
<path class="st92" d="M102.7,541.8c0.1-3.2,2.7-5.6,5.9-5.6c2.4,0.1,4.5,1.7,5.3,4h-1.8c-0.6-1.5-2.1-2.5-3.7-2.4c-2.2,0-4,1.8-4,4
	s1.8,4,4,4c1.6,0.1,3.1-0.9,3.7-2.4h1.8c-1,3-4.2,4.7-7.2,3.7C104.4,546.3,102.8,544.2,102.7,541.8L102.7,541.8z"/>
<path class="st92" d="M114.9,543.1c-0.1-2.4,1.8-4.4,4.2-4.4s4.4,1.8,4.4,4.2s-1.8,4.4-4.2,4.4c0,0-0.1,0-0.1,0
	c-2.3,0.1-4.2-1.6-4.3-3.9C114.9,543.4,114.9,543.2,114.9,543.1z M122.1,543.1c0-1.5-1.3-2.8-2.8-2.7c-1.5,0-2.8,1.3-2.7,2.8
	c0,1.5,1.3,2.7,2.8,2.8c1.5,0.1,2.7-1.1,2.8-2.6C122.1,543.3,122.1,543.2,122.1,543.1z"/>
<path class="st92" d="M124.9,543c-0.2-2,1.3-3.9,3.3-4.1c0.2,0,0.5,0,0.7,0c2.4,0,4,1.4,4,4.1v4.2h-1.6V543c0-1.8-1-2.7-2.4-2.7
	c-1.3-0.1-2.4,0.9-2.5,2.2c0,0.2,0,0.3,0,0.5v4.2h-1.5V543z"/>
<path class="st92" d="M134.7,538.8c0-1.9,1.6-3.5,3.5-3.5s3.5,1.6,3.5,3.5h-1.6c0-1.5-0.8-2.1-1.9-2.1c-1-0.1-1.9,0.6-1.9,1.6
	c0,0.1,0,0.2,0,0.4v1.4h4.4v1.4h-4.4v5.5h-1.5L134.7,538.8z M142.4,536.7c0-0.6,0.5-1.1,1.1-1.1c0.6,0,1.1,0.5,1.1,1.1
	c0,0.6-0.5,1.1-1.1,1.1C142.9,537.8,142.4,537.4,142.4,536.7C142.4,536.8,142.4,536.8,142.4,536.7z M142.7,539.1h1.5v8.1h-1.5V539.1
	z"/>
<path class="st92" d="M145.8,543.1c-0.1-2.2,1.6-4.1,3.8-4.2c0.1,0,0.2,0,0.3,0c1.2,0,2.4,0.6,3,1.6v-5h1.5v7.5
	c0.1,2.3-1.6,4.2-3.8,4.3c-0.2,0-0.3,0-0.5,0c-2.3,0.1-4.2-1.7-4.3-3.9C145.8,543.3,145.8,543.2,145.8,543.1z M152.9,543.1
	c0-1.5-1.3-2.8-2.8-2.7c-1.5,0-2.8,1.3-2.7,2.8c0,1.5,1.3,2.7,2.8,2.7c1.5,0.1,2.7-1.1,2.8-2.6C153,543.3,153,543.2,152.9,543.1
	L152.9,543.1z"/>
<path class="st92" d="M155.8,543.1c0-2.4,1.9-4.3,4.3-4.3c2.4,0,4.3,1.9,4.3,4.3v0.6h-7c0.2,1.3,1.3,2.3,2.7,2.2
	c0.9,0.1,1.7-0.3,2.3-1h1.7c-1,2.2-3.7,3.1-5.8,2.1C156.8,546.3,155.9,544.8,155.8,543.1L155.8,543.1z M162.8,542.3
	c-0.3-1.2-1.4-2.1-2.7-2c-1.3-0.1-2.4,0.8-2.7,2H162.8z"/>
<path class="st92" d="M165.7,543c-0.2-2,1.3-3.9,3.3-4.1c0.2,0,0.5,0,0.7,0c2.4,0,4,1.4,4,4.1v4.2h-1.6V543c0.2-1.3-0.7-2.5-2-2.6
	c-0.2,0-0.3,0-0.5,0c-1.5,0-2.4,0.9-2.4,2.7v4.2h-1.6L165.7,543z"/>
<path class="st92" d="M175,543.1c-0.1-2.3,1.7-4.2,4-4.3c0.1,0,0.2,0,0.3,0c2-0.1,3.7,1.2,4.2,3.1h-1.6c-0.6-1.4-2.3-2.1-3.7-1.5
	s-2.1,2.3-1.5,3.7s2.3,2.1,3.7,1.5c0.7-0.3,1.2-0.8,1.5-1.5h1.6c-0.5,1.9-2.2,3.2-4.2,3.1c-2.3,0.1-4.2-1.7-4.3-3.9
	C175,543.3,175,543.2,175,543.1z"/>
<path class="st92" d="M184.4,543.1c0.1-2.4,2.1-4.2,4.5-4.1c2.2,0.1,4,1.9,4.1,4.1v0.6h-7c0.2,1.3,1.4,2.3,2.7,2.2
	c0.9,0.1,1.7-0.3,2.3-1h1.7c-1.1,2.2-3.7,3.1-5.9,2C185.5,546.3,184.5,544.8,184.4,543.1L184.4,543.1z M191.4,542.3
	c-0.3-1.2-1.4-2.1-2.7-2c-1.3-0.1-2.4,0.8-2.7,2H191.4z"/>
<linearGradient id="SVGID_110_" gradientUnits="userSpaceOnUse" x1="-1321.9523" y1="3229.9414" x2="-1210.8223" y2="3195.7712" gradientTransform="matrix(-0.6881 0.7256 0.7256 0.6881 -3056.5557 -1142.7976)">
	<stop  offset="1.000000e-02" style="stop-color:#35435F"/>
	<stop  offset="1" style="stop-color:#000000"/>
</linearGradient>
<circle class="st111" cx="148.3" cy="147.8" r="68.9"/>
<linearGradient id="SVGID_111_" gradientUnits="userSpaceOnUse" x1="-176.5691" y1="1137.7283" x2="50.6709" y2="1137.7283" gradientTransform="matrix(0.77 0.64 0.64 -0.77 -470.7264 1114.5526)">
	<stop  offset="1.000000e-02" style="stop-color:#35435F"/>
	<stop  offset="0.97" style="stop-color:#000000"/>
</linearGradient>
<circle class="st112" cx="148.3" cy="147.8" r="63.7"/>
<circle class="st90" cx="145.3" cy="132.2" r="45.1"/>
<g id="_062-8">
	<g id="_08-8">
		
			<linearGradient id="SVGID_112_" gradientUnits="userSpaceOnUse" x1="44.6195" y1="313.9666" x2="266.2795" y2="213.3666" gradientTransform="matrix(0.91 0.42 0.42 -0.91 -65.4362 367.0481)">
			<stop  offset="1.000000e-02" style="stop-color:#657A9B"/>
			<stop  offset="0.97" style="stop-color:#000000"/>
		</linearGradient>
		<path class="st113" d="M197.7,107.1c-11.2-12.9-22.4-17.5-22.4-17.5C143.1,74.8,105,88.8,90.2,121s-0.7,70.3,31.5,85.1
			c32.2,14.8,70.3,0.7,85.1-31.5c7.1-15.5,7.8-33.1,1.9-49.1C206.2,118.8,202.4,112.5,197.7,107.1z M122.7,204
			c-31-14.3-44.6-50.9-30.3-81.9s50.9-44.6,81.9-30.3c31,14.3,44.6,50.9,30.3,81.9c-6.8,14.9-19.3,26.4-34.7,32.1
			C154.6,211.5,137.5,210.9,122.7,204L122.7,204z"/>
	</g>
</g>
<path class="st92" d="M140,121.1c-0.1-1.8,1.1-3.4,2.8-3.9l0,0c-1.4-0.5-2.3-1.9-2.2-3.4c0-2.6,2-4.2,5-4.2s5,1.6,5,4.2
	c0.1,1.5-0.8,2.9-2.2,3.4l0,0c1.7,0.5,2.8,2.1,2.8,3.9c0,2.9-2.3,4.7-5.5,4.7S140,123.9,140,121.1z M148.8,120.9
	c0-1.7-1.2-2.7-3.1-2.7h-0.3c-1.9,0-3.1,1-3.1,2.7s1.1,2.8,3.3,2.8S148.8,122.5,148.8,120.9z M145.7,116.2c1.6,0,2.6-0.9,2.6-2.3
	s-0.9-2.4-2.7-2.4s-2.7,1-2.7,2.4s1,2.3,2.6,2.3H145.7z"/>
<path class="st92" d="M153.2,124.2c0-0.9,0.7-1.6,1.6-1.6s1.6,0.7,1.6,1.6s-0.7,1.6-1.6,1.6c-0.8,0-1.6-0.6-1.6-1.5
	C153.2,124.3,153.2,124.2,153.2,124.2z"/>
<path class="st92" d="M107.3,138.5h4.6c2.6,0,3.8,1.4,3.8,3.4c0.1,1.5-0.9,3-2.4,3.3l2.8,4h-2l-2.5-3.8H109v3.8h-1.7L107.3,138.5z
	 M111.9,143.8c1.6,0,2.1-0.8,2.1-1.9s-0.5-1.9-2.1-1.9H109v3.8L111.9,143.8z"/>
<path class="st92" d="M116.9,145.1c0-2.4,1.9-4.3,4.3-4.3c2.4,0,4.3,1.9,4.3,4.3v0.6h-7c0.2,1.3,1.4,2.3,2.7,2.2
	c0.9,0.1,1.7-0.3,2.3-1h1.7c-1,2.2-3.7,3.1-5.8,2.1C117.9,148.3,117,146.8,116.9,145.1L116.9,145.1z M123.9,144.3
	c-0.4-1.5-2-2.3-3.5-1.9c-0.9,0.3-1.6,1-1.9,1.9H123.9z"/>
<path class="st92" d="M127.1,140.8c0-1.9,1.6-3.5,3.5-3.5c1.9,0,3.5,1.6,3.5,3.5h-1.5c0-1.4-0.8-2.1-1.9-2.1c-1-0.1-1.9,0.7-1.9,1.6
	c0,0.1,0,0.3,0,0.4v1.4h4.4v1.4h-4.4v5.5h-1.6V140.8z M134.8,138.7c-0.1-0.6,0.4-1.1,1-1.2c0.6-0.1,1.1,0.4,1.2,1c0,0.1,0,0.1,0,0.2
	c0.1,0.6-0.4,1.1-1,1.2c-0.6,0.1-1.1-0.4-1.2-1C134.8,138.8,134.8,138.8,134.8,138.7z M135.1,141.1h1.5v8.1h-1.5L135.1,141.1z"/>
<path class="st92" d="M138.5,145c0-2.7,1.6-4.1,4-4.1s4,1.4,4,4.1v4.2H145V145c0-1.8-1-2.6-2.4-2.6c-1.3-0.1-2.4,0.9-2.5,2.2
	c0,0.2,0,0.3,0,0.5v4.2h-1.5L138.5,145z"/>
<path class="st92" d="M147.8,145.1c0-2.4,1.9-4.3,4.3-4.3c2.4,0,4.3,1.9,4.3,4.3v0.6h-7c0.2,1.3,1.4,2.3,2.7,2.2
	c0.9,0.1,1.7-0.3,2.3-1h1.7c-1.1,2.2-3.7,3.1-5.9,2C148.8,148.3,147.8,146.8,147.8,145.1L147.8,145.1z M154.8,144.3
	c-0.4-1.5-2-2.3-3.5-1.9c-0.9,0.3-1.6,1-1.9,1.9H154.8z"/>
<path class="st92" d="M161.7,145.2c-0.1-2.3,1.7-4.2,4-4.3c0.1,0,0.2,0,0.4,0c2.3-0.1,4.2,1.6,4.3,3.9c0,0.2,0,0.3,0,0.5v4H169v-1.8
	c-0.5,1.3-1.8,2.1-3.1,2c-2.2,0.1-4-1.7-4.1-3.9C161.7,145.4,161.7,145.3,161.7,145.2z M168.9,145.1c0-1.5-1.3-2.8-2.8-2.7
	c-1.5,0-2.8,1.3-2.7,2.8c0,1.5,1.3,2.8,2.8,2.7c1.5,0.1,2.7-1.1,2.8-2.6C168.9,145.3,168.9,145.2,168.9,145.1L168.9,145.1z"/>
<path class="st92" d="M172,145c0-2.7,1.6-4.1,4-4.1s4,1.4,4,4.1v4.2h-1.5V145c0.2-1.3-0.7-2.5-2-2.6c-0.2,0-0.3,0-0.5,0
	c-1.5,0-2.4,0.9-2.4,2.6v4.2H172L172,145z"/>
<path class="st92" d="M181.3,145.1c-0.1-2.2,1.6-4.1,3.8-4.2c0.1,0,0.2,0,0.3,0c1.2-0.1,2.4,0.6,3,1.6v-5h1.6v7.5
	c0.1,2.3-1.6,4.2-3.8,4.3c-0.2,0-0.3,0-0.5,0c-2.3,0.1-4.2-1.6-4.4-3.9C181.3,145.3,181.3,145.2,181.3,145.1z M188.4,145.1
	c0-1.5-1.3-2.8-2.8-2.7c-1.5,0-2.8,1.3-2.7,2.8c0,1.5,1.3,2.7,2.8,2.7c1.5,0.1,2.7-1.1,2.8-2.6C188.4,145.3,188.4,145.2,188.4,145.1
	z"/>
<path class="st92" d="M121.1,158.1h4.6c2.6,0,3.8,1.5,3.8,3.4c0.1,1.6-0.9,3-2.4,3.3l2.8,4h-2l-2.5-3.8h-2.6v3.8h-1.7V158.1z
	 M125.7,163.4c1.5,0,2.1-0.8,2.1-1.9s-0.5-1.9-2.1-1.9h-3v3.8H125.7z"/>
<path class="st92" d="M130.6,164.7c0-2.4,1.9-4.3,4.3-4.3c2.4,0,4.3,1.9,4.3,4.3v0.6h-7c0.2,1.3,1.4,2.3,2.7,2.2
	c0.9,0.1,1.7-0.3,2.3-1h1.7c-0.7,1.6-2.3,2.6-4,2.5c-2.3,0.1-4.2-1.7-4.3-3.9C130.6,165,130.6,164.9,130.6,164.7z M137.6,163.9
	c-0.4-1.5-2-2.3-3.5-1.9c-0.9,0.3-1.6,1-1.9,1.9H137.6z"/>
<path class="st92" d="M140.6,164.8c-0.1-2.3,1.6-4.2,3.8-4.3c0.1,0,0.3,0,0.4,0c2.3-0.1,4.2,1.6,4.4,3.9c0,0.1,0,0.3,0,0.4
	c0.1,2.2-1.6,4.1-3.8,4.2c-0.1,0-0.2,0-0.3,0c-1.2,0-2.4-0.6-3-1.6v4.9h-1.5L140.6,164.8z M147.7,164.7c0-1.5-1.3-2.8-2.8-2.7
	c-1.5,0-2.8,1.3-2.7,2.8c0,1.5,1.2,2.7,2.8,2.7c1.5,0.1,2.7-1.1,2.8-2.6C147.7,164.9,147.7,164.8,147.7,164.7L147.7,164.7z"/>
<path class="st92" d="M150.2,164.7c0-2.4,1.9-4.3,4.3-4.3c2.4,0,4.3,1.9,4.3,4.3v0.6h-7c0.2,1.3,1.4,2.3,2.7,2.2
	c0.9,0.1,1.7-0.3,2.3-1h1.7c-1.1,2.2-3.7,3.1-5.9,2C151.2,167.9,150.2,166.4,150.2,164.7L150.2,164.7z M157.2,163.9
	c-0.4-1.5-2-2.3-3.4-1.9c-0.9,0.3-1.6,1-1.9,1.9H157.2z"/>
<path class="st92" d="M159.8,164.8c-0.1-2.3,1.7-4.2,4-4.3c0.1,0,0.2,0,0.4,0c2.3-0.1,4.2,1.6,4.3,3.9c0,0.1,0,0.3,0,0.4v4H167V167
	c-0.5,1.3-1.8,2.1-3.1,2c-2.2,0.1-4-1.7-4.1-3.9C159.8,165,159.8,164.9,159.8,164.8z M166.9,164.7c0-1.5-1.3-2.8-2.8-2.7
	c-1.5,0-2.8,1.3-2.7,2.8c0,1.5,1.3,2.8,2.8,2.7c1.5,0.1,2.7-1.1,2.8-2.6C166.9,164.9,166.9,164.8,166.9,164.7L166.9,164.7z"/>
<path class="st92" d="M170,165.7v-7.9h1.6v2.9h4.4v1.4h-4.4v3.6c0,1.3,0.7,1.8,1.7,1.8s1.7-0.5,1.7-1.8v-0.2h1.5v0.2
	c0.1,1.8-1.3,3.3-3.1,3.4s-3.3-1.3-3.4-3.1C170,166,170,165.8,170,165.7L170,165.7z"/>
</svg>
