<svg id="SeerCycle" xmlns="http://www.w3.org/2000/svg" xmlns:xlink="http://www.w3.org/1999/xlink" viewBox="0 0 1448.03 839.55"><defs><style>.cls-1{mask:url(#mask);filter:url(#luminosity-noclip-2);}.cls-2{mix-blend-mode:multiply;fill:url(#linear-gradient);}.cls-3{fill:url(#linear-gradient-2);}.cls-4{fill:url(#linear-gradient-3);}.cls-5{fill:url(#linear-gradient-4);}.cls-6{fill:url(#linear-gradient-5);}.cls-7{fill:url(#linear-gradient-6);}.cls-8{fill:url(#linear-gradient-7);}.cls-9{fill:url(#linear-gradient-8);}.cls-10{fill:url(#linear-gradient-9);}.cls-11{fill:url(#linear-gradient-10);}.cls-12{fill:url(#linear-gradient-11);}.cls-13{fill:url(#linear-gradient-12);}.cls-14{fill:url(#linear-gradient-13);}.cls-15{fill:url(#linear-gradient-14);}.cls-16{fill:url(#linear-gradient-15);}.cls-17{fill:url(#linear-gradient-16);}.cls-18{fill:url(#linear-gradient-17);}.cls-19{fill:url(#linear-gradient-18);}.cls-20{fill:url(#linear-gradient-19);}.cls-21{fill:url(#linear-gradient-20);}.cls-22{fill:url(#linear-gradient-21);}.cls-23{fill:url(#linear-gradient-22);}.cls-24{fill:url(#linear-gradient-23);}.cls-25{fill:url(#linear-gradient-24);}.cls-26{fill:url(#linear-gradient-25);}.cls-27{fill:url(#linear-gradient-26);}.cls-28{fill:url(#linear-gradient-27);}.cls-29{fill:url(#linear-gradient-28);}.cls-30{fill:url(#linear-gradient-29);}.cls-31{fill:url(#linear-gradient-30);}.cls-32{fill:url(#linear-gradient-31);}.cls-33{fill:url(#linear-gradient-32);}.cls-34{fill:url(#linear-gradient-33);}.cls-35{fill:url(#linear-gradient-34);}.cls-36{fill:url(#linear-gradient-35);}.cls-37{fill:url(#linear-gradient-36);}.cls-38{fill:url(#linear-gradient-37);}.cls-39{fill:url(#linear-gradient-38);}.cls-40{fill:url(#linear-gradient-39);}.cls-41{fill:url(#linear-gradient-40);}.cls-42{fill:url(#linear-gradient-41);}.cls-43{fill:url(#linear-gradient-42);}.cls-44{fill:url(#linear-gradient-43);}.cls-45{fill:url(#linear-gradient-44);}.cls-46{fill:url(#linear-gradient-45);}.cls-47{fill:url(#linear-gradient-46);}.cls-48{fill:url(#linear-gradient-47);}.cls-49{fill:url(#linear-gradient-48);}.cls-50{fill:url(#linear-gradient-49);}.cls-51{fill:url(#linear-gradient-50);}.cls-52{fill:url(#linear-gradient-51);}.cls-53{fill:url(#linear-gradient-52);}.cls-54{fill:url(#linear-gradient-53);}.cls-55{fill:url(#linear-gradient-54);}.cls-56{fill:url(#linear-gradient-55);}.cls-57{fill:url(#linear-gradient-56);}.cls-58{fill:url(#linear-gradient-57);}.cls-59{fill:url(#linear-gradient-58);}.cls-60{fill:url(#linear-gradient-59);}.cls-61{fill:url(#linear-gradient-60);}.cls-62{fill:url(#linear-gradient-61);}.cls-63{fill:url(#linear-gradient-62);}.cls-64{fill:url(#linear-gradient-63);}.cls-65{fill:url(#linear-gradient-64);}.cls-66{fill:url(#linear-gradient-65);}.cls-67{fill:url(#linear-gradient-66);}.cls-68{fill:url(#linear-gradient-67);}.cls-69{fill:url(#linear-gradient-68);}.cls-70{fill:url(#linear-gradient-69);}.cls-71{fill:url(#linear-gradient-70);}.cls-72{fill:url(#linear-gradient-71);}.cls-73{fill:url(#linear-gradient-72);}.cls-74{fill:url(#linear-gradient-73);}.cls-75{fill:url(#linear-gradient-74);}.cls-76{fill:url(#linear-gradient-75);}.cls-77{fill:url(#linear-gradient-76);}.cls-78{fill:url(#linear-gradient-77);}.cls-79{fill:url(#linear-gradient-78);}.cls-80{fill:url(#linear-gradient-79);}.cls-81{fill:url(#linear-gradient-80);}.cls-82{fill:url(#linear-gradient-81);}.cls-83{fill:url(#linear-gradient-82);}.cls-84{fill:url(#linear-gradient-83);}.cls-85{fill:url(#linear-gradient-84);}.cls-86{fill:url(#linear-gradient-85);}.cls-87{fill:url(#linear-gradient-86);}.cls-88{fill:url(#linear-gradient-87);}.cls-89{fill:url(#linear-gradient-88);}.cls-90{fill:url(#linear-gradient-89);}.cls-91{fill:url(#linear-gradient-90);}.cls-92{fill:url(#linear-gradient-91);}.cls-110,.cls-93,.cls-95{fill:#fff;}.cls-93{opacity:0.05;}.cls-94{fill:url(#linear-gradient-92);}.cls-96{fill:url(#linear-gradient-93);}.cls-97{fill:url(#linear-gradient-94);}.cls-98{fill:url(#linear-gradient-95);}.cls-99{fill:url(#linear-gradient-96);}.cls-100{fill:url(#linear-gradient-97);}.cls-101{fill:url(#linear-gradient-98);}.cls-102{fill:url(#linear-gradient-99);}.cls-103{fill:url(#linear-gradient-100);}.cls-104{fill:url(#linear-gradient-101);}.cls-105{fill:url(#linear-gradient-102);}.cls-106{fill:url(#linear-gradient-103);}.cls-107{fill:url(#linear-gradient-104);}.cls-108{fill:url(#linear-gradient-105);}.cls-109{fill:url(#radial-gradient);}.cls-110{opacity:0.15;}.cls-111{fill:url(#linear-gradient-106);}.cls-112{fill:#001a28;}.cls-113{fill:url(#linear-gradient-107);}.cls-114{fill:url(#linear-gradient-108);}.cls-115{fill:url(#linear-gradient-109);}.cls-116{fill:url(#linear-gradient-110);}.cls-117{fill:url(#linear-gradient-111);}.cls-118{fill:url(#linear-gradient-112);}.cls-119{fill:url(#linear-gradient-113);}.cls-120{fill:url(#linear-gradient-114);}.cls-121{fill:url(#linear-gradient-115);}.cls-122{fill:url(#linear-gradient-116);}.cls-123{mask:url(#mask-2);}.cls-124{fill:url(#linear-gradient-117);}.cls-125{filter:url(#luminosity-noclip);}</style><filter id="luminosity-noclip" x="362.85" y="-7132.89" width="79.9" height="32766" filterUnits="userSpaceOnUse" color-interpolation-filters="sRGB"><feFlood flood-color="#fff" result="bg"/><feBlend in="SourceGraphic" in2="bg"/></filter><mask id="mask" x="362.85" y="-7132.89" width="79.9" height="32766" maskUnits="userSpaceOnUse"><g class="cls-125"/></mask><linearGradient id="linear-gradient" x1="1374.93" y1="742.9" x2="1454.83" y2="742.9" gradientTransform="translate(-1011.97 -129.73) rotate(0.01)" gradientUnits="userSpaceOnUse"><stop offset="0"/><stop offset="1" stop-color="#fff"/></linearGradient><linearGradient id="linear-gradient-2" x1="418.32" y1="1506.86" x2="423.35" y2="1506.86" gradientTransform="translate(67.73 -1168.59) rotate(-16.56)" gradientUnits="userSpaceOnUse"><stop offset="0.01" stop-color="#35435f"/><stop offset="0.97"/></linearGradient><linearGradient id="linear-gradient-3" x1="429.23" y1="1506.23" x2="434.25" y2="1506.23" xlink:href="#linear-gradient-2"/><linearGradient id="linear-gradient-4" x1="424.25" y1="1501" x2="429.28" y2="1501" xlink:href="#linear-gradient-2"/><linearGradient id="linear-gradient-5" x1="424.25" y1="1511.67" x2="429.28" y2="1511.67" xlink:href="#linear-gradient-2"/><linearGradient id="linear-gradient-6" x1="418.61" y1="1496.42" x2="423.63" y2="1496.42" xlink:href="#linear-gradient-2"/><linearGradient id="linear-gradient-7" x1="418.61" y1="1516.25" x2="423.63" y2="1516.25" xlink:href="#linear-gradient-2"/><linearGradient id="linear-gradient-8" x1="411.01" y1="1507.07" x2="416.04" y2="1507.07" xlink:href="#linear-gradient-2"/><linearGradient id="linear-gradient-9" x1="403.57" y1="1507.83" x2="408.59" y2="1507.83" xlink:href="#linear-gradient-2"/><linearGradient id="linear-gradient-10" x1="396.1" y1="1508.66" x2="401.13" y2="1508.66" xlink:href="#linear-gradient-2"/><linearGradient id="linear-gradient-11" x1="388.67" y1="1509.36" x2="393.7" y2="1509.36" xlink:href="#linear-gradient-2"/><linearGradient id="linear-gradient-12" x1="380.97" y1="1511.1" x2="386" y2="1511.1" xlink:href="#linear-gradient-2"/><linearGradient id="linear-gradient-13" x1="-2779.98" y1="4040.52" x2="-2774.95" y2="4040.52" gradientTransform="matrix(0.46, -0.89, 0.89, 0.46, -1544.5, -4042.36)" xlink:href="#linear-gradient-2"/><linearGradient id="linear-gradient-14" x1="-2769.08" y1="4039.89" x2="-2764.05" y2="4039.89" gradientTransform="matrix(0.46, -0.89, 0.89, 0.46, -1544.5, -4042.36)" xlink:href="#linear-gradient-2"/><linearGradient id="linear-gradient-15" x1="-2774.06" y1="4034.66" x2="-2769.03" y2="4034.66" gradientTransform="matrix(0.46, -0.89, 0.89, 0.46, -1544.5, -4042.36)" xlink:href="#linear-gradient-2"/><linearGradient id="linear-gradient-16" x1="-2774.06" y1="4045.33" x2="-2769.03" y2="4045.33" gradientTransform="matrix(0.46, -0.89, 0.89, 0.46, -1544.5, -4042.36)" xlink:href="#linear-gradient-2"/><linearGradient id="linear-gradient-17" x1="-2779.7" y1="4030.08" x2="-2774.67" y2="4030.08" gradientTransform="matrix(0.46, -0.89, 0.89, 0.46, -1544.5, -4042.36)" xlink:href="#linear-gradient-2"/><linearGradient id="linear-gradient-18" x1="-2779.7" y1="4049.91" x2="-2774.67" y2="4049.91" gradientTransform="matrix(0.46, -0.89, 0.89, 0.46, -1544.5, -4042.36)" xlink:href="#linear-gradient-2"/><linearGradient id="linear-gradient-19" x1="-2787.29" y1="4040.73" x2="-2782.26" y2="4040.73" gradientTransform="matrix(0.46, -0.89, 0.89, 0.46, -1544.5, -4042.36)" xlink:href="#linear-gradient-2"/><linearGradient id="linear-gradient-20" x1="-2794.74" y1="4041.49" x2="-2789.71" y2="4041.49" gradientTransform="matrix(0.46, -0.89, 0.89, 0.46, -1544.5, -4042.36)" xlink:href="#linear-gradient-2"/><linearGradient id="linear-gradient-21" x1="-2802.21" y1="4042.32" x2="-2797.18" y2="4042.32" gradientTransform="matrix(0.46, -0.89, 0.89, 0.46, -1544.5, -4042.36)" xlink:href="#linear-gradient-2"/><linearGradient id="linear-gradient-22" x1="-2809.64" y1="4043.02" x2="-2804.61" y2="4043.02" gradientTransform="matrix(0.46, -0.89, 0.89, 0.46, -1544.5, -4042.36)" xlink:href="#linear-gradient-2"/><linearGradient id="linear-gradient-23" x1="-2817.34" y1="4044.76" x2="-2812.31" y2="4044.76" gradientTransform="matrix(0.46, -0.89, 0.89, 0.46, -1544.5, -4042.36)" xlink:href="#linear-gradient-2"/><linearGradient id="linear-gradient-24" x1="-1625.76" y1="-4847.04" x2="-1620.73" y2="-4847.04" gradientTransform="translate(-2975.95 3209.64) rotate(74.09)" xlink:href="#linear-gradient-2"/><linearGradient id="linear-gradient-25" x1="-1614.85" y1="-4847.67" x2="-1609.83" y2="-4847.67" gradientTransform="translate(-2975.95 3209.64) rotate(74.09)" xlink:href="#linear-gradient-2"/><linearGradient id="linear-gradient-26" x1="-1619.83" y1="-4852.9" x2="-1614.8" y2="-4852.9" gradientTransform="translate(-2975.95 3209.64) rotate(74.09)" xlink:href="#linear-gradient-2"/><linearGradient id="linear-gradient-27" x1="-1619.83" y1="-4842.22" x2="-1614.8" y2="-4842.22" gradientTransform="translate(-2975.95 3209.64) rotate(74.09)" xlink:href="#linear-gradient-2"/><linearGradient id="linear-gradient-28" x1="-1625.47" y1="-4857.48" x2="-1620.44" y2="-4857.48" gradientTransform="translate(-2975.95 3209.64) rotate(74.09)" xlink:href="#linear-gradient-2"/><linearGradient id="linear-gradient-29" x1="-1625.47" y1="-4837.64" x2="-1620.44" y2="-4837.64" gradientTransform="translate(-2975.95 3209.64) rotate(74.09)" xlink:href="#linear-gradient-2"/><linearGradient id="linear-gradient-30" x1="-1633.06" y1="-4846.82" x2="-1628.04" y2="-4846.82" gradientTransform="translate(-2975.95 3209.64) rotate(74.09)" xlink:href="#linear-gradient-2"/><linearGradient id="linear-gradient-31" x1="-1640.51" y1="-4846.07" x2="-1635.48" y2="-4846.07" gradientTransform="translate(-2975.95 3209.64) rotate(74.09)" xlink:href="#linear-gradient-2"/><linearGradient id="linear-gradient-32" x1="-1647.98" y1="-4845.23" x2="-1642.95" y2="-4845.23" gradientTransform="translate(-2975.95 3209.64) rotate(74.09)" xlink:href="#linear-gradient-2"/><linearGradient id="linear-gradient-33" x1="-1655.41" y1="-4844.54" x2="-1650.38" y2="-4844.54" gradientTransform="translate(-2975.95 3209.64) rotate(74.09)" xlink:href="#linear-gradient-2"/><linearGradient id="linear-gradient-34" x1="-1663.11" y1="-4842.8" x2="-1658.08" y2="-4842.8" gradientTransform="translate(-2975.95 3209.64) rotate(74.09)" xlink:href="#linear-gradient-2"/><linearGradient id="linear-gradient-35" x1="982.94" y1="-2246.56" x2="987.97" y2="-2246.56" gradientTransform="translate(-829.03 1677.65) rotate(28.32)" xlink:href="#linear-gradient-2"/><linearGradient id="linear-gradient-36" x1="993.84" y1="-2247.2" x2="998.87" y2="-2247.2" gradientTransform="translate(-829.03 1677.65) rotate(28.32)" xlink:href="#linear-gradient-2"/><linearGradient id="linear-gradient-37" x1="988.86" y1="-2252.43" x2="993.89" y2="-2252.43" gradientTransform="translate(-829.03 1677.65) rotate(28.32)" xlink:href="#linear-gradient-2"/><linearGradient id="linear-gradient-38" x1="988.86" y1="-2241.75" x2="993.89" y2="-2241.75" gradientTransform="translate(-829.03 1677.65) rotate(28.32)" xlink:href="#linear-gradient-2"/><linearGradient id="linear-gradient-39" x1="983.22" y1="-2257" x2="988.25" y2="-2257" gradientTransform="translate(-829.03 1677.65) rotate(28.32)" xlink:href="#linear-gradient-2"/><linearGradient id="linear-gradient-40" x1="983.22" y1="-2237.17" x2="988.25" y2="-2237.17" gradientTransform="translate(-829.03 1677.65) rotate(28.32)" xlink:href="#linear-gradient-2"/><linearGradient id="linear-gradient-41" x1="975.63" y1="-2246.35" x2="980.66" y2="-2246.35" gradientTransform="translate(-829.03 1677.65) rotate(28.32)" xlink:href="#linear-gradient-2"/><linearGradient id="linear-gradient-42" x1="968.18" y1="-2245.6" x2="973.21" y2="-2245.6" gradientTransform="translate(-829.03 1677.65) rotate(28.32)" xlink:href="#linear-gradient-2"/><linearGradient id="linear-gradient-43" x1="960.71" y1="-2244.76" x2="965.74" y2="-2244.76" gradientTransform="translate(-829.03 1677.65) rotate(28.32)" xlink:href="#linear-gradient-2"/><linearGradient id="linear-gradient-44" x1="953.28" y1="-2244.07" x2="958.31" y2="-2244.07" gradientTransform="translate(-829.03 1677.65) rotate(28.32)" xlink:href="#linear-gradient-2"/><linearGradient id="linear-gradient-45" x1="945.58" y1="-2242.33" x2="950.61" y2="-2242.33" gradientTransform="translate(-829.03 1677.65) rotate(28.32)" xlink:href="#linear-gradient-2"/><linearGradient id="linear-gradient-46" x1="-8025.58" y1="-3750.36" x2="-8020.55" y2="-3750.36" gradientTransform="translate(-7681.74 -649.97) rotate(163.44)" xlink:href="#linear-gradient-2"/><linearGradient id="linear-gradient-47" x1="-8014.67" y1="-3751" x2="-8009.64" y2="-3751" gradientTransform="translate(-7681.74 -649.97) rotate(163.44)" xlink:href="#linear-gradient-2"/><linearGradient id="linear-gradient-48" x1="-8019.65" y1="-3756.23" x2="-8014.62" y2="-3756.23" gradientTransform="translate(-7681.74 -649.97) rotate(163.44)" xlink:href="#linear-gradient-2"/><linearGradient id="linear-gradient-49" x1="-8019.65" y1="-3745.55" x2="-8014.62" y2="-3745.55" gradientTransform="translate(-7681.74 -649.97) rotate(163.44)" xlink:href="#linear-gradient-2"/><linearGradient id="linear-gradient-50" x1="-8025.29" y1="-3760.8" x2="-8020.26" y2="-3760.8" gradientTransform="translate(-7681.74 -649.97) rotate(163.44)" xlink:href="#linear-gradient-2"/><linearGradient id="linear-gradient-51" x1="-8025.29" y1="-3740.97" x2="-8020.26" y2="-3740.97" gradientTransform="translate(-7681.74 -649.97) rotate(163.44)" xlink:href="#linear-gradient-2"/><linearGradient id="linear-gradient-52" x1="-8032.88" y1="-3750.15" x2="-8027.86" y2="-3750.15" gradientTransform="translate(-7681.74 -649.97) rotate(163.44)" xlink:href="#linear-gradient-2"/><linearGradient id="linear-gradient-53" x1="-8040.33" y1="-3749.39" x2="-8035.3" y2="-3749.39" gradientTransform="translate(-7681.74 -649.97) rotate(163.44)" xlink:href="#linear-gradient-2"/><linearGradient id="linear-gradient-54" x1="-8047.8" y1="-3748.56" x2="-8042.77" y2="-3748.56" gradientTransform="translate(-7681.74 -649.97) rotate(163.44)" xlink:href="#linear-gradient-2"/><linearGradient id="linear-gradient-55" x1="-8055.23" y1="-3747.87" x2="-8050.2" y2="-3747.87" gradientTransform="translate(-7681.74 -649.97) rotate(163.44)" xlink:href="#linear-gradient-2"/><linearGradient id="linear-gradient-56" x1="-8062.93" y1="-3746.12" x2="-8057.9" y2="-3746.12" gradientTransform="translate(-7681.74 -649.97) rotate(163.44)" xlink:href="#linear-gradient-2"/><linearGradient id="linear-gradient-57" x1="-4892.35" y1="-5679.34" x2="-4887.32" y2="-5679.34" gradientTransform="matrix(-0.46, 0.89, -0.89, -0.46, -6069.52, 2223.8)" xlink:href="#linear-gradient-2"/><linearGradient id="linear-gradient-58" x1="-4881.45" y1="-5679.98" x2="-4876.42" y2="-5679.98" gradientTransform="matrix(-0.46, 0.89, -0.89, -0.46, -6069.52, 2223.8)" xlink:href="#linear-gradient-2"/><linearGradient id="linear-gradient-59" x1="-4886.42" y1="-5685.21" x2="-4881.39" y2="-5685.21" gradientTransform="matrix(-0.46, 0.89, -0.89, -0.46, -6069.52, 2223.8)" xlink:href="#linear-gradient-2"/><linearGradient id="linear-gradient-60" x1="-4886.42" y1="-5674.53" x2="-4881.39" y2="-5674.53" gradientTransform="matrix(-0.46, 0.89, -0.89, -0.46, -6069.52, 2223.8)" xlink:href="#linear-gradient-2"/><linearGradient id="linear-gradient-61" x1="-4892.06" y1="-5689.78" x2="-4887.04" y2="-5689.78" gradientTransform="matrix(-0.46, 0.89, -0.89, -0.46, -6069.52, 2223.8)" xlink:href="#linear-gradient-2"/><linearGradient id="linear-gradient-62" x1="-4892.06" y1="-5669.95" x2="-4887.04" y2="-5669.95" gradientTransform="matrix(-0.46, 0.89, -0.89, -0.46, -6069.52, 2223.8)" xlink:href="#linear-gradient-2"/><linearGradient id="linear-gradient-63" x1="-4899.66" y1="-5679.13" x2="-4894.63" y2="-5679.13" gradientTransform="matrix(-0.46, 0.89, -0.89, -0.46, -6069.52, 2223.8)" xlink:href="#linear-gradient-2"/><linearGradient id="linear-gradient-64" x1="-4907.1" y1="-5678.37" x2="-4902.08" y2="-5678.37" gradientTransform="matrix(-0.46, 0.89, -0.89, -0.46, -6069.52, 2223.8)" xlink:href="#linear-gradient-2"/><linearGradient id="linear-gradient-65" x1="-4914.57" y1="-5677.54" x2="-4909.54" y2="-5677.54" gradientTransform="matrix(-0.46, 0.89, -0.89, -0.46, -6069.52, 2223.8)" xlink:href="#linear-gradient-2"/><linearGradient id="linear-gradient-66" x1="-4922" y1="-5676.84" x2="-4916.98" y2="-5676.84" gradientTransform="matrix(-0.46, 0.89, -0.89, -0.46, -6069.52, 2223.8)" xlink:href="#linear-gradient-2"/><linearGradient id="linear-gradient-67" x1="-4929.7" y1="-5675.1" x2="-4924.67" y2="-5675.1" gradientTransform="matrix(-0.46, 0.89, -0.89, -0.46, -6069.52, 2223.8)" xlink:href="#linear-gradient-2"/><linearGradient id="linear-gradient-68" x1="-6787.9" y1="3655.32" x2="-6782.87" y2="3655.32" gradientTransform="translate(-4638.06 -5028.2) rotate(-105.91)" xlink:href="#linear-gradient-2"/><linearGradient id="linear-gradient-69" x1="-6777" y1="3654.69" x2="-6771.97" y2="3654.69" gradientTransform="translate(-4638.06 -5028.2) rotate(-105.91)" xlink:href="#linear-gradient-2"/><linearGradient id="linear-gradient-70" x1="-6781.98" y1="3649.46" x2="-6776.95" y2="3649.46" gradientTransform="translate(-4638.06 -5028.2) rotate(-105.91)" xlink:href="#linear-gradient-2"/><linearGradient id="linear-gradient-71" x1="-6781.98" y1="3660.14" x2="-6776.95" y2="3660.14" gradientTransform="translate(-4638.06 -5028.2) rotate(-105.91)" xlink:href="#linear-gradient-2"/><linearGradient id="linear-gradient-72" x1="-6787.62" y1="3644.88" x2="-6782.59" y2="3644.88" gradientTransform="translate(-4638.06 -5028.2) rotate(-105.91)" xlink:href="#linear-gradient-2"/><linearGradient id="linear-gradient-73" x1="-6787.62" y1="3664.71" x2="-6782.59" y2="3664.71" gradientTransform="translate(-4638.06 -5028.2) rotate(-105.91)" xlink:href="#linear-gradient-2"/><linearGradient id="linear-gradient-74" x1="-6795.21" y1="3655.53" x2="-6790.18" y2="3655.53" gradientTransform="translate(-4638.06 -5028.2) rotate(-105.91)" xlink:href="#linear-gradient-2"/><linearGradient id="linear-gradient-75" x1="-6802.66" y1="3656.29" x2="-6797.63" y2="3656.29" gradientTransform="translate(-4638.06 -5028.2) rotate(-105.91)" xlink:href="#linear-gradient-2"/><linearGradient id="linear-gradient-76" x1="-6810.13" y1="3657.12" x2="-6805.1" y2="3657.12" gradientTransform="translate(-4638.06 -5028.2) rotate(-105.91)" xlink:href="#linear-gradient-2"/><linearGradient id="linear-gradient-77" x1="-6817.56" y1="3657.82" x2="-6812.53" y2="3657.82" gradientTransform="translate(-4638.06 -5028.2) rotate(-105.91)" xlink:href="#linear-gradient-2"/><linearGradient id="linear-gradient-78" x1="-6825.26" y1="3659.56" x2="-6820.23" y2="3659.56" gradientTransform="translate(-4638.06 -5028.2) rotate(-105.91)" xlink:href="#linear-gradient-2"/><linearGradient id="linear-gradient-79" x1="-8710.24" y1="-14.93" x2="-8705.21" y2="-14.93" gradientTransform="translate(-6784.98 -3496.2) rotate(-151.68)" xlink:href="#linear-gradient-2"/><linearGradient id="linear-gradient-80" x1="-8699.33" y1="-15.57" x2="-8694.31" y2="-15.57" gradientTransform="translate(-6784.98 -3496.2) rotate(-151.68)" xlink:href="#linear-gradient-2"/><linearGradient id="linear-gradient-81" x1="-8704.31" y1="-20.8" x2="-8699.28" y2="-20.8" gradientTransform="translate(-6784.98 -3496.2) rotate(-151.68)" xlink:href="#linear-gradient-2"/><linearGradient id="linear-gradient-82" x1="-8704.31" y1="-10.12" x2="-8699.28" y2="-10.12" gradientTransform="translate(-6784.98 -3496.2) rotate(-151.68)" xlink:href="#linear-gradient-2"/><linearGradient id="linear-gradient-83" x1="-8709.95" y1="-25.37" x2="-8704.93" y2="-25.37" gradientTransform="translate(-6784.98 -3496.2) rotate(-151.68)" xlink:href="#linear-gradient-2"/><linearGradient id="linear-gradient-84" x1="-8709.95" y1="-5.54" x2="-8704.93" y2="-5.54" gradientTransform="translate(-6784.98 -3496.2) rotate(-151.68)" xlink:href="#linear-gradient-2"/><linearGradient id="linear-gradient-85" x1="-8717.55" y1="-14.72" x2="-8712.52" y2="-14.72" gradientTransform="translate(-6784.98 -3496.2) rotate(-151.68)" xlink:href="#linear-gradient-2"/><linearGradient id="linear-gradient-86" x1="-8724.99" y1="-13.96" x2="-8719.96" y2="-13.96" gradientTransform="translate(-6784.98 -3496.2) rotate(-151.68)" xlink:href="#linear-gradient-2"/><linearGradient id="linear-gradient-87" x1="-8732.46" y1="-13.13" x2="-8727.43" y2="-13.13" gradientTransform="translate(-6784.98 -3496.2) rotate(-151.68)" xlink:href="#linear-gradient-2"/><linearGradient id="linear-gradient-88" x1="-8739.89" y1="-12.44" x2="-8734.86" y2="-12.44" gradientTransform="translate(-6784.98 -3496.2) rotate(-151.68)" xlink:href="#linear-gradient-2"/><linearGradient id="linear-gradient-89" x1="-8747.59" y1="-10.69" x2="-8742.56" y2="-10.69" gradientTransform="translate(-6784.98 -3496.2) rotate(-151.68)" xlink:href="#linear-gradient-2"/><linearGradient id="linear-gradient-90" x1="-9050.8" y1="-8143.94" x2="-8939.67" y2="-8109.77" gradientTransform="translate(-11099.92 1074.41) rotate(133.48)" gradientUnits="userSpaceOnUse"><stop offset="0.01" stop-color="#35435f"/><stop offset="1"/></linearGradient><linearGradient id="linear-gradient-91" x1="15.51" y1="-4167" x2="242.74" y2="-4167" gradientTransform="matrix(0.77, 0.64, -0.64, 0.77, -1708, 3315.48)" xlink:href="#linear-gradient-2"/><linearGradient id="linear-gradient-92" x1="784.71" y1="-1993.79" x2="1006.37" y2="-1893.19" gradientTransform="matrix(0.91, 0.42, -0.42, 0.91, -597.12, 1575.75)" gradientUnits="userSpaceOnUse"><stop offset="0.01" stop-color="#657a9b"/><stop offset="0.97"/></linearGradient><linearGradient id="linear-gradient-93" x1="-9122.85" y1="-8335.33" x2="-9011.72" y2="-8301.16" xlink:href="#linear-gradient-90"/><linearGradient id="linear-gradient-94" x1="211.33" y1="-4225.96" x2="438.57" y2="-4225.96" gradientTransform="matrix(0.77, 0.64, -0.64, 0.77, -1708, 3315.48)" xlink:href="#linear-gradient-2"/><linearGradient id="linear-gradient-95" x1="989.12" y1="-2000.03" x2="1210.78" y2="-1899.44" xlink:href="#linear-gradient-92"/><linearGradient id="linear-gradient-96" x1="-9039.57" y1="-8522.61" x2="-8928.44" y2="-8488.44" xlink:href="#linear-gradient-90"/><linearGradient id="linear-gradient-97" x1="392.56" y1="-4130.22" x2="619.79" y2="-4130.22" gradientTransform="matrix(0.77, 0.64, -0.64, 0.77, -1708, 3315.48)" xlink:href="#linear-gradient-2"/><linearGradient id="linear-gradient-98" x1="1139.37" y1="-1860.63" x2="1361.04" y2="-1760.04" xlink:href="#linear-gradient-92"/><linearGradient id="linear-gradient-99" x1="-8849.12" y1="-8595.61" x2="-8737.99" y2="-8561.44" xlink:href="#linear-gradient-90"/><linearGradient id="linear-gradient-100" x1="452.53" y1="-3935.27" x2="679.77" y2="-3935.27" gradientTransform="matrix(0.77, 0.64, -0.64, 0.77, -1708, 3315.48)" xlink:href="#linear-gradient-2"/><linearGradient id="linear-gradient-101" x1="1146.82" y1="-1656.8" x2="1368.48" y2="-1556.21" xlink:href="#linear-gradient-92"/><linearGradient id="linear-gradient-102" x1="-8661.09" y1="-8513.43" x2="-8549.96" y2="-8479.27" xlink:href="#linear-gradient-90"/><linearGradient id="linear-gradient-103" x1="357.84" y1="-3753.22" x2="585.07" y2="-3753.22" gradientTransform="matrix(0.77, 0.64, -0.64, 0.77, -1708, 3315.48)" xlink:href="#linear-gradient-2"/><linearGradient id="linear-gradient-104" x1="1008.22" y1="-1505.48" x2="1229.88" y2="-1404.89" xlink:href="#linear-gradient-92"/><linearGradient id="linear-gradient-105" x1="-8671.68" y1="-8133.86" x2="-8560.55" y2="-8099.69" gradientTransform="translate(-11099.92 1074.41) rotate(133.48)" gradientUnits="userSpaceOnUse"><stop offset="0.01" stop-color="#7cd6fb"/><stop offset="1" stop-color="#098dc9"/></linearGradient><radialGradient id="radial-gradient" cx="16.65" cy="-3789.43" r="63.66" gradientTransform="matrix(0.77, 0.64, -0.64, 0.77, -1708, 3315.48)" gradientUnits="userSpaceOnUse"><stop offset="0.01" stop-color="#a0f4ec"/><stop offset="1" stop-color="#2bf"/></radialGradient><linearGradient id="linear-gradient-106" x1="652.5" y1="-1638.33" x2="874.16" y2="-1537.74" gradientTransform="matrix(0.91, 0.42, -0.42, 0.91, -597.12, 1575.75)" xlink:href="#linear-gradient-105"/><linearGradient id="linear-gradient-107" x1="-8588.57" y1="-8321.19" x2="-8477.44" y2="-8287.02" xlink:href="#linear-gradient-90"/><linearGradient id="linear-gradient-108" x1="161.14" y1="-3693.85" x2="388.37" y2="-3693.85" gradientTransform="matrix(0.77, 0.64, -0.64, 0.77, -1708, 3315.48)" xlink:href="#linear-gradient-2"/><linearGradient id="linear-gradient-109" x1="802.85" y1="-1499.07" x2="1024.51" y2="-1398.48" xlink:href="#linear-gradient-92"/><linearGradient id="linear-gradient-110" x1="-8863.63" y1="-8061.33" x2="-8752.5" y2="-8027.16" xlink:href="#linear-gradient-90"/><linearGradient id="linear-gradient-111" x1="-79.55" y1="-3985.84" x2="147.68" y2="-3985.84" gradientTransform="matrix(0.77, 0.64, -0.64, 0.77, -1708, 3315.48)" xlink:href="#linear-gradient-2"/><linearGradient id="linear-gradient-112" x1="645.98" y1="-1843.43" x2="867.64" y2="-1742.83" xlink:href="#linear-gradient-92"/><linearGradient id="linear-gradient-113" x1="494.06" y1="28.29" x2="113.54" y2="677.74" gradientTransform="matrix(1, 0, 0, 1, 0, 0)" xlink:href="#linear-gradient-90"/><linearGradient id="linear-gradient-114" x1="1.57" y1="541.17" x2="620.01" y2="22.24" gradientUnits="userSpaceOnUse"><stop offset="0.04" stop-color="#44ccf9"/><stop offset="0.12" stop-color="#48c4ef"/><stop offset="0.25" stop-color="#53aed4"/><stop offset="0.42" stop-color="#648ba9"/><stop offset="0.63" stop-color="#7c596d"/><stop offset="0.85" stop-color="#9b1b21"/><stop offset="0.95" stop-color="#a80000"/></linearGradient><linearGradient id="linear-gradient-115" x1="-130.78" y1="186.3" x2="790.27" y2="262.14" xlink:href="#linear-gradient-114"/><linearGradient id="linear-gradient-116" x1="87.96" y1="588.43" x2="676.23" y2="588.43" xlink:href="#linear-gradient-114"/><filter id="luminosity-noclip-2" x="362.85" y="595.35" width="79.9" height="36" filterUnits="userSpaceOnUse" color-interpolation-filters="sRGB"><feFlood flood-color="#fff" result="bg"/><feBlend in="SourceGraphic" in2="bg"/></filter><mask id="mask-2" x="362.85" y="595.35" width="79.9" height="36" maskUnits="userSpaceOnUse"><g class="cls-1"><path class="cls-2" d="M439.15,617a3.6,3.6,0,1,1,3.6-3.6A3.6,3.6,0,0,1,439.15,617Zm-12.73-3.6a3.6,3.6,0,1,0-3.6,3.6A3.6,3.6,0,0,0,426.42,613.35Zm-11.27,0a3.6,3.6,0,1,0-3.6,3.6A3.6,3.6,0,0,0,415.15,613.35Zm-11.28,0a3.6,3.6,0,1,0-3.6,3.6A3.6,3.6,0,0,0,403.87,613.35Zm-11.27,0A3.6,3.6,0,1,0,389,617,3.6,3.6,0,0,0,392.6,613.35Zm-11.28,0a3.6,3.6,0,1,0-3.6,3.6A3.6,3.6,0,0,0,381.32,613.34Zm-11.27,0a3.6,3.6,0,1,0-3.6,3.6A3.6,3.6,0,0,0,370.05,613.34Zm65.5,7.21a3.6,3.6,0,1,0-3.6,3.6A3.6,3.6,0,0,0,435.55,620.55Zm-7.2,7.2a3.6,3.6,0,1,0-3.6,3.6A3.6,3.6,0,0,0,428.35,627.75Zm3.6-25.2a3.6,3.6,0,1,0,3.6,3.6A3.6,3.6,0,0,0,432,602.55Zm-7.2-7.2a3.6,3.6,0,1,0,3.6,3.6A3.6,3.6,0,0,0,424.75,595.35Z"/></g></mask><linearGradient id="linear-gradient-117" x1="1374.78" y1="742.81" x2="1454.68" y2="742.81" gradientTransform="translate(-1011.84 -129.64) rotate(0.01)" gradientUnits="userSpaceOnUse"><stop offset="0" stop-color="#fff"/><stop offset="1" stop-color="#fff"/></linearGradient></defs><circle class="cls-3" cx="900.48" cy="155.9" r="2.51"/><circle class="cls-4" cx="910.75" cy="152.19" r="2.51"/><circle class="cls-5" cx="904.49" cy="148.59" r="2.51"/><circle class="cls-6" cx="907.53" cy="158.83" r="2.51"/><circle class="cls-7" cx="897.78" cy="145.81" r="2.51"/><circle class="cls-8" cx="903.43" cy="164.82" r="2.51"/><circle class="cls-9" cx="893.54" cy="158.19" r="2.51"/><circle class="cls-10" cx="886.61" cy="161.03" r="2.51"/><circle class="cls-11" cx="879.69" cy="163.96" r="2.51"/><circle class="cls-12" cx="872.77" cy="166.75" r="2.51"/><circle class="cls-13" cx="865.88" cy="170.61" r="2.51"/><circle class="cls-14" cx="748.48" cy="291.53" r="2.51"/><circle class="cls-15" cx="752.97" cy="281.57" r="2.51"/><circle class="cls-16" cx="746.03" cy="283.56" r="2.51"/><circle class="cls-17" cx="755.5" cy="288.51" r="2.51"/><circle class="cls-18" cx="739.36" cy="286.44" r="2.51"/><circle class="cls-19" cx="756.94" cy="295.63" r="2.51"/><circle class="cls-20" cx="745.28" cy="298.1" r="2.51"/><circle class="cls-21" cx="742.5" cy="305.05" r="2.51"/><circle class="cls-22" cx="739.78" cy="312.06" r="2.51"/><circle class="cls-23" cx="736.95" cy="318.97" r="2.51"/><circle class="cls-24" cx="734.92" cy="326.59" r="2.51"/><circle class="cls-25" cx="1240.35" cy="319.7" r="2.51"/><circle class="cls-26" cx="1243.95" cy="330.01" r="2.51"/><circle class="cls-27" cx="1247.61" cy="323.79" r="2.51"/><circle class="cls-28" cx="1237.34" cy="326.72" r="2.51"/><circle class="cls-29" cx="1250.47" cy="317.11" r="2.51"/><circle class="cls-30" cx="1231.4" cy="322.55" r="2.51"/><circle class="cls-31" cx="1238.14" cy="312.73" r="2.51"/><circle class="cls-32" cx="1235.37" cy="305.78" r="2.51"/><circle class="cls-33" cx="1232.52" cy="298.83" r="2.51"/><circle class="cls-34" cx="1229.82" cy="291.87" r="2.51"/><circle class="cls-35" cx="1226.03" cy="284.94" r="2.51"/><circle class="cls-36" cx="1104.15" cy="167.35" r="2.51"/><circle class="cls-37" cx="1114.05" cy="171.96" r="2.51"/><circle class="cls-38" cx="1112.15" cy="165" r="2.51"/><circle class="cls-39" cx="1107.09" cy="174.4" r="2.51"/><circle class="cls-40" cx="1109.36" cy="158.29" r="2.51"/><circle class="cls-41" cx="1099.95" cy="175.75" r="2.51"/><circle class="cls-42" cx="1097.62" cy="164.07" r="2.51"/><circle class="cls-43" cx="1090.7" cy="161.2" r="2.51"/><circle class="cls-44" cx="1083.73" cy="158.39" r="2.51"/><circle class="cls-45" cx="1076.86" cy="155.48" r="2.51"/><circle class="cls-46" cx="1069.26" cy="153.36" r="2.51"/><circle class="cls-47" cx="1077.39" cy="658.87" r="2.51"/><circle class="cls-48" cx="1067.12" cy="662.58" r="2.51"/><circle class="cls-49" cx="1073.38" cy="666.18" r="2.51"/><circle class="cls-50" cx="1070.34" cy="655.94" r="2.51"/><circle class="cls-51" cx="1080.09" cy="668.96" r="2.51"/><circle class="cls-52" cx="1074.44" cy="649.95" r="2.51"/><circle class="cls-53" cx="1084.33" cy="656.59" r="2.51"/><circle class="cls-54" cx="1091.26" cy="653.74" r="2.51"/><circle class="cls-55" cx="1098.18" cy="650.81" r="2.51"/><circle class="cls-56" cx="1105.1" cy="648.03" r="2.51"/><circle class="cls-57" cx="1111.99" cy="644.16" r="2.51"/><circle class="cls-58" cx="1229.39" cy="523.24" r="2.51"/><circle class="cls-59" cx="1224.9" cy="533.2" r="2.51"/><circle class="cls-60" cx="1231.84" cy="531.21" r="2.51"/><circle class="cls-61" cx="1222.37" cy="526.26" r="2.51"/><circle class="cls-62" cx="1238.51" cy="528.33" r="2.51"/><circle class="cls-63" cx="1220.93" cy="519.14" r="2.51"/><circle class="cls-64" cx="1232.59" cy="516.67" r="2.51"/><circle class="cls-65" cx="1235.37" cy="509.72" r="2.51"/><circle class="cls-66" cx="1238.09" cy="502.71" r="2.51"/><circle class="cls-67" cx="1240.92" cy="495.81" r="2.51"/><circle class="cls-68" cx="1242.94" cy="488.18" r="2.51"/><circle class="cls-69" cx="737.52" cy="495.07" r="2.51"/><circle class="cls-70" cx="733.92" cy="484.76" r="2.51"/><circle class="cls-71" cx="730.26" cy="490.98" r="2.51"/><circle class="cls-72" cx="740.53" cy="488.05" r="2.51"/><circle class="cls-73" cx="727.4" cy="497.66" r="2.51"/><circle class="cls-74" cx="746.47" cy="492.22" r="2.51"/><circle class="cls-75" cx="739.73" cy="502.04" r="2.51"/><circle class="cls-76" cx="742.5" cy="508.99" r="2.51"/><circle class="cls-77" cx="745.35" cy="515.95" r="2.51"/><circle class="cls-78" cx="748.05" cy="522.9" r="2.51"/><circle class="cls-79" cx="751.84" cy="529.83" r="2.51"/><circle class="cls-80" cx="873.72" cy="647.43" r="2.51"/><circle class="cls-81" cx="863.82" cy="642.81" r="2.51"/><circle class="cls-82" cx="865.72" cy="649.78" r="2.51"/><circle class="cls-83" cx="870.78" cy="640.38" r="2.51"/><circle class="cls-84" cx="868.51" cy="656.48" r="2.51"/><circle class="cls-85" cx="877.92" cy="639.02" r="2.51"/><circle class="cls-86" cx="880.25" cy="650.71" r="2.51"/><circle class="cls-87" cx="887.17" cy="653.57" r="2.51"/><circle class="cls-88" cx="894.13" cy="656.38" r="2.51"/><circle class="cls-89" cx="901.01" cy="659.29" r="2.51"/><circle class="cls-90" cx="908.61" cy="661.41" r="2.51"/><circle class="cls-91" cx="988.94" cy="138.52" r="68.87"/><circle class="cls-92" cx="988.94" cy="138.52" r="63.66"/><circle class="cls-93" cx="985.94" cy="122.87" r="45.11"/><g id="_062" data-name="062"><g id="_08" data-name="08"><path class="cls-94" d="M1038.29,97.77c-11.21-12.91-22.36-17.5-22.36-17.5a64.17,64.17,0,1,0,33.34,36A59.29,59.29,0,0,0,1038.29,97.77Zm-75,96.9a61.79,61.79,0,1,1,47.25,1.82A61.4,61.4,0,0,1,963.27,194.67Z"/></g></g><path class="cls-95" d="M986.34,102.52h-3.4v-2h5.68v15.68h-2.28Z"/><path class="cls-95" d="M991.37,114.89a1.59,1.59,0,1,1,1.59,1.58A1.54,1.54,0,0,1,991.37,114.89Z"/><path class="cls-95" d="M959.06,129.16h1.66v10.69h-1.66Z"/><path class="cls-95" d="M962.32,135.76a4,4,0,0,1,4.11-4.2,3.32,3.32,0,0,1,3,1.64v-4.95H971v7.5a4.09,4.09,0,0,1-4.3,4.31A4.15,4.15,0,0,1,962.32,135.76Zm7.11.05a2.77,2.77,0,1,0-2.76,2.81A2.66,2.66,0,0,0,969.43,135.81Z"/><path class="cls-95" d="M972.26,135.81a4.33,4.33,0,0,1,8.66,0v.57h-7a2.56,2.56,0,0,0,2.71,2.24,2.46,2.46,0,0,0,2.25-1h1.72a4.1,4.1,0,0,1-4,2.47A4.15,4.15,0,0,1,972.26,135.81Zm7-.82a2.79,2.79,0,0,0-5.34,0Z"/><path class="cls-95" d="M982.2,135.65c0-2.7,1.6-4.09,4-4.09s4,1.37,4,4.09v4.2h-1.55v-4.2c0-1.75-1-2.65-2.43-2.65a2.33,2.33,0,0,0-2.44,2.65v4.2H982.2Z"/><path class="cls-95" d="M991.78,136.79v-7.87h1.55v2.85h4.44v1.43h-4.44v3.59c0,1.28.67,1.83,1.68,1.83s1.7-.54,1.7-1.83v-.18h1.54v.18a3.24,3.24,0,1,1-6.47,0Z"/><path class="cls-95" d="M999.52,129.41a1.08,1.08,0,1,1,2.16,0,1.08,1.08,0,1,1-2.16,0Zm.31,2.36h1.56v8.08h-1.56Z"/><path class="cls-95" d="M1003.53,131.53a3.47,3.47,0,1,1,6.94,0h-1.53c0-1.46-.79-2.08-1.93-2.08a1.8,1.8,0,0,0-1.93,2.06v1.36h4.43v1.42h-4.43v5.54h-1.55Z"/><path class="cls-95" d="M1011.29,140.81h1.56a2.55,2.55,0,0,0,4.8-1.21v-1.16A2.89,2.89,0,0,1,1015,140c-2,0-3.72-1.26-3.72-4.09v-4.14h1.55v4.14a2.31,2.31,0,0,0,2.43,2.63,2.34,2.34,0,0,0,2.44-2.63v-4.14h1.55v7.8c0,2.81-1.78,3.94-4,3.94A3.69,3.69,0,0,1,1011.29,140.81Z"/><path class="cls-95" d="M940.52,154.12a5.69,5.69,0,1,1,5.69,5.55A5.42,5.42,0,0,1,940.52,154.12Zm9.69,0a4,4,0,1,0-4,4A3.85,3.85,0,0,0,950.21,154.12Z"/><path class="cls-95" d="M953.25,155.49a4.09,4.09,0,0,1,4.3-4.31,4.13,4.13,0,0,1,4.36,4.29,4,4,0,0,1-4.1,4.2,3.29,3.29,0,0,1-3-1.63v4.87h-1.56Zm7.1-.06a2.77,2.77,0,1,0-2.78,2.81A2.68,2.68,0,0,0,960.35,155.43Z"/><path class="cls-95" d="M963.19,155.49a4.09,4.09,0,0,1,4.3-4.31,4.14,4.14,0,0,1,4.36,4.29,4,4,0,0,1-4.1,4.2,3.32,3.32,0,0,1-3-1.63v4.87h-1.55Zm7.09-.06a2.77,2.77,0,1,0-2.78,2.81A2.67,2.67,0,0,0,970.28,155.43Z"/><path class="cls-95" d="M972.8,155.43a4.35,4.35,0,1,1,4.35,4.24A4.14,4.14,0,0,1,972.8,155.43Zm7.13,0a2.78,2.78,0,1,0-2.78,2.81A2.67,2.67,0,0,0,979.93,155.43Z"/><path class="cls-95" d="M982.77,154.71a3.48,3.48,0,1,1,7,0v.08h-1.54v-.09c0-1.49-.78-2.1-1.93-2.1s-1.93.61-1.93,2.1v4.75h-1.55Z"/><path class="cls-95" d="M990.78,156.41v-7.88h1.55v2.86h4.45v1.42h-4.45v3.6c0,1.27.67,1.83,1.69,1.83s1.7-.54,1.7-1.83v-.18h1.53v.18a3.24,3.24,0,1,1-6.47,0Z"/><path class="cls-95" d="M998.54,155.6v-4.21h1.56v4.21a2.44,2.44,0,1,0,4.87,0v-4.21h1.55v4.21a4,4,0,1,1-8,0Z"/><path class="cls-95" d="M1008.12,155.26c0-2.7,1.6-4.08,4-4.08s4,1.37,4,4.08v4.2h-1.56v-4.2c0-1.75-1-2.65-2.43-2.65a2.33,2.33,0,0,0-2.44,2.65v4.2h-1.55Z"/><path class="cls-95" d="M1017.68,149a1.08,1.08,0,1,1,1.08,1.09A1.05,1.05,0,0,1,1017.68,149Zm.31,2.37h1.56v8.07H1018Z"/><path class="cls-95" d="M1021.43,156.41v-7.88H1023v2.86h4.44v1.42H1023v3.6c0,1.27.67,1.83,1.68,1.83s1.7-.54,1.7-1.83v-.18h1.54v.18a3.24,3.24,0,1,1-6.47,0Z"/><path class="cls-95" d="M1029.26,160.43h1.55a2.26,2.26,0,0,0,2.34,1.34,2.22,2.22,0,0,0,2.46-2.55v-1.16a2.88,2.88,0,0,1-2.69,1.55c-2,0-3.73-1.26-3.73-4.09v-4.13h1.55v4.13a2.44,2.44,0,1,0,4.87,0v-4.13h1.55v7.79c0,2.81-1.78,3.94-4,3.94A3.67,3.67,0,0,1,1029.26,160.43Z"/><circle class="cls-96" cx="1177.39" cy="217.94" r="68.87"/><circle class="cls-97" cx="1177.39" cy="217.94" r="63.66"/><circle class="cls-93" cx="1174.39" cy="202.29" r="45.11"/><g id="_062-2" data-name="062"><g id="_08-2" data-name="08"><path class="cls-98" d="M1226.74,177.19c-11.21-12.91-22.36-17.5-22.36-17.5a64.15,64.15,0,1,0,33.35,36A59.45,59.45,0,0,0,1226.74,177.19Zm-75,96.9a61.78,61.78,0,1,1,47.24,1.82A61.37,61.37,0,0,1,1151.73,274.09Z"/></g></g><path class="cls-95" d="M1169.53,193.64l5.73-5.37c1.2-1.13,2-2.25,2-3.57,0-1.75-.94-3-2.74-3s-2.75,1.25-2.75,3.05v.33h-2.23v-.21c0-3.19,1.89-5.28,5-5.28a4.79,4.79,0,0,1,5,5.11c0,2.06-1,3.38-2.66,4.91l-4.27,3.93h6.73v2h-9.85Z"/><path class="cls-95" d="M1181.83,194.31a1.58,1.58,0,1,1,1.58,1.58A1.53,1.53,0,0,1,1181.83,194.31Z"/><path class="cls-95" d="M1128.8,213.93a5.72,5.72,0,0,1,11.16-1.61h-1.77a4,4,0,1,0,0,3.21H1140a5.72,5.72,0,0,1-11.16-1.6Z"/><path class="cls-95" d="M1141.32,214.51a3.47,3.47,0,1,1,6.94,0v.08h-1.54v-.1c0-1.48-.78-2.09-1.92-2.09s-1.93.61-1.93,2.09v4.76h-1.55Z"/><path class="cls-95" d="M1149,215.23a4.33,4.33,0,0,1,8.66,0v.57h-7a2.57,2.57,0,0,0,2.71,2.24,2.48,2.48,0,0,0,2.26-1h1.72a4.38,4.38,0,0,1-8.32-1.78Zm7-.81a2.78,2.78,0,0,0-5.34,0Z"/><path class="cls-95" d="M1158.61,215.3A4.16,4.16,0,0,1,1163,211a4.1,4.1,0,0,1,4.3,4.32v4h-1.42V217.5a3.22,3.22,0,0,1-3.14,2A4,4,0,0,1,1158.61,215.3Zm7.12-.07A2.78,2.78,0,1,0,1163,218,2.67,2.67,0,0,0,1165.73,215.23Z"/><path class="cls-95" d="M1168.87,216.21v-7.87h1.55v2.86h4.45v1.42h-4.45v3.59c0,1.28.67,1.83,1.69,1.83s1.7-.54,1.7-1.83V216h1.53v.18a3.24,3.24,0,1,1-6.47,0Z"/><path class="cls-95" d="M1176.31,215.23a4.33,4.33,0,0,1,8.66,0v.57h-7a2.57,2.57,0,0,0,2.72,2.24,2.47,2.47,0,0,0,2.25-1h1.72a4.38,4.38,0,0,1-8.32-1.78Zm7-.81a2.79,2.79,0,0,0-5.35,0Z"/><path class="cls-95" d="M1190.66,220.23h1.55a2.26,2.26,0,0,0,2.34,1.34A2.22,2.22,0,0,0,1197,219v-1.16a2.89,2.89,0,0,1-2.7,1.56c-2,0-3.73-1.26-3.73-4.09V211.2h1.56v4.13a2.31,2.31,0,0,0,2.43,2.63,2.34,2.34,0,0,0,2.44-2.63V211.2h1.55V219c0,2.81-1.78,3.94-4,3.94A3.69,3.69,0,0,1,1190.66,220.23Z"/><path class="cls-95" d="M1200.11,215.23a4.35,4.35,0,1,1,4.34,4.25A4.14,4.14,0,0,1,1200.11,215.23Zm7.12,0a2.78,2.78,0,1,0-2.78,2.81A2.67,2.67,0,0,0,1207.23,215.23Z"/><path class="cls-95" d="M1210.08,215.41V211.2h1.55v4.21a2.44,2.44,0,1,0,4.87,0V211.2h1.55v4.21a3.69,3.69,0,0,1-4,4.07C1211.68,219.48,1210.08,218.11,1210.08,215.41Z"/><path class="cls-95" d="M1219.65,214.51a3.48,3.48,0,1,1,6.95,0v.08h-1.54v-.1c0-1.48-.78-2.09-1.93-2.09s-1.92.61-1.92,2.09v4.76h-1.56Z"/><path class="cls-95" d="M1142.57,228.19h5.15c2,0,3,1.15,3,2.75a2.5,2.5,0,0,1-1.47,2.39v0a2.64,2.64,0,0,1,2,2.66,2.77,2.77,0,0,1-3.1,2.86h-5.58Zm5,4.48a1.42,1.42,0,0,0,1.57-1.47c0-.85-.46-1.47-1.6-1.47h-3.27v2.94Zm.33,4.68a1.46,1.46,0,0,0,1.66-1.54,1.51,1.51,0,0,0-1.63-1.6h-3.66v3.14Z"/><path class="cls-95" d="M1152.77,227.28h1.55v11.6h-1.55Z"/><path class="cls-95" d="M1156.22,235v-4.22h1.55V235a2.44,2.44,0,1,0,4.87,0v-4.22h1.56V235a4,4,0,1,1-8,0Z"/><path class="cls-95" d="M1165.47,234.85a4.33,4.33,0,0,1,8.66,0v.57h-7a2.56,2.56,0,0,0,2.71,2.24,2.48,2.48,0,0,0,2.25-1h1.72a4.38,4.38,0,0,1-8.32-1.78Zm7-.82a2.59,2.59,0,0,0-2.68-2,2.56,2.56,0,0,0-2.66,2Z"/><path class="cls-95" d="M1175.41,234.91a4.09,4.09,0,0,1,4.3-4.31,4.14,4.14,0,0,1,4.36,4.29,4,4,0,0,1-4.1,4.21,3.33,3.33,0,0,1-3-1.64v4.87h-1.55Zm7.09-.06a2.77,2.77,0,1,0-2.78,2.81A2.67,2.67,0,0,0,1182.5,234.85Z"/><path class="cls-95" d="M1185.35,234.13a3.47,3.47,0,1,1,6.94,0v.08h-1.53v-.09c0-1.49-.79-2.1-1.93-2.1s-1.93.61-1.93,2.1v4.75h-1.55Z"/><path class="cls-95" d="M1193.34,228.44a1.08,1.08,0,1,1,1.08,1.09A1.05,1.05,0,0,1,1193.34,228.44Zm.31,2.37h1.55v8.07h-1.55Z"/><path class="cls-95" d="M1197.08,234.68a3.7,3.7,0,0,1,4-4.08c2.39,0,4,1.37,4,4.08v4.2h-1.55v-4.2a2.33,2.33,0,0,0-2.44-2.65c-1.47,0-2.43.9-2.43,2.65v4.2h-1.56Z"/><path class="cls-95" d="M1206.66,235.83V228h1.55v2.86h4.45v1.42h-4.45v3.6c0,1.27.67,1.83,1.69,1.83s1.7-.54,1.7-1.83v-.18h1.53v.18a3.24,3.24,0,1,1-6.47,0Z"/><circle class="cls-99" cx="1255.98" cy="407.24" r="68.87"/><circle class="cls-100" cx="1255.98" cy="407.24" r="63.66"/><circle class="cls-93" cx="1252.98" cy="391.59" r="45.11"/><g id="_062-3" data-name="062"><g id="_08-3" data-name="08"><path class="cls-101" d="M1305.32,366.49C1294.12,353.58,1283,349,1283,349a64.15,64.15,0,1,0,33.34,36A59.45,59.45,0,0,0,1305.32,366.49Zm-75,96.9a61.77,61.77,0,1,1,47.25,1.82A61.37,61.37,0,0,1,1230.31,463.39Z"/></g></g><path class="cls-95" d="M1247.7,380.32h2.2c0,1.59,1.15,2.76,3.19,2.76s3.14-1.2,3.14-2.76-1.08-2.73-3.24-2.73h-1.82v-2H1253c1.83,0,2.71-.82,2.71-2.28a2.32,2.32,0,0,0-2.61-2.3,2.4,2.4,0,0,0-2.64,2.32h-2.2c.09-2.85,2-4.43,4.86-4.43s4.87,1.65,4.87,4.24a3.43,3.43,0,0,1-2.09,3.41v0a3.81,3.81,0,0,1,2.67,3.85c0,2.93-2.28,4.75-5.45,4.75S1247.72,383.39,1247.7,380.32Z"/><path class="cls-95" d="M1260.71,383.61a1.59,1.59,0,1,1,1.58,1.58A1.53,1.53,0,0,1,1260.71,383.61Z"/><path class="cls-95" d="M1226.31,397.88h7.86v1.54H1228v2.94h5.25v1.53H1228V407h6.19v1.54h-7.86Z"/><path class="cls-95" d="M1238.38,404.47l-3.06-4h1.91l2.31,3.16,2.3-3.16h1.86l-3.07,4,3.2,4.1h-1.91l-2.43-3.3-2.44,3.3h-1.86Z"/><path class="cls-95" d="M1244.9,405.51v-7.88h1.55v2.86h4.45v1.43h-4.45v3.59c0,1.28.67,1.83,1.68,1.83s1.7-.54,1.7-1.83v-.18h1.54v.18a3.24,3.24,0,1,1-6.47,0Z"/><path class="cls-95" d="M1252.66,403.81a3.48,3.48,0,1,1,6.95,0v.08h-1.54v-.1c0-1.49-.78-2.09-1.93-2.09s-1.93.6-1.93,2.09v4.76h-1.55Z"/><path class="cls-95" d="M1260.34,404.6a4.16,4.16,0,0,1,4.37-4.32,4.09,4.09,0,0,1,4.29,4.32v4h-1.42V406.8a3.21,3.21,0,0,1-3.13,2A4,4,0,0,1,1260.34,404.6Zm7.13-.07a2.78,2.78,0,1,0-2.78,2.81A2.67,2.67,0,0,0,1267.47,404.53Z"/><path class="cls-95" d="M1270.28,404.53a4.15,4.15,0,0,1,4.35-4.25,4.06,4.06,0,0,1,4.16,3.14h-1.56a2.81,2.81,0,1,0,0,2.22h1.56a4.06,4.06,0,0,1-4.16,3.14A4.15,4.15,0,0,1,1270.28,404.53Z"/><path class="cls-95" d="M1280.09,405.51v-7.88h1.55v2.86h4.44v1.43h-4.44v3.59c0,1.28.67,1.83,1.68,1.83s1.7-.54,1.7-1.83v-.18h1.54v.18a3.24,3.24,0,1,1-6.47,0Z"/><path class="cls-95" d="M1216.9,429.14h1.55a2.26,2.26,0,0,0,2.34,1.34,2.22,2.22,0,0,0,2.47-2.55v-1.16a2.89,2.89,0,0,1-2.7,1.56c-2,0-3.73-1.26-3.73-4.09v-4.13h1.56v4.13a2.31,2.31,0,0,0,2.43,2.63,2.34,2.34,0,0,0,2.44-2.63v-4.13h1.55v7.79c0,2.81-1.78,3.94-4,3.94A3.68,3.68,0,0,1,1216.9,429.14Z"/><path class="cls-95" d="M1226.35,424.14a4.35,4.35,0,1,1,4.34,4.25A4.14,4.14,0,0,1,1226.35,424.14Zm7.12,0a2.78,2.78,0,1,0-2.78,2.81A2.67,2.67,0,0,0,1233.47,424.14Z"/><path class="cls-95" d="M1236.32,424.32v-4.21h1.55v4.21a2.44,2.44,0,1,0,4.87,0v-4.21h1.55v4.21a3.69,3.69,0,0,1-4,4.07C1237.92,428.39,1236.32,427,1236.32,424.32Z"/><path class="cls-95" d="M1245.89,423.42a3.48,3.48,0,1,1,6.95,0v.08h-1.54v-.1c0-1.48-.78-2.09-1.93-2.09s-1.92.61-1.92,2.09v4.76h-1.56Z"/><path class="cls-95" d="M1258.54,417.49h3.81c3.73,0,5.69,2.14,5.69,5.35s-2,5.34-5.69,5.34h-3.81Zm3.81,9.15c2.73,0,4-1.5,4-3.8s-1.28-3.81-4-3.81h-2.14v7.61Z"/><path class="cls-95" d="M1269.07,424.21a4.16,4.16,0,0,1,4.36-4.32,4.1,4.1,0,0,1,4.3,4.32v4h-1.42v-1.76a3.22,3.22,0,0,1-3.14,2A4,4,0,0,1,1269.07,424.21Zm7.13-.07a2.78,2.78,0,1,0-2.78,2.81A2.67,2.67,0,0,0,1276.2,424.14Z"/><path class="cls-95" d="M1279.33,425.12v-7.87h1.56v2.86h4.44v1.42h-4.44v3.59c0,1.28.67,1.83,1.68,1.83s1.7-.53,1.7-1.83v-.18h1.54v.18a3.24,3.24,0,1,1-6.48,0Z"/><path class="cls-95" d="M1286.77,424.21a4.16,4.16,0,0,1,4.36-4.32,4.1,4.1,0,0,1,4.3,4.32v4H1294v-1.76a3.22,3.22,0,0,1-3.14,2A4,4,0,0,1,1286.77,424.21Zm7.13-.07a2.78,2.78,0,1,0-2.78,2.81A2.67,2.67,0,0,0,1293.9,424.14Z"/><circle class="cls-102" cx="1177.89" cy="595.66" r="68.87"/><circle class="cls-103" cx="1177.89" cy="595.66" r="63.66"/><circle class="cls-93" cx="1174.89" cy="580.02" r="45.11"/><g id="_062-4" data-name="062"><g id="_08-4" data-name="08"><path class="cls-104" d="M1227.24,554.92c-11.21-12.92-22.36-17.5-22.36-17.5a64.15,64.15,0,1,0,33.34,36A59.31,59.31,0,0,0,1227.24,554.92Zm-75,96.89a61.76,61.76,0,1,1,47.24,1.83A61.35,61.35,0,0,1,1152.23,651.81Z"/></g></g><path class="cls-95" d="M1176.89,569.88h-7.58v-2l7.58-10.3h2.27v10.21h1.68v2h-1.68v3.43h-2.27Zm0-2v-7.07l-5.13,7.07Z"/><path class="cls-95" d="M1182.93,572a1.58,1.58,0,1,1,1.58,1.59A1.53,1.53,0,0,1,1182.93,572Z"/><path class="cls-95" d="M1145.28,586.31h7.86v1.53h-6.2v2.94h5.25v1.54h-5.25v3.14h6.2V597h-7.86Z"/><path class="cls-95" d="M1154.69,592.79a3.7,3.7,0,0,1,4-4.08c2.39,0,4,1.37,4,4.08V597h-1.55v-4.2a2.45,2.45,0,1,0-4.88,0V597h-1.55Z"/><path class="cls-95" d="M1164.53,585.39h1.55v4.85a3,3,0,0,1,2.7-1.53c2,0,3.73,1.26,3.73,4.08V597H1171v-4.2c0-1.75-1-2.65-2.43-2.65a2.35,2.35,0,0,0-2.44,2.65V597h-1.55Z"/><path class="cls-95" d="M1173.78,593a4.16,4.16,0,0,1,4.37-4.31,4.1,4.1,0,0,1,4.3,4.31v4H1181v-1.76a3.23,3.23,0,0,1-3.13,2A4,4,0,0,1,1173.78,593Zm7.13-.06a2.78,2.78,0,1,0-2.78,2.81A2.67,2.67,0,0,0,1180.91,593Z"/><path class="cls-95" d="M1184.05,592.79c0-2.69,1.6-4.08,4-4.08s4,1.37,4,4.08V597h-1.55v-4.2a2.32,2.32,0,0,0-2.44-2.65c-1.47,0-2.43.9-2.43,2.65V597h-1.55Z"/><path class="cls-95" d="M1193.3,593a4.14,4.14,0,0,1,4.35-4.25,4.05,4.05,0,0,1,4.16,3.14h-1.57a2.64,2.64,0,0,0-2.59-1.71,2.82,2.82,0,1,0,2.59,3.93h1.57a4.06,4.06,0,0,1-4.16,3.14A4.15,4.15,0,0,1,1193.3,593Z"/><path class="cls-95" d="M1202.78,593a4.33,4.33,0,0,1,8.66,0v.57h-7a2.57,2.57,0,0,0,2.72,2.24,2.49,2.49,0,0,0,2.25-1h1.72a4.38,4.38,0,0,1-8.32-1.78Zm7-.82a2.6,2.6,0,0,0-2.68-2,2.56,2.56,0,0,0-2.67,2Z"/><path class="cls-95" d="M1138.81,617.57h1.56a2.25,2.25,0,0,0,2.33,1.34,2.22,2.22,0,0,0,2.47-2.55V615.2a2.88,2.88,0,0,1-2.7,1.55c-2,0-3.72-1.26-3.72-4.08v-4.14h1.55v4.14a2.31,2.31,0,0,0,2.44,2.63,2.34,2.34,0,0,0,2.43-2.63v-4.14h1.55v7.8c0,2.81-1.78,3.94-4,3.94A3.69,3.69,0,0,1,1138.81,617.57Z"/><path class="cls-95" d="M1148.26,612.57a4.35,4.35,0,1,1,4.35,4.25A4.15,4.15,0,0,1,1148.26,612.57Zm7.12,0a2.78,2.78,0,1,0-2.77,2.81A2.66,2.66,0,0,0,1155.38,612.57Z"/><path class="cls-95" d="M1158.23,612.75v-4.22h1.55v4.22a2.44,2.44,0,1,0,4.87,0v-4.22h1.55v4.22a3.69,3.69,0,0,1-4,4.07C1159.83,616.82,1158.23,615.45,1158.23,612.75Z"/><path class="cls-95" d="M1167.81,611.85a3.47,3.47,0,1,1,6.94,0V612h-1.53v-.1c0-1.49-.79-2.09-1.93-2.09s-1.93.6-1.93,2.09v4.76h-1.55Z"/><path class="cls-95" d="M1180.46,605.92h3.81c3.72,0,5.68,2.14,5.68,5.34s-2,5.35-5.68,5.35h-3.81Zm3.81,9.15c2.73,0,4-1.5,4-3.81s-1.27-3.81-4-3.81h-2.14v7.62Z"/><path class="cls-95" d="M1191,612.64a4.16,4.16,0,0,1,4.37-4.32,4.1,4.1,0,0,1,4.3,4.32v4h-1.43v-1.77a3.21,3.21,0,0,1-3.13,2A4,4,0,0,1,1191,612.64Zm7.13-.07a2.78,2.78,0,1,0-2.78,2.81A2.66,2.66,0,0,0,1198.11,612.57Z"/><path class="cls-95" d="M1201.25,613.55v-7.88h1.55v2.86h4.45V610h-4.45v3.6c0,1.27.67,1.83,1.68,1.83s1.7-.54,1.7-1.83v-.18h1.54v.18a3.24,3.24,0,1,1-6.47,0Z"/><path class="cls-95" d="M1208.69,612.64a4.15,4.15,0,0,1,4.36-4.32,4.1,4.1,0,0,1,4.3,4.32v4h-1.42v-1.77a3.23,3.23,0,0,1-3.14,2A4,4,0,0,1,1208.69,612.64Zm7.12-.07a2.78,2.78,0,1,0-2.78,2.81A2.66,2.66,0,0,0,1215.81,612.57Z"/><circle class="cls-105" cx="988.88" cy="675.55" r="68.87"/><circle class="cls-106" cx="988.88" cy="675.55" r="63.66"/><circle class="cls-93" cx="985.88" cy="659.9" r="45.11"/><g id="_062-5" data-name="062"><g id="_08-5" data-name="08"><path class="cls-107" d="M1038.23,634.8c-11.21-12.91-22.36-17.5-22.36-17.5a64.16,64.16,0,1,0,33.34,36A59.53,59.53,0,0,0,1038.23,634.8Zm-75,96.9a61.77,61.77,0,1,1,47.25,1.82A61.37,61.37,0,0,1,963.21,731.7Z"/></g></g><path class="cls-95" d="M982.85,644.44h2.3a3.13,3.13,0,0,0,3.21,2.59,3.19,3.19,0,0,0,3.28-3.5,3.29,3.29,0,0,0-6.2-1.56l-2-.62,1.05-8.2h8.18v2H986.2l-.6,4.56a3.69,3.69,0,0,1,3.24-1.49,5,5,0,0,1,5.08,5.27,5.33,5.33,0,0,1-5.56,5.61A5.27,5.27,0,0,1,982.85,644.44Z"/><path class="cls-95" d="M996.08,647.56a1.58,1.58,0,1,1,1.58,1.58A1.53,1.53,0,0,1,996.08,647.56Z"/><path class="cls-95" d="M951.49,661.83h1.67v10.69h-1.67Z"/><path class="cls-95" d="M955.09,667.84c0-2.46,1.44-3.61,3.33-3.61a3.1,3.1,0,0,1,2.85,1.6,3.06,3.06,0,0,1,2.84-1.6c1.89,0,3.33,1.15,3.33,3.61v4.68h-1.55v-4.68c0-1.5-.8-2.17-1.93-2.17s-1.91.7-1.91,2.17v4.68H960.5v-4.68a1.9,1.9,0,0,0-1.93-2.17c-1.13,0-1.93.67-1.93,2.17v4.68h-1.55Z"/><path class="cls-95" d="M969.05,668.55a4.09,4.09,0,0,1,4.29-4.32,4.15,4.15,0,0,1,4.37,4.3,4,4,0,0,1-4.1,4.2,3.34,3.34,0,0,1-3-1.63V676h-1.55Zm7.09-.07a2.77,2.77,0,1,0-2.78,2.81A2.67,2.67,0,0,0,976.14,668.48Z"/><path class="cls-95" d="M979.28,660.92h1.55v11.6h-1.55Z"/><path class="cls-95" d="M982.4,668.48a4.33,4.33,0,0,1,8.66,0v.57h-7a2.57,2.57,0,0,0,2.72,2.24,2.47,2.47,0,0,0,2.25-1h1.72a4.1,4.1,0,0,1-4,2.47A4.15,4.15,0,0,1,982.4,668.48Zm7-.82a2.79,2.79,0,0,0-5.35,0Z"/><path class="cls-95" d="M992.34,667.84c0-2.46,1.44-3.61,3.33-3.61a3.33,3.33,0,0,0,5.69,0c1.89,0,3.33,1.15,3.33,3.61v4.68h-1.55v-4.68c0-1.5-.8-2.17-1.93-2.17s-1.91.7-1.91,2.17v4.68h-1.55v-4.68a1.9,1.9,0,0,0-1.93-2.17c-1.13,0-1.93.67-1.93,2.17v4.68h-1.55Z"/><path class="cls-95" d="M1006,668.48a4.33,4.33,0,0,1,8.66,0v.57h-7a2.57,2.57,0,0,0,2.72,2.24,2.47,2.47,0,0,0,2.25-1h1.72a4.38,4.38,0,0,1-8.32-1.78Zm7-.82a2.79,2.79,0,0,0-5.34,0Z"/><path class="cls-95" d="M1015.91,668.32c0-2.7,1.6-4.09,4-4.09s4,1.37,4,4.09v4.2h-1.55v-4.2a2.33,2.33,0,0,0-2.44-2.65c-1.47,0-2.43.9-2.43,2.65v4.2h-1.55Z"/><path class="cls-95" d="M1025.48,669.46v-7.87H1027v2.85h4.44v1.43H1027v3.59c0,1.28.67,1.83,1.68,1.83s1.7-.54,1.7-1.83v-.18H1032v.18a3.24,3.24,0,1,1-6.47,0Z"/><path class="cls-95" d="M973.74,693.1h1.55a2.26,2.26,0,0,0,2.34,1.34,2.22,2.22,0,0,0,2.46-2.55v-1.16a2.88,2.88,0,0,1-2.69,1.55c-2,0-3.73-1.26-3.73-4.09v-4.13h1.55v4.13a2.44,2.44,0,1,0,4.87,0v-4.13h1.56v7.79c0,2.81-1.79,3.94-4,3.94A3.67,3.67,0,0,1,973.74,693.1Z"/><path class="cls-95" d="M983.18,688.1a4.35,4.35,0,1,1,4.35,4.24A4.14,4.14,0,0,1,983.18,688.1Zm7.13,0a2.78,2.78,0,1,0-2.78,2.81A2.67,2.67,0,0,0,990.31,688.1Z"/><path class="cls-95" d="M993.15,688.27v-4.21h1.56v4.21a2.44,2.44,0,1,0,4.87,0v-4.21h1.55v4.21a4,4,0,1,1-8,0Z"/><path class="cls-95" d="M1002.73,687.38a3.48,3.48,0,1,1,6.95,0v.08h-1.54v-.09c0-1.49-.78-2.1-1.93-2.1s-1.93.61-1.93,2.1v4.75h-1.55Z"/><path class="cls-95" d="M953.44,705.45c0-2.82,1.63-4.6,4.62-4.6s4.68,1.78,4.68,4.6v6.3h-1.67v-3.39h-6v3.39h-1.61Zm7.63,1.38v-1.38a3,3,0,1,0-6,0v1.38Z"/><path class="cls-95" d="M964.68,700.14h1.55v11.61h-1.55Z"/><path class="cls-95" d="M968.1,712.71h1.58a2.46,2.46,0,0,0,2.5,1.34c1.65,0,2.75-.78,2.75-2.89v-.93a3.32,3.32,0,0,1-3,1.66,4,4,0,0,1-4.09-4.18,4.15,4.15,0,0,1,4.35-4.25,4.1,4.1,0,0,1,4.32,4.31v3.32c0,3.11-1.9,4.32-4.29,4.32C970.21,715.41,968.65,714.57,968.1,712.71Zm6.83-5a2.78,2.78,0,1,0-5.56,0,2.78,2.78,0,0,0,5.56,0Z"/><path class="cls-95" d="M977.74,707.71a4.35,4.35,0,1,1,4.35,4.25A4.15,4.15,0,0,1,977.74,707.71Zm7.13,0a2.78,2.78,0,1,0-2.78,2.81A2.66,2.66,0,0,0,984.87,707.71Z"/><path class="cls-95" d="M987.71,707a3.48,3.48,0,1,1,6.95,0v.08h-1.54V707c0-1.49-.78-2.09-1.93-2.09s-1.93.6-1.93,2.09v4.76h-1.55Z"/><path class="cls-95" d="M995.7,701.3a1.08,1.08,0,0,1,2.16,0,1.08,1.08,0,1,1-2.16,0Zm.31,2.37h1.56v8.08H996Z"/><path class="cls-95" d="M999.45,708.69v-7.88H1001v2.86h4.44v1.42H1001v3.6c0,1.27.67,1.83,1.68,1.83s1.7-.54,1.7-1.83v-.18h1.54v.18a3.24,3.24,0,1,1-6.47,0Z"/><path class="cls-95" d="M1007.47,700.14H1009V705a3,3,0,0,1,2.7-1.54c2,0,3.73,1.26,3.73,4.09v4.2h-1.56v-4.2c0-1.75-1-2.65-2.43-2.65a2.35,2.35,0,0,0-2.44,2.65v4.2h-1.55Z"/><path class="cls-95" d="M1017.05,707.07c0-2.47,1.44-3.61,3.33-3.61a3.09,3.09,0,0,1,2.85,1.6,3.06,3.06,0,0,1,2.84-1.6c1.9,0,3.33,1.14,3.33,3.61v4.68h-1.55v-4.68c0-1.5-.8-2.17-1.93-2.17s-1.91.7-1.91,2.17v4.68h-1.55v-4.68c0-1.47-.83-2.17-1.93-2.17s-1.93.67-1.93,2.17v4.68h-1.55Z"/><circle class="cls-108" cx="720.75" cy="406.67" r="68.87"/><circle class="cls-109" cx="720.75" cy="406.67" r="63.66"/><circle class="cls-110" cx="717.75" cy="391.02" r="45.11"/><g id="_062-6" data-name="062"><g id="_08-6" data-name="08"><path class="cls-111" d="M770.1,365.92c-11.21-12.91-22.36-17.5-22.36-17.5a64.17,64.17,0,1,0,33.34,36A59.29,59.29,0,0,0,770.1,365.92Zm-75,96.9a61.78,61.78,0,1,1,47.24,1.82A61.34,61.34,0,0,1,695.09,462.82Z"/></g></g><path class="cls-112" d="M721.59,385.71h-7.67v-2h10.19v1.94L717,399.35H714.5Z"/><path class="cls-112" d="M726.2,398.08a1.58,1.58,0,1,1,1.58,1.58A1.54,1.54,0,0,1,726.2,398.08Z"/><path class="cls-112" d="M693.68,417.69a5.74,5.74,0,0,1,11.05-2h-1.85a3.73,3.73,0,0,0-3.51-2,4,4,0,0,0,0,8,3.75,3.75,0,0,0,3.89-2.76h-4.54v-1.54H705v.82a5.7,5.7,0,0,1-11.36-.54Z"/><path class="cls-112" d="M706,419a4.35,4.35,0,1,1,4.35,4.25A4.15,4.15,0,0,1,706,419Zm7.13,0a2.78,2.78,0,1,0-2.78,2.81A2.66,2.66,0,0,0,713.1,419Z"/><path class="cls-112" d="M720.59,412.35h1.66v9.15h6V423h-7.66Z"/><path class="cls-112" d="M729.46,412.59a1.08,1.08,0,0,1,2.16,0,1.08,1.08,0,1,1-2.16,0Zm.31,2.37h1.55V423h-1.55Z"/><path class="cls-112" d="M732.71,415h1.7l2.63,6.69,2.64-6.69h1.65L738,423h-1.88Z"/><path class="cls-112" d="M741.74,419a4.33,4.33,0,0,1,8.66,0v.57h-7a2.57,2.57,0,0,0,2.71,2.24,2.51,2.51,0,0,0,2.26-1h1.71a4.37,4.37,0,0,1-8.31-1.78Zm7-.82a2.79,2.79,0,0,0-5.34,0Z"/><circle class="cls-113" cx="799.48" cy="595.88" r="68.87"/><circle class="cls-114" cx="799.48" cy="595.88" r="63.66"/><circle class="cls-93" cx="796.48" cy="580.23" r="45.11"/><g id="_062-7" data-name="062"><g id="_08-7" data-name="08"><path class="cls-115" d="M848.83,555.13c-11.21-12.91-22.36-17.49-22.36-17.49a64.15,64.15,0,1,0,33.34,36A59.41,59.41,0,0,0,848.83,555.13Zm-75,96.9a61.79,61.79,0,1,1,47.25,1.82A61.35,61.35,0,0,1,773.81,652Z"/></g></g><path class="cls-95" d="M791.23,568.25a7.68,7.68,0,0,1,1.48-4.41l3.89-6h2.51l-3.59,5.45a4,4,0,0,1,2-.48c2.86,0,4.87,2.35,4.87,5.46a5.56,5.56,0,1,1-11.12,0Zm8.82,0a3.13,3.13,0,0,0-3.24-3.45,3.49,3.49,0,0,0,0,7C798.78,571.72,800.05,570.38,800.05,568.2Z"/><path class="cls-95" d="M804.51,572.25a1.58,1.58,0,1,1,1.58,1.58A1.53,1.53,0,0,1,804.51,572.25Z"/><path class="cls-95" d="M765.81,586.52h7.86v1.54h-6.19V591h5.25v1.54h-5.25v3.13h6.19v1.54h-7.86Z"/><path class="cls-95" d="M774.94,594.87h1.56c0,.67.66,1.15,1.78,1.15s1.79-.51,1.79-1.15-.85-.86-1.87-1c-1.4-.18-3.1-.45-3.1-2.29,0-1.59,1.24-2.67,3.17-2.67s3.12,1.1,3.15,2.49h-1.53c0-.62-.62-1.08-1.61-1.08s-1.61.49-1.61,1.13.85.85,1.84,1c1.41.18,3.13.44,3.13,2.28,0,1.64-1.33,2.7-3.36,2.7S775,596.34,774.94,594.87Z"/><path class="cls-95" d="M782.94,594.15v-7.87h1.56v2.86h4.44v1.42H784.5v3.59c0,1.28.67,1.83,1.68,1.83s1.7-.54,1.7-1.83V594h1.54v.18a3.24,3.24,0,1,1-6.48,0Z"/><path class="cls-95" d="M790.38,593.24a4.16,4.16,0,0,1,4.36-4.32,4.1,4.1,0,0,1,4.3,4.32v4h-1.42v-1.77a3.22,3.22,0,0,1-3.14,2A4,4,0,0,1,790.38,593.24Zm7.13-.07a2.78,2.78,0,1,0-2.78,2.81A2.67,2.67,0,0,0,797.51,593.17Z"/><path class="cls-95" d="M800.65,593.11v-7.5h1.55v4.95a3.32,3.32,0,0,1,3-1.64,4,4,0,0,1,4.11,4.2,4.15,4.15,0,0,1-4.37,4.3A4.08,4.08,0,0,1,800.65,593.11Zm7.09.06A2.77,2.77,0,1,0,805,596,2.67,2.67,0,0,0,807.74,593.17Z"/><path class="cls-95" d="M810.88,585.61h1.55v11.6h-1.55Z"/><path class="cls-95" d="M814.31,586.77a1.08,1.08,0,1,1,1.08,1.09A1.05,1.05,0,0,1,814.31,586.77Zm.31,2.37h1.55v8.07h-1.55Z"/><path class="cls-95" d="M817.76,594.87h1.57c0,.67.65,1.15,1.78,1.15s1.78-.51,1.78-1.15-.85-.86-1.86-1c-1.41-.18-3.11-.45-3.11-2.29,0-1.59,1.24-2.67,3.17-2.67s3.12,1.1,3.16,2.49h-1.54c-.05-.62-.62-1.08-1.6-1.08s-1.62.49-1.62,1.13.85.85,1.85,1c1.4.18,3.12.44,3.12,2.28,0,1.64-1.33,2.7-3.35,2.7S817.81,596.34,817.76,594.87Z"/><path class="cls-95" d="M826,585.61h1.55v4.85a2.94,2.94,0,0,1,2.7-1.54c2,0,3.72,1.26,3.72,4.09v4.2h-1.55V593c0-1.75-1-2.65-2.43-2.65a2.35,2.35,0,0,0-2.44,2.65v4.2H826Z"/><path class="cls-95" d="M754.62,611.48a5.72,5.72,0,0,1,11.16-1.6H764a3.81,3.81,0,0,0-3.7-2.42,4,4,0,0,0,0,8,3.82,3.82,0,0,0,3.7-2.42h1.77a5.72,5.72,0,0,1-11.16-1.6Z"/><path class="cls-95" d="M766.81,612.79a4.35,4.35,0,1,1,4.35,4.25A4.14,4.14,0,0,1,766.81,612.79Zm7.13,0a2.78,2.78,0,1,0-2.78,2.81A2.68,2.68,0,0,0,773.94,612.79Z"/><path class="cls-95" d="M776.78,612.62a3.7,3.7,0,0,1,4-4.08c2.38,0,4,1.37,4,4.08v4.2H783.2v-4.2c0-1.75-1-2.65-2.43-2.65a2.33,2.33,0,0,0-2.44,2.65v4.2h-1.55Z"/><path class="cls-95" d="M786.62,608.5a3.48,3.48,0,1,1,7,0H792c0-1.45-.78-2.07-1.93-2.07a1.79,1.79,0,0,0-1.93,2v1.36h4.43v1.42h-4.43v5.54h-1.55Zm7.68-2.12a1.08,1.08,0,1,1,1.08,1.09A1.05,1.05,0,0,1,794.3,606.38Zm.31,2.37h1.55v8.07h-1.55Z"/><path class="cls-95" d="M797.72,612.74a4,4,0,0,1,4.1-4.2,3.34,3.34,0,0,1,3,1.63v-4.95h1.55v7.5a4.09,4.09,0,0,1-4.3,4.32A4.15,4.15,0,0,1,797.72,612.74Zm7.11,0a2.77,2.77,0,1,0-2.76,2.81A2.67,2.67,0,0,0,804.83,612.79Z"/><path class="cls-95" d="M807.66,612.79a4.33,4.33,0,0,1,8.66,0v.57h-7A2.57,2.57,0,0,0,812,615.6a2.51,2.51,0,0,0,2.26-1H816a4.37,4.37,0,0,1-8.31-1.78Zm7-.82a2.59,2.59,0,0,0-2.68-2,2.56,2.56,0,0,0-2.66,2Z"/><path class="cls-95" d="M817.59,612.62a3.7,3.7,0,0,1,4-4.08c2.39,0,4,1.37,4,4.08v4.2H824v-4.2a2.33,2.33,0,0,0-2.44-2.65c-1.47,0-2.43.9-2.43,2.65v4.2h-1.56Z"/><path class="cls-95" d="M826.84,612.79a4.14,4.14,0,0,1,4.35-4.25,4.07,4.07,0,0,1,4.17,3.14h-1.57a2.65,2.65,0,0,0-2.6-1.71,2.82,2.82,0,1,0,2.6,3.93h1.57a4.08,4.08,0,0,1-4.17,3.14A4.15,4.15,0,0,1,826.84,612.79Z"/><path class="cls-95" d="M836.32,612.79a4.34,4.34,0,0,1,8.67,0v.57h-7a2.57,2.57,0,0,0,2.71,2.24,2.51,2.51,0,0,0,2.26-1h1.71a4.38,4.38,0,0,1-8.32-1.78Zm7-.82a2.59,2.59,0,0,0-2.68-2,2.56,2.56,0,0,0-2.66,2Z"/><circle class="cls-116" cx="800.21" cy="217.48" r="68.87"/><circle class="cls-117" cx="800.21" cy="217.48" r="63.66"/><circle class="cls-93" cx="797.21" cy="201.83" r="45.11"/><g id="_062-8" data-name="062"><g id="_08-8" data-name="08"><path class="cls-118" d="M849.56,176.73c-11.21-12.91-22.36-17.5-22.36-17.5a64.16,64.16,0,1,0,33.34,36A59.53,59.53,0,0,0,849.56,176.73Zm-75,96.9a61.77,61.77,0,1,1,47.25,1.82A61.37,61.37,0,0,1,774.54,273.63Z"/></g></g><path class="cls-95" d="M791.85,190.71a3.89,3.89,0,0,1,2.76-3.89v0a3.41,3.41,0,0,1-2.2-3.41c0-2.59,2-4.24,5-4.24s5,1.65,5,4.24a3.45,3.45,0,0,1-2.21,3.41v0a3.88,3.88,0,0,1,2.76,3.89c0,2.87-2.25,4.72-5.54,4.72S791.85,193.58,791.85,190.71Zm8.83-.19c0-1.73-1.2-2.74-3.14-2.74h-.29c-1.94,0-3.14,1-3.14,2.74s1.13,2.8,3.28,2.8S800.68,192.12,800.68,190.52Zm-3.14-4.68c1.6,0,2.58-.86,2.58-2.25s-.91-2.35-2.73-2.35-2.73,1-2.73,2.35,1,2.25,2.59,2.25Z"/><path class="cls-95" d="M805.09,193.85a1.58,1.58,0,1,1,1.58,1.58A1.53,1.53,0,0,1,805.09,193.85Z"/><path class="cls-95" d="M759.23,208.12h4.59c2.63,0,3.77,1.45,3.77,3.43a3.11,3.11,0,0,1-2.43,3.29l2.83,4h-2L763.44,215h-2.55v3.83h-1.66Zm4.6,5.33c1.56,0,2.08-.82,2.08-1.9s-.54-1.9-2.08-1.9h-2.94v3.8Z"/><path class="cls-95" d="M768.79,214.77a4.33,4.33,0,0,1,8.66,0v.57h-7a2.57,2.57,0,0,0,2.71,2.24,2.5,2.5,0,0,0,2.26-1h1.72a4.38,4.38,0,0,1-8.32-1.78Zm7-.82a2.79,2.79,0,0,0-5.34,0Z"/><path class="cls-95" d="M779,210.49a3.47,3.47,0,1,1,6.94,0H784.4a1.93,1.93,0,1,0-3.86,0v1.35H785v1.43h-4.43v5.54H779Zm7.68-2.13a1.08,1.08,0,1,1,2.15,0,1.08,1.08,0,1,1-2.15,0Zm.31,2.37h1.55v8.08H787Z"/><path class="cls-95" d="M790.41,214.61c0-2.7,1.6-4.09,4-4.09s4,1.37,4,4.09v4.2h-1.56v-4.2c0-1.75-1-2.65-2.43-2.65a2.33,2.33,0,0,0-2.44,2.65v4.2h-1.55Z"/><path class="cls-95" d="M799.66,214.77a4.33,4.33,0,0,1,8.66,0v.57h-7a2.56,2.56,0,0,0,2.71,2.24,2.48,2.48,0,0,0,2.25-1H808a4.38,4.38,0,0,1-8.32-1.78Zm7-.82a2.79,2.79,0,0,0-5.34,0Z"/><path class="cls-95" d="M813.62,214.84a4.16,4.16,0,0,1,4.36-4.32,4.09,4.09,0,0,1,4.3,4.32v4h-1.42V217a3.22,3.22,0,0,1-3.14,2A4,4,0,0,1,813.62,214.84Zm7.12-.07a2.78,2.78,0,1,0-2.77,2.81A2.67,2.67,0,0,0,820.74,214.77Z"/><path class="cls-95" d="M823.88,214.61c0-2.7,1.61-4.09,4-4.09s4,1.37,4,4.09v4.2h-1.55v-4.2a2.33,2.33,0,0,0-2.44-2.65c-1.47,0-2.43.9-2.43,2.65v4.2h-1.56Z"/><path class="cls-95" d="M833.14,214.72a4,4,0,0,1,4.1-4.2,3.32,3.32,0,0,1,3,1.63v-5h1.56v7.5a4.09,4.09,0,0,1-4.3,4.32A4.14,4.14,0,0,1,833.14,214.72Zm7.1.05a2.77,2.77,0,1,0-2.76,2.81A2.66,2.66,0,0,0,840.24,214.77Z"/><path class="cls-95" d="M772.94,227.73h4.59c2.63,0,3.78,1.46,3.78,3.43a3.11,3.11,0,0,1-2.44,3.29l2.83,4h-2l-2.54-3.82h-2.55v3.82h-1.67Zm4.61,5.33c1.55,0,2.07-.82,2.07-1.9s-.54-1.89-2.07-1.89h-2.94v3.79Z"/><path class="cls-95" d="M782.5,234.38a4.33,4.33,0,0,1,8.66,0V235h-7a2.57,2.57,0,0,0,2.72,2.24,2.47,2.47,0,0,0,2.25-1h1.72a4.1,4.1,0,0,1-4,2.47A4.15,4.15,0,0,1,782.5,234.38Zm7-.81a2.79,2.79,0,0,0-5.35,0Z"/><path class="cls-95" d="M792.44,234.45a4.09,4.09,0,0,1,4.3-4.32,4.15,4.15,0,0,1,4.36,4.3,4,4,0,0,1-4.1,4.2,3.34,3.34,0,0,1-3-1.63v4.87h-1.55Zm7.09-.07a2.77,2.77,0,1,0-2.78,2.81A2.67,2.67,0,0,0,799.53,234.38Z"/><path class="cls-95" d="M802.05,234.38a4.33,4.33,0,0,1,8.66,0V235h-7a2.57,2.57,0,0,0,2.72,2.24,2.47,2.47,0,0,0,2.25-1h1.72a4.38,4.38,0,0,1-8.32-1.78Zm7-.81a2.78,2.78,0,0,0-5.34,0Z"/><path class="cls-95" d="M811.66,234.45a4.16,4.16,0,0,1,4.36-4.32,4.1,4.1,0,0,1,4.3,4.32v4H818.9v-1.77a3.22,3.22,0,0,1-3.14,2A4,4,0,0,1,811.66,234.45Zm7.12-.07a2.78,2.78,0,1,0-2.77,2.81A2.67,2.67,0,0,0,818.78,234.38Z"/><path class="cls-95" d="M821.92,235.36v-7.87h1.56v2.86h4.44v1.42h-4.44v3.59c0,1.28.67,1.83,1.68,1.83s1.7-.54,1.7-1.83v-.18h1.53v.18a3.24,3.24,0,1,1-6.47,0Z"/><rect class="cls-119" width="529.36" height="839.55"/><path class="cls-120" d="M65.17,327.06c0-7.75,4.75-11.65,11-11.65,4.5,0,8,2.15,9.65,6.1,1.65-3.95,5.15-6.1,9.65-6.1,6.2,0,11,3.9,11,11.65v21.7h-3.6v-21.7c0-5.55-3.25-8.35-7.6-8.35s-7.6,3-7.6,8.35v21.7H84v-21.7c0-5.4-3.2-8.35-7.6-8.35s-7.6,2.8-7.6,8.35v21.7h-3.6Zm47.15-11h24v3.3h-20.4v11.15h17.5v3.3h-17.5v11.65h20.4v3.3h-24Zm38.75,3.3H140v-3.3h25.8v3.3h-11.1v29.4h-3.6Zm19.4-3.3h3.6v14.45h21.2V316.06h3.6v32.7h-3.6V333.81h-21.2v14.95h-3.6Zm33.45,16.35c0-9.8,7.2-17,17.4-17s17.4,7.2,17.4,17-7.2,17-17.4,17S203.92,342.21,203.92,332.41Zm31.2,0c0-7.9-5.65-13.7-13.8-13.7s-13.8,5.8-13.8,13.7,5.65,13.7,13.8,13.7S235.12,340.31,235.12,332.41Zm8.65-16.35h11.7c11.3,0,17.35,6.55,17.35,16.35s-6.05,16.35-17.35,16.35h-11.7Zm11.7,29.4c9.25,0,13.75-5.2,13.75-13s-4.5-13.05-13.75-13.05h-8.1v26.1Zm20.75-13c0-9.8,7.2-17,17.4-17s17.4,7.2,17.4,17-7.2,17-17.4,17S276.22,342.21,276.22,332.41Zm31.2,0c0-7.9-5.65-13.7-13.8-13.7s-13.8,5.8-13.8,13.7,5.65,13.7,13.8,13.7S307.42,340.31,307.42,332.41Zm8.65-16.35h3.6v29.4h19.8v3.3h-23.4Zm24.3,16.35c0-9.8,7.2-17,17.4-17s17.4,7.2,17.4,17-7.2,17-17.4,17S340.37,342.21,340.37,332.41Zm31.2,0c0-7.9-5.65-13.7-13.8-13.7s-13.8,5.8-13.8,13.7,5.65,13.7,13.8,13.7S371.57,340.31,371.57,332.41Zm7,0c0-9.8,7.2-17,17.4-17,7.9,0,14.1,4.35,16.4,10.9h-3.95c-2.1-4.6-6.65-7.6-12.45-7.6-8.15,0-13.8,5.8-13.8,13.7s5.65,13.7,13.8,13.7c7.1,0,12.25-4,13.55-10.5h-15.6v-3.3h19.4V334c-.75,8.95-7.7,15.4-17.35,15.4C385.77,349.41,378.57,342.21,378.57,332.41Zm47.6,2-13.46-18.35h4.35l11,15.35,10.9-15.35h4.25l-13.4,18.3v14.4h-3.6Z"/><path class="cls-121" d="M107.44,198.1c-16.36-2.38-32.25-4.44-32.25-21.92,0-16.52,12.24-25.73,30.35-25.73,17.78,0,29.86,8.89,30.34,24.78h4.45c-.48-17.32-14.14-28.76-34.79-28.76-21,0-34.8,11.92-34.8,29.71,0,20.81,18,23.36,35.27,25.9,16.37,2.38,32.25,4.44,32.25,21.92,0,16.52-13,26.53-32.88,26.53-19.55,0-32.41-9.69-32.89-26.53H68c.48,19.06,15.09,30.5,37.34,30.5,22.55,0,37.33-11.76,37.33-30.5C142.71,203.18,124.76,200.64,107.44,198.1Zm290.79,11.6,33.84,42.73h-5.72L392.67,209.7H351.84v42.73h-4.45V148.54h47.82c23,0,33.05,13,33.05,30.5C428.26,195.72,419,208.59,398.23,209.7Zm-3-4c20.82,0,28.6-11.6,28.6-26.69s-7.95-26.53-28.6-26.53H351.84v53.22ZM182.29,190.25l24.79-24.79a17,17,0,1,0-2.92-2.91l-24.78,24.78a17.06,17.06,0,1,0,0,26.85l24.24,24.24a17.13,17.13,0,1,0,2.92-2.91l-24.25-24.25a16.92,16.92,0,0,0,3.5-8.44h21a11,11,0,1,0,0-4.12h-21A16.83,16.83,0,0,0,182.29,190.25Zm92.32,0,24.78-24.79a17.06,17.06,0,1,0-2.91-2.91L271.7,187.33a17.06,17.06,0,1,0,0,26.85l24.24,24.24a17.06,17.06,0,1,0,2.91-2.91l-24.24-24.24a17,17,0,0,0,3.5-8.45h21a11,11,0,1,0,0-4.12h-21A16.92,16.92,0,0,0,274.61,190.25ZM62.77,286.48v3.41H437.34v-3.41Z"/><path class="cls-95" d="M71.33,413c0-3.44,2-5.6,5.64-5.6s5.66,2.16,5.66,5.6v7.74H81.19v-4.4H72.73v4.4h-1.4Zm9.86,2v-2c0-2.64-1.44-4.28-4.24-4.28s-4.22,1.64-4.22,4.28v2Z"/><path class="cls-95" d="M84.65,417.06v-9.74H86v3.5h5.82V412H86v5a2.54,2.54,0,1,0,5.08,0v-.22h1.3v.22a3.86,3.86,0,1,1-7.72,0Z"/><path class="cls-95" d="M99.07,417h1.42c.06,1.66,1.28,2.62,3.36,2.62s3.36-1,3.36-2.62-1.66-2-3.44-2.28c-2.12-.3-4.4-.7-4.4-3.48,0-2.32,1.8-3.9,4.5-3.9s4.4,1.5,4.48,3.78H107c-.08-1.5-1.22-2.46-3.1-2.46s-3.1,1-3.1,2.54,1.64,2,3.42,2.24c2.12.34,4.42.72,4.42,3.52,0,2.44-1.88,4-4.76,4S99.13,419.46,99.07,417Z"/><path class="cls-95" d="M109.93,415.76a5.3,5.3,0,0,1,10.6,0v.44h-9.22a3.76,3.76,0,0,0,3.94,3.52,3.68,3.68,0,0,0,3.4-1.78h1.46a5.36,5.36,0,0,1-10.18-2.18Zm9.2-.76a4,4,0,0,0-7.78,0Z"/><path class="cls-95" d="M121.69,415.76a5.3,5.3,0,0,1,10.6,0v.44h-9.22a3.76,3.76,0,0,0,3.94,3.52,3.68,3.68,0,0,0,3.4-1.78h1.46a5.36,5.36,0,0,1-10.18-2.18Zm9.2-.76a4,4,0,0,0-7.78,0Z"/><path class="cls-95" d="M133.85,414.78c0-2.84,1.7-4.22,4.16-4.22s4.14,1.38,4.14,4.24v.12h-1.32v-.14c0-2.06-1.14-3-2.82-3s-2.82.92-2.82,3v5.92h-1.34Z"/><path class="cls-95" d="M148.79,416.6v-5.78h1.34v5.78c0,2.1,1.16,3.12,2.76,3.12s2.8-1.06,2.8-3.12v-5.78H157v5.78c0,2.06,1.18,3.12,2.78,3.12s2.76-1,2.76-3.12v-5.78h1.34v5.78c0,2.94-1.72,4.36-4,4.36a3.65,3.65,0,0,1-3.56-2.22,3.69,3.69,0,0,1-3.56,2.22C150.51,421,148.79,419.54,148.79,416.6Z"/><path class="cls-95" d="M165.47,415.76a5.3,5.3,0,0,1,10.6,0v.44h-9.22a3.76,3.76,0,0,0,3.94,3.52,3.68,3.68,0,0,0,3.4-1.78h1.46a5.36,5.36,0,0,1-10.18-2.18Zm9.2-.76a4,4,0,0,0-7.78,0Z"/><path class="cls-95" d="M183,416v-5.16h1.34V416c0,2.42,1.4,3.74,3.54,3.74s3.54-1.32,3.54-3.74v-5.16h1.34V416c0,3.28-2,5-4.88,5S183,419.26,183,416Z"/><path class="cls-95" d="M194.67,415.54c0-3.28,2-5,4.88-5s4.88,1.7,4.88,5v5.16h-1.34v-5.16c0-2.44-1.4-3.74-3.54-3.74s-3.54,1.3-3.54,3.74v5.16h-1.34Z"/><path class="cls-95" d="M206,415.72a5,5,0,0,1,5.12-5.16,4.44,4.44,0,0,1,4.16,2.38V406.5h1.34v9.2a5,5,0,0,1-5.28,5.26A5.09,5.09,0,0,1,206,415.72Zm9.28,0a4,4,0,1,0-4,4A3.79,3.79,0,0,0,215.27,415.76Z"/><path class="cls-95" d="M218.17,415.76a5.3,5.3,0,0,1,10.6,0v.44h-9.22a3.76,3.76,0,0,0,3.94,3.52,3.68,3.68,0,0,0,3.4-1.78h1.46a5.36,5.36,0,0,1-10.18-2.18Zm9.2-.76a4,4,0,0,0-7.78,0Z"/><path class="cls-95" d="M230.32,414.78c0-2.84,1.71-4.22,4.17-4.22s4.14,1.38,4.14,4.24v.12h-1.32v-.14c0-2.06-1.14-3-2.82-3s-2.82.92-2.82,3v5.92h-1.35Z"/><path class="cls-95" d="M239.52,417.92h1.37c.05,1.06,1,1.82,2.68,1.82s2.68-.8,2.68-1.86-1.26-1.34-2.68-1.52c-1.79-.22-3.8-.5-3.8-2.68,0-1.86,1.46-3.12,3.78-3.12s3.74,1.28,3.78,3H246c-.06-1-1-1.74-2.48-1.74s-2.43.76-2.43,1.78c0,1.22,1.29,1.36,2.69,1.54s3.82.44,3.82,2.68c0,1.88-1.58,3.18-4,3.18S239.58,419.66,239.52,417.92Z"/><path class="cls-95" d="M249.22,417.06v-9.74h1.34v3.5h5.83V412h-5.83v5a2.55,2.55,0,1,0,5.09,0v-.22H257v.22a3.87,3.87,0,1,1-7.73,0Z"/><path class="cls-95" d="M258.22,415.82a5.32,5.32,0,0,1,10.63,0v4.88h-1.24v-2.44a4.36,4.36,0,0,1-4.26,2.7A5,5,0,0,1,258.22,415.82Zm9.29-.06a4,4,0,1,0-4,4A3.8,3.8,0,0,0,267.51,415.76Z"/><path class="cls-95" d="M270.8,415.54c0-3.28,2-5,4.89-5s4.88,1.7,4.88,5v5.16h-1.34v-5.16c0-2.44-1.4-3.74-3.54-3.74s-3.55,1.3-3.55,3.74v5.16H270.8Z"/><path class="cls-95" d="M282.12,415.72a5,5,0,0,1,5.13-5.16,4.44,4.44,0,0,1,4.16,2.38V406.5h1.34v9.2a5,5,0,0,1-5.28,5.26A5.09,5.09,0,0,1,282.12,415.72Zm9.29,0a4,4,0,1,0-4,4A3.79,3.79,0,0,0,291.41,415.76Z"/><path class="cls-95" d="M299.62,415.76a5.31,5.31,0,0,1,10.61,0v.44H301a3.76,3.76,0,0,0,3.94,3.52,3.68,3.68,0,0,0,3.41-1.78h1.46a5.37,5.37,0,0,1-10.19-2.18Zm9.21-.76a4,4,0,0,0-7.79,0Z"/><path class="cls-95" d="M311.38,415.82a5.32,5.32,0,0,1,10.63,0v4.88h-1.24v-2.44a4.37,4.37,0,0,1-4.27,2.7A5,5,0,0,1,311.38,415.82Zm9.29-.06a4,4,0,1,0-4,4A3.81,3.81,0,0,0,320.67,415.76Z"/><path class="cls-95" d="M323.56,415.76a5.07,5.07,0,0,1,5.32-5.2,5,5,0,0,1,5.09,3.68H332.6a4,4,0,1,0,0,3H334a5,5,0,0,1-5.09,3.68A5.07,5.07,0,0,1,323.56,415.76Z"/><path class="cls-95" d="M335.88,406.5h1.34v6.24a3.91,3.91,0,0,1,3.74-2.18c2.64,0,4.68,1.6,4.68,5v5.16h-1.33v-5.16c0-2.44-1.41-3.74-3.55-3.74s-3.54,1.34-3.54,3.74v5.16h-1.34Z"/><path class="cls-95" d="M352.52,415.76a5.07,5.07,0,0,1,5.32-5.2,5,5,0,0,1,5.08,3.68h-1.36a4,4,0,1,0,0,3h1.36a5,5,0,0,1-5.08,3.68A5.07,5.07,0,0,1,352.52,415.76Z"/><path class="cls-95" d="M364.52,416v-5.16h1.34V416c0,2.42,1.4,3.74,3.54,3.74s3.54-1.32,3.54-3.74v-5.16h1.34V416c0,3.28-2,5-4.88,5S364.52,419.26,364.52,416Z"/><path class="cls-95" d="M375.9,417.92h1.36c.06,1.06,1,1.82,2.68,1.82s2.68-.8,2.68-1.86-1.26-1.34-2.68-1.52c-1.78-.22-3.8-.5-3.8-2.68,0-1.86,1.46-3.12,3.78-3.12s3.74,1.28,3.78,3h-1.32c-.06-1-1-1.74-2.48-1.74s-2.42.76-2.42,1.78c0,1.22,1.28,1.36,2.68,1.54s3.82.44,3.82,2.68c0,1.88-1.58,3.18-4,3.18S376,419.66,375.9,417.92Z"/><path class="cls-95" d="M385.6,417.06v-9.74h1.34v3.5h5.82V412h-5.82v5a2.54,2.54,0,1,0,5.08,0v-.22h1.3v.22a3.86,3.86,0,1,1-7.72,0Z"/><path class="cls-95" d="M394.6,415.76a5.32,5.32,0,1,1,5.32,5.2A5.07,5.07,0,0,1,394.6,415.76Zm9.28,0a4,4,0,1,0-4,4A3.8,3.8,0,0,0,403.88,415.76Z"/><path class="cls-95" d="M406.8,414.92c0-2.94,1.72-4.36,4-4.36a3.69,3.69,0,0,1,3.56,2.22,3.65,3.65,0,0,1,3.56-2.22c2.28,0,4,1.42,4,4.36v5.78h-1.35v-5.78c0-2.1-1.16-3.12-2.76-3.12s-2.78,1.06-2.78,3.12v5.78H413.7v-5.78c0-2.06-1.2-3.12-2.8-3.12s-2.76,1-2.76,3.12v5.78H406.8Z"/><path class="cls-95" d="M423.48,415.76a5.3,5.3,0,0,1,10.6,0v.44h-9.22a3.76,3.76,0,0,0,3.94,3.52,3.68,3.68,0,0,0,3.4-1.78h1.46a5.36,5.36,0,0,1-10.18-2.18Zm9.2-.76a4,4,0,0,0-7.78,0Z"/><path class="cls-95" d="M435.64,414.78c0-2.84,1.7-4.22,4.16-4.22s4.14,1.38,4.14,4.24v.12h-1.32v-.14c0-2.06-1.14-3-2.82-3s-2.82.92-2.82,3v5.92h-1.34Z"/><path class="cls-95" d="M92.18,431.88a1,1,0,1,1,1,1A1,1,0,0,1,92.18,431.88Zm.36,2.94h1.34v9.88H92.54Z"/><path class="cls-95" d="M95.86,441.92h1.36c.06,1.06,1,1.82,2.68,1.82s2.68-.8,2.68-1.86-1.26-1.34-2.68-1.52c-1.78-.22-3.8-.5-3.8-2.68,0-1.86,1.46-3.12,3.78-3.12s3.74,1.28,3.78,3h-1.32c-.06-1-1-1.74-2.48-1.74s-2.42.76-2.42,1.78c0,1.22,1.28,1.36,2.68,1.54s3.82.44,3.82,2.68c0,1.88-1.58,3.18-4,3.18S95.92,443.66,95.86,441.92Z"/><path class="cls-95" d="M110.88,440v-5.16h1.34V440c0,2.42,1.4,3.74,3.54,3.74s3.54-1.32,3.54-3.74v-5.16h1.34V440c0,3.28-2,5-4.88,5S110.88,443.26,110.88,440Z"/><path class="cls-95" d="M122.6,439.54c0-3.28,2-5,4.88-5s4.88,1.7,4.88,5v5.16H131v-5.16c0-2.44-1.4-3.74-3.54-3.74s-3.54,1.3-3.54,3.74v5.16H122.6Z"/><path class="cls-95" d="M134.34,431.88a1,1,0,1,1,1,1A1,1,0,0,1,134.34,431.88Zm.36,2.94H136v9.88H134.7Z"/><path class="cls-95" d="M147.24,448.92v-6.34a4.44,4.44,0,0,1-4.16,2.38A5,5,0,0,1,138,439.8a5.09,5.09,0,0,1,5.34-5.24,5,5,0,0,1,5.28,5.26v9.1Zm0-9.16a4,4,0,1,0-4,4A3.79,3.79,0,0,0,147.24,439.76Z"/><path class="cls-95" d="M150.54,440v-5.16h1.34V440c0,2.42,1.4,3.74,3.54,3.74S159,442.4,159,440v-5.16h1.34V440c0,3.28-2,5-4.88,5S150.54,443.26,150.54,440Z"/><path class="cls-95" d="M161.86,439.76a5.3,5.3,0,0,1,10.6,0v.44h-9.22a3.76,3.76,0,0,0,3.94,3.52,3.68,3.68,0,0,0,3.4-1.78H172a5.36,5.36,0,0,1-10.18-2.18Zm9.2-.76a4,4,0,0,0-7.78,0Z"/><path class="cls-95" d="M178.94,439.82a5.31,5.31,0,0,1,10.62,0v4.88h-1.24v-2.44a4.36,4.36,0,0,1-4.26,2.7A5,5,0,0,1,178.94,439.82Zm9.28-.06a4,4,0,1,0-4,4A3.8,3.8,0,0,0,188.22,439.76Z"/><path class="cls-95" d="M191.52,439.54c0-3.28,2-5,4.88-5s4.88,1.7,4.88,5v5.16h-1.34v-5.16c0-2.44-1.4-3.74-3.54-3.74s-3.54,1.3-3.54,3.74v5.16h-1.34Z"/><path class="cls-95" d="M202.84,439.72a5,5,0,0,1,5.12-5.16,4.44,4.44,0,0,1,4.16,2.38V430.5h1.34v9.2a5,5,0,0,1-5.28,5.26A5.09,5.09,0,0,1,202.84,439.72Zm9.28,0a4,4,0,1,0-4,4A3.79,3.79,0,0,0,212.12,439.76Z"/><path class="cls-95" d="M220.34,439.82a5.31,5.31,0,0,1,10.62,0v4.88h-1.24v-2.44a4.36,4.36,0,0,1-4.26,2.7A5,5,0,0,1,220.34,439.82Zm9.28-.06a4,4,0,1,0-4,4A3.8,3.8,0,0,0,229.62,439.76Z"/><path class="cls-95" d="M232.52,439.72a5,5,0,0,1,5.12-5.16,4.44,4.44,0,0,1,4.16,2.38V430.5h1.34v9.2a5,5,0,0,1-5.28,5.26A5.09,5.09,0,0,1,232.52,439.72Zm9.28,0a4,4,0,1,0-4,4A3.79,3.79,0,0,0,241.8,439.76Z"/><path class="cls-95" d="M244.69,439.82a5.32,5.32,0,0,1,10.63,0v4.88h-1.24v-2.44a4.36,4.36,0,0,1-4.26,2.7A5,5,0,0,1,244.69,439.82Zm9.29-.06a4,4,0,1,0-4,4A3.8,3.8,0,0,0,254,439.76Z"/><path class="cls-95" d="M257.27,439.82a5,5,0,0,1,5.29-5.26,5.09,5.09,0,0,1,5.34,5.24,5,5,0,0,1-5.12,5.16,4.46,4.46,0,0,1-4.17-2.38v6.34h-1.34Zm9.27-.06a4,4,0,1,0-4,4A3.8,3.8,0,0,0,266.54,439.76Z"/><path class="cls-95" d="M269.45,441.06v-9.74h1.34v3.5h5.83V436h-5.83v5a2.55,2.55,0,1,0,5.09,0v-.22h1.3v.22a3.87,3.87,0,1,1-7.73,0Z"/><path class="cls-95" d="M283.77,439.76a5.33,5.33,0,1,1,5.33,5.2A5.08,5.08,0,0,1,283.77,439.76Zm9.29,0a4,4,0,1,0-4,4A3.8,3.8,0,0,0,293.06,439.76Z"/><path class="cls-95" d="M296,440v-5.16h1.34V440c0,2.42,1.4,3.74,3.54,3.74s3.55-1.32,3.55-3.74v-5.16h1.34V440c0,3.28-2,5-4.89,5S296,443.26,296,440Z"/><path class="cls-95" d="M307.69,438.78c0-2.84,1.7-4.22,4.16-4.22s4.15,1.38,4.15,4.24v.12h-1.32v-.14c0-2.06-1.14-3-2.83-3s-2.82.92-2.82,3v5.92h-1.34Z"/><path class="cls-95" d="M322.23,439.82a5.32,5.32,0,0,1,10.63,0v4.88h-1.24v-2.44a4.38,4.38,0,0,1-4.27,2.7A5,5,0,0,1,322.23,439.82Zm9.29-.06a4,4,0,1,0-4,4A3.8,3.8,0,0,0,331.52,439.76Z"/><path class="cls-95" d="M335.19,430.5h1.34v14.2h-1.34Z"/><path class="cls-95" d="M338.89,446h1.36c.54,1.4,1.92,2,3.6,2,2.28,0,3.91-1.14,3.91-4.06V442.5a4.44,4.44,0,0,1-4.17,2.4,4.93,4.93,0,0,1-5.12-5.14,5.32,5.32,0,0,1,10.63.06v4.06c0,3.82-2.31,5.3-5.25,5.3C341.47,449.18,339.57,448.2,338.89,446Zm8.87-6.24a4,4,0,0,0-7.93,0,4,4,0,0,0,7.93,0Z"/><path class="cls-95" d="M350.65,439.76A5.32,5.32,0,1,1,356,445,5.07,5.07,0,0,1,350.65,439.76Zm9.29,0a4,4,0,1,0-4,4A3.81,3.81,0,0,0,359.94,439.76Z"/><path class="cls-95" d="M362.85,438.78c0-2.84,1.7-4.22,4.16-4.22s4.14,1.38,4.14,4.24v.12h-1.32v-.14c0-2.06-1.14-3-2.82-3s-2.82.92-2.82,3v5.92h-1.34Z"/><path class="cls-95" d="M372.49,431.88a1,1,0,1,1,1,1A1,1,0,0,1,372.49,431.88Zm.36,2.94h1.34v9.88h-1.34Z"/><path class="cls-95" d="M376.51,441.06v-9.74h1.34v3.5h5.82V436h-5.82v5a2.54,2.54,0,1,0,5.08,0v-.22h1.3v.22a3.86,3.86,0,1,1-7.72,0Z"/><path class="cls-95" d="M386.23,430.5h1.34v6.24a3.91,3.91,0,0,1,3.74-2.18c2.64,0,4.68,1.6,4.68,5v5.16h-1.34v-5.16c0-2.44-1.4-3.74-3.54-3.74s-3.54,1.34-3.54,3.74v5.16h-1.34Z"/><path class="cls-95" d="M398,438.92c0-2.94,1.72-4.36,4-4.36a3.69,3.69,0,0,1,3.56,2.22,3.65,3.65,0,0,1,3.56-2.22c2.28,0,4,1.42,4,4.36v5.78h-1.35v-5.78c0-2.1-1.16-3.12-2.76-3.12s-2.78,1.06-2.78,3.12v5.78h-1.34v-5.78c0-2.06-1.2-3.12-2.8-3.12s-2.76,1-2.76,3.12v5.78H398Z"/><path class="cls-95" d="M414.69,441.92h1.36c.06,1.06,1,1.82,2.68,1.82s2.68-.8,2.68-1.86-1.26-1.34-2.68-1.52c-1.78-.22-3.8-.5-3.8-2.68,0-1.86,1.46-3.12,3.78-3.12s3.74,1.28,3.78,3h-1.32c-.06-1-1-1.74-2.48-1.74s-2.42.76-2.42,1.78c0,1.22,1.28,1.36,2.68,1.54s3.82.44,3.82,2.68c0,1.88-1.58,3.18-4,3.18S414.75,443.66,414.69,441.92Z"/><path class="cls-95" d="M87.8,463.82a5.31,5.31,0,0,1,10.62,0v4.88H97.18v-2.44a4.36,4.36,0,0,1-4.26,2.7A5,5,0,0,1,87.8,463.82Zm9.28-.06a4,4,0,1,0-4,4A3.8,3.8,0,0,0,97.08,463.76Z"/><path class="cls-95" d="M100.38,463.54c0-3.28,2-5,4.88-5s4.88,1.7,4.88,5v5.16H108.8v-5.16c0-2.44-1.4-3.74-3.54-3.74s-3.54,1.3-3.54,3.74v5.16h-1.34Z"/><path class="cls-95" d="M111.7,463.72a5,5,0,0,1,5.12-5.16,4.44,4.44,0,0,1,4.16,2.38V454.5h1.34v9.2A5,5,0,0,1,117,469,5.09,5.09,0,0,1,111.7,463.72Zm9.28,0a4,4,0,1,0-4,4A3.79,3.79,0,0,0,121,463.76Z"/><path class="cls-95" d="M129.62,455.88a1,1,0,1,1,1,1A1,1,0,0,1,129.62,455.88Zm.36,2.94h1.34v9.88H130Z"/><path class="cls-95" d="M133.64,463.54c0-3.28,2-5,4.88-5s4.88,1.7,4.88,5v5.16h-1.34v-5.16c0-2.44-1.4-3.74-3.54-3.74s-3.54,1.3-3.54,3.74v5.16h-1.34Z"/><path class="cls-95" d="M145.36,465.06v-9.74h1.34v3.5h5.82V460H146.7v5a2.54,2.54,0,1,0,5.08,0v-.22h1.3v.22a3.86,3.86,0,1,1-7.72,0Z"/><path class="cls-95" d="M154.36,463.76a5.3,5.3,0,0,1,10.6,0v.44h-9.22a3.76,3.76,0,0,0,3.94,3.52,3.68,3.68,0,0,0,3.4-1.78h1.46a5.36,5.36,0,0,1-10.18-2.18Zm9.2-.76a4,4,0,0,0-7.78,0Z"/><path class="cls-95" d="M166.52,462.78c0-2.84,1.7-4.22,4.16-4.22s4.14,1.38,4.14,4.24v.12H173.5v-.14c0-2.06-1.14-3-2.82-3s-2.82.92-2.82,3v5.92h-1.34Z"/><path class="cls-95" d="M176.46,458.42a3.82,3.82,0,0,1,4.16-4.18c2.46,0,4.14,1.42,4.14,4.24h-1.32c0-2.06-1.14-3-2.82-3a2.6,2.6,0,0,0-2.82,2.94v1.78h5.8v1.22h-5.8v7.28h-1.34Z"/><path class="cls-95" d="M185.14,463.82a5.31,5.31,0,0,1,10.62,0v4.88h-1.24v-2.44a4.36,4.36,0,0,1-4.26,2.7A5,5,0,0,1,185.14,463.82Zm9.28-.06a4,4,0,1,0-4,4A3.8,3.8,0,0,0,194.42,463.76Z"/><path class="cls-95" d="M197.32,463.76a5.07,5.07,0,0,1,5.32-5.2,5,5,0,0,1,5.08,3.68h-1.36a4,4,0,1,0,0,3h1.36a5,5,0,0,1-5.08,3.68A5.07,5.07,0,0,1,197.32,463.76Z"/><path class="cls-95" d="M208.92,463.76a5.3,5.3,0,0,1,10.6,0v.44H210.3a3.76,3.76,0,0,0,3.94,3.52,3.68,3.68,0,0,0,3.4-1.78h1.46a5.36,5.36,0,0,1-10.18-2.18Zm9.2-.76a4,4,0,0,0-7.78,0Z"/><path class="cls-95" d="M220.74,465.92h1.36c.06,1.06,1,1.82,2.68,1.82s2.68-.8,2.68-1.86-1.26-1.34-2.68-1.52c-1.78-.22-3.8-.5-3.8-2.68,0-1.86,1.46-3.12,3.78-3.12s3.74,1.28,3.78,3h-1.32c-.06-1-1-1.74-2.48-1.74s-2.42.76-2.42,1.78c0,1.22,1.28,1.36,2.68,1.54s3.82.44,3.82,2.68c0,1.88-1.58,3.18-4,3.18S220.8,467.66,220.74,465.92Z"/><path class="cls-95" d="M235.76,465.06v-9.74h1.34v3.5h5.82V460H237.1v5a2.54,2.54,0,1,0,5.08,0v-.22h1.3v.22a3.86,3.86,0,1,1-7.72,0Z"/><path class="cls-95" d="M244.76,463.76a5.32,5.32,0,1,1,5.32,5.2A5.07,5.07,0,0,1,244.76,463.76Zm9.28,0a4,4,0,1,0-4,4A3.8,3.8,0,0,0,254,463.76Z"/><path class="cls-95" d="M262.27,462.92c0-2.94,1.73-4.36,4-4.36a3.69,3.69,0,0,1,3.56,2.22,3.65,3.65,0,0,1,3.56-2.22c2.28,0,4,1.42,4,4.36v5.78h-1.34v-5.78c0-2.1-1.16-3.12-2.76-3.12s-2.78,1.06-2.78,3.12v5.78h-1.34v-5.78c0-2.06-1.2-3.12-2.8-3.12s-2.77,1-2.77,3.12v5.78h-1.34Z"/><path class="cls-95" d="M279,463.76a5.31,5.31,0,0,1,10.61,0v.44h-9.23a3.77,3.77,0,0,0,3.95,3.52,3.68,3.68,0,0,0,3.4-1.78h1.46A5.37,5.37,0,0,1,279,463.76Zm9.21-.76a4,4,0,0,0-7.79,0Z"/><path class="cls-95" d="M290.71,463.76a5.31,5.31,0,0,1,10.61,0v.44h-9.23a3.76,3.76,0,0,0,4,3.52,3.68,3.68,0,0,0,3.4-1.78h1.46a5.37,5.37,0,0,1-10.19-2.18Zm9.21-.76a4,4,0,0,0-7.79,0Z"/><path class="cls-95" d="M302.87,465.06v-9.74h1.34v3.5H310V460h-5.83v5a2.55,2.55,0,1,0,5.09,0v-.22h1.3v.22a3.87,3.87,0,1,1-7.73,0Z"/><path class="cls-95" d="M317.69,470H319a3.3,3.3,0,0,0,3.38,2c2.13,0,3.61-1,3.61-3.62v-1.66a3.94,3.94,0,0,1-3.75,2.18c-2.64,0-4.68-1.6-4.68-5v-5.1h1.34v5.1c0,2.44,1.4,3.74,3.55,3.74s3.54-1.32,3.54-3.74v-5.1h1.34v9.52c0,3.44-2.18,4.84-4.95,4.84C320.17,473.18,318.31,472.14,317.69,470Z"/><path class="cls-95" d="M329.23,463.76a5.33,5.33,0,1,1,5.33,5.2A5.08,5.08,0,0,1,329.23,463.76Zm9.29,0a4,4,0,1,0-4,4A3.8,3.8,0,0,0,338.52,463.76Z"/><path class="cls-95" d="M341.43,464v-5.16h1.34V464c0,2.42,1.4,3.74,3.54,3.74s3.54-1.32,3.54-3.74v-5.16h1.35V464c0,3.28-2,5-4.89,5S341.43,467.26,341.43,464Z"/><path class="cls-95" d="M353.15,462.78c0-2.84,1.7-4.22,4.16-4.22s4.15,1.38,4.15,4.24v.12h-1.32v-.14c0-2.06-1.15-3-2.83-3s-2.82.92-2.82,3v5.92h-1.34Z"/><path class="cls-95" d="M367.69,463.76a5.31,5.31,0,0,1,10.61,0v.44h-9.23a3.76,3.76,0,0,0,3.94,3.52,3.68,3.68,0,0,0,3.4-1.78h1.46a5.36,5.36,0,0,1-10.18-2.18Zm9.2-.76a4,4,0,0,0-7.78,0Z"/><path class="cls-95" d="M382.91,463.68l-4-4.86h1.66l3.36,4.14,3.36-4.14h1.62l-4.06,4.86,4.22,5h-1.66l-3.54-4.3-3.5,4.3h-1.62Z"/><path class="cls-95" d="M389.45,463.82a5.31,5.31,0,0,1,10.62,0v4.88h-1.24v-2.44a4.36,4.36,0,0,1-4.26,2.7A5,5,0,0,1,389.45,463.82Zm9.28-.06a4,4,0,1,0-4,4A3.8,3.8,0,0,0,398.73,463.76Z"/><path class="cls-95" d="M401.63,463.76a5.07,5.07,0,0,1,5.32-5.2,5,5,0,0,1,5.08,3.68h-1.36a4,4,0,1,0,0,3H412A5,5,0,0,1,407,469,5.07,5.07,0,0,1,401.63,463.76Z"/><path class="cls-95" d="M413.63,465.06v-9.74H415v3.5h5.82V460H415v5a2.54,2.54,0,1,0,5.08,0v-.22h1.3v.22a3.86,3.86,0,1,1-7.72,0Z"/><path class="cls-95" d="M57.05,486.78c0-2.84,1.7-4.22,4.16-4.22s4.14,1.38,4.14,4.24v.12H64v-.14c0-2.06-1.14-3-2.82-3s-2.82.92-2.82,3v5.92H57.05Z"/><path class="cls-95" d="M66.27,487.76a5.3,5.3,0,0,1,10.6,0v.44H67.65a3.76,3.76,0,0,0,3.94,3.52,3.68,3.68,0,0,0,3.4-1.78h1.46a5.36,5.36,0,0,1-10.18-2.18Zm9.2-.76a4,4,0,0,0-7.78,0Z"/><path class="cls-95" d="M87.31,496.92v-6.34A4.44,4.44,0,0,1,83.15,493,5,5,0,0,1,78,487.8a5.09,5.09,0,0,1,5.34-5.24,5,5,0,0,1,5.28,5.26v9.1Zm0-9.16a4,4,0,1,0-4,4A3.79,3.79,0,0,0,87.31,487.76Z"/><path class="cls-95" d="M90.61,488v-5.16H92V488c0,2.42,1.4,3.74,3.54,3.74S99,490.4,99,488v-5.16h1.34V488c0,3.28-2,5-4.88,5S90.61,491.26,90.61,488Z"/><path class="cls-95" d="M102.35,479.88a1,1,0,1,1,1,1A1,1,0,0,1,102.35,479.88Zm.36,2.94h1.34v9.88h-1.34Z"/><path class="cls-95" d="M106.37,486.78c0-2.84,1.7-4.22,4.16-4.22s4.14,1.38,4.14,4.24v.12h-1.32v-.14c0-2.06-1.14-3-2.82-3s-2.82.92-2.82,3v5.92h-1.34Z"/><path class="cls-95" d="M115.59,487.76a5.3,5.3,0,0,1,10.6,0v.44H117a3.76,3.76,0,0,0,3.94,3.52,3.68,3.68,0,0,0,3.4-1.78h1.46a5.36,5.36,0,0,1-10.18-2.18Zm9.2-.76a4,4,0,0,0-7.78,0Z"/><path class="cls-95" d="M127.75,486.92c0-2.94,1.72-4.36,4-4.36a3.69,3.69,0,0,1,3.56,2.22,3.65,3.65,0,0,1,3.56-2.22c2.28,0,4,1.42,4,4.36v5.78h-1.34v-5.78c0-2.1-1.16-3.12-2.76-3.12s-2.78,1.06-2.78,3.12v5.78h-1.34v-5.78c0-2.06-1.2-3.12-2.8-3.12s-2.76,1-2.76,3.12v5.78h-1.34Z"/><path class="cls-95" d="M144.43,487.76a5.3,5.3,0,0,1,10.6,0v.44h-9.22a3.76,3.76,0,0,0,3.94,3.52,3.68,3.68,0,0,0,3.4-1.78h1.46a5.36,5.36,0,0,1-10.18-2.18Zm9.2-.76a4,4,0,0,0-7.78,0Z"/><path class="cls-95" d="M156.59,487.54c0-3.28,2-5,4.88-5s4.88,1.7,4.88,5v5.16H165v-5.16c0-2.44-1.4-3.74-3.54-3.74s-3.54,1.3-3.54,3.74v5.16h-1.34Z"/><path class="cls-95" d="M168.31,489.06v-9.74h1.34v3.5h5.82V484h-5.82v5a2.54,2.54,0,1,0,5.08,0v-.22H176v.22a3.86,3.86,0,1,1-7.72,0Z"/><path class="cls-95" d="M177.37,489.92h1.36c.06,1.06,1,1.82,2.68,1.82s2.68-.8,2.68-1.86-1.26-1.34-2.68-1.52c-1.78-.22-3.8-.5-3.8-2.68,0-1.86,1.46-3.12,3.78-3.12s3.74,1.28,3.78,3h-1.32c-.06-1-1-1.74-2.48-1.74s-2.42.76-2.42,1.78c0,1.22,1.28,1.36,2.68,1.54s3.82.44,3.82,2.68c0,1.88-1.58,3.18-4,3.18S177.43,491.66,177.37,489.92Z"/><path class="cls-95" d="M187.21,491.94a1,1,0,1,1,1,1A1,1,0,0,1,187.21,491.94Z"/><path class="cls-95" d="M196.6,486.16a7,7,0,1,1,7,6.8A6.65,6.65,0,0,1,196.6,486.16Zm12.49,0a5.52,5.52,0,1,0-5.52,5.48A5.29,5.29,0,0,0,209.09,486.16Z"/><path class="cls-95" d="M212.19,488v-5.16h1.33V488c0,2.42,1.41,3.74,3.55,3.74s3.54-1.32,3.54-3.74v-5.16H222V488c0,3.28-2,5-4.88,5S212.19,491.26,212.19,488Z"/><path class="cls-95" d="M223.9,486.78c0-2.84,1.71-4.22,4.17-4.22s4.14,1.38,4.14,4.24v.12h-1.32v-.14c0-2.06-1.14-3-2.82-3s-2.82.92-2.82,3v5.92H223.9Z"/><path class="cls-95" d="M238.84,486.92c0-2.94,1.72-4.36,4-4.36a3.69,3.69,0,0,1,3.56,2.22,3.65,3.65,0,0,1,3.56-2.22c2.28,0,4,1.42,4,4.36v5.78h-1.34v-5.78c0-2.1-1.16-3.12-2.76-3.12s-2.78,1.06-2.78,3.12v5.78h-1.34v-5.78c0-2.06-1.2-3.12-2.8-3.12s-2.76,1-2.76,3.12v5.78h-1.35Z"/><path class="cls-95" d="M255.52,487.76a5.31,5.31,0,0,1,10.61,0v.44H256.9a3.76,3.76,0,0,0,4,3.52,3.68,3.68,0,0,0,3.4-1.78h1.46a5.37,5.37,0,0,1-10.19-2.18Zm9.21-.76a4,4,0,0,0-7.79,0Z"/><path class="cls-95" d="M267.68,489.06v-9.74H269v3.5h5.83V484H269v5a2.54,2.54,0,1,0,5.08,0v-.22h1.31v.22a3.87,3.87,0,1,1-7.73,0Z"/><path class="cls-95" d="M277.4,478.5h1.34v6.24a3.92,3.92,0,0,1,3.74-2.18c2.65,0,4.69,1.6,4.69,5v5.16h-1.34v-5.16c0-2.44-1.4-3.74-3.55-3.74s-3.54,1.34-3.54,3.74v5.16H277.4Z"/><path class="cls-95" d="M288.72,487.76a5.33,5.33,0,1,1,5.33,5.2A5.08,5.08,0,0,1,288.72,487.76Zm9.29,0a4,4,0,1,0-4,4A3.8,3.8,0,0,0,298,487.76Z"/><path class="cls-95" d="M300.52,487.72a5,5,0,0,1,5.12-5.16,4.46,4.46,0,0,1,4.17,2.38V478.5h1.34v9.2a5,5,0,0,1-5.29,5.26A5.09,5.09,0,0,1,300.52,487.72Zm9.29,0a4,4,0,1,0-4,4A3.79,3.79,0,0,0,309.81,487.76Z"/><path class="cls-95" d="M312.7,487.76A5.33,5.33,0,1,1,318,493,5.07,5.07,0,0,1,312.7,487.76Zm9.29,0a4,4,0,1,0-4,4A3.8,3.8,0,0,0,322,487.76Z"/><path class="cls-95" d="M325.28,478.5h1.34v14.2h-1.34Z"/><path class="cls-95" d="M328.56,487.76a5.32,5.32,0,1,1,5.32,5.2A5.07,5.07,0,0,1,328.56,487.76Zm9.29,0a4,4,0,1,0-4,4A3.81,3.81,0,0,0,337.85,487.76Z"/><path class="cls-95" d="M340.78,494h1.36c.54,1.4,1.92,2,3.6,2,2.28,0,3.9-1.14,3.9-4.06V490.5a4.41,4.41,0,0,1-4.16,2.4,4.93,4.93,0,0,1-5.12-5.14,5.31,5.31,0,0,1,10.62.06v4.06c0,3.82-2.3,5.3-5.24,5.3C343.36,497.18,341.46,496.2,340.78,494Zm8.86-6.24a4,4,0,1,0-7.92,0,4,4,0,0,0,7.92,0Z"/><path class="cls-95" d="M353,494h1.34a3.3,3.3,0,0,0,3.38,2c2.12,0,3.6-1,3.6-3.62v-1.66a3.91,3.91,0,0,1-3.74,2.18c-2.64,0-4.68-1.6-4.68-5v-5.1h1.34v5.1c0,2.44,1.4,3.74,3.54,3.74s3.54-1.32,3.54-3.74v-5.1h1.34v9.52c0,3.44-2.18,4.84-4.94,4.84C355.52,497.18,353.66,496.14,353,494Z"/><path class="cls-95" d="M370.32,479.88a1,1,0,1,1,1,1A1,1,0,0,1,370.32,479.88Zm.36,2.94H372v9.88h-1.34Z"/><path class="cls-95" d="M374,489.92h1.36c.06,1.06,1,1.82,2.68,1.82s2.68-.8,2.68-1.86-1.26-1.34-2.68-1.52c-1.78-.22-3.8-.5-3.8-2.68,0-1.86,1.46-3.12,3.78-3.12s3.74,1.28,3.78,3h-1.32c-.06-1-1-1.74-2.48-1.74s-2.42.76-2.42,1.78c0,1.22,1.28,1.36,2.68,1.54s3.82.44,3.82,2.68c0,1.88-1.58,3.18-4,3.18S374.06,491.66,374,489.92Z"/><path class="cls-95" d="M389,487.54c0-3.28,2-5,4.88-5s4.88,1.7,4.88,5v5.16h-1.34v-5.16c0-2.44-1.4-3.74-3.54-3.74s-3.54,1.3-3.54,3.74v5.16H389Z"/><path class="cls-95" d="M400.76,479.88a1,1,0,1,1,1,1A1,1,0,0,1,400.76,479.88Zm.36,2.94h1.34v9.88h-1.34Z"/><path class="cls-95" d="M404.78,486.92c0-2.94,1.72-4.36,4-4.36a3.69,3.69,0,0,1,3.56,2.22,3.65,3.65,0,0,1,3.56-2.22c2.29,0,4,1.42,4,4.36v5.78h-1.35v-5.78c0-2.1-1.16-3.12-2.76-3.12s-2.78,1.06-2.78,3.12v5.78h-1.34v-5.78c0-2.06-1.2-3.12-2.8-3.12s-2.76,1-2.76,3.12v5.78h-1.34Z"/><path class="cls-95" d="M421.86,487.7v-9.2h1.34v6.44a4.44,4.44,0,0,1,4.16-2.38,5,5,0,0,1,5.12,5.16,5.09,5.09,0,0,1-5.34,5.24A5,5,0,0,1,421.86,487.7Zm9.26.06a4,4,0,1,0-4,4A3.8,3.8,0,0,0,431.12,487.76Z"/><path class="cls-95" d="M434.42,478.5h1.34v14.2h-1.34Z"/><path class="cls-95" d="M437.7,487.76a5.3,5.3,0,0,1,10.6,0v.44h-9.22a3.76,3.76,0,0,0,3.94,3.52,3.68,3.68,0,0,0,3.4-1.78h1.46a5.36,5.36,0,0,1-10.18-2.18Zm9.2-.76a4,4,0,0,0-7.78,0Z"/><path class="cls-95" d="M450.5,492.9a1,1,0,0,1-.7-1,1,1,0,1,1,2,0,1.87,1.87,0,0,1-.12.56l-1.06,2.68h-.8Z"/><path class="cls-95" d="M56.26,503.88a1,1,0,1,1,1,1A1,1,0,0,1,56.26,503.88Zm.36,2.94H58v9.88H56.62Z"/><path class="cls-95" d="M60.28,513.06v-9.74h1.34v3.5h5.82V508H61.62v5a2.54,2.54,0,1,0,5.08,0v-.22H68v.22a3.54,3.54,0,0,1-3.84,3.9A3.56,3.56,0,0,1,60.28,513.06Z"/><path class="cls-95" d="M74.6,511.76a5.3,5.3,0,0,1,10.6,0v.44H76a3.76,3.76,0,0,0,3.94,3.52,3.68,3.68,0,0,0,3.4-1.78h1.46a5.36,5.36,0,0,1-10.18-2.18Zm9.2-.76A4,4,0,0,0,76,511Z"/><path class="cls-95" d="M87.14,502.5h1.34v14.2H87.14Z"/><path class="cls-95" d="M90.84,503.88a1,1,0,1,1,1,1A1,1,0,0,1,90.84,503.88Zm.36,2.94h1.34v9.88H91.2Z"/><path class="cls-95" d="M94.86,510.92c0-2.94,1.72-4.36,4-4.36a3.69,3.69,0,0,1,3.56,2.22,3.65,3.65,0,0,1,3.56-2.22c2.28,0,4,1.42,4,4.36v5.78h-1.34v-5.78c0-2.1-1.16-3.12-2.76-3.12s-2.78,1.06-2.78,3.12v5.78h-1.34v-5.78c0-2.06-1.2-3.12-2.8-3.12s-2.76,1-2.76,3.12v5.78H94.86Z"/><path class="cls-95" d="M112,503.88a1,1,0,1,1,1,1A1,1,0,0,1,112,503.88Zm.36,2.94h1.34v9.88h-1.34Z"/><path class="cls-95" d="M116,511.54c0-3.28,2-5,4.88-5s4.88,1.7,4.88,5v5.16H124.4v-5.16c0-2.44-1.4-3.74-3.54-3.74s-3.54,1.3-3.54,3.74v5.16H116Z"/><path class="cls-95" d="M127.3,511.82a5.31,5.31,0,0,1,10.62,0v4.88h-1.24v-2.44a4.36,4.36,0,0,1-4.26,2.7A5,5,0,0,1,127.3,511.82Zm9.28-.06a4,4,0,1,0-4,4A3.8,3.8,0,0,0,136.58,511.76Z"/><path class="cls-95" d="M139.88,513.06v-9.74h1.34v3.5H147V508h-5.82v5a2.54,2.54,0,1,0,5.08,0v-.22h1.3v.22a3.86,3.86,0,1,1-7.72,0Z"/><path class="cls-95" d="M148.88,511.76a5.3,5.3,0,0,1,10.6,0v.44h-9.22a3.76,3.76,0,0,0,3.94,3.52,3.68,3.68,0,0,0,3.4-1.78h1.46a5.36,5.36,0,0,1-10.18-2.18Zm9.2-.76a4,4,0,0,0-7.78,0Z"/><path class="cls-95" d="M160.7,513.92h1.36c.06,1.06,1,1.82,2.68,1.82s2.68-.8,2.68-1.86-1.26-1.34-2.68-1.52c-1.78-.22-3.8-.5-3.8-2.68,0-1.86,1.46-3.12,3.78-3.12s3.74,1.28,3.78,3h-1.32c-.06-1-1-1.74-2.48-1.74s-2.42.76-2.42,1.78c0,1.22,1.28,1.36,2.68,1.54s3.82.44,3.82,2.68c0,1.88-1.58,3.18-4,3.18S160.76,515.66,160.7,513.92Z"/><path class="cls-95" d="M175.32,511.72a5,5,0,0,1,5.12-5.16,4.44,4.44,0,0,1,4.16,2.38V502.5h1.34v9.2a5,5,0,0,1-5.28,5.26A5.09,5.09,0,0,1,175.32,511.72Zm9.28,0a4,4,0,1,0-4,4A3.79,3.79,0,0,0,184.6,511.76Z"/><path class="cls-95" d="M187.92,503.88a1,1,0,1,1,1,1A1,1,0,0,1,187.92,503.88Zm.36,2.94h1.34v9.88h-1.34Z"/><path class="cls-95" d="M191.6,513.92H193c.06,1.06,1,1.82,2.68,1.82s2.68-.8,2.68-1.86-1.26-1.34-2.68-1.52c-1.78-.22-3.8-.5-3.8-2.68,0-1.86,1.46-3.12,3.78-3.12s3.74,1.28,3.78,3h-1.32c-.06-1-1-1.74-2.48-1.74s-2.42.76-2.42,1.78c0,1.22,1.28,1.36,2.68,1.54s3.82.44,3.82,2.68c0,1.88-1.58,3.18-4,3.18S191.66,515.66,191.6,513.92Z"/><path class="cls-95" d="M201.3,510.78c0-2.84,1.7-4.22,4.16-4.22s4.14,1.38,4.14,4.24v.12h-1.32v-.14c0-2.06-1.14-3-2.82-3s-2.82.92-2.82,3v5.92H201.3Z"/><path class="cls-95" d="M210.92,512v-5.16h1.34V512c0,2.42,1.4,3.74,3.54,3.74s3.54-1.32,3.54-3.74v-5.16h1.34V512c0,3.28-2,5-4.88,5S210.92,515.26,210.92,512Z"/><path class="cls-95" d="M222.64,511.82a5,5,0,0,1,5.28-5.26,5.09,5.09,0,0,1,5.34,5.24,5,5,0,0,1-5.12,5.16,4.44,4.44,0,0,1-4.16-2.38v6.34h-1.34Zm9.26-.06a4,4,0,1,0-4,4A3.8,3.8,0,0,0,231.9,511.76Z"/><path class="cls-95" d="M234.81,513.06v-9.74h1.35v3.5H242V508h-5.82v5a2.54,2.54,0,1,0,5.08,0v-.22h1.3v.22a3.87,3.87,0,1,1-7.73,0Z"/><path class="cls-95" d="M244.23,503.88a1,1,0,1,1,1,1A1,1,0,0,1,244.23,503.88Zm.37,2.94h1.34v9.88H244.6Z"/><path class="cls-95" d="M247.85,511.76a5.33,5.33,0,1,1,5.33,5.2A5.08,5.08,0,0,1,247.85,511.76Zm9.29,0a4,4,0,1,0-4,4A3.8,3.8,0,0,0,257.14,511.76Z"/><path class="cls-95" d="M260.06,511.54c0-3.28,2-5,4.88-5s4.88,1.7,4.88,5v5.16h-1.34v-5.16c0-2.44-1.4-3.74-3.54-3.74s-3.55,1.3-3.55,3.74v5.16h-1.33Z"/><path class="cls-95" d="M276.69,511.82a5.32,5.32,0,0,1,10.63,0v4.88h-1.24v-2.44a4.36,4.36,0,0,1-4.26,2.7A5,5,0,0,1,276.69,511.82Zm9.29-.06a4,4,0,1,0-4,4A3.8,3.8,0,0,0,286,511.76Z"/><path class="cls-95" d="M289.27,511.54c0-3.28,2-5,4.89-5s4.88,1.7,4.88,5v5.16H297.7v-5.16c0-2.44-1.4-3.74-3.54-3.74s-3.55,1.3-3.55,3.74v5.16h-1.34Z"/><path class="cls-95" d="M300.6,511.72a5,5,0,0,1,5.12-5.16,4.44,4.44,0,0,1,4.16,2.38V502.5h1.34v9.2a5,5,0,0,1-5.28,5.26A5.09,5.09,0,0,1,300.6,511.72Zm9.28,0a4,4,0,1,0-4,4A3.79,3.79,0,0,0,309.88,511.76Z"/><path class="cls-95" d="M318.49,510.92c0-2.94,1.73-4.36,4-4.36a3.69,3.69,0,0,1,3.56,2.22,3.65,3.65,0,0,1,3.56-2.22c2.28,0,4,1.42,4,4.36v5.78h-1.34v-5.78c0-2.1-1.16-3.12-2.76-3.12s-2.78,1.06-2.78,3.12v5.78H325.4v-5.78c0-2.06-1.2-3.12-2.8-3.12s-2.77,1-2.77,3.12v5.78h-1.34Z"/><path class="cls-95" d="M335.59,503.88a1,1,0,1,1,1,1A1,1,0,0,1,335.59,503.88Zm.36,2.94h1.34v9.88H336Z"/><path class="cls-95" d="M339.61,511.54c0-3.28,2-5,4.89-5s4.88,1.7,4.88,5v5.16H348v-5.16c0-2.44-1.4-3.74-3.54-3.74s-3.55,1.3-3.55,3.74v5.16h-1.34Z"/><path class="cls-95" d="M351.35,503.88a1,1,0,1,1,1,1A1,1,0,0,1,351.35,503.88Zm.36,2.94h1.34v9.88h-1.34Z"/><path class="cls-95" d="M355.37,510.92c0-2.94,1.72-4.36,4-4.36a3.69,3.69,0,0,1,3.57,2.22,3.65,3.65,0,0,1,3.56-2.22c2.28,0,4,1.42,4,4.36v5.78h-1.34v-5.78c0-2.1-1.16-3.12-2.76-3.12s-2.78,1.06-2.78,3.12v5.78h-1.34v-5.78c0-2.06-1.2-3.12-2.8-3.12s-2.77,1-2.77,3.12v5.78h-1.34Z"/><path class="cls-95" d="M372.47,503.88a1,1,0,1,1,1,1A1,1,0,0,1,372.47,503.88Zm.36,2.94h1.34v9.88h-1.34Z"/><path class="cls-95" d="M376.25,515.62l7.1-7.6h-6.8v-1.2h8.61v1.08l-7.11,7.6h7.31v1.2h-9.11Z"/><path class="cls-95" d="M386.53,511.76a5.31,5.31,0,0,1,10.61,0v.44h-9.23a3.76,3.76,0,0,0,3.94,3.52,3.68,3.68,0,0,0,3.41-1.78h1.46a5.37,5.37,0,0,1-10.19-2.18Zm9.21-.76a4,4,0,0,0-7.79,0Z"/><path class="cls-95" d="M398.35,513.92h1.36c.06,1.06,1,1.82,2.68,1.82s2.69-.8,2.69-1.86-1.27-1.34-2.69-1.52c-1.78-.22-3.8-.5-3.8-2.68,0-1.86,1.46-3.12,3.78-3.12s3.75,1.28,3.79,3h-1.32c-.07-1-1-1.74-2.49-1.74s-2.42.76-2.42,1.78c0,1.22,1.28,1.36,2.68,1.54s3.83.44,3.83,2.68c0,1.88-1.59,3.18-4.05,3.18S398.41,515.66,398.35,513.92Z"/><path class="cls-95" d="M413,511.76a5.07,5.07,0,0,1,5.32-5.2,5,5,0,0,1,5.09,3.68H422a4,4,0,1,0,0,3h1.36a5,5,0,0,1-5.09,3.68A5.07,5.07,0,0,1,413,511.76Z"/><path class="cls-95" d="M424.57,511.76a5.33,5.33,0,1,1,5.32,5.2A5.07,5.07,0,0,1,424.57,511.76Zm9.28,0a4,4,0,1,0-4,4A3.8,3.8,0,0,0,433.85,511.76Z"/><path class="cls-95" d="M436.43,513.92h1.36c.06,1.06,1,1.82,2.68,1.82s2.68-.8,2.68-1.86-1.26-1.34-2.68-1.52c-1.78-.22-3.8-.5-3.8-2.68,0-1.86,1.46-3.12,3.78-3.12s3.74,1.28,3.78,3h-1.32c-.06-1-1-1.74-2.48-1.74s-2.42.76-2.42,1.78c0,1.22,1.28,1.36,2.68,1.54s3.82.44,3.82,2.68c0,1.88-1.58,3.18-4,3.18S436.49,515.66,436.43,513.92Z"/><path class="cls-95" d="M446.13,513.06v-9.74h1.34v3.5h5.82V508h-5.82v5a2.54,2.54,0,1,0,5.08,0v-.22h1.3v.22a3.86,3.86,0,1,1-7.72,0Z"/><path class="cls-95" d="M455.93,515.94a1,1,0,1,1,1,1A1,1,0,0,1,455.93,515.94Z"/><path class="cls-122" d="M88,586.36c0-5.25,3.85-9.1,9.31-9.1s9.31,3.85,9.31,9.1-3.85,9.09-9.31,9.09S88,591.6,88,586.36Zm16.69,0a7.38,7.38,0,1,0-7.38,7.33A7.08,7.08,0,0,0,104.65,586.36Zm4.14,2.43v-6.9h1.8v6.9c0,3.24,1.87,5,4.73,5s4.73-1.76,4.73-5v-6.9h1.8v6.9c0,4.39-2.62,6.66-6.53,6.66S108.79,593.18,108.79,588.79Zm15.67-1.6c0-3.8,2.28-5.65,5.57-5.65s5.53,1.85,5.53,5.67v.16H133.8v-.18c0-2.76-1.53-4-3.77-4s-3.77,1.23-3.77,4v7.91h-1.8Zm20,1.39a6.72,6.72,0,0,1,7.06-7,6.8,6.8,0,0,1,7.14,7,6.66,6.66,0,0,1-6.84,6.9,6,6,0,0,1-5.57-3.18v8.48h-1.79Zm12.39-.08a5.3,5.3,0,1,0-5.3,5.29A5.09,5.09,0,0,0,156.83,588.5Zm3.9-1.31c0-3.8,2.27-5.65,5.56-5.65s5.54,1.85,5.54,5.67v.16h-1.77v-.18c0-2.76-1.52-4-3.77-4s-3.77,1.23-3.77,4v7.91h-1.79Zm12.32,1.31a7.12,7.12,0,1,1,7.12,7A6.79,6.79,0,0,1,173.05,588.5Zm12.42,0a5.3,5.3,0,1,0-5.3,5.29A5.09,5.09,0,0,0,185.47,588.5Zm3.36,0a6.79,6.79,0,0,1,7.12-7,6.69,6.69,0,0,1,6.79,4.92h-1.82a5.3,5.3,0,1,0,0,4.07h1.82a6.69,6.69,0,0,1-6.79,4.92A6.78,6.78,0,0,1,188.83,588.5Zm15.51,0a7.09,7.09,0,0,1,14.18,0v.59H206.19a5,5,0,0,0,5.27,4.7,4.9,4.9,0,0,0,4.54-2.38h2a7.17,7.17,0,0,1-13.62-2.91Zm12.31-1a5.3,5.3,0,0,0-10.41,0Zm3.5,3.91H222c.08,1.41,1.36,2.43,3.58,2.43s3.59-1.07,3.59-2.49c0-1.6-1.69-1.79-3.59-2-2.38-.29-5.08-.67-5.08-3.58,0-2.49,1.95-4.18,5.05-4.18s5,1.71,5.06,4h-1.77c-.08-1.31-1.28-2.33-3.31-2.33s-3.24,1-3.24,2.38c0,1.64,1.71,1.82,3.58,2.06,2.06.27,5.11.59,5.11,3.59,0,2.51-2.11,4.25-5.4,4.25S220.23,593.71,220.15,591.39Zm12.51,0h1.82c.08,1.41,1.37,2.43,3.59,2.43s3.58-1.07,3.58-2.49c0-1.6-1.69-1.79-3.58-2-2.38-.29-5.09-.67-5.09-3.58,0-2.49,2-4.18,5.06-4.18s5,1.71,5.05,4h-1.76c-.08-1.31-1.28-2.33-3.32-2.33s-3.23,1-3.23,2.38c0,1.64,1.71,1.82,3.58,2.06,2.06.27,5.11.59,5.11,3.59,0,2.51-2.11,4.25-5.4,4.25S232.74,593.71,232.66,591.39ZM252.77,578a1.37,1.37,0,1,1,1.37,1.36A1.34,1.34,0,0,1,252.77,578Zm.48,3.93h1.8V595.1h-1.8Zm4.9,6.31c0-4.38,2.62-6.66,6.52-6.66s6.53,2.28,6.53,6.66v6.9h-1.79v-6.9c0-3.26-1.87-5-4.74-5s-4.73,1.74-4.73,5v6.9h-1.79Zm22.25.38a7.1,7.1,0,0,1,14.2,0v6.52h-1.66v-3.26a5.84,5.84,0,0,1-5.7,3.61A6.64,6.64,0,0,1,280.4,588.58Zm12.41-.08a5.3,5.3,0,1,0-5.3,5.29A5.09,5.09,0,0,0,292.81,588.5Zm11.52-.3c0-4.38,2.62-6.66,6.53-6.66s6.52,2.28,6.52,6.66v6.9h-1.79v-6.9c0-3.26-1.87-5-4.73-5s-4.74,1.74-4.74,5v6.9h-1.79Zm15.67.59v-6.9h1.79v6.9c0,3.24,1.88,5,4.74,5s4.73-1.76,4.73-5v-6.9h1.8v6.9c0,4.39-2.63,6.66-6.53,6.66S320,593.18,320,588.79Zm15.67,1.45v-13h1.8v4.68h7.78v1.63h-7.78v6.72c0,2.4,1.33,3.55,3.39,3.55s3.4-1.12,3.4-3.55v-.3H346v.3c0,3.47-2.09,5.21-5.14,5.21S335.67,593.71,335.67,590.24Zm12.12,1.15h1.82c.08,1.41,1.36,2.43,3.58,2.43s3.58-1.07,3.58-2.49c0-1.6-1.68-1.79-3.58-2-2.38-.29-5.08-.67-5.08-3.58,0-2.49,1.95-4.18,5.05-4.18s5,1.71,5.06,4h-1.77c-.08-1.31-1.28-2.33-3.31-2.33s-3.24,1-3.24,2.38c0,1.64,1.71,1.82,3.58,2.06,2.06.27,5.11.59,5.11,3.59,0,2.51-2.11,4.25-5.4,4.25S347.87,593.71,347.79,591.39Zm13.4-15.28H363v8.35a5.23,5.23,0,0,1,5-2.92c3.53,0,6.26,2.14,6.26,6.66v6.9h-1.79v-6.9c0-3.26-1.88-5-4.74-5S363,585,363,588.2v6.9h-1.79Zm15.13,12.39a7.09,7.09,0,0,1,14.18,0v.59H378.17a5,5,0,0,0,5.27,4.7,4.9,4.9,0,0,0,4.54-2.38h2a7.17,7.17,0,0,1-13.62-2.91Zm12.31-1a5.3,5.3,0,0,0-10.41,0Zm4.46-11.37h1.79v19h-1.79Zm5.43,0h1.79v19h-1.79Zm5.45,8.11a1.34,1.34,0,0,1,1.37-1.37,1.37,1.37,0,1,1-1.37,1.37Zm0,9.87a1.34,1.34,0,0,1,1.37-1.37,1.37,1.37,0,1,1-1.37,1.37Z"/><g id="_07" data-name="07"><g class="cls-123"><path class="cls-124" d="M439.15,617a3.6,3.6,0,1,1,3.6-3.6A3.6,3.6,0,0,1,439.15,617Zm-12.73-3.6a3.6,3.6,0,1,0-3.6,3.6A3.6,3.6,0,0,0,426.42,613.35Zm-11.27,0a3.6,3.6,0,1,0-3.6,3.6A3.6,3.6,0,0,0,415.15,613.35Zm-11.28,0a3.6,3.6,0,1,0-3.6,3.6A3.6,3.6,0,0,0,403.87,613.35Zm-11.27,0A3.6,3.6,0,1,0,389,617,3.6,3.6,0,0,0,392.6,613.35Zm-11.28,0a3.6,3.6,0,1,0-3.6,3.6A3.6,3.6,0,0,0,381.32,613.34Zm-11.27,0a3.6,3.6,0,1,0-3.6,3.6A3.6,3.6,0,0,0,370.05,613.34Zm65.5,7.21a3.6,3.6,0,1,0-3.6,3.6A3.6,3.6,0,0,0,435.55,620.55Zm-7.2,7.2a3.6,3.6,0,1,0-3.6,3.6A3.6,3.6,0,0,0,428.35,627.75Zm3.6-25.2a3.6,3.6,0,1,0,3.6,3.6A3.6,3.6,0,0,0,432,602.55Zm-7.2-7.2a3.6,3.6,0,1,0,3.6,3.6A3.6,3.6,0,0,0,424.75,595.35Z"/></g></g><path d="M939.34,415v-8.54h2V415c0,2,1.12,2.92,2.6,2.92s2.6-1,2.6-2.92v-8.54h2V415c0,2,1.1,2.92,2.6,2.92s2.6-.92,2.6-2.92v-8.54h2V415a4.49,4.49,0,0,1-2.23,4.3,4.91,4.91,0,0,1-2.26.5,4.57,4.57,0,0,1-2.19-.51,3.9,3.9,0,0,1-1.59-1.67,3.73,3.73,0,0,1-1.65,1.7,5,5,0,0,1-5-.39A4.67,4.67,0,0,1,939.34,415Z"/><path d="M957.48,414.58a5.3,5.3,0,0,1,10.6,0v.7h-8.6A3.14,3.14,0,0,0,962.8,418a3,3,0,0,0,2.76-1.26h2.1a5.36,5.36,0,0,1-10.18-2.18Zm8.6-1a3.17,3.17,0,0,0-3.28-2.44,3.13,3.13,0,0,0-3.26,2.44Z"/><path d="M974.92,420.7h1.94a3,3,0,0,0,3.06,1.65c2,0,3.36-1,3.36-3.55v-1.14a4.06,4.06,0,0,1-3.72,2,4.86,4.86,0,0,1-5-5.12,5.07,5.07,0,0,1,5.32-5.2,5,5,0,0,1,5.28,5.28v4.06c0,3.8-2.32,5.29-5.24,5.29C977.5,424,975.6,423,974.92,420.7Zm8.36-6.12a3.4,3.4,0,1,0-6.8,0,3.4,3.4,0,0,0,6.8,0Z"/><path d="M986.72,414.58a5.32,5.32,0,1,1,5.32,5.2A5.07,5.07,0,0,1,986.72,414.58Zm8.72,0A3.4,3.4,0,1,0,992,418,3.27,3.27,0,0,0,995.44,414.58Z"/><path d="M1004.6,405.32h1.9v14.2h-1.9Z"/><path d="M1008.8,406.74a1.32,1.32,0,0,1,2.64,0,1.32,1.32,0,1,1-2.64,0Zm.38,2.9h1.9v9.88h-1.9Z"/><path d="M1012.78,409.64h2.08l3.22,8.18,3.22-8.18h2l-4.12,9.88h-2.3Z"/><path d="M1023.82,414.58a5.3,5.3,0,0,1,10.6,0v.7h-8.6a3.14,3.14,0,0,0,3.32,2.74,3,3,0,0,0,2.76-1.26h2.1a5.36,5.36,0,0,1-10.18-2.18Zm8.6-1a3.17,3.17,0,0,0-3.28-2.44,3.13,3.13,0,0,0-3.26,2.44Z"/><path d="M1035.78,418.46a1.32,1.32,0,1,1,1.32,1.32A1.28,1.28,0,0,1,1035.78,418.46Z"/></svg>