<?xml version="1.0" encoding="UTF-8" standalone="no"?>
<!-- Generator: Adobe Illustrator 25.2.3, SVG Export Plug-In . SVG Version: 6.00 Build 0)  -->

<svg
   version="1.1"
   id="Logo"
   x="0px"
   y="0px"
   viewBox="0 0 868.47003 312.50998"
   xml:space="preserve"
   sodipodi:docname="SEER_LOGO_WHITE.svg"
   inkscape:version="1.1 (c68e22c387, 2021-05-23)"
   width="868.47003"
   height="312.50998"
   xmlns:inkscape="http://www.inkscape.org/namespaces/inkscape"
   xmlns:sodipodi="http://sodipodi.sourceforge.net/DTD/sodipodi-0.dtd"
   xmlns="http://www.w3.org/2000/svg"
   xmlns:svg="http://www.w3.org/2000/svg"><defs
   id="defs95"><linearGradient
     id="linearGradient978"
     gradientUnits="userSpaceOnUse"
     x1="553.67938"
     y1="468.36319"
     x2="1487.6794"
     y2="1276.3632"><stop
       offset="0"
       style="stop-color:#2F87C3"
       id="stop62-4" /><stop
       offset="1"
       style="stop-color:#0E445D"
       id="stop64-1" /></linearGradient><linearGradient
     id="linearGradient982"
     gradientUnits="userSpaceOnUse"
     x1="482.92709"
     y1="550.14862"
     x2="1416.9271"
     y2="1358.1487"><stop
       offset="0"
       style="stop-color:#2F87C3"
       id="stop76-5" /><stop
       offset="1"
       style="stop-color:#0E445D"
       id="stop78-8" /></linearGradient><linearGradient
     id="linearGradient986"
     gradientUnits="userSpaceOnUse"
     x1="388.65091"
     y1="659.12628"
     x2="1322.6509"
     y2="1467.1263"><stop
       offset="0"
       style="stop-color:#2F87C3"
       id="stop69-9" /><stop
       offset="1"
       style="stop-color:#0E445D"
       id="stop71-4" /></linearGradient><linearGradient
     id="linearGradient990"
     gradientUnits="userSpaceOnUse"
     x1="273.58099"
     y1="792.14032"
     x2="1207.5811"
     y2="1600.1403"><stop
       offset="0"
       style="stop-color:#2F87C3"
       id="stop55-0" /><stop
       offset="1"
       style="stop-color:#0E445D"
       id="stop57-9" /></linearGradient></defs><sodipodi:namedview
   id="namedview93"
   pagecolor="#ffffff"
   bordercolor="#999999"
   borderopacity="1"
   inkscape:pageshadow="0"
   inkscape:pageopacity="0"
   inkscape:pagecheckerboard="0"
   showgrid="false"
   inkscape:zoom="0.53622264"
   inkscape:cx="207.93602"
   inkscape:cy="187.42215"
   inkscape:window-width="1920"
   inkscape:window-height="1001"
   inkscape:window-x="-9"
   inkscape:window-y="-9"
   inkscape:window-maximized="1"
   inkscape:current-layer="g90"
   fit-margin-top="0"
   fit-margin-left="0"
   fit-margin-right="0"
   fit-margin-bottom="0" />
<style
   type="text/css"
   id="style2">
	.st0{fill:url(#SVGID_1_);}
	.st1{fill:url(#SVGID_2_);}
	.st2{opacity:0.15;fill:#FFFFFF;}
	.st3{fill:url(#SVGID_3_);}
	.st4{fill:url(#SVGID_4_);}
	.st5{fill:url(#SVGID_5_);}
	.st6{fill:url(#SVGID_6_);}
	.st7{fill:url(#SVGID_7_);}
	.st8{fill:url(#SVGID_8_);}
	.st9{fill:url(#SVGID_9_);}
	.st10{fill:url(#SVGID_10_);}
	.st11{fill:url(#SVGID_11_);}
	.st12{fill:url(#SVGID_12_);}
</style>
<g
   id="g90"
   transform="translate(-557.41337,-774.73401)">
	<linearGradient
   id="SVGID_1_"
   gradientUnits="userSpaceOnUse"
   x1="296.8049"
   y1="746.62958"
   x2="1656.79"
   y2="1164.766">
		<stop
   offset="0.0112"
   style="stop-color:#7CD6FB"
   id="stop4" />
		<stop
   offset="1"
   style="stop-color:#098DC9"
   id="stop6" />
	</linearGradient>
	
	
		<radialGradient
   id="SVGID_2_"
   cx="946.77063"
   cy="946.46582"
   r="779.0564"
   fx="687.26868"
   fy="698.54279"
   gradientUnits="userSpaceOnUse">
		<stop
   offset="0.0112"
   style="stop-color:#A0F4EC"
   id="stop11" />
		<stop
   offset="1"
   style="stop-color:#22BBFF"
   id="stop13" />
	</radialGradient>
	
	
	<linearGradient
   id="SVGID_3_"
   gradientUnits="userSpaceOnUse"
   x1="429.49341"
   y1="611.91492"
   x2="1363.4934"
   y2="1419.9148">
		<stop
   offset="0"
   style="stop-color:#2F87C3"
   id="stop20" />
		<stop
   offset="1"
   style="stop-color:#0E445D"
   id="stop22" />
	</linearGradient>
	
	<linearGradient
   id="SVGID_4_"
   gradientUnits="userSpaceOnUse"
   x1="516.19891"
   y1="511.68839"
   x2="1450.1989"
   y2="1319.6885">
		<stop
   offset="0"
   style="stop-color:#2F87C3"
   id="stop27" />
		<stop
   offset="1"
   style="stop-color:#0E445D"
   id="stop29" />
	</linearGradient>
	
	<linearGradient
   id="SVGID_5_"
   gradientUnits="userSpaceOnUse"
   x1="592.216"
   y1="423.8172"
   x2="1526.2159"
   y2="1231.8171">
		<stop
   offset="0"
   style="stop-color:#2F87C3"
   id="stop34" />
		<stop
   offset="1"
   style="stop-color:#0E445D"
   id="stop36" />
	</linearGradient>
	
	<linearGradient
   id="SVGID_6_"
   gradientUnits="userSpaceOnUse"
   x1="686.79999"
   y1="314.4837"
   x2="1620.8"
   y2="1122.4836">
		<stop
   offset="0"
   style="stop-color:#2F87C3"
   id="stop41" />
		<stop
   offset="1"
   style="stop-color:#0E445D"
   id="stop43" />
	</linearGradient>
	
	<linearGradient
   id="SVGID_7_"
   gradientUnits="userSpaceOnUse"
   x1="774.7749"
   y1="212.7899"
   x2="1708.7749"
   y2="1020.7899">
		<stop
   offset="0"
   style="stop-color:#2F87C3"
   id="stop48" />
		<stop
   offset="1"
   style="stop-color:#0E445D"
   id="stop50" />
	</linearGradient>
	
	<linearGradient
   id="SVGID_8_"
   gradientUnits="userSpaceOnUse"
   x1="273.58099"
   y1="792.14032"
   x2="1207.5811"
   y2="1600.1403">
		<stop
   offset="0"
   style="stop-color:#2F87C3"
   id="stop55" />
		<stop
   offset="1"
   style="stop-color:#0E445D"
   id="stop57" />
	</linearGradient>
	
	<linearGradient
   id="SVGID_9_"
   gradientUnits="userSpaceOnUse"
   x1="553.67938"
   y1="468.36319"
   x2="1487.6794"
   y2="1276.3632">
		<stop
   offset="0"
   style="stop-color:#2F87C3"
   id="stop62" />
		<stop
   offset="1"
   style="stop-color:#0E445D"
   id="stop64" />
	</linearGradient>
	
	<linearGradient
   id="SVGID_10_"
   gradientUnits="userSpaceOnUse"
   x1="388.65091"
   y1="659.12628"
   x2="1322.6509"
   y2="1467.1263">
		<stop
   offset="0"
   style="stop-color:#2F87C3"
   id="stop69" />
		<stop
   offset="1"
   style="stop-color:#0E445D"
   id="stop71" />
	</linearGradient>
	
	<linearGradient
   id="SVGID_11_"
   gradientUnits="userSpaceOnUse"
   x1="482.92709"
   y1="550.14862"
   x2="1416.9271"
   y2="1358.1487">
		<stop
   offset="0"
   style="stop-color:#2F87C3"
   id="stop76" />
		<stop
   offset="1"
   style="stop-color:#0E445D"
   id="stop78" />
	</linearGradient>
	<path
   class="st8"
   d="m 651.40337,925.31399 c -39.04,-5.69 -76.94,-10.61 -76.94,-52.30998 0,-39.41 29.19,-61.39 72.4,-61.39 42.44,0 71.25,21.23 72.39,59.13 h 10.61 c -1.14,-41.32 -33.73,-68.6 -83,-68.6 -50.04,0 -83.01,28.43 -83.01,70.87 0,49.64998 42.84,55.72998 84.15,61.78996 39.04,5.69 76.94,10.61 76.94,52.3 0,39.42003 -31.09,63.30003 -78.46,63.30003 -46.62,0 -77.32,-23.12 -78.46,-63.30003 h -10.61 c 1.14,45.48003 36.01,72.77003 89.08,72.77003 53.82,0 89.08,-28.04 89.08,-72.77003 -0.02,-49.67 -42.86,-55.72998 -84.17,-61.78998 z"
   id="path60-7"
   style="fill:#ffffff" /><path
   class="st9"
   d="m 1416.8034,879.82399 c 0,-41.68998 -23.87,-72.76998 -78.83,-72.76998 h -114.09 V 1054.934 h 10.61 V 952.98397 h 97.41 l 80.34,101.95003 h 13.64 l -80.72,-101.95003 c 49.66,-2.66 71.64,-33.35998 71.64,-73.15998 z m -182.3,63.67998 V 816.53401 h 103.47 c 49.27,0 68.22,27.29 68.22,63.29998 0,36.01 -18.57,63.67998 -68.22,63.67998 h -103.47 z"
   id="path67-0"
   style="fill:#ffffff" /><path
   class="st10"
   d="m 829.99337,906.56399 59.12,-59.12998 c 6.91,5.42 15.61,8.66 25.07,8.66 22.47,0 40.68,-18.21 40.68,-40.68 0,-22.47 -18.21,-40.68 -40.68,-40.68 -22.47,0 -40.68,18.21 -40.68,40.68 0,9.46 3.24,18.16 8.66,25.07 l -59.12,59.12998 c -6.91,-5.42 -15.61,-8.66 -25.08,-8.66 -22.47,0 -40.68,18.21 -40.68,40.67998 0,22.47 18.21,40.68 40.68,40.68 9.46,0 18.16,-3.24 25.07,-8.66 l 57.84,57.84003 c -5.42,6.91 -8.66,15.61 -8.66,25.07 0,22.47 18.21,40.68 40.68,40.68 22.47,0 40.68,-18.21 40.68,-40.68 0,-22.47 -18.21,-40.68 -40.68,-40.68 -9.46,0 -18.16,3.24 -25.07,8.66 l -57.84,-57.84003 c 4.46,-5.69 7.44,-12.6 8.35,-20.15 h 50.08 c 2.3,12.14 12.96,21.32 25.77,21.32 14.49,0 26.23,-11.75 26.23,-26.23 0,-14.47998 -11.75,-26.22998 -26.23,-26.22998 -12.81,0 -23.47,9.18 -25.77,21.32 h -50.08 c -0.9,-7.56 -3.88,-14.47 -8.34,-20.17 z"
   id="path74-4"
   style="fill:#ffffff" /><path
   class="st11"
   d="m 1050.2334,906.56399 59.12,-59.12998 c 6.91,5.42 15.61,8.66 25.07,8.66 22.47,0 40.68,-18.21 40.68,-40.68 0,-22.47 -18.21,-40.68 -40.68,-40.68 -22.47,0 -40.68,18.21 -40.68,40.68 0,9.46 3.24,18.16 8.66,25.07 l -59.12,59.12998 c -6.91,-5.42 -15.61,-8.66 -25.07,-8.66 -22.47003,0 -40.68003,18.21 -40.68003,40.67998 0,22.47 18.21,40.68 40.68003,40.68 9.46,0 18.16,-3.24 25.07,-8.66 l 57.84,57.84003 c -5.42,6.91 -8.66,15.61 -8.66,25.07 0,22.47 18.21,40.68 40.68,40.68 22.47,0 40.68,-18.21 40.68,-40.68 0,-22.47 -18.21,-40.68 -40.68,-40.68 -9.46,0 -18.16,3.24 -25.07,8.66 l -57.84,-57.84003 c 4.46,-5.69 7.44,-12.6 8.35,-20.15 h 50.08 c 2.3,12.14 12.96,21.32 25.77,21.32 14.49,0 26.23,-11.75 26.23,-26.23 0,-14.47998 -11.75,-26.22998 -26.23,-26.22998 -12.81,0 -23.47,9.18 -25.77,21.32 h -50.08 c -0.9,-7.56 -3.88,-14.47 -8.35,-20.17 z"
   id="path81-7"
   style="fill:#ffffff" />
	<linearGradient
   id="SVGID_12_"
   gradientUnits="userSpaceOnUse"
   x1="532.76617"
   y1="492.5376"
   x2="1466.7661"
   y2="1300.5376">
		<stop
   offset="0"
   style="stop-color:#2F87C3"
   id="stop83" />
		<stop
   offset="1"
   style="stop-color:#0E445D"
   id="stop85" />
	</linearGradient>
	
</g>
</svg>
