<?xml version="1.0" encoding="utf-8"?>
<!-- Generator: Adobe Illustrator 24.0.1, SVG Export Plug-In . SVG Version: 6.00 Build 0)  -->
<svg version="1.1" id="SeerCycle" xmlns="http://www.w3.org/2000/svg" xmlns:xlink="http://www.w3.org/1999/xlink" x="0px" y="0px"
	 viewBox="0 0 529.4 839.5" style="enable-background:new 0 0 529.4 839.5;" xml:space="preserve">
<style type="text/css">
	.st0{fill:url(#SVGID_1_);}
	.st1{fill:url(#SVGID_2_);}
	.st2{fill:url(#SVGID_3_);}
	.st3{fill:#FFFFFF;}
	.st4{fill:url(#SVGID_4_);}
	.st5{fill:url(#SVGID_5_);}
</style>
<linearGradient id="SVGID_1_" gradientUnits="userSpaceOnUse" x1="494.0565" y1="813.712" x2="113.5366" y2="164.262" gradientTransform="matrix(1 0 0 -1 0 842)">
	<stop  offset="1.000000e-02" style="stop-color:#35435F"/>
	<stop  offset="1" style="stop-color:#000000"/>
</linearGradient>
<rect class="st0" width="529.4" height="839.5"/>
<linearGradient id="SVGID_2_" gradientUnits="userSpaceOnUse" x1="1.5966" y1="300.7983" x2="620.0366" y2="819.7283" gradientTransform="matrix(1 0 0 -1 0 842)">
	<stop  offset="4.000000e-02" style="stop-color:#44CCF9"/>
	<stop  offset="0.12" style="stop-color:#48C4EF"/>
	<stop  offset="0.25" style="stop-color:#53AED4"/>
	<stop  offset="0.42" style="stop-color:#648BA9"/>
	<stop  offset="0.63" style="stop-color:#7C596D"/>
	<stop  offset="0.85" style="stop-color:#9B1B21"/>
	<stop  offset="0.95" style="stop-color:#A80000"/>
</linearGradient>
<path class="st1" d="M65.2,327.1c0-7.8,4.8-11.6,11-11.6c4.5,0,8,2.1,9.7,6.1c1.7-4,5.2-6.1,9.7-6.1c6.2,0,11,3.9,11,11.6v21.7h-3.6
	v-21.7c0-5.5-3.3-8.4-7.6-8.4s-7.6,3-7.6,8.4v21.7H84v-21.7c0-5.4-3.2-8.4-7.6-8.4s-7.6,2.8-7.6,8.4v21.7h-3.6L65.2,327.1z
	 M112.3,316.1h24v3.3h-20.4v11.1h17.5v3.3h-17.5v11.6h20.4v3.3h-24L112.3,316.1z M151.1,319.4H140v-3.3h25.8v3.3h-11.1v29.4h-3.6
	L151.1,319.4z M170.5,316.1h3.6v14.5h21.2v-14.5h3.6v32.7h-3.6v-15h-21.2v15h-3.6V316.1z M203.9,332.4c0-9.8,7.2-17,17.4-17
	s17.4,7.2,17.4,17s-7.2,17-17.4,17S203.9,342.2,203.9,332.4z M235.1,332.4c0-7.9-5.6-13.7-13.8-13.7s-13.8,5.8-13.8,13.7
	s5.6,13.7,13.8,13.7S235.1,340.3,235.1,332.4z M243.8,316.1h11.7c11.3,0,17.3,6.5,17.3,16.4s-6,16.4-17.4,16.4h-11.7L243.8,316.1z
	 M255.5,345.5c9.2,0,13.7-5.2,13.7-13s-4.5-13-13.8-13h-8.1v26.1L255.5,345.5z M276.2,332.5c0-9.8,7.2-17,17.4-17s17.4,7.2,17.4,17
	s-7.2,17-17.4,17S276.2,342.2,276.2,332.5L276.2,332.5z M307.4,332.5c0-7.9-5.6-13.7-13.8-13.7s-13.8,5.8-13.8,13.7
	s5.6,13.7,13.8,13.7S307.4,340.3,307.4,332.5L307.4,332.5z M316.1,316.1h3.6v29.4h19.8v3.3h-23.4V316.1z M340.4,332.5
	c0-9.8,7.2-17,17.4-17s17.4,7.2,17.4,17s-7.2,17-17.4,17S340.4,342.2,340.4,332.5L340.4,332.5z M371.6,332.5
	c0-7.9-5.6-13.7-13.8-13.7s-13.8,5.8-13.8,13.7s5.6,13.7,13.8,13.7S371.6,340.3,371.6,332.5L371.6,332.5z M378.6,332.5
	c0-9.8,7.2-17,17.4-17c7.9,0,14.1,4.4,16.4,10.9h-4c-2.1-4.6-6.6-7.6-12.5-7.6c-8.1,0-13.8,5.8-13.8,13.7s5.6,13.7,13.8,13.7
	c7.1,0,12.3-4,13.5-10.5h-15.6v-3.3h19.4v1.6c-0.8,9-7.7,15.4-17.4,15.4C385.8,349.4,378.6,342.2,378.6,332.5L378.6,332.5z
	 M426.2,334.5l-13.5-18.4h4.4l11,15.4l10.9-15.4h4.3l-13.4,18.3v14.4h-3.6L426.2,334.5z"/>
<linearGradient id="SVGID_3_" gradientUnits="userSpaceOnUse" x1="-130.779" y1="655.7117" x2="790.271" y2="579.8718" gradientTransform="matrix(1 0 0 -1 0 842)">
	<stop  offset="4.000000e-02" style="stop-color:#44CCF9"/>
	<stop  offset="0.12" style="stop-color:#48C4EF"/>
	<stop  offset="0.25" style="stop-color:#53AED4"/>
	<stop  offset="0.42" style="stop-color:#648BA9"/>
	<stop  offset="0.63" style="stop-color:#7C596D"/>
	<stop  offset="0.85" style="stop-color:#9B1B21"/>
	<stop  offset="0.95" style="stop-color:#A80000"/>
</linearGradient>
<path class="st2" d="M107.4,198.1c-16.4-2.4-32.3-4.4-32.3-21.9c0-16.5,12.2-25.7,30.3-25.7c17.8,0,29.9,8.9,30.3,24.8h4.4
	c-0.5-17.3-14.1-28.8-34.8-28.8c-21,0-34.8,11.9-34.8,29.7c0,20.8,18,23.4,35.3,25.9c16.4,2.4,32.3,4.4,32.3,21.9
	c0,16.5-13,26.5-32.9,26.5c-19.6,0-32.4-9.7-32.9-26.5H68c0.5,19.1,15.1,30.5,37.3,30.5c22.6,0,37.3-11.8,37.3-30.5
	C142.7,203.2,124.8,200.6,107.4,198.1z M398.2,209.7l33.8,42.7h-5.7l-33.7-42.7h-40.8v42.7h-4.5V148.5h47.8c23,0,33,13,33,30.5
	C428.3,195.7,419,208.6,398.2,209.7L398.2,209.7z M395.2,205.7c20.8,0,28.6-11.6,28.6-26.7s-8-26.5-28.6-26.5h-43.4v53.2H395.2z
	 M182.3,190.3l24.8-24.8c7.4,5.8,18.1,4.4,23.9-3c5.8-7.4,4.4-18.1-3-23.9c-7.4-5.8-18.1-4.4-23.9,3c-4.8,6.2-4.8,14.8,0,20.9
	l-24.8,24.8c-7.4-5.8-18.1-4.5-24,2.9c-5.8,7.4-4.5,18.1,2.9,24c6.2,4.8,14.9,4.8,21.1,0l24.2,24.2c-5.8,7.4-4.6,18.2,2.9,24.1
	c7.4,5.8,18.2,4.6,24.1-2.9c5.8-7.4,4.6-18.2-2.9-24.1c-6.2-4.9-14.9-4.9-21.1,0l-24.3-24.3c1.9-2.4,3.1-5.4,3.5-8.4h21
	c1.1,6,6.9,9.9,12.9,8.7s9.9-6.9,8.7-12.9c-1.1-6-6.9-9.9-12.9-8.7c-4.4,0.8-7.9,4.3-8.7,8.7h-21
	C185.4,195.6,184.2,192.7,182.3,190.3z M274.6,190.3l24.8-24.8c7.4,5.8,18.1,4.5,24-2.9s4.5-18.1-2.9-24c-7.4-5.8-18.1-4.5-24,2.9
	c-4.8,6.2-4.8,14.9,0,21l-24.8,24.8c-7.4-5.8-18.1-4.5-24,2.9c-5.8,7.4-4.5,18.1,2.9,24c6.2,4.8,14.9,4.8,21.1,0l24.2,24.2
	c-5.8,7.4-4.5,18.1,2.9,24s18.1,4.5,24-2.9c5.8-7.4,4.5-18.1-2.9-24c-6.2-4.8-14.9-4.8-21,0l-24.2-24.2c1.9-2.4,3.1-5.4,3.5-8.4h21
	c1.1,6,6.9,9.9,12.9,8.7s9.9-6.9,8.7-12.9s-6.9-9.9-12.9-8.7c-4.4,0.8-7.9,4.3-8.7,8.7h-21C277.7,195.6,276.5,192.7,274.6,190.3z
	 M62.8,286.5v3.4h374.6v-3.4H62.8z"/>
<path class="st3" d="M71.3,413c0-3.4,2-5.6,5.6-5.6s5.7,2.2,5.7,5.6v7.7h-1.4v-4.4h-8.5v4.4h-1.4V413z M81.2,415v-2
	c0-2.6-1.4-4.3-4.2-4.3s-4.2,1.6-4.2,4.3v2H81.2z"/>
<path class="st3" d="M84.7,417.1v-9.7H86v3.5h5.8v1.2H86v5c0,1.4,1.1,2.5,2.5,2.5s2.5-1.1,2.5-2.5v-0.2h1.3v0.2
	c0,2.1-1.7,3.9-3.9,3.9S84.7,419.1,84.7,417.1L84.7,417.1z"/>
<path class="st3" d="M99.1,417h1.4c0.1,1.7,1.3,2.6,3.4,2.6s3.4-1,3.4-2.6s-1.7-2-3.4-2.3c-2.1-0.3-4.4-0.7-4.4-3.5
	c0-2.3,1.8-3.9,4.5-3.9s4.4,1.5,4.5,3.8H107c-0.1-1.5-1.2-2.5-3.1-2.5s-3.1,1-3.1,2.5s1.6,2,3.4,2.2c2.1,0.3,4.4,0.7,4.4,3.5
	c0,2.4-1.9,4-4.8,4S99.1,419.5,99.1,417z"/>
<path class="st3" d="M109.9,415.8c0-2.9,2.4-5.3,5.3-5.3c2.9,0,5.3,2.4,5.3,5.3v0.4h-9.2c0.1,2.1,1.9,3.6,3.9,3.5
	c1.4,0.1,2.7-0.6,3.4-1.8h1.5c-1.3,2.7-4.5,3.8-7.2,2.5C111.2,419.6,110,417.8,109.9,415.8z M119.1,415c-0.5-2.1-2.7-3.5-4.8-3
	c-1.5,0.4-2.6,1.5-3,3H119.1z"/>
<path class="st3" d="M121.7,415.8c0-2.9,2.4-5.3,5.3-5.3s5.3,2.4,5.3,5.3v0.4h-9.2c0.1,2.1,1.9,3.6,3.9,3.5c1.4,0.1,2.7-0.6,3.4-1.8
	h1.5c-1.3,2.7-4.5,3.8-7.2,2.5C122.9,419.6,121.7,417.8,121.7,415.8z M130.9,415c-0.5-2.1-2.7-3.5-4.8-3c-1.5,0.4-2.6,1.5-3,3H130.9
	z"/>
<path class="st3" d="M133.9,414.8c0-2.8,1.7-4.2,4.2-4.2s4.1,1.4,4.1,4.2v0.1h-1.3v-0.1c0-2.1-1.1-3-2.8-3s-2.8,0.9-2.8,3v5.9h-1.3
	L133.9,414.8z"/>
<path class="st3" d="M148.8,416.6v-5.8h1.3v5.8c0,2.1,1.2,3.1,2.8,3.1s2.8-1.1,2.8-3.1v-5.8h1.3v5.8c0,2.1,1.2,3.1,2.8,3.1
	s2.8-1,2.8-3.1v-5.8h1.3v5.8c0,2.9-1.7,4.4-4,4.4c-1.5,0.1-3-0.8-3.6-2.2c-0.6,1.4-2,2.3-3.6,2.2C150.5,421,148.8,419.5,148.8,416.6
	z"/>
<path class="st3" d="M165.5,415.8c0-2.9,2.4-5.3,5.3-5.3s5.3,2.4,5.3,5.3v0.4h-9.2c0.1,2.1,1.9,3.6,3.9,3.5c1.4,0.1,2.7-0.6,3.4-1.8
	h1.5c-1.3,2.7-4.5,3.8-7.2,2.5C166.7,419.6,165.5,417.8,165.5,415.8z M174.7,415c-0.5-2.1-2.7-3.5-4.8-3c-1.5,0.4-2.6,1.5-3,3H174.7
	z"/>
<path class="st3" d="M183,416v-5.2h1.3v5.2c0,2.4,1.4,3.7,3.5,3.7s3.5-1.3,3.5-3.7v-5.2h1.3v5.2c0,3.3-2,5-4.9,5S183,419.3,183,416z
	"/>
<path class="st3" d="M194.7,415.5c0-3.3,2-5,4.9-5s4.9,1.7,4.9,5v5.2h-1.3v-5.2c0-2.4-1.4-3.7-3.5-3.7s-3.5,1.3-3.5,3.7v5.2h-1.3
	L194.7,415.5z"/>
<path class="st3" d="M206,415.7c-0.1-2.8,2.1-5.1,4.8-5.2c0.1,0,0.2,0,0.3,0c1.7-0.1,3.4,0.8,4.2,2.4v-6.4h1.3v9.2
	c0.1,2.8-2,5.1-4.7,5.3c-0.2,0-0.4,0-0.6,0c-2.8,0.1-5.2-2-5.3-4.8C206,416,206,415.9,206,415.7z M215.3,415.7c0-2.2-1.8-4-4-4
	s-4,1.8-4,4s1.8,4,4,4c2.1,0.1,3.9-1.5,4-3.6C215.3,416,215.3,415.9,215.3,415.7L215.3,415.7z"/>
<path class="st3" d="M218.2,415.8c0-2.9,2.4-5.3,5.3-5.3s5.3,2.4,5.3,5.3v0.4h-9.2c0.1,2.1,1.9,3.6,3.9,3.5c1.4,0.1,2.7-0.6,3.4-1.8
	h1.5c-1.3,2.7-4.5,3.8-7.2,2.5C219.4,419.6,218.2,417.8,218.2,415.8L218.2,415.8z M227.4,415c-0.5-2.1-2.7-3.5-4.8-3
	c-1.5,0.4-2.6,1.5-3,3H227.4z"/>
<path class="st3" d="M230.3,414.8c0-2.8,1.7-4.2,4.2-4.2s4.1,1.4,4.1,4.2v0.1h-1.3v-0.1c0-2.1-1.1-3-2.8-3s-2.8,0.9-2.8,3v5.9h-1.4
	L230.3,414.8z"/>
<path class="st3" d="M239.5,417.9h1.4c0.1,1.1,1,1.8,2.7,1.8s2.7-0.8,2.7-1.9s-1.3-1.3-2.7-1.5c-1.8-0.2-3.8-0.5-3.8-2.7
	c0-1.9,1.5-3.1,3.8-3.1s3.7,1.3,3.8,3H246c-0.1-1-1-1.7-2.5-1.7s-2.4,0.8-2.4,1.8c0,1.2,1.3,1.4,2.7,1.5s3.8,0.4,3.8,2.7
	c0,1.9-1.6,3.2-4,3.2S239.6,419.7,239.5,417.9z"/>
<path class="st3" d="M249.2,417.1v-9.7h1.3v3.5h5.8v1.2h-5.8v5c-0.1,1.4,1,2.6,2.4,2.7s2.6-1,2.7-2.4c0-0.1,0-0.2,0-0.3v-0.2h1.4
	v0.2c0.1,2.1-1.5,4-3.7,4.1c-2.1,0.1-4-1.5-4.1-3.7C249.3,417.3,249.3,417.1,249.2,417.1L249.2,417.1z"/>
<path class="st3" d="M258.2,415.8c0.1-2.9,2.6-5.2,5.5-5.1c2.8,0.1,5,2.3,5.1,5.1v4.9h-1.2v-2.4c-0.7,1.7-2.4,2.8-4.3,2.7
	c-2.8,0.1-5.1-2.1-5.1-4.9C258.2,416,258.2,415.9,258.2,415.8z M267.5,415.8c0-2.2-1.8-4-4-4s-4,1.8-4,4s1.8,4,4,4
	c2.1,0.1,3.9-1.5,4-3.6C267.5,416,267.5,415.9,267.5,415.8z"/>
<path class="st3" d="M270.8,415.5c0-3.3,2-5,4.9-5s4.9,1.7,4.9,5v5.2h-1.3v-5.2c0-2.4-1.4-3.7-3.5-3.7s-3.5,1.3-3.5,3.7v5.2h-1.3
	V415.5z"/>
<path class="st3" d="M282.1,415.7c-0.1-2.8,2.1-5.1,4.8-5.2c0.1,0,0.2,0,0.3,0c1.7-0.1,3.4,0.8,4.2,2.4v-6.4h1.3v9.2
	c0.1,2.8-2,5.1-4.7,5.3c-0.2,0-0.4,0-0.6,0c-2.8,0.1-5.2-2-5.3-4.8C282.1,416,282.1,415.9,282.1,415.7z M291.4,415.7
	c0-2.2-1.8-4-4-4s-4,1.8-4,4s1.8,4,4,4c2.1,0.1,3.9-1.5,4-3.6C291.4,416,291.4,415.9,291.4,415.7L291.4,415.7z"/>
<path class="st3" d="M299.6,415.8c0.1-2.9,2.6-5.2,5.5-5.1c2.8,0.1,5,2.3,5.1,5.1v0.4H301c0.1,2.1,1.9,3.6,3.9,3.5
	c1.4,0.1,2.7-0.6,3.4-1.8h1.5c-1.3,2.7-4.5,3.8-7.2,2.5C300.8,419.5,299.7,417.7,299.6,415.8z M308.8,415c-0.5-2.2-2.7-3.5-4.8-3
	c-1.5,0.3-2.6,1.5-3,3H308.8z"/>
<path class="st3" d="M311.4,415.8c0.1-2.9,2.6-5.2,5.5-5.1c2.8,0.1,5,2.3,5.1,5.1v4.9h-1.2v-2.4c-0.7,1.7-2.4,2.8-4.3,2.7
	c-2.8,0.1-5.1-2.1-5.1-4.9C311.4,416,311.4,415.9,311.4,415.8z M320.7,415.8c0-2.2-1.8-4-4-4s-4,1.8-4,4s1.8,4,4,4
	c2.1,0.1,3.9-1.5,4-3.6C320.7,416,320.7,415.9,320.7,415.8z"/>
<path class="st3" d="M323.6,415.8c-0.1-2.8,2.1-5.1,4.9-5.2c0.1,0,0.3,0,0.4,0c2.4-0.1,4.5,1.4,5.1,3.7h-1.4c-0.8-2-3.2-3-5.2-2.2
	s-3,3.2-2.2,5.2s3.2,3,5.2,2.2c1-0.4,1.8-1.2,2.2-2.2h1.4c-0.6,2.3-2.7,3.8-5.1,3.7c-2.8,0.2-5.2-2-5.3-4.8
	C323.6,416,323.6,415.9,323.6,415.8z"/>
<path class="st3" d="M335.9,406.5h1.3v6.2c0.7-1.4,2.2-2.3,3.7-2.2c2.6,0,4.7,1.6,4.7,5v5.2h-1.3v-5.2c0-2.4-1.4-3.7-3.5-3.7
	s-3.5,1.3-3.5,3.7v5.2h-1.3V406.5z"/>
<path class="st3" d="M352.5,415.8c-0.1-2.8,2.1-5.1,4.9-5.2c0.1,0,0.3,0,0.4,0c2.3-0.1,4.5,1.4,5.1,3.7h-1.4c-0.8-2-3.2-3-5.2-2.2
	s-3,3.2-2.2,5.2s3.2,3,5.2,2.2c1-0.4,1.8-1.2,2.2-2.2h1.4c-0.6,2.3-2.7,3.8-5.1,3.7c-2.8,0.1-5.2-2-5.3-4.8
	C352.5,416,352.5,415.9,352.5,415.8z"/>
<path class="st3" d="M364.5,416v-5.2h1.3v5.2c0,2.4,1.4,3.7,3.5,3.7s3.5-1.3,3.5-3.7v-5.2h1.3v5.2c0,3.3-2,5-4.9,5
	S364.5,419.3,364.5,416z"/>
<path class="st3" d="M375.9,417.9h1.4c0.1,1.1,1,1.8,2.7,1.8s2.7-0.8,2.7-1.9s-1.3-1.3-2.7-1.5c-1.8-0.2-3.8-0.5-3.8-2.7
	c0-1.9,1.5-3.1,3.8-3.1s3.7,1.3,3.8,3h-1.3c-0.1-1-1-1.7-2.5-1.7s-2.4,0.8-2.4,1.8c0,1.2,1.3,1.4,2.7,1.5s3.8,0.4,3.8,2.7
	c0,1.9-1.6,3.2-4,3.2S376,419.7,375.9,417.9z"/>
<path class="st3" d="M385.6,417.1v-9.7h1.3v3.5h5.8v1.2h-5.8v5c0,1.4,1.1,2.5,2.5,2.5s2.5-1.1,2.5-2.5c0,0,0,0,0,0v-0.2h1.3v0.2
	c0,2.1-1.7,3.9-3.9,3.9C387.3,420.9,385.6,419.1,385.6,417.1L385.6,417.1z"/>
<path class="st3" d="M394.6,415.8c-0.1-2.9,2.3-5.4,5.2-5.4c2.9-0.1,5.4,2.3,5.4,5.2c0.1,2.9-2.3,5.4-5.2,5.4c0,0-0.1,0-0.1,0
	c-2.8,0.1-5.2-2-5.3-4.8C394.6,416,394.6,415.9,394.6,415.8z M403.9,415.8c0-2.2-1.8-4-4-4s-4,1.8-4,4s1.8,4,4,4
	c2.1,0.1,3.9-1.5,4-3.6C403.9,416,403.9,415.9,403.9,415.8z"/>
<path class="st3" d="M406.8,414.9c0-2.9,1.7-4.4,4-4.4c1.5-0.1,3,0.8,3.6,2.2c0.6-1.4,2-2.3,3.6-2.2c2.3,0,4,1.4,4,4.4v5.8h-1.4
	v-5.8c0-2.1-1.2-3.1-2.8-3.1s-2.8,1.1-2.8,3.1v5.8h-1.3v-5.8c0-2.1-1.2-3.1-2.8-3.1s-2.8,1-2.8,3.1v5.8h-1.3V414.9z"/>
<path class="st3" d="M423.5,415.8c0-2.9,2.4-5.3,5.3-5.3c2.9,0,5.3,2.4,5.3,5.3v0.4h-9.2c0.1,2.1,1.9,3.6,3.9,3.5
	c1.4,0.1,2.7-0.6,3.4-1.8h1.5c-1.3,2.7-4.5,3.8-7.2,2.5C424.7,419.6,423.5,417.8,423.5,415.8z M432.7,415c-0.5-2.1-2.7-3.5-4.8-3
	c-1.5,0.4-2.6,1.5-3,3H432.7z"/>
<path class="st3" d="M435.6,414.8c0-2.8,1.7-4.2,4.2-4.2s4.1,1.4,4.1,4.2v0.1h-1.3v-0.1c0-2.1-1.1-3-2.8-3s-2.8,0.9-2.8,3v5.9h-1.3
	V414.8z"/>
<path class="st3" d="M92.2,431.9c0-0.6,0.4-1,1-1s1,0.4,1,1s-0.4,1-1,1S92.2,432.4,92.2,431.9z M92.5,434.8h1.3v9.9h-1.3V434.8z"/>
<path class="st3" d="M95.9,441.9h1.4c0.1,1.1,1,1.8,2.7,1.8s2.7-0.8,2.7-1.9s-1.3-1.3-2.7-1.5c-1.8-0.2-3.8-0.5-3.8-2.7
	c0-1.9,1.5-3.1,3.8-3.1s3.7,1.3,3.8,3h-1.3c-0.1-1-1-1.7-2.5-1.7s-2.4,0.8-2.4,1.8c0,1.2,1.3,1.4,2.7,1.5s3.8,0.4,3.8,2.7
	c0,1.9-1.6,3.2-4,3.2S95.9,443.7,95.9,441.9z"/>
<path class="st3" d="M110.9,440v-5.2h1.3v5.2c0,2.4,1.4,3.7,3.5,3.7s3.5-1.3,3.5-3.7v-5.2h1.3v5.2c0,3.3-2,5-4.9,5
	S110.9,443.3,110.9,440z"/>
<path class="st3" d="M122.6,439.5c0-3.3,2-5,4.9-5c2.9,0,4.9,1.7,4.9,5v5.2H131v-5.2c0-2.4-1.4-3.7-3.5-3.7s-3.5,1.3-3.5,3.7v5.2
	h-1.3V439.5z"/>
<path class="st3" d="M134.3,431.9c0-0.6,0.4-1,1-1s1,0.4,1,1s-0.4,1-1,1S134.3,432.4,134.3,431.9z M134.7,434.8h1.3v9.9h-1.3V434.8z
	"/>
<path class="st3" d="M147.2,448.9v-6.3c-0.8,1.5-2.4,2.5-4.2,2.4c-2.8,0-5-2.2-5.1-4.9c0-0.1,0-0.2,0-0.2c-0.1-2.8,2.1-5.2,4.9-5.2
	c0.1,0,0.3,0,0.4,0c2.8-0.2,5.1,1.9,5.3,4.7c0,0.2,0,0.4,0,0.6v9.1H147.2z M147.2,439.8c0-2.2-1.8-4-4-4s-4,1.8-4,4s1.8,4,4,4
	c2.1,0.1,3.9-1.5,4-3.6C147.2,440,147.2,439.9,147.2,439.8z"/>
<path class="st3" d="M150.5,440v-5.2h1.3v5.2c0,2.4,1.4,3.7,3.5,3.7s3.6-1.3,3.6-3.7v-5.2h1.3v5.2c0,3.3-2,5-4.9,5
	S150.5,443.3,150.5,440z"/>
<path class="st3" d="M161.9,439.8c0-2.9,2.4-5.3,5.3-5.3s5.3,2.4,5.3,5.3v0.4h-9.2c0.1,2.1,1.9,3.6,3.9,3.5c1.4,0.1,2.7-0.6,3.4-1.8
	h1.4c-1.3,2.7-4.5,3.8-7.2,2.5C163,443.6,161.9,441.8,161.9,439.8L161.9,439.8z M171.1,439c-0.5-2.1-2.7-3.5-4.8-3
	c-1.5,0.4-2.6,1.5-3,3H171.1z"/>
<path class="st3" d="M178.9,439.8c0-2.9,2.4-5.3,5.3-5.3c2.9,0,5.3,2.4,5.3,5.3v4.9h-1.2v-2.4c-0.7,1.7-2.4,2.8-4.3,2.7
	c-2.8,0.1-5.1-2.1-5.1-4.9C178.9,440,178.9,439.9,178.9,439.8z M188.2,439.8c0-2.2-1.8-4-4-4s-4,1.8-4,4s1.8,4,4,4
	c2.1,0.1,3.9-1.5,4-3.6C188.2,440,188.2,439.9,188.2,439.8z"/>
<path class="st3" d="M191.5,439.5c0-3.3,2-5,4.9-5s4.9,1.7,4.9,5v5.2h-1.3v-5.2c0-2.4-1.4-3.7-3.5-3.7s-3.5,1.3-3.5,3.7v5.2h-1.3
	L191.5,439.5z"/>
<path class="st3" d="M202.8,439.7c-0.1-2.8,2.1-5.1,4.8-5.2c0.1,0,0.2,0,0.3,0c1.7-0.1,3.4,0.8,4.2,2.4v-6.4h1.3v9.2
	c0.1,2.8-2,5.1-4.7,5.3c-0.2,0-0.4,0-0.6,0c-2.8,0.1-5.2-2-5.3-4.8C202.8,440,202.8,439.9,202.8,439.7z M212.1,439.7
	c0-2.2-1.8-4-4-4s-4,1.8-4,4s1.8,4,4,4c2.1,0.1,3.9-1.5,4-3.6C212.1,440,212.1,439.9,212.1,439.7L212.1,439.7z"/>
<path class="st3" d="M220.3,439.8c0-2.9,2.4-5.3,5.3-5.3c2.9,0,5.3,2.4,5.3,5.3v4.9h-1.2v-2.4c-0.7,1.7-2.4,2.8-4.3,2.7
	c-2.8,0.1-5.1-2.1-5.1-4.9C220.3,440,220.3,439.9,220.3,439.8z M229.6,439.8c0-2.2-1.8-4-4-4s-4,1.8-4,4s1.8,4,4,4
	c2.1,0.1,3.9-1.5,4-3.6C229.6,440,229.6,439.9,229.6,439.8z"/>
<path class="st3" d="M232.5,439.7c-0.1-2.8,2.1-5.1,4.8-5.2c0.1,0,0.2,0,0.3,0c1.7-0.1,3.4,0.8,4.2,2.4v-6.4h1.3v9.2
	c0.1,2.8-2,5.1-4.7,5.3c-0.2,0-0.4,0-0.6,0c-2.8,0.1-5.2-2-5.3-4.8C232.5,440,232.5,439.9,232.5,439.7z M241.8,439.7
	c0-2.2-1.8-4-4-4s-4,1.8-4,4s1.8,4,4,4c2.1,0.1,3.9-1.5,4-3.6C241.8,440,241.8,439.9,241.8,439.7L241.8,439.7z"/>
<path class="st3" d="M244.7,439.8c0.1-2.9,2.6-5.2,5.5-5.1c2.8,0.1,5,2.3,5.1,5.1v4.9h-1.2v-2.4c-0.7,1.7-2.4,2.8-4.3,2.7
	c-2.8,0.1-5.1-2.1-5.1-4.9C244.7,440,244.7,439.9,244.7,439.8z M254,439.8c0-2.2-1.8-4-4-4s-4,1.8-4,4s1.8,4,4,4
	c2.1,0.1,3.9-1.5,4-3.6C254,440,254,439.9,254,439.8L254,439.8z"/>
<path class="st3" d="M257.3,439.8c-0.1-2.8,2-5.1,4.7-5.3c0.2,0,0.4,0,0.6,0c2.8-0.1,5.2,2,5.3,4.8c0,0.1,0,0.3,0,0.4
	c0.1,2.8-2.1,5.1-4.8,5.2c-0.1,0-0.2,0-0.3,0c-1.7,0.1-3.4-0.8-4.2-2.4v6.3h-1.3V439.8z M266.5,439.8c0-2.2-1.8-4-4-4s-4,1.8-4,4
	s1.8,4,4,4c2.1,0.1,3.9-1.5,4-3.6C266.5,440,266.5,439.9,266.5,439.8L266.5,439.8z"/>
<path class="st3" d="M269.5,441.1v-9.7h1.3v3.5h5.8v1.2h-5.8v5c-0.1,1.4,1,2.6,2.4,2.7c1.4,0.1,2.6-1,2.7-2.4c0-0.1,0-0.2,0-0.3
	v-0.2h1.3v0.2c0.1,2.1-1.5,4-3.7,4.1s-4-1.5-4.1-3.7C269.4,441.3,269.4,441.1,269.5,441.1L269.5,441.1z"/>
<path class="st3" d="M283.8,439.8c-0.1-2.9,2.3-5.4,5.2-5.5s5.4,2.3,5.5,5.2s-2.3,5.4-5.2,5.5c0,0-0.1,0-0.1,0
	c-2.8,0.1-5.2-2-5.3-4.8C283.8,440,283.8,439.9,283.8,439.8z M293.1,439.8c0-2.2-1.8-4-4-4s-4,1.8-4,4s1.8,4,4,4
	c2.1,0.1,3.9-1.5,4-3.6C293.1,440,293.1,439.9,293.1,439.8z"/>
<path class="st3" d="M296,440v-5.2h1.3v5.2c0,2.4,1.4,3.7,3.5,3.7s3.5-1.3,3.5-3.7v-5.2h1.3v5.2c0,3.3-2,5-4.9,5S296,443.3,296,440z
	"/>
<path class="st3" d="M307.7,438.8c0-2.8,1.7-4.2,4.2-4.2s4.1,1.4,4.1,4.2v0.1h-1.3v-0.1c0-2.1-1.1-3-2.8-3s-2.8,0.9-2.8,3v5.9h-1.3
	V438.8z"/>
<path class="st3" d="M322.2,439.8c0.1-2.9,2.6-5.2,5.5-5.1c2.8,0.1,5,2.3,5.1,5.1v4.9h-1.2v-2.4c-0.7,1.7-2.4,2.8-4.3,2.7
	c-2.8,0.1-5.1-2.1-5.1-4.9C322.2,440,322.2,439.9,322.2,439.8z M331.5,439.8c0-2.2-1.8-4-4-4s-4,1.8-4,4s1.8,4,4,4
	c2.1,0.1,3.9-1.5,4-3.6C331.5,440,331.5,439.9,331.5,439.8L331.5,439.8z"/>
<path class="st3" d="M335.2,430.5h1.3v14.2h-1.3V430.5z"/>
<path class="st3" d="M338.9,446h1.4c0.5,1.4,1.9,2,3.6,2c2.3,0,3.9-1.1,3.9-4.1v-1.4c-0.8,1.5-2.4,2.5-4.2,2.4c-2.7,0.1-5-2-5.1-4.7
	c0-0.1,0-0.3,0-0.4c0.1-2.9,2.6-5.2,5.6-5.1c2.8,0.1,5,2.4,5.1,5.1v4.1c0,3.8-2.3,5.3-5.3,5.3C341.5,449.2,339.6,448.2,338.9,446z
	 M347.8,439.8c-0.3-2.2-2.3-3.7-4.5-3.4c-1.8,0.2-3.2,1.6-3.4,3.4c0.3,2.2,2.3,3.7,4.5,3.4C346.1,443,347.5,441.6,347.8,439.8z"/>
<path class="st3" d="M350.6,439.8c0-2.9,2.3-5.4,5.2-5.4c2.9,0,5.4,2.3,5.4,5.2c0,2.9-2.3,5.4-5.2,5.4c0,0,0,0,0,0
	c-2.8,0.2-5.2-2-5.3-4.8C350.6,440.1,350.6,439.9,350.6,439.8z M359.9,439.8c0-2.2-1.8-4-4-4s-4,1.8-4,4s1.8,4,4,4
	c2.1,0.1,3.9-1.5,4-3.6C359.9,440,359.9,439.9,359.9,439.8z"/>
<path class="st3" d="M362.9,438.8c0-2.8,1.7-4.2,4.2-4.2s4.1,1.4,4.1,4.2v0.1h-1.3v-0.1c0-2.1-1.1-3-2.8-3s-2.8,0.9-2.8,3v5.9h-1.3
	V438.8z"/>
<path class="st3" d="M372.5,431.9c0-0.6,0.4-1,1-1s1,0.4,1,1s-0.4,1-1,1S372.5,432.4,372.5,431.9z M372.8,434.8h1.3v9.9h-1.3V434.8z
	"/>
<path class="st3" d="M376.5,441.1v-9.7h1.3v3.5h5.8v1.2h-5.8v5c0,1.4,1.1,2.5,2.5,2.5s2.5-1.1,2.5-2.5c0,0,0,0,0,0v-0.2h1.3v0.2
	c0,2.1-1.7,3.9-3.9,3.9C378.2,444.9,376.5,443.1,376.5,441.1L376.5,441.1z"/>
<path class="st3" d="M386.2,430.5h1.3v6.2c0.7-1.4,2.2-2.3,3.7-2.2c2.6,0,4.7,1.6,4.7,5v5.2h-1.3v-5.2c0-2.4-1.4-3.7-3.5-3.7
	s-3.5,1.3-3.5,3.7v5.2h-1.3L386.2,430.5z"/>
<path class="st3" d="M398,438.9c0-2.9,1.7-4.4,4-4.4c1.5-0.1,3,0.8,3.6,2.2c0.6-1.4,2-2.3,3.6-2.2c2.3,0,4,1.4,4,4.4v5.8h-1.4v-5.8
	c0-2.1-1.2-3.1-2.8-3.1s-2.8,1.1-2.8,3.1v5.8h-1.3v-5.8c0-2.1-1.2-3.1-2.8-3.1s-2.8,1-2.8,3.1v5.8H398V438.9z"/>
<path class="st3" d="M414.7,441.9h1.4c0.1,1.1,1,1.8,2.7,1.8s2.7-0.8,2.7-1.9s-1.3-1.3-2.7-1.5c-1.8-0.2-3.8-0.5-3.8-2.7
	c0-1.9,1.5-3.1,3.8-3.1s3.7,1.3,3.8,3h-1.3c-0.1-1-1-1.7-2.5-1.7s-2.4,0.8-2.4,1.8c0,1.2,1.3,1.4,2.7,1.5s3.8,0.4,3.8,2.7
	c0,1.9-1.6,3.2-4,3.2S414.8,443.7,414.7,441.9z"/>
<path class="st3" d="M87.8,463.8c0-2.9,2.4-5.3,5.3-5.3c2.9,0,5.3,2.4,5.3,5.3l0,0v4.9h-1.2v-2.4c-0.7,1.7-2.4,2.8-4.3,2.7
	c-2.8,0.1-5.1-2.1-5.1-4.9C87.8,464,87.8,463.9,87.8,463.8z M97.1,463.8c0-2.2-1.8-4-4-4s-4,1.8-4,4s1.8,4,4,4
	c2.1,0.1,3.9-1.5,4-3.6C97.1,464,97.1,463.9,97.1,463.8z"/>
<path class="st3" d="M100.4,463.5c0-3.3,2-5,4.9-5s4.9,1.7,4.9,5v5.2h-1.3v-5.2c0-2.4-1.4-3.7-3.5-3.7s-3.5,1.3-3.5,3.7v5.2h-1.3
	L100.4,463.5z"/>
<path class="st3" d="M111.7,463.7c-0.1-2.8,2.1-5.1,4.8-5.2c0.1,0,0.2,0,0.3,0c1.7-0.1,3.4,0.8,4.2,2.4v-6.4h1.3v9.2
	c0.2,2.8-1.9,5.1-4.7,5.3c-0.2,0-0.4,0-0.6,0c-2.8,0.1-5.2-2.1-5.3-4.9C111.7,464,111.7,463.9,111.7,463.7z M121,463.7
	c0-2.2-1.8-4-4-4s-4,1.8-4,4s1.8,4,4,4c2.1,0.1,3.9-1.5,4-3.5C121,464,121,463.9,121,463.7L121,463.7z"/>
<path class="st3" d="M129.6,455.9c0-0.6,0.4-1,1-1s1,0.4,1,1s-0.4,1-1,1S129.6,456.4,129.6,455.9z M130,458.8h1.3v9.9H130L130,458.8
	z"/>
<path class="st3" d="M133.6,463.5c0-3.3,2-5,4.9-5s4.9,1.7,4.9,5v5.2h-1.3v-5.2c0-2.4-1.4-3.7-3.5-3.7s-3.5,1.3-3.5,3.7v5.2h-1.3
	L133.6,463.5z"/>
<path class="st3" d="M145.4,465.1v-9.7h1.3v3.5h5.8v1.2h-5.8v5c0,1.4,1.1,2.5,2.5,2.5c1.4,0,2.5-1.1,2.5-2.5v-0.2h1.3v0.2
	c0,2.1-1.7,3.9-3.9,3.9S145.4,467.1,145.4,465.1L145.4,465.1z"/>
<path class="st3" d="M154.4,463.8c0-2.9,2.4-5.3,5.3-5.3s5.3,2.4,5.3,5.3v0.4h-9.2c0.1,2.1,1.9,3.6,3.9,3.5c1.4,0.1,2.7-0.6,3.4-1.8
	h1.5c-1.3,2.7-4.5,3.8-7.2,2.5C155.6,467.6,154.4,465.8,154.4,463.8L154.4,463.8z M163.6,463c-0.5-2.1-2.7-3.5-4.8-3
	c-1.5,0.4-2.6,1.5-3,3H163.6z"/>
<path class="st3" d="M166.5,462.8c0-2.8,1.7-4.2,4.2-4.2s4.1,1.4,4.1,4.2v0.1h-1.3v-0.1c0-2.1-1.1-3-2.8-3s-2.8,0.9-2.8,3v5.9h-1.3
	L166.5,462.8z"/>
<path class="st3" d="M176.5,458.4c-0.2-2.1,1.3-4,3.4-4.2c0.2,0,0.5,0,0.7,0c2.5,0,4.1,1.4,4.1,4.2h-1.3c0-2.1-1.1-3-2.8-3
	c-1.4-0.1-2.7,0.9-2.8,2.3c0,0.2,0,0.4,0,0.6v1.8h5.8v1.2h-5.8v7.3h-1.3L176.5,458.4z"/>
<path class="st3" d="M185.1,463.8c0-2.9,2.4-5.3,5.3-5.3c2.9,0,5.3,2.4,5.3,5.3v4.9h-1.2v-2.4c-0.7,1.7-2.4,2.8-4.3,2.7
	c-2.8,0.1-5.1-2.1-5.1-4.9C185.1,464,185.1,463.9,185.1,463.8z M194.4,463.8c0-2.2-1.8-4-4-4s-4,1.8-4,4s1.8,4,4,4
	c2.1,0.1,3.9-1.5,4-3.6C194.4,464,194.4,463.9,194.4,463.8z"/>
<path class="st3" d="M197.3,463.8c-0.1-2.8,2.1-5.1,4.9-5.2c0.1,0,0.3,0,0.4,0c2.3-0.1,4.5,1.4,5.1,3.7h-1.4c-0.8-2-3.2-3-5.2-2.2
	s-3,3.2-2.2,5.2s3.2,3,5.2,2.2c1-0.4,1.8-1.2,2.2-2.2h1.4c-0.6,2.3-2.7,3.8-5.1,3.7c-2.8,0.1-5.2-2-5.3-4.8
	C197.3,464,197.3,463.9,197.3,463.8z"/>
<path class="st3" d="M208.9,463.8c0-2.9,2.4-5.3,5.3-5.3s5.3,2.4,5.3,5.3v0.4h-9.2c0.1,2.1,1.9,3.6,3.9,3.5c1.4,0.1,2.7-0.6,3.4-1.8
	h1.5c-1.3,2.7-4.5,3.8-7.2,2.5C210.1,467.6,209,465.8,208.9,463.8L208.9,463.8z M218.1,463c-0.5-2.1-2.7-3.5-4.8-3
	c-1.5,0.4-2.6,1.5-3,3H218.1z"/>
<path class="st3" d="M220.7,465.9h1.4c0.1,1.1,1,1.8,2.7,1.8s2.7-0.8,2.7-1.9s-1.3-1.3-2.7-1.5c-1.8-0.2-3.8-0.5-3.8-2.7
	c0-1.9,1.5-3.1,3.8-3.1s3.7,1.3,3.8,3h-1.3c-0.1-1-1-1.7-2.5-1.7s-2.4,0.8-2.4,1.8c0,1.2,1.3,1.4,2.7,1.5s3.8,0.4,3.8,2.7
	c0,1.9-1.6,3.2-4,3.2S220.8,467.7,220.7,465.9z"/>
<path class="st3" d="M235.8,465.1v-9.7h1.3v3.5h5.8v1.2h-5.8v5c0,1.4,1.1,2.5,2.5,2.5c1.4,0,2.5-1.1,2.5-2.5v-0.2h1.3v0.2
	c0,2.1-1.7,3.9-3.9,3.9S235.8,467.1,235.8,465.1L235.8,465.1z"/>
<path class="st3" d="M244.8,463.8c-0.1-2.9,2.3-5.4,5.2-5.4c2.9-0.1,5.4,2.3,5.4,5.2c0.1,2.9-2.3,5.4-5.2,5.4c0,0-0.1,0-0.1,0
	c-2.8,0.1-5.2-2-5.3-4.8C244.8,464,244.8,463.9,244.8,463.8z M254,463.8c0-2.2-1.8-4-4-4s-4,1.8-4,4s1.8,4,4,4
	c2.1,0.1,3.9-1.5,4-3.6C254,464,254,463.9,254,463.8L254,463.8z"/>
<path class="st3" d="M262.3,462.9c0-2.9,1.7-4.4,4-4.4c1.5-0.1,3,0.8,3.6,2.2c0.6-1.4,2-2.3,3.6-2.2c2.3,0,4,1.4,4,4.4v5.8H276v-5.8
	c0-2.1-1.2-3.1-2.8-3.1s-2.8,1.1-2.8,3.1v5.8h-1.3v-5.8c0-2.1-1.2-3.1-2.8-3.1s-2.8,1-2.8,3.1v5.8h-1.3L262.3,462.9z"/>
<path class="st3" d="M279,463.8c0.1-2.9,2.6-5.2,5.5-5.1c2.8,0.1,5,2.3,5.1,5.1v0.4h-9.2c0.1,2.1,1.9,3.6,4,3.5
	c1.4,0.1,2.7-0.6,3.4-1.8h1.5c-1.3,2.7-4.5,3.8-7.2,2.5C280.2,467.5,279.1,465.7,279,463.8z M288.2,463c-0.5-2.2-2.7-3.5-4.8-3
	c-1.5,0.3-2.6,1.5-3,3H288.2z"/>
<path class="st3" d="M290.7,463.8c0.1-2.9,2.6-5.2,5.5-5.1c2.8,0.1,5,2.3,5.1,5.1v0.4h-9.2c0.1,2.1,1.9,3.6,4,3.5c0,0,0,0,0,0
	c1.4,0.1,2.7-0.6,3.4-1.8h1.5c-1.3,2.7-4.5,3.8-7.2,2.5C292,467.5,290.8,465.7,290.7,463.8L290.7,463.8z M299.9,463
	c-0.5-2.2-2.7-3.5-4.8-3c-1.5,0.3-2.6,1.5-3,3H299.9z"/>
<path class="st3" d="M302.9,465.1v-9.7h1.3v3.5h5.8v1.2h-5.8v5c-0.1,1.4,1,2.6,2.4,2.7c1.4,0.1,2.6-1,2.7-2.4c0-0.1,0-0.2,0-0.3
	v-0.2h1.3v0.2c0.1,2.1-1.5,4-3.7,4.1s-4-1.5-4.1-3.7C302.8,465.3,302.8,465.1,302.9,465.1L302.9,465.1z"/>
<path class="st3" d="M317.7,470h1.3c0.6,1.3,1.9,2.1,3.4,2c2.1,0,3.6-1,3.6-3.6v-1.7c-0.7,1.4-2.2,2.3-3.8,2.2c-2.6,0-4.7-1.6-4.7-5
	v-5.1h1.3v5.1c0,2.4,1.4,3.7,3.5,3.7s3.5-1.3,3.5-3.7v-5.1h1.3v9.5c0,3.4-2.2,4.8-5,4.8C320.2,473.2,318.3,472.1,317.7,470z"/>
<path class="st3" d="M329.2,463.8c-0.1-2.9,2.3-5.4,5.2-5.5s5.4,2.3,5.5,5.2s-2.3,5.4-5.2,5.5c0,0-0.1,0-0.1,0
	c-2.8,0.1-5.2-2-5.3-4.8C329.2,464,329.2,463.9,329.2,463.8z M338.5,463.8c0-2.2-1.8-4-4-4s-4,1.8-4,4s1.8,4,4,4
	c2.1,0.1,3.9-1.5,4-3.6C338.5,464,338.5,463.9,338.5,463.8L338.5,463.8z"/>
<path class="st3" d="M341.4,464v-5.2h1.3v5.2c0,2.4,1.4,3.7,3.5,3.7s3.5-1.3,3.5-3.7v-5.2h1.4v5.2c0,3.3-2,5-4.9,5
	S341.4,467.3,341.4,464z"/>
<path class="st3" d="M353.1,462.8c0-2.8,1.7-4.2,4.2-4.2s4.1,1.4,4.1,4.2v0.1h-1.3v-0.1c0-2.1-1.1-3-2.8-3s-2.8,0.9-2.8,3v5.9h-1.3
	V462.8z"/>
<path class="st3" d="M367.7,463.8c0.1-2.9,2.6-5.2,5.5-5.1c2.8,0.1,5,2.3,5.1,5.1v0.4h-9.2c0.1,2.1,1.9,3.6,3.9,3.5
	c1.4,0.1,2.7-0.6,3.4-1.8h1.5c-1.3,2.7-4.5,3.8-7.2,2.5C368.9,467.6,367.7,465.8,367.7,463.8L367.7,463.8z M376.9,463
	c-0.5-2.1-2.7-3.5-4.8-3c-1.5,0.4-2.6,1.5-3,3H376.9z"/>
<path class="st3" d="M382.9,463.7l-4-4.9h1.7l3.4,4.1l3.4-4.1h1.6l-4.1,4.9l4.2,5h-1.7l-3.5-4.3l-3.5,4.3h-1.6L382.9,463.7z"/>
<path class="st3" d="M389.5,463.8c0-2.9,2.4-5.3,5.3-5.3c2.9,0,5.3,2.4,5.3,5.3v4.9h-1.2v-2.4c-0.7,1.7-2.4,2.8-4.3,2.7
	c-2.8,0.1-5.1-2.1-5.1-4.9C389.4,464,389.4,463.9,389.5,463.8z M398.7,463.8c0-2.2-1.8-4-4-4s-4,1.8-4,4s1.8,4,4,4
	c2.1,0.1,3.9-1.5,4-3.6C398.7,464,398.7,463.9,398.7,463.8z"/>
<path class="st3" d="M401.6,463.8c-0.1-2.8,2.1-5.1,4.9-5.2c0.1,0,0.3,0,0.4,0c2.3-0.1,4.5,1.4,5.1,3.7h-1.4c-0.8-2-3.2-3-5.2-2.2
	s-3,3.2-2.2,5.2s3.2,3,5.2,2.2c1-0.4,1.8-1.2,2.2-2.2h1.3c-0.6,2.3-2.7,3.8-5,3.8c-2.8,0.2-5.2-2-5.4-4.8
	C401.6,464.1,401.6,463.9,401.6,463.8z"/>
<path class="st3" d="M413.6,465.1v-9.7h1.4v3.5h5.8v1.2H415v5c0,1.4,1.1,2.5,2.5,2.5s2.5-1.1,2.5-2.5c0,0,0,0,0,0v-0.2h1.3v0.2
	c0,2.1-1.7,3.9-3.9,3.9C415.4,468.9,413.7,467.1,413.6,465.1L413.6,465.1z"/>
<path class="st3" d="M57,486.8c0-2.8,1.7-4.2,4.2-4.2s4.1,1.4,4.1,4.2v0.1H64v-0.1c0-2.1-1.1-3-2.8-3s-2.8,0.9-2.8,3v5.9H57V486.8z"
	/>
<path class="st3" d="M66.3,487.8c0-2.9,2.4-5.3,5.3-5.3c2.9,0,5.3,2.4,5.3,5.3v0.4h-9.2c0.1,2.1,1.9,3.6,3.9,3.5
	c1.4,0.1,2.7-0.6,3.4-1.8h1.5c-1.3,2.7-4.5,3.8-7.2,2.5C67.5,491.6,66.3,489.8,66.3,487.8z M75.5,487c-0.5-2.1-2.7-3.5-4.8-3
	c-1.5,0.4-2.6,1.5-3,3H75.5z"/>
<path class="st3" d="M87.3,496.9v-6.3c-0.8,1.6-2.4,2.5-4.2,2.4c-2.8,0.1-5.1-2.1-5.2-4.8c0-0.1,0-0.2,0-0.4
	c-0.1-2.8,2.1-5.2,4.9-5.2c0.1,0,0.3,0,0.4,0c2.8-0.2,5.1,1.9,5.3,4.7c0,0.2,0,0.4,0,0.6v9.1H87.3z M87.3,487.8c0-2.2-1.8-4-4-4
	s-4,1.8-4,4s1.8,4,4,4c2.1,0.1,3.9-1.5,4-3.6C87.3,488,87.3,487.9,87.3,487.8z"/>
<path class="st3" d="M90.6,488v-5.2H92v5.2c0,2.4,1.4,3.7,3.5,3.7s3.5-1.3,3.5-3.7v-5.2h1.3v5.2c0,3.3-2,5-4.9,5
	S90.6,491.3,90.6,488z"/>
<path class="st3" d="M102.3,479.9c0-0.6,0.4-1,1-1s1,0.4,1,1s-0.4,1-1,1S102.3,480.4,102.3,479.9z M102.7,482.8h1.3v9.9h-1.3V482.8z
	"/>
<path class="st3" d="M106.4,486.8c0-2.8,1.7-4.2,4.2-4.2s4.1,1.4,4.1,4.2v0.1h-1.3v-0.1c0-2.1-1.1-3-2.8-3s-2.8,0.9-2.8,3v5.9h-1.3
	V486.8z"/>
<path class="st3" d="M115.6,487.8c0-2.9,2.4-5.3,5.3-5.3c2.9,0,5.3,2.4,5.3,5.3v0.4H117c0.1,2.1,1.9,3.6,3.9,3.5
	c1.4,0.1,2.7-0.6,3.4-1.8h1.5c-1.3,2.7-4.5,3.8-7.2,2.5C116.8,491.6,115.7,489.8,115.6,487.8L115.6,487.8z M124.8,487
	c-0.5-2.1-2.7-3.5-4.8-3c-1.5,0.4-2.6,1.5-3,3H124.8z"/>
<path class="st3" d="M127.8,486.9c0-2.9,1.7-4.4,4-4.4c1.5-0.1,3,0.8,3.6,2.2c0.6-1.4,2-2.3,3.6-2.2c2.3,0,4,1.4,4,4.4v5.8h-1.3
	v-5.8c0-2.1-1.2-3.1-2.8-3.1s-2.8,1.1-2.8,3.1v5.8h-1.3v-5.8c0-2.1-1.2-3.1-2.8-3.1s-2.8,1-2.8,3.1v5.8h-1.3L127.8,486.9z"/>
<path class="st3" d="M144.4,487.8c0-2.9,2.4-5.3,5.3-5.3s5.3,2.4,5.3,5.3v0.4h-9.2c0.1,2.1,1.9,3.6,3.9,3.5c1.4,0.1,2.7-0.6,3.4-1.8
	h1.5c-1.3,2.7-4.5,3.8-7.2,2.5C145.7,491.6,144.5,489.8,144.4,487.8z M153.6,487c-0.5-2.1-2.7-3.5-4.8-3c-1.5,0.4-2.6,1.5-3,3H153.6
	z"/>
<path class="st3" d="M156.6,487.5c0-3.3,2-5,4.9-5s4.9,1.7,4.9,5v5.2H165v-5.2c0-2.4-1.4-3.7-3.5-3.7s-3.5,1.3-3.5,3.7v5.2h-1.3
	L156.6,487.5z"/>
<path class="st3" d="M168.3,489.1v-9.7h1.3v3.5h5.8v1.2h-5.8v5c0,1.4,1.1,2.5,2.5,2.5c1.4,0,2.5-1.1,2.5-2.5v-0.2h1.3v0.2
	c0,2.1-1.7,3.9-3.9,3.9C170,492.9,168.3,491.1,168.3,489.1L168.3,489.1L168.3,489.1z"/>
<path class="st3" d="M177.4,489.9h1.4c0.1,1.1,1,1.8,2.7,1.8s2.7-0.8,2.7-1.9s-1.3-1.3-2.7-1.5c-1.8-0.2-3.8-0.5-3.8-2.7
	c0-1.9,1.5-3.1,3.8-3.1s3.7,1.3,3.8,3h-1.3c-0.1-1-1-1.7-2.5-1.7s-2.4,0.8-2.4,1.8c0,1.2,1.3,1.4,2.7,1.5s3.8,0.4,3.8,2.7
	c0,1.9-1.6,3.2-4,3.2S177.4,491.7,177.4,489.9z"/>
<path class="st3" d="M187.2,491.9c0-0.6,0.4-1,1-1s1,0.4,1,1s-0.4,1-1,1S187.2,492.5,187.2,491.9z"/>
<path class="st3" d="M196.6,486.2c-0.1-3.9,2.9-7.1,6.8-7.2c3.9-0.1,7.1,2.9,7.2,6.8c0.1,3.9-2.9,7.1-6.8,7.2c-0.1,0-0.1,0-0.2,0
	c-3.7,0.2-6.8-2.6-7-6.3C196.6,486.5,196.6,486.3,196.6,486.2z M209.1,486.2c0-3-2.4-5.5-5.5-5.6c-3,0-5.5,2.4-5.6,5.5
	c0,3,2.4,5.5,5.5,5.6c0,0,0,0,0,0c2.9,0.1,5.4-2.1,5.5-5.1C209.1,486.4,209.1,486.3,209.1,486.2L209.1,486.2z"/>
<path class="st3" d="M212.2,488v-5.2h1.3v5.2c0,2.4,1.4,3.7,3.6,3.7s3.5-1.3,3.5-3.7v-5.2h1.4v5.2c0,3.3-2,5-4.9,5
	S212.2,491.3,212.2,488z"/>
<path class="st3" d="M223.9,486.8c0-2.8,1.7-4.2,4.2-4.2s4.1,1.4,4.1,4.2v0.1h-1.3v-0.1c0-2.1-1.1-3-2.8-3s-2.8,0.9-2.8,3v5.9h-1.3
	V486.8z"/>
<path class="st3" d="M238.8,486.9c0-2.9,1.7-4.4,4-4.4c1.5-0.1,3,0.8,3.6,2.2c0.6-1.4,2-2.3,3.6-2.2c2.3,0,4,1.4,4,4.4v5.8h-1.3
	v-5.8c0-2.1-1.2-3.1-2.8-3.1s-2.8,1.1-2.8,3.1v5.8h-1.3v-5.8c0-2.1-1.2-3.1-2.8-3.1s-2.8,1-2.8,3.1v5.8h-1.4L238.8,486.9z"/>
<path class="st3" d="M255.5,487.8c0.1-2.9,2.6-5.2,5.5-5.1c2.8,0.1,5,2.3,5.1,5.1v0.4h-9.2c0.1,2.1,1.9,3.6,4,3.5c0,0,0,0,0,0
	c1.4,0.1,2.7-0.6,3.4-1.8h1.5c-1.3,2.7-4.5,3.8-7.2,2.5C256.8,491.5,255.6,489.7,255.5,487.8L255.5,487.8z M264.7,487
	c-0.5-2.2-2.7-3.5-4.8-3c-1.5,0.3-2.6,1.5-3,3H264.7z"/>
<path class="st3" d="M267.7,489.1v-9.7h1.3v3.5h5.8v1.2H269v5c0,1.4,1.1,2.5,2.5,2.5s2.5-1.1,2.5-2.5c0,0,0,0,0,0v-0.2h1.3v0.2
	c0.1,2.1-1.5,4-3.7,4.1s-4-1.5-4.1-3.7C267.7,489.3,267.7,489.1,267.7,489.1L267.7,489.1z"/>
<path class="st3" d="M277.4,478.5h1.3v6.2c0.7-1.4,2.2-2.3,3.7-2.2c2.6,0,4.7,1.6,4.7,5v5.2h-1.3v-5.2c0-2.4-1.4-3.7-3.5-3.7
	s-3.5,1.3-3.5,3.7v5.2h-1.3V478.5z"/>
<path class="st3" d="M288.7,487.8c-0.1-2.9,2.3-5.4,5.2-5.5s5.4,2.3,5.5,5.2s-2.3,5.4-5.2,5.5c0,0-0.1,0-0.1,0
	c-2.8,0.1-5.2-2-5.3-4.8C288.7,488,288.7,487.9,288.7,487.8z M298,487.8c0-2.2-1.8-4-4-4s-4,1.8-4,4s1.8,4,4,4
	c2.1,0.1,3.9-1.5,4-3.6C298,488,298,487.9,298,487.8L298,487.8z"/>
<path class="st3" d="M300.5,487.7c-0.1-2.8,2.1-5.1,4.8-5.2c0.1,0,0.2,0,0.3,0c1.7-0.1,3.4,0.8,4.2,2.4v-6.4h1.3v9.2
	c0.1,2.8-2,5.1-4.7,5.3c-0.2,0-0.4,0-0.6,0c-2.8,0.1-5.2-2-5.3-4.8C300.5,488,300.5,487.9,300.5,487.7z M309.8,487.7
	c0-2.2-1.8-4-4-4s-4,1.8-4,4s1.8,4,4,4c2.1,0.1,3.9-1.5,4-3.6C309.8,488,309.8,487.9,309.8,487.7L309.8,487.7z"/>
<path class="st3" d="M312.7,487.8c0-2.9,2.3-5.4,5.2-5.4c2.9,0,5.4,2.3,5.4,5.2c0,2.9-2.3,5.4-5.2,5.4c0,0-0.1,0-0.1,0
	c-2.8,0.1-5.2-2-5.3-4.8C312.7,488,312.7,487.9,312.7,487.8z M322,487.8c0-2.2-1.8-4-4-4s-4,1.8-4,4s1.8,4,4,4
	c2.1,0.1,3.9-1.5,4-3.6C322,488,322,487.9,322,487.8L322,487.8z"/>
<path class="st3" d="M325.3,478.5h1.3v14.2h-1.3V478.5z"/>
<path class="st3" d="M328.6,487.8c-0.1-2.9,2.3-5.4,5.2-5.4c2.9-0.1,5.4,2.3,5.4,5.2c0.1,2.9-2.3,5.4-5.2,5.4c0,0-0.1,0-0.1,0
	c-2.8,0.1-5.2-2-5.3-4.8C328.6,488,328.6,487.9,328.6,487.8z M337.9,487.8c0-2.2-1.8-4-4-4s-4,1.8-4,4s1.8,4,4,4
	c2.1,0.1,3.9-1.5,4-3.6C337.9,488,337.9,487.9,337.9,487.8z"/>
<path class="st3" d="M340.8,494h1.4c0.5,1.4,1.9,2,3.6,2c2.3,0,3.9-1.1,3.9-4.1v-1.4c-0.8,1.6-2.4,2.5-4.2,2.4c-2.7,0.1-5-2-5.1-4.7
	c0-0.1,0-0.3,0-0.4c0-2.9,2.4-5.3,5.3-5.3s5.3,2.4,5.3,5.3v4.1c0,3.8-2.3,5.3-5.2,5.3C343.4,497.2,341.5,496.2,340.8,494z
	 M349.6,487.8c0.3-2.2-1.2-4.2-3.4-4.5s-4.2,1.2-4.5,3.4c-0.1,0.4-0.1,0.8,0,1.1c0.3,2.2,2.3,3.7,4.5,3.4
	C348,490.9,349.4,489.5,349.6,487.8z"/>
<path class="st3" d="M353,494h1.3c0.6,1.3,1.9,2.1,3.4,2c2.1,0,3.6-1,3.6-3.6v-1.7c-0.7,1.4-2.2,2.3-3.7,2.2c-2.6,0-4.7-1.6-4.7-5
	v-5.1h1.3v5.1c0,2.4,1.4,3.7,3.5,3.7s3.5-1.3,3.5-3.7v-5.1h1.3v9.5c0,3.4-2.2,4.8-4.9,4.8C355.5,497.2,353.7,496.1,353,494z"/>
<path class="st3" d="M370.3,479.9c0-0.6,0.4-1,1-1s1,0.4,1,1s-0.4,1-1,1S370.3,480.4,370.3,479.9z M370.7,482.8h1.3v9.9h-1.3
	L370.7,482.8z"/>
<path class="st3" d="M374,489.9h1.4c0.1,1.1,1,1.8,2.7,1.8s2.7-0.8,2.7-1.9s-1.3-1.3-2.7-1.5c-1.8-0.2-3.8-0.5-3.8-2.7
	c0-1.9,1.5-3.1,3.8-3.1s3.7,1.3,3.8,3h-1.3c-0.1-1-1-1.7-2.5-1.7s-2.4,0.8-2.4,1.8c0,1.2,1.3,1.4,2.7,1.5s3.8,0.4,3.8,2.7
	c0,1.9-1.6,3.2-4,3.2S374.1,491.7,374,489.9z"/>
<path class="st3" d="M389,487.5c0-3.3,2-5,4.9-5s4.9,1.7,4.9,5v5.2h-1.3v-5.2c0-2.4-1.4-3.7-3.5-3.7s-3.5,1.3-3.5,3.7v5.2H389V487.5
	z"/>
<path class="st3" d="M400.8,479.9c0-0.6,0.4-1,1-1s1,0.4,1,1s-0.4,1-1,1S400.8,480.4,400.8,479.9z M401.1,482.8h1.3v9.9h-1.3V482.8z
	"/>
<path class="st3" d="M404.8,486.9c0-2.9,1.7-4.4,4-4.4c1.5-0.1,3,0.8,3.6,2.2c0.6-1.4,2-2.3,3.6-2.2c2.3,0,4,1.4,4,4.4v5.8h-1.4
	v-5.8c0-2.1-1.2-3.1-2.8-3.1s-2.8,1.1-2.8,3.1v5.8h-1.3v-5.8c0-2.1-1.2-3.1-2.8-3.1s-2.8,1-2.8,3.1v5.8h-1.3L404.8,486.9z"/>
<path class="st3" d="M421.9,487.7v-9.2h1.3v6.4c0.8-1.5,2.4-2.5,4.2-2.4c2.8-0.1,5.1,2.1,5.1,4.9c0,0.1,0,0.2,0,0.3
	c0.1,2.8-2.1,5.2-4.9,5.2c-0.1,0-0.3,0-0.4,0c-2.8,0.2-5.1-1.9-5.3-4.7C421.9,488.1,421.9,487.9,421.9,487.7z M431.1,487.8
	c0-2.2-1.8-4-4-4s-4,1.8-4,4s1.8,4,4,4c2.1,0.1,3.9-1.5,4-3.6C431.1,488,431.1,487.9,431.1,487.8z"/>
<path class="st3" d="M434.4,478.5h1.3v14.2h-1.3V478.5z"/>
<path class="st3" d="M437.7,487.8c0-2.9,2.4-5.3,5.3-5.3c2.9,0,5.3,2.4,5.3,5.3v0.4h-9.2c0.1,2.1,1.9,3.6,3.9,3.5
	c1.4,0.1,2.7-0.6,3.4-1.8h1.5c-1.3,2.7-4.5,3.8-7.2,2.5C438.9,491.6,437.8,489.8,437.7,487.8z M446.9,487c-0.5-2.1-2.7-3.5-4.8-3
	c-1.5,0.4-2.6,1.5-3,3H446.9z"/>
<path class="st3" d="M450.5,492.9c-0.4-0.1-0.7-0.5-0.7-1c0-0.6,0.4-1,1-1s1,0.4,1,1c0,0.2-0.1,0.4-0.1,0.6l-1.1,2.7h-0.8
	L450.5,492.9z"/>
<path class="st3" d="M56.3,503.9c0-0.6,0.4-1,1-1s1,0.4,1,1s-0.4,1-1,1S56.3,504.4,56.3,503.9z M56.6,506.8H58v9.9h-1.4V506.8z"/>
<path class="st3" d="M60.3,513.1v-9.7h1.3v3.5h5.8v1.2h-5.8v5c0,1.4,1.1,2.5,2.5,2.5c1.4,0,2.5-1.1,2.5-2.5c0,0,0,0,0,0v-0.2H68v0.2
	c0.2,1.9-1.2,3.7-3.1,3.9c-0.2,0-0.5,0-0.7,0c-2,0.2-3.7-1.3-3.9-3.2C60.3,513.5,60.3,513.3,60.3,513.1z"/>
<path class="st3" d="M74.6,511.8c0-2.9,2.4-5.3,5.3-5.3c2.9,0,5.3,2.4,5.3,5.3v0.4H76c0.1,2.1,1.9,3.6,3.9,3.5
	c1.4,0.1,2.7-0.6,3.4-1.8h1.5c-1.3,2.7-4.5,3.8-7.2,2.5C75.8,515.6,74.7,513.8,74.6,511.8L74.6,511.8z M83.8,511
	c-0.5-2.2-2.6-3.5-4.8-3c-1.5,0.3-2.7,1.5-3,3H83.8z"/>
<path class="st3" d="M87.1,502.5h1.3v14.2h-1.3V502.5z"/>
<path class="st3" d="M90.8,503.9c0-0.6,0.4-1,1-1s1,0.4,1,1s-0.4,1-1,1S90.8,504.4,90.8,503.9z M91.2,506.8h1.3v9.9h-1.3V506.8z"/>
<path class="st3" d="M94.9,510.9c0-2.9,1.7-4.4,4-4.4c1.5-0.1,3,0.8,3.6,2.2c0.6-1.4,2-2.3,3.6-2.2c2.3,0,4,1.4,4,4.4v5.8h-1.3v-5.8
	c0-2.1-1.2-3.1-2.8-3.1s-2.8,1.1-2.8,3.1v5.8h-1.3v-5.8c0-2.1-1.2-3.1-2.8-3.1s-2.8,1-2.8,3.1v5.8h-1.3V510.9z"/>
<path class="st3" d="M112,503.9c0-0.6,0.4-1,1-1s1,0.4,1,1s-0.4,1-1,1S112,504.4,112,503.9z M112.4,506.8h1.3v9.9h-1.3V506.8z"/>
<path class="st3" d="M116,511.5c0-3.3,2-5,4.9-5s4.9,1.7,4.9,5v5.2h-1.4v-5.2c0-2.4-1.4-3.7-3.5-3.7s-3.5,1.3-3.5,3.7v5.2H116V511.5
	z"/>
<path class="st3" d="M127.3,511.8c0-2.9,2.4-5.3,5.3-5.3c2.9,0,5.3,2.4,5.3,5.3v4.9h-1.2v-2.4c-0.7,1.7-2.4,2.8-4.3,2.7
	c-2.8,0.1-5.1-2.1-5.1-4.9C127.3,512,127.3,511.9,127.3,511.8z M136.6,511.8c0-2.2-1.8-4-4-4s-4,1.8-4,4c0,2.2,1.8,4,4,4
	c2.1,0.1,3.9-1.5,4-3.6C136.6,512,136.6,511.9,136.6,511.8z"/>
<path class="st3" d="M139.9,513.1v-9.7h1.3v3.5h5.8v1.2h-5.8v5c0,1.4,1.1,2.5,2.5,2.5c1.4,0,2.5-1.1,2.5-2.5v-0.2h1.3v0.2
	c0,2.1-1.7,3.9-3.9,3.9S139.8,515.1,139.9,513.1L139.9,513.1z"/>
<path class="st3" d="M148.9,511.8c0-2.9,2.4-5.3,5.3-5.3s5.3,2.4,5.3,5.3v0.4h-9.2c0.1,2.1,1.9,3.6,3.9,3.5c1.4,0.1,2.7-0.6,3.4-1.8
	h1.5c-1.3,2.7-4.5,3.8-7.2,2.5C150.1,515.6,148.9,513.8,148.9,511.8z M158.1,511c-0.5-2.1-2.7-3.5-4.8-3c-1.5,0.4-2.6,1.5-3,3H158.1
	z"/>
<path class="st3" d="M160.7,513.9h1.4c0.1,1.1,1,1.8,2.7,1.8s2.7-0.8,2.7-1.9s-1.3-1.3-2.7-1.5c-1.8-0.2-3.8-0.5-3.8-2.7
	c0-1.9,1.5-3.1,3.8-3.1s3.7,1.3,3.8,3h-1.3c-0.1-1-1-1.7-2.5-1.7s-2.4,0.8-2.4,1.8c0,1.2,1.3,1.4,2.7,1.5s3.8,0.4,3.8,2.7
	c0,1.9-1.6,3.2-4,3.2S160.8,515.7,160.7,513.9z"/>
<path class="st3" d="M175.3,511.7c-0.1-2.8,2.1-5.1,4.8-5.2c0.1,0,0.2,0,0.3,0c1.7-0.1,3.4,0.8,4.2,2.4v-6.4h1.3v9.2
	c0.1,2.8-2,5.1-4.7,5.3c-0.2,0-0.4,0-0.6,0c-2.8,0.1-5.2-2-5.3-4.8C175.3,512,175.3,511.9,175.3,511.7z M184.6,511.7
	c0-2.2-1.8-4-4-4s-4,1.8-4,4s1.8,4,4,4c0,0,0,0,0,0c2.1,0.1,3.9-1.5,4-3.6C184.6,512,184.6,511.9,184.6,511.7L184.6,511.7z"/>
<path class="st3" d="M187.9,503.9c0-0.6,0.4-1,1-1s1,0.4,1,1s-0.4,1-1,1S187.9,504.4,187.9,503.9z M188.3,506.8h1.3v9.9h-1.3V506.8z
	"/>
<path class="st3" d="M191.6,513.9h1.4c0.1,1.1,1,1.8,2.7,1.8s2.7-0.8,2.7-1.9s-1.3-1.3-2.7-1.5c-1.8-0.2-3.8-0.5-3.8-2.7
	c0-1.9,1.5-3.1,3.8-3.1s3.7,1.3,3.8,3h-1.3c-0.1-1-1-1.7-2.5-1.7s-2.4,0.8-2.4,1.8c0,1.2,1.3,1.4,2.7,1.5s3.8,0.4,3.8,2.7
	c0,1.9-1.6,3.2-4,3.2S191.7,515.7,191.6,513.9z"/>
<path class="st3" d="M201.3,510.8c0-2.8,1.7-4.2,4.2-4.2s4.1,1.4,4.1,4.2v0.1h-1.3v-0.1c0-2.1-1.1-3-2.8-3s-2.8,0.9-2.8,3v5.9h-1.3
	V510.8z"/>
<path class="st3" d="M210.9,512v-5.2h1.3v5.2c0,2.4,1.4,3.7,3.5,3.7s3.5-1.3,3.5-3.7v-5.2h1.3v5.2c0,3.3-2,5-4.9,5
	S210.9,515.3,210.9,512z"/>
<path class="st3" d="M222.6,511.8c-0.1-2.8,2-5.1,4.7-5.3c0.2,0,0.4,0,0.6,0c2.8-0.1,5.2,2,5.3,4.8c0,0.1,0,0.3,0,0.4
	c0.1,2.8-2.1,5.1-4.8,5.2c-0.1,0-0.2,0-0.3,0c-1.7,0.1-3.4-0.8-4.2-2.4v6.3h-1.3V511.8z M231.9,511.8c0-2.2-1.8-4-4-4s-4,1.8-4,4
	c0,2.2,1.8,4,4,4c2.1,0.1,3.9-1.5,4-3.6C231.9,512,231.9,511.9,231.9,511.8z"/>
<path class="st3" d="M234.8,513.1v-9.7h1.4v3.5h5.8v1.2h-5.8v5c0,1.4,1.1,2.5,2.5,2.5c1.4,0,2.5-1.1,2.5-2.5v-0.2h1.3v0.2
	c0.1,2.1-1.5,4-3.7,4.1c-2.1,0.1-4-1.5-4.1-3.7C234.8,513.3,234.8,513.1,234.8,513.1L234.8,513.1z"/>
<path class="st3" d="M244.2,503.9c0-0.6,0.4-1,1-1s1,0.4,1,1s-0.4,1-1,1S244.2,504.4,244.2,503.9z M244.6,506.8h1.3v9.9h-1.3
	L244.6,506.8z"/>
<path class="st3" d="M247.9,511.8c-0.1-2.9,2.3-5.4,5.2-5.5c2.9-0.1,5.4,2.3,5.5,5.2c0.1,2.9-2.3,5.4-5.2,5.5c0,0-0.1,0-0.1,0
	c-2.8,0.1-5.2-2-5.3-4.8C247.8,512,247.8,511.9,247.9,511.8z M257.1,511.8c0-2.2-1.8-4-4-4s-4,1.8-4,4c0,2.2,1.8,4,4,4
	c2.1,0.1,3.9-1.5,4-3.6C257.1,512,257.1,511.9,257.1,511.8z"/>
<path class="st3" d="M260.1,511.5c0-3.3,2-5,4.9-5s4.9,1.7,4.9,5v5.2h-1.3v-5.2c0-2.4-1.4-3.7-3.5-3.7s-3.5,1.3-3.5,3.7v5.2h-1.3
	L260.1,511.5z"/>
<path class="st3" d="M276.7,511.8c0.1-2.9,2.6-5.2,5.5-5.1c2.8,0.1,5,2.3,5.1,5.1v4.9h-1.2v-2.4c-0.7,1.7-2.4,2.8-4.3,2.7
	c-2.8,0.1-5.1-2.1-5.1-4.9C276.7,512,276.7,511.9,276.7,511.8z M286,511.8c0-2.2-1.8-4-4-4s-4,1.8-4,4c0,2.2,1.8,4,4,4
	c2.1,0.1,3.9-1.5,4-3.6C286,512,286,511.9,286,511.8L286,511.8z"/>
<path class="st3" d="M289.3,511.5c0-3.3,2-5,4.9-5s4.9,1.7,4.9,5v5.2h-1.3v-5.2c0-2.4-1.4-3.7-3.5-3.7s-3.5,1.3-3.5,3.7v5.2h-1.3
	L289.3,511.5z"/>
<path class="st3" d="M300.6,511.7c-0.1-2.8,2.1-5.1,4.8-5.2c0.1,0,0.2,0,0.3,0c1.7-0.1,3.4,0.8,4.2,2.4v-6.4h1.3v9.2
	c0.1,2.8-2,5.1-4.7,5.3c-0.2,0-0.4,0-0.6,0c-2.8,0.1-5.2-2-5.3-4.8C300.6,512,300.6,511.9,300.6,511.7z M309.9,511.7
	c0-2.2-1.8-4-4-4s-4,1.8-4,4s1.8,4,4,4h0c2.1,0.1,3.9-1.5,4-3.6C309.9,512,309.9,511.9,309.9,511.7L309.9,511.7z"/>
<path class="st3" d="M318.5,510.9c0-2.9,1.7-4.4,4-4.4c1.5-0.1,3,0.8,3.6,2.2c0.6-1.4,2-2.3,3.6-2.2c2.3,0,4,1.4,4,4.4v5.8h-1.3
	v-5.8c0-2.1-1.2-3.1-2.8-3.1s-2.8,1.1-2.8,3.1v5.8h-1.3v-5.8c0-2.1-1.2-3.1-2.8-3.1s-2.8,1-2.8,3.1v5.8h-1.3L318.5,510.9z"/>
<path class="st3" d="M335.6,503.9c0-0.6,0.4-1,1-1s1,0.4,1,1s-0.4,1-1,1S335.6,504.4,335.6,503.9z M335.9,506.8h1.3v9.9H336
	L335.9,506.8z"/>
<path class="st3" d="M339.6,511.5c0-3.3,2-5,4.9-5s4.9,1.7,4.9,5v5.2H348v-5.2c0-2.4-1.4-3.7-3.5-3.7s-3.5,1.3-3.5,3.7v5.2h-1.3
	L339.6,511.5z"/>
<path class="st3" d="M351.4,503.9c0-0.6,0.4-1,1-1s1,0.4,1,1s-0.4,1-1,1S351.4,504.4,351.4,503.9z M351.7,506.8h1.3v9.9h-1.3V506.8z
	"/>
<path class="st3" d="M355.4,510.9c0-2.9,1.7-4.4,4-4.4c1.5-0.1,3,0.8,3.6,2.2c0.6-1.4,2-2.3,3.6-2.2c2.3,0,4,1.4,4,4.4v5.8h-1.3
	v-5.8c0-2.1-1.2-3.1-2.8-3.1s-2.8,1.1-2.8,3.1v5.8h-1.3v-5.8c0-2.1-1.2-3.1-2.8-3.1s-2.8,1-2.8,3.1v5.8h-1.3L355.4,510.9z"/>
<path class="st3" d="M372.5,503.9c0-0.6,0.4-1,1-1s1,0.4,1,1s-0.4,1-1,1S372.5,504.4,372.5,503.9z M372.8,506.8h1.3v9.9h-1.3V506.8z
	"/>
<path class="st3" d="M376.3,515.6l7.1-7.6h-6.8v-1.2h8.6v1.1l-7.1,7.6h7.3v1.2h-9.1L376.3,515.6z"/>
<path class="st3" d="M386.5,511.8c0.1-2.9,2.6-5.2,5.5-5.1c2.8,0.1,5,2.3,5.1,5.1v0.4h-9.2c0.1,2.1,1.9,3.6,3.9,3.5
	c1.4,0.1,2.7-0.6,3.4-1.8h1.5c-1.3,2.7-4.5,3.8-7.2,2.5C387.8,515.5,386.6,513.7,386.5,511.8L386.5,511.8z M395.7,511
	c-0.5-2.2-2.7-3.5-4.8-3c-1.5,0.3-2.6,1.5-3,3H395.7z"/>
<path class="st3" d="M398.4,513.9h1.4c0.1,1.1,1,1.8,2.7,1.8s2.7-0.8,2.7-1.9s-1.3-1.3-2.7-1.5c-1.8-0.2-3.8-0.5-3.8-2.7
	c0-1.9,1.5-3.1,3.8-3.1s3.8,1.3,3.8,3h-1.3c-0.1-1-1-1.7-2.5-1.7s-2.4,0.8-2.4,1.8c0,1.2,1.3,1.4,2.7,1.5s3.8,0.4,3.8,2.7
	c0,1.9-1.6,3.2-4,3.2S398.4,515.7,398.4,513.9z"/>
<path class="st3" d="M413,511.8c-0.1-2.8,2.1-5.1,4.9-5.2c0.1,0,0.3,0,0.4,0c2.4-0.1,4.5,1.4,5.1,3.7H422c-0.8-2-3.2-3-5.2-2.2
	s-3,3.2-2.2,5.2s3.2,3,5.2,2.2c1-0.4,1.8-1.2,2.2-2.2h1.4c-0.6,2.3-2.7,3.8-5.1,3.7c-2.8,0.1-5.2-2.1-5.3-4.9
	C413,512,413,511.9,413,511.8z"/>
<path class="st3" d="M424.6,511.8c-0.1-2.9,2.3-5.4,5.2-5.5c2.9-0.1,5.4,2.3,5.5,5.2s-2.3,5.4-5.2,5.5c0,0-0.1,0-0.1,0
	c-2.8,0.1-5.2-2-5.3-4.8C424.6,512,424.6,511.9,424.6,511.8z M433.9,511.8c0-2.2-1.8-4-4-4s-4,1.8-4,4c0,2.2,1.8,4,4,4
	c2.1,0.1,3.9-1.5,4-3.6C433.9,512,433.9,511.9,433.9,511.8z"/>
<path class="st3" d="M436.4,513.9h1.4c0.1,1.1,1,1.8,2.7,1.8s2.7-0.8,2.7-1.9s-1.3-1.3-2.7-1.5c-1.8-0.2-3.8-0.5-3.8-2.7
	c0-1.9,1.5-3.1,3.8-3.1s3.7,1.3,3.8,3h-1.3c-0.1-1-1-1.7-2.5-1.7s-2.4,0.8-2.4,1.8c0,1.2,1.3,1.4,2.7,1.5s3.8,0.4,3.8,2.7
	c0,1.9-1.6,3.2-4,3.2S436.5,515.7,436.4,513.9z"/>
<path class="st3" d="M446.1,513.1v-9.7h1.3v3.5h5.8v1.2h-5.8v5c0,1.4,1.1,2.5,2.5,2.5c1.4,0,2.5-1.1,2.5-2.5c0,0,0,0,0,0v-0.2h1.3
	v0.2c0,2.1-1.7,3.9-3.9,3.9C447.9,516.9,446.1,515.1,446.1,513.1L446.1,513.1z"/>
<path class="st3" d="M455.9,515.9c0-0.6,0.4-1,1-1s1,0.4,1,1s-0.4,1-1,1S455.9,516.5,455.9,515.9z"/>
<linearGradient id="SVGID_4_" gradientUnits="userSpaceOnUse" x1="88" y1="253.535" x2="676.27" y2="253.535" gradientTransform="matrix(1 0 0 -1 0 842)">
	<stop  offset="4.000000e-02" style="stop-color:#44CCF9"/>
	<stop  offset="0.12" style="stop-color:#48C4EF"/>
	<stop  offset="0.25" style="stop-color:#53AED4"/>
	<stop  offset="0.42" style="stop-color:#648BA9"/>
	<stop  offset="0.63" style="stop-color:#7C596D"/>
	<stop  offset="0.85" style="stop-color:#9B1B21"/>
	<stop  offset="0.95" style="stop-color:#A80000"/>
</linearGradient>
<path class="st4" d="M88,586.4c0-5.3,3.8-9.1,9.3-9.1s9.3,3.8,9.3,9.1s-3.8,9.1-9.3,9.1S88,591.6,88,586.4z M104.7,586.4
	c0-4.1-3.3-7.4-7.3-7.4s-7.4,3.3-7.4,7.3c0,4.1,3.3,7.4,7.3,7.4c0,0,0,0,0,0c3.9,0.1,7.2-2.9,7.3-6.8
	C104.7,586.7,104.7,586.5,104.7,586.4L104.7,586.4z M108.8,588.8v-6.9h1.8v6.9c0,3.2,1.9,5,4.7,5s4.7-1.8,4.7-5v-6.9h1.8v6.9
	c0,4.4-2.6,6.7-6.5,6.7S108.8,593.2,108.8,588.8L108.8,588.8z M124.5,587.2c0-3.8,2.3-5.7,5.6-5.7s5.5,1.8,5.5,5.7v0.2h-1.8v-0.2
	c0-2.8-1.5-4-3.8-4s-3.8,1.2-3.8,4v7.9h-1.8L124.5,587.2z M144.5,588.6c-0.2-3.7,2.7-6.8,6.4-7c0.2,0,0.4,0,0.6,0
	c3.8-0.2,6.9,2.7,7.1,6.4c0,0.2,0,0.4,0,0.6c0.1,3.7-2.7,6.8-6.4,6.9c-0.1,0-0.3,0-0.4,0c-2.3,0.1-4.5-1.1-5.6-3.2v8.5h-1.8V588.6z
	 M156.9,588.5c0-2.9-2.4-5.3-5.3-5.3c-2.9,0-5.3,2.4-5.3,5.3c0,2.9,2.4,5.3,5.3,5.3c0,0,0,0,0,0c2.8,0.1,5.2-2.1,5.2-4.9
	C156.8,588.7,156.8,588.6,156.9,588.5L156.9,588.5z M160.8,587.2c0-3.8,2.3-5.7,5.6-5.7s5.5,1.8,5.5,5.7v0.2h-1.8v-0.2
	c0-2.8-1.5-4-3.8-4s-3.8,1.2-3.8,4v7.9h-1.8L160.8,587.2z M173.1,588.5c-0.1-3.9,3.1-7.2,7-7.2c3.9-0.1,7.2,3.1,7.2,7
	s-3.1,7.2-7,7.2c0,0-0.1,0-0.1,0c-3.7,0.2-7-2.6-7.2-6.4C173,588.9,173,588.7,173.1,588.5L173.1,588.5z M185.5,588.5
	c0-2.9-2.4-5.3-5.3-5.3c-2.9,0-5.3,2.4-5.3,5.3c0,2.9,2.4,5.3,5.3,5.3c0,0,0,0,0,0c2.8,0.1,5.2-2.1,5.2-4.9
	C185.5,588.7,185.5,588.6,185.5,588.5L185.5,588.5z M188.9,588.5c-0.1-3.7,2.8-6.9,6.6-7c0.2,0,0.4,0,0.6,0c3.1-0.2,6,1.9,6.8,4.9
	H201c-1.1-2.7-4.2-4-6.9-2.9s-4,4.2-2.9,6.9s4.2,4,6.9,2.9c1.3-0.5,2.3-1.6,2.9-2.9h1.8c-0.8,3-3.7,5.1-6.8,4.9
	c-3.7,0.2-6.9-2.6-7.2-6.4C188.8,588.9,188.8,588.7,188.9,588.5L188.9,588.5z M204.4,588.5c0-3.9,3.2-7.1,7.1-7.1
	c3.9,0,7.1,3.2,7.1,7.1l0,0v0.6h-12.4c0.2,2.8,2.5,4.9,5.3,4.7c1.8,0.1,3.6-0.8,4.5-2.4h2c-1.7,3.6-6,5.1-9.6,3.3
	C206,593.6,204.5,591.2,204.4,588.5L204.4,588.5z M216.7,587.5c-0.6-2.9-3.3-4.8-6.2-4.2c-2.1,0.4-3.8,2.1-4.2,4.2H216.7z
	 M220.2,591.4h1.8c0.1,1.4,1.4,2.4,3.6,2.4s3.6-1.1,3.6-2.5c0-1.6-1.7-1.8-3.6-2c-2.4-0.3-5.1-0.7-5.1-3.6c0-2.5,1.9-4.2,5.1-4.2
	s5,1.7,5.1,4h-1.8c-0.1-1.3-1.3-2.3-3.3-2.3s-3.2,1-3.2,2.4c0,1.6,1.7,1.8,3.6,2.1c2.1,0.3,5.1,0.6,5.1,3.6c0,2.5-2.1,4.3-5.4,4.3
	S220.2,593.7,220.2,591.4L220.2,591.4z M232.7,591.4h1.8c0.1,1.4,1.4,2.4,3.6,2.4s3.6-1.1,3.6-2.5c0-1.6-1.7-1.8-3.6-2
	c-2.4-0.3-5.1-0.7-5.1-3.6c0-2.5,2-4.2,5.1-4.2s5,1.7,5.1,4h-1.8c-0.1-1.3-1.3-2.3-3.3-2.3s-3.2,1-3.2,2.4c0,1.6,1.7,1.8,3.6,2.1
	c2.1,0.3,5.1,0.6,5.1,3.6c0,2.5-2.1,4.3-5.4,4.3S232.7,593.7,232.7,591.4L232.7,591.4z M252.8,578c0-0.8,0.6-1.4,1.4-1.4
	c0.8,0,1.4,0.6,1.4,1.4c0,0.8-0.6,1.4-1.4,1.4c0,0,0,0,0,0C253.4,579.4,252.8,578.8,252.8,578C252.8,578,252.8,578,252.8,578z
	 M253.3,581.9h1.8v13.2h-1.8V581.9z M258.1,588.2c0-4.4,2.6-6.7,6.5-6.7s6.5,2.3,6.5,6.7v6.9h-1.8v-6.9c0-3.3-1.9-5-4.7-5
	s-4.7,1.7-4.7,5v6.9h-1.8L258.1,588.2z M280.4,588.6c0-3.9,3.2-7.1,7.1-7.1s7.1,3.2,7.1,7.1v6.5h-1.7v-3.3c-0.9,2.3-3.2,3.7-5.7,3.6
	c-3.7,0.1-6.7-2.8-6.8-6.4C280.4,588.9,280.4,588.7,280.4,588.6L280.4,588.6z M292.8,588.5c0-2.9-2.4-5.3-5.3-5.3
	c-2.9,0-5.3,2.4-5.3,5.3c0,2.9,2.4,5.3,5.3,5.3c0,0,0,0,0,0c2.8,0.1,5.2-2.1,5.3-4.9C292.8,588.8,292.8,588.7,292.8,588.5
	L292.8,588.5z M304.3,588.2c0-4.4,2.6-6.7,6.5-6.7s6.5,2.3,6.5,6.7v6.9h-1.8v-6.9c0-3.3-1.9-5-4.7-5s-4.7,1.7-4.7,5v6.9h-1.8
	L304.3,588.2z M320,588.8v-6.9h1.8v6.9c0,3.2,1.9,5,4.7,5s4.7-1.8,4.7-5v-6.9h1.8v6.9c0,4.4-2.6,6.7-6.5,6.7S320,593.2,320,588.8
	L320,588.8z M335.7,590.3v-13h1.8v4.7h7.8v1.6h-7.8v6.7c0,2.4,1.3,3.5,3.4,3.5s3.4-1.1,3.4-3.5V590h1.7v0.3c0,3.5-2.1,5.2-5.1,5.2
	S335.7,593.7,335.7,590.3L335.7,590.3z M347.8,591.4h1.8c0.1,1.4,1.4,2.4,3.6,2.4s3.6-1.1,3.6-2.5c0-1.6-1.7-1.8-3.6-2
	c-2.4-0.3-5.1-0.7-5.1-3.6c0-2.5,2-4.2,5-4.2s5,1.7,5.1,4h-1.8c-0.1-1.3-1.3-2.3-3.3-2.3s-3.2,1-3.2,2.4c0,1.6,1.7,1.8,3.6,2.1
	c2.1,0.3,5.1,0.6,5.1,3.6c0,2.5-2.1,4.3-5.4,4.3S347.9,593.7,347.8,591.4L347.8,591.4z M361.2,576.2h1.8v8.3c0.9-1.9,2.9-3,5-2.9
	c3.5,0,6.3,2.1,6.3,6.7v6.9h-1.8v-6.9c0-3.3-1.9-5-4.7-5s-4.7,1.8-4.7,5v6.9h-1.8L361.2,576.2z M376.3,588.5c0-3.9,3.2-7.1,7.1-7.1
	c3.9,0,7.1,3.2,7.1,7.1v0.6h-12.3c0.2,2.8,2.5,4.9,5.3,4.7c1.8,0.1,3.6-0.8,4.5-2.4h2c-1.7,3.6-6,5.1-9.6,3.3
	C378,593.6,376.4,591.2,376.3,588.5L376.3,588.5z M388.6,587.5c-0.6-2.9-3.3-4.8-6.2-4.2c-2.1,0.4-3.8,2.1-4.2,4.2H388.6z
	 M393.1,576.2h1.8v19h-1.8V576.2z M398.5,576.2h1.8v19h-1.8V576.2z M404,584.3c0-0.7,0.6-1.4,1.3-1.4c0,0,0,0,0.1,0
	c0.8,0,1.4,0.6,1.4,1.4s-0.6,1.4-1.4,1.4C404.6,585.7,404,585,404,584.3L404,584.3z M404,594.2c0-0.7,0.6-1.4,1.3-1.4c0,0,0,0,0.1,0
	c0.8,0,1.4,0.6,1.4,1.4s-0.6,1.4-1.4,1.4C404.6,595.5,404,594.9,404,594.2L404,594.2z"/>
<g id="_07">
	<g>
		
			<linearGradient id="SVGID_5_" gradientUnits="userSpaceOnUse" x1="1374.7106" y1="98.6617" x2="1454.6105" y2="98.6617" gradientTransform="matrix(1 1.745329e-04 1.745329e-04 -1 -1011.8777 711.791)">
			<stop  offset="0" style="stop-color:#FFFFFF"/>
			<stop  offset="1" style="stop-color:#FFFFFF"/>
		</linearGradient>
		<path class="st5" d="M439.1,617c-2,0-3.6-1.6-3.6-3.6c0-2,1.6-3.6,3.6-3.6c2,0,3.6,1.6,3.6,3.6l0,0
			C442.8,615.4,441.1,617,439.1,617z M426.4,613.4c0-2-1.6-3.6-3.6-3.6s-3.6,1.6-3.6,3.6c0,2,1.6,3.6,3.6,3.6c0,0,0,0,0,0
			C424.8,617,426.4,615.4,426.4,613.4C426.4,613.4,426.4,613.4,426.4,613.4L426.4,613.4z M415.1,613.4c0-2-1.6-3.6-3.6-3.6
			s-3.6,1.6-3.6,3.6c0,2,1.6,3.6,3.6,3.6c0,0,0,0,0,0C413.5,617,415.2,615.4,415.1,613.4C415.2,613.4,415.2,613.4,415.1,613.4
			L415.1,613.4z M403.9,613.4c0-2-1.6-3.6-3.6-3.6s-3.6,1.6-3.6,3.6c0,2,1.6,3.6,3.6,3.6c0,0,0,0,0,0
			C402.3,617,403.9,615.4,403.9,613.4C403.9,613.4,403.9,613.4,403.9,613.4L403.9,613.4z M392.6,613.4c0-2-1.6-3.6-3.6-3.6
			s-3.6,1.6-3.6,3.6c0,2,1.6,3.6,3.6,3.6c0,0,0,0,0,0C391,617,392.6,615.4,392.6,613.4C392.6,613.4,392.6,613.4,392.6,613.4
			L392.6,613.4z M381.3,613.4c0-2-1.6-3.6-3.6-3.6s-3.6,1.6-3.6,3.6c0,2,1.6,3.6,3.6,3.6c0,0,0,0,0,0
			C379.7,617,381.3,615.4,381.3,613.4C381.3,613.4,381.3,613.4,381.3,613.4L381.3,613.4z M370.1,613.4c0-2-1.6-3.6-3.6-3.6
			s-3.6,1.6-3.6,3.6c0,2,1.6,3.6,3.6,3.6c0,0,0,0,0,0C368.4,617,370.1,615.4,370.1,613.4C370.1,613.4,370.1,613.4,370.1,613.4
			L370.1,613.4z M435.6,620.6c0-2-1.6-3.6-3.6-3.6s-3.6,1.6-3.6,3.6c0,2,1.6,3.6,3.6,3.6c0,0,0,0,0,0
			C433.9,624.2,435.6,622.6,435.6,620.6C435.6,620.6,435.6,620.6,435.6,620.6L435.6,620.6z M428.4,627.8c0-2-1.6-3.6-3.6-3.6
			s-3.6,1.6-3.6,3.6c0,2,1.6,3.6,3.6,3.6c0,0,0,0,0,0C426.7,631.4,428.4,629.8,428.4,627.8C428.4,627.8,428.4,627.8,428.4,627.8
			L428.4,627.8z M432,602.6c-2,0-3.6,1.6-3.6,3.6c0,2,1.6,3.6,3.6,3.6c2,0,3.6-1.6,3.6-3.6l0,0C435.6,604.2,434,602.6,432,602.6
			C432,602.6,432,602.6,432,602.6L432,602.6z M424.8,595.4c-2,0-3.6,1.6-3.6,3.6c0,2,1.6,3.6,3.6,3.6c2,0,3.6-1.6,3.6-3.6l0,0
			C428.4,597,426.8,595.4,424.8,595.4C424.8,595.4,424.8,595.3,424.8,595.4L424.8,595.4z"/>
	</g>
</g>
</svg>
