<?xml version="1.0" encoding="utf-8"?>
<!-- Generator: Adobe Illustrator 24.0.1, SVG Export Plug-In . SVG Version: 6.00 Build 0)  -->
<svg version="1.1" id="SeerCycle" xmlns="http://www.w3.org/2000/svg" xmlns:xlink="http://www.w3.org/1999/xlink" x="0px" y="0px"
	 viewBox="0 0 673 674.8" style="enable-background:new 0 0 673 674.8;" xml:space="preserve">
<style type="text/css">
	.st0{fill:url(#SVGID_1_);}
	.st1{fill:url(#SVGID_2_);}
	.st2{fill:url(#SVGID_3_);}
	.st3{fill:url(#SVGID_4_);}
	.st4{fill:url(#SVGID_5_);}
	.st5{fill:url(#SVGID_6_);}
	.st6{fill:url(#SVGID_7_);}
	.st7{fill:url(#SVGID_8_);}
	.st8{fill:url(#SVGID_9_);}
	.st9{fill:url(#SVGID_10_);}
	.st10{fill:url(#SVGID_11_);}
	.st11{fill:url(#SVGID_12_);}
	.st12{fill:url(#SVGID_13_);}
	.st13{fill:url(#SVGID_14_);}
	.st14{fill:url(#SVGID_15_);}
	.st15{fill:url(#SVGID_16_);}
	.st16{fill:url(#SVGID_17_);}
	.st17{fill:url(#SVGID_18_);}
	.st18{fill:url(#SVGID_19_);}
	.st19{fill:url(#SVGID_20_);}
	.st20{fill:url(#SVGID_21_);}
	.st21{fill:url(#SVGID_22_);}
	.st22{fill:url(#SVGID_23_);}
	.st23{fill:url(#SVGID_24_);}
	.st24{fill:url(#SVGID_25_);}
	.st25{fill:url(#SVGID_26_);}
	.st26{fill:url(#SVGID_27_);}
	.st27{fill:url(#SVGID_28_);}
	.st28{fill:url(#SVGID_29_);}
	.st29{fill:url(#SVGID_30_);}
	.st30{fill:url(#SVGID_31_);}
	.st31{fill:url(#SVGID_32_);}
	.st32{fill:url(#SVGID_33_);}
	.st33{fill:url(#SVGID_34_);}
	.st34{fill:url(#SVGID_35_);}
	.st35{fill:url(#SVGID_36_);}
	.st36{fill:url(#SVGID_37_);}
	.st37{fill:url(#SVGID_38_);}
	.st38{fill:url(#SVGID_39_);}
	.st39{fill:url(#SVGID_40_);}
	.st40{fill:url(#SVGID_41_);}
	.st41{fill:url(#SVGID_42_);}
	.st42{fill:url(#SVGID_43_);}
	.st43{fill:url(#SVGID_44_);}
	.st44{fill:url(#SVGID_45_);}
	.st45{fill:url(#SVGID_46_);}
	.st46{fill:url(#SVGID_47_);}
	.st47{fill:url(#SVGID_48_);}
	.st48{fill:url(#SVGID_49_);}
	.st49{fill:url(#SVGID_50_);}
	.st50{fill:url(#SVGID_51_);}
	.st51{fill:url(#SVGID_52_);}
	.st52{fill:url(#SVGID_53_);}
	.st53{fill:url(#SVGID_54_);}
	.st54{fill:url(#SVGID_55_);}
	.st55{fill:url(#SVGID_56_);}
	.st56{fill:url(#SVGID_57_);}
	.st57{fill:url(#SVGID_58_);}
	.st58{fill:url(#SVGID_59_);}
	.st59{fill:url(#SVGID_60_);}
	.st60{fill:url(#SVGID_61_);}
	.st61{fill:url(#SVGID_62_);}
	.st62{fill:url(#SVGID_63_);}
	.st63{fill:url(#SVGID_64_);}
	.st64{fill:url(#SVGID_65_);}
	.st65{fill:url(#SVGID_66_);}
	.st66{fill:url(#SVGID_67_);}
	.st67{fill:url(#SVGID_68_);}
	.st68{fill:url(#SVGID_69_);}
	.st69{fill:url(#SVGID_70_);}
	.st70{fill:url(#SVGID_71_);}
	.st71{fill:url(#SVGID_72_);}
	.st72{fill:url(#SVGID_73_);}
	.st73{fill:url(#SVGID_74_);}
	.st74{fill:url(#SVGID_75_);}
	.st75{fill:url(#SVGID_76_);}
	.st76{fill:url(#SVGID_77_);}
	.st77{fill:url(#SVGID_78_);}
	.st78{fill:url(#SVGID_79_);}
	.st79{fill:url(#SVGID_80_);}
	.st80{fill:url(#SVGID_81_);}
	.st81{fill:url(#SVGID_82_);}
	.st82{fill:url(#SVGID_83_);}
	.st83{fill:url(#SVGID_84_);}
	.st84{fill:url(#SVGID_85_);}
	.st85{fill:url(#SVGID_86_);}
	.st86{fill:url(#SVGID_87_);}
	.st87{fill:url(#SVGID_88_);}
	.st88{fill:url(#SVGID_89_);}
	.st89{fill:url(#SVGID_90_);}
	.st90{opacity:5.000000e-02;fill:#FFFFFF;enable-background:new    ;}
	.st91{fill:url(#SVGID_91_);}
	.st92{fill:#FFFFFF;}
	.st93{fill:url(#SVGID_92_);}
	.st94{fill:url(#SVGID_93_);}
	.st95{fill:url(#SVGID_94_);}
	.st96{fill:url(#SVGID_95_);}
	.st97{fill:url(#SVGID_96_);}
	.st98{fill:url(#SVGID_97_);}
	.st99{fill:url(#SVGID_98_);}
	.st100{fill:url(#SVGID_99_);}
	.st101{fill:url(#SVGID_100_);}
	.st102{fill:url(#SVGID_101_);}
	.st103{fill:url(#SVGID_102_);}
	.st104{fill:url(#SVGID_103_);}
	.st105{fill:url(#SVGID_104_);}
	.st106{fill:url(#SVGID_105_);}
	.st107{opacity:0.15;fill:#FFFFFF;enable-background:new    ;}
	.st108{fill:url(#SVGID_106_);}
	.st109{fill:#001A28;}
	.st110{fill:url(#SVGID_107_);}
	.st111{fill:url(#SVGID_108_);}
	.st112{fill:url(#SVGID_109_);}
	.st113{fill:url(#SVGID_110_);}
	.st114{fill:url(#SVGID_111_);}
	.st115{fill:url(#SVGID_112_);}
</style>
<linearGradient id="SVGID_1_" gradientUnits="userSpaceOnUse" x1="-277.2247" y1="-796.5959" x2="-272.1947" y2="-796.5959" gradientTransform="matrix(0.9585 -0.285 -0.285 -0.9585 284.9957 -755.6395)">
	<stop  offset="1.000000e-02" style="stop-color:#35435F"/>
	<stop  offset="0.97" style="stop-color:#000000"/>
</linearGradient>
<circle class="st0" cx="248.6" cy="86.2" r="2.5"/>
<linearGradient id="SVGID_2_" gradientUnits="userSpaceOnUse" x1="-266.3147" y1="-795.9669" x2="-261.2933" y2="-795.9669" gradientTransform="matrix(0.9585 -0.285 -0.285 -0.9585 284.9957 -755.6395)">
	<stop  offset="1.000000e-02" style="stop-color:#35435F"/>
	<stop  offset="0.97" style="stop-color:#000000"/>
</linearGradient>
<circle class="st1" cx="258.9" cy="82.5" r="2.5"/>
<linearGradient id="SVGID_3_" gradientUnits="userSpaceOnUse" x1="-271.2947" y1="-790.7321" x2="-266.2647" y2="-790.7321" gradientTransform="matrix(0.9585 -0.285 -0.285 -0.9585 284.9957 -755.6395)">
	<stop  offset="1.000000e-02" style="stop-color:#35435F"/>
	<stop  offset="0.97" style="stop-color:#000000"/>
</linearGradient>
<circle class="st2" cx="252.6" cy="78.9" r="2.5"/>
<linearGradient id="SVGID_4_" gradientUnits="userSpaceOnUse" x1="-271.2947" y1="-801.4138" x2="-266.2647" y2="-801.4138" gradientTransform="matrix(0.9585 -0.285 -0.285 -0.9585 284.9957 -755.6395)">
	<stop  offset="1.000000e-02" style="stop-color:#35435F"/>
	<stop  offset="0.97" style="stop-color:#000000"/>
</linearGradient>
<circle class="st3" cx="255.7" cy="89.2" r="2.5"/>
<linearGradient id="SVGID_5_" gradientUnits="userSpaceOnUse" x1="-276.9347" y1="-786.1549" x2="-271.9134" y2="-786.1549" gradientTransform="matrix(0.9585 -0.285 -0.285 -0.9585 284.9957 -755.6395)">
	<stop  offset="1.000000e-02" style="stop-color:#35435F"/>
	<stop  offset="0.97" style="stop-color:#000000"/>
</linearGradient>
<circle class="st4" cx="245.9" cy="76.2" r="2.5"/>
<linearGradient id="SVGID_6_" gradientUnits="userSpaceOnUse" x1="-276.9347" y1="-805.9868" x2="-271.9134" y2="-805.9868" gradientTransform="matrix(0.9585 -0.285 -0.285 -0.9585 284.9957 -755.6395)">
	<stop  offset="1.000000e-02" style="stop-color:#35435F"/>
	<stop  offset="0.97" style="stop-color:#000000"/>
</linearGradient>
<circle class="st5" cx="251.5" cy="95.2" r="2.5"/>
<linearGradient id="SVGID_7_" gradientUnits="userSpaceOnUse" x1="-284.5347" y1="-796.8129" x2="-279.5047" y2="-796.8129" gradientTransform="matrix(0.9585 -0.285 -0.285 -0.9585 284.9957 -755.6395)">
	<stop  offset="1.000000e-02" style="stop-color:#35435F"/>
	<stop  offset="0.97" style="stop-color:#000000"/>
</linearGradient>
<circle class="st6" cx="241.7" cy="88.5" r="2.5"/>
<linearGradient id="SVGID_8_" gradientUnits="userSpaceOnUse" x1="-291.9747" y1="-797.5599" x2="-286.9533" y2="-797.5599" gradientTransform="matrix(0.9585 -0.285 -0.285 -0.9585 284.9957 -755.6395)">
	<stop  offset="1.000000e-02" style="stop-color:#35435F"/>
	<stop  offset="0.97" style="stop-color:#000000"/>
</linearGradient>
<circle class="st7" cx="234.7" cy="91.4" r="2.5"/>
<linearGradient id="SVGID_9_" gradientUnits="userSpaceOnUse" x1="-299.4447" y1="-798.3961" x2="-294.4147" y2="-798.3961" gradientTransform="matrix(0.9585 -0.285 -0.285 -0.9585 284.9957 -755.6395)">
	<stop  offset="1.000000e-02" style="stop-color:#35435F"/>
	<stop  offset="0.97" style="stop-color:#000000"/>
</linearGradient>
<circle class="st8" cx="227.8" cy="94.3" r="2.5"/>
<linearGradient id="SVGID_10_" gradientUnits="userSpaceOnUse" x1="-306.8747" y1="-799.098" x2="-301.8447" y2="-799.098" gradientTransform="matrix(0.9585 -0.285 -0.285 -0.9585 284.9957 -755.6395)">
	<stop  offset="1.000000e-02" style="stop-color:#35435F"/>
	<stop  offset="0.97" style="stop-color:#000000"/>
</linearGradient>
<circle class="st9" cx="220.9" cy="97.1" r="2.5"/>
<linearGradient id="SVGID_11_" gradientUnits="userSpaceOnUse" x1="-314.5747" y1="-800.8341" x2="-309.5447" y2="-800.8341" gradientTransform="matrix(0.9585 -0.285 -0.285 -0.9585 284.9957 -755.6395)">
	<stop  offset="1.000000e-02" style="stop-color:#35435F"/>
	<stop  offset="0.97" style="stop-color:#000000"/>
</linearGradient>
<circle class="st10" cx="214" cy="101" r="2.5"/>
<linearGradient id="SVGID_12_" gradientUnits="userSpaceOnUse" x1="-3664.678" y1="-3391.0369" x2="-3659.6479" y2="-3391.0369" gradientTransform="matrix(0.46 -0.89 -0.89 -0.46 -1230.1138 -4610.3125)">
	<stop  offset="1.000000e-02" style="stop-color:#35435F"/>
	<stop  offset="0.97" style="stop-color:#000000"/>
</linearGradient>
<circle class="st11" cx="96.6" cy="221.9" r="2.5"/>
<linearGradient id="SVGID_13_" gradientUnits="userSpaceOnUse" x1="-3653.7781" y1="-3390.4536" x2="-3648.748" y2="-3390.4536" gradientTransform="matrix(0.46 -0.89 -0.89 -0.46 -1230.1138 -4610.3125)">
	<stop  offset="1.000000e-02" style="stop-color:#35435F"/>
	<stop  offset="0.97" style="stop-color:#000000"/>
</linearGradient>
<circle class="st12" cx="101.1" cy="211.9" r="2.5"/>
<linearGradient id="SVGID_14_" gradientUnits="userSpaceOnUse" x1="-3658.7581" y1="-3385.2117" x2="-3653.728" y2="-3385.2117" gradientTransform="matrix(0.46 -0.89 -0.89 -0.46 -1230.1138 -4610.3125)">
	<stop  offset="1.000000e-02" style="stop-color:#35435F"/>
	<stop  offset="0.97" style="stop-color:#000000"/>
</linearGradient>
<circle class="st13" cx="94.2" cy="213.9" r="2.5"/>
<linearGradient id="SVGID_15_" gradientUnits="userSpaceOnUse" x1="-3658.7581" y1="-3395.8777" x2="-3653.728" y2="-3395.8777" gradientTransform="matrix(0.46 -0.89 -0.89 -0.46 -1230.1138 -4610.3125)">
	<stop  offset="1.000000e-02" style="stop-color:#35435F"/>
	<stop  offset="0.97" style="stop-color:#000000"/>
</linearGradient>
<circle class="st14" cx="103.6" cy="218.9" r="2.5"/>
<linearGradient id="SVGID_16_" gradientUnits="userSpaceOnUse" x1="-3664.3979" y1="-3380.6172" x2="-3659.3679" y2="-3380.6172" gradientTransform="matrix(0.46 -0.89 -0.89 -0.46 -1230.1138 -4610.3125)">
	<stop  offset="1.000000e-02" style="stop-color:#35435F"/>
	<stop  offset="0.97" style="stop-color:#000000"/>
</linearGradient>
<circle class="st15" cx="87.5" cy="216.8" r="2.5"/>
<linearGradient id="SVGID_17_" gradientUnits="userSpaceOnUse" x1="-3664.3979" y1="-3400.4175" x2="-3659.3679" y2="-3400.4175" gradientTransform="matrix(0.46 -0.89 -0.89 -0.46 -1230.1138 -4610.3125)">
	<stop  offset="1.000000e-02" style="stop-color:#35435F"/>
	<stop  offset="0.97" style="stop-color:#000000"/>
</linearGradient>
<circle class="st16" cx="105.1" cy="226" r="2.5"/>
<linearGradient id="SVGID_18_" gradientUnits="userSpaceOnUse" x1="-3671.988" y1="-3391.2104" x2="-3666.958" y2="-3391.2104" gradientTransform="matrix(0.46 -0.89 -0.89 -0.46 -1230.1138 -4610.3125)">
	<stop  offset="1.000000e-02" style="stop-color:#35435F"/>
	<stop  offset="0.97" style="stop-color:#000000"/>
</linearGradient>
<circle class="st17" cx="93.4" cy="228.5" r="2.5"/>
<linearGradient id="SVGID_19_" gradientUnits="userSpaceOnUse" x1="-3679.438" y1="-3391.9307" x2="-3674.408" y2="-3391.9307" gradientTransform="matrix(0.46 -0.89 -0.89 -0.46 -1230.1138 -4610.3125)">
	<stop  offset="1.000000e-02" style="stop-color:#35435F"/>
	<stop  offset="0.97" style="stop-color:#000000"/>
</linearGradient>
<circle class="st18" cx="90.6" cy="235.4" r="2.5"/>
<linearGradient id="SVGID_20_" gradientUnits="userSpaceOnUse" x1="-3686.908" y1="-3392.7314" x2="-3681.8779" y2="-3392.7314" gradientTransform="matrix(0.46 -0.89 -0.89 -0.46 -1230.1138 -4610.3125)">
	<stop  offset="1.000000e-02" style="stop-color:#35435F"/>
	<stop  offset="0.97" style="stop-color:#000000"/>
</linearGradient>
<circle class="st19" cx="87.9" cy="242.4" r="2.5"/>
<linearGradient id="SVGID_21_" gradientUnits="userSpaceOnUse" x1="-3694.3379" y1="-3393.3889" x2="-3689.3081" y2="-3393.3889" gradientTransform="matrix(0.46 -0.89 -0.89 -0.46 -1230.1138 -4610.3125)">
	<stop  offset="1.000000e-02" style="stop-color:#35435F"/>
	<stop  offset="0.97" style="stop-color:#000000"/>
</linearGradient>
<circle class="st20" cx="85.1" cy="249.3" r="2.5"/>
<linearGradient id="SVGID_22_" gradientUnits="userSpaceOnUse" x1="-3702.0381" y1="-3395.0811" x2="-3697.0081" y2="-3395.0811" gradientTransform="matrix(0.46 -0.89 -0.89 -0.46 -1230.1138 -4610.3125)">
	<stop  offset="1.000000e-02" style="stop-color:#35435F"/>
	<stop  offset="0.97" style="stop-color:#000000"/>
</linearGradient>
<circle class="st21" cx="83" cy="256.9" r="2.5"/>
<linearGradient id="SVGID_23_" gradientUnits="userSpaceOnUse" x1="-2333.7786" y1="5931.7256" x2="-2328.7485" y2="5931.7256" gradientTransform="matrix(0.2741 0.9617 0.9617 -0.2741 -4476.9175 4118.2397)">
	<stop  offset="1.000000e-02" style="stop-color:#35435F"/>
	<stop  offset="0.97" style="stop-color:#000000"/>
</linearGradient>
<circle class="st22" cx="588.5" cy="250.1" r="2.5"/>
<linearGradient id="SVGID_24_" gradientUnits="userSpaceOnUse" x1="-2322.8687" y1="5932.3618" x2="-2317.8472" y2="5932.3618" gradientTransform="matrix(0.2741 0.9617 0.9617 -0.2741 -4476.9175 4118.2397)">
	<stop  offset="1.000000e-02" style="stop-color:#35435F"/>
	<stop  offset="0.97" style="stop-color:#000000"/>
</linearGradient>
<circle class="st23" cx="592.1" cy="260.4" r="2.5"/>
<linearGradient id="SVGID_25_" gradientUnits="userSpaceOnUse" x1="-2327.8486" y1="5937.5864" x2="-2322.8186" y2="5937.5864" gradientTransform="matrix(0.2741 0.9617 0.9617 -0.2741 -4476.9175 4118.2397)">
	<stop  offset="1.000000e-02" style="stop-color:#35435F"/>
	<stop  offset="0.97" style="stop-color:#000000"/>
</linearGradient>
<circle class="st24" cx="595.7" cy="254.1" r="2.5"/>
<linearGradient id="SVGID_26_" gradientUnits="userSpaceOnUse" x1="-2327.8486" y1="5926.9067" x2="-2322.8186" y2="5926.9067" gradientTransform="matrix(0.2741 0.9617 0.9617 -0.2741 -4476.9175 4118.2397)">
	<stop  offset="1.000000e-02" style="stop-color:#35435F"/>
	<stop  offset="0.97" style="stop-color:#000000"/>
</linearGradient>
<circle class="st25" cx="585.5" cy="257.1" r="2.5"/>
<linearGradient id="SVGID_27_" gradientUnits="userSpaceOnUse" x1="-2333.4885" y1="5942.168" x2="-2328.4585" y2="5942.168" gradientTransform="matrix(0.2741 0.9617 0.9617 -0.2741 -4476.9175 4118.2397)">
	<stop  offset="1.000000e-02" style="stop-color:#35435F"/>
	<stop  offset="0.97" style="stop-color:#000000"/>
</linearGradient>
<circle class="st26" cx="598.6" cy="247.5" r="2.5"/>
<linearGradient id="SVGID_28_" gradientUnits="userSpaceOnUse" x1="-2333.4885" y1="5922.3374" x2="-2328.4585" y2="5922.3374" gradientTransform="matrix(0.2741 0.9617 0.9617 -0.2741 -4476.9175 4118.2397)">
	<stop  offset="1.000000e-02" style="stop-color:#35435F"/>
	<stop  offset="0.97" style="stop-color:#000000"/>
</linearGradient>
<circle class="st27" cx="579.5" cy="252.9" r="2.5"/>
<linearGradient id="SVGID_29_" gradientUnits="userSpaceOnUse" x1="-2341.0786" y1="5931.5112" x2="-2336.0574" y2="5931.5112" gradientTransform="matrix(0.2741 0.9617 0.9617 -0.2741 -4476.9175 4118.2397)">
	<stop  offset="1.000000e-02" style="stop-color:#35435F"/>
	<stop  offset="0.97" style="stop-color:#000000"/>
</linearGradient>
<circle class="st28" cx="586.3" cy="243.1" r="2.5"/>
<linearGradient id="SVGID_30_" gradientUnits="userSpaceOnUse" x1="-2348.5286" y1="5930.7524" x2="-2343.4985" y2="5930.7524" gradientTransform="matrix(0.2741 0.9617 0.9617 -0.2741 -4476.9175 4118.2397)">
	<stop  offset="1.000000e-02" style="stop-color:#35435F"/>
	<stop  offset="0.97" style="stop-color:#000000"/>
</linearGradient>
<circle class="st29" cx="583.5" cy="236.1" r="2.5"/>
<linearGradient id="SVGID_31_" gradientUnits="userSpaceOnUse" x1="-2355.9985" y1="5929.917" x2="-2350.9685" y2="5929.917" gradientTransform="matrix(0.2741 0.9617 0.9617 -0.2741 -4476.9175 4118.2397)">
	<stop  offset="1.000000e-02" style="stop-color:#35435F"/>
	<stop  offset="0.97" style="stop-color:#000000"/>
</linearGradient>
<circle class="st30" cx="580.6" cy="229.2" r="2.5"/>
<linearGradient id="SVGID_32_" gradientUnits="userSpaceOnUse" x1="-2363.4287" y1="5929.228" x2="-2358.3987" y2="5929.228" gradientTransform="matrix(0.2741 0.9617 0.9617 -0.2741 -4476.9175 4118.2397)">
	<stop  offset="1.000000e-02" style="stop-color:#35435F"/>
	<stop  offset="0.97" style="stop-color:#000000"/>
</linearGradient>
<circle class="st31" cx="577.9" cy="222.2" r="2.5"/>
<linearGradient id="SVGID_33_" gradientUnits="userSpaceOnUse" x1="-2371.1287" y1="5927.4829" x2="-2366.0986" y2="5927.4829" gradientTransform="matrix(0.2741 0.9617 0.9617 -0.2741 -4476.9175 4118.2397)">
	<stop  offset="1.000000e-02" style="stop-color:#35435F"/>
	<stop  offset="0.97" style="stop-color:#000000"/>
</linearGradient>
<circle class="st32" cx="574.2" cy="215.3" r="2.5"/>
<linearGradient id="SVGID_34_" gradientUnits="userSpaceOnUse" x1="359.3864" y1="3144.7029" x2="364.4163" y2="3144.7029" gradientTransform="matrix(0.8803 0.4744 0.4744 -0.8803 -1358.0315 2694.3979)">
	<stop  offset="1.000000e-02" style="stop-color:#35435F"/>
	<stop  offset="0.97" style="stop-color:#000000"/>
</linearGradient>
<circle class="st33" cx="452.3" cy="97.7" r="2.5"/>
<linearGradient id="SVGID_35_" gradientUnits="userSpaceOnUse" x1="370.2864" y1="3145.3411" x2="375.3163" y2="3145.3411" gradientTransform="matrix(0.8803 0.4744 0.4744 -0.8803 -1358.0315 2694.3979)">
	<stop  offset="1.000000e-02" style="stop-color:#35435F"/>
	<stop  offset="0.97" style="stop-color:#000000"/>
</linearGradient>
<circle class="st34" cx="462.2" cy="102.3" r="2.5"/>
<linearGradient id="SVGID_36_" gradientUnits="userSpaceOnUse" x1="365.3063" y1="3150.5667" x2="370.3364" y2="3150.5667" gradientTransform="matrix(0.8803 0.4744 0.4744 -0.8803 -1358.0315 2694.3979)">
	<stop  offset="1.000000e-02" style="stop-color:#35435F"/>
	<stop  offset="0.97" style="stop-color:#000000"/>
</linearGradient>
<circle class="st35" cx="460.3" cy="95.3" r="2.5"/>
<linearGradient id="SVGID_37_" gradientUnits="userSpaceOnUse" x1="365.3063" y1="3139.8914" x2="370.3364" y2="3139.8914" gradientTransform="matrix(0.8803 0.4744 0.4744 -0.8803 -1358.0315 2694.3979)">
	<stop  offset="1.000000e-02" style="stop-color:#35435F"/>
	<stop  offset="0.97" style="stop-color:#000000"/>
</linearGradient>
<circle class="st36" cx="455.2" cy="104.7" r="2.5"/>
<linearGradient id="SVGID_38_" gradientUnits="userSpaceOnUse" x1="359.6663" y1="3155.1501" x2="364.6964" y2="3155.1501" gradientTransform="matrix(0.8803 0.4744 0.4744 -0.8803 -1358.0315 2694.3979)">
	<stop  offset="1.000000e-02" style="stop-color:#35435F"/>
	<stop  offset="0.97" style="stop-color:#000000"/>
</linearGradient>
<circle class="st37" cx="457.5" cy="88.6" r="2.5"/>
<linearGradient id="SVGID_39_" gradientUnits="userSpaceOnUse" x1="359.6663" y1="3135.3157" x2="364.6964" y2="3135.3157" gradientTransform="matrix(0.8803 0.4744 0.4744 -0.8803 -1358.0315 2694.3979)">
	<stop  offset="1.000000e-02" style="stop-color:#35435F"/>
	<stop  offset="0.97" style="stop-color:#000000"/>
</linearGradient>
<circle class="st38" cx="448.1" cy="106.1" r="2.5"/>
<linearGradient id="SVGID_40_" gradientUnits="userSpaceOnUse" x1="352.0764" y1="3144.4924" x2="357.1063" y2="3144.4924" gradientTransform="matrix(0.8803 0.4744 0.4744 -0.8803 -1358.0315 2694.3979)">
	<stop  offset="1.000000e-02" style="stop-color:#35435F"/>
	<stop  offset="0.97" style="stop-color:#000000"/>
</linearGradient>
<circle class="st39" cx="445.7" cy="94.4" r="2.5"/>
<linearGradient id="SVGID_41_" gradientUnits="userSpaceOnUse" x1="344.6263" y1="3143.7361" x2="349.6564" y2="3143.7361" gradientTransform="matrix(0.8803 0.4744 0.4744 -0.8803 -1358.0315 2694.3979)">
	<stop  offset="1.000000e-02" style="stop-color:#35435F"/>
	<stop  offset="0.97" style="stop-color:#000000"/>
</linearGradient>
<circle class="st40" cx="438.8" cy="91.5" r="2.5"/>
<linearGradient id="SVGID_42_" gradientUnits="userSpaceOnUse" x1="337.1564" y1="3142.9033" x2="342.1863" y2="3142.9033" gradientTransform="matrix(0.8803 0.4744 0.4744 -0.8803 -1358.0315 2694.3979)">
	<stop  offset="1.000000e-02" style="stop-color:#35435F"/>
	<stop  offset="0.97" style="stop-color:#000000"/>
</linearGradient>
<circle class="st41" cx="431.8" cy="88.7" r="2.5"/>
<linearGradient id="SVGID_43_" gradientUnits="userSpaceOnUse" x1="329.7264" y1="3142.2058" x2="334.7563" y2="3142.2058" gradientTransform="matrix(0.8803 0.4744 0.4744 -0.8803 -1358.0315 2694.3979)">
	<stop  offset="1.000000e-02" style="stop-color:#35435F"/>
	<stop  offset="0.97" style="stop-color:#000000"/>
</linearGradient>
<circle class="st42" cx="425" cy="85.8" r="2.5"/>
<linearGradient id="SVGID_44_" gradientUnits="userSpaceOnUse" x1="322.0264" y1="3140.4668" x2="327.0563" y2="3140.4668" gradientTransform="matrix(0.8803 0.4744 0.4744 -0.8803 -1358.0315 2694.3979)">
	<stop  offset="1.000000e-02" style="stop-color:#35435F"/>
	<stop  offset="0.97" style="stop-color:#000000"/>
</linearGradient>
<circle class="st43" cx="417.4" cy="83.7" r="2.5"/>
<linearGradient id="SVGID_45_" gradientUnits="userSpaceOnUse" x1="-9103.7959" y1="4823.4658" x2="-9098.7656" y2="4823.4658" gradientTransform="matrix(-0.9585 0.285 0.285 0.9585 -9672.7656 -1440.2205)">
	<stop  offset="1.000000e-02" style="stop-color:#35435F"/>
	<stop  offset="0.97" style="stop-color:#000000"/>
</linearGradient>
<circle class="st44" cx="425.5" cy="589.2" r="2.5"/>
<linearGradient id="SVGID_46_" gradientUnits="userSpaceOnUse" x1="-9092.8857" y1="4824.0947" x2="-9087.8555" y2="4824.0947" gradientTransform="matrix(-0.9585 0.285 0.285 0.9585 -9672.7656 -1440.2205)">
	<stop  offset="1.000000e-02" style="stop-color:#35435F"/>
	<stop  offset="0.97" style="stop-color:#000000"/>
</linearGradient>
<circle class="st45" cx="415.2" cy="592.9" r="2.5"/>
<linearGradient id="SVGID_47_" gradientUnits="userSpaceOnUse" x1="-9097.8652" y1="4829.3296" x2="-9092.8359" y2="4829.3296" gradientTransform="matrix(-0.9585 0.285 0.285 0.9585 -9672.7656 -1440.2205)">
	<stop  offset="1.000000e-02" style="stop-color:#35435F"/>
	<stop  offset="0.97" style="stop-color:#000000"/>
</linearGradient>
<circle class="st46" cx="421.5" cy="596.5" r="2.5"/>
<linearGradient id="SVGID_48_" gradientUnits="userSpaceOnUse" x1="-9097.8652" y1="4818.6479" x2="-9092.8359" y2="4818.6479" gradientTransform="matrix(-0.9585 0.285 0.285 0.9585 -9672.7656 -1440.2205)">
	<stop  offset="1.000000e-02" style="stop-color:#35435F"/>
	<stop  offset="0.97" style="stop-color:#000000"/>
</linearGradient>
<circle class="st47" cx="418.5" cy="586.3" r="2.5"/>
<linearGradient id="SVGID_49_" gradientUnits="userSpaceOnUse" x1="-9103.5059" y1="4833.9067" x2="-9098.4756" y2="4833.9067" gradientTransform="matrix(-0.9585 0.285 0.285 0.9585 -9672.7656 -1440.2205)">
	<stop  offset="1.000000e-02" style="stop-color:#35435F"/>
	<stop  offset="0.97" style="stop-color:#000000"/>
</linearGradient>
<circle class="st48" cx="428.2" cy="599.3" r="2.5"/>
<linearGradient id="SVGID_50_" gradientUnits="userSpaceOnUse" x1="-9103.5059" y1="4814.0752" x2="-9098.4756" y2="4814.0752" gradientTransform="matrix(-0.9585 0.285 0.285 0.9585 -9672.7656 -1440.2205)">
	<stop  offset="1.000000e-02" style="stop-color:#35435F"/>
	<stop  offset="0.97" style="stop-color:#000000"/>
</linearGradient>
<circle class="st49" cx="422.6" cy="580.3" r="2.5"/>
<linearGradient id="SVGID_51_" gradientUnits="userSpaceOnUse" x1="-9111.0957" y1="4823.2583" x2="-9106.0742" y2="4823.2583" gradientTransform="matrix(-0.9585 0.285 0.285 0.9585 -9672.7656 -1440.2205)">
	<stop  offset="1.000000e-02" style="stop-color:#35435F"/>
	<stop  offset="0.97" style="stop-color:#000000"/>
</linearGradient>
<circle class="st50" cx="432.4" cy="586.9" r="2.5"/>
<linearGradient id="SVGID_52_" gradientUnits="userSpaceOnUse" x1="-9118.5459" y1="4822.502" x2="-9113.5156" y2="4822.502" gradientTransform="matrix(-0.9585 0.285 0.285 0.9585 -9672.7656 -1440.2205)">
	<stop  offset="1.000000e-02" style="stop-color:#35435F"/>
	<stop  offset="0.97" style="stop-color:#000000"/>
</linearGradient>
<circle class="st51" cx="439.4" cy="584.1" r="2.5"/>
<linearGradient id="SVGID_53_" gradientUnits="userSpaceOnUse" x1="-9126.0156" y1="4821.6655" x2="-9120.9854" y2="4821.6655" gradientTransform="matrix(-0.9585 0.285 0.285 0.9585 -9672.7656 -1440.2205)">
	<stop  offset="1.000000e-02" style="stop-color:#35435F"/>
	<stop  offset="0.97" style="stop-color:#000000"/>
</linearGradient>
<circle class="st52" cx="446.3" cy="581.2" r="2.5"/>
<linearGradient id="SVGID_54_" gradientUnits="userSpaceOnUse" x1="-9133.4453" y1="4820.9731" x2="-9128.416" y2="4820.9731" gradientTransform="matrix(-0.9585 0.285 0.285 0.9585 -9672.7656 -1440.2205)">
	<stop  offset="1.000000e-02" style="stop-color:#35435F"/>
	<stop  offset="0.97" style="stop-color:#000000"/>
</linearGradient>
<circle class="st53" cx="453.2" cy="578.4" r="2.5"/>
<linearGradient id="SVGID_55_" gradientUnits="userSpaceOnUse" x1="-9141.1455" y1="4819.2275" x2="-9136.1152" y2="4819.2275" gradientTransform="matrix(-0.9585 0.285 0.285 0.9585 -9672.7656 -1440.2205)">
	<stop  offset="1.000000e-02" style="stop-color:#35435F"/>
	<stop  offset="0.97" style="stop-color:#000000"/>
</linearGradient>
<circle class="st54" cx="460.1" cy="574.5" r="2.5"/>
<linearGradient id="SVGID_56_" gradientUnits="userSpaceOnUse" x1="-5781.4121" y1="6846.9766" x2="-5776.3818" y2="6846.9766" gradientTransform="matrix(-0.46 0.89 0.89 0.46 -8157.6665 2414.4521)">
	<stop  offset="1.000000e-02" style="stop-color:#35435F"/>
	<stop  offset="0.97" style="stop-color:#000000"/>
</linearGradient>
<circle class="st55" cx="577.5" cy="453.6" r="2.5"/>
<linearGradient id="SVGID_57_" gradientUnits="userSpaceOnUse" x1="-5770.5122" y1="6847.5601" x2="-5765.4819" y2="6847.5601" gradientTransform="matrix(-0.46 0.89 0.89 0.46 -8157.6665 2414.4521)">
	<stop  offset="1.000000e-02" style="stop-color:#35435F"/>
	<stop  offset="0.97" style="stop-color:#000000"/>
</linearGradient>
<circle class="st56" cx="573" cy="463.6" r="2.5"/>
<linearGradient id="SVGID_58_" gradientUnits="userSpaceOnUse" x1="-5775.4819" y1="6852.8018" x2="-5770.4521" y2="6852.8018" gradientTransform="matrix(-0.46 0.89 0.89 0.46 -8157.6665 2414.4521)">
	<stop  offset="1.000000e-02" style="stop-color:#35435F"/>
	<stop  offset="0.97" style="stop-color:#000000"/>
</linearGradient>
<circle class="st57" cx="580" cy="461.6" r="2.5"/>
<linearGradient id="SVGID_59_" gradientUnits="userSpaceOnUse" x1="-5775.4819" y1="6842.1357" x2="-5770.4521" y2="6842.1357" gradientTransform="matrix(-0.46 0.89 0.89 0.46 -8157.6665 2414.4521)">
	<stop  offset="1.000000e-02" style="stop-color:#35435F"/>
	<stop  offset="0.97" style="stop-color:#000000"/>
</linearGradient>
<circle class="st58" cx="570.5" cy="456.6" r="2.5"/>
<linearGradient id="SVGID_60_" gradientUnits="userSpaceOnUse" x1="-5781.1221" y1="6857.396" x2="-5776.1021" y2="6857.396" gradientTransform="matrix(-0.46 0.89 0.89 0.46 -8157.6665 2414.4521)">
	<stop  offset="1.000000e-02" style="stop-color:#35435F"/>
	<stop  offset="0.97" style="stop-color:#000000"/>
</linearGradient>
<circle class="st59" cx="586.6" cy="458.7" r="2.5"/>
<linearGradient id="SVGID_61_" gradientUnits="userSpaceOnUse" x1="-5781.1221" y1="6837.5957" x2="-5776.1021" y2="6837.5957" gradientTransform="matrix(-0.46 0.89 0.89 0.46 -8157.6665 2414.4521)">
	<stop  offset="1.000000e-02" style="stop-color:#35435F"/>
	<stop  offset="0.97" style="stop-color:#000000"/>
</linearGradient>
<circle class="st60" cx="569.1" cy="449.5" r="2.5"/>
<linearGradient id="SVGID_62_" gradientUnits="userSpaceOnUse" x1="-5788.7222" y1="6846.8027" x2="-5783.6919" y2="6846.8027" gradientTransform="matrix(-0.46 0.89 0.89 0.46 -8157.6665 2414.4521)">
	<stop  offset="1.000000e-02" style="stop-color:#35435F"/>
	<stop  offset="0.97" style="stop-color:#000000"/>
</linearGradient>
<circle class="st61" cx="580.7" cy="447" r="2.5"/>
<linearGradient id="SVGID_63_" gradientUnits="userSpaceOnUse" x1="-5796.1621" y1="6846.0825" x2="-5791.1421" y2="6846.0825" gradientTransform="matrix(-0.46 0.89 0.89 0.46 -8157.6665 2414.4521)">
	<stop  offset="1.000000e-02" style="stop-color:#35435F"/>
	<stop  offset="0.97" style="stop-color:#000000"/>
</linearGradient>
<circle class="st62" cx="583.5" cy="440.1" r="2.5"/>
<linearGradient id="SVGID_64_" gradientUnits="userSpaceOnUse" x1="-5803.6318" y1="6845.2817" x2="-5798.6021" y2="6845.2817" gradientTransform="matrix(-0.46 0.89 0.89 0.46 -8157.6665 2414.4521)">
	<stop  offset="1.000000e-02" style="stop-color:#35435F"/>
	<stop  offset="0.97" style="stop-color:#000000"/>
</linearGradient>
<circle class="st63" cx="586.2" cy="433.1" r="2.5"/>
<linearGradient id="SVGID_65_" gradientUnits="userSpaceOnUse" x1="-5811.062" y1="6844.6289" x2="-5806.042" y2="6844.6289" gradientTransform="matrix(-0.46 0.89 0.89 0.46 -8157.6665 2414.4521)">
	<stop  offset="1.000000e-02" style="stop-color:#35435F"/>
	<stop  offset="0.97" style="stop-color:#000000"/>
</linearGradient>
<circle class="st64" cx="589" cy="426.2" r="2.5"/>
<linearGradient id="SVGID_66_" gradientUnits="userSpaceOnUse" x1="-5818.7622" y1="6842.9233" x2="-5813.7319" y2="6842.9233" gradientTransform="matrix(-0.46 0.89 0.89 0.46 -8157.6665 2414.4521)">
	<stop  offset="1.000000e-02" style="stop-color:#35435F"/>
	<stop  offset="0.97" style="stop-color:#000000"/>
</linearGradient>
<circle class="st65" cx="591.1" cy="418.5" r="2.5"/>
<linearGradient id="SVGID_67_" gradientUnits="userSpaceOnUse" x1="-7853.6411" y1="-2957.6089" x2="-7848.6113" y2="-2957.6089" gradientTransform="matrix(-0.2741 -0.9617 -0.9617 0.2741 -4910.8525 -6314.1001)">
	<stop  offset="1.000000e-02" style="stop-color:#35435F"/>
	<stop  offset="0.97" style="stop-color:#000000"/>
</linearGradient>
<circle class="st66" cx="85.6" cy="425.4" r="2.5"/>
<linearGradient id="SVGID_68_" gradientUnits="userSpaceOnUse" x1="-7842.7412" y1="-2956.9729" x2="-7837.7114" y2="-2956.9729" gradientTransform="matrix(-0.2741 -0.9617 -0.9617 0.2741 -4910.8525 -6314.1001)">
	<stop  offset="1.000000e-02" style="stop-color:#35435F"/>
	<stop  offset="0.97" style="stop-color:#000000"/>
</linearGradient>
<circle class="st67" cx="82" cy="415.1" r="2.5"/>
<linearGradient id="SVGID_69_" gradientUnits="userSpaceOnUse" x1="-7847.7212" y1="-2951.748" x2="-7842.6914" y2="-2951.748" gradientTransform="matrix(-0.2741 -0.9617 -0.9617 0.2741 -4910.8525 -6314.1001)">
	<stop  offset="1.000000e-02" style="stop-color:#35435F"/>
	<stop  offset="0.97" style="stop-color:#000000"/>
</linearGradient>
<circle class="st68" cx="78.4" cy="421.3" r="2.5"/>
<linearGradient id="SVGID_70_" gradientUnits="userSpaceOnUse" x1="-7847.7212" y1="-2962.428" x2="-7842.6914" y2="-2962.428" gradientTransform="matrix(-0.2741 -0.9617 -0.9617 0.2741 -4910.8525 -6314.1001)">
	<stop  offset="1.000000e-02" style="stop-color:#35435F"/>
	<stop  offset="0.97" style="stop-color:#000000"/>
</linearGradient>
<circle class="st69" cx="88.7" cy="418.4" r="2.5"/>
<linearGradient id="SVGID_71_" gradientUnits="userSpaceOnUse" x1="-7853.3613" y1="-2947.1665" x2="-7848.3311" y2="-2947.1665" gradientTransform="matrix(-0.2741 -0.9617 -0.9617 0.2741 -4910.8525 -6314.1001)">
	<stop  offset="1.000000e-02" style="stop-color:#35435F"/>
	<stop  offset="0.97" style="stop-color:#000000"/>
</linearGradient>
<circle class="st70" cx="75.5" cy="428" r="2.5"/>
<linearGradient id="SVGID_72_" gradientUnits="userSpaceOnUse" x1="-7853.3613" y1="-2966.9973" x2="-7848.3311" y2="-2966.9973" gradientTransform="matrix(-0.2741 -0.9617 -0.9617 0.2741 -4910.8525 -6314.1001)">
	<stop  offset="1.000000e-02" style="stop-color:#35435F"/>
	<stop  offset="0.97" style="stop-color:#000000"/>
</linearGradient>
<circle class="st71" cx="94.6" cy="422.6" r="2.5"/>
<linearGradient id="SVGID_73_" gradientUnits="userSpaceOnUse" x1="-7860.9512" y1="-2957.8235" x2="-7855.9214" y2="-2957.8235" gradientTransform="matrix(-0.2741 -0.9617 -0.9617 0.2741 -4910.8525 -6314.1001)">
	<stop  offset="1.000000e-02" style="stop-color:#35435F"/>
	<stop  offset="0.97" style="stop-color:#000000"/>
</linearGradient>
<circle class="st72" cx="87.8" cy="432.4" r="2.5"/>
<linearGradient id="SVGID_74_" gradientUnits="userSpaceOnUse" x1="-7868.4014" y1="-2958.5823" x2="-7863.3711" y2="-2958.5823" gradientTransform="matrix(-0.2741 -0.9617 -0.9617 0.2741 -4910.8525 -6314.1001)">
	<stop  offset="1.000000e-02" style="stop-color:#35435F"/>
	<stop  offset="0.97" style="stop-color:#000000"/>
</linearGradient>
<circle class="st73" cx="90.6" cy="439.3" r="2.5"/>
<linearGradient id="SVGID_75_" gradientUnits="userSpaceOnUse" x1="-7875.8711" y1="-2959.415" x2="-7870.8413" y2="-2959.415" gradientTransform="matrix(-0.2741 -0.9617 -0.9617 0.2741 -4910.8525 -6314.1001)">
	<stop  offset="1.000000e-02" style="stop-color:#35435F"/>
	<stop  offset="0.97" style="stop-color:#000000"/>
</linearGradient>
<circle class="st74" cx="93.5" cy="446.3" r="2.5"/>
<linearGradient id="SVGID_76_" gradientUnits="userSpaceOnUse" x1="-7883.3013" y1="-2960.1064" x2="-7878.271" y2="-2960.1064" gradientTransform="matrix(-0.2741 -0.9617 -0.9617 0.2741 -4910.8525 -6314.1001)">
	<stop  offset="1.000000e-02" style="stop-color:#35435F"/>
	<stop  offset="0.97" style="stop-color:#000000"/>
</linearGradient>
<circle class="st75" cx="96.2" cy="453.3" r="2.5"/>
<linearGradient id="SVGID_77_" gradientUnits="userSpaceOnUse" x1="-7891.001" y1="-2961.8516" x2="-7885.9712" y2="-2961.8516" gradientTransform="matrix(-0.2741 -0.9617 -0.9617 0.2741 -4910.8525 -6314.1001)">
	<stop  offset="1.000000e-02" style="stop-color:#35435F"/>
	<stop  offset="0.97" style="stop-color:#000000"/>
</linearGradient>
<circle class="st76" cx="100" cy="460.2" r="2.5"/>
<linearGradient id="SVGID_78_" gradientUnits="userSpaceOnUse" x1="-9860.4463" y1="899.0563" x2="-9855.416" y2="899.0563" gradientTransform="matrix(-0.8803 -0.4744 -0.4744 0.8803 -8029.7383 -4890.248)">
	<stop  offset="1.000000e-02" style="stop-color:#35435F"/>
	<stop  offset="0.97" style="stop-color:#000000"/>
</linearGradient>
<circle class="st77" cx="221.8" cy="577.8" r="2.5"/>
<linearGradient id="SVGID_79_" gradientUnits="userSpaceOnUse" x1="-9849.5361" y1="899.6858" x2="-9844.5156" y2="899.6858" gradientTransform="matrix(-0.8803 -0.4744 -0.4744 0.8803 -8029.7383 -4890.248)">
	<stop  offset="1.000000e-02" style="stop-color:#35435F"/>
	<stop  offset="0.97" style="stop-color:#000000"/>
</linearGradient>
<circle class="st78" cx="211.9" cy="573.2" r="2.5"/>
<linearGradient id="SVGID_80_" gradientUnits="userSpaceOnUse" x1="-9854.5156" y1="904.9203" x2="-9849.4863" y2="904.9203" gradientTransform="matrix(-0.8803 -0.4744 -0.4744 0.8803 -8029.7383 -4890.248)">
	<stop  offset="1.000000e-02" style="stop-color:#35435F"/>
	<stop  offset="0.97" style="stop-color:#000000"/>
</linearGradient>
<circle class="st79" cx="213.8" cy="580.1" r="2.5"/>
<linearGradient id="SVGID_81_" gradientUnits="userSpaceOnUse" x1="-9854.5156" y1="894.2449" x2="-9849.4863" y2="894.2449" gradientTransform="matrix(-0.8803 -0.4744 -0.4744 0.8803 -8029.7383 -4890.248)">
	<stop  offset="1.000000e-02" style="stop-color:#35435F"/>
	<stop  offset="0.97" style="stop-color:#000000"/>
</linearGradient>
<circle class="st80" cx="218.9" cy="570.7" r="2.5"/>
<linearGradient id="SVGID_82_" gradientUnits="userSpaceOnUse" x1="-9860.1563" y1="909.4948" x2="-9855.1357" y2="909.4948" gradientTransform="matrix(-0.8803 -0.4744 -0.4744 0.8803 -8029.7383 -4890.248)">
	<stop  offset="1.000000e-02" style="stop-color:#35435F"/>
	<stop  offset="0.97" style="stop-color:#000000"/>
</linearGradient>
<circle class="st81" cx="216.6" cy="586.8" r="2.5"/>
<linearGradient id="SVGID_83_" gradientUnits="userSpaceOnUse" x1="-9860.1563" y1="889.6605" x2="-9855.1357" y2="889.6605" gradientTransform="matrix(-0.8803 -0.4744 -0.4744 0.8803 -8029.7383 -4890.248)">
	<stop  offset="1.000000e-02" style="stop-color:#35435F"/>
	<stop  offset="0.97" style="stop-color:#000000"/>
</linearGradient>
<circle class="st82" cx="226" cy="569.4" r="2.5"/>
<linearGradient id="SVGID_84_" gradientUnits="userSpaceOnUse" x1="-9867.7559" y1="898.8459" x2="-9862.7256" y2="898.8459" gradientTransform="matrix(-0.8803 -0.4744 -0.4744 0.8803 -8029.7383 -4890.248)">
	<stop  offset="1.000000e-02" style="stop-color:#35435F"/>
	<stop  offset="0.97" style="stop-color:#000000"/>
</linearGradient>
<circle class="st83" cx="228.4" cy="581.1" r="2.5"/>
<linearGradient id="SVGID_85_" gradientUnits="userSpaceOnUse" x1="-9875.1963" y1="898.0809" x2="-9870.166" y2="898.0809" gradientTransform="matrix(-0.8803 -0.4744 -0.4744 0.8803 -8029.7383 -4890.248)">
	<stop  offset="1.000000e-02" style="stop-color:#35435F"/>
	<stop  offset="0.97" style="stop-color:#000000"/>
</linearGradient>
<circle class="st84" cx="235.3" cy="583.9" r="2.5"/>
<linearGradient id="SVGID_86_" gradientUnits="userSpaceOnUse" x1="-9882.666" y1="897.2527" x2="-9877.6357" y2="897.2527" gradientTransform="matrix(-0.8803 -0.4744 -0.4744 0.8803 -8029.7383 -4890.248)">
	<stop  offset="1.000000e-02" style="stop-color:#35435F"/>
	<stop  offset="0.97" style="stop-color:#000000"/>
</linearGradient>
<circle class="st85" cx="242.3" cy="586.7" r="2.5"/>
<linearGradient id="SVGID_87_" gradientUnits="userSpaceOnUse" x1="-9890.0957" y1="896.5505" x2="-9885.0664" y2="896.5505" gradientTransform="matrix(-0.8803 -0.4744 -0.4744 0.8803 -8029.7383 -4890.248)">
	<stop  offset="1.000000e-02" style="stop-color:#35435F"/>
	<stop  offset="0.97" style="stop-color:#000000"/>
</linearGradient>
<circle class="st86" cx="249.1" cy="589.6" r="2.5"/>
<linearGradient id="SVGID_88_" gradientUnits="userSpaceOnUse" x1="-9897.7959" y1="894.8114" x2="-9892.7656" y2="894.8114" gradientTransform="matrix(-0.8803 -0.4744 -0.4744 0.8803 -8029.7383 -4890.248)">
	<stop  offset="1.000000e-02" style="stop-color:#35435F"/>
	<stop  offset="0.97" style="stop-color:#000000"/>
</linearGradient>
<circle class="st87" cx="256.7" cy="591.8" r="2.5"/>
<linearGradient id="SVGID_89_" gradientUnits="userSpaceOnUse" x1="-10012.9434" y1="9287.9941" x2="-9901.8135" y2="9253.8242" gradientTransform="matrix(-0.6881 0.7256 0.7256 0.6881 -13243.8398 915.9541)">
	<stop  offset="1.000000e-02" style="stop-color:#35435F"/>
	<stop  offset="1" style="stop-color:#000000"/>
</linearGradient>
<circle class="st88" cx="337.1" cy="68.9" r="68.9"/>
<linearGradient id="SVGID_90_" gradientUnits="userSpaceOnUse" x1="-614.9012" y1="5111.8696" x2="-387.6712" y2="5111.8696" gradientTransform="matrix(0.77 0.64 0.64 -0.77 -2482.4463 4380.7725)">
	<stop  offset="1.000000e-02" style="stop-color:#35435F"/>
	<stop  offset="0.97" style="stop-color:#000000"/>
</linearGradient>
<circle class="st89" cx="337.1" cy="68.9" r="63.7"/>
<ellipse transform="matrix(0.2723 -0.9622 0.9622 0.2723 191.8727 360.1585)" class="st90" cx="334.1" cy="53.2" rx="45.1" ry="45.1"/>
<g id="_062">
	<g id="_08">
		
			<linearGradient id="SVGID_91_" gradientUnits="userSpaceOnUse" x1="158.4352" y1="2871.0918" x2="380.0952" y2="2770.4917" gradientTransform="matrix(0.91 0.42 0.42 -0.91 -1051.3062 2570.718)">
			<stop  offset="1.000000e-02" style="stop-color:#657A9B"/>
			<stop  offset="0.97" style="stop-color:#000000"/>
		</linearGradient>
		<path class="st91" d="M386.4,28.1c-11.2-12.9-22.4-17.5-22.4-17.5c-32.2-14.8-70.3-0.7-85.1,31.5c-14.8,32.2-0.7,70.3,31.5,85.1
			c32.2,14.8,70.3,0.7,85.1-31.5c7.1-15.5,7.8-33.1,1.9-49.1C394.9,39.8,391.2,33.6,386.4,28.1z M311.4,125
			c-31-14.3-44.6-51-30.3-82c14.3-31,51-44.6,82-30.3c31,14.3,44.6,51,30.3,82c-6.8,14.9-19.3,26.4-34.7,32.1
			C343.3,132.6,326.3,131.9,311.4,125L311.4,125z"/>
	</g>
</g>
<path class="st92" d="M334.5,32.9h-3.4v-2h5.7v15.7h-2.3L334.5,32.9z"/>
<path class="st92" d="M339.5,45.2c0-0.9,0.7-1.6,1.6-1.6s1.6,0.7,1.6,1.6c0,0.9-0.7,1.6-1.6,1.6c0,0,0,0,0,0
	C340.2,46.8,339.5,46.2,339.5,45.2C339.5,45.3,339.5,45.3,339.5,45.2z"/>
<path class="st92" d="M307.2,59.5h1.7v10.7h-1.7V59.5z"/>
<path class="st92" d="M310.4,66.1c-0.1-2.2,1.6-4.1,3.8-4.2c0.1,0,0.2,0,0.3,0c1.2,0,2.4,0.6,3,1.6v-4.9h1.6v7.5
	c0.1,2.3-1.6,4.2-3.9,4.3c-0.1,0-0.3,0-0.4,0c-2.3,0.1-4.2-1.6-4.4-3.9C310.4,66.4,310.4,66.2,310.4,66.1z M317.5,66.2
	c0-1.5-1.3-2.8-2.8-2.7c-1.5,0-2.8,1.3-2.7,2.8c0,1.5,1.3,2.7,2.8,2.7c1.5,0.1,2.7-1.1,2.8-2.6C317.6,66.3,317.6,66.2,317.5,66.2z"
	/>
<path class="st92" d="M320.4,66.2c0-2.4,1.9-4.3,4.3-4.3c2.4,0,4.3,1.9,4.3,4.3v0.6h-7c0.2,1.3,1.4,2.3,2.7,2.2
	c0.9,0.1,1.7-0.3,2.3-1h1.7c-0.7,1.6-2.3,2.6-4,2.5c-2.3,0.1-4.2-1.7-4.3-4C320.4,66.4,320.4,66.3,320.4,66.2z M327.4,65.3
	c-0.4-1.5-2-2.3-3.5-1.9c-0.9,0.3-1.6,1-1.9,1.9H327.4z"/>
<path class="st92" d="M330.3,66c0-2.7,1.6-4.1,4-4.1s4,1.4,4,4.1v4.2h-1.5V66c0-1.8-1-2.6-2.4-2.6c-1.3-0.1-2.4,0.9-2.5,2.2
	c0,0.2,0,0.3,0,0.5v4.2h-1.6V66z"/>
<path class="st92" d="M339.9,67.1v-7.9h1.5v2.9h4.4v1.4h-4.4v3.6c0,1.3,0.7,1.8,1.7,1.8s1.7-0.5,1.7-1.8V67h1.5v0.2
	c0.1,1.8-1.3,3.3-3.1,3.4s-3.3-1.3-3.4-3.1C339.9,67.4,339.9,67.3,339.9,67.1z"/>
<path class="st92" d="M347.6,59.8c0-0.6,0.5-1.1,1.1-1.1c0.6,0,1.1,0.5,1.1,1.1c0,0,0,0,0,0c0,0.6-0.5,1.1-1.1,1.1
	C348.1,60.8,347.6,60.4,347.6,59.8C347.6,59.8,347.6,59.8,347.6,59.8z M348,62.1h1.6v8.1H348V62.1z"/>
<path class="st92" d="M351.7,61.9c0-1.9,1.6-3.5,3.5-3.5c1.9,0,3.5,1.6,3.5,3.5h-1.5c0-1.5-0.8-2.1-1.9-2.1c-1-0.1-1.9,0.7-1.9,1.6
	c0,0.1,0,0.3,0,0.4v1.4h4.4v1.4h-4.4v5.5h-1.5V61.9z"/>
<path class="st92" d="M359.4,71.2h1.6c0.7,1.2,2.2,1.7,3.5,1.1c0.8-0.4,1.4-1.3,1.3-2.3v-1.2c-0.5,1-1.5,1.6-2.6,1.6
	c-2,0-3.7-1.3-3.7-4.1v-4.1h1.5v4.1c-0.2,1.3,0.7,2.4,2,2.6c0.2,0,0.3,0,0.5,0c1.3,0.1,2.4-0.9,2.5-2.2c0-0.1,0-0.3,0-0.4v-4.1h1.5
	v7.8c0,2.8-1.8,3.9-4,3.9C361.6,74.1,359.9,72.9,359.4,71.2z"/>
<path class="st92" d="M288.6,84.5c-0.1-3.1,2.4-5.8,5.5-5.8s5.8,2.4,5.8,5.5c0.1,3.1-2.4,5.8-5.5,5.8c0,0-0.1,0-0.1,0
	c-3,0.2-5.5-2.2-5.7-5.1C288.6,84.7,288.6,84.6,288.6,84.5z M298.3,84.5c0-2.2-1.8-4-4-4s-4,1.8-4,4s1.8,4,4,4
	c2.1,0.1,3.9-1.6,4-3.7C298.3,84.7,298.3,84.6,298.3,84.5z"/>
<path class="st92" d="M301.4,85.8c-0.1-2.3,1.6-4.2,3.9-4.3c0.1,0,0.3,0,0.4,0c2.3-0.1,4.2,1.6,4.4,3.9c0,0.1,0,0.3,0,0.4
	c0.1,2.2-1.6,4.1-3.8,4.2c-0.1,0-0.2,0-0.3,0c-1.2,0.1-2.4-0.6-3-1.6v4.9h-1.6V85.8z M308.5,85.8c0-1.5-1.3-2.8-2.8-2.7
	c-1.5,0-2.8,1.3-2.7,2.8c0,1.5,1.2,2.7,2.8,2.7c1.5,0.1,2.7-1.1,2.8-2.6C308.5,85.9,308.5,85.9,308.5,85.8L308.5,85.8z"/>
<path class="st92" d="M311.3,85.8c-0.1-2.3,1.6-4.2,3.9-4.3c0.1,0,0.3,0,0.4,0c2.3-0.1,4.2,1.6,4.4,3.9c0,0.1,0,0.3,0,0.4
	c0.1,2.2-1.6,4.1-3.8,4.2c-0.1,0-0.2,0-0.3,0c-1.2,0.1-2.4-0.6-3-1.6v4.9h-1.5L311.3,85.8z M318.4,85.8c0-1.5-1.3-2.8-2.8-2.7
	c-1.5,0-2.8,1.3-2.7,2.8c0,1.5,1.2,2.7,2.8,2.7c1.5,0.1,2.7-1.1,2.8-2.6C318.4,86,318.4,85.9,318.4,85.8L318.4,85.8z"/>
<path class="st92" d="M320.9,85.8c-0.1-2.4,1.8-4.4,4.2-4.5s4.4,1.8,4.5,4.2c0.1,2.4-1.8,4.4-4.2,4.5c0,0-0.1,0-0.1,0
	c-2.3,0.1-4.2-1.6-4.3-3.9C320.9,86,320.9,85.9,320.9,85.8z M328,85.8c0-1.5-1.3-2.8-2.8-2.7c-1.5,0-2.8,1.3-2.7,2.8
	c0,1.5,1.3,2.7,2.8,2.8c1.5,0.1,2.7-1.1,2.8-2.6C328.1,86,328.1,85.9,328,85.8z"/>
<path class="st92" d="M330.9,85.1c0-1.9,1.6-3.5,3.5-3.5s3.5,1.6,3.5,3.5v0.1h-1.5v-0.1c0-1.5-0.8-2.1-1.9-2.1s-1.9,0.6-1.9,2.1v4.8
	h-1.5L330.9,85.1z"/>
<path class="st92" d="M338.9,86.8v-7.9h1.5v2.9h4.5v1.4h-4.5v3.6c0,1.3,0.7,1.8,1.7,1.8s1.7-0.5,1.7-1.8v-0.2h1.5v0.2
	c0.1,1.8-1.3,3.3-3.1,3.4s-3.3-1.3-3.4-3.1C338.9,87,338.9,86.9,338.9,86.8L338.9,86.8z"/>
<path class="st92" d="M346.7,86v-4.2h1.6V86c-0.1,1.3,0.9,2.5,2.3,2.6c1.3,0.1,2.5-0.9,2.6-2.3c0-0.1,0-0.2,0-0.3v-4.2h1.5V86
	c0,2.2-1.8,4-4,4S346.6,88.2,346.7,86L346.7,86z"/>
<path class="st92" d="M356.2,85.6c0-2.7,1.6-4.1,4-4.1s4,1.4,4,4.1v4.2h-1.6v-4.2c0-1.8-1-2.6-2.4-2.6c-1.3-0.1-2.4,0.9-2.5,2.2
	c0,0.2,0,0.3,0,0.5v4.2h-1.5L356.2,85.6z"/>
<path class="st92" d="M365.8,79.3c0-0.6,0.5-1.1,1.1-1.1s1.1,0.5,1.1,1.1c0,0.6-0.5,1.1-1.1,1.1C366.3,80.5,365.8,80,365.8,79.3
	C365.8,79.4,365.8,79.4,365.8,79.3z M366.1,81.7h1.6v8.1h-1.5L366.1,81.7z"/>
<path class="st92" d="M369.5,86.8v-7.9h1.6v2.9h4.4v1.4h-4.4v3.6c0,1.3,0.7,1.8,1.7,1.8c1,0,1.7-0.5,1.7-1.8v-0.2h1.5v0.2
	c0.1,1.8-1.3,3.3-3.1,3.4s-3.3-1.3-3.4-3.1C369.6,87,369.6,86.9,369.5,86.8L369.5,86.8z"/>
<path class="st92" d="M377.4,90.8h1.6c0.4,0.9,1.3,1.5,2.3,1.3c1.2,0.1,2.3-0.7,2.5-1.9c0-0.2,0-0.4,0-0.6v-1.2
	c-0.5,1-1.6,1.6-2.7,1.6c-2,0-3.7-1.3-3.7-4.1v-4.1h1.6v4.1c-0.1,1.3,0.9,2.5,2.3,2.6c1.3,0.1,2.5-0.9,2.6-2.3c0-0.1,0-0.2,0-0.3
	v-4.1h1.6v7.8c0,2.8-1.8,3.9-4,3.9C379.5,93.6,377.8,92.5,377.4,90.8z"/>
<linearGradient id="SVGID_92_" gradientUnits="userSpaceOnUse" x1="-10084.9922" y1="9479.3867" x2="-9973.8623" y2="9445.2168" gradientTransform="matrix(-0.6881 0.7256 0.7256 0.6881 -13243.8398 915.9541)">
	<stop  offset="1.000000e-02" style="stop-color:#35435F"/>
	<stop  offset="1" style="stop-color:#000000"/>
</linearGradient>
<circle class="st93" cx="525.5" cy="148.3" r="68.9"/>
<linearGradient id="SVGID_93_" gradientUnits="userSpaceOnUse" x1="-419.0812" y1="5171.1758" x2="-191.8412" y2="5171.1758" gradientTransform="matrix(0.77 0.64 0.64 -0.77 -2482.4463 4380.7725)">
	<stop  offset="1.000000e-02" style="stop-color:#35435F"/>
	<stop  offset="0.97" style="stop-color:#000000"/>
</linearGradient>
<circle class="st94" cx="525.5" cy="148.3" r="63.7"/>
<circle class="st90" cx="522.5" cy="132.6" r="45.1"/>
<g id="_062-2">
	<g id="_08-2">
		
			<linearGradient id="SVGID_94_" gradientUnits="userSpaceOnUse" x1="362.9999" y1="2877.6721" x2="584.6599" y2="2777.082" gradientTransform="matrix(0.91 0.42 0.42 -0.91 -1051.3062 2570.718)">
			<stop  offset="1.000000e-02" style="stop-color:#657A9B"/>
			<stop  offset="0.97" style="stop-color:#000000"/>
		</linearGradient>
		<path class="st95" d="M574.9,107.5C563.7,94.6,552.5,90,552.5,90c-32.2-14.8-70.3-0.7-85.1,31.5c-14.8,32.2-0.7,70.3,31.5,85.1
			c32.2,14.8,70.3,0.7,85.1-31.5c7.1-15.5,7.8-33.1,1.9-49.1C583.3,119.3,579.6,113,574.9,107.5z M499.9,204.4
			c-31-14.3-44.6-50.9-30.3-81.9s50.9-44.6,81.9-30.3c31,14.3,44.6,50.9,30.3,81.9c-6.8,14.9-19.3,26.4-34.7,32.1
			C531.7,212,514.7,211.3,499.9,204.4L499.9,204.4z"/>
	</g>
</g>
<path class="st92" d="M517.7,124l5.7-5.4c1.2-1.1,2-2.3,2-3.6c0-1.8-0.9-3-2.7-3s-2.8,1.3-2.8,3.1v0.3h-2.2v-0.2
	c0-3.2,1.9-5.3,5-5.3c2.6-0.1,4.9,1.9,5,4.6c0,0.2,0,0.4,0,0.5c0,2.1-1,3.4-2.7,4.9l-4.3,3.9h6.7v2h-9.8L517.7,124z"/>
<path class="st92" d="M529.9,124.7c0-0.9,0.7-1.6,1.6-1.6c0.9,0,1.6,0.7,1.6,1.6c0,0.9-0.7,1.6-1.6,1.6l0,0c-0.8,0-1.6-0.6-1.6-1.5
	C529.9,124.7,529.9,124.7,529.9,124.7z"/>
<path class="st92" d="M476.9,144.3c0.1-3.2,2.7-5.7,5.9-5.6c2.4,0.1,4.5,1.6,5.3,4h-1.8c-0.9-2-3.2-2.9-5.3-2.1
	c-2,0.9-2.9,3.2-2.1,5.3c0.9,2,3.2,2.9,5.3,2.1c0.9-0.4,1.7-1.1,2.1-2.1h1.8c-1,3-4.2,4.7-7.2,3.7
	C478.6,148.8,477,146.7,476.9,144.3L476.9,144.3z"/>
<path class="st92" d="M489.4,144.9c0-1.9,1.5-3.5,3.5-3.5s3.5,1.5,3.5,3.5c0,0,0,0,0,0v0.1h-1.5v-0.1c0-1.5-0.8-2.1-1.9-2.1
	s-1.9,0.6-1.9,2.1v4.8h-1.6L489.4,144.9z"/>
<path class="st92" d="M497.1,145.6c0-2.4,1.9-4.3,4.3-4.3c2.4,0,4.3,1.9,4.3,4.3v0.6h-7c0.2,1.3,1.4,2.3,2.7,2.2
	c0.9,0.1,1.7-0.3,2.3-1h1.7c-1.1,2.2-3.7,3.1-5.9,2C498.1,148.7,497.2,147.2,497.1,145.6L497.1,145.6z M504.1,144.8
	c-0.4-1.5-2-2.3-3.4-1.9c-0.9,0.3-1.6,1-1.9,1.9H504.1z"/>
<path class="st92" d="M506.7,145.6c-0.1-2.3,1.7-4.2,4-4.3c0.1,0,0.3,0,0.4,0c2.3-0.1,4.2,1.6,4.3,3.9c0,0.1,0,0.3,0,0.4v4H514v-1.8
	c-0.5,1.3-1.8,2.1-3.1,2c-2.2,0.1-4.1-1.7-4.1-3.9C506.7,145.9,506.7,145.8,506.7,145.6z M513.8,145.6c0-1.5-1.2-2.8-2.8-2.8
	c-1.5,0-2.8,1.2-2.8,2.8s1.2,2.8,2.8,2.8c0,0,0,0,0.1,0c1.5,0,2.7-1.1,2.7-2.6C513.9,145.7,513.9,145.6,513.8,145.6z"/>
<path class="st92" d="M517,146.6v-7.9h1.6v2.9h4.4v1.4h-4.4v3.6c0,1.3,0.7,1.8,1.7,1.8s1.7-0.5,1.7-1.8v-0.2h1.5v0.2
	c0.1,1.8-1.3,3.3-3.1,3.4s-3.3-1.3-3.4-3.1C517,146.8,517,146.7,517,146.6L517,146.6z"/>
<path class="st92" d="M524.4,145.6c0-2.4,1.9-4.3,4.3-4.3c2.4,0,4.3,1.9,4.3,4.3v0.6h-7c0.2,1.3,1.4,2.3,2.7,2.2
	c0.9,0.1,1.7-0.3,2.3-1h1.7c-1.1,2.2-3.7,3.1-5.9,2C525.5,148.7,524.5,147.2,524.4,145.6L524.4,145.6z M531.4,144.8
	c-0.4-1.5-2-2.3-3.5-1.9c-0.9,0.3-1.6,1-1.9,1.9H531.4z"/>
<path class="st92" d="M538.8,150.6h1.6c0.4,0.9,1.3,1.5,2.3,1.3c1.2,0.1,2.3-0.7,2.5-1.9c0-0.2,0-0.4,0-0.6v-1.2
	c-0.5,1-1.6,1.6-2.7,1.6c-2,0-3.7-1.3-3.7-4.1v-4.1h1.6v4.1c-0.2,1.3,0.7,2.4,2,2.6c0.2,0,0.3,0,0.5,0c1.3,0.1,2.4-0.9,2.5-2.2
	c0-0.1,0-0.3,0-0.4v-4.1h1.6v7.8c0,2.8-1.8,3.9-4,3.9C540.9,153.4,539.2,152.3,538.8,150.6z"/>
<path class="st92" d="M548.2,145.6c-0.1-2.4,1.8-4.4,4.2-4.4c2.4-0.1,4.4,1.8,4.4,4.2c0.1,2.4-1.8,4.4-4.2,4.4c0,0-0.1,0-0.1,0
	c-2.3,0.1-4.2-1.6-4.3-3.9C548.2,145.8,548.2,145.7,548.2,145.6z M555.3,145.6c0-1.5-1.3-2.8-2.8-2.7c-1.5,0-2.8,1.3-2.7,2.8
	c0,1.5,1.3,2.7,2.8,2.8c1.5,0.1,2.7-1.1,2.8-2.6C555.4,145.8,555.4,145.7,555.3,145.6z"/>
<path class="st92" d="M558.2,145.8v-4.2h1.6v4.2c-0.1,1.3,0.9,2.5,2.3,2.6c1.3,0.1,2.5-0.9,2.6-2.3c0-0.1,0-0.2,0-0.3v-4.2h1.6v4.2
	c0.2,2-1.2,3.8-3.3,4.1c-0.2,0-0.5,0-0.7,0C559.8,149.8,558.2,148.5,558.2,145.8z"/>
<path class="st92" d="M567.8,144.9c-0.1-1.9,1.4-3.6,3.3-3.7s3.6,1.4,3.7,3.3c0,0.1,0,0.2,0,0.4v0.1h-1.5v-0.1
	c0-1.5-0.8-2.1-1.9-2.1s-1.9,0.6-1.9,2.1v4.8h-1.6L567.8,144.9z"/>
<path class="st92" d="M490.7,158.5h5.2c2,0,3,1.1,3,2.8c0,1-0.5,2-1.5,2.4l0,0c1.2,0.3,2,1.4,2,2.7c0.1,1.5-1.1,2.8-2.7,2.9
	c-0.1,0-0.3,0-0.4,0h-5.6L490.7,158.5z M495.7,163c0.8,0.1,1.5-0.5,1.6-1.3c0-0.1,0-0.1,0-0.2c0-0.9-0.5-1.5-1.6-1.5h-3.3v2.9H495.7
	z M496,167.7c0.8,0.1,1.5-0.4,1.6-1.2c0-0.1,0-0.2,0-0.3c0.1-0.8-0.6-1.5-1.4-1.6c-0.1,0-0.1,0-0.2,0h-3.7v3.1H496z"/>
<path class="st92" d="M500.9,157.6h1.6v11.6h-1.6V157.6z"/>
<path class="st92" d="M504.3,165.4v-4.2h1.6v4.2c-0.1,1.3,0.9,2.5,2.3,2.6c1.3,0.1,2.5-0.9,2.6-2.3c0-0.1,0-0.2,0-0.3v-4.2h1.6v4.2
	c0,2.2-1.8,4-4,4S504.3,167.6,504.3,165.4L504.3,165.4z"/>
<path class="st92" d="M513.6,165.2c0-2.4,1.9-4.3,4.3-4.3c2.4,0,4.3,1.9,4.3,4.3v0.6h-7c0.2,1.3,1.4,2.3,2.7,2.2
	c0.9,0.1,1.7-0.3,2.3-1h1.7c-1.1,2.2-3.7,3.1-5.9,2C514.6,168.3,513.7,166.9,513.6,165.2L513.6,165.2z M520.6,164.4
	c-0.3-1.2-1.4-2.1-2.7-2c-1.3-0.1-2.4,0.8-2.7,2H520.6z"/>
<path class="st92" d="M523.5,165.3c-0.1-2.3,1.6-4.2,3.9-4.3c0.1,0,0.3,0,0.4,0c2.3-0.1,4.2,1.6,4.4,3.9c0,0.1,0,0.3,0,0.4
	c0.1,2.2-1.6,4.1-3.8,4.2c-0.1,0-0.2,0-0.3,0c-1.2,0-2.4-0.6-3-1.6v4.9h-1.6L523.5,165.3z M530.6,165.2c0-1.5-1.3-2.8-2.8-2.7
	s-2.8,1.3-2.7,2.8c0,1.5,1.2,2.7,2.8,2.7c1.5,0.1,2.7-1.1,2.8-2.6C530.6,165.4,530.6,165.3,530.6,165.2z"/>
<path class="st92" d="M533.5,164.5c0-1.9,1.5-3.5,3.5-3.5s3.5,1.5,3.5,3.5c0,0,0,0,0,0v0.1h-1.5v-0.1c0-1.5-0.8-2.1-1.9-2.1
	s-1.9,0.6-1.9,2.1v4.8h-1.6L533.5,164.5z"/>
<path class="st92" d="M541.5,158.8c0-0.6,0.5-1.1,1.1-1.1s1.1,0.5,1.1,1.1c0,0.6-0.5,1.1-1.1,1.1C542,159.9,541.5,159.4,541.5,158.8
	C541.5,158.8,541.5,158.8,541.5,158.8z M541.8,161.2h1.6v8.1h-1.6V161.2z"/>
<path class="st92" d="M545.2,165c-0.2-2,1.3-3.9,3.3-4.1c0.2,0,0.5,0,0.7,0c2.4,0,4,1.4,4,4.1v4.2h-1.6V165c0.2-1.3-0.7-2.5-2-2.6
	c-0.2,0-0.3,0-0.5,0c-1.5,0-2.4,0.9-2.4,2.6v4.2h-1.6L545.2,165z"/>
<path class="st92" d="M554.8,166.2v-7.8h1.6v2.9h4.4v1.4h-4.4v3.6c0,1.3,0.7,1.8,1.7,1.8s1.7-0.5,1.7-1.8v-0.2h1.5v0.2
	c0.1,1.8-1.3,3.3-3.1,3.4s-3.3-1.3-3.4-3.1C554.8,166.5,554.8,166.4,554.8,166.2L554.8,166.2z"/>
<linearGradient id="SVGID_95_" gradientUnits="userSpaceOnUse" x1="-10001.7119" y1="9666.6699" x2="-9890.582" y2="9632.5" gradientTransform="matrix(-0.6881 0.7256 0.7256 0.6881 -13243.8398 915.9541)">
	<stop  offset="1.000000e-02" style="stop-color:#35435F"/>
	<stop  offset="1" style="stop-color:#000000"/>
</linearGradient>
<circle class="st96" cx="604.1" cy="337.6" r="68.9"/>
<linearGradient id="SVGID_96_" gradientUnits="userSpaceOnUse" x1="-237.8512" y1="5075.9507" x2="-10.6212" y2="5075.9507" gradientTransform="matrix(0.77 0.64 0.64 -0.77 -2482.4463 4380.7725)">
	<stop  offset="1.000000e-02" style="stop-color:#35435F"/>
	<stop  offset="0.97" style="stop-color:#000000"/>
</linearGradient>
<circle class="st97" cx="604.1" cy="337.6" r="63.7"/>
<circle class="st90" cx="601.1" cy="321.9" r="45.1"/>
<g id="_062-3">
	<g id="_08-3">
		
			<linearGradient id="SVGID_97_" gradientUnits="userSpaceOnUse" x1="513.556" y1="2738.9465" x2="735.226" y2="2638.3564" gradientTransform="matrix(0.91 0.42 0.42 -0.91 -1051.3062 2570.718)">
			<stop  offset="1.000000e-02" style="stop-color:#657A9B"/>
			<stop  offset="0.97" style="stop-color:#000000"/>
		</linearGradient>
		<path class="st98" d="M653.4,296.8c-11.2-12.9-22.3-17.5-22.3-17.5c-32.2-14.8-70.3-0.7-85.1,31.5s-0.7,70.3,31.5,85.1
			c32.2,14.8,70.3,0.7,85.1-31.5c7.1-15.5,7.8-33.1,1.9-49.1C661.9,308.6,658.2,302.3,653.4,296.8z M578.4,393.7
			c-31-14.3-44.6-50.9-30.3-81.9c14.3-31,50.9-44.6,81.9-30.3c31,14.3,44.6,50.9,30.3,81.9c-6.8,14.9-19.3,26.4-34.7,32.1
			C610.3,401.3,593.3,400.6,578.4,393.7L578.4,393.7z"/>
	</g>
</g>
<path class="st92" d="M595.8,310.7h2.2c0,1.6,1.2,2.8,3.2,2.8s3.1-1.2,3.1-2.8s-1.1-2.7-3.2-2.7h-1.8v-2h1.8c1.8,0,2.7-0.8,2.7-2.3
	c0-1.3-1-2.3-2.3-2.3c-0.1,0-0.2,0-0.3,0c-1.3-0.1-2.5,0.8-2.6,2.1c0,0.1,0,0.1,0,0.2h-2.2c0.1-2.9,2-4.4,4.9-4.4s4.9,1.6,4.9,4.2
	c0.1,1.5-0.7,2.8-2.1,3.4l0,0c1.7,0.5,2.8,2.1,2.7,3.9c0,2.9-2.3,4.8-5.4,4.8S595.8,313.7,595.8,310.7z"/>
<path class="st92" d="M608.8,314c0-0.9,0.7-1.6,1.6-1.6c0.9,0,1.6,0.7,1.6,1.6s-0.7,1.6-1.6,1.6c0,0,0,0,0,0c-0.8,0-1.6-0.6-1.6-1.5
	C608.8,314,608.8,314,608.8,314z"/>
<path class="st92" d="M574.4,328.2h7.9v1.5h-6.2v2.9h5.3v1.5h-5.3v3.1h6.2v1.5h-7.9L574.4,328.2z"/>
<path class="st92" d="M586.5,334.8l-3.1-4h1.9l2.3,3.2l2.3-3.2h1.9l-3.1,4l3.2,4.1H590l-2.4-3.3l-2.4,3.3h-1.9L586.5,334.8z"/>
<path class="st92" d="M593,335.9V328h1.6v2.9h4.4v1.4h-4.4v3.6c0,1.3,0.7,1.8,1.7,1.8s1.7-0.5,1.7-1.8v-0.2h1.5v0.2
	c0.1,1.8-1.3,3.3-3.1,3.4s-3.3-1.3-3.4-3.1C593,336.1,593,336,593,335.9L593,335.9z"/>
<path class="st92" d="M600.8,334.2c-0.1-1.9,1.4-3.6,3.3-3.7c1.9-0.1,3.6,1.4,3.7,3.3c0,0.1,0,0.2,0,0.4v0.1h-1.5v-0.1
	c0-1.5-0.8-2.1-1.9-2.1s-1.9,0.6-1.9,2.1v4.8h-1.6L600.8,334.2z"/>
<path class="st92" d="M608.5,335c-0.1-2.3,1.7-4.2,4-4.3c0.1,0,0.3,0,0.4,0c2.3-0.1,4.2,1.6,4.3,3.9c0,0.1,0,0.3,0,0.4v4h-1.4v-1.8
	c-0.5,1.3-1.8,2.1-3.1,2c-2.2,0.1-4-1.7-4.1-3.9C608.5,335.2,608.5,335.1,608.5,335z M615.6,334.9c0-1.5-1.3-2.8-2.8-2.7
	s-2.8,1.3-2.7,2.8c0,1.5,1.3,2.7,2.8,2.8c1.5,0.1,2.7-1.1,2.8-2.6C615.6,335.1,615.6,335,615.6,334.9z"/>
<path class="st92" d="M618.4,334.9c-0.1-2.3,1.8-4.2,4-4.3c0.1,0,0.2,0,0.3,0c2-0.1,3.7,1.2,4.2,3.1h-1.6c-0.6-1.4-2.3-2.1-3.7-1.5
	c-1.4,0.6-2.1,2.3-1.5,3.7s2.3,2.1,3.7,1.5c0.7-0.3,1.2-0.8,1.5-1.5h1.6c-0.4,1.9-2.2,3.2-4.2,3.1c-2.3,0.1-4.2-1.7-4.3-3.9
	C618.4,335.1,618.4,335,618.4,334.9z"/>
<path class="st92" d="M628.2,335.9V328h1.6v2.9h4.4v1.4h-4.4v3.6c0,1.3,0.7,1.8,1.7,1.8s1.7-0.5,1.7-1.8v-0.2h1.5v0.2
	c0.1,1.8-1.3,3.3-3.1,3.4s-3.3-1.3-3.4-3.1C628.2,336.1,628.2,336,628.2,335.9L628.2,335.9z"/>
<path class="st92" d="M565,359.5h1.6c0.4,0.9,1.3,1.5,2.3,1.3c1.2,0.2,2.3-0.7,2.5-1.9c0-0.2,0-0.4,0-0.6v-1.2
	c-0.5,1-1.6,1.6-2.7,1.6c-2,0-3.7-1.3-3.7-4.1v-4.1h1.6v4.1c-0.2,1.3,0.7,2.4,2,2.6c0.2,0,0.3,0,0.5,0c1.3,0.1,2.4-0.9,2.5-2.2
	c0-0.1,0-0.3,0-0.4v-4.1h1.6v7.8c0,2.8-1.8,3.9-4,3.9C567.1,362.4,565.5,361.2,565,359.5z"/>
<path class="st92" d="M574.5,354.5c-0.1-2.4,1.8-4.4,4.2-4.4c2.4-0.1,4.4,1.8,4.4,4.2c0.1,2.4-1.8,4.4-4.2,4.4c0,0-0.1,0-0.1,0
	c-2.3,0.1-4.2-1.6-4.3-3.9C574.5,354.7,574.5,354.6,574.5,354.5z M581.6,354.5c0-1.5-1.3-2.8-2.8-2.7s-2.8,1.3-2.7,2.8
	c0,1.5,1.3,2.7,2.8,2.8c1.5,0.1,2.7-1.1,2.8-2.6C581.6,354.7,581.6,354.6,581.6,354.5z"/>
<path class="st92" d="M584.4,354.7v-4.2h1.6v4.2c-0.1,1.3,0.9,2.5,2.3,2.6c1.3,0.1,2.5-0.9,2.6-2.3c0-0.1,0-0.2,0-0.3v-4.2h1.6v4.2
	c0.2,2-1.2,3.8-3.3,4.1c-0.2,0-0.5,0-0.7,0C586,358.7,584.4,357.4,584.4,354.7z"/>
<path class="st92" d="M594,353.8c-0.1-1.9,1.4-3.6,3.3-3.7c1.9-0.1,3.6,1.4,3.7,3.3c0,0.1,0,0.2,0,0.4v0.1h-1.5v-0.1
	c0-1.5-0.8-2.1-1.9-2.1s-1.9,0.6-1.9,2.1v4.8H594L594,353.8z"/>
<path class="st92" d="M606.7,347.8h3.8c3.7,0,5.7,2.1,5.7,5.4s-2,5.3-5.7,5.3h-3.8V347.8z M610.5,357c2.7,0,4-1.5,4-3.8
	s-1.3-3.8-4-3.8h-2.1v7.6H610.5z"/>
<path class="st92" d="M617.2,354.6c-0.1-2.3,1.7-4.2,4-4.3c0.1,0,0.2,0,0.4,0c2.3-0.1,4.2,1.6,4.3,3.9c0,0.1,0,0.3,0,0.4v4h-1.4
	v-1.8c-0.5,1.3-1.8,2.1-3.1,2c-2.2,0.1-4-1.7-4.1-3.9C617.2,354.8,617.2,354.7,617.2,354.6z M624.3,354.5c0-1.5-1.3-2.8-2.8-2.7
	s-2.8,1.3-2.7,2.8c0,1.5,1.3,2.7,2.8,2.8c1.5,0.1,2.7-1.1,2.8-2.6C624.3,354.7,624.3,354.6,624.3,354.5L624.3,354.5z"/>
<path class="st92" d="M627.4,355.5v-7.9h1.6v2.9h4.4v1.4H629v3.6c0,1.3,0.7,1.8,1.7,1.8s1.7-0.5,1.7-1.8v-0.2h1.5v0.2
	c0,1.8-1.4,3.2-3.2,3.2C628.9,358.7,627.5,357.3,627.4,355.5C627.5,355.5,627.5,355.5,627.4,355.5L627.4,355.5z"/>
<path class="st92" d="M634.9,354.6c-0.1-2.3,1.7-4.2,4-4.3c0.1,0,0.2,0,0.4,0c2.3-0.1,4.2,1.6,4.3,3.9c0,0.1,0,0.3,0,0.4v4h-1.4
	v-1.8c-0.5,1.3-1.8,2.1-3.1,2c-2.2,0.1-4-1.7-4.1-3.9C634.9,354.8,634.9,354.7,634.9,354.6z M642,354.5c0-1.5-1.3-2.8-2.8-2.7
	s-2.8,1.3-2.7,2.8c0,1.5,1.3,2.7,2.8,2.8c1.5,0.1,2.7-1.1,2.8-2.6C642,354.7,642,354.6,642,354.5L642,354.5z"/>
<linearGradient id="SVGID_98_" gradientUnits="userSpaceOnUse" x1="-9811.2646" y1="9739.6611" x2="-9700.1348" y2="9705.4912" gradientTransform="matrix(-0.6881 0.7256 0.7256 0.6881 -13243.8398 915.9541)">
	<stop  offset="1.000000e-02" style="stop-color:#35435F"/>
	<stop  offset="1" style="stop-color:#000000"/>
</linearGradient>
<circle class="st99" cx="526" cy="526" r="68.9"/>
<linearGradient id="SVGID_99_" gradientUnits="userSpaceOnUse" x1="-177.8812" y1="4881.376" x2="49.3588" y2="4881.376" gradientTransform="matrix(0.77 0.64 0.64 -0.77 -2482.4463 4380.7725)">
	<stop  offset="1.000000e-02" style="stop-color:#35435F"/>
	<stop  offset="0.97" style="stop-color:#000000"/>
</linearGradient>
<circle class="st100" cx="526" cy="526" r="63.7"/>
<circle class="st90" cx="523" cy="510.4" r="45.1"/>
<g id="_062-4">
	<g id="_08-4">
		
			<linearGradient id="SVGID_100_" gradientUnits="userSpaceOnUse" x1="521.2847" y1="2535.731" x2="742.9448" y2="2435.1409" gradientTransform="matrix(0.91 0.42 0.42 -0.91 -1051.3062 2570.718)">
			<stop  offset="1.000000e-02" style="stop-color:#657A9B"/>
			<stop  offset="0.97" style="stop-color:#000000"/>
		</linearGradient>
		<path class="st101" d="M575.4,485.3c-11.2-12.9-22.4-17.5-22.4-17.5c-32.2-14.8-70.3-0.7-85.1,31.5s-0.7,70.3,31.5,85.1
			c32.2,14.8,70.3,0.7,85.1-31.5c7.1-15.5,7.8-33.1,1.9-49.1C583.8,497,580.1,490.7,575.4,485.3z M500.4,582.2
			c-31-14.3-44.5-50.9-30.3-81.9S521,455.7,552,470s44.5,50.9,30.3,81.9c-6.8,14.9-19.3,26.4-34.7,32.1
			C532.2,589.7,515.2,589.1,500.4,582.2L500.4,582.2z"/>
	</g>
</g>
<path class="st92" d="M525,500.2h-7.6v-2l7.6-10.3h2.3v10.2h1.7v2h-1.7v3.4H525V500.2z M525,498.2v-7.1l-5.1,7.1H525z"/>
<path class="st92" d="M531.1,502.4c0-0.9,0.7-1.6,1.6-1.6c0.9,0,1.6,0.7,1.6,1.6c0,0.9-0.7,1.6-1.6,1.6c-0.8,0-1.6-0.6-1.6-1.5
	C531,502.4,531,502.4,531.1,502.4z"/>
<path class="st92" d="M493.4,516.7h7.9v1.5h-6.2v2.9h5.3v1.5h-5.3v3.1h6.2v1.5h-7.9V516.7z"/>
<path class="st92" d="M502.8,523.1c-0.2-2,1.3-3.9,3.3-4.1c0.2,0,0.5,0,0.7,0c2.4,0,4,1.4,4,4.1v4.2h-1.6v-4.2
	c0.1-1.3-0.9-2.5-2.2-2.7c-1.3-0.1-2.5,0.9-2.7,2.2c0,0.1,0,0.3,0,0.4v4.2h-1.6L502.8,523.1z"/>
<path class="st92" d="M512.7,515.7h1.6v4.8c0.5-1,1.6-1.6,2.7-1.5c2,0,3.7,1.3,3.7,4.1v4.2h-1.5v-4.2c0-1.8-1-2.7-2.4-2.7
	c-1.3-0.1-2.4,0.9-2.5,2.2c0,0.1,0,0.3,0,0.4v4.2h-1.6L512.7,515.7z"/>
<path class="st92" d="M521.9,523.3c-0.1-2.3,1.7-4.2,4-4.3c0.1,0,0.2,0,0.4,0c2.3-0.1,4.2,1.6,4.3,3.9c0,0.1,0,0.3,0,0.4v4h-1.5
	v-1.8c-0.5,1.3-1.8,2.1-3.1,2c-2.2,0.1-4-1.7-4.1-3.9C521.9,523.6,521.9,523.5,521.9,523.3z M529,523.3c0-1.5-1.3-2.8-2.8-2.7
	c-1.5,0-2.8,1.3-2.7,2.8c0,1.5,1.3,2.7,2.8,2.8c1.5,0.1,2.7-1.1,2.8-2.6C529,523.5,529,523.4,529,523.3L529,523.3z"/>
<path class="st92" d="M532.2,523.1c0-2.7,1.6-4.1,4-4.1s4,1.4,4,4.1v4.2h-1.6v-4.2c0.2-1.3-0.7-2.4-2-2.6c-0.2,0-0.3,0-0.5,0
	c-1.5,0-2.4,0.9-2.4,2.7v4.2h-1.6L532.2,523.1z"/>
<path class="st92" d="M541.4,523.3c-0.1-2.3,1.7-4.2,4-4.3c0.1,0,0.2,0,0.3,0c2-0.1,3.7,1.2,4.2,3.1h-1.6c-0.4-1.1-1.4-1.8-2.6-1.7
	c-1.6,0-2.8,1.3-2.8,2.8s1.3,2.8,2.8,2.8c1.1,0,2.2-0.7,2.6-1.7h1.6c-0.4,1.9-2.2,3.2-4.2,3.1c-2.3,0.1-4.2-1.7-4.3-3.9
	C541.4,523.6,541.4,523.5,541.4,523.3z"/>
<path class="st92" d="M550.9,523.3c0-2.4,1.9-4.3,4.3-4.3c2.4,0,4.3,1.9,4.3,4.3v0.6h-7c0.2,1.3,1.4,2.3,2.7,2.2
	c0.9,0.1,1.7-0.3,2.3-1h1.7c-1.1,2.2-3.7,3.1-5.9,2C551.9,526.5,551,525,550.9,523.3L550.9,523.3z M557.9,522.5
	c-0.3-1.2-1.4-2.1-2.7-2c-1.3-0.1-2.4,0.8-2.7,2H557.9z"/>
<path class="st92" d="M486.9,547.9h1.6c0.4,0.9,1.3,1.5,2.3,1.3c1.2,0.2,2.3-0.7,2.5-1.9c0-0.2,0-0.4,0-0.6v-1.2
	c-0.5,1-1.6,1.6-2.7,1.5c-2,0-3.7-1.3-3.7-4.1v-4.1h1.6v4.1c-0.2,1.3,0.7,2.4,2,2.6c0.2,0,0.3,0,0.5,0c1.3,0.1,2.4-0.9,2.4-2.2
	c0-0.1,0-0.3,0-0.4v-4.1h1.6v7.8c0,2.8-1.8,3.9-4,3.9C489.1,550.8,487.4,549.7,486.9,547.9z"/>
<path class="st92" d="M496.4,542.9c-0.1-2.4,1.8-4.4,4.2-4.4c2.4-0.1,4.4,1.8,4.4,4.2c0.1,2.4-1.8,4.4-4.2,4.4c0,0-0.1,0-0.1,0
	c-2.3,0.1-4.2-1.7-4.3-3.9C496.4,543.1,496.4,543,496.4,542.9z M503.5,542.9c0-1.5-1.3-2.8-2.8-2.7c-1.5,0-2.8,1.3-2.7,2.8
	c0,1.5,1.3,2.8,2.8,2.7c1.5,0.1,2.7-1.1,2.8-2.5C503.5,543.1,503.5,543,503.5,542.9z"/>
<path class="st92" d="M506.3,543.1v-4.2h1.6v4.2c-0.1,1.3,0.9,2.5,2.3,2.6c1.3,0.1,2.5-0.9,2.6-2.3c0-0.1,0-0.2,0-0.3v-4.2h1.6v4.2
	c0.2,2-1.2,3.8-3.3,4.1c-0.2,0-0.5,0-0.7,0C507.9,547.2,506.3,545.8,506.3,543.1z"/>
<path class="st92" d="M515.9,542.2c0-1.9,1.5-3.5,3.5-3.5s3.5,1.5,3.5,3.5c0,0,0,0,0,0v0.2h-1.5v-0.1c0-1.5-0.8-2.1-1.9-2.1
	s-1.9,0.6-1.9,2.1v4.8h-1.6L515.9,542.2z"/>
<path class="st92" d="M528.6,536.3h3.8c3.7,0,5.7,2.1,5.7,5.3s-2,5.3-5.7,5.3h-3.8V536.3z M532.4,545.4c2.7,0,4-1.5,4-3.8
	s-1.3-3.8-4-3.8h-2.1v7.6H532.4z"/>
<path class="st92" d="M539.1,543c-0.1-2.3,1.7-4.2,4-4.3c0.1,0,0.3,0,0.4,0c2.3-0.1,4.2,1.6,4.3,3.9c0,0.1,0,0.3,0,0.4v4h-1.4v-1.8
	c-0.5,1.3-1.8,2.1-3.1,2c-2.2,0.1-4.1-1.7-4.1-3.9C539.1,543.2,539.1,543.1,539.1,543z M546.3,542.9c0-1.5-1.3-2.8-2.8-2.7
	c-1.5,0-2.8,1.3-2.7,2.8c0,1.5,1.3,2.7,2.8,2.8c1.5,0.1,2.7-1.1,2.8-2.6C546.2,543.1,546.2,543,546.3,542.9L546.3,542.9z"/>
<path class="st92" d="M549.4,543.9V536h1.6v2.9h4.4v1.5h-4.4v3.6c0,1.3,0.7,1.8,1.7,1.8s1.7-0.5,1.7-1.8v-0.2h1.5v0.2
	c0.1,1.8-1.3,3.3-3.1,3.4c-1.8,0.1-3.3-1.3-3.4-3.1C549.4,544.2,549.4,544.1,549.4,543.9L549.4,543.9z"/>
<path class="st92" d="M556.8,543c-0.1-2.3,1.7-4.2,4-4.3c0.1,0,0.3,0,0.4,0c2.3-0.1,4.2,1.6,4.3,3.9c0,0.1,0,0.3,0,0.4v4H564v-1.8
	c-0.5,1.3-1.8,2.1-3.1,2c-2.2,0.1-4-1.7-4.1-3.9C556.8,543.2,556.8,543.1,556.8,543z M563.9,542.9c0-1.5-1.3-2.8-2.8-2.7
	c-1.5,0-2.8,1.3-2.7,2.8c0,1.5,1.3,2.7,2.8,2.8c1.5,0.1,2.7-1.1,2.8-2.5C563.9,543.1,563.9,543,563.9,542.9L563.9,542.9z"/>
<linearGradient id="SVGID_101_" gradientUnits="userSpaceOnUse" x1="-9623.2344" y1="9657.4795" x2="-9512.1045" y2="9623.3193" gradientTransform="matrix(-0.6881 0.7256 0.7256 0.6881 -13243.8398 915.9541)">
	<stop  offset="1.000000e-02" style="stop-color:#35435F"/>
	<stop  offset="1" style="stop-color:#000000"/>
</linearGradient>
<circle class="st102" cx="337" cy="605.9" r="68.9"/>
<linearGradient id="SVGID_102_" gradientUnits="userSpaceOnUse" x1="-272.5712" y1="4699.3496" x2="-45.3412" y2="4699.3496" gradientTransform="matrix(0.77 0.64 0.64 -0.77 -2482.4463 4380.7725)">
	<stop  offset="1.000000e-02" style="stop-color:#35435F"/>
	<stop  offset="0.97" style="stop-color:#000000"/>
</linearGradient>
<circle class="st103" cx="337" cy="605.9" r="63.7"/>
<circle class="st90" cx="334" cy="590.3" r="45.1"/>
<g id="_062-5">
	<g id="_08-5">
		
			<linearGradient id="SVGID_103_" gradientUnits="userSpaceOnUse" x1="382.7843" y1="2384.6304" x2="604.4443" y2="2284.0403" gradientTransform="matrix(0.91 0.42 0.42 -0.91 -1051.3062 2570.718)">
			<stop  offset="1.000000e-02" style="stop-color:#657A9B"/>
			<stop  offset="0.97" style="stop-color:#000000"/>
		</linearGradient>
		<path class="st104" d="M386.3,565.1c-11.2-12.9-22.4-17.5-22.4-17.5c-32.2-14.8-70.3-0.7-85.1,31.5c-14.8,32.2-0.7,70.3,31.5,85.1
			c32.2,14.8,70.3,0.7,85.1-31.5c7.1-15.5,7.8-33.1,1.9-49.1C394.8,576.9,391.1,570.6,386.3,565.1z M311.3,662
			c-31-14.3-44.6-50.9-30.3-81.9c14.3-31,50.9-44.6,81.9-30.3c31,14.3,44.6,50.9,30.3,81.9c-6.8,14.9-19.3,26.4-34.7,32.1
			C343.2,669.6,326.2,668.9,311.3,662L311.3,662z"/>
	</g>
</g>
<path class="st92" d="M331,574.8h2.3c0.3,1.5,1.6,2.7,3.2,2.6c1.8,0.1,3.2-1.3,3.3-3.1c0-0.1,0-0.3,0-0.4c0-1.8-1.4-3.3-3.3-3.3
	c-1.2,0-2.4,0.7-2.9,1.8l-2-0.6l1-8.2h8.2v2h-6.5l-0.6,4.6c0.8-1,2-1.6,3.2-1.5c2.8,0,5,2.2,5.1,4.9c0,0.1,0,0.2,0,0.4
	c0.2,2.9-2.1,5.5-5,5.6c-0.2,0-0.3,0-0.5,0C333.7,579.6,331.3,577.6,331,574.8z"/>
<path class="st92" d="M344.2,577.9c0-0.9,0.7-1.6,1.6-1.6c0.9,0,1.6,0.7,1.6,1.6c0,0.9-0.7,1.6-1.6,1.6c-0.8,0-1.6-0.6-1.6-1.5
	C344.2,578,344.2,577.9,344.2,577.9z"/>
<path class="st92" d="M299.6,592.2h1.7v10.7h-1.7V592.2z"/>
<path class="st92" d="M303.2,598.2c0-2.5,1.4-3.6,3.3-3.6c1.2-0.1,2.3,0.6,2.8,1.6c0.6-1,1.7-1.7,2.8-1.6c1.9,0,3.3,1.2,3.3,3.6v4.7
	H314v-4.7c0-1.5-0.8-2.2-1.9-2.2s-1.9,0.7-1.9,2.2v4.7h-1.6v-4.7c0.1-1-0.6-2-1.6-2.2c-0.1,0-0.2,0-0.3,0c-1.1,0-1.9,0.7-1.9,2.2
	v4.7h-1.5V598.2z"/>
<path class="st92" d="M317.2,598.9c-0.1-2.3,1.6-4.2,3.8-4.3c0.1,0,0.3,0,0.4,0c2.3-0.1,4.2,1.6,4.4,3.9c0,0.1,0,0.3,0,0.4
	c0.1,2.2-1.6,4.1-3.8,4.2c-0.1,0-0.2,0-0.3,0c-1.2,0-2.4-0.6-3-1.6v4.9h-1.5L317.2,598.9z M324.3,598.8c0-1.5-1.3-2.8-2.8-2.7
	c-1.5,0-2.8,1.3-2.7,2.8c0,1.5,1.2,2.7,2.8,2.7c1.5,0.1,2.7-1.1,2.8-2.6C324.3,599,324.3,598.9,324.3,598.8z"/>
<path class="st92" d="M327.4,591.3h1.5v11.6h-1.5V591.3z"/>
<path class="st92" d="M330.5,598.8c0-2.4,1.9-4.3,4.3-4.3c2.4,0,4.3,1.9,4.3,4.3v0.6h-7c0.2,1.3,1.4,2.3,2.7,2.2
	c0.9,0.1,1.7-0.3,2.3-1h1.7c-0.7,1.6-2.3,2.6-4,2.5c-2.3,0.1-4.2-1.7-4.3-3.9C330.5,599.1,330.5,598.9,330.5,598.8z M337.5,598
	c-0.4-1.5-2-2.3-3.5-1.9c-0.9,0.3-1.6,1-1.9,1.9H337.5z"/>
<path class="st92" d="M340.5,598.2c0-2.5,1.4-3.6,3.3-3.6c1,1.6,3,2.1,4.6,1.1c0.5-0.3,0.8-0.7,1.1-1.1c1.9,0,3.3,1.2,3.3,3.6v4.7
	h-1.5v-4.7c0-1.5-0.8-2.2-1.9-2.2s-1.9,0.7-1.9,2.2v4.7h-1.5v-4.7c0.1-1-0.6-2-1.6-2.2c-0.1,0-0.2,0-0.3,0c-1.1,0-1.9,0.7-1.9,2.2
	v4.7h-1.5L340.5,598.2z"/>
<path class="st92" d="M354.1,598.8c0-2.4,1.9-4.3,4.3-4.3c2.4,0,4.3,1.9,4.3,4.3v0.6h-7c0.2,1.3,1.4,2.3,2.7,2.2
	c0.9,0.1,1.7-0.3,2.3-1h1.7c-1.1,2.2-3.7,3.1-5.9,2C355.1,602,354.2,600.5,354.1,598.8L354.1,598.8z M361.1,598
	c-0.4-1.5-2-2.3-3.5-1.9c-0.9,0.3-1.6,1-1.9,1.9H361.1z"/>
<path class="st92" d="M364,598.7c0-2.7,1.6-4.1,4-4.1s4,1.4,4,4.1v4.2h-1.5v-4.2c0.2-1.3-0.7-2.5-2-2.6c-0.2,0-0.3,0-0.5,0
	c-1.5,0-2.4,0.9-2.4,2.7v4.2h-1.5L364,598.7z"/>
<path class="st92" d="M373.6,599.8v-7.9h1.5v2.8h4.4v1.4h-4.4v3.6c0,1.3,0.7,1.8,1.7,1.8s1.7-0.5,1.7-1.8v-0.2h1.6v0.2
	c0.1,1.8-1.3,3.3-3.1,3.4c-1.8,0.1-3.3-1.3-3.4-3.1C373.6,600.1,373.6,599.9,373.6,599.8L373.6,599.8z"/>
<path class="st92" d="M321.9,623.4h1.5c0.4,0.9,1.3,1.5,2.3,1.3c1.2,0.1,2.3-0.7,2.5-1.9c0-0.2,0-0.4,0-0.6v-1.2
	c-0.5,1-1.6,1.6-2.7,1.5c-2,0-3.7-1.3-3.7-4.1v-4.1h1.5v4.1c-0.1,1.3,0.9,2.5,2.3,2.6c1.3,0.1,2.5-0.9,2.6-2.3c0-0.1,0-0.2,0-0.3
	v-4.1h1.6v7.8c0,2.8-1.8,3.9-4,3.9C324,626.3,322.3,625.2,321.9,623.4z"/>
<path class="st92" d="M331.3,618.4c-0.1-2.4,1.8-4.4,4.2-4.5s4.4,1.8,4.5,4.2c0.1,2.4-1.8,4.4-4.2,4.5c0,0-0.1,0-0.1,0
	c-2.3,0.1-4.2-1.6-4.3-3.9C331.3,618.7,331.3,618.6,331.3,618.4z M338.4,618.4c0-1.5-1.3-2.8-2.8-2.7c-1.5,0-2.8,1.3-2.7,2.8
	c0,1.5,1.3,2.7,2.8,2.8c1.5,0.1,2.7-1.1,2.8-2.6C338.4,618.6,338.4,618.5,338.4,618.4z"/>
<path class="st92" d="M341.3,618.6v-4.2h1.6v4.2c-0.1,1.3,0.9,2.5,2.3,2.6c1.3,0.1,2.5-0.9,2.6-2.3c0-0.1,0-0.2,0-0.3v-4.2h1.5v4.2
	c0,2.2-1.8,4-4,4S341.3,620.8,341.3,618.6L341.3,618.6z"/>
<path class="st92" d="M350.8,617.7c-0.1-1.9,1.4-3.6,3.3-3.7s3.6,1.4,3.7,3.3c0,0.1,0,0.2,0,0.4v0.1h-1.5v-0.1
	c0-1.5-0.8-2.1-1.9-2.1s-1.9,0.6-1.9,2.1v4.8h-1.5L350.8,617.7z"/>
<path class="st92" d="M301.6,635.8c0-2.8,1.6-4.6,4.6-4.6s4.7,1.8,4.7,4.6v6.3h-1.7v-3.4h-6v3.4h-1.6L301.6,635.8z M309.2,637.2
	v-1.4c0-1.7-1.3-3-3-3s-3,1.3-3,3v1.4H309.2z"/>
<path class="st92" d="M312.8,630.5h1.5v11.6h-1.5V630.5z"/>
<path class="st92" d="M316.2,643.1h1.6c0.5,0.9,1.5,1.5,2.5,1.3c1.7,0,2.8-0.8,2.8-2.9v-0.9c-0.6,1.1-1.8,1.7-3,1.7
	c-2.2,0.1-4-1.7-4.1-3.9c0-0.1,0-0.2,0-0.3c-0.1-2.3,1.8-4.2,4-4.3c0.1,0,0.2,0,0.3,0c2.3-0.1,4.2,1.6,4.3,3.9c0,0.1,0,0.3,0,0.4
	v3.3c0,3.1-1.9,4.3-4.3,4.3C318.3,645.8,316.8,644.9,316.2,643.1z M323,638.1c0-1.5-1.2-2.8-2.8-2.8c-1.5,0-2.8,1.2-2.8,2.8
	c0,0,0,0,0,0c0,1.5,1.2,2.8,2.8,2.8C321.8,640.8,323,639.6,323,638.1z"/>
<path class="st92" d="M325.9,638.1c-0.1-2.4,1.8-4.4,4.2-4.4s4.4,1.8,4.4,4.2s-1.8,4.4-4.2,4.4c0,0-0.1,0-0.1,0
	c-2.3,0.1-4.2-1.7-4.3-3.9C325.9,638.3,325.9,638.2,325.9,638.1z M333,638.1c0-1.5-1.3-2.8-2.8-2.7c-1.5,0-2.8,1.3-2.7,2.8
	c0,1.5,1.3,2.7,2.8,2.8c1.5,0.1,2.7-1.1,2.8-2.5C333,638.2,333,638.2,333,638.1z"/>
<path class="st92" d="M335.8,637.3c-0.1-1.9,1.4-3.6,3.3-3.7s3.6,1.4,3.7,3.3c0,0.1,0,0.2,0,0.4v0.1h-1.5v-0.1
	c0-1.5-0.8-2.1-1.9-2.1s-1.9,0.6-1.9,2.1v4.8h-1.5L335.8,637.3z"/>
<path class="st92" d="M343.8,631.6c0-0.6,0.5-1.1,1.1-1.1c0.6,0,1.1,0.5,1.1,1.1c0,0.6-0.5,1.1-1.1,1.1
	C344.3,632.7,343.8,632.3,343.8,631.6C343.8,631.7,343.8,631.7,343.8,631.6z M344.1,634h1.6v8.1h-1.6L344.1,634z"/>
<path class="st92" d="M347.6,639v-7.9h1.5v2.9h4.4v1.4h-4.4v3.6c0,1.3,0.7,1.8,1.7,1.8s1.7-0.5,1.7-1.8v-0.2h1.5v0.2
	c0.1,1.8-1.3,3.3-3.1,3.4c-1.8,0.1-3.3-1.3-3.4-3.1C347.6,639.3,347.6,639.2,347.6,639L347.6,639z"/>
<path class="st92" d="M355.6,630.5h1.5v4.9c0.5-1,1.6-1.6,2.7-1.5c2,0,3.7,1.3,3.7,4.1v4.2H362v-4.2c0-1.8-1-2.7-2.4-2.7
	c-1.3-0.1-2.4,0.9-2.5,2.2c0,0.1,0,0.3,0,0.4v4.2h-1.5L355.6,630.5z"/>
<path class="st92" d="M365.2,637.4c0-2.5,1.4-3.6,3.3-3.6c1.2-0.1,2.3,0.6,2.8,1.6c0.6-1,1.7-1.7,2.8-1.6c1.9,0,3.3,1.1,3.3,3.6v4.7
	H376v-4.7c0-1.5-0.8-2.2-1.9-2.2s-1.9,0.7-1.9,2.2v4.7h-1.5v-4.7c0-1.5-0.8-2.2-1.9-2.2s-1.9,0.7-1.9,2.2v4.7h-1.5L365.2,637.4z"/>
<linearGradient id="SVGID_104_" gradientUnits="userSpaceOnUse" x1="-9633.8252" y1="9277.9053" x2="-9522.6953" y2="9243.7354" gradientTransform="matrix(-0.6881 0.7256 0.7256 0.6881 -13243.8398 915.9541)">
	<stop  offset="1.000000e-02" style="stop-color:#7CD6FB"/>
	<stop  offset="1" style="stop-color:#098DC9"/>
</linearGradient>
<circle class="st105" cx="68.9" cy="337" r="68.9"/>
<radialGradient id="SVGID_105_" cx="-613.7612" cy="4739.4033" r="63.66" gradientTransform="matrix(0.77 0.64 0.64 -0.77 -2482.4463 4380.7725)" gradientUnits="userSpaceOnUse">
	<stop  offset="1.000000e-02" style="stop-color:#A0F4EC"/>
	<stop  offset="1" style="stop-color:#22BBFF"/>
</radialGradient>
<circle class="st106" cx="68.9" cy="337" r="63.7"/>
<circle class="st107" cx="65.9" cy="321.4" r="45.1"/>
<g id="_062-6">
	<g id="_08-6">
		
			<linearGradient id="SVGID_106_" gradientUnits="userSpaceOnUse" x1="26.6093" y1="2516.4775" x2="248.2692" y2="2415.8877" gradientTransform="matrix(0.91 0.42 0.42 -0.91 -1051.3062 2570.718)">
			<stop  offset="1.000000e-02" style="stop-color:#7CD6FB"/>
			<stop  offset="1" style="stop-color:#098DC9"/>
		</linearGradient>
		<path class="st108" d="M118.2,296.3c-11.2-12.9-22.4-17.5-22.4-17.5c-32.2-14.8-70.3-0.7-85.1,31.5c-14.8,32.2-0.7,70.3,31.5,85.1
			c32.2,14.8,70.3,0.7,85.1-31.5c7.1-15.5,7.8-33.1,1.9-49.1C126.7,308,123,301.7,118.2,296.3z M43.2,393.2
			c-31-14.3-44.6-50.9-30.3-81.9s50.9-44.6,81.9-30.3s44.6,50.9,30.3,81.9c-6.8,14.9-19.3,26.4-34.7,32.1
			C75.1,400.7,58.1,400.1,43.2,393.2L43.2,393.2z"/>
	</g>
</g>
<path class="st109" d="M69.7,316.1H62v-2h10.2v1.9l-7.1,13.7h-2.5L69.7,316.1z"/>
<path class="st109" d="M74.3,328.4c0-0.9,0.7-1.6,1.6-1.6c0.9,0,1.6,0.7,1.6,1.6c0,0.9-0.7,1.6-1.6,1.6
	C75,330,74.3,329.4,74.3,328.4C74.3,328.5,74.3,328.5,74.3,328.4z"/>
<path class="st109" d="M41.8,348c0.1-3.2,2.7-5.7,5.9-5.6c2.3,0.1,4.3,1.5,5.1,3.6H51c-0.7-1.3-2-2.1-3.5-2c-2.2,0-4,1.8-4,4
	s1.8,4,4,4c1.8,0.1,3.4-1,3.9-2.8h-4.5v-1.5h6.3v0.8c-0.4,3.1-3.2,5.4-6.3,5C44,353.2,41.8,350.9,41.8,348L41.8,348z"/>
<path class="st109" d="M54.1,349.4c-0.1-2.4,1.8-4.4,4.2-4.4s4.4,1.8,4.4,4.2c0.1,2.4-1.8,4.4-4.2,4.4c0,0-0.1,0-0.1,0
	c-2.3,0.1-4.2-1.7-4.3-3.9C54.1,349.6,54.1,349.5,54.1,349.4z M61.3,349.4c0-1.5-1.3-2.8-2.8-2.7c-1.5,0-2.8,1.3-2.7,2.8
	c0,1.5,1.3,2.7,2.8,2.8c1.5,0.1,2.7-1.1,2.8-2.6C61.2,349.5,61.2,349.4,61.3,349.4L61.3,349.4z"/>
<path class="st109" d="M68.7,342.7h1.7v9.1h6v1.5h-7.7V342.7z"/>
<path class="st109" d="M77.6,342.9c0-0.6,0.5-1.1,1.1-1.1c0.6,0,1.1,0.5,1.1,1.1c0,0.6-0.5,1.1-1.1,1.1
	C78.1,344,77.6,343.5,77.6,342.9C77.6,342.9,77.6,342.9,77.6,342.9z M77.9,345.3h1.5v8h-1.5V345.3z"/>
<path class="st109" d="M80.8,345.4h1.7l2.6,6.7l2.6-6.7h1.7l-3.3,8h-1.9L80.8,345.4z"/>
<path class="st109" d="M89.9,349.4c0-2.4,1.9-4.3,4.3-4.3c2.4,0,4.3,1.9,4.3,4.3v0.6h-7c0.2,1.3,1.4,2.3,2.7,2.2
	c0.9,0.1,1.7-0.3,2.3-1h1.7c-1,2.2-3.7,3.1-5.8,2.1C90.9,352.5,89.9,351,89.9,349.4L89.9,349.4z M96.9,348.5c-0.4-1.5-2-2.3-3.5-1.9
	c-0.9,0.3-1.6,1-1.9,1.9H96.9z"/>
<linearGradient id="SVGID_107_" gradientUnits="userSpaceOnUse" x1="-9550.7178" y1="9465.2324" x2="-9439.5879" y2="9431.0615" gradientTransform="matrix(-0.6881 0.7256 0.7256 0.6881 -13243.8398 915.9541)">
	<stop  offset="1.000000e-02" style="stop-color:#35435F"/>
	<stop  offset="1" style="stop-color:#000000"/>
</linearGradient>
<circle class="st110" cx="147.6" cy="526.2" r="68.9"/>
<linearGradient id="SVGID_108_" gradientUnits="userSpaceOnUse" x1="-469.2712" y1="4639.6284" x2="-242.0412" y2="4639.6284" gradientTransform="matrix(0.77 0.64 0.64 -0.77 -2482.4463 4380.7725)">
	<stop  offset="1.000000e-02" style="stop-color:#35435F"/>
	<stop  offset="0.97" style="stop-color:#000000"/>
</linearGradient>
<circle class="st111" cx="147.6" cy="526.2" r="63.7"/>
<circle class="st90" cx="144.6" cy="510.6" r="45.1"/>
<g id="_062-7">
	<g id="_08-7">
		
			<linearGradient id="SVGID_109_" gradientUnits="userSpaceOnUse" x1="177.2703" y1="2377.9031" x2="398.9304" y2="2277.313" gradientTransform="matrix(0.91 0.42 0.42 -0.91 -1051.3062 2570.718)">
			<stop  offset="1.000000e-02" style="stop-color:#657A9B"/>
			<stop  offset="0.97" style="stop-color:#000000"/>
		</linearGradient>
		<path class="st112" d="M197,485.5c-11.2-12.9-22.4-17.5-22.4-17.5c-32.2-14.8-70.3-0.7-85.1,31.5c-14.8,32.2-0.7,70.3,31.5,85.1
			c32.2,14.8,70.3,0.7,85.1-31.5c7.1-15.5,7.8-33.1,1.9-49.1C205.4,497.2,201.7,490.9,197,485.5z M122,582.4
			c-31-14.3-44.6-51-30.3-82c14.3-31,51-44.6,82-30.3s44.6,51,30.3,82c-6.8,14.9-19.3,26.4-34.7,32.1
			C153.8,589.9,136.8,589.3,122,582.4L122,582.4z"/>
	</g>
</g>
<path class="st92" d="M139.3,498.6c0-1.6,0.5-3.1,1.5-4.4l3.9-6h2.5l-3.6,5.5c0.6-0.3,1.3-0.5,2-0.5c2.9,0,4.9,2.3,4.9,5.5
	c0,3.1-2.5,5.6-5.6,5.6C141.9,504.2,139.4,501.7,139.3,498.6C139.4,498.6,139.4,498.6,139.3,498.6L139.3,498.6z M148.2,498.6
	c0.2-1.7-1.1-3.3-2.8-3.4c-0.1,0-0.3,0-0.4,0c-1.9,0-3.5,1.6-3.5,3.5s1.6,3.5,3.5,3.5C146.9,502.1,148.2,500.7,148.2,498.6
	L148.2,498.6z"/>
<path class="st92" d="M152.6,502.6c0-0.9,0.7-1.6,1.6-1.6c0.9,0,1.6,0.7,1.6,1.6c0,0.9-0.7,1.6-1.6,1.6c-0.8,0-1.6-0.6-1.6-1.5
	C152.6,502.7,152.6,502.6,152.6,502.6z"/>
<path class="st92" d="M113.9,516.9h7.9v1.5h-6.2v2.9h5.3v1.5h-5.3v3.1h6.2v1.5h-7.9V516.9z"/>
<path class="st92" d="M123.1,525.2h1.6c0,0.7,0.7,1.2,1.8,1.2s1.8-0.5,1.8-1.2s-0.8-0.9-1.9-1c-1.4-0.2-3.1-0.5-3.1-2.3
	c0-1.6,1.2-2.7,3.2-2.7s3.1,1.1,3.2,2.5H128c0-0.6-0.6-1.1-1.6-1.1s-1.6,0.5-1.6,1.1s0.8,0.8,1.8,1c1.4,0.2,3.1,0.4,3.1,2.3
	c0,1.6-1.3,2.7-3.4,2.7S123.1,526.7,123.1,525.2z"/>
<path class="st92" d="M131.1,524.5v-7.9h1.6v2.9h4.4v1.4h-4.4v3.6c0,1.3,0.7,1.8,1.7,1.8s1.7-0.5,1.7-1.8v-0.2h1.5v0.2
	c0,1.8-1.4,3.2-3.2,3.2C132.5,527.8,131.1,526.3,131.1,524.5C131.1,524.5,131.1,524.5,131.1,524.5L131.1,524.5z"/>
<path class="st92" d="M138.5,523.6c-0.1-2.3,1.7-4.2,4-4.3c0.1,0,0.2,0,0.4,0c2.3-0.1,4.2,1.6,4.3,3.9c0,0.1,0,0.3,0,0.4v4h-1.4
	v-1.8c-0.5,1.3-1.8,2.1-3.1,2c-2.2,0.1-4-1.7-4.1-3.9C138.5,523.8,138.5,523.7,138.5,523.6z M145.6,523.5c0-1.5-1.3-2.8-2.8-2.7
	c-1.5,0-2.8,1.3-2.7,2.8c0,1.5,1.3,2.7,2.8,2.8c1.5,0.1,2.7-1.1,2.8-2.6C145.6,523.7,145.6,523.6,145.6,523.5z"/>
<path class="st92" d="M148.8,523.5V516h1.5v5c0.6-1.1,1.8-1.7,3-1.6c2.2-0.1,4,1.7,4.1,3.9c0,0.1,0,0.2,0,0.3c0.1,2.3-1.7,4.2-4,4.3
	c-0.1,0-0.3,0-0.4,0c-2.3,0.1-4.2-1.6-4.3-3.9C148.8,523.8,148.8,523.6,148.8,523.5z M155.9,523.5c0-1.5-1.3-2.7-2.8-2.7
	c-1.5,0-2.7,1.3-2.7,2.8c0,1.5,1.3,2.7,2.8,2.7c1.5,0,2.7-1.1,2.7-2.6C155.9,523.7,155.9,523.6,155.9,523.5L155.9,523.5z"/>
<path class="st92" d="M159,516h1.5v11.6H159V516z"/>
<path class="st92" d="M162.4,517.1c0-0.6,0.5-1.1,1.1-1.1c0.6,0,1.1,0.5,1.1,1.1c0,0.6-0.5,1.1-1.1,1.1
	C162.9,518.2,162.4,517.8,162.4,517.1C162.4,517.2,162.4,517.1,162.4,517.1z M162.7,519.5h1.5v8.1h-1.5V519.5z"/>
<path class="st92" d="M165.9,525.2h1.6c0,0.7,0.7,1.2,1.8,1.2s1.8-0.5,1.8-1.2s-0.8-0.9-1.9-1c-1.4-0.2-3.1-0.5-3.1-2.3
	c0-1.6,1.2-2.7,3.2-2.7s3.1,1.1,3.2,2.5h-1.5c0-0.6-0.6-1.1-1.6-1.1s-1.6,0.5-1.6,1.1s0.8,0.8,1.8,1c1.4,0.2,3.1,0.4,3.1,2.3
	c0,1.6-1.3,2.7-3.3,2.7S165.9,526.7,165.9,525.2z"/>
<path class="st92" d="M174.1,516h1.5v4.8c0.5-1,1.6-1.6,2.7-1.5c2,0,3.7,1.3,3.7,4.1v4.2h-1.5v-4.2c0-1.8-1-2.7-2.4-2.7
	c-1.3-0.1-2.4,0.9-2.5,2.2c0,0.1,0,0.3,0,0.4v4.2h-1.5V516z"/>
<path class="st92" d="M102.7,541.8c0.1-3.2,2.7-5.6,5.9-5.6c2.4,0.1,4.5,1.7,5.3,4h-1.8c-0.6-1.5-2.1-2.5-3.7-2.4c-2.2,0-4,1.8-4,4
	s1.8,4,4,4c1.6,0.1,3.1-0.9,3.7-2.4h1.8c-1,3-4.2,4.7-7.2,3.7C104.4,546.3,102.8,544.2,102.7,541.8L102.7,541.8z"/>
<path class="st92" d="M114.9,543.1c-0.1-2.4,1.8-4.4,4.2-4.4s4.4,1.8,4.4,4.2s-1.8,4.4-4.2,4.4c0,0-0.1,0-0.1,0
	c-2.3,0.1-4.2-1.6-4.3-3.9C114.9,543.4,114.9,543.2,114.9,543.1z M122.1,543.1c0-1.5-1.3-2.8-2.8-2.7c-1.5,0-2.8,1.3-2.7,2.8
	c0,1.5,1.3,2.7,2.8,2.8c1.5,0.1,2.7-1.1,2.8-2.6C122.1,543.3,122.1,543.2,122.1,543.1z"/>
<path class="st92" d="M124.9,543c-0.2-2,1.3-3.9,3.3-4.1c0.2,0,0.5,0,0.7,0c2.4,0,4,1.4,4,4.1v4.2h-1.6V543c0-1.8-1-2.7-2.4-2.7
	c-1.3-0.1-2.4,0.9-2.5,2.2c0,0.2,0,0.3,0,0.5v4.2h-1.5V543z"/>
<path class="st92" d="M134.7,538.8c0-1.9,1.6-3.5,3.5-3.5s3.5,1.6,3.5,3.5h-1.6c0-1.5-0.8-2.1-1.9-2.1c-1-0.1-1.9,0.6-1.9,1.6
	c0,0.1,0,0.2,0,0.4v1.4h4.4v1.4h-4.4v5.5h-1.5L134.7,538.8z M142.4,536.7c0-0.6,0.5-1.1,1.1-1.1c0.6,0,1.1,0.5,1.1,1.1
	c0,0.6-0.5,1.1-1.1,1.1C142.9,537.8,142.4,537.4,142.4,536.7C142.4,536.8,142.4,536.8,142.4,536.7z M142.7,539.1h1.5v8.1h-1.5V539.1
	z"/>
<path class="st92" d="M145.8,543.1c-0.1-2.2,1.6-4.1,3.8-4.2c0.1,0,0.2,0,0.3,0c1.2,0,2.4,0.6,3,1.6v-5h1.5v7.5
	c0.1,2.3-1.6,4.2-3.8,4.3c-0.2,0-0.3,0-0.5,0c-2.3,0.1-4.2-1.7-4.3-3.9C145.8,543.3,145.8,543.2,145.8,543.1z M152.9,543.1
	c0-1.5-1.3-2.8-2.8-2.7c-1.5,0-2.8,1.3-2.7,2.8c0,1.5,1.3,2.7,2.8,2.7c1.5,0.1,2.7-1.1,2.8-2.6C153,543.3,153,543.2,152.9,543.1
	L152.9,543.1z"/>
<path class="st92" d="M155.8,543.1c0-2.4,1.9-4.3,4.3-4.3c2.4,0,4.3,1.9,4.3,4.3v0.6h-7c0.2,1.3,1.3,2.3,2.7,2.2
	c0.9,0.1,1.7-0.3,2.3-1h1.7c-1,2.2-3.7,3.1-5.8,2.1C156.8,546.3,155.9,544.8,155.8,543.1L155.8,543.1z M162.8,542.3
	c-0.3-1.2-1.4-2.1-2.7-2c-1.3-0.1-2.4,0.8-2.7,2H162.8z"/>
<path class="st92" d="M165.7,543c-0.2-2,1.3-3.9,3.3-4.1c0.2,0,0.5,0,0.7,0c2.4,0,4,1.4,4,4.1v4.2h-1.6V543c0.2-1.3-0.7-2.5-2-2.6
	c-0.2,0-0.3,0-0.5,0c-1.5,0-2.4,0.9-2.4,2.7v4.2h-1.6L165.7,543z"/>
<path class="st92" d="M175,543.1c-0.1-2.3,1.7-4.2,4-4.3c0.1,0,0.2,0,0.3,0c2-0.1,3.7,1.2,4.2,3.1h-1.6c-0.4-1.1-1.5-1.8-2.6-1.7
	c-1.6,0-2.8,1.3-2.8,2.8s1.3,2.8,2.8,2.8c1.1,0,2.1-0.7,2.6-1.7h1.6c-0.5,1.9-2.2,3.2-4.2,3.1c-2.3,0.1-4.2-1.7-4.3-3.9
	C175,543.3,175,543.2,175,543.1z"/>
<path class="st92" d="M184.4,543.1c0.1-2.4,2.1-4.2,4.5-4.1c2.2,0.1,4,1.9,4.1,4.1v0.6h-7c0.2,1.3,1.4,2.3,2.7,2.2
	c0.9,0.1,1.7-0.3,2.3-1h1.7c-1.1,2.2-3.7,3.1-5.9,2C185.5,546.3,184.5,544.8,184.4,543.1L184.4,543.1z M191.4,542.3
	c-0.3-1.2-1.4-2.1-2.7-2c-1.3-0.1-2.4,0.8-2.7,2H191.4z"/>
<linearGradient id="SVGID_110_" gradientUnits="userSpaceOnUse" x1="-9825.7744" y1="9205.3789" x2="-9714.6445" y2="9171.209" gradientTransform="matrix(-0.6881 0.7256 0.7256 0.6881 -13243.8398 915.9541)">
	<stop  offset="1.000000e-02" style="stop-color:#35435F"/>
	<stop  offset="1" style="stop-color:#000000"/>
</linearGradient>
<circle class="st113" cx="148.3" cy="147.8" r="68.9"/>
<linearGradient id="SVGID_111_" gradientUnits="userSpaceOnUse" x1="-709.9612" y1="4930.7358" x2="-482.7312" y2="4930.7358" gradientTransform="matrix(0.77 0.64 0.64 -0.77 -2482.4463 4380.7725)">
	<stop  offset="1.000000e-02" style="stop-color:#35435F"/>
	<stop  offset="0.97" style="stop-color:#000000"/>
</linearGradient>
<circle class="st114" cx="148.3" cy="147.8" r="63.7"/>
<circle class="st90" cx="145.3" cy="132.2" r="45.1"/>
<g id="_062-8">
	<g id="_08-8">
		
			<linearGradient id="SVGID_112_" gradientUnits="userSpaceOnUse" x1="19.8095" y1="2720.9617" x2="241.4696" y2="2620.3616" gradientTransform="matrix(0.91 0.42 0.42 -0.91 -1051.3062 2570.718)">
			<stop  offset="1.000000e-02" style="stop-color:#657A9B"/>
			<stop  offset="0.97" style="stop-color:#000000"/>
		</linearGradient>
		<path class="st115" d="M197.7,107.1c-11.2-12.9-22.4-17.5-22.4-17.5C143.1,74.8,105,88.8,90.2,121s-0.7,70.3,31.5,85.1
			c32.2,14.8,70.3,0.7,85.1-31.5c7.1-15.5,7.8-33.1,1.9-49.1C206.2,118.8,202.4,112.5,197.7,107.1z M122.7,204
			c-31-14.3-44.6-50.9-30.3-81.9s50.9-44.6,81.9-30.3c31,14.3,44.6,50.9,30.3,81.9c-6.8,14.9-19.3,26.4-34.7,32.1
			C154.6,211.5,137.5,210.9,122.7,204L122.7,204z"/>
	</g>
</g>
<path class="st92" d="M140,121.1c-0.1-1.8,1.1-3.4,2.8-3.9l0,0c-1.4-0.5-2.3-1.9-2.2-3.4c0-2.6,2-4.2,5-4.2s5,1.6,5,4.2
	c0.1,1.5-0.8,2.9-2.2,3.4l0,0c1.7,0.5,2.8,2.1,2.8,3.9c0,2.9-2.3,4.7-5.5,4.7S140,123.9,140,121.1z M148.8,120.9
	c0-1.7-1.2-2.7-3.1-2.7h-0.3c-1.9,0-3.1,1-3.1,2.7s1.1,2.8,3.3,2.8S148.8,122.5,148.8,120.9z M145.7,116.2c1.6,0,2.6-0.9,2.6-2.3
	s-0.9-2.4-2.7-2.4s-2.7,1-2.7,2.4s1,2.3,2.6,2.3H145.7z"/>
<path class="st92" d="M153.2,124.2c0-0.9,0.7-1.6,1.6-1.6s1.6,0.7,1.6,1.6s-0.7,1.6-1.6,1.6c-0.8,0-1.6-0.6-1.6-1.5
	C153.2,124.3,153.2,124.2,153.2,124.2z"/>
<path class="st92" d="M107.3,138.5h4.6c2.6,0,3.8,1.4,3.8,3.4c0.1,1.5-0.9,3-2.4,3.3l2.8,4h-2l-2.6-3.8H109v3.8h-1.7L107.3,138.5z
	 M111.9,143.8c1.6,0,2.1-0.8,2.1-1.9s-0.5-1.9-2.1-1.9H109v3.8L111.9,143.8z"/>
<path class="st92" d="M116.9,145.1c0-2.4,1.9-4.3,4.3-4.3c2.4,0,4.3,1.9,4.3,4.3v0.6h-7c0.2,1.3,1.4,2.3,2.7,2.2
	c0.9,0.1,1.7-0.3,2.3-1h1.7c-1.1,2.2-3.7,3.1-5.9,2C117.9,148.3,117,146.8,116.9,145.1L116.9,145.1z M123.9,144.3
	c-0.4-1.5-2-2.3-3.5-1.9c-0.9,0.3-1.6,1-1.9,1.9H123.9z"/>
<path class="st92" d="M127.1,140.8c0-1.9,1.6-3.5,3.5-3.5c1.9,0,3.5,1.6,3.5,3.5h-1.5c0-1.1-0.9-1.9-1.9-1.9s-1.9,0.9-1.9,1.9
	c0,0,0,0,0,0v1.4h4.5v1.4h-4.4v5.5h-1.6V140.8z M134.8,138.7c-0.1-0.6,0.4-1.1,1-1.2c0.6-0.1,1.1,0.4,1.2,1c0,0.1,0,0.1,0,0.2
	c0.1,0.6-0.4,1.1-1,1.2c-0.6,0.1-1.1-0.4-1.2-1C134.8,138.8,134.8,138.8,134.8,138.7z M135.1,141.1h1.5v8.1h-1.5L135.1,141.1z"/>
<path class="st92" d="M138.5,145c0-2.7,1.6-4.1,4-4.1s4,1.4,4,4.1v4.2H145V145c0-1.8-1-2.6-2.4-2.6c-1.3-0.1-2.4,0.9-2.5,2.2
	c0,0.2,0,0.3,0,0.5v4.2h-1.5L138.5,145z"/>
<path class="st92" d="M147.8,145.1c0-2.4,1.9-4.3,4.3-4.3c2.4,0,4.3,1.9,4.3,4.3v0.6h-7c0.2,1.3,1.4,2.3,2.7,2.2
	c0.9,0.1,1.7-0.3,2.3-1h1.7c-1.1,2.2-3.7,3.1-5.9,2C148.8,148.3,147.8,146.8,147.8,145.1L147.8,145.1z M154.8,144.3
	c-0.4-1.5-2-2.3-3.5-1.9c-0.9,0.3-1.6,1-1.9,1.9H154.8z"/>
<path class="st92" d="M161.7,145.2c-0.1-2.3,1.7-4.2,4-4.3c0.1,0,0.2,0,0.4,0c2.3-0.1,4.2,1.6,4.3,3.9c0,0.2,0,0.3,0,0.5v4H169v-1.8
	c-0.5,1.3-1.8,2.1-3.1,2c-2.2,0.1-4-1.7-4.1-3.9C161.7,145.4,161.7,145.3,161.7,145.2z M168.9,145.1c0-1.5-1.3-2.8-2.8-2.7
	c-1.5,0-2.8,1.3-2.7,2.8c0,1.5,1.3,2.8,2.8,2.7c1.5,0.1,2.7-1.1,2.8-2.6C168.9,145.3,168.9,145.2,168.9,145.1L168.9,145.1z"/>
<path class="st92" d="M172,145c0-2.7,1.6-4.1,4-4.1s4,1.4,4,4.1v4.2h-1.5V145c0.2-1.3-0.7-2.5-2-2.6c-0.2,0-0.3,0-0.5,0
	c-1.5,0-2.4,0.9-2.4,2.6v4.2H172L172,145z"/>
<path class="st92" d="M181.3,145.1c-0.1-2.2,1.6-4.1,3.8-4.2c0.1,0,0.2,0,0.3,0c1.2-0.1,2.4,0.6,3,1.6v-5h1.6v7.5
	c0.1,2.3-1.6,4.2-3.8,4.3c-0.2,0-0.3,0-0.5,0c-2.3,0.1-4.2-1.6-4.4-3.9C181.3,145.3,181.3,145.2,181.3,145.1z M188.4,145.1
	c0-1.5-1.3-2.8-2.8-2.7c-1.5,0-2.8,1.3-2.7,2.8c0,1.5,1.3,2.7,2.8,2.7c1.5,0.1,2.7-1.1,2.8-2.6C188.4,145.3,188.4,145.2,188.4,145.1
	z"/>
<path class="st92" d="M121.1,158.1h4.6c2.6,0,3.8,1.5,3.8,3.4c0.1,1.6-0.9,3-2.4,3.3l2.8,4h-2l-2.5-3.8h-2.5v3.8h-1.7L121.1,158.1z
	 M125.7,163.4c1.5,0,2.1-0.8,2.1-1.9s-0.5-1.9-2.1-1.9h-2.9v3.8H125.7z"/>
<path class="st92" d="M130.6,164.7c0-2.4,1.9-4.3,4.3-4.3c2.4,0,4.3,1.9,4.3,4.3v0.6h-7c0.2,1.3,1.4,2.3,2.7,2.2
	c0.9,0.1,1.7-0.3,2.3-1h1.7c-0.7,1.6-2.3,2.6-4,2.5c-2.3,0.1-4.2-1.7-4.3-3.9C130.6,165,130.6,164.9,130.6,164.7z M137.6,163.9
	c-0.4-1.5-2-2.3-3.5-1.9c-0.9,0.3-1.6,1-1.9,1.9H137.6z"/>
<path class="st92" d="M140.6,164.8c-0.1-2.3,1.6-4.2,3.8-4.3c0.2,0,0.3,0,0.5,0c2.3-0.1,4.2,1.6,4.4,3.9c0,0.1,0,0.2,0,0.4
	c0.1,2.2-1.6,4.1-3.8,4.2c-0.1,0-0.2,0-0.3,0c-1.2,0-2.4-0.6-3-1.6v4.9h-1.5L140.6,164.8z M147.7,164.7c0-1.5-1.3-2.8-2.8-2.7
	c-1.5,0-2.8,1.3-2.7,2.8c0,1.5,1.2,2.7,2.8,2.7c1.5,0.1,2.7-1.1,2.8-2.6C147.7,164.9,147.7,164.8,147.7,164.7L147.7,164.7z"/>
<path class="st92" d="M150.2,164.7c0-2.4,1.9-4.3,4.3-4.3c2.4,0,4.3,1.9,4.3,4.3v0.6h-7c0.2,1.3,1.4,2.3,2.7,2.2
	c0.9,0.1,1.7-0.3,2.3-1h1.7c-1.1,2.2-3.7,3.1-5.9,2C151.2,167.9,150.2,166.4,150.2,164.7L150.2,164.7z M157.2,163.9
	c-0.4-1.5-2-2.3-3.4-1.9c-0.9,0.3-1.6,1-1.9,1.9H157.2z"/>
<path class="st92" d="M159.8,164.8c-0.1-2.3,1.7-4.2,4-4.3c0.1,0,0.2,0,0.4,0c2.3-0.1,4.2,1.6,4.3,3.9c0,0.1,0,0.3,0,0.4v4H167V167
	c-0.5,1.3-1.8,2.1-3.1,2c-2.2,0.1-4-1.7-4.1-3.9C159.8,165,159.8,164.9,159.8,164.8z M166.9,164.7c0-1.5-1.3-2.8-2.8-2.7
	c-1.5,0-2.8,1.3-2.7,2.8c0,1.5,1.3,2.8,2.8,2.7c1.5,0.1,2.7-1.1,2.8-2.6C166.9,164.9,166.9,164.8,166.9,164.7L166.9,164.7z"/>
<path class="st92" d="M170,165.7v-7.9h1.6v2.9h4.4v1.4h-4.4v3.6c0,1.3,0.7,1.8,1.7,1.8s1.7-0.5,1.7-1.8v-0.2h1.5v0.2
	c0.1,1.8-1.3,3.3-3.1,3.4s-3.3-1.3-3.4-3.1C170,166,170,165.8,170,165.7L170,165.7z"/>
<path d="M287.5,345.4v-8.5h2v8.5c0,2,1.1,2.9,2.6,2.9s2.6-1,2.6-2.9v-8.5h2v8.5c0,2,1.1,2.9,2.6,2.9s2.6-0.9,2.6-2.9v-8.5h2v8.5
	c0.2,1.7-0.7,3.4-2.2,4.3c-0.7,0.3-1.5,0.5-2.3,0.5c-0.8,0-1.5-0.2-2.2-0.5c-0.7-0.4-1.2-1-1.6-1.7c-0.4,0.7-0.9,1.3-1.7,1.7
	c-1.6,0.8-3.5,0.6-5-0.4C287.9,348.3,287.3,346.8,287.5,345.4z"/>
<path d="M305.6,344.9c0-2.9,2.4-5.3,5.3-5.3c2.9,0,5.3,2.4,5.3,5.3v0.7h-8.6c0.2,1.6,1.7,2.8,3.3,2.7c1.1,0.1,2.1-0.4,2.8-1.3h2.1
	c-1.3,2.7-4.5,3.8-7.2,2.5C306.8,348.7,305.7,346.9,305.6,344.9L305.6,344.9z M314.2,343.9c-0.4-1.5-1.7-2.5-3.3-2.4
	c-1.5-0.1-2.9,0.9-3.3,2.4H314.2z"/>
<path d="M323,351.1h1.9c0.6,1.1,1.8,1.8,3.1,1.6c2,0,3.4-1,3.4-3.5V348c-0.8,1.3-2.2,2.1-3.7,2c-2.7,0.1-4.9-2-5-4.7
	c0-0.1,0-0.3,0-0.4c-0.1-2.8,2.1-5.1,4.9-5.2c0.1,0,0.3,0,0.4,0c2.8-0.2,5.1,1.9,5.3,4.7c0,0.2,0,0.4,0,0.6v4.1
	c0,3.8-2.3,5.3-5.2,5.3C325.6,354.4,323.7,353.4,323,351.1z M331.4,344.9c0-1.9-1.5-3.4-3.4-3.4c-1.9,0-3.4,1.5-3.4,3.4c0,0,0,0,0,0
	c0,1.9,1.5,3.4,3.4,3.4C329.9,348.3,331.4,346.8,331.4,344.9z"/>
<path d="M334.8,344.9c-0.1-2.9,2.3-5.4,5.2-5.4c2.9-0.1,5.4,2.3,5.4,5.2c0.1,2.9-2.3,5.4-5.2,5.4c0,0-0.1,0-0.1,0
	c-2.8,0.1-5.2-2-5.3-4.8C334.8,345.2,334.8,345.1,334.8,344.9z M343.6,344.9c0-1.9-1.5-3.4-3.4-3.4c-1.9,0-3.4,1.5-3.4,3.4
	c0,1.9,1.5,3.4,3.4,3.4c1.8,0.1,3.3-1.3,3.4-3.1C343.6,345.1,343.6,345,343.6,344.9L343.6,344.9z"/>
<path d="M352.7,335.7h1.9v14.2h-1.9V335.7z"/>
<path d="M356.9,337.1c0-0.7,0.6-1.3,1.3-1.3s1.3,0.6,1.3,1.3s-0.6,1.3-1.3,1.3S356.9,337.8,356.9,337.1L356.9,337.1z M357.3,340h1.9
	v9.9h-1.9V340z"/>
<path d="M360.9,340h2.1l3.2,8.2l3.2-8.2h2l-4.1,9.9H365L360.9,340z"/>
<path d="M371.9,344.9c0-2.9,2.4-5.3,5.3-5.3s5.3,2.4,5.3,5.3v0.7h-8.6c0.2,1.6,1.7,2.8,3.3,2.7c1.1,0.1,2.1-0.4,2.8-1.3h2.1
	c-1.3,2.7-4.5,3.8-7.2,2.5C373.2,348.7,372,346.9,371.9,344.9z M380.5,343.9c-0.4-1.5-1.7-2.5-3.3-2.4c-1.5-0.1-2.9,0.9-3.3,2.4
	H380.5z"/>
<path d="M383.9,348.8c0-0.7,0.6-1.3,1.3-1.3c0.7,0,1.3,0.6,1.3,1.3c0,0.7-0.6,1.3-1.3,1.3l0,0C384.5,350.2,383.9,349.6,383.9,348.8
	C383.9,348.9,383.9,348.8,383.9,348.8z"/>
</svg>
