<?xml version="1.0" encoding="utf-8"?>
<!-- Generator: Adobe Illustrator 24.0.1, SVG Export Plug-In . SVG Version: 6.00 Build 0)  -->
<svg version="1.1" id="SeerCycle" xmlns="http://www.w3.org/2000/svg" xmlns:xlink="http://www.w3.org/1999/xlink" x="0px" y="0px"
	 viewBox="0 0 673 674.8" style="enable-background:new 0 0 673 674.8;" xml:space="preserve">
<style type="text/css">
	.st0{fill:url(#SVGID_1_);}
	.st1{fill:url(#SVGID_2_);}
	.st2{fill:url(#SVGID_3_);}
	.st3{fill:url(#SVGID_4_);}
	.st4{fill:url(#SVGID_5_);}
	.st5{fill:url(#SVGID_6_);}
	.st6{fill:url(#SVGID_7_);}
	.st7{fill:url(#SVGID_8_);}
	.st8{fill:url(#SVGID_9_);}
	.st9{fill:url(#SVGID_10_);}
	.st10{fill:url(#SVGID_11_);}
	.st11{fill:url(#SVGID_12_);}
	.st12{fill:url(#SVGID_13_);}
	.st13{fill:url(#SVGID_14_);}
	.st14{fill:url(#SVGID_15_);}
	.st15{fill:url(#SVGID_16_);}
	.st16{fill:url(#SVGID_17_);}
	.st17{fill:url(#SVGID_18_);}
	.st18{fill:url(#SVGID_19_);}
	.st19{fill:url(#SVGID_20_);}
	.st20{fill:url(#SVGID_21_);}
	.st21{fill:url(#SVGID_22_);}
	.st22{fill:url(#SVGID_23_);}
	.st23{fill:url(#SVGID_24_);}
	.st24{fill:url(#SVGID_25_);}
	.st25{fill:url(#SVGID_26_);}
	.st26{fill:url(#SVGID_27_);}
	.st27{fill:url(#SVGID_28_);}
	.st28{fill:url(#SVGID_29_);}
	.st29{fill:url(#SVGID_30_);}
	.st30{fill:url(#SVGID_31_);}
	.st31{fill:url(#SVGID_32_);}
	.st32{fill:url(#SVGID_33_);}
	.st33{fill:url(#SVGID_34_);}
	.st34{fill:url(#SVGID_35_);}
	.st35{fill:url(#SVGID_36_);}
	.st36{fill:url(#SVGID_37_);}
	.st37{fill:url(#SVGID_38_);}
	.st38{fill:url(#SVGID_39_);}
	.st39{fill:url(#SVGID_40_);}
	.st40{fill:url(#SVGID_41_);}
	.st41{fill:url(#SVGID_42_);}
	.st42{fill:url(#SVGID_43_);}
	.st43{fill:url(#SVGID_44_);}
	.st44{fill:url(#SVGID_45_);}
	.st45{fill:url(#SVGID_46_);}
	.st46{fill:url(#SVGID_47_);}
	.st47{fill:url(#SVGID_48_);}
	.st48{fill:url(#SVGID_49_);}
	.st49{fill:url(#SVGID_50_);}
	.st50{fill:url(#SVGID_51_);}
	.st51{fill:url(#SVGID_52_);}
	.st52{fill:url(#SVGID_53_);}
	.st53{fill:url(#SVGID_54_);}
	.st54{fill:url(#SVGID_55_);}
	.st55{fill:url(#SVGID_56_);}
	.st56{fill:url(#SVGID_57_);}
	.st57{fill:url(#SVGID_58_);}
	.st58{fill:url(#SVGID_59_);}
	.st59{fill:url(#SVGID_60_);}
	.st60{fill:url(#SVGID_61_);}
	.st61{fill:url(#SVGID_62_);}
	.st62{fill:url(#SVGID_63_);}
	.st63{fill:url(#SVGID_64_);}
	.st64{fill:url(#SVGID_65_);}
	.st65{fill:url(#SVGID_66_);}
	.st66{fill:url(#SVGID_67_);}
	.st67{fill:url(#SVGID_68_);}
	.st68{fill:url(#SVGID_69_);}
	.st69{fill:url(#SVGID_70_);}
	.st70{fill:url(#SVGID_71_);}
	.st71{fill:url(#SVGID_72_);}
	.st72{fill:url(#SVGID_73_);}
	.st73{fill:url(#SVGID_74_);}
	.st74{fill:url(#SVGID_75_);}
	.st75{fill:url(#SVGID_76_);}
	.st76{fill:url(#SVGID_77_);}
	.st77{fill:url(#SVGID_78_);}
	.st78{fill:url(#SVGID_79_);}
	.st79{fill:url(#SVGID_80_);}
	.st80{fill:url(#SVGID_81_);}
	.st81{fill:url(#SVGID_82_);}
	.st82{fill:url(#SVGID_83_);}
	.st83{fill:url(#SVGID_84_);}
	.st84{fill:url(#SVGID_85_);}
	.st85{fill:url(#SVGID_86_);}
	.st86{fill:url(#SVGID_87_);}
	.st87{fill:url(#SVGID_88_);}
	.st88{fill:url(#SVGID_89_);}
	.st89{fill:url(#SVGID_90_);}
	.st90{opacity:5.000000e-02;fill:#FFFFFF;enable-background:new    ;}
	.st91{fill:url(#SVGID_91_);}
	.st92{fill:#FFFFFF;}
	.st93{fill:url(#SVGID_92_);}
	.st94{fill:url(#SVGID_93_);}
	.st95{fill:url(#SVGID_94_);}
	.st96{fill:url(#SVGID_95_);}
	.st97{fill:url(#SVGID_96_);}
	.st98{opacity:0.15;fill:#FFFFFF;enable-background:new    ;}
	.st99{fill:url(#SVGID_97_);}
	.st100{fill:#001A28;}
	.st101{fill:url(#SVGID_98_);}
	.st102{fill:url(#SVGID_99_);}
	.st103{fill:url(#SVGID_100_);}
	.st104{fill:url(#SVGID_101_);}
	.st105{fill:url(#SVGID_102_);}
	.st106{fill:url(#SVGID_103_);}
	.st107{fill:url(#SVGID_104_);}
	.st108{fill:url(#SVGID_105_);}
	.st109{fill:url(#SVGID_106_);}
	.st110{fill:url(#SVGID_107_);}
	.st111{fill:url(#SVGID_108_);}
	.st112{fill:url(#SVGID_109_);}
	.st113{fill:url(#SVGID_110_);}
	.st114{fill:url(#SVGID_111_);}
	.st115{fill:url(#SVGID_112_);}
</style>
<linearGradient id="SVGID_1_" gradientUnits="userSpaceOnUse" x1="12.2753" y1="-838.736" x2="17.2967" y2="-838.736" gradientTransform="matrix(0.9585 -0.285 -0.285 -0.9585 -4.5043 -713.5195)">
	<stop  offset="1.000000e-02" style="stop-color:#35435F"/>
	<stop  offset="0.97" style="stop-color:#000000"/>
</linearGradient>
<circle class="st0" cx="248.6" cy="86.2" r="2.5"/>
<linearGradient id="SVGID_2_" gradientUnits="userSpaceOnUse" x1="23.1753" y1="-838.1071" x2="28.2053" y2="-838.1071" gradientTransform="matrix(0.9585 -0.285 -0.285 -0.9585 -4.5043 -713.5195)">
	<stop  offset="1.000000e-02" style="stop-color:#35435F"/>
	<stop  offset="0.97" style="stop-color:#000000"/>
</linearGradient>
<circle class="st1" cx="258.9" cy="82.5" r="2.5"/>
<linearGradient id="SVGID_3_" gradientUnits="userSpaceOnUse" x1="18.1953" y1="-832.8722" x2="23.2253" y2="-832.8722" gradientTransform="matrix(0.9585 -0.285 -0.285 -0.9585 -4.5043 -713.5195)">
	<stop  offset="1.000000e-02" style="stop-color:#35435F"/>
	<stop  offset="0.97" style="stop-color:#000000"/>
</linearGradient>
<circle class="st2" cx="252.6" cy="78.9" r="2.5"/>
<linearGradient id="SVGID_4_" gradientUnits="userSpaceOnUse" x1="18.1953" y1="-843.5539" x2="23.2253" y2="-843.5539" gradientTransform="matrix(0.9585 -0.285 -0.285 -0.9585 -4.5043 -713.5195)">
	<stop  offset="1.000000e-02" style="stop-color:#35435F"/>
	<stop  offset="0.97" style="stop-color:#000000"/>
</linearGradient>
<circle class="st3" cx="255.7" cy="89.2" r="2.5"/>
<linearGradient id="SVGID_5_" gradientUnits="userSpaceOnUse" x1="12.5553" y1="-828.295" x2="17.5853" y2="-828.295" gradientTransform="matrix(0.9585 -0.285 -0.285 -0.9585 -4.5043 -713.5195)">
	<stop  offset="1.000000e-02" style="stop-color:#35435F"/>
	<stop  offset="0.97" style="stop-color:#000000"/>
</linearGradient>
<circle class="st4" cx="245.9" cy="76.2" r="2.5"/>
<linearGradient id="SVGID_6_" gradientUnits="userSpaceOnUse" x1="12.5553" y1="-848.1269" x2="17.5853" y2="-848.1269" gradientTransform="matrix(0.9585 -0.285 -0.285 -0.9585 -4.5043 -713.5195)">
	<stop  offset="1.000000e-02" style="stop-color:#35435F"/>
	<stop  offset="0.97" style="stop-color:#000000"/>
</linearGradient>
<circle class="st5" cx="251.5" cy="95.2" r="2.5"/>
<linearGradient id="SVGID_7_" gradientUnits="userSpaceOnUse" x1="4.9653" y1="-838.953" x2="9.9953" y2="-838.953" gradientTransform="matrix(0.9585 -0.285 -0.285 -0.9585 -4.5043 -713.5195)">
	<stop  offset="1.000000e-02" style="stop-color:#35435F"/>
	<stop  offset="0.97" style="stop-color:#000000"/>
</linearGradient>
<circle class="st6" cx="241.7" cy="88.5" r="2.5"/>
<linearGradient id="SVGID_8_" gradientUnits="userSpaceOnUse" x1="-2.4847" y1="-839.7001" x2="2.5454" y2="-839.7001" gradientTransform="matrix(0.9585 -0.285 -0.285 -0.9585 -4.5043 -713.5195)">
	<stop  offset="1.000000e-02" style="stop-color:#35435F"/>
	<stop  offset="0.97" style="stop-color:#000000"/>
</linearGradient>
<circle class="st7" cx="234.7" cy="91.4" r="2.5"/>
<linearGradient id="SVGID_9_" gradientUnits="userSpaceOnUse" x1="-9.9546" y1="-840.5362" x2="-4.9247" y2="-840.5362" gradientTransform="matrix(0.9585 -0.285 -0.285 -0.9585 -4.5043 -713.5195)">
	<stop  offset="1.000000e-02" style="stop-color:#35435F"/>
	<stop  offset="0.97" style="stop-color:#000000"/>
</linearGradient>
<circle class="st8" cx="227.8" cy="94.3" r="2.5"/>
<linearGradient id="SVGID_10_" gradientUnits="userSpaceOnUse" x1="-17.3847" y1="-841.2382" x2="-12.3547" y2="-841.2382" gradientTransform="matrix(0.9585 -0.285 -0.285 -0.9585 -4.5043 -713.5195)">
	<stop  offset="1.000000e-02" style="stop-color:#35435F"/>
	<stop  offset="0.97" style="stop-color:#000000"/>
</linearGradient>
<circle class="st9" cx="220.9" cy="97.1" r="2.5"/>
<linearGradient id="SVGID_11_" gradientUnits="userSpaceOnUse" x1="-25.0847" y1="-842.9742" x2="-20.0547" y2="-842.9742" gradientTransform="matrix(0.9585 -0.285 -0.285 -0.9585 -4.5043 -713.5195)">
	<stop  offset="1.000000e-02" style="stop-color:#35435F"/>
	<stop  offset="0.97" style="stop-color:#000000"/>
</linearGradient>
<circle class="st10" cx="214" cy="101" r="2.5"/>
<linearGradient id="SVGID_12_" gradientUnits="userSpaceOnUse" x1="-2764.408" y1="-3939.5154" x2="-2759.3782" y2="-3939.5154" gradientTransform="matrix(0.46 -0.89 -0.89 -0.46 -2130.3938 -4065.2222)">
	<stop  offset="1.000000e-02" style="stop-color:#35435F"/>
	<stop  offset="0.97" style="stop-color:#000000"/>
</linearGradient>
<circle class="st11" cx="96.6" cy="221.9" r="2.5"/>
<linearGradient id="SVGID_13_" gradientUnits="userSpaceOnUse" x1="-2753.5081" y1="-3938.9319" x2="-2748.478" y2="-3938.9319" gradientTransform="matrix(0.46 -0.89 -0.89 -0.46 -2130.3938 -4065.2222)">
	<stop  offset="1.000000e-02" style="stop-color:#35435F"/>
	<stop  offset="0.97" style="stop-color:#000000"/>
</linearGradient>
<circle class="st12" cx="101.1" cy="211.9" r="2.5"/>
<linearGradient id="SVGID_14_" gradientUnits="userSpaceOnUse" x1="-2758.478" y1="-3933.6902" x2="-2753.448" y2="-3933.6902" gradientTransform="matrix(0.46 -0.89 -0.89 -0.46 -2130.3938 -4065.2222)">
	<stop  offset="1.000000e-02" style="stop-color:#35435F"/>
	<stop  offset="0.97" style="stop-color:#000000"/>
</linearGradient>
<circle class="st13" cx="94.2" cy="213.9" r="2.5"/>
<linearGradient id="SVGID_15_" gradientUnits="userSpaceOnUse" x1="-2758.478" y1="-3944.356" x2="-2753.448" y2="-3944.356" gradientTransform="matrix(0.46 -0.89 -0.89 -0.46 -2130.3938 -4065.2222)">
	<stop  offset="1.000000e-02" style="stop-color:#35435F"/>
	<stop  offset="0.97" style="stop-color:#000000"/>
</linearGradient>
<circle class="st14" cx="103.6" cy="218.9" r="2.5"/>
<linearGradient id="SVGID_16_" gradientUnits="userSpaceOnUse" x1="-2764.1182" y1="-3929.0957" x2="-2759.0981" y2="-3929.0957" gradientTransform="matrix(0.46 -0.89 -0.89 -0.46 -2130.3938 -4065.2222)">
	<stop  offset="1.000000e-02" style="stop-color:#35435F"/>
	<stop  offset="0.97" style="stop-color:#000000"/>
</linearGradient>
<circle class="st15" cx="87.5" cy="216.8" r="2.5"/>
<linearGradient id="SVGID_17_" gradientUnits="userSpaceOnUse" x1="-2764.1182" y1="-3948.896" x2="-2759.0981" y2="-3948.896" gradientTransform="matrix(0.46 -0.89 -0.89 -0.46 -2130.3938 -4065.2222)">
	<stop  offset="1.000000e-02" style="stop-color:#35435F"/>
	<stop  offset="0.97" style="stop-color:#000000"/>
</linearGradient>
<circle class="st16" cx="105.1" cy="226" r="2.5"/>
<linearGradient id="SVGID_18_" gradientUnits="userSpaceOnUse" x1="-2771.718" y1="-3939.689" x2="-2766.688" y2="-3939.689" gradientTransform="matrix(0.46 -0.89 -0.89 -0.46 -2130.3938 -4065.2222)">
	<stop  offset="1.000000e-02" style="stop-color:#35435F"/>
	<stop  offset="0.97" style="stop-color:#000000"/>
</linearGradient>
<circle class="st17" cx="93.4" cy="228.5" r="2.5"/>
<linearGradient id="SVGID_19_" gradientUnits="userSpaceOnUse" x1="-2779.158" y1="-3940.4089" x2="-2774.1379" y2="-3940.4089" gradientTransform="matrix(0.46 -0.89 -0.89 -0.46 -2130.3938 -4065.2222)">
	<stop  offset="1.000000e-02" style="stop-color:#35435F"/>
	<stop  offset="0.97" style="stop-color:#000000"/>
</linearGradient>
<circle class="st18" cx="90.6" cy="235.4" r="2.5"/>
<linearGradient id="SVGID_20_" gradientUnits="userSpaceOnUse" x1="-2786.6282" y1="-3941.21" x2="-2781.5981" y2="-3941.21" gradientTransform="matrix(0.46 -0.89 -0.89 -0.46 -2130.3938 -4065.2222)">
	<stop  offset="1.000000e-02" style="stop-color:#35435F"/>
	<stop  offset="0.97" style="stop-color:#000000"/>
</linearGradient>
<circle class="st19" cx="87.9" cy="242.4" r="2.5"/>
<linearGradient id="SVGID_21_" gradientUnits="userSpaceOnUse" x1="-2794.0581" y1="-3941.8674" x2="-2789.0381" y2="-3941.8674" gradientTransform="matrix(0.46 -0.89 -0.89 -0.46 -2130.3938 -4065.2222)">
	<stop  offset="1.000000e-02" style="stop-color:#35435F"/>
	<stop  offset="0.97" style="stop-color:#000000"/>
</linearGradient>
<circle class="st20" cx="85.1" cy="249.3" r="2.5"/>
<linearGradient id="SVGID_22_" gradientUnits="userSpaceOnUse" x1="-2801.7581" y1="-3943.5596" x2="-2796.728" y2="-3943.5596" gradientTransform="matrix(0.46 -0.89 -0.89 -0.46 -2130.3938 -4065.2222)">
	<stop  offset="1.000000e-02" style="stop-color:#35435F"/>
	<stop  offset="0.97" style="stop-color:#000000"/>
</linearGradient>
<circle class="st21" cx="83" cy="256.9" r="2.5"/>
<linearGradient id="SVGID_23_" gradientUnits="userSpaceOnUse" x1="-3310.8386" y1="5194.2295" x2="-3305.8086" y2="5194.2295" gradientTransform="matrix(0.2741 0.9617 0.9617 -0.2741 -3499.8376 4855.6899)">
	<stop  offset="1.000000e-02" style="stop-color:#35435F"/>
	<stop  offset="0.97" style="stop-color:#000000"/>
</linearGradient>
<circle class="st22" cx="588.5" cy="250.1" r="2.5"/>
<linearGradient id="SVGID_24_" gradientUnits="userSpaceOnUse" x1="-3299.9385" y1="5194.8652" x2="-3294.9084" y2="5194.8652" gradientTransform="matrix(0.2741 0.9617 0.9617 -0.2741 -3499.8376 4855.6899)">
	<stop  offset="1.000000e-02" style="stop-color:#35435F"/>
	<stop  offset="0.97" style="stop-color:#000000"/>
</linearGradient>
<circle class="st23" cx="592.1" cy="260.4" r="2.5"/>
<linearGradient id="SVGID_25_" gradientUnits="userSpaceOnUse" x1="-3304.9185" y1="5200.0903" x2="-3299.8887" y2="5200.0903" gradientTransform="matrix(0.2741 0.9617 0.9617 -0.2741 -3499.8376 4855.6899)">
	<stop  offset="1.000000e-02" style="stop-color:#35435F"/>
	<stop  offset="0.97" style="stop-color:#000000"/>
</linearGradient>
<circle class="st24" cx="595.7" cy="254.1" r="2.5"/>
<linearGradient id="SVGID_26_" gradientUnits="userSpaceOnUse" x1="-3304.9185" y1="5189.4106" x2="-3299.8887" y2="5189.4106" gradientTransform="matrix(0.2741 0.9617 0.9617 -0.2741 -3499.8376 4855.6899)">
	<stop  offset="1.000000e-02" style="stop-color:#35435F"/>
	<stop  offset="0.97" style="stop-color:#000000"/>
</linearGradient>
<circle class="st25" cx="585.5" cy="257.1" r="2.5"/>
<linearGradient id="SVGID_27_" gradientUnits="userSpaceOnUse" x1="-3310.5586" y1="5204.6719" x2="-3305.5286" y2="5204.6719" gradientTransform="matrix(0.2741 0.9617 0.9617 -0.2741 -3499.8376 4855.6899)">
	<stop  offset="1.000000e-02" style="stop-color:#35435F"/>
	<stop  offset="0.97" style="stop-color:#000000"/>
</linearGradient>
<circle class="st26" cx="598.6" cy="247.5" r="2.5"/>
<linearGradient id="SVGID_28_" gradientUnits="userSpaceOnUse" x1="-3310.5586" y1="5184.8413" x2="-3305.5286" y2="5184.8413" gradientTransform="matrix(0.2741 0.9617 0.9617 -0.2741 -3499.8376 4855.6899)">
	<stop  offset="1.000000e-02" style="stop-color:#35435F"/>
	<stop  offset="0.97" style="stop-color:#000000"/>
</linearGradient>
<circle class="st27" cx="579.5" cy="252.9" r="2.5"/>
<linearGradient id="SVGID_29_" gradientUnits="userSpaceOnUse" x1="-3318.1484" y1="5194.0146" x2="-3313.1187" y2="5194.0146" gradientTransform="matrix(0.2741 0.9617 0.9617 -0.2741 -3499.8376 4855.6899)">
	<stop  offset="1.000000e-02" style="stop-color:#35435F"/>
	<stop  offset="0.97" style="stop-color:#000000"/>
</linearGradient>
<circle class="st28" cx="586.3" cy="243.1" r="2.5"/>
<linearGradient id="SVGID_30_" gradientUnits="userSpaceOnUse" x1="-3325.5986" y1="5193.2563" x2="-3320.5686" y2="5193.2563" gradientTransform="matrix(0.2741 0.9617 0.9617 -0.2741 -3499.8376 4855.6899)">
	<stop  offset="1.000000e-02" style="stop-color:#35435F"/>
	<stop  offset="0.97" style="stop-color:#000000"/>
</linearGradient>
<circle class="st29" cx="583.5" cy="236.1" r="2.5"/>
<linearGradient id="SVGID_31_" gradientUnits="userSpaceOnUse" x1="-3333.0686" y1="5192.4204" x2="-3328.0386" y2="5192.4204" gradientTransform="matrix(0.2741 0.9617 0.9617 -0.2741 -3499.8376 4855.6899)">
	<stop  offset="1.000000e-02" style="stop-color:#35435F"/>
	<stop  offset="0.97" style="stop-color:#000000"/>
</linearGradient>
<circle class="st30" cx="580.6" cy="229.2" r="2.5"/>
<linearGradient id="SVGID_32_" gradientUnits="userSpaceOnUse" x1="-3340.4985" y1="5191.7319" x2="-3335.4685" y2="5191.7319" gradientTransform="matrix(0.2741 0.9617 0.9617 -0.2741 -3499.8376 4855.6899)">
	<stop  offset="1.000000e-02" style="stop-color:#35435F"/>
	<stop  offset="0.97" style="stop-color:#000000"/>
</linearGradient>
<circle class="st31" cx="577.9" cy="222.2" r="2.5"/>
<linearGradient id="SVGID_33_" gradientUnits="userSpaceOnUse" x1="-3348.1985" y1="5189.9868" x2="-3343.1685" y2="5189.9868" gradientTransform="matrix(0.2741 0.9617 0.9617 -0.2741 -3499.8376 4855.6899)">
	<stop  offset="1.000000e-02" style="stop-color:#35435F"/>
	<stop  offset="0.97" style="stop-color:#000000"/>
</linearGradient>
<circle class="st32" cx="574.2" cy="215.3" r="2.5"/>
<linearGradient id="SVGID_34_" gradientUnits="userSpaceOnUse" x1="-122.5436" y1="3023.0969" x2="-117.5227" y2="3023.0969" gradientTransform="matrix(0.8803 0.4744 0.4744 -0.8803 -876.1015 2815.9678)">
	<stop  offset="1.000000e-02" style="stop-color:#35435F"/>
	<stop  offset="0.97" style="stop-color:#000000"/>
</linearGradient>
<circle class="st33" cx="452.3" cy="97.7" r="2.5"/>
<linearGradient id="SVGID_35_" gradientUnits="userSpaceOnUse" x1="-111.6437" y1="3023.7351" x2="-106.6137" y2="3023.7351" gradientTransform="matrix(0.8803 0.4744 0.4744 -0.8803 -876.1015 2815.9678)">
	<stop  offset="1.000000e-02" style="stop-color:#35435F"/>
	<stop  offset="0.97" style="stop-color:#000000"/>
</linearGradient>
<circle class="st34" cx="462.2" cy="102.3" r="2.5"/>
<linearGradient id="SVGID_36_" gradientUnits="userSpaceOnUse" x1="-116.6237" y1="3028.9607" x2="-111.5937" y2="3028.9607" gradientTransform="matrix(0.8803 0.4744 0.4744 -0.8803 -876.1015 2815.9678)">
	<stop  offset="1.000000e-02" style="stop-color:#35435F"/>
	<stop  offset="0.97" style="stop-color:#000000"/>
</linearGradient>
<circle class="st35" cx="460.3" cy="95.3" r="2.5"/>
<linearGradient id="SVGID_37_" gradientUnits="userSpaceOnUse" x1="-116.6237" y1="3018.2854" x2="-111.5937" y2="3018.2854" gradientTransform="matrix(0.8803 0.4744 0.4744 -0.8803 -876.1015 2815.9678)">
	<stop  offset="1.000000e-02" style="stop-color:#35435F"/>
	<stop  offset="0.97" style="stop-color:#000000"/>
</linearGradient>
<circle class="st36" cx="455.2" cy="104.7" r="2.5"/>
<linearGradient id="SVGID_38_" gradientUnits="userSpaceOnUse" x1="-122.2636" y1="3033.5439" x2="-117.2337" y2="3033.5439" gradientTransform="matrix(0.8803 0.4744 0.4744 -0.8803 -876.1015 2815.9678)">
	<stop  offset="1.000000e-02" style="stop-color:#35435F"/>
	<stop  offset="0.97" style="stop-color:#000000"/>
</linearGradient>
<circle class="st37" cx="457.5" cy="88.6" r="2.5"/>
<linearGradient id="SVGID_39_" gradientUnits="userSpaceOnUse" x1="-122.2636" y1="3013.7097" x2="-117.2337" y2="3013.7097" gradientTransform="matrix(0.8803 0.4744 0.4744 -0.8803 -876.1015 2815.9678)">
	<stop  offset="1.000000e-02" style="stop-color:#35435F"/>
	<stop  offset="0.97" style="stop-color:#000000"/>
</linearGradient>
<circle class="st38" cx="448.1" cy="106.1" r="2.5"/>
<linearGradient id="SVGID_40_" gradientUnits="userSpaceOnUse" x1="-129.8536" y1="3022.8865" x2="-124.8236" y2="3022.8865" gradientTransform="matrix(0.8803 0.4744 0.4744 -0.8803 -876.1015 2815.9678)">
	<stop  offset="1.000000e-02" style="stop-color:#35435F"/>
	<stop  offset="0.97" style="stop-color:#000000"/>
</linearGradient>
<circle class="st39" cx="445.7" cy="94.4" r="2.5"/>
<linearGradient id="SVGID_41_" gradientUnits="userSpaceOnUse" x1="-137.3036" y1="3022.1301" x2="-132.2737" y2="3022.1301" gradientTransform="matrix(0.8803 0.4744 0.4744 -0.8803 -876.1015 2815.9678)">
	<stop  offset="1.000000e-02" style="stop-color:#35435F"/>
	<stop  offset="0.97" style="stop-color:#000000"/>
</linearGradient>
<circle class="st40" cx="438.8" cy="91.5" r="2.5"/>
<linearGradient id="SVGID_42_" gradientUnits="userSpaceOnUse" x1="-144.7737" y1="3021.2974" x2="-139.7437" y2="3021.2974" gradientTransform="matrix(0.8803 0.4744 0.4744 -0.8803 -876.1015 2815.9678)">
	<stop  offset="1.000000e-02" style="stop-color:#35435F"/>
	<stop  offset="0.97" style="stop-color:#000000"/>
</linearGradient>
<circle class="st41" cx="431.8" cy="88.7" r="2.5"/>
<linearGradient id="SVGID_43_" gradientUnits="userSpaceOnUse" x1="-152.2036" y1="3020.5999" x2="-147.1736" y2="3020.5999" gradientTransform="matrix(0.8803 0.4744 0.4744 -0.8803 -876.1015 2815.9678)">
	<stop  offset="1.000000e-02" style="stop-color:#35435F"/>
	<stop  offset="0.97" style="stop-color:#000000"/>
</linearGradient>
<circle class="st42" cx="425" cy="85.8" r="2.5"/>
<linearGradient id="SVGID_44_" gradientUnits="userSpaceOnUse" x1="-159.9037" y1="3018.8608" x2="-154.8737" y2="3018.8608" gradientTransform="matrix(0.8803 0.4744 0.4744 -0.8803 -876.1015 2815.9678)">
	<stop  offset="1.000000e-02" style="stop-color:#35435F"/>
	<stop  offset="0.97" style="stop-color:#000000"/>
</linearGradient>
<circle class="st43" cx="417.4" cy="83.7" r="2.5"/>
<linearGradient id="SVGID_45_" gradientUnits="userSpaceOnUse" x1="-9393.2861" y1="2833.5999" x2="-9388.2559" y2="2833.5999" gradientTransform="matrix(-0.9585 0.285 0.285 0.9585 -9383.2656 549.6695)">
	<stop  offset="1.000000e-02" style="stop-color:#35435F"/>
	<stop  offset="0.97" style="stop-color:#000000"/>
</linearGradient>
<circle class="st44" cx="425.5" cy="589.2" r="2.5"/>
<linearGradient id="SVGID_46_" gradientUnits="userSpaceOnUse" x1="-9382.3857" y1="2834.2288" x2="-9377.3555" y2="2834.2288" gradientTransform="matrix(-0.9585 0.285 0.285 0.9585 -9383.2656 549.6695)">
	<stop  offset="1.000000e-02" style="stop-color:#35435F"/>
	<stop  offset="0.97" style="stop-color:#000000"/>
</linearGradient>
<circle class="st45" cx="415.2" cy="592.9" r="2.5"/>
<linearGradient id="SVGID_47_" gradientUnits="userSpaceOnUse" x1="-9387.3555" y1="2839.4636" x2="-9382.334" y2="2839.4636" gradientTransform="matrix(-0.9585 0.285 0.285 0.9585 -9383.2656 549.6695)">
	<stop  offset="1.000000e-02" style="stop-color:#35435F"/>
	<stop  offset="0.97" style="stop-color:#000000"/>
</linearGradient>
<circle class="st46" cx="421.5" cy="596.5" r="2.5"/>
<linearGradient id="SVGID_48_" gradientUnits="userSpaceOnUse" x1="-9387.3555" y1="2828.782" x2="-9382.334" y2="2828.782" gradientTransform="matrix(-0.9585 0.285 0.285 0.9585 -9383.2656 549.6695)">
	<stop  offset="1.000000e-02" style="stop-color:#35435F"/>
	<stop  offset="0.97" style="stop-color:#000000"/>
</linearGradient>
<circle class="st47" cx="418.5" cy="586.3" r="2.5"/>
<linearGradient id="SVGID_49_" gradientUnits="userSpaceOnUse" x1="-9393.0059" y1="2844.0408" x2="-9387.9756" y2="2844.0408" gradientTransform="matrix(-0.9585 0.285 0.285 0.9585 -9383.2656 549.6695)">
	<stop  offset="1.000000e-02" style="stop-color:#35435F"/>
	<stop  offset="0.97" style="stop-color:#000000"/>
</linearGradient>
<circle class="st48" cx="428.2" cy="599.3" r="2.5"/>
<linearGradient id="SVGID_50_" gradientUnits="userSpaceOnUse" x1="-9393.0059" y1="2824.209" x2="-9387.9756" y2="2824.209" gradientTransform="matrix(-0.9585 0.285 0.285 0.9585 -9383.2656 549.6695)">
	<stop  offset="1.000000e-02" style="stop-color:#35435F"/>
	<stop  offset="0.97" style="stop-color:#000000"/>
</linearGradient>
<circle class="st49" cx="422.6" cy="580.3" r="2.5"/>
<linearGradient id="SVGID_51_" gradientUnits="userSpaceOnUse" x1="-9400.5957" y1="2833.3923" x2="-9395.5654" y2="2833.3923" gradientTransform="matrix(-0.9585 0.285 0.285 0.9585 -9383.2656 549.6695)">
	<stop  offset="1.000000e-02" style="stop-color:#35435F"/>
	<stop  offset="0.97" style="stop-color:#000000"/>
</linearGradient>
<circle class="st50" cx="432.4" cy="586.9" r="2.5"/>
<linearGradient id="SVGID_52_" gradientUnits="userSpaceOnUse" x1="-9408.0459" y1="2832.6357" x2="-9403.0156" y2="2832.6357" gradientTransform="matrix(-0.9585 0.285 0.285 0.9585 -9383.2656 549.6695)">
	<stop  offset="1.000000e-02" style="stop-color:#35435F"/>
	<stop  offset="0.97" style="stop-color:#000000"/>
</linearGradient>
<circle class="st51" cx="439.4" cy="584.1" r="2.5"/>
<linearGradient id="SVGID_53_" gradientUnits="userSpaceOnUse" x1="-9415.5059" y1="2831.7996" x2="-9410.4844" y2="2831.7996" gradientTransform="matrix(-0.9585 0.285 0.285 0.9585 -9383.2656 549.6695)">
	<stop  offset="1.000000e-02" style="stop-color:#35435F"/>
	<stop  offset="0.97" style="stop-color:#000000"/>
</linearGradient>
<circle class="st52" cx="446.3" cy="581.2" r="2.5"/>
<linearGradient id="SVGID_54_" gradientUnits="userSpaceOnUse" x1="-9422.9463" y1="2831.1072" x2="-9417.916" y2="2831.1072" gradientTransform="matrix(-0.9585 0.285 0.285 0.9585 -9383.2656 549.6695)">
	<stop  offset="1.000000e-02" style="stop-color:#35435F"/>
	<stop  offset="0.97" style="stop-color:#000000"/>
</linearGradient>
<circle class="st53" cx="453.2" cy="578.4" r="2.5"/>
<linearGradient id="SVGID_55_" gradientUnits="userSpaceOnUse" x1="-9430.6357" y1="2829.3616" x2="-9425.6143" y2="2829.3616" gradientTransform="matrix(-0.9585 0.285 0.285 0.9585 -9383.2656 549.6695)">
	<stop  offset="1.000000e-02" style="stop-color:#35435F"/>
	<stop  offset="0.97" style="stop-color:#000000"/>
</linearGradient>
<circle class="st54" cx="460.1" cy="574.5" r="2.5"/>
<linearGradient id="SVGID_56_" gradientUnits="userSpaceOnUse" x1="-6681.6821" y1="5367.2148" x2="-6676.6519" y2="5367.2148" gradientTransform="matrix(-0.46 0.89 0.89 0.46 -7257.3765 3901.3621)">
	<stop  offset="1.000000e-02" style="stop-color:#35435F"/>
	<stop  offset="0.97" style="stop-color:#000000"/>
</linearGradient>
<circle class="st55" cx="577.5" cy="453.6" r="2.5"/>
<linearGradient id="SVGID_57_" gradientUnits="userSpaceOnUse" x1="-6670.7822" y1="5367.7983" x2="-6665.752" y2="5367.7983" gradientTransform="matrix(-0.46 0.89 0.89 0.46 -7257.3765 3901.3621)">
	<stop  offset="1.000000e-02" style="stop-color:#35435F"/>
	<stop  offset="0.97" style="stop-color:#000000"/>
</linearGradient>
<circle class="st56" cx="573" cy="463.6" r="2.5"/>
<linearGradient id="SVGID_58_" gradientUnits="userSpaceOnUse" x1="-6675.7622" y1="5373.04" x2="-6670.7319" y2="5373.04" gradientTransform="matrix(-0.46 0.89 0.89 0.46 -7257.3765 3901.3621)">
	<stop  offset="1.000000e-02" style="stop-color:#35435F"/>
	<stop  offset="0.97" style="stop-color:#000000"/>
</linearGradient>
<circle class="st57" cx="580" cy="461.6" r="2.5"/>
<linearGradient id="SVGID_59_" gradientUnits="userSpaceOnUse" x1="-6675.7622" y1="5362.374" x2="-6670.7319" y2="5362.374" gradientTransform="matrix(-0.46 0.89 0.89 0.46 -7257.3765 3901.3621)">
	<stop  offset="1.000000e-02" style="stop-color:#35435F"/>
	<stop  offset="0.97" style="stop-color:#000000"/>
</linearGradient>
<circle class="st58" cx="570.5" cy="456.6" r="2.5"/>
<linearGradient id="SVGID_60_" gradientUnits="userSpaceOnUse" x1="-6681.4019" y1="5377.6348" x2="-6676.3721" y2="5377.6348" gradientTransform="matrix(-0.46 0.89 0.89 0.46 -7257.3765 3901.3621)">
	<stop  offset="1.000000e-02" style="stop-color:#35435F"/>
	<stop  offset="0.97" style="stop-color:#000000"/>
</linearGradient>
<circle class="st59" cx="586.6" cy="458.7" r="2.5"/>
<linearGradient id="SVGID_61_" gradientUnits="userSpaceOnUse" x1="-6681.4019" y1="5357.834" x2="-6676.3721" y2="5357.834" gradientTransform="matrix(-0.46 0.89 0.89 0.46 -7257.3765 3901.3621)">
	<stop  offset="1.000000e-02" style="stop-color:#35435F"/>
	<stop  offset="0.97" style="stop-color:#000000"/>
</linearGradient>
<circle class="st60" cx="569.1" cy="449.5" r="2.5"/>
<linearGradient id="SVGID_62_" gradientUnits="userSpaceOnUse" x1="-6688.9922" y1="5367.0415" x2="-6683.9619" y2="5367.0415" gradientTransform="matrix(-0.46 0.89 0.89 0.46 -7257.3765 3901.3621)">
	<stop  offset="1.000000e-02" style="stop-color:#35435F"/>
	<stop  offset="0.97" style="stop-color:#000000"/>
</linearGradient>
<circle class="st61" cx="580.7" cy="447" r="2.5"/>
<linearGradient id="SVGID_63_" gradientUnits="userSpaceOnUse" x1="-6696.4419" y1="5366.3213" x2="-6691.4121" y2="5366.3213" gradientTransform="matrix(-0.46 0.89 0.89 0.46 -7257.3765 3901.3621)">
	<stop  offset="1.000000e-02" style="stop-color:#35435F"/>
	<stop  offset="0.97" style="stop-color:#000000"/>
</linearGradient>
<circle class="st62" cx="583.5" cy="440.1" r="2.5"/>
<linearGradient id="SVGID_64_" gradientUnits="userSpaceOnUse" x1="-6703.9121" y1="5365.5205" x2="-6698.8818" y2="5365.5205" gradientTransform="matrix(-0.46 0.89 0.89 0.46 -7257.3765 3901.3621)">
	<stop  offset="1.000000e-02" style="stop-color:#35435F"/>
	<stop  offset="0.97" style="stop-color:#000000"/>
</linearGradient>
<circle class="st63" cx="586.2" cy="433.1" r="2.5"/>
<linearGradient id="SVGID_65_" gradientUnits="userSpaceOnUse" x1="-6711.3418" y1="5364.8677" x2="-6706.312" y2="5364.8677" gradientTransform="matrix(-0.46 0.89 0.89 0.46 -7257.3765 3901.3621)">
	<stop  offset="1.000000e-02" style="stop-color:#35435F"/>
	<stop  offset="0.97" style="stop-color:#000000"/>
</linearGradient>
<circle class="st64" cx="589" cy="426.2" r="2.5"/>
<linearGradient id="SVGID_66_" gradientUnits="userSpaceOnUse" x1="-6719.042" y1="5363.1616" x2="-6714.0122" y2="5363.1616" gradientTransform="matrix(-0.46 0.89 0.89 0.46 -7257.3765 3901.3621)">
	<stop  offset="1.000000e-02" style="stop-color:#35435F"/>
	<stop  offset="0.97" style="stop-color:#000000"/>
</linearGradient>
<circle class="st65" cx="591.1" cy="418.5" r="2.5"/>
<linearGradient id="SVGID_67_" gradientUnits="userSpaceOnUse" x1="-6876.5811" y1="-4252.1343" x2="-6871.5513" y2="-4252.1343" gradientTransform="matrix(-0.2741 -0.9617 -0.9617 0.2741 -5887.9326 -5019.54)">
	<stop  offset="1.000000e-02" style="stop-color:#35435F"/>
	<stop  offset="0.97" style="stop-color:#000000"/>
</linearGradient>
<circle class="st66" cx="85.6" cy="425.4" r="2.5"/>
<linearGradient id="SVGID_68_" gradientUnits="userSpaceOnUse" x1="-6865.6714" y1="-4251.4985" x2="-6860.6411" y2="-4251.4985" gradientTransform="matrix(-0.2741 -0.9617 -0.9617 0.2741 -5887.9326 -5019.54)">
	<stop  offset="1.000000e-02" style="stop-color:#35435F"/>
	<stop  offset="0.97" style="stop-color:#000000"/>
</linearGradient>
<circle class="st67" cx="82" cy="415.1" r="2.5"/>
<linearGradient id="SVGID_69_" gradientUnits="userSpaceOnUse" x1="-6870.6514" y1="-4246.2739" x2="-6865.6211" y2="-4246.2739" gradientTransform="matrix(-0.2741 -0.9617 -0.9617 0.2741 -5887.9326 -5019.54)">
	<stop  offset="1.000000e-02" style="stop-color:#35435F"/>
	<stop  offset="0.97" style="stop-color:#000000"/>
</linearGradient>
<circle class="st68" cx="78.4" cy="421.3" r="2.5"/>
<linearGradient id="SVGID_70_" gradientUnits="userSpaceOnUse" x1="-6870.6514" y1="-4256.9536" x2="-6865.6211" y2="-4256.9536" gradientTransform="matrix(-0.2741 -0.9617 -0.9617 0.2741 -5887.9326 -5019.54)">
	<stop  offset="1.000000e-02" style="stop-color:#35435F"/>
	<stop  offset="0.97" style="stop-color:#000000"/>
</linearGradient>
<circle class="st69" cx="88.7" cy="418.4" r="2.5"/>
<linearGradient id="SVGID_71_" gradientUnits="userSpaceOnUse" x1="-6876.291" y1="-4241.6924" x2="-6871.2612" y2="-4241.6924" gradientTransform="matrix(-0.2741 -0.9617 -0.9617 0.2741 -5887.9326 -5019.54)">
	<stop  offset="1.000000e-02" style="stop-color:#35435F"/>
	<stop  offset="0.97" style="stop-color:#000000"/>
</linearGradient>
<circle class="st70" cx="75.5" cy="428" r="2.5"/>
<linearGradient id="SVGID_72_" gradientUnits="userSpaceOnUse" x1="-6876.291" y1="-4261.5229" x2="-6871.2612" y2="-4261.5229" gradientTransform="matrix(-0.2741 -0.9617 -0.9617 0.2741 -5887.9326 -5019.54)">
	<stop  offset="1.000000e-02" style="stop-color:#35435F"/>
	<stop  offset="0.97" style="stop-color:#000000"/>
</linearGradient>
<circle class="st71" cx="94.6" cy="422.6" r="2.5"/>
<linearGradient id="SVGID_73_" gradientUnits="userSpaceOnUse" x1="-6883.8813" y1="-4252.3491" x2="-6878.8604" y2="-4252.3491" gradientTransform="matrix(-0.2741 -0.9617 -0.9617 0.2741 -5887.9326 -5019.54)">
	<stop  offset="1.000000e-02" style="stop-color:#35435F"/>
	<stop  offset="0.97" style="stop-color:#000000"/>
</linearGradient>
<circle class="st72" cx="87.8" cy="432.4" r="2.5"/>
<linearGradient id="SVGID_74_" gradientUnits="userSpaceOnUse" x1="-6891.3311" y1="-4253.1079" x2="-6886.3013" y2="-4253.1079" gradientTransform="matrix(-0.2741 -0.9617 -0.9617 0.2741 -5887.9326 -5019.54)">
	<stop  offset="1.000000e-02" style="stop-color:#35435F"/>
	<stop  offset="0.97" style="stop-color:#000000"/>
</linearGradient>
<circle class="st73" cx="90.6" cy="439.3" r="2.5"/>
<linearGradient id="SVGID_75_" gradientUnits="userSpaceOnUse" x1="-6898.8013" y1="-4253.9409" x2="-6893.771" y2="-4253.9409" gradientTransform="matrix(-0.2741 -0.9617 -0.9617 0.2741 -5887.9326 -5019.54)">
	<stop  offset="1.000000e-02" style="stop-color:#35435F"/>
	<stop  offset="0.97" style="stop-color:#000000"/>
</linearGradient>
<circle class="st74" cx="93.5" cy="446.3" r="2.5"/>
<linearGradient id="SVGID_76_" gradientUnits="userSpaceOnUse" x1="-6906.2314" y1="-4254.6323" x2="-6901.2012" y2="-4254.6323" gradientTransform="matrix(-0.2741 -0.9617 -0.9617 0.2741 -5887.9326 -5019.54)">
	<stop  offset="1.000000e-02" style="stop-color:#35435F"/>
	<stop  offset="0.97" style="stop-color:#000000"/>
</linearGradient>
<circle class="st75" cx="96.2" cy="453.3" r="2.5"/>
<linearGradient id="SVGID_77_" gradientUnits="userSpaceOnUse" x1="-6913.9312" y1="-4256.3774" x2="-6908.9014" y2="-4256.3774" gradientTransform="matrix(-0.2741 -0.9617 -0.9617 0.2741 -5887.9326 -5019.54)">
	<stop  offset="1.000000e-02" style="stop-color:#35435F"/>
	<stop  offset="0.97" style="stop-color:#000000"/>
</linearGradient>
<circle class="st76" cx="100" cy="460.2" r="2.5"/>
<linearGradient id="SVGID_78_" gradientUnits="userSpaceOnUse" x1="-9378.5059" y1="-1011.339" x2="-9373.4854" y2="-1011.339" gradientTransform="matrix(-0.8803 -0.4744 -0.4744 0.8803 -8511.6787 -2979.8279)">
	<stop  offset="1.000000e-02" style="stop-color:#35435F"/>
	<stop  offset="0.97" style="stop-color:#000000"/>
</linearGradient>
<circle class="st77" cx="221.8" cy="577.8" r="2.5"/>
<linearGradient id="SVGID_79_" gradientUnits="userSpaceOnUse" x1="-9367.6064" y1="-1010.7095" x2="-9362.5762" y2="-1010.7095" gradientTransform="matrix(-0.8803 -0.4744 -0.4744 0.8803 -8511.6787 -2979.8279)">
	<stop  offset="1.000000e-02" style="stop-color:#35435F"/>
	<stop  offset="0.97" style="stop-color:#000000"/>
</linearGradient>
<circle class="st78" cx="211.9" cy="573.2" r="2.5"/>
<linearGradient id="SVGID_80_" gradientUnits="userSpaceOnUse" x1="-9372.5859" y1="-1005.4751" x2="-9367.5557" y2="-1005.4751" gradientTransform="matrix(-0.8803 -0.4744 -0.4744 0.8803 -8511.6787 -2979.8279)">
	<stop  offset="1.000000e-02" style="stop-color:#35435F"/>
	<stop  offset="0.97" style="stop-color:#000000"/>
</linearGradient>
<circle class="st79" cx="213.8" cy="580.1" r="2.5"/>
<linearGradient id="SVGID_81_" gradientUnits="userSpaceOnUse" x1="-9372.5859" y1="-1016.1505" x2="-9367.5557" y2="-1016.1505" gradientTransform="matrix(-0.8803 -0.4744 -0.4744 0.8803 -8511.6787 -2979.8279)">
	<stop  offset="1.000000e-02" style="stop-color:#35435F"/>
	<stop  offset="0.97" style="stop-color:#000000"/>
</linearGradient>
<circle class="st80" cx="218.9" cy="570.7" r="2.5"/>
<linearGradient id="SVGID_82_" gradientUnits="userSpaceOnUse" x1="-9378.2256" y1="-1000.9006" x2="-9373.1963" y2="-1000.9006" gradientTransform="matrix(-0.8803 -0.4744 -0.4744 0.8803 -8511.6787 -2979.8279)">
	<stop  offset="1.000000e-02" style="stop-color:#35435F"/>
	<stop  offset="0.97" style="stop-color:#000000"/>
</linearGradient>
<circle class="st81" cx="216.6" cy="586.8" r="2.5"/>
<linearGradient id="SVGID_83_" gradientUnits="userSpaceOnUse" x1="-9378.2256" y1="-1020.7349" x2="-9373.1963" y2="-1020.7349" gradientTransform="matrix(-0.8803 -0.4744 -0.4744 0.8803 -8511.6787 -2979.8279)">
	<stop  offset="1.000000e-02" style="stop-color:#35435F"/>
	<stop  offset="0.97" style="stop-color:#000000"/>
</linearGradient>
<circle class="st82" cx="226" cy="569.4" r="2.5"/>
<linearGradient id="SVGID_84_" gradientUnits="userSpaceOnUse" x1="-9385.8164" y1="-1011.5494" x2="-9380.7861" y2="-1011.5494" gradientTransform="matrix(-0.8803 -0.4744 -0.4744 0.8803 -8511.6787 -2979.8279)">
	<stop  offset="1.000000e-02" style="stop-color:#35435F"/>
	<stop  offset="0.97" style="stop-color:#000000"/>
</linearGradient>
<circle class="st83" cx="228.4" cy="581.1" r="2.5"/>
<linearGradient id="SVGID_85_" gradientUnits="userSpaceOnUse" x1="-9393.2656" y1="-1012.3145" x2="-9388.2363" y2="-1012.3145" gradientTransform="matrix(-0.8803 -0.4744 -0.4744 0.8803 -8511.6787 -2979.8279)">
	<stop  offset="1.000000e-02" style="stop-color:#35435F"/>
	<stop  offset="0.97" style="stop-color:#000000"/>
</linearGradient>
<circle class="st84" cx="235.3" cy="583.9" r="2.5"/>
<linearGradient id="SVGID_86_" gradientUnits="userSpaceOnUse" x1="-9400.7363" y1="-1013.1426" x2="-9395.7061" y2="-1013.1426" gradientTransform="matrix(-0.8803 -0.4744 -0.4744 0.8803 -8511.6787 -2979.8279)">
	<stop  offset="1.000000e-02" style="stop-color:#35435F"/>
	<stop  offset="0.97" style="stop-color:#000000"/>
</linearGradient>
<circle class="st85" cx="242.3" cy="586.7" r="2.5"/>
<linearGradient id="SVGID_87_" gradientUnits="userSpaceOnUse" x1="-9408.166" y1="-1013.8448" x2="-9403.1357" y2="-1013.8448" gradientTransform="matrix(-0.8803 -0.4744 -0.4744 0.8803 -8511.6787 -2979.8279)">
	<stop  offset="1.000000e-02" style="stop-color:#35435F"/>
	<stop  offset="0.97" style="stop-color:#000000"/>
</linearGradient>
<circle class="st86" cx="249.1" cy="589.6" r="2.5"/>
<linearGradient id="SVGID_88_" gradientUnits="userSpaceOnUse" x1="-9415.8662" y1="-1015.5839" x2="-9410.8359" y2="-1015.5839" gradientTransform="matrix(-0.8803 -0.4744 -0.4744 0.8803 -8511.6787 -2979.8279)">
	<stop  offset="1.000000e-02" style="stop-color:#35435F"/>
	<stop  offset="0.97" style="stop-color:#000000"/>
</linearGradient>
<circle class="st87" cx="256.7" cy="591.8" r="2.5"/>
<linearGradient id="SVGID_89_" gradientUnits="userSpaceOnUse" x1="-10750.1455" y1="7572.8574" x2="-10639.0156" y2="7538.6875" gradientTransform="matrix(-0.6881 0.7256 0.7256 0.6881 -12506.6299 2631.094)">
	<stop  offset="1.000000e-02" style="stop-color:#35435F"/>
	<stop  offset="1" style="stop-color:#000000"/>
</linearGradient>
<circle class="st88" cx="337.1" cy="68.9" r="68.9"/>
<linearGradient id="SVGID_90_" gradientUnits="userSpaceOnUse" x1="-1262.6411" y1="4877.5122" x2="-1035.4111" y2="4877.5122" gradientTransform="matrix(0.77 0.64 0.64 -0.77 -1834.7064 4614.0327)">
	<stop  offset="1.000000e-02" style="stop-color:#35435F"/>
	<stop  offset="0.97" style="stop-color:#000000"/>
</linearGradient>
<circle class="st89" cx="337.1" cy="68.9" r="63.7"/>
<ellipse transform="matrix(0.2723 -0.9622 0.9622 0.2723 191.8727 360.1585)" class="st90" cx="334.1" cy="53.2" rx="45.1" ry="45.1"/>
<g id="_062">
	<g id="_08">
		
			<linearGradient id="SVGID_91_" gradientUnits="userSpaceOnUse" x1="-264.7278" y1="2778.436" x2="-43.0678" y2="2677.8459" gradientTransform="matrix(0.91 0.42 0.42 -0.91 -628.3362 2662.948)">
			<stop  offset="1.000000e-02" style="stop-color:#657A9B"/>
			<stop  offset="0.97" style="stop-color:#000000"/>
		</linearGradient>
		<path class="st91" d="M386.4,28.1c-11.2-12.9-22.4-17.5-22.4-17.5c-32.2-14.8-70.3-0.7-85.1,31.5c-14.8,32.2-0.7,70.3,31.5,85.1
			c32.2,14.8,70.3,0.7,85.1-31.5c7.1-15.5,7.8-33.1,1.9-49.1C394.9,39.8,391.2,33.6,386.4,28.1z M311.4,125
			c-31-14.3-44.6-51-30.3-82c14.3-31,51-44.6,82-30.3c31,14.3,44.6,51,30.3,82c-6.8,14.9-19.3,26.4-34.7,32.1
			C343.3,132.6,326.3,131.9,311.4,125L311.4,125z"/>
	</g>
</g>
<path class="st92" d="M334.5,32.9h-3.4v-2h5.7v15.7h-2.3V32.9z"/>
<path class="st92" d="M339.5,45.2c0-0.9,0.7-1.6,1.6-1.6c0.9,0,1.6,0.7,1.6,1.6c0,0.9-0.7,1.6-1.6,1.6c0,0,0,0,0,0
	c-0.8,0-1.6-0.6-1.6-1.5C339.5,45.3,339.5,45.3,339.5,45.2z"/>
<path class="st92" d="M307.2,59.5h1.7v10.7h-1.7V59.5z"/>
<path class="st92" d="M310.4,66.1c-0.1-2.2,1.6-4.1,3.8-4.2c0.1,0,0.2,0,0.3,0c1.2,0,2.4,0.6,3,1.6v-4.9h1.6v7.5
	c0.1,2.3-1.6,4.2-3.9,4.3c-0.1,0-0.3,0-0.4,0c-2.3,0.1-4.2-1.6-4.4-3.9C310.4,66.4,310.4,66.2,310.4,66.1z M317.5,66.2
	c0-1.5-1.3-2.8-2.8-2.7c-1.5,0-2.8,1.3-2.7,2.8c0,1.5,1.3,2.7,2.8,2.7c1.5,0.1,2.7-1.1,2.8-2.6C317.6,66.3,317.6,66.2,317.5,66.2z"
	/>
<path class="st92" d="M320.4,66.2c0-2.4,1.9-4.3,4.3-4.3c2.4,0,4.3,1.9,4.3,4.3v0.6h-7c0.2,1.3,1.4,2.3,2.7,2.2
	c0.9,0.1,1.7-0.3,2.3-1h1.7c-0.7,1.6-2.3,2.6-4,2.5c-2.3,0.1-4.2-1.7-4.3-4C320.4,66.4,320.4,66.3,320.4,66.2z M327.4,65.3
	c-0.4-1.5-2-2.3-3.5-1.9c-0.9,0.3-1.6,1-1.9,1.9H327.4z"/>
<path class="st92" d="M330.3,66c0-2.7,1.6-4.1,4-4.1s4,1.4,4,4.1v4.2h-1.5V66c0-1.8-1-2.6-2.4-2.6c-1.3-0.1-2.4,0.9-2.5,2.2
	c0,0.2,0,0.3,0,0.5v4.2h-1.6V66z"/>
<path class="st92" d="M339.9,67.1v-7.9h1.5v2.9h4.4v1.4h-4.4v3.6c0,1.3,0.7,1.8,1.7,1.8s1.7-0.5,1.7-1.8V67h1.5v0.2
	c0.1,1.8-1.3,3.3-3.1,3.4s-3.3-1.3-3.4-3.1C339.9,67.4,339.9,67.3,339.9,67.1z"/>
<path class="st92" d="M347.6,59.8c0-0.6,0.5-1.1,1.1-1.1c0.6,0,1.1,0.5,1.1,1.1c0,0,0,0,0,0c0,0.6-0.5,1.1-1.1,1.1
	C348.1,60.8,347.6,60.4,347.6,59.8C347.6,59.8,347.6,59.8,347.6,59.8z M348,62.1h1.6v8.1H348V62.1z"/>
<path class="st92" d="M351.7,61.9c0-1.9,1.6-3.5,3.5-3.5c1.9,0,3.5,1.6,3.5,3.5h-1.5c0-1.5-0.8-2.1-1.9-2.1c-1-0.1-1.9,0.7-1.9,1.6
	c0,0.1,0,0.3,0,0.4v1.4h4.4v1.4h-4.4v5.5h-1.5V61.9z"/>
<path class="st92" d="M359.4,71.2h1.5c0.4,0.9,1.3,1.5,2.3,1.3c1.2,0.2,2.3-0.7,2.5-1.9c0-0.2,0-0.4,0-0.6v-1.2
	c-0.5,1-1.5,1.6-2.6,1.6c-2,0-3.7-1.3-3.7-4.1v-4.1h1.5v4.1c-0.2,1.3,0.7,2.4,2,2.6c0.2,0,0.3,0,0.5,0c1.3,0.1,2.4-0.9,2.5-2.2
	c0-0.1,0-0.3,0-0.4v-4.1h1.5v7.8c0,2.8-1.8,3.9-4,3.9C361.6,74.1,359.9,72.9,359.4,71.2z"/>
<path class="st92" d="M288.6,84.5c-0.1-3.1,2.4-5.8,5.5-5.8s5.8,2.4,5.8,5.5c0.1,3.1-2.4,5.8-5.5,5.8c0,0-0.1,0-0.1,0
	c-3,0.2-5.5-2.2-5.7-5.1C288.6,84.7,288.6,84.6,288.6,84.5z M298.3,84.5c0-2.2-1.8-4-4-4s-4,1.8-4,4s1.8,4,4,4
	c2.1,0.1,3.9-1.6,4-3.7C298.3,84.7,298.3,84.6,298.3,84.5z"/>
<path class="st92" d="M301.4,85.8c-0.1-2.3,1.6-4.2,3.9-4.3c0.1,0,0.3,0,0.4,0c2.3-0.1,4.2,1.6,4.4,3.9c0,0.1,0,0.3,0,0.4
	c0.1,2.2-1.6,4.1-3.8,4.2c-0.1,0-0.2,0-0.3,0c-1.2,0.1-2.4-0.6-3-1.6v4.9h-1.5L301.4,85.8z M308.5,85.8c0-1.5-1.3-2.8-2.8-2.7
	c-1.5,0-2.8,1.3-2.7,2.8c0,1.5,1.3,2.7,2.8,2.7c1.5,0.1,2.7-1.1,2.8-2.6C308.5,85.9,308.5,85.9,308.5,85.8L308.5,85.8z"/>
<path class="st92" d="M311.3,85.8c-0.1-2.3,1.6-4.2,3.9-4.3c0.1,0,0.3,0,0.4,0c2.3-0.1,4.2,1.6,4.4,3.9c0,0.1,0,0.3,0,0.4
	c0.1,2.2-1.6,4.1-3.8,4.2c-0.1,0-0.2,0-0.3,0c-1.2,0.1-2.4-0.6-3-1.6v4.9h-1.5L311.3,85.8z M318.4,85.8c0-1.5-1.3-2.8-2.8-2.7
	c-1.5,0-2.8,1.3-2.7,2.8c0,1.5,1.2,2.7,2.8,2.7c1.5,0.1,2.7-1.1,2.8-2.6C318.4,86,318.4,85.9,318.4,85.8L318.4,85.8z"/>
<path class="st92" d="M320.9,85.8c-0.1-2.4,1.8-4.4,4.2-4.5s4.4,1.8,4.5,4.2c0.1,2.4-1.8,4.4-4.2,4.5c0,0-0.1,0-0.1,0
	c-2.3,0.1-4.2-1.6-4.3-3.9C320.9,86,320.9,85.9,320.9,85.8z M328,85.8c0-1.5-1.3-2.8-2.8-2.7c-1.5,0-2.8,1.3-2.7,2.8
	c0,1.5,1.3,2.8,2.8,2.7c1.5,0.1,2.7-1.1,2.8-2.6C328,85.9,328,85.9,328,85.8z"/>
<path class="st92" d="M330.9,85.1c0-1.9,1.6-3.5,3.5-3.5s3.5,1.6,3.5,3.5v0.1h-1.5v-0.1c0-1.5-0.8-2.1-1.9-2.1s-1.9,0.6-1.9,2.1v4.8
	h-1.5L330.9,85.1z"/>
<path class="st92" d="M338.9,86.8v-7.9h1.5v2.9h4.5v1.4h-4.5v3.6c0,1.3,0.7,1.8,1.7,1.8s1.7-0.5,1.7-1.8v-0.2h1.5v0.2
	c0.1,1.8-1.3,3.3-3.1,3.4s-3.3-1.3-3.4-3.1C338.9,87,338.9,86.9,338.9,86.8z"/>
<path class="st92" d="M346.7,86v-4.2h1.6V86c-0.1,1.3,0.9,2.5,2.3,2.6c1.3,0.1,2.5-0.9,2.6-2.3c0-0.1,0-0.2,0-0.3v-4.2h1.5V86
	c0.2,2-1.2,3.8-3.3,4.1c-0.2,0-0.5,0-0.7,0C348.3,90,346.7,88.7,346.7,86z"/>
<path class="st92" d="M356.2,85.6c0-2.7,1.6-4.1,4-4.1s4,1.4,4,4.1v4.2h-1.6v-4.2c0-1.8-1-2.6-2.4-2.6c-1.3-0.1-2.4,0.9-2.5,2.2
	c0,0.2,0,0.3,0,0.5v4.2h-1.5L356.2,85.6z"/>
<path class="st92" d="M365.8,79.3c0-0.6,0.5-1.1,1.1-1.1s1.1,0.5,1.1,1.1c0,0.6-0.5,1.1-1.1,1.1C366.3,80.5,365.8,80,365.8,79.3
	C365.8,79.4,365.8,79.4,365.8,79.3z M366.1,81.7h1.6v8.1h-1.5L366.1,81.7z"/>
<path class="st92" d="M369.5,86.8v-7.9h1.6v2.9h4.4v1.4h-4.4v3.6c0,1.3,0.7,1.8,1.7,1.8c1,0,1.7-0.5,1.7-1.8v-0.2h1.5v0.2
	c0.1,1.8-1.3,3.3-3.1,3.4s-3.3-1.3-3.4-3.1C369.6,87,369.6,86.9,369.5,86.8L369.5,86.8z"/>
<path class="st92" d="M377.4,90.8h1.6c0.4,0.9,1.3,1.5,2.3,1.3c1.2,0.2,2.3-0.7,2.5-1.9c0-0.2,0-0.4,0-0.6v-1.2
	c-0.5,1-1.6,1.6-2.7,1.6c-2,0-3.7-1.3-3.7-4.1v-4.1h1.6v4.1c-0.1,1.3,0.9,2.5,2.3,2.6c1.3,0.1,2.5-0.9,2.6-2.3c0-0.1,0-0.2,0-0.3
	v-4.1h1.6v7.8c0,2.8-1.8,3.9-4,3.9C379.5,93.6,377.8,92.5,377.4,90.8z"/>
<linearGradient id="SVGID_92_" gradientUnits="userSpaceOnUse" x1="-10822.1943" y1="7764.25" x2="-10711.0645" y2="7730.0796" gradientTransform="matrix(-0.6881 0.7256 0.7256 0.6881 -12506.6299 2631.094)">
	<stop  offset="1.000000e-02" style="stop-color:#35435F"/>
	<stop  offset="1" style="stop-color:#000000"/>
</linearGradient>
<circle class="st93" cx="525.5" cy="148.3" r="68.9"/>
<linearGradient id="SVGID_93_" gradientUnits="userSpaceOnUse" x1="-1066.8212" y1="4936.8184" x2="-839.5912" y2="4936.8184" gradientTransform="matrix(0.77 0.64 0.64 -0.77 -1834.7064 4614.0327)">
	<stop  offset="1.000000e-02" style="stop-color:#35435F"/>
	<stop  offset="0.97" style="stop-color:#000000"/>
</linearGradient>
<circle class="st94" cx="525.5" cy="148.3" r="63.7"/>
<circle class="st90" cx="522.5" cy="132.6" r="45.1"/>
<g id="_062-2">
	<g id="_08-2">
		
			<linearGradient id="SVGID_94_" gradientUnits="userSpaceOnUse" x1="-60.1623" y1="2785.0186" x2="161.4977" y2="2684.4285" gradientTransform="matrix(0.91 0.42 0.42 -0.91 -628.3362 2662.948)">
			<stop  offset="1.000000e-02" style="stop-color:#657A9B"/>
			<stop  offset="0.97" style="stop-color:#000000"/>
		</linearGradient>
		<path class="st95" d="M574.9,107.5C563.7,94.6,552.5,90,552.5,90c-32.2-14.8-70.3-0.7-85.1,31.5c-14.8,32.2-0.7,70.3,31.5,85.1
			c32.2,14.8,70.3,0.7,85.1-31.5c7.1-15.5,7.8-33.1,1.9-49.1C583.3,119.3,579.6,113,574.9,107.5z M499.9,204.4
			c-31-14.3-44.6-50.9-30.3-81.9s50.9-44.6,81.9-30.3c31,14.3,44.6,50.9,30.3,81.9c-6.8,14.9-19.3,26.4-34.7,32.1
			C531.7,212,514.7,211.3,499.9,204.4L499.9,204.4z"/>
	</g>
</g>
<path class="st92" d="M517.7,124l5.7-5.4c1.2-1.1,2-2.3,2-3.6c0-1.8-0.9-3-2.7-3c-1.5,0-2.8,1.2-2.8,2.7c0,0.1,0,0.2,0,0.3v0.3h-2.2
	v-0.2c0-3.2,1.9-5.3,5-5.3c2.6-0.1,4.9,1.9,5,4.6c0,0.2,0,0.4,0,0.5c0,2.1-1,3.4-2.7,4.9l-4.3,3.9h6.7v2h-9.8L517.7,124z"/>
<path class="st92" d="M529.9,124.7c0-0.9,0.7-1.6,1.6-1.6c0.9,0,1.6,0.7,1.6,1.6c0,0.9-0.7,1.6-1.6,1.6l0,0c-0.8,0-1.6-0.6-1.6-1.5
	C529.9,124.7,529.9,124.7,529.9,124.7z"/>
<path class="st92" d="M476.9,144.3c0.1-3.2,2.7-5.6,5.9-5.5c2.4,0.1,4.5,1.6,5.3,3.9h-1.8c-0.9-2-3.2-2.9-5.3-2.1
	c-2,0.9-2.9,3.2-2.1,5.3c0.9,2,3.2,2.9,5.3,2.1c0.9-0.4,1.7-1.1,2.1-2.1h1.8c-1,3-4.2,4.6-7.2,3.7
	C478.6,148.8,477,146.7,476.9,144.3L476.9,144.3z"/>
<path class="st92" d="M489.4,144.9c0-1.9,1.6-3.5,3.5-3.5s3.5,1.6,3.5,3.5v0.1h-1.5v-0.1c0-1.5-0.8-2.1-1.9-2.1s-1.9,0.6-1.9,2.1
	v4.8h-1.6L489.4,144.9z"/>
<path class="st92" d="M497.1,145.6c0-2.4,1.9-4.3,4.3-4.3c2.4,0,4.3,1.9,4.3,4.3v0.6h-7c0.2,1.3,1.4,2.3,2.7,2.2
	c0.9,0.1,1.7-0.3,2.3-1h1.7c-0.7,1.6-2.3,2.6-4,2.5c-2.3,0.1-4.2-1.6-4.3-3.9C497.1,145.8,497.1,145.7,497.1,145.6z M504.1,144.8
	c-0.4-1.5-2-2.3-3.4-1.9c-0.9,0.3-1.6,1-1.9,1.9H504.1z"/>
<path class="st92" d="M506.7,145.6c-0.1-2.3,1.7-4.2,4-4.3c0.1,0,0.3,0,0.4,0c2.3-0.1,4.2,1.6,4.3,3.9c0,0.1,0,0.3,0,0.4v4H514v-1.8
	c-0.5,1.3-1.8,2.1-3.1,2c-2.2,0.1-4.1-1.7-4.1-3.9C506.7,145.9,506.7,145.8,506.7,145.6z M513.8,145.6c0-1.5-1.2-2.8-2.8-2.8
	c-1.5,0-2.8,1.2-2.8,2.8s1.2,2.8,2.8,2.8c0,0,0,0,0.1,0c1.5,0,2.7-1.1,2.7-2.6C513.9,145.7,513.9,145.6,513.8,145.6z"/>
<path class="st92" d="M517,146.6v-7.9h1.6v2.9h4.4v1.4h-4.4v3.6c0,1.3,0.7,1.8,1.7,1.8s1.7-0.5,1.7-1.8v-0.2h1.5v0.2
	c0.1,1.8-1.3,3.3-3.1,3.4s-3.3-1.3-3.4-3.1C517,146.8,517,146.7,517,146.6L517,146.6z"/>
<path class="st92" d="M524.4,145.6c0-2.4,1.9-4.3,4.3-4.3c2.4,0,4.3,1.9,4.3,4.3v0.6h-7c0.2,1.3,1.4,2.3,2.7,2.2
	c0.9,0.1,1.7-0.3,2.3-1h1.7c-1.1,2.2-3.7,3.1-5.9,2C525.5,148.7,524.5,147.2,524.4,145.6L524.4,145.6z M531.4,144.8
	c-0.4-1.5-2-2.3-3.4-1.9c-0.9,0.3-1.6,1-1.9,1.9H531.4z"/>
<path class="st92" d="M538.8,150.6h1.6c0.4,0.9,1.3,1.5,2.3,1.3c1.2,0.1,2.3-0.7,2.5-1.9c0-0.2,0-0.4,0-0.6v-1.2
	c-0.5,1-1.6,1.6-2.7,1.6c-2,0-3.7-1.3-3.7-4.1v-4.1h1.6v4.1c-0.2,1.3,0.7,2.4,2,2.6c0.2,0,0.3,0,0.5,0c1.3,0.1,2.4-0.9,2.5-2.2
	c0-0.1,0-0.3,0-0.4v-4.1h1.6v7.8c0,2.8-1.8,3.9-4,3.9C540.9,153.5,539.2,152.3,538.8,150.6z"/>
<path class="st92" d="M548.2,145.6c-0.1-2.4,1.8-4.4,4.2-4.4c2.4-0.1,4.4,1.8,4.4,4.2c0.1,2.4-1.8,4.4-4.2,4.4c0,0-0.1,0-0.1,0
	c-2.3,0.1-4.2-1.7-4.3-3.9C548.2,145.8,548.2,145.7,548.2,145.6z M555.3,145.6c0-1.5-1.3-2.8-2.8-2.7c-1.5,0-2.8,1.3-2.7,2.8
	c0,1.5,1.3,2.7,2.8,2.8c1.5,0.1,2.7-1.1,2.8-2.6C555.4,145.8,555.4,145.7,555.3,145.6z"/>
<path class="st92" d="M558.2,145.8v-4.2h1.6v4.2c-0.1,1.3,0.9,2.5,2.3,2.6c1.3,0.1,2.5-0.9,2.6-2.3c0-0.1,0-0.2,0-0.3v-4.2h1.6v4.2
	c0,2.2-1.8,4-4,4S558.2,148,558.2,145.8L558.2,145.8z"/>
<path class="st92" d="M567.8,144.9c-0.1-1.9,1.4-3.6,3.3-3.7s3.6,1.4,3.7,3.3c0,0.1,0,0.2,0,0.4v0.1h-1.5v-0.1
	c0-1.5-0.8-2.1-1.9-2.1s-1.9,0.6-1.9,2.1v4.8h-1.6L567.8,144.9z"/>
<path class="st92" d="M490.7,158.5h5.2c2,0,3,1.1,3,2.8c0,1-0.5,2-1.5,2.4l0,0c1.2,0.3,2,1.4,2,2.7c0.1,1.5-1.1,2.8-2.7,2.9
	c-0.1,0-0.3,0-0.4,0h-5.6L490.7,158.5z M495.7,163c0.8,0.1,1.5-0.5,1.6-1.3c0-0.1,0-0.1,0-0.2c0-0.9-0.5-1.5-1.6-1.5h-3.3v2.9H495.7
	z M496,167.7c0.8,0.1,1.5-0.4,1.6-1.2c0-0.1,0-0.2,0-0.3c0.1-0.8-0.6-1.5-1.4-1.6c-0.1,0-0.1,0-0.2,0h-3.7v3.1H496z"/>
<path class="st92" d="M500.9,157.6h1.6v11.6h-1.6V157.6z"/>
<path class="st92" d="M504.3,165.4v-4.2h1.6v4.2c-0.1,1.3,0.9,2.5,2.3,2.6c1.3,0.1,2.5-0.9,2.6-2.3c0-0.1,0-0.2,0-0.3v-4.2h1.6v4.2
	c0,2.2-1.8,4-4,4S504.3,167.6,504.3,165.4L504.3,165.4z"/>
<path class="st92" d="M513.6,165.2c0-2.4,1.9-4.3,4.3-4.3c2.4,0,4.3,1.9,4.3,4.3v0.6h-7c0.2,1.3,1.4,2.3,2.7,2.2
	c0.9,0.1,1.7-0.3,2.3-1h1.7c-1.1,2.2-3.7,3.1-5.9,2C514.6,168.3,513.7,166.9,513.6,165.2L513.6,165.2z M520.6,164.4
	c-0.3-1.2-1.4-2.1-2.7-2c-1.3-0.1-2.4,0.8-2.7,2H520.6z"/>
<path class="st92" d="M523.5,165.3c-0.1-2.3,1.6-4.2,3.9-4.3c0.1,0,0.3,0,0.4,0c2.3-0.1,4.2,1.6,4.4,3.9c0,0.1,0,0.3,0,0.4
	c0.1,2.2-1.6,4.1-3.8,4.2c-0.1,0-0.2,0-0.3,0c-1.2,0-2.4-0.6-3-1.6v4.9h-1.6L523.5,165.3z M530.6,165.2c0-1.5-1.3-2.8-2.8-2.7
	s-2.8,1.3-2.7,2.8c0,1.5,1.2,2.7,2.8,2.7c1.5,0.1,2.7-1.1,2.8-2.6C530.6,165.4,530.6,165.3,530.6,165.2z"/>
<path class="st92" d="M533.5,164.5c0-1.9,1.5-3.5,3.5-3.5s3.5,1.5,3.5,3.5c0,0,0,0,0,0v0.1h-1.5v-0.1c0-1.5-0.8-2.1-1.9-2.1
	s-1.9,0.6-1.9,2.1v4.8h-1.6L533.5,164.5z"/>
<path class="st92" d="M541.5,158.8c0-0.6,0.5-1.1,1.1-1.1s1.1,0.5,1.1,1.1c0,0.6-0.5,1.1-1.1,1.1C542,159.9,541.5,159.4,541.5,158.8
	C541.5,158.8,541.5,158.8,541.5,158.8z M541.8,161.2h1.6v8.1h-1.6V161.2z"/>
<path class="st92" d="M545.2,165c-0.2-2,1.3-3.9,3.3-4.1c0.2,0,0.5,0,0.7,0c2.4,0,4,1.4,4,4.1v4.2h-1.6V165c0-1.8-1-2.6-2.4-2.6
	c-1.3-0.1-2.4,0.9-2.5,2.2c0,0.2,0,0.3,0,0.5v4.2h-1.6L545.2,165z"/>
<path class="st92" d="M554.8,166.2v-7.8h1.6v2.9h4.4v1.4h-4.4v3.6c0,1.3,0.7,1.8,1.7,1.8s1.7-0.5,1.7-1.8v-0.2h1.5v0.2
	c0.1,1.8-1.3,3.3-3.1,3.4s-3.3-1.3-3.4-3.1C554.8,166.5,554.8,166.4,554.8,166.2L554.8,166.2z"/>
<linearGradient id="SVGID_95_" gradientUnits="userSpaceOnUse" x1="-10738.9131" y1="7951.5332" x2="-10627.7832" y2="7917.3633" gradientTransform="matrix(-0.6881 0.7256 0.7256 0.6881 -12506.6299 2631.094)">
	<stop  offset="1.000000e-02" style="stop-color:#7CD6FB"/>
	<stop  offset="1" style="stop-color:#098DC9"/>
</linearGradient>
<circle class="st96" cx="604.1" cy="337.6" r="68.9"/>
<radialGradient id="SVGID_96_" cx="-848.7912" cy="4846.9336" r="63.66" gradientTransform="matrix(0.77 0.64 0.64 -0.77 -1834.7064 4614.0327)" gradientUnits="userSpaceOnUse">
	<stop  offset="1.000000e-02" style="stop-color:#A0F4EC"/>
	<stop  offset="1" style="stop-color:#22BBFF"/>
</radialGradient>
<circle class="st97" cx="604.1" cy="337.6" r="63.7"/>
<circle class="st98" cx="601.1" cy="321.9" r="45.1"/>
<g id="_062-3">
	<g id="_08-3">
		
			<linearGradient id="SVGID_97_" gradientUnits="userSpaceOnUse" x1="90.3938" y1="2646.293" x2="312.0638" y2="2545.7029" gradientTransform="matrix(0.91 0.42 0.42 -0.91 -628.3362 2662.948)">
			<stop  offset="1.000000e-02" style="stop-color:#7CD6FB"/>
			<stop  offset="1" style="stop-color:#098DC9"/>
		</linearGradient>
		<path class="st99" d="M653.4,296.8c-11.2-12.9-22.3-17.5-22.3-17.5c-32.2-14.8-70.3-0.7-85.1,31.5s-0.7,70.3,31.5,85.1
			c32.2,14.8,70.3,0.7,85.1-31.5c7.1-15.5,7.8-33.1,1.9-49.1C661.9,308.6,658.2,302.3,653.4,296.8z M578.4,393.7
			c-31-14.3-44.6-50.9-30.3-81.9c14.3-31,50.9-44.6,81.9-30.3c31,14.3,44.6,50.9,30.3,81.9c-6.8,14.9-19.3,26.4-34.7,32.1
			C610.3,401.3,593.3,400.6,578.4,393.7L578.4,393.7z"/>
	</g>
</g>
<path class="st100" d="M595.8,310.7h2.2c0,1.6,1.2,2.8,3.2,2.8s3.1-1.2,3.1-2.8s-1.1-2.7-3.2-2.7h-1.8v-2h1.8c1.8,0,2.7-0.8,2.7-2.3
	c0-1.3-1-2.3-2.3-2.3c-0.1,0-0.2,0-0.3,0c-1.3-0.1-2.5,0.8-2.6,2.1c0,0.1,0,0.1,0,0.2h-2.2c0.1-2.9,2-4.4,4.9-4.4s4.9,1.6,4.9,4.2
	c0.1,1.5-0.7,2.8-2.1,3.4l0,0c1.7,0.5,2.8,2.1,2.7,3.9c0,2.9-2.3,4.8-5.4,4.8S595.8,313.7,595.8,310.7z"/>
<path class="st100" d="M608.8,314c0-0.9,0.7-1.6,1.6-1.6c0.9,0,1.6,0.7,1.6,1.6s-0.7,1.6-1.6,1.6c0,0,0,0,0,0
	c-0.8,0-1.6-0.6-1.6-1.5C608.8,314,608.8,314,608.8,314z"/>
<path class="st100" d="M574.4,328.2h7.9v1.5h-6.2v2.9h5.3v1.5h-5.3v3.1h6.2v1.5h-7.9L574.4,328.2z"/>
<path class="st100" d="M586.5,334.8l-3-4h1.9l2.3,3.2l2.3-3.2h1.9l-3.1,4l3.2,4.1h-1.9l-2.4-3.3l-2.4,3.3h-1.9L586.5,334.8z"/>
<path class="st100" d="M593,335.9V328h1.6v2.9h4.4v1.4h-4.4v3.6c0,1.3,0.7,1.8,1.7,1.8s1.7-0.5,1.7-1.8v-0.2h1.5v0.2
	c0.1,1.8-1.3,3.3-3.1,3.4s-3.3-1.3-3.4-3.1C593,336.1,593,336,593,335.9L593,335.9z"/>
<path class="st100" d="M600.8,334.2c-0.1-1.9,1.4-3.6,3.3-3.7c1.9-0.1,3.6,1.4,3.7,3.3c0,0.1,0,0.2,0,0.4v0.1h-1.5v-0.1
	c0-1.5-0.8-2.1-1.9-2.1s-1.9,0.6-1.9,2.1v4.8h-1.6L600.8,334.2z"/>
<path class="st100" d="M608.5,335c-0.1-2.3,1.7-4.2,4-4.3c0.1,0,0.2,0,0.4,0c2.3-0.1,4.2,1.6,4.3,3.9c0,0.2,0,0.3,0,0.5v4h-1.4v-1.8
	c-0.5,1.3-1.8,2.1-3.1,2c-2.2,0.1-4-1.7-4.1-3.9C608.5,335.2,608.5,335.1,608.5,335z M615.6,334.9c0-1.5-1.3-2.8-2.8-2.7
	s-2.8,1.3-2.7,2.8c0,1.5,1.3,2.7,2.8,2.8c1.5,0.1,2.7-1.1,2.8-2.6C615.6,335.1,615.6,335,615.6,334.9z"/>
<path class="st100" d="M618.4,334.9c-0.1-2.3,1.8-4.2,4-4.3c0.1,0,0.2,0,0.3,0c2-0.1,3.7,1.2,4.2,3.1h-1.6c-0.6-1.4-2.3-2.1-3.7-1.5
	c-1.4,0.6-2.1,2.3-1.5,3.7s2.3,2.1,3.7,1.5c0.7-0.3,1.2-0.8,1.5-1.5h1.6c-0.4,1.9-2.2,3.2-4.2,3.1c-2.3,0.1-4.2-1.7-4.3-3.9
	C618.4,335.1,618.4,335,618.4,334.9z"/>
<path class="st100" d="M628.2,335.9V328h1.6v2.9h4.4v1.4h-4.4v3.6c0,1.3,0.7,1.8,1.7,1.8s1.7-0.5,1.7-1.8v-0.2h1.5v0.2
	c0.1,1.8-1.3,3.3-3.1,3.4s-3.3-1.3-3.4-3.1C628.2,336.1,628.2,336,628.2,335.9L628.2,335.9z"/>
<path class="st100" d="M565,359.5h1.6c0.4,0.9,1.3,1.5,2.3,1.3c1.5,0,2.5-0.7,2.5-2.5v-1.2c-0.5,1-1.6,1.6-2.7,1.6
	c-2,0-3.7-1.3-3.7-4.1v-4.1h1.6v4.1c-0.1,1.3,0.9,2.5,2.3,2.6c1.3,0.1,2.5-0.9,2.6-2.3c0-0.1,0-0.2,0-0.3v-4.1h1.6v7.8
	c0,2.8-1.8,3.9-4,3.9C567.1,362.4,565.5,361.2,565,359.5z"/>
<path class="st100" d="M574.5,354.5c-0.1-2.4,1.8-4.4,4.2-4.4c2.4-0.1,4.4,1.8,4.4,4.2c0.1,2.4-1.8,4.4-4.2,4.4c0,0-0.1,0-0.1,0
	c-2.3,0.1-4.2-1.7-4.3-3.9C574.5,354.7,574.5,354.6,574.5,354.5z M581.6,354.5c0-1.5-1.3-2.8-2.8-2.7s-2.8,1.3-2.7,2.8
	c0,1.5,1.3,2.7,2.8,2.8c1.5,0.1,2.7-1.1,2.8-2.6C581.6,354.7,581.6,354.6,581.6,354.5z"/>
<path class="st100" d="M584.4,354.7v-4.2h1.6v4.2c-0.1,1.3,0.9,2.5,2.3,2.6c1.3,0.1,2.5-0.9,2.6-2.3c0-0.1,0-0.2,0-0.3v-4.2h1.6v4.2
	c0.2,2-1.2,3.8-3.3,4.1c-0.2,0-0.5,0-0.7,0C586,358.7,584.4,357.4,584.4,354.7z"/>
<path class="st100" d="M594,353.8c-0.1-1.9,1.4-3.6,3.3-3.7c1.9-0.1,3.6,1.4,3.7,3.3c0,0.1,0,0.2,0,0.4v0.1h-1.5v-0.1
	c0-1.5-0.8-2.1-1.9-2.1s-1.9,0.6-1.9,2.1v4.8H594L594,353.8z"/>
<path class="st100" d="M606.7,347.8h3.8c3.7,0,5.7,2.1,5.7,5.4s-2,5.3-5.7,5.3h-3.8V347.8z M610.5,357c2.7,0,4-1.5,4-3.8
	s-1.3-3.8-4-3.8h-2.1v7.6H610.5z"/>
<path class="st100" d="M617.2,354.6c-0.1-2.3,1.7-4.2,4-4.3c0.1,0,0.2,0,0.4,0c2.3-0.1,4.2,1.6,4.3,3.9c0,0.1,0,0.3,0,0.4v4h-1.4
	v-1.8c-0.5,1.3-1.8,2.1-3.1,2c-2.2,0.1-4-1.7-4.1-3.9C617.2,354.8,617.2,354.7,617.2,354.6z M624.3,354.5c0-1.5-1.3-2.8-2.8-2.7
	s-2.8,1.3-2.7,2.8c0,1.5,1.3,2.8,2.8,2.7c1.5,0.1,2.7-1.1,2.8-2.6C624.3,354.7,624.3,354.6,624.3,354.5L624.3,354.5z"/>
<path class="st100" d="M627.4,355.5v-7.9h1.6v2.9h4.4v1.4H629v3.6c0,1.3,0.7,1.8,1.7,1.8s1.7-0.5,1.7-1.8v-0.2h1.5v0.2
	c0,1.8-1.4,3.2-3.2,3.2C628.9,358.7,627.5,357.3,627.4,355.5C627.5,355.5,627.5,355.5,627.4,355.5L627.4,355.5z"/>
<path class="st100" d="M634.9,354.6c-0.1-2.3,1.7-4.2,4-4.3c0.1,0,0.2,0,0.4,0c2.3-0.1,4.2,1.6,4.3,3.9c0,0.1,0,0.3,0,0.4v4h-1.4
	v-1.8c-0.5,1.3-1.8,2.1-3.1,2c-2.2,0.1-4-1.7-4.1-3.9C634.9,354.8,634.9,354.7,634.9,354.6z M642,354.5c0-1.5-1.3-2.8-2.8-2.7
	s-2.8,1.3-2.7,2.8c0,1.5,1.3,2.7,2.8,2.8c1.5,0.1,2.7-1.1,2.8-2.6C642,354.7,642,354.6,642,354.5L642,354.5z"/>
<linearGradient id="SVGID_98_" gradientUnits="userSpaceOnUse" x1="-10548.4668" y1="8024.5244" x2="-10437.3369" y2="7990.3545" gradientTransform="matrix(-0.6881 0.7256 0.7256 0.6881 -12506.6299 2631.094)">
	<stop  offset="1.000000e-02" style="stop-color:#35435F"/>
	<stop  offset="1" style="stop-color:#000000"/>
</linearGradient>
<circle class="st101" cx="526" cy="526" r="68.9"/>
<linearGradient id="SVGID_99_" gradientUnits="userSpaceOnUse" x1="-825.6212" y1="4647.0186" x2="-598.3912" y2="4647.0186" gradientTransform="matrix(0.77 0.64 0.64 -0.77 -1834.7064 4614.0327)">
	<stop  offset="1.000000e-02" style="stop-color:#35435F"/>
	<stop  offset="0.97" style="stop-color:#000000"/>
</linearGradient>
<circle class="st102" cx="526" cy="526" r="63.7"/>
<circle class="st90" cx="523" cy="510.4" r="45.1"/>
<g id="_062-4">
	<g id="_08-4">
		
			<linearGradient id="SVGID_100_" gradientUnits="userSpaceOnUse" x1="98.1196" y1="2443.0813" x2="319.7796" y2="2342.4812" gradientTransform="matrix(0.91 0.42 0.42 -0.91 -628.3362 2662.948)">
			<stop  offset="1.000000e-02" style="stop-color:#657A9B"/>
			<stop  offset="0.97" style="stop-color:#000000"/>
		</linearGradient>
		<path class="st103" d="M575.4,485.3c-11.2-12.9-22.4-17.5-22.4-17.5c-32.2-14.8-70.3-0.7-85.1,31.5s-0.7,70.3,31.5,85.1
			c32.2,14.8,70.3,0.7,85.1-31.5c7.1-15.5,7.8-33.1,1.9-49.1C583.8,497,580.1,490.7,575.4,485.3z M500.4,582.2
			c-31-14.3-44.5-50.9-30.3-81.9S521,455.7,552,470s44.5,50.9,30.3,81.9c-6.8,14.9-19.3,26.4-34.7,32.1
			C532.2,589.7,515.2,589.1,500.4,582.2L500.4,582.2z"/>
	</g>
</g>
<path class="st92" d="M525,500.2h-7.6v-2l7.6-10.3h2.3v10.2h1.7v2h-1.7v3.4H525V500.2z M525,498.2v-7.1l-5.1,7.1H525z"/>
<path class="st92" d="M531.1,502.4c0-0.9,0.7-1.6,1.6-1.6c0.9,0,1.6,0.7,1.6,1.6c0,0.9-0.7,1.6-1.6,1.6c-0.8,0-1.6-0.6-1.6-1.5
	C531,502.4,531,502.4,531.1,502.4z"/>
<path class="st92" d="M493.4,516.7h7.9v1.5h-6.2v2.9h5.3v1.5h-5.3v3.1h6.2v1.5h-7.9V516.7z"/>
<path class="st92" d="M502.8,523.1c-0.2-2,1.3-3.9,3.3-4.1c0.2,0,0.5,0,0.7,0c2.4,0,4,1.4,4,4.1v4.2h-1.6v-4.2c0-1.8-1-2.7-2.4-2.7
	c-1.3-0.1-2.4,0.9-2.5,2.2c0,0.2,0,0.3,0,0.5v4.2h-1.6L502.8,523.1z"/>
<path class="st92" d="M512.7,515.7h1.6v4.8c0.5-1,1.6-1.6,2.7-1.5c2,0,3.7,1.3,3.7,4.1v4.2h-1.5v-4.2c0-1.8-1-2.7-2.4-2.7
	c-1.3-0.1-2.4,0.9-2.5,2.2c0,0.1,0,0.3,0,0.4v4.2h-1.6L512.7,515.7z"/>
<path class="st92" d="M521.9,523.3c-0.1-2.3,1.7-4.2,4-4.3c0.1,0,0.2,0,0.4,0c2.3-0.1,4.2,1.6,4.3,3.9c0,0.1,0,0.3,0,0.4v4h-1.4
	v-1.8c-0.5,1.3-1.8,2.1-3.1,2c-2.2,0-4-1.7-4.1-3.9C521.9,523.6,521.9,523.5,521.9,523.3z M529,523.3c0-1.5-1.3-2.8-2.8-2.7
	c-1.5,0-2.8,1.3-2.7,2.8c0,1.5,1.3,2.7,2.8,2.8c1.5,0.1,2.7-1.1,2.8-2.6C529,523.5,529,523.4,529,523.3L529,523.3z"/>
<path class="st92" d="M532.2,523.1c0-2.7,1.6-4.1,4-4.1s4,1.4,4,4.1v4.2h-1.6v-4.2c0.2-1.3-0.7-2.5-2-2.6c-0.2,0-0.3,0-0.5,0
	c-1.5,0-2.4,0.9-2.4,2.7v4.2h-1.6L532.2,523.1z"/>
<path class="st92" d="M541.4,523.3c-0.1-2.3,1.7-4.2,4-4.3c0.1,0,0.2,0,0.3,0c2-0.1,3.7,1.2,4.2,3.1h-1.6c-0.4-1.1-1.4-1.8-2.6-1.7
	c-1.6,0-2.8,1.3-2.8,2.8s1.3,2.8,2.8,2.8c1.1,0,2.2-0.7,2.6-1.7h1.6c-0.4,1.9-2.2,3.2-4.2,3.1c-2.3,0.1-4.2-1.7-4.3-3.9
	C541.4,523.6,541.4,523.5,541.4,523.3z"/>
<path class="st92" d="M550.9,523.3c0-2.4,1.9-4.3,4.3-4.3c2.4,0,4.3,1.9,4.3,4.3v0.6h-7c0.2,1.3,1.4,2.3,2.7,2.2
	c0.9,0.1,1.7-0.3,2.3-1h1.7c-1.1,2.2-3.7,3.1-5.9,2C551.9,526.5,551,525,550.9,523.3L550.9,523.3z M557.9,522.5
	c-0.3-1.2-1.4-2.1-2.7-2c-1.3-0.1-2.4,0.8-2.7,2H557.9z"/>
<path class="st92" d="M486.9,547.9h1.6c0.4,0.9,1.3,1.5,2.3,1.3c1.2,0.2,2.3-0.7,2.5-1.9c0-0.2,0-0.4,0-0.6v-1.2
	c-0.5,1-1.6,1.6-2.7,1.5c-2,0-3.7-1.3-3.7-4.1v-4.1h1.6v4.1c-0.2,1.3,0.7,2.4,2,2.6c0.2,0,0.3,0,0.5,0c1.3,0.1,2.4-0.9,2.5-2.2
	c0-0.1,0-0.3,0-0.4v-4.1h1.6v7.8c0,2.8-1.8,3.9-4,3.9C489.1,550.8,487.4,549.7,486.9,547.9z"/>
<path class="st92" d="M496.4,542.9c-0.1-2.4,1.8-4.4,4.2-4.4c2.4-0.1,4.4,1.8,4.4,4.2c0.1,2.4-1.8,4.4-4.2,4.4c0,0-0.1,0-0.1,0
	c-2.3,0.1-4.2-1.7-4.3-3.9C496.4,543.1,496.4,543,496.4,542.9z M503.5,542.9c0-1.5-1.3-2.8-2.8-2.7c-1.5,0-2.8,1.3-2.7,2.8
	c0,1.5,1.3,2.8,2.8,2.7c1.5,0.1,2.7-1.1,2.8-2.5C503.5,543.1,503.5,543,503.5,542.9z"/>
<path class="st92" d="M506.3,543.1v-4.2h1.6v4.2c-0.1,1.3,0.9,2.5,2.3,2.6c1.3,0.1,2.5-0.9,2.6-2.3c0-0.1,0-0.2,0-0.3v-4.2h1.6v4.2
	c0.2,2-1.2,3.8-3.3,4.1c-0.2,0-0.5,0-0.7,0C507.9,547.2,506.3,545.8,506.3,543.1z"/>
<path class="st92" d="M515.9,542.2c0-1.9,1.5-3.5,3.5-3.5s3.5,1.5,3.5,3.5c0,0,0,0,0,0v0.2h-1.5v-0.1c0-1.5-0.8-2.1-1.9-2.1
	s-1.9,0.6-1.9,2.1v4.8h-1.6L515.9,542.2z"/>
<path class="st92" d="M528.6,536.3h3.8c3.7,0,5.7,2.1,5.7,5.3s-2,5.3-5.7,5.3h-3.8V536.3z M532.4,545.4c2.7,0,4-1.5,4-3.8
	s-1.3-3.8-4-3.8h-2.2v7.6H532.4z"/>
<path class="st92" d="M539.1,543c-0.1-2.3,1.7-4.2,4-4.3c0.1,0,0.3,0,0.4,0c2.3-0.1,4.2,1.6,4.3,3.9c0,0.1,0,0.3,0,0.4v4h-1.4v-1.8
	c-0.5,1.3-1.8,2.1-3.1,2c-2.2,0.1-4.1-1.7-4.1-3.9C539.1,543.2,539.1,543.1,539.1,543z M546.3,542.9c0-1.5-1.3-2.8-2.8-2.7
	c-1.5,0-2.8,1.3-2.7,2.8c0,1.5,1.3,2.7,2.8,2.8c1.5,0.1,2.7-1.1,2.8-2.6C546.2,543.1,546.2,543,546.3,542.9L546.3,542.9z"/>
<path class="st92" d="M549.4,543.9V536h1.6v2.9h4.4v1.5h-4.4v3.6c0,1.3,0.7,1.8,1.7,1.8s1.7-0.5,1.7-1.8v-0.2h1.5v0.2
	c0.1,1.8-1.3,3.3-3.1,3.4c-1.8,0.1-3.3-1.3-3.4-3.1C549.4,544.2,549.4,544.1,549.4,543.9L549.4,543.9z"/>
<path class="st92" d="M556.8,543c-0.1-2.3,1.7-4.2,4-4.3c0.1,0,0.3,0,0.4,0c2.3-0.1,4.2,1.6,4.3,3.9c0,0.1,0,0.3,0,0.4v4H564v-1.8
	c-0.5,1.3-1.8,2.1-3.1,2c-2.2,0.1-4.1-1.7-4.1-3.9C556.8,543.2,556.8,543.1,556.8,543z M563.9,542.9c0-1.5-1.3-2.8-2.8-2.7
	c-1.5,0-2.8,1.3-2.7,2.8c0,1.5,1.3,2.7,2.8,2.8c1.5,0.1,2.7-1.1,2.8-2.5C563.9,543.1,563.9,543,563.9,542.9z"/>
<linearGradient id="SVGID_101_" gradientUnits="userSpaceOnUse" x1="-10360.4355" y1="7942.3472" x2="-10249.3057" y2="7908.1772" gradientTransform="matrix(-0.6881 0.7256 0.7256 0.6881 -12506.6299 2631.094)">
	<stop  offset="1.000000e-02" style="stop-color:#35435F"/>
	<stop  offset="1" style="stop-color:#000000"/>
</linearGradient>
<circle class="st104" cx="337" cy="605.9" r="68.9"/>
<linearGradient id="SVGID_102_" gradientUnits="userSpaceOnUse" x1="-920.3112" y1="4464.9917" x2="-693.0812" y2="4464.9917" gradientTransform="matrix(0.77 0.64 0.64 -0.77 -1834.7064 4614.0327)">
	<stop  offset="1.000000e-02" style="stop-color:#35435F"/>
	<stop  offset="0.97" style="stop-color:#000000"/>
</linearGradient>
<circle class="st105" cx="337" cy="605.9" r="63.7"/>
<circle class="st90" cx="334" cy="590.3" r="45.1"/>
<g id="_062-5">
	<g id="_08-5">
		
			<linearGradient id="SVGID_103_" gradientUnits="userSpaceOnUse" x1="-40.3779" y1="2291.9768" x2="181.2821" y2="2191.3867" gradientTransform="matrix(0.91 0.42 0.42 -0.91 -628.3362 2662.948)">
			<stop  offset="1.000000e-02" style="stop-color:#657A9B"/>
			<stop  offset="0.97" style="stop-color:#000000"/>
		</linearGradient>
		<path class="st106" d="M386.3,565.1c-11.2-12.9-22.4-17.5-22.4-17.5c-32.2-14.8-70.3-0.7-85.1,31.5c-14.8,32.2-0.7,70.3,31.5,85.1
			c32.2,14.8,70.3,0.7,85.1-31.5c7.1-15.5,7.8-33.1,1.9-49.1C394.8,576.9,391.1,570.6,386.3,565.1z M311.3,662
			c-31-14.3-44.6-50.9-30.3-81.9c14.3-31,50.9-44.6,81.9-30.3c31,14.3,44.6,50.9,30.3,81.9c-6.8,14.9-19.3,26.4-34.7,32.1
			C343.2,669.6,326.2,668.9,311.3,662L311.3,662z"/>
	</g>
</g>
<path class="st92" d="M331,574.8h2.3c0.3,1.5,1.6,2.7,3.2,2.6c1.8,0.1,3.2-1.3,3.3-3.1c0-0.1,0-0.3,0-0.4c0-1.8-1.5-3.3-3.3-3.3
	c-1.2,0-2.3,0.7-2.9,1.7l-2-0.6l1-8.2h8.2v2h-6.5l-0.6,4.6c0.8-1,2-1.6,3.2-1.5c2.8,0,5,2.2,5.1,4.9c0,0.1,0,0.2,0,0.4
	c0.2,2.9-2.1,5.5-5,5.6c-0.2,0-0.3,0-0.5,0C333.7,579.6,331.3,577.6,331,574.8z"/>
<path class="st92" d="M344.2,577.9c0-0.9,0.7-1.6,1.6-1.6c0.9,0,1.6,0.7,1.6,1.6c0,0.9-0.7,1.6-1.6,1.6c-0.8,0-1.6-0.6-1.6-1.5
	C344.2,578,344.2,577.9,344.2,577.9z"/>
<path class="st92" d="M299.6,592.2h1.7v10.7h-1.7V592.2z"/>
<path class="st92" d="M303.2,598.2c0-2.5,1.4-3.6,3.3-3.6c1,1.6,3,2.1,4.6,1.1c0.5-0.3,0.8-0.7,1.1-1.1c1.9,0,3.3,1.2,3.3,3.6v4.7
	H314v-4.7c0-1.5-0.8-2.2-1.9-2.2s-1.9,0.7-1.9,2.2v4.7h-1.6v-4.7c0.1-1-0.6-2-1.6-2.2c-0.1,0-0.2,0-0.3,0c-1.1,0-1.9,0.7-1.9,2.2
	v4.7h-1.5V598.2z"/>
<path class="st92" d="M317.1,598.9c-0.1-2.3,1.6-4.2,3.8-4.3c0.2,0,0.3,0,0.5,0c2.3-0.1,4.2,1.6,4.4,3.9c0,0.1,0,0.3,0,0.4
	c0.1,2.2-1.6,4.1-3.8,4.2c-0.1,0-0.2,0-0.3,0c-1.2,0-2.4-0.6-3-1.6v4.9h-1.6V598.9z M324.2,598.8c0-1.5-1.3-2.8-2.8-2.7
	c-1.5,0-2.8,1.3-2.7,2.8c0,1.5,1.2,2.7,2.8,2.7c1.5,0.1,2.7-1,2.8-2.5C324.3,599,324.3,598.9,324.2,598.8L324.2,598.8z"/>
<path class="st92" d="M327.4,591.3h1.5v11.6h-1.5V591.3z"/>
<path class="st92" d="M330.5,598.8c0-2.4,1.9-4.3,4.3-4.3c2.4,0,4.3,1.9,4.3,4.3v0.6h-7c0.2,1.3,1.4,2.3,2.7,2.2
	c0.9,0.1,1.7-0.3,2.3-1h1.7c-1.1,2.2-3.7,3.1-5.9,2C331.5,602,330.6,600.5,330.5,598.8L330.5,598.8z M337.5,598
	c-0.4-1.5-2-2.3-3.5-1.9c-0.9,0.3-1.6,1-1.9,1.9H337.5z"/>
<path class="st92" d="M340.5,598.2c0-2.5,1.4-3.6,3.3-3.6c1,1.6,3,2.1,4.6,1.1c0.5-0.3,0.8-0.7,1.1-1.1c1.9,0,3.3,1.2,3.3,3.6v4.7
	h-1.5v-4.7c0-1.5-0.8-2.2-1.9-2.2s-1.9,0.7-1.9,2.2v4.7h-1.6v-4.7c0-1.5-0.8-2.2-1.9-2.2s-1.9,0.7-1.9,2.2v4.7h-1.5L340.5,598.2z"/>
<path class="st92" d="M354.1,598.8c0-2.4,1.9-4.3,4.3-4.3c2.4,0,4.3,1.9,4.3,4.3v0.6h-7c0.2,1.3,1.4,2.3,2.7,2.2
	c0.9,0.1,1.7-0.3,2.3-1h1.7c-0.7,1.6-2.3,2.6-4,2.5c-2.3,0.1-4.2-1.6-4.3-3.9C354.1,599.1,354.1,598.9,354.1,598.8z M361.1,598
	c-0.4-1.5-2-2.3-3.5-1.9c-0.9,0.3-1.6,1-1.9,1.9H361.1z"/>
<path class="st92" d="M364,598.7c0-2.7,1.6-4.1,4-4.1s4,1.4,4,4.1v4.2h-1.5v-4.2c0.2-1.3-0.7-2.5-2-2.6c-0.2,0-0.3,0-0.5,0
	c-1.5,0-2.4,0.9-2.4,2.7v4.2H364L364,598.7z"/>
<path class="st92" d="M373.6,599.8v-7.9h1.5v2.8h4.4v1.4h-4.4v3.6c0,1.3,0.7,1.8,1.7,1.8s1.7-0.5,1.7-1.8v-0.2h1.6v0.2
	c0.1,1.8-1.3,3.3-3.1,3.4c-1.8,0.1-3.3-1.3-3.4-3.1C373.6,600.1,373.6,599.9,373.6,599.8L373.6,599.8z"/>
<path class="st92" d="M321.9,623.4h1.5c0.4,0.9,1.3,1.5,2.3,1.3c1.2,0.2,2.3-0.7,2.5-1.9c0-0.2,0-0.4,0-0.6v-1.2
	c-0.5,1-1.6,1.6-2.7,1.5c-2,0-3.7-1.3-3.7-4.1v-4.1h1.5v4.1c-0.1,1.3,0.9,2.5,2.3,2.6c1.3,0.1,2.5-0.9,2.6-2.3c0-0.1,0-0.2,0-0.3
	v-4.1h1.5v7.8c0,2.8-1.8,3.9-4,3.9C324,626.3,322.3,625.2,321.9,623.4z"/>
<path class="st92" d="M331.3,618.4c-0.1-2.4,1.8-4.4,4.2-4.5s4.4,1.8,4.5,4.2c0.1,2.4-1.8,4.4-4.2,4.5c0,0-0.1,0-0.1,0
	c-2.3,0.1-4.2-1.6-4.3-3.9C331.3,618.7,331.3,618.6,331.3,618.4z M338.4,618.4c0-1.5-1.3-2.8-2.8-2.7c-1.5,0-2.8,1.3-2.7,2.8
	c0,1.5,1.3,2.7,2.8,2.8c1.5,0.1,2.7-1.1,2.8-2.6C338.4,618.6,338.4,618.5,338.4,618.4z"/>
<path class="st92" d="M341.3,618.6v-4.2h1.6v4.2c-0.1,1.3,0.9,2.5,2.3,2.6c1.3,0.1,2.5-0.9,2.6-2.3c0-0.1,0-0.2,0-0.3v-4.2h1.5v4.2
	c0.2,2-1.2,3.8-3.3,4.1c-0.2,0-0.5,0-0.7,0C342.9,622.7,341.3,621.3,341.3,618.6z"/>
<path class="st92" d="M350.8,617.7c-0.1-1.9,1.4-3.6,3.3-3.7s3.6,1.4,3.7,3.3c0,0.1,0,0.2,0,0.4v0.1h-1.5v-0.1
	c0-1.5-0.8-2.1-1.9-2.1s-1.9,0.6-1.9,2.1v4.8h-1.5L350.8,617.7z"/>
<path class="st92" d="M301.6,635.8c0-2.8,1.6-4.6,4.6-4.6s4.7,1.8,4.7,4.6v6.3h-1.7v-3.4h-6v3.4h-1.6L301.6,635.8z M309.2,637.2
	v-1.4c0-1.7-1.3-3-3-3s-3,1.3-3,3v1.4H309.2z"/>
<path class="st92" d="M312.8,630.5h1.5v11.6h-1.5V630.5z"/>
<path class="st92" d="M316.2,643.1h1.6c0.5,0.9,1.5,1.5,2.5,1.3c1.7,0,2.8-0.8,2.8-2.9v-0.9c-0.6,1.1-1.8,1.7-3,1.7
	c-2.2,0.1-4-1.7-4.1-3.9c0-0.1,0-0.2,0-0.3c-0.1-2.3,1.8-4.2,4-4.3c0.1,0,0.2,0,0.3,0c2.3-0.1,4.2,1.6,4.3,3.9c0,0.2,0,0.3,0,0.5
	v3.3c0,3.1-1.9,4.3-4.3,4.3C318.3,645.8,316.8,644.9,316.2,643.1z M323,638.1c0-1.5-1.2-2.8-2.8-2.8c-1.5,0-2.8,1.2-2.8,2.8
	c0,0,0,0,0,0c0,1.5,1.2,2.8,2.8,2.8C321.8,640.8,323,639.6,323,638.1z"/>
<path class="st92" d="M325.9,638.1c-0.1-2.4,1.8-4.4,4.2-4.4s4.4,1.8,4.4,4.2s-1.8,4.4-4.2,4.4c0,0-0.1,0-0.1,0
	c-2.3,0.1-4.2-1.7-4.3-3.9C325.9,638.3,325.9,638.2,325.9,638.1z M333,638.1c0-1.5-1.3-2.8-2.8-2.7c-1.5,0-2.8,1.3-2.7,2.8
	c0,1.5,1.3,2.7,2.8,2.8c1.5,0.1,2.7-1.1,2.8-2.6C333,638.2,333,638.1,333,638.1z"/>
<path class="st92" d="M335.8,637.3c-0.1-1.9,1.4-3.6,3.3-3.7s3.6,1.4,3.7,3.3c0,0.1,0,0.2,0,0.4v0.1h-1.5v-0.1
	c0-1.5-0.8-2.1-1.9-2.1s-1.9,0.6-1.9,2.1v4.8h-1.5L335.8,637.3z"/>
<path class="st92" d="M343.8,631.6c0-0.6,0.5-1.1,1.1-1.1c0.6,0,1.1,0.5,1.1,1.1c0,0.6-0.5,1.1-1.1,1.1
	C344.3,632.7,343.8,632.3,343.8,631.6C343.8,631.7,343.8,631.7,343.8,631.6z M344.1,634h1.6v8.1h-1.6L344.1,634z"/>
<path class="st92" d="M347.6,639v-7.9h1.5v2.9h4.4v1.4h-4.4v3.6c0,1.3,0.7,1.8,1.7,1.8s1.7-0.5,1.7-1.8v-0.2h1.5v0.2
	c0.1,1.8-1.3,3.3-3.1,3.4c-1.8,0.1-3.3-1.3-3.4-3.1C347.6,639.3,347.6,639.2,347.6,639L347.6,639z"/>
<path class="st92" d="M355.6,630.5h1.5v4.9c0.5-1,1.6-1.6,2.7-1.5c2,0,3.7,1.3,3.7,4.1v4.2H362v-4.2c0-1.8-1-2.7-2.4-2.7
	c-1.3-0.1-2.4,0.9-2.5,2.2c0,0.1,0,0.3,0,0.4v4.2h-1.5L355.6,630.5z"/>
<path class="st92" d="M365.2,637.4c0-2.5,1.4-3.6,3.3-3.6c1.2-0.1,2.3,0.6,2.8,1.6c0.6-1,1.7-1.7,2.8-1.6c1.9,0,3.3,1.1,3.3,3.6v4.7
	H376v-4.7c0-1.5-0.8-2.2-1.9-2.2s-1.9,0.7-1.9,2.2v4.7h-1.5v-4.7c0.1-1-0.6-2-1.6-2.2c-0.1,0-0.2,0-0.3,0c-1.1,0-1.9,0.7-1.9,2.2
	v4.7h-1.5L365.2,637.4z"/>
<linearGradient id="SVGID_104_" gradientUnits="userSpaceOnUse" x1="-10371.0371" y1="7562.771" x2="-10259.9072" y2="7528.6011" gradientTransform="matrix(-0.6881 0.7256 0.7256 0.6881 -12506.6299 2631.094)">
	<stop  offset="1.000000e-02" style="stop-color:#35435F"/>
	<stop  offset="1" style="stop-color:#000000"/>
</linearGradient>
<circle class="st107" cx="68.9" cy="337" r="68.9"/>
<linearGradient id="SVGID_105_" gradientUnits="userSpaceOnUse" x1="-1298.3011" y1="4500.3379" x2="-1071.0712" y2="4500.3379" gradientTransform="matrix(0.77 0.64 0.64 -0.77 -1834.7064 4614.0327)">
	<stop  offset="1.000000e-02" style="stop-color:#35435F"/>
	<stop  offset="0.97" style="stop-color:#000000"/>
</linearGradient>
<circle class="st108" cx="68.9" cy="337" r="63.7"/>
<circle class="st90" cx="65.9" cy="321.4" r="45.1"/>
<g id="_062-6">
	<g id="_08-6">
		
			<linearGradient id="SVGID_106_" gradientUnits="userSpaceOnUse" x1="-396.5529" y1="2423.824" x2="-174.8929" y2="2323.2341" gradientTransform="matrix(0.91 0.42 0.42 -0.91 -628.3362 2662.948)">
			<stop  offset="1.000000e-02" style="stop-color:#657A9B"/>
			<stop  offset="0.97" style="stop-color:#000000"/>
		</linearGradient>
		<path class="st109" d="M118.2,296.3c-11.2-12.9-22.4-17.5-22.4-17.5c-32.2-14.8-70.3-0.7-85.1,31.5c-14.8,32.2-0.7,70.3,31.5,85.1
			c32.2,14.8,70.3,0.7,85.1-31.5c7.1-15.5,7.8-33.1,1.9-49.1C126.7,308,123,301.7,118.2,296.3z M43.2,393.2
			c-31-14.3-44.6-50.9-30.3-81.9s50.9-44.6,81.9-30.3s44.6,50.9,30.3,81.9c-6.8,14.9-19.3,26.4-34.7,32.1
			C75.1,400.7,58.1,400.1,43.2,393.2L43.2,393.2z"/>
	</g>
</g>
<path class="st92" d="M69.7,316.1H62v-2h10.2v1.9l-7.1,13.7h-2.5L69.7,316.1z"/>
<path class="st92" d="M74.3,328.4c-0.1-0.9,0.6-1.6,1.5-1.7s1.6,0.6,1.7,1.5c0,0.1,0,0.2,0,0.3c-0.1,0.9-0.8,1.5-1.7,1.5
	C75,329.8,74.4,329.2,74.3,328.4z"/>
<path class="st92" d="M41.8,348c0.1-3.2,2.7-5.7,5.9-5.6c2.3,0.1,4.3,1.5,5.1,3.6H51c-0.7-1.3-2-2.1-3.5-2c-2.2,0-4,1.8-4,4
	s1.8,4,4,4c1.8,0.1,3.4-1,3.9-2.8h-4.5v-1.5h6.3v0.8c-0.4,3.1-3.2,5.4-6.3,5C44,353.2,41.8,350.9,41.8,348L41.8,348z"/>
<path class="st92" d="M54.1,349.4c-0.1-2.4,1.8-4.4,4.2-4.4s4.4,1.8,4.4,4.2c0.1,2.4-1.8,4.4-4.2,4.4c0,0-0.1,0-0.1,0
	c-2.3,0.1-4.2-1.7-4.3-3.9C54.1,349.6,54.1,349.5,54.1,349.4z M61.3,349.4c0-1.5-1.3-2.8-2.8-2.7c-1.5,0-2.8,1.3-2.7,2.8
	c0,1.5,1.3,2.7,2.8,2.8c1.5,0.1,2.7-1.1,2.8-2.6C61.2,349.5,61.2,349.4,61.3,349.4L61.3,349.4z"/>
<path class="st92" d="M68.7,342.7h1.7v9.1h6v1.5h-7.7V342.7z"/>
<path class="st92" d="M77.6,342.9c0-0.6,0.5-1.1,1.1-1.1c0.6,0,1.1,0.5,1.1,1.1c0,0.6-0.5,1.1-1.1,1.1
	C78.1,344,77.6,343.5,77.6,342.9C77.6,342.9,77.6,342.9,77.6,342.9z M77.9,345.3h1.5v8h-1.5V345.3z"/>
<path class="st92" d="M80.8,345.4h1.7l2.6,6.7l2.6-6.7h1.7l-3.3,8h-1.9L80.8,345.4z"/>
<path class="st92" d="M89.8,349.4c0.1-2.4,2.1-4.2,4.5-4.1c2.2,0.1,4,1.9,4.1,4.1v0.6h-7c0.2,1.3,1.4,2.3,2.7,2.2
	c0.9,0.1,1.7-0.3,2.3-1h1.7c-1.1,2.2-3.7,3.1-5.9,2C90.9,352.5,89.9,351,89.8,349.4L89.8,349.4z M96.8,348.5c-0.4-1.5-2-2.3-3.5-1.9
	c-0.9,0.3-1.6,1-1.9,1.9H96.8z"/>
<linearGradient id="SVGID_107_" gradientUnits="userSpaceOnUse" x1="-10287.9189" y1="7750.0947" x2="-10176.7891" y2="7715.9248" gradientTransform="matrix(-0.6881 0.7256 0.7256 0.6881 -12506.6299 2631.094)">
	<stop  offset="1.000000e-02" style="stop-color:#35435F"/>
	<stop  offset="1" style="stop-color:#000000"/>
</linearGradient>
<circle class="st110" cx="147.6" cy="526.2" r="68.9"/>
<linearGradient id="SVGID_108_" gradientUnits="userSpaceOnUse" x1="-1117.0211" y1="4405.271" x2="-889.7812" y2="4405.271" gradientTransform="matrix(0.77 0.64 0.64 -0.77 -1834.7064 4614.0327)">
	<stop  offset="1.000000e-02" style="stop-color:#35435F"/>
	<stop  offset="0.97" style="stop-color:#000000"/>
</linearGradient>
<circle class="st111" cx="147.6" cy="526.2" r="63.7"/>
<circle class="st90" cx="144.6" cy="510.6" r="45.1"/>
<g id="_062-7">
	<g id="_08-7">
		
			<linearGradient id="SVGID_109_" gradientUnits="userSpaceOnUse" x1="-245.8918" y1="2285.2495" x2="-24.2319" y2="2184.6597" gradientTransform="matrix(0.91 0.42 0.42 -0.91 -628.3362 2662.948)">
			<stop  offset="1.000000e-02" style="stop-color:#657A9B"/>
			<stop  offset="0.97" style="stop-color:#000000"/>
		</linearGradient>
		<path class="st112" d="M197,485.5c-11.2-12.9-22.4-17.5-22.4-17.5c-32.2-14.8-70.3-0.7-85.1,31.5c-14.8,32.2-0.7,70.3,31.5,85.1
			c32.2,14.8,70.3,0.7,85.1-31.5c7.1-15.5,7.8-33.1,1.9-49.1C205.4,497.2,201.7,490.9,197,485.5z M122,582.4
			c-31-14.3-44.6-51-30.3-82c14.3-31,51-44.6,82-30.3s44.6,51,30.3,82c-6.8,14.9-19.3,26.4-34.7,32.1
			C153.8,589.9,136.8,589.3,122,582.4L122,582.4z"/>
	</g>
</g>
<path class="st92" d="M139.3,498.6c0-1.6,0.5-3.1,1.5-4.4l3.9-6h2.5l-3.6,5.5c0.6-0.3,1.3-0.5,2-0.5c2.9,0,4.9,2.3,4.9,5.5
	c0,3.1-2.5,5.6-5.6,5.6C141.9,504.2,139.4,501.7,139.3,498.6C139.4,498.6,139.4,498.6,139.3,498.6L139.3,498.6z M148.2,498.6
	c0.2-1.7-1.1-3.3-2.8-3.4c-0.1,0-0.3,0-0.4,0c-1.9,0-3.5,1.6-3.5,3.5s1.6,3.5,3.5,3.5C146.9,502.1,148.2,500.7,148.2,498.6
	L148.2,498.6z"/>
<path class="st92" d="M152.6,502.6c0-0.9,0.7-1.6,1.6-1.6c0.9,0,1.6,0.7,1.6,1.6c0,0.9-0.7,1.6-1.6,1.6c-0.8,0-1.6-0.6-1.6-1.5
	C152.6,502.7,152.6,502.6,152.6,502.6z"/>
<path class="st92" d="M113.9,516.9h7.9v1.5h-6.2v2.9h5.3v1.5h-5.3v3.1h6.2v1.5h-7.9V516.9z"/>
<path class="st92" d="M123,525.2h1.6c0,0.7,0.7,1.2,1.8,1.2s1.8-0.5,1.8-1.2s-0.8-0.9-1.9-1c-1.4-0.2-3.1-0.5-3.1-2.3
	c0-1.6,1.2-2.7,3.2-2.7s3.1,1.1,3.2,2.5H128c0-0.6-0.6-1.1-1.6-1.1s-1.6,0.5-1.6,1.1s0.8,0.8,1.8,1c1.4,0.2,3.1,0.4,3.1,2.3
	c0,1.6-1.3,2.7-3.3,2.7S123.1,526.7,123,525.2z"/>
<path class="st92" d="M131.1,524.5v-7.9h1.6v2.9h4.4v1.4h-4.4v3.6c0,1.3,0.7,1.8,1.7,1.8s1.7-0.5,1.7-1.8v-0.2h1.5v0.2
	c0.1,1.8-1.3,3.3-3.1,3.4c-1.8,0.1-3.3-1.3-3.4-3.1C131.1,524.8,131.1,524.7,131.1,524.5L131.1,524.5z"/>
<path class="st92" d="M138.5,523.6c-0.1-2.3,1.7-4.2,4-4.3c0.1,0,0.2,0,0.4,0c2.3-0.1,4.2,1.6,4.3,3.9c0,0.1,0,0.3,0,0.4v4h-1.4
	v-1.8c-0.5,1.3-1.8,2.1-3.1,2c-2.2,0.1-4-1.7-4.1-3.9C138.5,523.8,138.5,523.7,138.5,523.6z M145.6,523.5c0-1.5-1.3-2.8-2.8-2.7
	c-1.5,0-2.8,1.3-2.7,2.8c0,1.5,1.3,2.8,2.8,2.7c1.5,0.1,2.7-1.1,2.8-2.6C145.6,523.7,145.6,523.6,145.6,523.5z"/>
<path class="st92" d="M148.8,523.5V516h1.6v5c0.6-1.1,1.8-1.7,3-1.6c2.2-0.1,4,1.7,4.1,3.9c0,0.1,0,0.2,0,0.3c0.1,2.3-1.7,4.2-4,4.3
	c-0.1,0-0.3,0-0.4,0c-2.3,0.1-4.2-1.6-4.3-3.9C148.8,523.8,148.8,523.6,148.8,523.5z M155.9,523.5c0-1.5-1.3-2.7-2.8-2.7
	c-1.5,0-2.7,1.3-2.7,2.8c0,1.5,1.3,2.7,2.8,2.7c1.5,0,2.7-1.1,2.7-2.6C155.9,523.7,155.9,523.6,155.9,523.5z"/>
<path class="st92" d="M159,516h1.5v11.6H159V516z"/>
<path class="st92" d="M162.4,517.1c0-0.6,0.5-1.1,1.1-1.1c0.6,0,1.1,0.5,1.1,1.1c0,0.6-0.5,1.1-1.1,1.1
	C162.9,518.2,162.4,517.8,162.4,517.1C162.4,517.2,162.4,517.1,162.4,517.1z M162.7,519.5h1.5v8.1h-1.5V519.5z"/>
<path class="st92" d="M165.9,525.2h1.6c0,0.7,0.7,1.2,1.8,1.2s1.8-0.5,1.8-1.2s-0.8-0.9-1.9-1c-1.4-0.2-3.1-0.5-3.1-2.3
	c0-1.6,1.2-2.7,3.2-2.7s3.1,1.1,3.2,2.5h-1.5c0-0.6-0.6-1.1-1.6-1.1s-1.6,0.5-1.6,1.1s0.8,0.8,1.8,1c1.4,0.2,3.1,0.4,3.1,2.3
	c0,1.6-1.3,2.7-3.3,2.7S165.9,526.7,165.9,525.2z"/>
<path class="st92" d="M174.1,516h1.5v4.8c0.5-1,1.6-1.6,2.7-1.5c2,0,3.7,1.3,3.7,4.1v4.2h-1.5v-4.2c0-1.8-1-2.7-2.4-2.7
	c-1.3-0.1-2.4,0.9-2.5,2.2c0,0.1,0,0.3,0,0.4v4.2h-1.5V516z"/>
<path class="st92" d="M102.7,541.8c0.1-3.2,2.7-5.6,5.9-5.6c2.4,0.1,4.5,1.7,5.3,4h-1.8c-0.6-1.5-2.1-2.5-3.7-2.4
	c-2.2,0-4,1.8-3.9,4.1c0,2.2,1.8,4,4.1,3.9c1.6,0,3-1,3.6-2.4h1.8c-1,3-4.2,4.7-7.2,3.7C104.4,546.4,102.8,544.3,102.7,541.8
	L102.7,541.8z"/>
<path class="st92" d="M114.9,543.1c-0.1-2.4,1.8-4.4,4.2-4.4s4.4,1.8,4.4,4.2s-1.8,4.4-4.2,4.4c0,0-0.1,0-0.1,0
	c-2.3,0.1-4.2-1.6-4.3-3.9C114.9,543.4,114.9,543.2,114.9,543.1z M122,543.1c0-1.5-1.3-2.8-2.8-2.7c-1.5,0-2.8,1.3-2.7,2.8
	c0,1.5,1.3,2.8,2.8,2.7c1.5,0.1,2.7-1.1,2.8-2.6C122.1,543.3,122.1,543.2,122,543.1z"/>
<path class="st92" d="M124.9,543c-0.2-2,1.3-3.9,3.3-4.1c0.2,0,0.5,0,0.7,0c2.4,0,4,1.4,4,4.1v4.2h-1.6V543c0-1.8-1-2.7-2.4-2.7
	c-1.3-0.1-2.4,0.9-2.5,2.2c0,0.2,0,0.3,0,0.5v4.2h-1.5V543z"/>
<path class="st92" d="M134.7,538.8c0-1.9,1.6-3.5,3.5-3.5s3.5,1.6,3.5,3.5h-1.6c0-1.1-0.9-1.9-1.9-1.9s-1.9,0.9-1.9,1.9c0,0,0,0,0,0
	v1.4h4.4v1.4h-4.4v5.5h-1.5L134.7,538.8z M142.4,536.7c0-0.6,0.5-1.1,1.1-1.1c0.6,0,1.1,0.5,1.1,1.1c0,0.6-0.5,1.1-1.1,1.1
	C142.9,537.8,142.4,537.4,142.4,536.7C142.4,536.8,142.4,536.8,142.4,536.7z M142.7,539.1h1.5v8.1h-1.5V539.1z"/>
<path class="st92" d="M145.8,543.1c-0.1-2.2,1.6-4.1,3.8-4.2c0.1,0,0.2,0,0.3,0c1.2,0,2.4,0.6,3,1.6v-5h1.5v7.5
	c0.1,2.3-1.6,4.2-3.8,4.3c-0.2,0-0.3,0-0.5,0c-2.3,0.1-4.2-1.7-4.3-3.9C145.8,543.3,145.8,543.2,145.8,543.1z M152.9,543.1
	c0-1.5-1.3-2.8-2.8-2.7c-1.5,0-2.8,1.3-2.7,2.8c0,1.5,1.3,2.7,2.8,2.7c1.5,0.1,2.7-1.1,2.8-2.6C153,543.3,153,543.2,152.9,543.1
	L152.9,543.1z"/>
<path class="st92" d="M155.8,543.1c0-2.4,1.9-4.3,4.3-4.3c2.4,0,4.3,1.9,4.3,4.3v0.6h-7c0.2,1.3,1.3,2.3,2.7,2.2
	c0.9,0.1,1.7-0.3,2.3-1h1.7c-1,2.2-3.7,3.1-5.8,2.1C156.8,546.3,155.9,544.8,155.8,543.1L155.8,543.1z M162.8,542.3
	c-0.3-1.2-1.4-2.1-2.7-2c-1.3-0.1-2.4,0.8-2.7,2H162.8z"/>
<path class="st92" d="M165.7,543c-0.2-2,1.3-3.9,3.3-4.1c0.2,0,0.5,0,0.7,0c2.4,0,4,1.4,4,4.1v4.2h-1.6V543c0.2-1.3-0.7-2.5-2-2.6
	c-0.2,0-0.3,0-0.5,0c-1.5,0-2.4,0.9-2.4,2.7v4.2h-1.6L165.7,543z"/>
<path class="st92" d="M175,543.1c-0.1-2.3,1.7-4.2,4-4.3c0.1,0,0.2,0,0.3,0c2-0.1,3.7,1.2,4.2,3.1h-1.6c-0.6-1.4-2.3-2.1-3.7-1.5
	s-2.1,2.3-1.5,3.7s2.3,2.1,3.7,1.5c0.7-0.3,1.2-0.8,1.5-1.5h1.6c-0.5,1.9-2.2,3.2-4.2,3.1c-2.3,0.1-4.2-1.7-4.3-3.9
	C175,543.3,175,543.2,175,543.1z"/>
<path class="st92" d="M184.4,543.1c0.1-2.4,2.1-4.2,4.5-4.1c2.2,0.1,4,1.9,4.1,4.1v0.6h-7c0.2,1.3,1.4,2.3,2.7,2.2
	c0.9,0.1,1.7-0.3,2.3-1h1.7c-1.1,2.2-3.7,3.1-5.9,2C185.5,546.3,184.5,544.8,184.4,543.1L184.4,543.1z M191.4,542.3
	c-0.3-1.2-1.4-2.1-2.7-2c-1.3-0.1-2.4,0.8-2.7,2H191.4z"/>
<linearGradient id="SVGID_110_" gradientUnits="userSpaceOnUse" x1="-10562.9863" y1="7490.2446" x2="-10451.8564" y2="7456.0742" gradientTransform="matrix(-0.6881 0.7256 0.7256 0.6881 -12506.6299 2631.094)">
	<stop  offset="1.000000e-02" style="stop-color:#35435F"/>
	<stop  offset="1" style="stop-color:#000000"/>
</linearGradient>
<circle class="st113" cx="148.3" cy="147.8" r="68.9"/>
<linearGradient id="SVGID_111_" gradientUnits="userSpaceOnUse" x1="-1357.7112" y1="4696.3784" x2="-1130.4712" y2="4696.3784" gradientTransform="matrix(0.77 0.64 0.64 -0.77 -1834.7064 4614.0327)">
	<stop  offset="1.000000e-02" style="stop-color:#35435F"/>
	<stop  offset="0.97" style="stop-color:#000000"/>
</linearGradient>
<circle class="st114" cx="148.3" cy="147.8" r="63.7"/>
<circle class="st90" cx="145.3" cy="132.2" r="45.1"/>
<g id="_062-8">
	<g id="_08-8">
		
			<linearGradient id="SVGID_112_" gradientUnits="userSpaceOnUse" x1="-403.3534" y1="2628.3059" x2="-181.6934" y2="2527.7161" gradientTransform="matrix(0.91 0.42 0.42 -0.91 -628.3362 2662.948)">
			<stop  offset="1.000000e-02" style="stop-color:#657A9B"/>
			<stop  offset="0.97" style="stop-color:#000000"/>
		</linearGradient>
		<path class="st115" d="M197.7,107.1c-11.2-12.9-22.4-17.5-22.4-17.5C143.1,74.8,105,88.8,90.2,121s-0.7,70.3,31.5,85.1
			c32.2,14.8,70.3,0.7,85.1-31.5c7.1-15.5,7.8-33.1,1.9-49.1C206.2,118.8,202.4,112.5,197.7,107.1z M122.7,204
			c-31-14.3-44.6-50.9-30.3-81.9s50.9-44.6,81.9-30.3c31,14.3,44.6,50.9,30.3,81.9c-6.8,14.9-19.3,26.4-34.7,32.1
			C154.6,211.5,137.5,210.9,122.7,204L122.7,204z"/>
	</g>
</g>
<path class="st92" d="M140,121.1c-0.1-1.8,1.1-3.4,2.8-3.9l0,0c-1.4-0.5-2.3-1.9-2.2-3.4c0-2.6,2-4.2,5-4.2s5,1.6,5,4.2
	c0.1,1.5-0.8,2.9-2.2,3.4l0,0c1.7,0.5,2.8,2.1,2.8,3.9c0,2.9-2.3,4.7-5.5,4.7S140,123.9,140,121.1z M148.8,120.9
	c0-1.7-1.2-2.7-3.2-2.7h-0.3c-1.9,0-3.1,1-3.1,2.7s1.1,2.8,3.3,2.8S148.8,122.5,148.8,120.9z M145.6,116.2c1.6,0,2.6-0.9,2.6-2.3
	s-0.9-2.4-2.7-2.4s-2.7,1-2.7,2.4s1,2.3,2.6,2.3H145.6z"/>
<path class="st92" d="M153.2,124.2c0-0.9,0.7-1.6,1.6-1.6s1.6,0.7,1.6,1.6s-0.7,1.6-1.6,1.6c-0.8,0-1.6-0.6-1.6-1.5
	C153.2,124.3,153.2,124.2,153.2,124.2z"/>
<path class="st92" d="M107.3,138.5h4.6c2.6,0,3.8,1.4,3.8,3.4c0.1,1.5-0.9,3-2.4,3.3l2.8,4h-2l-2.5-3.8H109v3.8h-1.7L107.3,138.5z
	 M111.9,143.8c1.6,0,2.1-0.8,2.1-1.9s-0.5-1.9-2.1-1.9H109v3.8L111.9,143.8z"/>
<path class="st92" d="M116.9,145.1c0-2.4,1.9-4.3,4.3-4.3c2.4,0,4.3,1.9,4.3,4.3v0.6h-7c0.2,1.3,1.4,2.3,2.7,2.2
	c0.9,0.1,1.7-0.3,2.3-1h1.7c-1,2.2-3.7,3.1-5.8,2.1C117.9,148.3,117,146.8,116.9,145.1L116.9,145.1z M123.9,144.3
	c-0.4-1.5-2-2.3-3.5-1.9c-0.9,0.3-1.6,1-1.9,1.9H123.9z"/>
<path class="st92" d="M127.1,140.8c0-1.9,1.6-3.5,3.5-3.5c1.9,0,3.5,1.6,3.5,3.5h-1.5c0-1.4-0.8-2.1-1.9-2.1c-1-0.1-1.9,0.7-1.9,1.6
	c0,0.1,0,0.3,0,0.4v1.4h4.4v1.4h-4.4v5.5h-1.6V140.8z M134.8,138.7c-0.1-0.6,0.4-1.1,1-1.2c0.6-0.1,1.1,0.4,1.2,1c0,0.1,0,0.1,0,0.2
	c0.1,0.6-0.4,1.1-1,1.2c-0.6,0.1-1.1-0.4-1.2-1C134.8,138.8,134.8,138.8,134.8,138.7z M135.1,141.1h1.5v8.1h-1.5L135.1,141.1z"/>
<path class="st92" d="M138.5,145c0-2.7,1.6-4.1,4-4.1s4,1.4,4,4.1v4.2H145V145c0-1.8-1-2.6-2.4-2.6c-1.3-0.1-2.4,0.9-2.5,2.2
	c0,0.2,0,0.3,0,0.5v4.2h-1.5L138.5,145z"/>
<path class="st92" d="M147.8,145.1c0-2.4,1.9-4.3,4.3-4.3c2.4,0,4.3,1.9,4.3,4.3v0.6h-7c0.2,1.3,1.4,2.3,2.7,2.2
	c0.9,0.1,1.7-0.3,2.3-1h1.7c-1.1,2.2-3.7,3.1-5.9,2C148.8,148.3,147.8,146.8,147.8,145.1L147.8,145.1z M154.8,144.3
	c-0.4-1.5-2-2.3-3.5-1.9c-0.9,0.3-1.6,1-1.9,1.9H154.8z"/>
<path class="st92" d="M161.7,145.2c-0.1-2.3,1.7-4.2,4-4.3c0.1,0,0.2,0,0.4,0c2.3-0.1,4.2,1.6,4.3,3.9c0,0.2,0,0.3,0,0.5v4H169v-1.8
	c-0.5,1.3-1.8,2.1-3.1,2c-2.2,0.1-4-1.7-4.1-3.9C161.7,145.4,161.7,145.3,161.7,145.2z M168.9,145.1c0-1.5-1.3-2.8-2.8-2.7
	c-1.5,0-2.8,1.3-2.7,2.8c0,1.5,1.3,2.8,2.8,2.7c1.5,0.1,2.7-1.1,2.8-2.6C168.9,145.3,168.9,145.2,168.9,145.1L168.9,145.1z"/>
<path class="st92" d="M172,145c0-2.7,1.6-4.1,4-4.1s4,1.4,4,4.1v4.2h-1.5V145c0.2-1.3-0.7-2.5-2-2.6c-0.2,0-0.3,0-0.5,0
	c-1.5,0-2.4,0.9-2.4,2.6v4.2H172L172,145z"/>
<path class="st92" d="M181.3,145.1c-0.1-2.2,1.6-4.1,3.8-4.2c0.1,0,0.2,0,0.3,0c1.2-0.1,2.4,0.6,3,1.6v-5h1.6v7.5
	c0.1,2.3-1.6,4.2-3.8,4.3c-0.2,0-0.3,0-0.5,0c-2.3,0.1-4.2-1.6-4.4-3.9C181.2,145.3,181.2,145.2,181.3,145.1z M188.4,145.1
	c0-1.5-1.3-2.8-2.8-2.7c-1.5,0-2.8,1.3-2.7,2.8c0,1.5,1.3,2.7,2.8,2.7c1.5,0.1,2.7-1.1,2.8-2.6C188.4,145.3,188.4,145.2,188.4,145.1
	z"/>
<path class="st92" d="M121.1,158.1h4.6c2.6,0,3.8,1.5,3.8,3.4c0.1,1.6-0.9,3-2.4,3.3l2.8,4h-2l-2.5-3.8h-2.6v3.8h-1.7V158.1z
	 M125.7,163.4c1.5,0,2.1-0.8,2.1-1.9s-0.5-1.9-2.1-1.9h-3v3.8H125.7z"/>
<path class="st92" d="M130.6,164.7c0-2.4,1.9-4.3,4.3-4.3c2.4,0,4.3,1.9,4.3,4.3v0.6h-7c0.2,1.3,1.4,2.3,2.7,2.2
	c0.9,0.1,1.7-0.3,2.3-1h1.7c-0.7,1.6-2.3,2.6-4,2.5c-2.3,0.1-4.2-1.7-4.3-3.9C130.6,165,130.6,164.9,130.6,164.7z M137.6,163.9
	c-0.4-1.5-2-2.3-3.5-1.9c-0.9,0.3-1.6,1-1.9,1.9H137.6z"/>
<path class="st92" d="M140.6,164.8c-0.1-2.3,1.6-4.2,3.8-4.3c0.1,0,0.3,0,0.4,0c2.3-0.1,4.2,1.6,4.4,3.9c0,0.1,0,0.3,0,0.4
	c0.1,2.2-1.6,4.1-3.8,4.2c-0.1,0-0.2,0-0.3,0c-1.2,0-2.4-0.6-3-1.6v4.9h-1.5L140.6,164.8z M147.7,164.7c0-1.5-1.3-2.8-2.8-2.7
	c-1.5,0-2.8,1.3-2.7,2.8c0,1.5,1.2,2.7,2.8,2.7c1.5,0.1,2.7-1.1,2.8-2.6C147.7,164.9,147.7,164.8,147.7,164.7L147.7,164.7z"/>
<path class="st92" d="M150.2,164.7c0-2.4,1.9-4.3,4.3-4.3c2.4,0,4.3,1.9,4.3,4.3v0.6h-7c0.2,1.3,1.4,2.3,2.7,2.2
	c0.9,0.1,1.7-0.3,2.3-1h1.7c-1.1,2.2-3.7,3.1-5.9,2C151.2,167.9,150.2,166.4,150.2,164.7L150.2,164.7z M157.2,163.9
	c-0.4-1.5-2-2.3-3.4-1.9c-0.9,0.3-1.6,1-1.9,1.9H157.2z"/>
<path class="st92" d="M159.8,164.8c-0.1-2.3,1.7-4.2,4-4.3c0.1,0,0.2,0,0.4,0c2.3-0.1,4.2,1.6,4.3,3.9c0,0.1,0,0.3,0,0.4v4H167V167
	c-0.5,1.3-1.8,2.1-3.1,2c-2.2,0.1-4-1.7-4.1-3.9C159.8,165,159.8,164.9,159.8,164.8z M166.9,164.7c0-1.5-1.3-2.8-2.8-2.7
	c-1.5,0-2.8,1.3-2.7,2.8c0,1.5,1.3,2.7,2.8,2.8c1.5,0.1,2.7-1.1,2.8-2.6C166.9,164.9,166.9,164.8,166.9,164.7L166.9,164.7z"/>
<path class="st92" d="M170,165.7v-7.9h1.5v2.9h4.5v1.4h-4.5v3.6c0,1.3,0.7,1.8,1.7,1.8s1.7-0.5,1.7-1.8v-0.2h1.5v0.2
	c0.1,1.8-1.3,3.3-3.1,3.4s-3.3-1.3-3.4-3.1C170,166,170,165.8,170,165.7L170,165.7z"/>
<path d="M185.6,310.4v-8.5h2v8.5c0,2,1.1,2.9,2.6,2.9s2.6-1,2.6-2.9v-8.5h2v8.5c0,2,1.1,2.9,2.6,2.9s2.7-0.9,2.7-2.9v-8.5h2v8.5
	c0,3.2-2,4.8-4.5,4.8c-0.8,0-1.6-0.2-2.3-0.6c-0.6-0.4-1.1-0.9-1.4-1.6c-0.3,0.6-0.7,1.1-1.3,1.5c-0.8,0.5-1.6,0.7-2.5,0.7
	C187.6,315.1,185.6,313.6,185.6,310.4z"/>
<path d="M203.8,309.9c0-2.9,2.4-5.3,5.3-5.3c2.9,0,5.3,2.4,5.3,5.3v0.7h-8.6c0.2,1.7,1.7,2.9,3.3,2.7c1.1,0.1,2.1-0.4,2.8-1.3h2.1
	c-1.3,2.7-4.5,3.8-7.2,2.5C205,313.7,203.9,311.9,203.8,309.9L203.8,309.9z M212.4,308.9c-0.4-1.5-1.7-2.5-3.3-2.4
	c-1.5-0.1-2.9,0.9-3.3,2.4H212.4z"/>
<path d="M220.9,309.9c0-2.9,2.4-5.3,5.3-5.3c2.9,0,5.3,2.4,5.3,5.3v0.7h-8.6c0.2,1.6,1.7,2.8,3.3,2.7c1.1,0.1,2.1-0.4,2.8-1.3h2.1
	c-1.3,2.7-4.5,3.8-7.2,2.5C222.1,313.7,220.9,311.9,220.9,309.9z M229.5,308.9c-0.4-1.5-1.7-2.5-3.3-2.4c-1.5-0.1-2.9,0.9-3.3,2.4
	H229.5z"/>
<path d="M235.7,309.8L232,305h2.3l2.8,3.9l2.8-3.9h2.3l-3.8,4.9l3.9,5H240l-3-4l-3,4h-2.3L235.7,309.8z"/>
<path d="M243.7,311.1v-9.6h1.9v3.5h5.4v1.7h-5.4v4.4c0,1.6,0.8,2.2,2.1,2.2s2.1-0.7,2.1-2.2v-0.2h1.9v0.2c0.3,2.2-1.2,4.2-3.4,4.5
	c-2.2,0.3-4.2-1.2-4.5-3.4C243.6,311.9,243.6,311.5,243.7,311.1L243.7,311.1z"/>
<path d="M253.2,309c0-2.9,1.7-4.3,4.3-4.3s4.2,1.4,4.2,4.3v0.1h-1.9V309c0-1.8-1-2.6-2.4-2.6s-2.4,0.7-2.4,2.6v5.8h-1.9V309z"/>
<path d="M262.6,310c-0.1-2.8,2.1-5.2,4.9-5.3c0.2,0,0.3,0,0.5,0c2.8-0.1,5.1,2,5.3,4.7c0,0.2,0,0.4,0,0.6v4.9h-1.7v-2.2
	c-0.6,1.5-2.2,2.5-3.8,2.4c-2.7,0.1-5-2.1-5-4.8C262.6,310.2,262.6,310.1,262.6,310z M271.3,309.9c0-1.9-1.6-3.4-3.4-3.4
	s-3.4,1.6-3.4,3.4c0,1.9,1.5,3.4,3.4,3.4c1.8,0.1,3.3-1.3,3.4-3.1C271.3,310.1,271.3,310,271.3,309.9L271.3,309.9z"/>
<path d="M274.7,309.9c-0.1-2.8,2.1-5.1,4.9-5.2c0.1,0,0.3,0,0.4,0c2.4-0.1,4.5,1.5,5.1,3.8h-1.9c-0.8-1.7-2.8-2.6-4.5-1.8
	c-1.7,0.8-2.6,2.8-1.8,4.5c0.8,1.7,2.8,2.6,4.5,1.8c0.8-0.3,1.5-1,1.8-1.8h1.9c-0.6,2.3-2.7,4-5.1,3.8c-2.8,0.1-5.2-2.1-5.3-4.9
	C274.7,310.1,274.7,310,274.7,309.9z"/>
<path d="M286.7,311.1v-9.6h1.9v3.5h5.5v1.7h-5.4v4.4c0,1.6,0.8,2.2,2.1,2.2s2.1-0.7,2.1-2.2v-0.2h1.9v0.2c0.3,2.2-1.2,4.2-3.4,4.5
	c-2.2,0.3-4.2-1.2-4.5-3.4C286.7,311.9,286.7,311.5,286.7,311.1L286.7,311.1z"/>
<path d="M301.6,316h1.9c0.5,1.1,1.6,1.8,2.9,1.6c1.8,0,3-0.9,3-3.1v-1.4c-0.6,1.2-1.9,2-3.3,1.9c-2.5,0-4.6-1.5-4.6-5V305h1.9v5.1
	c0,2.1,1.2,3.2,3,3.2s3-1.1,3-3.2V305h1.9v9.5c0,3.4-2.2,4.8-4.9,4.8C304.1,319.4,302.2,318.3,301.6,316z"/>
<path d="M313.2,309.9c-0.1-2.9,2.3-5.4,5.2-5.4c2.9-0.1,5.4,2.3,5.4,5.2c0.1,2.9-2.3,5.4-5.2,5.4c0,0-0.1,0-0.1,0
	c-2.8,0.1-5.2-2-5.3-4.8C313.2,310.2,313.2,310,313.2,309.9z M321.9,309.9c0-1.9-1.6-3.4-3.4-3.4s-3.4,1.6-3.4,3.4
	c0,1.9,1.5,3.4,3.4,3.4c1.8,0.1,3.3-1.3,3.4-3.1C321.9,310.1,321.9,310,321.9,309.9z"/>
<path d="M325.4,310.1V305h1.9v5.2c0,2.1,1.2,3.2,3,3.2s3-1.1,3-3.2V305h1.8v5.2c0,3.3-2,5-4.9,5S325.4,313.4,325.4,310.1z"/>
<path d="M337.1,309c0-2.9,1.7-4.3,4.3-4.3s4.2,1.4,4.2,4.3v0.1h-1.9V309c0-1.8-1-2.6-2.4-2.6s-2.4,0.7-2.4,2.6v5.8h-1.9V309z"/>
<path d="M351.8,309.9c-0.1-2.7,2-5,4.7-5.1c0.1,0,0.2,0,0.3,0c1.5-0.1,2.9,0.7,3.7,2v-6.1h1.9v9.2c0.2,2.8-1.9,5.1-4.7,5.3
	c-0.2,0-0.4,0-0.6,0c-2.8,0.1-5.2-2-5.3-4.8C351.8,310.2,351.8,310,351.8,309.9z M360.5,309.9c0-1.9-1.6-3.4-3.4-3.3
	c-1.9,0-3.4,1.6-3.3,3.4c0,1.8,1.5,3.3,3.4,3.3c1.8,0.1,3.3-1.3,3.4-3.1C360.5,310.1,360.5,310,360.5,309.9z"/>
<path d="M364,310c-0.1-2.8,2.1-5.2,4.9-5.3c0.2,0,0.3,0,0.5,0c2.8-0.1,5.1,2,5.3,4.7c0,0.2,0,0.4,0,0.6v4.9h-1.7v-2.2
	c-0.6,1.5-2.2,2.5-3.8,2.4c-2.7,0.1-5-2.1-5-4.8C364,310.2,364,310.1,364,310z M372.7,309.9c0-1.9-1.6-3.4-3.4-3.4s-3.4,1.6-3.4,3.4
	c0,1.9,1.5,3.4,3.4,3.4c1.8,0.1,3.3-1.3,3.4-3.1C372.7,310.1,372.7,310,372.7,309.9L372.7,309.9z"/>
<path d="M376.6,311.1v-9.6h1.9v3.5h5.4v1.7h-5.4v4.4c0,1.6,0.8,2.2,2.1,2.2s2.1-0.7,2.1-2.2v-0.2h1.9v0.2c0.3,2.2-1.2,4.2-3.4,4.5
	c-2.2,0.3-4.2-1.2-4.5-3.4C376.5,311.9,376.5,311.5,376.6,311.1L376.6,311.1z"/>
<path d="M385.7,310c-0.1-2.8,2.1-5.2,4.9-5.3c0.2,0,0.3,0,0.5,0c2.8-0.1,5.1,2,5.3,4.7c0,0.2,0,0.4,0,0.6v4.9h-1.7v-2.2
	c-0.6,1.5-2.2,2.5-3.8,2.4c-2.7,0.1-5-2.1-5-4.8C385.7,310.2,385.7,310.1,385.7,310z M394.4,309.9c0-1.9-1.6-3.4-3.4-3.4
	c-1.9,0-3.4,1.6-3.4,3.4c0,1.9,1.5,3.4,3.4,3.4c1.8,0.1,3.3-1.3,3.4-3.1C394.4,310.1,394.4,310,394.4,309.9L394.4,309.9z"/>
<path d="M403.5,302.1c0-0.7,0.6-1.3,1.3-1.3c0.7,0,1.3,0.6,1.3,1.3s-0.6,1.3-1.3,1.3C404.1,303.4,403.5,302.8,403.5,302.1
	L403.5,302.1z M403.9,305h1.9v9.9h-1.9V305z"/>
<path d="M408.1,309.7c0-3.3,2-5,4.9-5s4.9,1.7,4.9,5v5.1H416v-5.1c0-2.1-1.2-3.2-3-3.2s-3,1.1-3,3.2v5.1h-1.9V309.7z"/>
<path d="M419.8,311.1v-9.6h1.9v3.5h5.4v1.7h-5.4v4.4c0,1.6,0.8,2.2,2.1,2.2s2.1-0.7,2.1-2.2v-0.2h1.9v0.2c0.3,2.2-1.2,4.2-3.4,4.5
	c-2.2,0.3-4.2-1.2-4.5-3.4C419.7,311.9,419.7,311.5,419.8,311.1L419.8,311.1z"/>
<path d="M428.9,309.9c-0.1-2.9,2.3-5.4,5.2-5.4c2.9-0.1,5.4,2.3,5.4,5.2c0.1,2.9-2.3,5.4-5.2,5.4c0,0-0.1,0-0.1,0
	c-2.8,0.1-5.2-2-5.3-4.8C428.9,310.2,428.9,310,428.9,309.9z M437.6,309.9c0-1.9-1.6-3.4-3.4-3.4c-1.9,0-3.4,1.6-3.4,3.4
	c0,1.9,1.5,3.4,3.4,3.4c1.8,0.1,3.3-1.3,3.4-3.1C437.6,310.1,437.6,310,437.6,309.9z"/>
<path d="M446.5,316h1.9c0.5,1.1,1.6,1.8,2.9,1.6c1.8,0,3-0.9,3-3.1v-1.4c-0.6,1.2-1.9,2-3.3,1.9c-2.5,0-4.6-1.5-4.6-5V305h1.9v5.1
	c0,2.1,1.2,3.2,3,3.2s3-1.1,3-3.2V305h1.9v9.5c0,3.4-2.2,4.8-4.9,4.8C449,319.4,447.1,318.3,446.5,316z"/>
<path d="M458.1,309.9c-0.1-2.9,2.3-5.4,5.2-5.4c2.9-0.1,5.4,2.3,5.4,5.2c0.1,2.9-2.3,5.4-5.2,5.4c0,0-0.1,0-0.1,0
	c-2.8,0.1-5.2-2-5.3-4.8C458.1,310.2,458.1,310,458.1,309.9z M466.8,309.9c0-1.9-1.6-3.4-3.4-3.4c-1.9,0-3.4,1.6-3.4,3.4
	c0,1.9,1.5,3.4,3.4,3.4c1.8,0.1,3.3-1.4,3.4-3.2C466.8,310.1,466.8,310,466.8,309.9L466.8,309.9z"/>
<path d="M470.3,310.1V305h1.9v5.2c0,2.1,1.2,3.2,3,3.2s3-1.1,3-3.2V305h1.9v5.2c0,3.3-2,5-4.9,5S470.3,313.4,470.3,310.1z"/>
<path d="M482,309c0-2.9,1.7-4.3,4.3-4.3s4.2,1.4,4.2,4.3v0.1h-1.9V309c0-1.8-1-2.6-2.4-2.6s-2.4,0.7-2.4,2.6v5.8H482V309z"/>
<path d="M172,335.1v-9.6h1.9v3.5h5.4v1.7H174v4.4c0,1.6,0.8,2.2,2.1,2.2s2.1-0.7,2.1-2.2v-0.2h1.9v0.2c0.3,2.2-1.2,4.2-3.4,4.5
	c-2.2,0.3-4.2-1.2-4.5-3.4C172,335.9,172,335.5,172,335.1L172,335.1z"/>
<path d="M181.1,333.9c0-2.9,2.4-5.3,5.3-5.3c2.9,0,5.3,2.4,5.3,5.3v0.7h-8.6c0.2,1.6,1.7,2.8,3.3,2.7c1.1,0.1,2.1-0.4,2.8-1.3h2.1
	c-1.3,2.7-4.5,3.8-7.2,2.5C182.3,337.7,181.2,335.9,181.1,333.9z M189.7,332.9c-0.4-1.5-1.7-2.5-3.3-2.4c-1.5-0.1-2.9,0.9-3.3,2.4
	H189.7z"/>
<path d="M193.3,333.7c0-3.3,2-5,4.9-5s4.9,1.7,4.9,5v5.1h-1.9v-5.1c0-2.1-1.2-3.2-3-3.2s-3,1.1-3,3.2v5.1h-1.9L193.3,333.7z"/>
<path d="M204.6,334c-0.1-2.8,2.1-5.2,4.9-5.3c0.2,0,0.3,0,0.5,0c2.8-0.1,5.1,2,5.3,4.7c0,0.2,0,0.4,0,0.6v4.9h-1.7v-2.2
	c-0.6,1.5-2.2,2.5-3.8,2.4c-2.7,0.1-5-2.1-5-4.8C204.6,334.2,204.6,334.1,204.6,334z M213.3,333.9c0-1.9-1.6-3.4-3.4-3.4
	s-3.4,1.6-3.4,3.4c0,1.9,1.5,3.4,3.4,3.4c1.8,0.1,3.3-1.3,3.4-3.1C213.4,334.1,213.4,334,213.3,333.9L213.3,333.9z"/>
<path d="M217.2,333.7c0-3.3,2-5,4.9-5s4.9,1.7,4.9,5v5.1H225v-5.1c0-2.1-1.2-3.2-3-3.2s-3,1.1-3,3.2v5.1h-1.9L217.2,333.7z"/>
<path d="M228.5,333.9c-0.1-2.8,2.1-5.1,4.9-5.2c0.1,0,0.3,0,0.4,0c2.4-0.1,4.5,1.5,5.1,3.8H237c-0.8-1.7-2.8-2.6-4.5-1.8
	c-1.7,0.8-2.6,2.8-1.8,4.5c0.8,1.7,2.8,2.6,4.5,1.8c0.8-0.3,1.5-1,1.8-1.8h1.9c-0.6,2.3-2.7,4-5.1,3.8c-2.8,0.1-5.2-2-5.3-4.8
	C228.5,334.2,228.5,334,228.5,333.9z"/>
<path d="M240.6,340h1.9c0.5,1.1,1.6,1.8,2.9,1.6c1.8,0,3-0.9,3-3.1v-1.4c-0.6,1.2-1.9,2-3.3,1.9c-2.5,0-4.6-1.5-4.6-5V329h1.9v5.1
	c0,2.1,1.2,3.2,3,3.2s3-1.1,3-3.2V329h1.9v9.5c0,3.4-2.2,4.8-4.9,4.8C243.1,343.4,241.2,342.3,240.6,340z"/>
<path d="M257.8,326.1c0-0.7,0.6-1.3,1.3-1.3s1.3,0.6,1.3,1.3s-0.6,1.3-1.3,1.3S257.8,326.8,257.8,326.1z M258.2,329h1.9v9.9h-1.9
	L258.2,329z"/>
<path d="M262.4,333.7c0-3.3,2-5,4.9-5s4.9,1.7,4.9,5v5.1h-1.9v-5.1c0-2.1-1.2-3.2-3-3.2s-3,1.1-3,3.2v5.1h-1.9L262.4,333.7z"/>
<path d="M279.1,333.9c-0.1-2.9,2.3-5.4,5.2-5.4c2.9-0.1,5.4,2.3,5.4,5.2c0.1,2.9-2.3,5.4-5.2,5.4c0,0-0.1,0-0.1,0
	c-2.8,0.1-5.2-2-5.3-4.8C279.1,334.2,279.1,334,279.1,333.9z M287.8,333.9c0-1.9-1.6-3.4-3.4-3.4s-3.4,1.6-3.4,3.4
	c0,1.9,1.5,3.4,3.4,3.4c1.8,0,3.3-1.4,3.4-3.2C287.8,334.1,287.8,334,287.8,333.9L287.8,333.9z"/>
<path d="M291.3,334.1V329h1.9v5.2c0,2.1,1.2,3.2,3,3.2s3-1.1,3-3.2V329h1.9v5.2c0,3.3-2,5-4.9,5S291.3,337.4,291.3,334.1z"/>
<path d="M303,333c0-2.9,1.7-4.3,4.3-4.3s4.2,1.4,4.2,4.3v0.1h-1.9V333c0-1.8-1-2.6-2.4-2.6s-2.4,0.7-2.4,2.6v5.8H303V333z"/>
<path d="M317.7,333.9c-0.1-2.8,2.1-5.1,4.9-5.2c0.1,0,0.3,0,0.4,0c2.4-0.1,4.5,1.5,5.1,3.8h-1.9c-0.8-1.7-2.8-2.6-4.5-1.8
	c-1.7,0.8-2.6,2.8-1.8,4.5c0.8,1.7,2.8,2.6,4.5,1.8c0.8-0.3,1.5-1,1.8-1.8h1.9c-0.6,2.3-2.7,4-5.1,3.8c-2.8,0.1-5.2-2-5.3-4.8
	C317.7,334.2,317.7,334,317.7,333.9z"/>
<path d="M330.1,324.6h1.9v14.2h-1.9V324.6z"/>
<path d="M333.9,333.9c-0.1-2.9,2.3-5.4,5.2-5.4c2.9-0.1,5.4,2.3,5.4,5.2c0.1,2.9-2.3,5.4-5.2,5.4c0,0-0.1,0-0.1,0
	c-2.8,0.1-5.2-2-5.3-4.8C333.9,334.2,333.9,334,333.9,333.9z M342.6,333.9c0-1.9-1.6-3.4-3.4-3.4s-3.4,1.6-3.4,3.4
	c0,1.9,1.5,3.4,3.4,3.4c1.8,0.1,3.3-1.3,3.4-3.1C342.6,334.1,342.6,334,342.6,333.9z"/>
<path d="M346.1,334.1V329h1.9v5.2c0,2.1,1.2,3.2,3,3.2s3-1.1,3-3.2V329h1.9v5.2c0,3.3-2,5-4.9,5S346.1,337.4,346.1,334.1z"/>
<path d="M357.4,333.9c-0.1-2.7,2-5,4.7-5.1c0.1,0,0.2,0,0.3,0c1.5-0.1,2.9,0.7,3.7,2v-6.1h1.9v9.2c0.2,2.8-1.9,5.1-4.7,5.3
	c-0.2,0-0.4,0-0.6,0c-2.8,0.1-5.2-2-5.3-4.8C357.4,334.2,357.4,334,357.4,333.9z M366.1,333.9c0-1.9-1.6-3.4-3.4-3.3
	c-1.9,0-3.4,1.6-3.3,3.4c0,1.9,1.5,3.3,3.4,3.3c1.8,0.1,3.3-1.3,3.4-3.1C366.1,334.1,366.1,334,366.1,333.9L366.1,333.9z"/>
<path d="M374.9,336h1.9c0,0.8,0.8,1.4,2.2,1.4s2.2-0.6,2.2-1.4c0-0.9-1-1.1-2.3-1.2c-1.7-0.2-3.8-0.5-3.8-2.8c0-1.9,1.5-3.3,3.9-3.3
	s3.8,1.3,3.9,3H381c-0.1-0.8-0.8-1.3-2-1.3s-2,0.6-2,1.4c0,0.9,1,1,2.3,1.2c1.7,0.2,3.8,0.5,3.8,2.8c0,2-1.6,3.3-4.1,3.3
	S375,337.8,374.9,336z"/>
<path d="M384.3,333.9c-0.1-2.9,2.3-5.4,5.2-5.4c2.9-0.1,5.4,2.3,5.4,5.2c0.1,2.9-2.3,5.4-5.2,5.4c0,0-0.1,0-0.1,0
	c-2.8,0.1-5.2-2-5.3-4.8C384.3,334.2,384.3,334,384.3,333.9z M393,333.9c0-1.9-1.6-3.4-3.4-3.4c-1.9,0-3.4,1.6-3.4,3.4
	c0,1.9,1.5,3.4,3.4,3.4c1.8,0.1,3.3-1.3,3.4-3.1C393.1,334.1,393.1,334,393,333.9L393,333.9z"/>
<path d="M396.9,324.6h1.9v14.2h-1.9V324.6z"/>
<path d="M401.1,334.1V329h1.9v5.2c0,2.1,1.2,3.2,3,3.2s3-1.1,3-3.2V329h1.9v5.2c0,3.3-2,5-4.9,5S401.1,337.4,401.1,334.1z"/>
<path d="M412.8,335.1v-9.6h1.9v3.5h5.4v1.7h-5.4v4.4c0,1.6,0.8,2.2,2.1,2.2s2.1-0.7,2.1-2.2v-0.2h1.9v0.2c0.3,2.2-1.2,4.2-3.4,4.5
	c-2.2,0.3-4.2-1.2-4.5-3.4C412.8,335.9,412.8,335.5,412.8,335.1L412.8,335.1z"/>
<path d="M422.3,326.1c0-0.7,0.6-1.3,1.3-1.3c0.7,0,1.3,0.6,1.3,1.3s-0.6,1.3-1.3,1.3C422.9,327.4,422.3,326.8,422.3,326.1z
	 M422.7,329h1.9v9.9h-1.9V329z"/>
<path d="M426.5,333.9c-0.1-2.9,2.3-5.4,5.2-5.4c2.9-0.1,5.4,2.3,5.4,5.2c0.1,2.9-2.3,5.4-5.2,5.4c0,0-0.1,0-0.1,0
	c-2.8,0.1-5.2-2-5.3-4.8C426.5,334.2,426.5,334,426.5,333.9z M435.2,333.9c0-1.9-1.6-3.4-3.4-3.4c-1.9,0-3.4,1.6-3.4,3.4
	c0,1.9,1.5,3.4,3.4,3.4c1.8,0.1,3.3-1.3,3.4-3.1C435.2,334.1,435.2,334,435.2,333.9z"/>
<path d="M438.7,333.7c0-3.3,2-5,4.9-5s4.9,1.7,4.9,5v5.1h-1.9v-5.1c0-2.1-1.2-3.2-3-3.2s-3,1.1-3,3.2v5.1h-1.9L438.7,333.7z"/>
<path d="M455.7,334.1V329h1.9v5.2c0,2.1,1.2,3.2,3,3.2s3-1.1,3-3.2V329h1.9v5.2c0,3.3-2,5-4.9,5S455.7,337.4,455.7,334.1z"/>
<path d="M467.1,336h1.9c0,0.8,0.8,1.4,2.2,1.4s2.2-0.6,2.2-1.4c0-0.9-1-1.1-2.3-1.2c-1.7-0.2-3.8-0.5-3.8-2.8c0-1.9,1.5-3.3,3.9-3.3
	s3.8,1.3,3.9,3h-2c-0.1-0.8-0.8-1.3-2-1.3s-2,0.6-2,1.4c0,0.9,1,1,2.3,1.2c1.7,0.2,3.8,0.5,3.8,2.8c0,2-1.6,3.3-4.1,3.3
	S467.1,337.8,467.1,336z"/>
<path d="M476.9,326.1c0-0.7,0.6-1.3,1.3-1.3c0.7,0,1.3,0.6,1.3,1.3s-0.6,1.3-1.3,1.3C477.5,327.4,476.9,326.8,476.9,326.1z
	 M477.2,329h1.9v9.9h-1.9V329z"/>
<path d="M481.4,333.7c0-3.3,2-5,4.9-5s4.9,1.7,4.9,5v5.1h-1.9v-5.1c0-2.1-1.2-3.2-3-3.2s-3,1.1-3,3.2v5.1h-1.9L481.4,333.7z"/>
<path d="M493.1,340h1.9c0.6,1.1,1.8,1.8,3.1,1.6c2,0,3.4-1,3.4-3.5V337c-0.8,1.3-2.2,2.1-3.7,2c-2.7,0.1-4.9-2-5-4.7
	c0-0.1,0-0.3,0-0.4c-0.1-2.8,2.1-5.1,4.9-5.2c0.1,0,0.3,0,0.4,0c2.8-0.2,5.1,1.9,5.3,4.7c0,0.2,0,0.4,0,0.6v4.1
	c0,3.8-2.3,5.3-5.2,5.3C495.7,343.4,493.8,342.4,493.1,340z M501.5,333.9c0-1.9-1.5-3.4-3.4-3.4s-3.4,1.5-3.4,3.4s1.5,3.4,3.4,3.4
	S501.5,335.8,501.5,333.9z"/>
<path d="M261,357.9c-0.1-2.9,2.3-5.4,5.2-5.4c2.9-0.1,5.4,2.3,5.4,5.2c0.1,2.9-2.3,5.4-5.2,5.4c0,0-0.1,0-0.1,0
	c-2.8,0.1-5.2-2-5.3-4.8C261,358.2,261,358,261,357.9z M269.8,357.9c0-1.9-1.6-3.4-3.4-3.4s-3.4,1.6-3.4,3.4c0,1.9,1.5,3.4,3.4,3.4
	c1.8,0.1,3.3-1.3,3.4-3.1C269.8,358.1,269.8,358,269.8,357.9L269.8,357.9z"/>
<path d="M273.2,358.1V353h1.9v5.2c0,2.1,1.2,3.2,3,3.2s3-1.1,3-3.2V353h1.9v5.2c0,3.3-2,5-4.9,5S273.2,361.4,273.2,358.1z"/>
<path d="M285,357c0-2.9,1.7-4.3,4.3-4.3s4.2,1.4,4.2,4.3v0.1h-1.9V357c0-1.8-1-2.6-2.4-2.6s-2.4,0.7-2.4,2.6v5.8H285V357z"/>
<path d="M299.7,360h1.9c0,0.8,0.8,1.4,2.2,1.4s2.2-0.6,2.2-1.4c0-0.9-1-1.1-2.3-1.2c-1.7-0.2-3.8-0.5-3.8-2.8c0-1.9,1.5-3.3,3.9-3.3
	s3.8,1.3,3.9,3h-1.9c-0.1-0.8-0.8-1.3-2-1.3s-2,0.6-2,1.4c0,0.9,1,1,2.3,1.2c1.7,0.2,3.8,0.5,3.8,2.8c0,2-1.6,3.3-4.1,3.3
	S299.8,361.8,299.7,360z"/>
<path d="M309.1,357.9c0-2.9,2.4-5.3,5.3-5.3c2.9,0,5.3,2.4,5.3,5.3v0.7h-8.6c0.2,1.6,1.7,2.8,3.3,2.7c1.1,0.1,2.1-0.4,2.8-1.3h2.1
	c-1.3,2.7-4.5,3.8-7.2,2.5C310.3,361.7,309.2,359.9,309.1,357.9z M317.7,356.9c-0.4-1.5-1.7-2.5-3.3-2.4c-1.5-0.1-2.9,0.9-3.3,2.4
	H317.7z"/>
<path d="M320.9,357.9c-0.1-2.8,2.1-5.1,4.9-5.2c0.1,0,0.3,0,0.4,0c2.4-0.1,4.5,1.5,5.1,3.8h-1.9c-0.8-1.7-2.8-2.6-4.5-1.8
	c-1.7,0.8-2.6,2.8-1.8,4.5c0.8,1.7,2.8,2.6,4.5,1.8c0.8-0.3,1.5-1,1.8-1.8h1.9c-0.6,2.3-2.7,4-5.1,3.8c-2.8,0.1-5.2-2-5.3-4.8
	C320.9,358.2,320.9,358,320.9,357.9z"/>
<path d="M332.9,358.1V353h1.9v5.2c0,2.1,1.2,3.2,3,3.2s3-1.1,3-3.2V353h1.9v5.2c0,3.3-2,5-4.9,5S332.9,361.4,332.9,358.1z"/>
<path d="M344.6,357c0-2.9,1.7-4.3,4.3-4.3s4.2,1.4,4.2,4.3v0.1h-1.9V357c0-1.8-1-2.6-2.4-2.6s-2.4,0.7-2.4,2.6v5.8h-1.9V357z"/>
<path d="M354,357.9c0-2.9,2.4-5.3,5.3-5.3c2.9,0,5.3,2.4,5.3,5.3v0.7H356c0.2,1.6,1.7,2.8,3.3,2.7c1.1,0.1,2.1-0.4,2.8-1.3h2.1
	c-1.3,2.7-4.5,3.8-7.2,2.5C355.2,361.7,354.1,359.9,354,357.9z M362.6,356.9c-0.4-1.5-1.7-2.5-3.3-2.4c-1.5-0.1-2.9,0.9-3.3,2.4
	H362.6z"/>
<path d="M371.5,355.1c0-3.5,2-5.6,5.7-5.6s5.7,2.2,5.7,5.6v7.7h-2v-4.1h-7.4v4.1h-2L371.5,355.1z M380.9,356.8v-1.7
	c0-2.4-1.2-3.8-3.7-3.8s-3.7,1.4-3.7,3.8v1.7H380.9z"/>
<path d="M385.3,349.8h5.5c3.3,0,4.8,1.8,4.8,4.3s-1.5,4.3-4.8,4.3h-3.4v4.5h-2L385.3,349.8z M390.8,356.5c2,0,2.7-1,2.7-2.4
	s-0.7-2.4-2.7-2.4h-3.5v4.9L390.8,356.5z"/>
<path d="M397.3,349.8h2v13.1h-2V349.8z"/>
<path d="M401.4,360h1.9c0,0.8,0.8,1.4,2.2,1.4s2.2-0.6,2.2-1.4c0-0.9-1-1.1-2.3-1.2c-1.7-0.2-3.8-0.5-3.8-2.8c0-1.9,1.5-3.3,3.9-3.3
	s3.8,1.3,3.9,3h-1.9c-0.1-0.8-0.8-1.3-2-1.3s-2,0.6-2,1.4c0,0.9,1,1,2.3,1.2c1.7,0.2,3.8,0.5,3.8,2.8c0,2-1.6,3.3-4.1,3.3
	S401.4,361.8,401.4,360z"/>
<path d="M411.1,361.8c0-0.7,0.6-1.3,1.3-1.3c0.7,0,1.3,0.6,1.3,1.3s-0.6,1.3-1.3,1.3c0,0,0,0,0,0
	C411.7,363.1,411.1,362.6,411.1,361.8C411.1,361.8,411.1,361.8,411.1,361.8z"/>
</svg>
